%TF.GenerationSoftware,KiCad,Pcbnew,9.0.3*%
%TF.CreationDate,2025-12-03T20:13:16+05:30*%
%TF.ProjectId,cpm_vehicle_pcb,63706d5f-7665-4686-9963-6c655f706362,rev?*%
%TF.SameCoordinates,Original*%
%TF.FileFunction,Soldermask,Top*%
%TF.FilePolarity,Negative*%
%FSLAX46Y46*%
G04 Gerber Fmt 4.6, Leading zero omitted, Abs format (unit mm)*
G04 Created by KiCad (PCBNEW 9.0.3) date 2025-12-03 20:13:16*
%MOMM*%
%LPD*%
G01*
G04 APERTURE LIST*
G04 Aperture macros list*
%AMRoundRect*
0 Rectangle with rounded corners*
0 $1 Rounding radius*
0 $2 $3 $4 $5 $6 $7 $8 $9 X,Y pos of 4 corners*
0 Add a 4 corners polygon primitive as box body*
4,1,4,$2,$3,$4,$5,$6,$7,$8,$9,$2,$3,0*
0 Add four circle primitives for the rounded corners*
1,1,$1+$1,$2,$3*
1,1,$1+$1,$4,$5*
1,1,$1+$1,$6,$7*
1,1,$1+$1,$8,$9*
0 Add four rect primitives between the rounded corners*
20,1,$1+$1,$2,$3,$4,$5,0*
20,1,$1+$1,$4,$5,$6,$7,0*
20,1,$1+$1,$6,$7,$8,$9,0*
20,1,$1+$1,$8,$9,$2,$3,0*%
%AMOutline5P*
0 Free polygon, 5 corners , with rotation*
0 The origin of the aperture is its center*
0 number of corners: always 5*
0 $1 to $10 corner X, Y*
0 $11 Rotation angle, in degrees counterclockwise*
0 create outline with 5 corners*
4,1,5,$1,$2,$3,$4,$5,$6,$7,$8,$9,$10,$1,$2,$11*%
%AMOutline6P*
0 Free polygon, 6 corners , with rotation*
0 The origin of the aperture is its center*
0 number of corners: always 6*
0 $1 to $12 corner X, Y*
0 $13 Rotation angle, in degrees counterclockwise*
0 create outline with 6 corners*
4,1,6,$1,$2,$3,$4,$5,$6,$7,$8,$9,$10,$11,$12,$1,$2,$13*%
%AMOutline7P*
0 Free polygon, 7 corners , with rotation*
0 The origin of the aperture is its center*
0 number of corners: always 7*
0 $1 to $14 corner X, Y*
0 $15 Rotation angle, in degrees counterclockwise*
0 create outline with 7 corners*
4,1,7,$1,$2,$3,$4,$5,$6,$7,$8,$9,$10,$11,$12,$13,$14,$1,$2,$15*%
%AMOutline8P*
0 Free polygon, 8 corners , with rotation*
0 The origin of the aperture is its center*
0 number of corners: always 8*
0 $1 to $16 corner X, Y*
0 $17 Rotation angle, in degrees counterclockwise*
0 create outline with 8 corners*
4,1,8,$1,$2,$3,$4,$5,$6,$7,$8,$9,$10,$11,$12,$13,$14,$15,$16,$1,$2,$17*%
G04 Aperture macros list end*
%ADD10RoundRect,0.200000X-0.275000X0.200000X-0.275000X-0.200000X0.275000X-0.200000X0.275000X0.200000X0*%
%ADD11RoundRect,0.200000X0.200000X0.275000X-0.200000X0.275000X-0.200000X-0.275000X0.200000X-0.275000X0*%
%ADD12O,3.048000X1.524000*%
%ADD13RoundRect,0.250000X-0.970000X-0.310000X0.970000X-0.310000X0.970000X0.310000X-0.970000X0.310000X0*%
%ADD14RoundRect,0.200000X0.275000X-0.200000X0.275000X0.200000X-0.275000X0.200000X-0.275000X-0.200000X0*%
%ADD15R,1.500000X1.300000*%
%ADD16R,1.700000X1.700000*%
%ADD17C,1.700000*%
%ADD18R,1.000000X1.400000*%
%ADD19RoundRect,0.200000X-0.200000X-0.275000X0.200000X-0.275000X0.200000X0.275000X-0.200000X0.275000X0*%
%ADD20R,1.500000X0.350000*%
%ADD21R,0.350000X1.500000*%
%ADD22RoundRect,0.243750X0.456250X-0.243750X0.456250X0.243750X-0.456250X0.243750X-0.456250X-0.243750X0*%
%ADD23R,1.300000X1.500000*%
%ADD24O,1.700000X1.700000*%
%ADD25RoundRect,0.243750X-0.456250X0.243750X-0.456250X-0.243750X0.456250X-0.243750X0.456250X0.243750X0*%
%ADD26RoundRect,0.102000X0.200000X0.700000X-0.200000X0.700000X-0.200000X-0.700000X0.200000X-0.700000X0*%
%ADD27O,1.254000X2.054000*%
%ADD28RoundRect,0.102000X0.950000X1.000000X-0.950000X1.000000X-0.950000X-1.000000X0.950000X-1.000000X0*%
%ADD29R,2.000000X2.000000*%
%ADD30R,1.676400X0.355600*%
%ADD31R,1.500000X1.500000*%
%ADD32C,1.600000*%
%ADD33R,1.219200X2.235200*%
%ADD34R,3.600000X2.200000*%
%ADD35RoundRect,0.150000X-0.150000X0.512500X-0.150000X-0.512500X0.150000X-0.512500X0.150000X0.512500X0*%
%ADD36RoundRect,0.102000X-0.802500X-0.802500X0.802500X-0.802500X0.802500X0.802500X-0.802500X0.802500X0*%
%ADD37C,1.809000*%
%ADD38C,1.000000*%
%ADD39R,0.500000X1.500000*%
%ADD40R,3.000000X1.800000*%
%ADD41RoundRect,0.058000X-0.454000X-0.174000X0.454000X-0.174000X0.454000X0.174000X-0.454000X0.174000X0*%
%ADD42RoundRect,0.058000X-0.174000X-0.454000X0.174000X-0.454000X0.174000X0.454000X-0.174000X0.454000X0*%
%ADD43RoundRect,0.102000X-1.350000X-1.350000X1.350000X-1.350000X1.350000X1.350000X-1.350000X1.350000X0*%
%ADD44Outline8P,-0.762000X0.315631X-0.315631X0.762000X0.315631X0.762000X0.762000X0.315631X0.762000X-0.315631X0.315631X-0.762000X-0.315631X-0.762000X-0.762000X-0.315631X90.000000*%
%ADD45R,1.778000X1.778000*%
%ADD46C,1.778000*%
%ADD47RoundRect,0.150000X0.150000X-0.825000X0.150000X0.825000X-0.150000X0.825000X-0.150000X-0.825000X0*%
%ADD48R,2.700000X3.600000*%
%ADD49RoundRect,0.132500X-0.402500X0.132500X-0.402500X-0.132500X0.402500X-0.132500X0.402500X0.132500X0*%
G04 APERTURE END LIST*
D10*
%TO.C,R2*%
X116450000Y-81610000D03*
X116450000Y-83260000D03*
%TD*%
D11*
%TO.C,R29*%
X171505000Y-64940000D03*
X169855000Y-64940000D03*
%TD*%
D12*
%TO.C,A1*%
X165180000Y-52880000D03*
X165180000Y-55420000D03*
X165180000Y-57960000D03*
X165180000Y-60500000D03*
X165180000Y-63040000D03*
X165180000Y-65580000D03*
X182960000Y-63040000D03*
X182960000Y-60500000D03*
X182960000Y-57960000D03*
X182960000Y-55420000D03*
%TD*%
D13*
%TO.C,SW1*%
X106945000Y-61500000D03*
X115555000Y-61500000D03*
%TD*%
D10*
%TO.C,R3o1*%
X113910000Y-81630000D03*
X113910000Y-83280000D03*
%TD*%
D14*
%TO.C,R22*%
X177310000Y-67935000D03*
X177310000Y-66285000D03*
%TD*%
D15*
%TO.C,C9*%
X180440000Y-78210000D03*
X180440000Y-76310000D03*
%TD*%
%TO.C,C56*%
X137170000Y-61020000D03*
X137170000Y-62920000D03*
%TD*%
D16*
%TO.C,J6*%
X177920000Y-85400000D03*
D17*
X180460000Y-85400000D03*
X183000000Y-85400000D03*
%TD*%
D18*
%TO.C,Q12*%
X104110000Y-77815000D03*
X102210000Y-77815000D03*
X103160000Y-80015000D03*
%TD*%
D10*
%TO.C,R4*%
X143720000Y-72445000D03*
X143720000Y-74095000D03*
%TD*%
D19*
%TO.C,R8*%
X164275000Y-90060000D03*
X165925000Y-90060000D03*
%TD*%
D14*
%TO.C,R26*%
X127170000Y-76595000D03*
X127170000Y-74945000D03*
%TD*%
%TO.C,R5*%
X167920000Y-63065000D03*
X167920000Y-61415000D03*
%TD*%
D15*
%TO.C,C55*%
X151330000Y-64680000D03*
X151330000Y-66580000D03*
%TD*%
D10*
%TO.C,R15*%
X111000000Y-87545000D03*
X111000000Y-89195000D03*
%TD*%
D12*
%TO.C,R/W0*%
X97950000Y-58950000D03*
X97950000Y-56410000D03*
%TD*%
D20*
%TO.C,IC1*%
X133200000Y-56200000D03*
X133200000Y-56700000D03*
X133200000Y-57200000D03*
X133200000Y-57700000D03*
X133200000Y-58200000D03*
X133200000Y-58700000D03*
X133200000Y-59200000D03*
X133200000Y-59700000D03*
X133200000Y-60200000D03*
X133200000Y-60700000D03*
X133200000Y-61200000D03*
X133200000Y-61700000D03*
X133200000Y-62200000D03*
X133200000Y-62700000D03*
X133200000Y-63200000D03*
X133200000Y-63700000D03*
X133200000Y-64200000D03*
X133200000Y-64700000D03*
X133200000Y-65200000D03*
X133200000Y-65700000D03*
X133200000Y-66200000D03*
X133200000Y-66700000D03*
X133200000Y-67200000D03*
X133200000Y-67700000D03*
X133200000Y-68200000D03*
D21*
X135200000Y-70200000D03*
X135700000Y-70200000D03*
X136200000Y-70200000D03*
X136700000Y-70200000D03*
X137200000Y-70200000D03*
X137700000Y-70200000D03*
X138200000Y-70200000D03*
X138700000Y-70200000D03*
X139200000Y-70200000D03*
X139700000Y-70200000D03*
X140200000Y-70200000D03*
X140700000Y-70200000D03*
X141200000Y-70200000D03*
X141700000Y-70200000D03*
X142200000Y-70200000D03*
X142700000Y-70200000D03*
X143200000Y-70200000D03*
X143700000Y-70200000D03*
X144200000Y-70200000D03*
X144700000Y-70200000D03*
X145200000Y-70200000D03*
X145700000Y-70200000D03*
X146200000Y-70200000D03*
X146700000Y-70200000D03*
X147200000Y-70200000D03*
D20*
X149200000Y-68200000D03*
X149200000Y-67700000D03*
X149200000Y-67200000D03*
X149200000Y-66700000D03*
X149200000Y-66200000D03*
X149200000Y-65700000D03*
X149200000Y-65200000D03*
X149200000Y-64700000D03*
X149200000Y-64200000D03*
X149200000Y-63700000D03*
X149200000Y-63200000D03*
X149200000Y-62700000D03*
X149200000Y-62200000D03*
X149200000Y-61700000D03*
X149200000Y-61200000D03*
X149200000Y-60700000D03*
X149200000Y-60200000D03*
X149200000Y-59700000D03*
X149200000Y-59200000D03*
X149200000Y-58700000D03*
X149200000Y-58200000D03*
X149200000Y-57700000D03*
X149200000Y-57200000D03*
X149200000Y-56700000D03*
X149200000Y-56200000D03*
D21*
X147200000Y-54200000D03*
X146700000Y-54200000D03*
X146200000Y-54200000D03*
X145700000Y-54200000D03*
X145200000Y-54200000D03*
X144700000Y-54200000D03*
X144200000Y-54200000D03*
X143700000Y-54200000D03*
X143200000Y-54200000D03*
X142700000Y-54200000D03*
X142200000Y-54200000D03*
X141700000Y-54200000D03*
X141200000Y-54200000D03*
X140700000Y-54200000D03*
X140200000Y-54200000D03*
X139700000Y-54200000D03*
X139200000Y-54200000D03*
X138700000Y-54200000D03*
X138200000Y-54200000D03*
X137700000Y-54200000D03*
X137200000Y-54200000D03*
X136700000Y-54200000D03*
X136200000Y-54200000D03*
X135700000Y-54200000D03*
X135200000Y-54200000D03*
%TD*%
D15*
%TO.C,C61*%
X164720000Y-85080000D03*
X164720000Y-83180000D03*
%TD*%
D14*
%TO.C,R25*%
X182990000Y-82450000D03*
X182990000Y-80800000D03*
%TD*%
D18*
%TO.C,Q11*%
X111940000Y-83180000D03*
X110040000Y-83180000D03*
X110990000Y-85380000D03*
%TD*%
D10*
%TO.C,R7*%
X170520000Y-54645000D03*
X170520000Y-56295000D03*
%TD*%
D11*
%TO.C,R24*%
X172412500Y-82610000D03*
X170762500Y-82610000D03*
%TD*%
D22*
%TO.C,D2*%
X154630000Y-82335000D03*
X154630000Y-80460000D03*
%TD*%
D15*
%TO.C,C71*%
X150710000Y-79870000D03*
X150710000Y-81770000D03*
%TD*%
D10*
%TO.C,R9*%
X154630000Y-84095000D03*
X154630000Y-85745000D03*
%TD*%
D23*
%TO.C,C63*%
X161560000Y-77970000D03*
X163460000Y-77970000D03*
%TD*%
D16*
%TO.C,J3*%
X147842500Y-87475000D03*
D24*
X145302500Y-87475000D03*
X142762500Y-87475000D03*
X140222500Y-87475000D03*
X137682500Y-87475000D03*
%TD*%
D14*
%TO.C,R23*%
X178930000Y-67945000D03*
X178930000Y-66295000D03*
%TD*%
D19*
%TO.C,R30*%
X168205000Y-69670000D03*
X169855000Y-69670000D03*
%TD*%
D11*
%TO.C,R13*%
X129635000Y-61530000D03*
X127985000Y-61530000D03*
%TD*%
D23*
%TO.C,C10*%
X135880000Y-75630000D03*
X137780000Y-75630000D03*
%TD*%
%TO.C,C31*%
X99770000Y-50470000D03*
X97870000Y-50470000D03*
%TD*%
D10*
%TO.C,R6*%
X169460000Y-60595000D03*
X169460000Y-62245000D03*
%TD*%
D23*
%TO.C,C51*%
X137860000Y-50660000D03*
X139760000Y-50660000D03*
%TD*%
D25*
%TO.C,D3*%
X130000000Y-73942500D03*
X130000000Y-75817500D03*
%TD*%
D15*
%TO.C,C5*%
X172280000Y-67140000D03*
X172280000Y-69040000D03*
%TD*%
D22*
%TO.C,D4*%
X160680000Y-51357500D03*
X160680000Y-49482500D03*
%TD*%
D26*
%TO.C,J4*%
X168700000Y-48260000D03*
X168050000Y-48260000D03*
X167400000Y-48260000D03*
X166750000Y-48260000D03*
X166100000Y-48260000D03*
D27*
X170975000Y-45710000D03*
D28*
X168600000Y-45710000D03*
X166200000Y-45710000D03*
D27*
X163825000Y-45710000D03*
%TD*%
D29*
%TO.C,QG1*%
X147370000Y-83250000D03*
X147370000Y-78250000D03*
X143170000Y-78250000D03*
X143170000Y-83250000D03*
%TD*%
D14*
%TO.C,R28*%
X180430000Y-82450000D03*
X180430000Y-80800000D03*
%TD*%
D11*
%TO.C,R12*%
X129635000Y-59930000D03*
X127985000Y-59930000D03*
%TD*%
D23*
%TO.C,C53*%
X157380000Y-49900000D03*
X155480000Y-49900000D03*
%TD*%
D18*
%TO.C,Q14*%
X112060000Y-76950000D03*
X110160000Y-76950000D03*
X111110000Y-79150000D03*
%TD*%
D15*
%TO.C,C1*%
X173310000Y-50980000D03*
X173310000Y-52880000D03*
%TD*%
%TO.C,C41*%
X120250000Y-64790000D03*
X120250000Y-62890000D03*
%TD*%
D30*
%TO.C,U3*%
X124430600Y-64800000D03*
X124430600Y-65450000D03*
X124430600Y-66100000D03*
X124430600Y-66750000D03*
X124430600Y-67400000D03*
X124430600Y-68050000D03*
X124430600Y-68700000D03*
X130069400Y-68700000D03*
X130069400Y-68050000D03*
X130069400Y-67400000D03*
X130069400Y-66750000D03*
X130069400Y-66100000D03*
X130069400Y-65450000D03*
X130069400Y-64800000D03*
%TD*%
D15*
%TO.C,C2*%
X177480000Y-60140000D03*
X177480000Y-58240000D03*
%TD*%
D14*
%TO.C,R10*%
X132010000Y-75815000D03*
X132010000Y-74165000D03*
%TD*%
D31*
%TO.C,SW2*%
X169250000Y-87450000D03*
D32*
X171790000Y-87450000D03*
X166710000Y-87450000D03*
%TD*%
D15*
%TO.C,C11*%
X182980000Y-78200000D03*
X182980000Y-76300000D03*
%TD*%
D23*
%TO.C,C54*%
X133710000Y-51070000D03*
X131810000Y-51070000D03*
%TD*%
D10*
%TO.C,R17*%
X102592500Y-82500000D03*
X102592500Y-84150000D03*
%TD*%
D33*
%TO.C,P1*%
X157488600Y-87568800D03*
X159800000Y-87568800D03*
X162111400Y-87568800D03*
D34*
X159800000Y-81371000D03*
%TD*%
D10*
%TO.C,R18*%
X105140000Y-82445000D03*
X105140000Y-84095000D03*
%TD*%
D29*
%TO.C,QG2*%
X139560000Y-78270000D03*
X134560000Y-78270000D03*
X134560000Y-82470000D03*
X139560000Y-82470000D03*
%TD*%
D10*
%TO.C,R19*%
X175650000Y-66280000D03*
X175650000Y-67930000D03*
%TD*%
D35*
%TO.C,Q3*%
X168605000Y-78552500D03*
X167655000Y-78552500D03*
X166705000Y-78552500D03*
X166705000Y-80827500D03*
X167655000Y-80827500D03*
X168605000Y-80827500D03*
%TD*%
D14*
%TO.C,R27*%
X125050000Y-76595000D03*
X125050000Y-74945000D03*
%TD*%
D11*
%TO.C,R11*%
X129635000Y-70680000D03*
X127985000Y-70680000D03*
%TD*%
D15*
%TO.C,C42*%
X123100000Y-61420000D03*
X123100000Y-59520000D03*
%TD*%
D36*
%TO.C,J1*%
X102572500Y-89195000D03*
D37*
X102572500Y-86655000D03*
X105112500Y-89195000D03*
X105112500Y-86655000D03*
X107652500Y-89195000D03*
X107652500Y-86655000D03*
%TD*%
D18*
%TO.C,Q13*%
X108120000Y-77840000D03*
X106220000Y-77840000D03*
X107170000Y-80040000D03*
%TD*%
D10*
%TO.C,R1*%
X118990000Y-81655000D03*
X118990000Y-83305000D03*
%TD*%
D15*
%TO.C,C12*%
X174940000Y-73610000D03*
X174940000Y-71710000D03*
%TD*%
D10*
%TO.C,R3*%
X145930000Y-72485000D03*
X145930000Y-74135000D03*
%TD*%
D38*
%TO.C,J5*%
X131462500Y-90375000D03*
X125462500Y-90375000D03*
D39*
X130062500Y-86925000D03*
X129262500Y-86925000D03*
X128462500Y-86925000D03*
X127662500Y-86925000D03*
X126862500Y-86925000D03*
D40*
X133212500Y-88075000D03*
X123712500Y-88075000D03*
%TD*%
D10*
%TO.C,R20*%
X160680000Y-44705000D03*
X160680000Y-46355000D03*
%TD*%
D41*
%TO.C,U2*%
X171365000Y-58640000D03*
X171365000Y-59140000D03*
X171365000Y-59640000D03*
X171365000Y-60140000D03*
X171365000Y-60640000D03*
X171365000Y-61140000D03*
D42*
X172060000Y-61835000D03*
X172560000Y-61835000D03*
X173060000Y-61835000D03*
X173560000Y-61835000D03*
X174060000Y-61835000D03*
X174560000Y-61835000D03*
D41*
X175255000Y-61140000D03*
X175255000Y-60640000D03*
X175255000Y-60140000D03*
X175255000Y-59640000D03*
X175255000Y-59140000D03*
X175255000Y-58640000D03*
D42*
X174560000Y-57945000D03*
X174060000Y-57945000D03*
X173560000Y-57945000D03*
X173060000Y-57945000D03*
X172560000Y-57945000D03*
X172060000Y-57945000D03*
D43*
X173310000Y-59890000D03*
%TD*%
D44*
%TO.C,EXT_PINS0*%
X97260000Y-86260000D03*
X94720000Y-86260000D03*
X97260000Y-83720000D03*
X94720000Y-83720000D03*
X97260000Y-81180000D03*
X94720000Y-81180000D03*
X97260000Y-78640000D03*
X94720000Y-78640000D03*
X97260000Y-76100000D03*
X94720000Y-76100000D03*
%TD*%
D11*
%TO.C,R31*%
X169865000Y-67150000D03*
X168215000Y-67150000D03*
%TD*%
D10*
%TO.C,R16*%
X100110000Y-87565000D03*
X100110000Y-89215000D03*
%TD*%
D23*
%TO.C,C62*%
X158880000Y-77930000D03*
X156980000Y-77930000D03*
%TD*%
D45*
%TO.C,IC2*%
X102240000Y-47520000D03*
D46*
X102240000Y-44980000D03*
X104780000Y-47520000D03*
X104780000Y-44980000D03*
X107320000Y-47520000D03*
X107320000Y-44980000D03*
X109860000Y-47520000D03*
X109860000Y-44980000D03*
X112400000Y-47520000D03*
X112400000Y-44980000D03*
X114940000Y-47520000D03*
X114940000Y-44980000D03*
X117480000Y-47520000D03*
X117480000Y-44980000D03*
X120020000Y-47520000D03*
X120020000Y-44980000D03*
X122560000Y-47520000D03*
X122560000Y-44980000D03*
X125100000Y-47520000D03*
X125100000Y-44980000D03*
X127640000Y-47520000D03*
X127640000Y-44980000D03*
X130180000Y-47520000D03*
X130180000Y-44980000D03*
X132720000Y-47520000D03*
X132720000Y-44980000D03*
X135260000Y-47520000D03*
X135260000Y-44980000D03*
X137800000Y-47520000D03*
X137800000Y-44980000D03*
X140340000Y-47520000D03*
X140340000Y-44980000D03*
X142880000Y-47520000D03*
X142880000Y-44980000D03*
X145420000Y-47520000D03*
X145420000Y-44980000D03*
X147960000Y-47520000D03*
X147960000Y-44980000D03*
X150500000Y-47520000D03*
X150500000Y-44980000D03*
%TD*%
D11*
%TO.C,R14*%
X129655000Y-63110000D03*
X128005000Y-63110000D03*
%TD*%
D36*
%TO.C,J2*%
X113902500Y-89205000D03*
D37*
X113902500Y-86665000D03*
X116442500Y-89205000D03*
X116442500Y-86665000D03*
X118982500Y-89205000D03*
X118982500Y-86665000D03*
%TD*%
D15*
%TO.C,C6*%
X170810000Y-50190000D03*
X170810000Y-52090000D03*
%TD*%
D47*
%TO.C,U7*%
X123402500Y-83875000D03*
X124672500Y-83875000D03*
X125942500Y-83875000D03*
X127212500Y-83875000D03*
X128482500Y-83875000D03*
X129752500Y-83875000D03*
X131022500Y-83875000D03*
X132292500Y-83875000D03*
X132292500Y-78925000D03*
X131022500Y-78925000D03*
X129752500Y-78925000D03*
X128482500Y-78925000D03*
X127212500Y-78925000D03*
X125942500Y-78925000D03*
X124672500Y-78925000D03*
X123402500Y-78925000D03*
%TD*%
D48*
%TO.C,L2*%
X176140000Y-48000000D03*
X184440000Y-48000000D03*
%TD*%
D15*
%TO.C,C8*%
X179630000Y-61040000D03*
X179630000Y-59140000D03*
%TD*%
D10*
%TO.C,R21*%
X104320000Y-62830000D03*
X104320000Y-64480000D03*
%TD*%
D49*
%TO.C,U8*%
X172410000Y-78850000D03*
X172410000Y-79800000D03*
X172410000Y-80750000D03*
X174710000Y-80750000D03*
X174710000Y-79800000D03*
X174710000Y-78850000D03*
%TD*%
M02*
