%TF.GenerationSoftware,KiCad,Pcbnew,9.0.3*%
%TF.CreationDate,2025-12-03T20:13:16+05:30*%
%TF.ProjectId,cpm_vehicle_pcb,63706d5f-7665-4686-9963-6c655f706362,rev?*%
%TF.SameCoordinates,Original*%
%TF.FileFunction,Copper,L2,Bot*%
%TF.FilePolarity,Positive*%
%FSLAX46Y46*%
G04 Gerber Fmt 4.6, Leading zero omitted, Abs format (unit mm)*
G04 Created by KiCad (PCBNEW 9.0.3) date 2025-12-03 20:13:16*
%MOMM*%
%LPD*%
G01*
G04 APERTURE LIST*
G04 Aperture macros list*
%AMOutline5P*
0 Free polygon, 5 corners , with rotation*
0 The origin of the aperture is its center*
0 number of corners: always 5*
0 $1 to $10 corner X, Y*
0 $11 Rotation angle, in degrees counterclockwise*
0 create outline with 5 corners*
4,1,5,$1,$2,$3,$4,$5,$6,$7,$8,$9,$10,$1,$2,$11*%
%AMOutline6P*
0 Free polygon, 6 corners , with rotation*
0 The origin of the aperture is its center*
0 number of corners: always 6*
0 $1 to $12 corner X, Y*
0 $13 Rotation angle, in degrees counterclockwise*
0 create outline with 6 corners*
4,1,6,$1,$2,$3,$4,$5,$6,$7,$8,$9,$10,$11,$12,$1,$2,$13*%
%AMOutline7P*
0 Free polygon, 7 corners , with rotation*
0 The origin of the aperture is its center*
0 number of corners: always 7*
0 $1 to $14 corner X, Y*
0 $15 Rotation angle, in degrees counterclockwise*
0 create outline with 7 corners*
4,1,7,$1,$2,$3,$4,$5,$6,$7,$8,$9,$10,$11,$12,$13,$14,$1,$2,$15*%
%AMOutline8P*
0 Free polygon, 8 corners , with rotation*
0 The origin of the aperture is its center*
0 number of corners: always 8*
0 $1 to $16 corner X, Y*
0 $17 Rotation angle, in degrees counterclockwise*
0 create outline with 8 corners*
4,1,8,$1,$2,$3,$4,$5,$6,$7,$8,$9,$10,$11,$12,$13,$14,$15,$16,$1,$2,$17*%
G04 Aperture macros list end*
%TA.AperFunction,ComponentPad*%
%ADD10O,3.048000X1.524000*%
%TD*%
%TA.AperFunction,ComponentPad*%
%ADD11R,1.700000X1.700000*%
%TD*%
%TA.AperFunction,ComponentPad*%
%ADD12C,1.700000*%
%TD*%
%TA.AperFunction,ComponentPad*%
%ADD13O,1.700000X1.700000*%
%TD*%
%TA.AperFunction,ComponentPad*%
%ADD14O,1.050000X1.850000*%
%TD*%
%TA.AperFunction,ComponentPad*%
%ADD15R,1.500000X1.500000*%
%TD*%
%TA.AperFunction,ComponentPad*%
%ADD16C,1.600000*%
%TD*%
%TA.AperFunction,ComponentPad*%
%ADD17R,1.605000X1.605000*%
%TD*%
%TA.AperFunction,ComponentPad*%
%ADD18C,1.605000*%
%TD*%
%TA.AperFunction,ComponentPad*%
%ADD19C,0.300000*%
%TD*%
%TA.AperFunction,ComponentPad*%
%ADD20Outline8P,-0.762000X0.315631X-0.315631X0.762000X0.315631X0.762000X0.762000X0.315631X0.762000X-0.315631X0.315631X-0.762000X-0.315631X-0.762000X-0.762000X-0.315631X90.000000*%
%TD*%
%TA.AperFunction,ComponentPad*%
%ADD21R,1.778000X1.778000*%
%TD*%
%TA.AperFunction,ComponentPad*%
%ADD22C,1.778000*%
%TD*%
%TA.AperFunction,ViaPad*%
%ADD23C,0.700000*%
%TD*%
%TA.AperFunction,ViaPad*%
%ADD24C,0.800000*%
%TD*%
%TA.AperFunction,ViaPad*%
%ADD25C,1.000000*%
%TD*%
%TA.AperFunction,ViaPad*%
%ADD26C,1.300000*%
%TD*%
%TA.AperFunction,ViaPad*%
%ADD27C,2.000000*%
%TD*%
%TA.AperFunction,Conductor*%
%ADD28C,0.800000*%
%TD*%
%TA.AperFunction,Conductor*%
%ADD29C,0.300000*%
%TD*%
%TA.AperFunction,Conductor*%
%ADD30C,0.254000*%
%TD*%
%TA.AperFunction,Conductor*%
%ADD31C,0.400000*%
%TD*%
%TA.AperFunction,Conductor*%
%ADD32C,0.200000*%
%TD*%
%TA.AperFunction,Conductor*%
%ADD33C,1.300000*%
%TD*%
G04 APERTURE END LIST*
D10*
%TO.P,A1,1,VIN@1*%
%TO.N,+5V*%
X165180000Y-52880000D03*
%TO.P,A1,2,3VO@2*%
%TO.N,unconnected-(A1-3VO@2-Pad2)*%
X165180000Y-55420000D03*
%TO.P,A1,3,GND@3*%
%TO.N,GND*%
X165180000Y-57960000D03*
%TO.P,A1,4,SDA@4*%
%TO.N,/SDA*%
X165180000Y-60500000D03*
%TO.P,A1,5,SCL@5*%
%TO.N,/SCL*%
X165180000Y-63040000D03*
%TO.P,A1,6,RST@6*%
%TO.N,unconnected-(A1-RST@6-Pad6)*%
X165180000Y-65580000D03*
%TO.P,A1,7,ADR@7*%
%TO.N,unconnected-(A1-ADR@7-Pad7)*%
X182960000Y-63040000D03*
%TO.P,A1,8,INT@8*%
%TO.N,unconnected-(A1-INT@8-Pad8)*%
X182960000Y-60500000D03*
%TO.P,A1,9,PS1@9*%
%TO.N,unconnected-(A1-PS1@9-Pad9)*%
X182960000Y-57960000D03*
%TO.P,A1,10,PS0@10*%
%TO.N,unconnected-(A1-PS0@10-Pad10)*%
X182960000Y-55420000D03*
%TD*%
D11*
%TO.P,J6,1,Pin_1*%
%TO.N,B-*%
X177920000Y-85400000D03*
D12*
%TO.P,J6,2,Pin_2*%
%TO.N,BB*%
X180460000Y-85400000D03*
%TO.P,J6,3,Pin_3*%
%TO.N,B+*%
X183000000Y-85400000D03*
%TD*%
D10*
%TO.P,R/W0,1,1*%
%TO.N,GND*%
X97950000Y-58950000D03*
%TO.P,R/W0,2,2*%
%TO.N,/MODE*%
X97950000Y-56410000D03*
%TD*%
D11*
%TO.P,J3,1,Pin_1*%
%TO.N,/PWM*%
X147842500Y-87475000D03*
D13*
%TO.P,J3,2,Pin_2*%
%TO.N,vcc_bat*%
X145302500Y-87475000D03*
%TO.P,J3,3,Pin_3*%
%TO.N,GND*%
X142762500Y-87475000D03*
%TO.P,J3,4,Pin_4*%
X140222500Y-87475000D03*
%TO.P,J3,5,Pin_5*%
%TO.N,/SERVO_PWM*%
X137682500Y-87475000D03*
%TD*%
D14*
%TO.P,J4,SH1,SHIELD*%
%TO.N,GND*%
X170975000Y-45710000D03*
%TO.P,J4,SH4,SHIELD*%
X163825000Y-45710000D03*
%TD*%
D15*
%TO.P,SW2,1,B*%
%TO.N,B+*%
X169250000Y-87450000D03*
D16*
%TO.P,SW2,2,A*%
%TO.N,unconnected-(SW2A-A-Pad2)*%
X171790000Y-87450000D03*
%TO.P,SW2,3,C*%
%TO.N,vcc_bat*%
X166710000Y-87450000D03*
%TD*%
D17*
%TO.P,J1,1,Pin_1*%
%TO.N,+5V*%
X102572500Y-89195000D03*
D18*
%TO.P,J1,2,Pin_2*%
%TO.N,/LED3_PIN*%
X102572500Y-86655000D03*
%TO.P,J1,3,Pin_3*%
%TO.N,/LED2_PIN*%
X105112500Y-89195000D03*
%TO.P,J1,4,Pin_4*%
%TO.N,/LED4_PIN*%
X105112500Y-86655000D03*
%TO.P,J1,5,Pin_5*%
%TO.N,/LED1_PIN*%
X107652500Y-89195000D03*
%TO.P,J1,6,Pin_6*%
%TO.N,GND*%
X107652500Y-86655000D03*
%TD*%
D19*
%TO.P,U2,25_1,EP*%
%TO.N,Net-(U2-EP-Pad25)*%
X173310000Y-59890000D03*
%TO.P,U2,25_2,EP*%
X172210000Y-59890000D03*
%TO.P,U2,25_3,EP*%
X174410000Y-59890000D03*
%TO.P,U2,25_4,EP*%
X173310000Y-60990000D03*
%TO.P,U2,25_5,EP*%
X173310000Y-58790000D03*
%TD*%
D20*
%TO.P,EXT_PINS0,1,1*%
%TO.N,+5V*%
X97260000Y-86260000D03*
%TO.P,EXT_PINS0,2,2*%
%TO.N,GND*%
X94720000Y-86260000D03*
%TO.P,EXT_PINS0,3,3*%
%TO.N,/ERW5*%
X97260000Y-83720000D03*
%TO.P,EXT_PINS0,4,4*%
%TO.N,/ERW1*%
X94720000Y-83720000D03*
%TO.P,EXT_PINS0,5,5*%
%TO.N,/ERW6*%
X97260000Y-81180000D03*
%TO.P,EXT_PINS0,6,6*%
%TO.N,/ERW2*%
X94720000Y-81180000D03*
%TO.P,EXT_PINS0,7,7*%
%TO.N,/ERW7*%
X97260000Y-78640000D03*
%TO.P,EXT_PINS0,8,8*%
%TO.N,/ERW3*%
X94720000Y-78640000D03*
%TO.P,EXT_PINS0,9,9*%
%TO.N,/ERW8*%
X97260000Y-76100000D03*
%TO.P,EXT_PINS0,10,10*%
%TO.N,/ERW4*%
X94720000Y-76100000D03*
%TD*%
D21*
%TO.P,IC2,1,3V3@1*%
%TO.N,+3V3*%
X102240000Y-47520000D03*
D22*
%TO.P,IC2,2,5V0@1*%
%TO.N,+5V*%
X102240000Y-44980000D03*
%TO.P,IC2,3,GPIO2/SDA1*%
%TO.N,SDA1*%
X104780000Y-47520000D03*
%TO.P,IC2,4,5V0@2*%
%TO.N,+5V*%
X104780000Y-44980000D03*
%TO.P,IC2,5,GPIO3/SCL1*%
%TO.N,SCL1*%
X107320000Y-47520000D03*
%TO.P,IC2,6,GND@8*%
%TO.N,GND*%
X107320000Y-44980000D03*
%TO.P,IC2,7,GPIO4/GCKL*%
%TO.N,unconnected-(IC2-GPIO4{slash}GCKL-Pad7)*%
X109860000Y-47520000D03*
%TO.P,IC2,8,TXD0/GPIO14*%
%TO.N,unconnected-(IC2-TXD0{slash}GPIO14-Pad8)*%
X109860000Y-44980000D03*
%TO.P,IC2,9,GND@1*%
%TO.N,GND*%
X112400000Y-47520000D03*
%TO.P,IC2,10,RXD0/GPIO15*%
%TO.N,unconnected-(IC2-RXD0{slash}GPIO15-Pad10)*%
X112400000Y-44980000D03*
%TO.P,IC2,11,GPIO17/GEN0*%
%TO.N,unconnected-(IC2-GPIO17{slash}GEN0-Pad11)*%
X114940000Y-47520000D03*
%TO.P,IC2,12,GPIO18*%
%TO.N,unconnected-(IC2-GPIO18-Pad12)*%
X114940000Y-44980000D03*
%TO.P,IC2,13,GPIO27/GEN2*%
%TO.N,unconnected-(IC2-GPIO27{slash}GEN2-Pad13)*%
X117480000Y-47520000D03*
%TO.P,IC2,14,GND@4*%
%TO.N,GND*%
X117480000Y-44980000D03*
%TO.P,IC2,15,GPIO22/GEN3*%
%TO.N,unconnected-(IC2-GPIO22{slash}GEN3-Pad15)*%
X120020000Y-47520000D03*
%TO.P,IC2,16,GEN4/GPIO23*%
%TO.N,unconnected-(IC2-GEN4{slash}GPIO23-Pad16)*%
X120020000Y-44980000D03*
%TO.P,IC2,17,3V3@2*%
%TO.N,unconnected-(IC2-3V3@2-Pad17)*%
X122560000Y-47520000D03*
%TO.P,IC2,18,GEN5/GPIO24*%
%TO.N,unconnected-(IC2-GEN5{slash}GPIO24-Pad18)*%
X122560000Y-44980000D03*
%TO.P,IC2,19,GPIO10/MOSI*%
%TO.N,/MOSI_PI*%
X125100000Y-47520000D03*
%TO.P,IC2,20,GND@5*%
%TO.N,GND*%
X125100000Y-44980000D03*
%TO.P,IC2,21,GPIO9/MISO*%
%TO.N,/MISO_PI*%
X127640000Y-47520000D03*
%TO.P,IC2,22,GEN/6GPIO25*%
%TO.N,unconnected-(IC2-GEN{slash}6GPIO25-Pad22)*%
X127640000Y-44980000D03*
%TO.P,IC2,23,GPIO11/SCLK*%
%TO.N,/SCK_PI*%
X130180000Y-47520000D03*
%TO.P,IC2,24,~{CE0}/GPIO8*%
%TO.N,/SS_PI*%
X130180000Y-44980000D03*
%TO.P,IC2,25,GND@2*%
%TO.N,GND*%
X132720000Y-47520000D03*
%TO.P,IC2,26,~{CE}/GPIO7*%
%TO.N,unconnected-(IC2-~{CE}{slash}GPIO7-Pad26)*%
X132720000Y-44980000D03*
%TO.P,IC2,27,ID_SD*%
%TO.N,unconnected-(IC2-ID_SD-Pad27)*%
X135260000Y-47520000D03*
%TO.P,IC2,28,ID_SC*%
%TO.N,unconnected-(IC2-ID_SC-Pad28)*%
X135260000Y-44980000D03*
%TO.P,IC2,29,GPIO5*%
%TO.N,/MODE*%
X137800000Y-47520000D03*
%TO.P,IC2,30,GND@6*%
%TO.N,GND*%
X137800000Y-44980000D03*
%TO.P,IC2,31,GPIO6*%
%TO.N,unconnected-(IC2-GPIO6-Pad31)*%
X140340000Y-47520000D03*
%TO.P,IC2,32,GPIO12*%
%TO.N,unconnected-(IC2-GPIO12-Pad32)*%
X140340000Y-44980000D03*
%TO.P,IC2,33,GPIO13*%
%TO.N,unconnected-(IC2-GPIO13-Pad33)*%
X142880000Y-47520000D03*
%TO.P,IC2,34,GND@7*%
%TO.N,GND*%
X142880000Y-44980000D03*
%TO.P,IC2,35,GPIO19*%
%TO.N,unconnected-(IC2-GPIO19-Pad35)*%
X145420000Y-47520000D03*
%TO.P,IC2,36,GPIO16*%
%TO.N,unconnected-(IC2-GPIO16-Pad36)*%
X145420000Y-44980000D03*
%TO.P,IC2,37,GPIO26*%
%TO.N,unconnected-(IC2-GPIO26-Pad37)*%
X147960000Y-47520000D03*
%TO.P,IC2,38,GPIO20*%
%TO.N,unconnected-(IC2-GPIO20-Pad38)*%
X147960000Y-44980000D03*
%TO.P,IC2,39,GND@3*%
%TO.N,GND*%
X150500000Y-47520000D03*
%TO.P,IC2,40,GPIO21*%
%TO.N,unconnected-(IC2-GPIO21-Pad40)*%
X150500000Y-44980000D03*
%TD*%
D17*
%TO.P,J2,1,Pin_1*%
%TO.N,+5V*%
X113902500Y-89205000D03*
D18*
%TO.P,J2,2,Pin_2*%
%TO.N,/SENSOR3*%
X113902500Y-86665000D03*
%TO.P,J2,3,Pin_3*%
%TO.N,unconnected-(J2-Pin_3-Pad3)*%
X116442500Y-89205000D03*
%TO.P,J2,4,Pin_4*%
%TO.N,/SENSOR2*%
X116442500Y-86665000D03*
%TO.P,J2,5,Pin_5*%
%TO.N,GND*%
X118982500Y-89205000D03*
%TO.P,J2,6,Pin_6*%
%TO.N,/SENSOR1*%
X118982500Y-86665000D03*
%TD*%
D23*
%TO.N,+5V*%
X113910000Y-81630000D03*
X137800000Y-67950000D03*
X144790000Y-61390000D03*
X142180000Y-63490000D03*
D24*
X123915000Y-81515000D03*
X129290000Y-89260000D03*
D23*
%TO.N,Net-(U8-VC)*%
X174730000Y-83180000D03*
X179180000Y-79540000D03*
%TO.N,/ERW4*%
X152523522Y-58933679D03*
%TO.N,/ERW8*%
X129390000Y-57560000D03*
%TO.N,/ERW7*%
X129970000Y-58400000D03*
%TO.N,/ERW6*%
X130730000Y-59200000D03*
%TO.N,/ERW1*%
X155160000Y-57080000D03*
%TO.N,/ERW2*%
X155430000Y-57990000D03*
%TO.N,/ERW3*%
X154160000Y-59190000D03*
%TO.N,/ERW5*%
X131330000Y-61030000D03*
%TO.N,/SENSOR3*%
X140670000Y-57610000D03*
X114940000Y-83280000D03*
%TO.N,/TX0*%
X125040000Y-73510000D03*
X135270000Y-57430000D03*
%TO.N,/SENSOR1*%
X120465000Y-83305000D03*
X143730000Y-57620000D03*
%TO.N,/RX0*%
X127150000Y-73410000D03*
X135600000Y-56540000D03*
%TO.N,/SENSOR2*%
X142200000Y-57650000D03*
X117560000Y-83260000D03*
%TO.N,/PWM*%
X134010000Y-72030000D03*
%TO.N,+3V3*%
X117410000Y-70560000D03*
X118855000Y-64800000D03*
%TO.N,/SERVO_PWM*%
X133260000Y-72490000D03*
%TO.N,Net-(Q3-S1{slash}D2-Pad2)*%
X167655000Y-80827500D03*
X167655000Y-78552500D03*
%TO.N,/R12*%
X104090000Y-75560000D03*
X125860000Y-60670000D03*
%TO.N,/R13*%
X125910000Y-61530000D03*
X108130000Y-74990000D03*
%TO.N,/R14*%
X112060000Y-74500000D03*
X126030000Y-62460000D03*
D25*
%TO.N,BB*%
X177350000Y-70830000D03*
D23*
%TO.N,B+*%
X172810000Y-73990000D03*
X176340000Y-61250000D03*
D26*
%TO.N,GND*%
X163760000Y-49300000D03*
D23*
X115730000Y-66400000D03*
D26*
X141540000Y-72810000D03*
D27*
X121420000Y-90520000D03*
X97710000Y-68380000D03*
X167390000Y-83690000D03*
D26*
X140250000Y-85010000D03*
D27*
X110260000Y-71690000D03*
X121500000Y-76010000D03*
D26*
X145450000Y-65770000D03*
D27*
X151510000Y-85600000D03*
X113430000Y-50620000D03*
D25*
X170300000Y-78180000D03*
D23*
%TO.N,Net-(U3-OE)*%
X103825000Y-60775000D03*
D24*
X127160000Y-67700000D03*
%TD*%
D28*
%TO.N,+5V*%
X99637500Y-86260000D02*
X102572500Y-89195000D01*
X112320000Y-83220000D02*
X112320000Y-85010000D01*
D29*
X142180000Y-63570000D02*
X142180000Y-63490000D01*
D28*
X100887500Y-85010000D02*
X112320000Y-85010000D01*
X112320000Y-85010000D02*
X112320000Y-87622500D01*
D29*
X144790000Y-61390000D02*
X142690000Y-63490000D01*
D28*
X129290000Y-86890000D02*
X129290000Y-89260000D01*
D29*
X137800000Y-67950000D02*
X142180000Y-63570000D01*
D28*
X99637500Y-86260000D02*
X97260000Y-86260000D01*
X113910000Y-81630000D02*
X112320000Y-83220000D01*
X123915000Y-81515000D02*
X129290000Y-86890000D01*
X99637500Y-86260000D02*
X100887500Y-85010000D01*
D29*
X142690000Y-63490000D02*
X142180000Y-63490000D01*
D28*
X112320000Y-87622500D02*
X113902500Y-89205000D01*
%TO.N,Net-(U8-VC)*%
X175540000Y-83180000D02*
X174730000Y-83180000D01*
X179180000Y-79540000D02*
X175540000Y-83180000D01*
D30*
%TO.N,/ERW4*%
X107570000Y-54940000D02*
X94770000Y-67740000D01*
X152523522Y-58933679D02*
X148529843Y-54940000D01*
X94770000Y-67740000D02*
X94770000Y-76050000D01*
X94770000Y-76050000D02*
X94720000Y-76100000D01*
X148529843Y-54940000D02*
X107570000Y-54940000D01*
%TO.N,/ERW8*%
X115800000Y-57560000D02*
X97260000Y-76100000D01*
X129390000Y-57560000D02*
X115800000Y-57560000D01*
%TO.N,/ERW7*%
X98540000Y-75840000D02*
X98540000Y-77360000D01*
X98540000Y-77360000D02*
X97260000Y-78640000D01*
X115980000Y-58400000D02*
X98540000Y-75840000D01*
X129970000Y-58400000D02*
X115980000Y-58400000D01*
%TO.N,/ERW6*%
X116110000Y-59200000D02*
X98947000Y-76363000D01*
X130730000Y-59200000D02*
X116110000Y-59200000D01*
X98947000Y-79493000D02*
X97260000Y-81180000D01*
X98947000Y-76363000D02*
X98947000Y-79493000D01*
%TO.N,/ERW1*%
X155160000Y-57080000D02*
X154060953Y-57080000D01*
X92610000Y-67330000D02*
X92610000Y-81610000D01*
X154060953Y-57080000D02*
X150180953Y-53200000D01*
X150180953Y-53200000D02*
X106740000Y-53200000D01*
X106740000Y-53200000D02*
X92610000Y-67330000D01*
X92610000Y-81610000D02*
X94720000Y-83720000D01*
%TO.N,/ERW2*%
X93070000Y-67730000D02*
X93070000Y-79530000D01*
X106990000Y-53810000D02*
X93070000Y-67730000D01*
X93070000Y-79530000D02*
X94720000Y-81180000D01*
X149790000Y-53810000D02*
X106990000Y-53810000D01*
X155430000Y-57990000D02*
X153970000Y-57990000D01*
X153970000Y-57990000D02*
X149790000Y-53810000D01*
%TO.N,/ERW3*%
X154160000Y-59190000D02*
X154070000Y-59190000D01*
X93527000Y-77447000D02*
X94720000Y-78640000D01*
X93527000Y-68223000D02*
X93527000Y-77447000D01*
X149270000Y-54390000D02*
X107360000Y-54390000D01*
X107360000Y-54390000D02*
X93527000Y-68223000D01*
X154070000Y-59190000D02*
X149270000Y-54390000D01*
%TO.N,/ERW5*%
X131330000Y-60480000D02*
X130850000Y-60000000D01*
X116220000Y-60000000D02*
X99354000Y-76866000D01*
X131330000Y-61030000D02*
X131330000Y-60480000D01*
X99354000Y-76866000D02*
X99354000Y-81626000D01*
X99354000Y-81626000D02*
X97260000Y-83720000D01*
X130850000Y-60000000D02*
X116220000Y-60000000D01*
%TO.N,/SENSOR3*%
X140670000Y-57610000D02*
X140670000Y-61280000D01*
X119632000Y-82318000D02*
X115902000Y-82318000D01*
X140670000Y-61280000D02*
X119632000Y-82318000D01*
X115902000Y-82318000D02*
X114940000Y-83280000D01*
%TO.N,/TX0*%
X135270000Y-57430000D02*
X135270000Y-64400000D01*
X126160000Y-73510000D02*
X125040000Y-73510000D01*
X135270000Y-64400000D02*
X126160000Y-73510000D01*
%TO.N,/SENSOR1*%
X143730000Y-57620000D02*
X143730000Y-60040000D01*
X143730000Y-60040000D02*
X120465000Y-83305000D01*
%TO.N,/RX0*%
X136040000Y-64520000D02*
X127150000Y-73410000D01*
X135600000Y-56540000D02*
X136040000Y-56980000D01*
X136040000Y-56980000D02*
X136040000Y-64520000D01*
%TO.N,/SENSOR2*%
X142200000Y-60681873D02*
X119621873Y-83260000D01*
X142200000Y-57650000D02*
X142200000Y-60681873D01*
X117560000Y-83260000D02*
X119621873Y-83260000D01*
%TO.N,/PWM*%
X147842500Y-85862500D02*
X147842500Y-87475000D01*
X134010000Y-72030000D02*
X147842500Y-85862500D01*
%TO.N,/MODE*%
X137800000Y-47520000D02*
X132700000Y-52620000D01*
X132700000Y-52620000D02*
X101740000Y-52620000D01*
X101740000Y-52620000D02*
X97950000Y-56410000D01*
D31*
%TO.N,+3V3*%
X117410000Y-66245000D02*
X118855000Y-64800000D01*
X117410000Y-70560000D02*
X117410000Y-66245000D01*
D30*
%TO.N,/SERVO_PWM*%
X133260000Y-83052500D02*
X137682500Y-87475000D01*
X133260000Y-72490000D02*
X133260000Y-83052500D01*
D32*
%TO.N,Net-(Q3-S1{slash}D2-Pad2)*%
X167655000Y-78552500D02*
X167655000Y-80827500D01*
D30*
%TO.N,/R12*%
X104090000Y-75560000D02*
X104090000Y-73200000D01*
X116620000Y-60670000D02*
X125860000Y-60670000D01*
X104090000Y-73200000D02*
X116620000Y-60670000D01*
%TO.N,/R13*%
X116850000Y-61530000D02*
X108150000Y-70230000D01*
X125910000Y-61530000D02*
X116850000Y-61530000D01*
X108150000Y-74970000D02*
X108130000Y-74990000D01*
X108150000Y-70230000D02*
X108150000Y-74970000D01*
%TO.N,/R14*%
X117180000Y-62460000D02*
X126030000Y-62460000D01*
X112060000Y-74500000D02*
X112060000Y-67580000D01*
X112060000Y-67580000D02*
X117180000Y-62460000D01*
D33*
%TO.N,BB*%
X180420000Y-85360000D02*
X180460000Y-85400000D01*
X180460000Y-85400000D02*
X180460000Y-73940000D01*
X180460000Y-73940000D02*
X177350000Y-70830000D01*
D28*
%TO.N,B+*%
X176340000Y-61250000D02*
X176340000Y-62380000D01*
D33*
X181570000Y-90270000D02*
X171430000Y-90270000D01*
X169250000Y-88090000D02*
X169250000Y-87450000D01*
D28*
X171840000Y-74960000D02*
X171840000Y-84460000D01*
D33*
X183000000Y-88840000D02*
X181570000Y-90270000D01*
D28*
X171840000Y-84460000D02*
X169250000Y-87050000D01*
D33*
X171430000Y-90270000D02*
X169250000Y-88090000D01*
D28*
X175370000Y-71430000D02*
X172810000Y-73990000D01*
X172810000Y-73990000D02*
X171840000Y-74960000D01*
X175370000Y-63350000D02*
X175370000Y-71430000D01*
X176340000Y-62380000D02*
X175370000Y-63350000D01*
D33*
X183000000Y-85400000D02*
X183000000Y-88840000D01*
D28*
X169250000Y-87050000D02*
X169250000Y-87450000D01*
%TO.N,Net-(U3-OE)*%
X130916325Y-56390000D02*
X132410000Y-57883675D01*
X132410000Y-62450000D02*
X127160000Y-67700000D01*
X132410000Y-57883675D02*
X132410000Y-62450000D01*
X108210000Y-56390000D02*
X130916325Y-56390000D01*
X103825000Y-60775000D02*
X108210000Y-56390000D01*
%TD*%
%TA.AperFunction,Conductor*%
%TO.N,GND*%
G36*
X186642539Y-42320185D02*
G01*
X186688294Y-42372989D01*
X186699500Y-42424500D01*
X186699500Y-91575500D01*
X186679815Y-91642539D01*
X186627011Y-91688294D01*
X186575500Y-91699500D01*
X92424500Y-91699500D01*
X92357461Y-91679815D01*
X92311706Y-91627011D01*
X92300500Y-91575500D01*
X92300500Y-82487281D01*
X92320185Y-82420242D01*
X92372989Y-82374487D01*
X92442147Y-82364543D01*
X92505703Y-82393568D01*
X92512181Y-82399600D01*
X93421181Y-83308600D01*
X93454666Y-83369923D01*
X93457500Y-83396281D01*
X93457500Y-84076601D01*
X93464269Y-84130499D01*
X93468060Y-84160681D01*
X93481752Y-84193736D01*
X93523136Y-84293646D01*
X93523137Y-84293647D01*
X93575121Y-84360566D01*
X93575127Y-84360572D01*
X94079436Y-84864882D01*
X94079451Y-84864895D01*
X94114847Y-84892390D01*
X94155715Y-84949060D01*
X94159457Y-85018830D01*
X94124885Y-85079547D01*
X94114852Y-85088241D01*
X94079768Y-85115496D01*
X94079759Y-85115503D01*
X93575503Y-85619759D01*
X93575492Y-85619772D01*
X93523570Y-85686610D01*
X93523570Y-85686611D01*
X93468549Y-85819444D01*
X93458000Y-85903427D01*
X93458000Y-86010000D01*
X94277749Y-86010000D01*
X94246619Y-86063919D01*
X94212000Y-86193120D01*
X94212000Y-86326880D01*
X94246619Y-86456081D01*
X94277749Y-86510000D01*
X93458000Y-86510000D01*
X93458000Y-86616574D01*
X93468549Y-86700556D01*
X93523570Y-86833389D01*
X93575492Y-86900227D01*
X93575503Y-86900240D01*
X94079759Y-87404496D01*
X94079772Y-87404507D01*
X94146610Y-87456429D01*
X94279444Y-87511450D01*
X94363427Y-87521999D01*
X94363434Y-87522000D01*
X94470000Y-87522000D01*
X94470000Y-86702251D01*
X94523919Y-86733381D01*
X94653120Y-86768000D01*
X94786880Y-86768000D01*
X94916081Y-86733381D01*
X94970000Y-86702251D01*
X94970000Y-87522000D01*
X95076573Y-87522000D01*
X95076574Y-87521999D01*
X95160556Y-87511450D01*
X95293389Y-87456429D01*
X95360227Y-87404507D01*
X95360240Y-87404496D01*
X95864496Y-86900240D01*
X95864503Y-86900232D01*
X95891755Y-86865150D01*
X95948426Y-86824282D01*
X96018196Y-86820541D01*
X96078912Y-86855114D01*
X96087606Y-86865147D01*
X96114868Y-86900240D01*
X96115121Y-86900566D01*
X96115127Y-86900572D01*
X96619436Y-87404882D01*
X96619446Y-87404891D01*
X96686351Y-87456863D01*
X96686352Y-87456863D01*
X96686353Y-87456864D01*
X96819319Y-87511940D01*
X96903392Y-87522500D01*
X97616606Y-87522499D01*
X97700681Y-87511940D01*
X97833647Y-87456863D01*
X97900566Y-87404879D01*
X98108626Y-87196819D01*
X98169949Y-87163334D01*
X98196307Y-87160500D01*
X99213138Y-87160500D01*
X99280177Y-87180185D01*
X99300819Y-87196819D01*
X101233181Y-89129181D01*
X101266666Y-89190504D01*
X101269500Y-89216862D01*
X101269500Y-90045370D01*
X101269501Y-90045376D01*
X101275908Y-90104983D01*
X101326202Y-90239828D01*
X101326206Y-90239835D01*
X101412452Y-90355044D01*
X101412455Y-90355047D01*
X101527664Y-90441293D01*
X101527671Y-90441297D01*
X101662517Y-90491591D01*
X101662516Y-90491591D01*
X101669444Y-90492335D01*
X101722127Y-90498000D01*
X103422872Y-90497999D01*
X103482483Y-90491591D01*
X103617331Y-90441296D01*
X103732546Y-90355046D01*
X103818796Y-90239831D01*
X103869091Y-90104983D01*
X103872574Y-90072580D01*
X103899311Y-90008034D01*
X103956702Y-89968185D01*
X104026528Y-89965690D01*
X104086617Y-90001342D01*
X104096181Y-90012954D01*
X104118621Y-90043840D01*
X104118625Y-90043845D01*
X104263654Y-90188874D01*
X104263659Y-90188878D01*
X104408380Y-90294023D01*
X104429579Y-90309425D01*
X104538738Y-90365044D01*
X104612317Y-90402535D01*
X104612319Y-90402535D01*
X104612322Y-90402537D01*
X104807380Y-90465916D01*
X104908666Y-90481958D01*
X105009947Y-90498000D01*
X105009952Y-90498000D01*
X105215053Y-90498000D01*
X105307126Y-90483416D01*
X105417620Y-90465916D01*
X105612678Y-90402537D01*
X105795421Y-90309425D01*
X105961347Y-90188873D01*
X106106373Y-90043847D01*
X106226925Y-89877921D01*
X106272015Y-89789425D01*
X106319989Y-89738630D01*
X106387810Y-89721835D01*
X106453945Y-89744372D01*
X106492984Y-89789425D01*
X106497800Y-89798876D01*
X106538077Y-89877925D01*
X106658621Y-90043840D01*
X106658625Y-90043845D01*
X106803654Y-90188874D01*
X106803659Y-90188878D01*
X106948380Y-90294023D01*
X106969579Y-90309425D01*
X107078738Y-90365044D01*
X107152317Y-90402535D01*
X107152319Y-90402535D01*
X107152322Y-90402537D01*
X107347380Y-90465916D01*
X107448666Y-90481958D01*
X107549947Y-90498000D01*
X107549952Y-90498000D01*
X107755053Y-90498000D01*
X107847126Y-90483416D01*
X107957620Y-90465916D01*
X108152678Y-90402537D01*
X108335421Y-90309425D01*
X108501347Y-90188873D01*
X108646373Y-90043847D01*
X108766925Y-89877921D01*
X108860037Y-89695178D01*
X108923416Y-89500120D01*
X108940916Y-89389626D01*
X108955500Y-89297553D01*
X108955500Y-89092446D01*
X108929857Y-88930547D01*
X108923416Y-88889880D01*
X108860037Y-88694822D01*
X108860035Y-88694819D01*
X108860035Y-88694817D01*
X108817390Y-88611123D01*
X108766925Y-88512079D01*
X108711590Y-88435917D01*
X108646378Y-88346159D01*
X108646374Y-88346154D01*
X108501345Y-88201125D01*
X108501340Y-88201121D01*
X108335424Y-88080577D01*
X108335423Y-88080576D01*
X108335421Y-88080575D01*
X108273544Y-88049047D01*
X108246376Y-88035204D01*
X108195580Y-87987229D01*
X108178785Y-87919408D01*
X108201323Y-87853273D01*
X108246377Y-87814234D01*
X108335157Y-87768999D01*
X108380211Y-87736264D01*
X108380212Y-87736264D01*
X107810487Y-87166539D01*
X107859002Y-87153540D01*
X107980997Y-87083106D01*
X108080606Y-86983497D01*
X108151040Y-86861502D01*
X108164039Y-86812987D01*
X108733764Y-87382712D01*
X108733764Y-87382711D01*
X108766497Y-87337659D01*
X108859572Y-87154991D01*
X108922929Y-86959997D01*
X108955000Y-86757513D01*
X108955000Y-86552486D01*
X108922929Y-86350002D01*
X108859572Y-86155008D01*
X108826853Y-86090795D01*
X108813957Y-86022126D01*
X108840233Y-85957386D01*
X108897339Y-85917128D01*
X108937338Y-85910500D01*
X111295500Y-85910500D01*
X111362539Y-85930185D01*
X111408294Y-85982989D01*
X111419500Y-86034500D01*
X111419500Y-87711196D01*
X111454103Y-87885158D01*
X111454105Y-87885166D01*
X111480638Y-87949223D01*
X111484566Y-87958704D01*
X111521987Y-88049047D01*
X111564574Y-88112782D01*
X111568320Y-88118389D01*
X111568322Y-88118392D01*
X111620537Y-88196538D01*
X111620540Y-88196541D01*
X112563181Y-89139181D01*
X112596666Y-89200504D01*
X112599500Y-89226862D01*
X112599500Y-90055370D01*
X112599501Y-90055376D01*
X112605908Y-90114983D01*
X112656202Y-90249828D01*
X112656206Y-90249835D01*
X112742452Y-90365044D01*
X112742455Y-90365047D01*
X112857664Y-90451293D01*
X112857671Y-90451297D01*
X112992517Y-90501591D01*
X112992516Y-90501591D01*
X112999444Y-90502335D01*
X113052127Y-90508000D01*
X114752872Y-90507999D01*
X114812483Y-90501591D01*
X114947331Y-90451296D01*
X115062546Y-90365046D01*
X115148796Y-90249831D01*
X115199091Y-90114983D01*
X115202574Y-90082580D01*
X115229311Y-90018034D01*
X115286702Y-89978185D01*
X115356528Y-89975690D01*
X115416617Y-90011342D01*
X115426181Y-90022954D01*
X115448621Y-90053840D01*
X115448625Y-90053845D01*
X115593654Y-90198874D01*
X115593659Y-90198878D01*
X115663796Y-90249835D01*
X115759579Y-90319425D01*
X115876022Y-90378755D01*
X115942317Y-90412535D01*
X115942319Y-90412535D01*
X115942322Y-90412537D01*
X116137380Y-90475916D01*
X116236349Y-90491591D01*
X116339947Y-90508000D01*
X116339952Y-90508000D01*
X116545053Y-90508000D01*
X116648651Y-90491591D01*
X116747620Y-90475916D01*
X116942678Y-90412537D01*
X117125421Y-90319425D01*
X117291347Y-90198873D01*
X117436373Y-90053847D01*
X117556925Y-89887921D01*
X117602295Y-89798876D01*
X117650269Y-89748080D01*
X117718090Y-89731285D01*
X117784225Y-89753822D01*
X117823265Y-89798876D01*
X117868503Y-89887660D01*
X117901233Y-89932711D01*
X117901234Y-89932711D01*
X118470959Y-89362985D01*
X118483960Y-89411502D01*
X118554394Y-89533497D01*
X118654003Y-89633106D01*
X118775998Y-89703540D01*
X118824512Y-89716539D01*
X118254787Y-90286264D01*
X118299844Y-90318999D01*
X118482508Y-90412072D01*
X118677502Y-90475429D01*
X118879987Y-90507500D01*
X119085013Y-90507500D01*
X119287497Y-90475429D01*
X119399396Y-90439071D01*
X124811999Y-90439071D01*
X124836997Y-90564738D01*
X124836999Y-90564744D01*
X124886033Y-90683124D01*
X124886038Y-90683133D01*
X124957223Y-90789668D01*
X124957226Y-90789672D01*
X125047827Y-90880273D01*
X125047831Y-90880276D01*
X125154366Y-90951461D01*
X125154372Y-90951464D01*
X125154373Y-90951465D01*
X125272756Y-91000501D01*
X125272760Y-91000501D01*
X125272761Y-91000502D01*
X125398428Y-91025500D01*
X125398431Y-91025500D01*
X125526571Y-91025500D01*
X125611115Y-91008682D01*
X125652244Y-91000501D01*
X125770627Y-90951465D01*
X125877169Y-90880276D01*
X125967776Y-90789669D01*
X126038965Y-90683127D01*
X126088001Y-90564744D01*
X126101278Y-90497998D01*
X126113000Y-90439071D01*
X130811999Y-90439071D01*
X130836997Y-90564738D01*
X130836999Y-90564744D01*
X130886033Y-90683124D01*
X130886038Y-90683133D01*
X130957223Y-90789668D01*
X130957226Y-90789672D01*
X131047827Y-90880273D01*
X131047831Y-90880276D01*
X131154366Y-90951461D01*
X131154372Y-90951464D01*
X131154373Y-90951465D01*
X131272756Y-91000501D01*
X131272760Y-91000501D01*
X131272761Y-91000502D01*
X131398428Y-91025500D01*
X131398431Y-91025500D01*
X131526571Y-91025500D01*
X131611115Y-91008682D01*
X131652244Y-91000501D01*
X131770627Y-90951465D01*
X131877169Y-90880276D01*
X131967776Y-90789669D01*
X132038965Y-90683127D01*
X132088001Y-90564744D01*
X132101278Y-90497998D01*
X132113000Y-90439071D01*
X132113000Y-90310928D01*
X132088002Y-90185261D01*
X132088001Y-90185260D01*
X132088001Y-90185256D01*
X132038965Y-90066873D01*
X132038964Y-90066872D01*
X132038961Y-90066866D01*
X131967776Y-89960331D01*
X131967773Y-89960327D01*
X131877172Y-89869726D01*
X131877168Y-89869723D01*
X131770633Y-89798538D01*
X131770624Y-89798533D01*
X131652244Y-89749499D01*
X131652238Y-89749497D01*
X131526571Y-89724500D01*
X131526569Y-89724500D01*
X131398431Y-89724500D01*
X131398429Y-89724500D01*
X131272761Y-89749497D01*
X131272755Y-89749499D01*
X131154375Y-89798533D01*
X131154366Y-89798538D01*
X131047831Y-89869723D01*
X131047827Y-89869726D01*
X130957226Y-89960327D01*
X130957223Y-89960331D01*
X130886038Y-90066866D01*
X130886033Y-90066875D01*
X130836999Y-90185255D01*
X130836997Y-90185261D01*
X130812000Y-90310928D01*
X130812000Y-90310931D01*
X130812000Y-90439069D01*
X130812000Y-90439071D01*
X130811999Y-90439071D01*
X126113000Y-90439071D01*
X126113000Y-90310928D01*
X126088002Y-90185261D01*
X126088001Y-90185260D01*
X126088001Y-90185256D01*
X126038965Y-90066873D01*
X126038964Y-90066872D01*
X126038961Y-90066866D01*
X125967776Y-89960331D01*
X125967773Y-89960327D01*
X125877172Y-89869726D01*
X125877168Y-89869723D01*
X125770633Y-89798538D01*
X125770624Y-89798533D01*
X125652244Y-89749499D01*
X125652238Y-89749497D01*
X125526571Y-89724500D01*
X125526569Y-89724500D01*
X125398431Y-89724500D01*
X125398429Y-89724500D01*
X125272761Y-89749497D01*
X125272755Y-89749499D01*
X125154375Y-89798533D01*
X125154366Y-89798538D01*
X125047831Y-89869723D01*
X125047827Y-89869726D01*
X124957226Y-89960327D01*
X124957223Y-89960331D01*
X124886038Y-90066866D01*
X124886033Y-90066875D01*
X124836999Y-90185255D01*
X124836997Y-90185261D01*
X124812000Y-90310928D01*
X124812000Y-90310931D01*
X124812000Y-90439069D01*
X124812000Y-90439071D01*
X124811999Y-90439071D01*
X119399396Y-90439071D01*
X119482491Y-90412072D01*
X119665159Y-90318997D01*
X119710212Y-90286264D01*
X119140487Y-89716539D01*
X119189002Y-89703540D01*
X119310997Y-89633106D01*
X119410606Y-89533497D01*
X119481040Y-89411502D01*
X119494039Y-89362987D01*
X120063764Y-89932712D01*
X120063764Y-89932711D01*
X120096497Y-89887659D01*
X120189572Y-89704991D01*
X120252929Y-89509997D01*
X120285000Y-89307513D01*
X120285000Y-89102486D01*
X120252929Y-88900002D01*
X120189572Y-88705008D01*
X120096499Y-88522344D01*
X120063764Y-88477287D01*
X119494039Y-89047012D01*
X119481040Y-88998498D01*
X119410606Y-88876503D01*
X119310997Y-88776894D01*
X119189002Y-88706460D01*
X119140485Y-88693459D01*
X119710211Y-88123734D01*
X119710211Y-88123733D01*
X119665160Y-88091003D01*
X119576376Y-88045765D01*
X119525580Y-87997790D01*
X119508785Y-87929969D01*
X119531323Y-87863834D01*
X119576377Y-87824795D01*
X119576927Y-87824515D01*
X119665421Y-87779425D01*
X119831347Y-87658873D01*
X119976373Y-87513847D01*
X120096925Y-87347921D01*
X120190037Y-87165178D01*
X120253416Y-86970120D01*
X120273378Y-86844087D01*
X120285500Y-86767553D01*
X120285500Y-86562446D01*
X120257236Y-86384000D01*
X120253416Y-86359880D01*
X120190037Y-86164822D01*
X120190035Y-86164819D01*
X120190035Y-86164817D01*
X120138624Y-86063919D01*
X120096925Y-85982079D01*
X120050670Y-85918414D01*
X119976378Y-85816159D01*
X119976374Y-85816154D01*
X119831345Y-85671125D01*
X119831340Y-85671121D01*
X119665424Y-85550577D01*
X119665423Y-85550576D01*
X119665421Y-85550575D01*
X119578499Y-85506286D01*
X119482682Y-85457464D01*
X119435884Y-85442258D01*
X119287620Y-85394084D01*
X119287614Y-85394083D01*
X119085053Y-85362000D01*
X119085048Y-85362000D01*
X118879952Y-85362000D01*
X118879947Y-85362000D01*
X118677385Y-85394083D01*
X118677383Y-85394083D01*
X118677380Y-85394084D01*
X118579851Y-85425773D01*
X118482317Y-85457464D01*
X118299575Y-85550577D01*
X118133659Y-85671121D01*
X118133654Y-85671125D01*
X117988625Y-85816154D01*
X117988621Y-85816159D01*
X117868077Y-85982075D01*
X117822985Y-86070573D01*
X117775010Y-86121369D01*
X117707189Y-86138164D01*
X117641054Y-86115627D01*
X117602015Y-86070573D01*
X117586587Y-86040295D01*
X117556925Y-85982079D01*
X117510670Y-85918414D01*
X117436378Y-85816159D01*
X117436374Y-85816154D01*
X117291345Y-85671125D01*
X117291340Y-85671121D01*
X117125424Y-85550577D01*
X117125423Y-85550576D01*
X117125421Y-85550575D01*
X117038499Y-85506286D01*
X116942682Y-85457464D01*
X116895884Y-85442258D01*
X116747620Y-85394084D01*
X116747614Y-85394083D01*
X116545053Y-85362000D01*
X116545048Y-85362000D01*
X116339952Y-85362000D01*
X116339947Y-85362000D01*
X116137385Y-85394083D01*
X116137383Y-85394083D01*
X116137380Y-85394084D01*
X116039851Y-85425773D01*
X115942317Y-85457464D01*
X115759575Y-85550577D01*
X115593659Y-85671121D01*
X115593654Y-85671125D01*
X115448625Y-85816154D01*
X115448621Y-85816159D01*
X115328077Y-85982075D01*
X115282985Y-86070573D01*
X115235010Y-86121369D01*
X115167189Y-86138164D01*
X115101054Y-86115627D01*
X115062015Y-86070573D01*
X115046587Y-86040295D01*
X115016925Y-85982079D01*
X114970670Y-85918414D01*
X114896378Y-85816159D01*
X114896374Y-85816154D01*
X114751345Y-85671125D01*
X114751340Y-85671121D01*
X114585424Y-85550577D01*
X114585423Y-85550576D01*
X114585421Y-85550575D01*
X114498499Y-85506286D01*
X114402682Y-85457464D01*
X114355884Y-85442258D01*
X114207620Y-85394084D01*
X114207614Y-85394083D01*
X114005053Y-85362000D01*
X114005048Y-85362000D01*
X113799952Y-85362000D01*
X113799947Y-85362000D01*
X113597385Y-85394083D01*
X113597383Y-85394083D01*
X113597380Y-85394084D01*
X113402322Y-85457463D01*
X113402313Y-85457466D01*
X113400781Y-85458247D01*
X113400135Y-85458368D01*
X113397813Y-85459330D01*
X113397610Y-85458841D01*
X113332111Y-85471135D01*
X113267373Y-85444850D01*
X113227123Y-85387739D01*
X113220500Y-85347755D01*
X113220500Y-83644361D01*
X113240185Y-83577322D01*
X113256819Y-83556680D01*
X113577972Y-83235527D01*
X113922225Y-82891273D01*
X113983546Y-82857790D01*
X114053237Y-82862774D01*
X114109171Y-82904645D01*
X114133588Y-82970110D01*
X114124469Y-83026399D01*
X114122186Y-83031911D01*
X114122182Y-83031925D01*
X114089500Y-83196228D01*
X114089500Y-83363771D01*
X114122182Y-83528074D01*
X114122184Y-83528082D01*
X114186295Y-83682860D01*
X114279373Y-83822162D01*
X114397837Y-83940626D01*
X114464996Y-83985500D01*
X114537137Y-84033703D01*
X114691918Y-84097816D01*
X114856228Y-84130499D01*
X114856232Y-84130500D01*
X114856233Y-84130500D01*
X115023768Y-84130500D01*
X115023769Y-84130499D01*
X115188082Y-84097816D01*
X115342863Y-84033703D01*
X115482162Y-83940626D01*
X115600626Y-83822162D01*
X115693703Y-83682863D01*
X115757816Y-83528082D01*
X115790500Y-83363767D01*
X115790500Y-83363760D01*
X115791097Y-83357706D01*
X115793534Y-83357946D01*
X115810185Y-83301242D01*
X115826819Y-83280600D01*
X116125601Y-82981819D01*
X116186924Y-82948334D01*
X116213282Y-82945500D01*
X116604301Y-82945500D01*
X116671340Y-82965185D01*
X116717095Y-83017989D01*
X116727039Y-83087147D01*
X116725918Y-83093691D01*
X116709500Y-83176228D01*
X116709500Y-83343771D01*
X116742182Y-83508074D01*
X116742184Y-83508082D01*
X116806295Y-83662860D01*
X116899373Y-83802162D01*
X117017837Y-83920626D01*
X117085185Y-83965626D01*
X117157137Y-84013703D01*
X117311918Y-84077816D01*
X117471206Y-84109500D01*
X117476228Y-84110499D01*
X117476232Y-84110500D01*
X117476233Y-84110500D01*
X117643768Y-84110500D01*
X117643769Y-84110499D01*
X117808082Y-84077816D01*
X117962863Y-84013703D01*
X118102162Y-83920626D01*
X118106872Y-83916761D01*
X118108426Y-83918655D01*
X118160293Y-83890334D01*
X118186651Y-83887500D01*
X119683677Y-83887500D01*
X119683677Y-83887499D01*
X119752989Y-83873713D01*
X119822580Y-83879940D01*
X119864859Y-83907647D01*
X119922838Y-83965626D01*
X120062137Y-84058703D01*
X120216918Y-84122816D01*
X120345755Y-84148443D01*
X120381228Y-84155499D01*
X120381232Y-84155500D01*
X120381233Y-84155500D01*
X120548768Y-84155500D01*
X120548769Y-84155499D01*
X120713082Y-84122816D01*
X120867863Y-84058703D01*
X121007162Y-83965626D01*
X121125626Y-83847162D01*
X121218703Y-83707863D01*
X121282816Y-83553082D01*
X121315500Y-83388767D01*
X121315500Y-83388760D01*
X121316097Y-83382706D01*
X121318534Y-83382946D01*
X121335185Y-83326241D01*
X121351814Y-83305604D01*
X122868280Y-81789137D01*
X122892495Y-81775915D01*
X122914911Y-81759811D01*
X122922730Y-81759405D01*
X122929601Y-81755654D01*
X122957128Y-81757622D01*
X122984687Y-81756194D01*
X122991482Y-81760079D01*
X122999293Y-81760638D01*
X123021385Y-81777176D01*
X123045342Y-81790874D01*
X123050772Y-81799175D01*
X123055226Y-81802510D01*
X123065935Y-81819537D01*
X123068444Y-81824355D01*
X123116987Y-81941547D01*
X123169921Y-82020768D01*
X123193824Y-82056542D01*
X123215537Y-82089038D01*
X123215538Y-82089039D01*
X128353181Y-87226681D01*
X128386666Y-87288004D01*
X128389500Y-87314362D01*
X128389500Y-89348695D01*
X128424103Y-89522658D01*
X128424106Y-89522667D01*
X128491983Y-89686540D01*
X128491990Y-89686553D01*
X128590535Y-89834034D01*
X128590538Y-89834038D01*
X128715961Y-89959461D01*
X128715965Y-89959464D01*
X128863446Y-90058009D01*
X128863459Y-90058016D01*
X128976850Y-90104983D01*
X129027334Y-90125894D01*
X129027336Y-90125894D01*
X129027341Y-90125896D01*
X129201304Y-90160499D01*
X129201307Y-90160500D01*
X129201309Y-90160500D01*
X129378693Y-90160500D01*
X129378694Y-90160499D01*
X129436682Y-90148964D01*
X129552658Y-90125896D01*
X129552661Y-90125894D01*
X129552666Y-90125894D01*
X129716547Y-90058013D01*
X129864035Y-89959464D01*
X129989464Y-89834035D01*
X130088013Y-89686547D01*
X130155894Y-89522666D01*
X130190500Y-89348691D01*
X130190500Y-86801309D01*
X130183952Y-86768390D01*
X130183952Y-86768387D01*
X130160713Y-86651557D01*
X130155895Y-86627334D01*
X130088013Y-86463453D01*
X130088012Y-86463452D01*
X130088009Y-86463446D01*
X129989464Y-86315964D01*
X129989461Y-86315960D01*
X124489035Y-80815535D01*
X124489030Y-80815531D01*
X124434622Y-80779178D01*
X124434616Y-80779175D01*
X124429959Y-80776063D01*
X124341547Y-80716987D01*
X124259606Y-80683046D01*
X124253519Y-80680525D01*
X124253518Y-80680524D01*
X124229365Y-80670519D01*
X124174963Y-80626677D01*
X124152899Y-80560383D01*
X124170179Y-80492684D01*
X124189135Y-80468282D01*
X132197819Y-72459599D01*
X132259142Y-72426114D01*
X132328834Y-72431098D01*
X132384767Y-72472970D01*
X132409184Y-72538434D01*
X132409500Y-72547280D01*
X132409500Y-72573771D01*
X132442182Y-72738074D01*
X132442184Y-72738082D01*
X132506295Y-72892860D01*
X132599373Y-73032162D01*
X132603239Y-73036872D01*
X132601336Y-73038432D01*
X132629654Y-73090238D01*
X132632500Y-73116650D01*
X132632500Y-83114307D01*
X132656612Y-83235527D01*
X132656614Y-83235535D01*
X132686917Y-83308692D01*
X132703917Y-83349733D01*
X132754764Y-83425831D01*
X132757147Y-83429397D01*
X132772590Y-83452510D01*
X132772591Y-83452511D01*
X136339377Y-87019296D01*
X136372862Y-87080619D01*
X136369628Y-87145293D01*
X136365254Y-87158755D01*
X136332000Y-87368713D01*
X136332000Y-87581286D01*
X136363381Y-87779422D01*
X136365254Y-87791243D01*
X136419666Y-87958706D01*
X136430944Y-87993414D01*
X136527451Y-88182820D01*
X136652390Y-88354786D01*
X136802713Y-88505109D01*
X136974679Y-88630048D01*
X136974681Y-88630049D01*
X136974684Y-88630051D01*
X137164088Y-88726557D01*
X137366257Y-88792246D01*
X137576213Y-88825500D01*
X137576214Y-88825500D01*
X137788786Y-88825500D01*
X137788787Y-88825500D01*
X137998743Y-88792246D01*
X138200912Y-88726557D01*
X138390316Y-88630051D01*
X138476638Y-88567335D01*
X138562286Y-88505109D01*
X138562288Y-88505106D01*
X138562292Y-88505104D01*
X138712604Y-88354792D01*
X138712606Y-88354788D01*
X138712609Y-88354786D01*
X138790285Y-88247872D01*
X138837551Y-88182816D01*
X138842293Y-88173508D01*
X138890263Y-88122711D01*
X138958083Y-88105911D01*
X139024219Y-88128445D01*
X139063263Y-88173500D01*
X139067877Y-88182555D01*
X139192772Y-88354459D01*
X139192776Y-88354464D01*
X139343035Y-88504723D01*
X139343040Y-88504727D01*
X139514942Y-88629620D01*
X139704282Y-88726095D01*
X139906371Y-88791757D01*
X139972500Y-88802231D01*
X139972500Y-87908012D01*
X140029507Y-87940925D01*
X140156674Y-87975000D01*
X140288326Y-87975000D01*
X140415493Y-87940925D01*
X140472500Y-87908012D01*
X140472500Y-88802230D01*
X140538626Y-88791757D01*
X140538629Y-88791757D01*
X140740717Y-88726095D01*
X140930057Y-88629620D01*
X141101959Y-88504727D01*
X141101964Y-88504723D01*
X141252223Y-88354464D01*
X141252227Y-88354459D01*
X141377120Y-88182558D01*
X141382014Y-88172954D01*
X141429988Y-88122157D01*
X141497808Y-88105361D01*
X141563944Y-88127897D01*
X141602986Y-88172954D01*
X141607879Y-88182558D01*
X141732772Y-88354459D01*
X141732776Y-88354464D01*
X141883035Y-88504723D01*
X141883040Y-88504727D01*
X142054942Y-88629620D01*
X142244282Y-88726095D01*
X142446371Y-88791757D01*
X142512500Y-88802231D01*
X142512500Y-87908012D01*
X142569507Y-87940925D01*
X142696674Y-87975000D01*
X142828326Y-87975000D01*
X142955493Y-87940925D01*
X143012500Y-87908012D01*
X143012500Y-88802230D01*
X143078626Y-88791757D01*
X143078629Y-88791757D01*
X143280717Y-88726095D01*
X143470057Y-88629620D01*
X143641959Y-88504727D01*
X143641964Y-88504723D01*
X143792223Y-88354464D01*
X143792227Y-88354459D01*
X143917120Y-88182558D01*
X143921732Y-88173507D01*
X143969705Y-88122709D01*
X144037525Y-88105912D01*
X144103661Y-88128447D01*
X144142704Y-88173504D01*
X144147449Y-88182817D01*
X144272390Y-88354786D01*
X144422713Y-88505109D01*
X144594679Y-88630048D01*
X144594681Y-88630049D01*
X144594684Y-88630051D01*
X144784088Y-88726557D01*
X144986257Y-88792246D01*
X145196213Y-88825500D01*
X145196214Y-88825500D01*
X145408786Y-88825500D01*
X145408787Y-88825500D01*
X145618743Y-88792246D01*
X145820912Y-88726557D01*
X146010316Y-88630051D01*
X146182292Y-88505104D01*
X146295829Y-88391566D01*
X146357148Y-88358084D01*
X146426840Y-88363068D01*
X146482774Y-88404939D01*
X146499689Y-88435917D01*
X146548702Y-88567328D01*
X146548706Y-88567335D01*
X146634952Y-88682544D01*
X146634955Y-88682547D01*
X146750164Y-88768793D01*
X146750171Y-88768797D01*
X146885017Y-88819091D01*
X146885016Y-88819091D01*
X146891944Y-88819835D01*
X146944627Y-88825500D01*
X148740372Y-88825499D01*
X148799983Y-88819091D01*
X148934831Y-88768796D01*
X149050046Y-88682546D01*
X149136296Y-88567331D01*
X149186591Y-88432483D01*
X149193000Y-88372873D01*
X149192999Y-87347648D01*
X165409500Y-87347648D01*
X165409500Y-87552351D01*
X165441522Y-87754534D01*
X165504781Y-87949223D01*
X165555645Y-88049047D01*
X165596101Y-88128447D01*
X165597715Y-88131613D01*
X165718028Y-88297213D01*
X165862786Y-88441971D01*
X166017749Y-88554556D01*
X166028390Y-88562287D01*
X166114700Y-88606264D01*
X166210776Y-88655218D01*
X166210778Y-88655218D01*
X166210781Y-88655220D01*
X166283088Y-88678714D01*
X166405465Y-88718477D01*
X166456480Y-88726557D01*
X166607648Y-88750500D01*
X166607649Y-88750500D01*
X166812351Y-88750500D01*
X166812352Y-88750500D01*
X167014534Y-88718477D01*
X167209219Y-88655220D01*
X167391610Y-88562287D01*
X167484590Y-88494732D01*
X167557213Y-88441971D01*
X167557215Y-88441968D01*
X167557219Y-88441966D01*
X167701966Y-88297219D01*
X167776568Y-88194536D01*
X167831898Y-88151870D01*
X167901511Y-88145891D01*
X167963306Y-88178496D01*
X167997664Y-88239334D01*
X168000177Y-88254166D01*
X168005909Y-88307483D01*
X168056202Y-88442328D01*
X168056203Y-88442329D01*
X168056204Y-88442331D01*
X168142454Y-88557546D01*
X168207535Y-88606265D01*
X168243707Y-88649236D01*
X168266002Y-88692992D01*
X168266003Y-88692993D01*
X168372440Y-88839493D01*
X168372444Y-88839497D01*
X168372447Y-88839501D01*
X168463491Y-88930545D01*
X168504829Y-88971883D01*
X168504840Y-88971893D01*
X170549315Y-91016367D01*
X170549342Y-91016396D01*
X170552446Y-91019500D01*
X170552447Y-91019501D01*
X170680499Y-91147553D01*
X170680502Y-91147555D01*
X170680506Y-91147559D01*
X170813364Y-91244084D01*
X170827006Y-91253996D01*
X170929818Y-91306381D01*
X170988356Y-91336209D01*
X170988358Y-91336209D01*
X170988361Y-91336211D01*
X171080680Y-91366207D01*
X171160590Y-91392172D01*
X171339449Y-91420501D01*
X171339454Y-91420501D01*
X171525658Y-91420501D01*
X171525682Y-91420500D01*
X181474319Y-91420500D01*
X181474343Y-91420501D01*
X181479454Y-91420501D01*
X181660545Y-91420501D01*
X181660546Y-91420501D01*
X181839409Y-91392171D01*
X182011639Y-91336211D01*
X182172994Y-91253996D01*
X182319501Y-91147553D01*
X182447553Y-91019501D01*
X182447554Y-91019499D01*
X182454614Y-91012439D01*
X182454620Y-91012432D01*
X183742432Y-89724620D01*
X183742439Y-89724614D01*
X183749499Y-89717554D01*
X183749501Y-89717553D01*
X183877553Y-89589501D01*
X183983996Y-89442994D01*
X184066211Y-89281639D01*
X184122171Y-89109409D01*
X184127780Y-89073996D01*
X184150501Y-88930547D01*
X184150501Y-88749454D01*
X184150501Y-88745053D01*
X184150500Y-88745038D01*
X184150500Y-86146517D01*
X184164014Y-86090224D01*
X184251557Y-85918412D01*
X184317246Y-85716243D01*
X184350500Y-85506287D01*
X184350500Y-85293713D01*
X184317246Y-85083757D01*
X184251557Y-84881588D01*
X184155051Y-84692184D01*
X184155049Y-84692181D01*
X184155048Y-84692179D01*
X184030109Y-84520213D01*
X183879786Y-84369890D01*
X183707820Y-84244951D01*
X183518414Y-84148444D01*
X183518413Y-84148443D01*
X183518412Y-84148443D01*
X183316243Y-84082754D01*
X183316241Y-84082753D01*
X183316240Y-84082753D01*
X183154957Y-84057208D01*
X183106287Y-84049500D01*
X182893713Y-84049500D01*
X182845042Y-84057208D01*
X182683760Y-84082753D01*
X182481585Y-84148444D01*
X182292179Y-84244951D01*
X182120213Y-84369890D01*
X181969890Y-84520213D01*
X181844948Y-84692184D01*
X181842404Y-84696336D01*
X181841513Y-84695790D01*
X181797004Y-84742913D01*
X181729182Y-84759704D01*
X181663048Y-84737162D01*
X181619600Y-84682445D01*
X181610500Y-84635818D01*
X181610500Y-74035681D01*
X181610501Y-74035656D01*
X181610501Y-73849454D01*
X181606329Y-73823115D01*
X181582171Y-73670591D01*
X181526211Y-73498361D01*
X181526211Y-73498360D01*
X181487288Y-73421972D01*
X181443996Y-73337006D01*
X181422788Y-73307816D01*
X181383539Y-73253794D01*
X181337558Y-73190505D01*
X181337555Y-73190502D01*
X181337553Y-73190499D01*
X181209501Y-73062447D01*
X181209500Y-73062446D01*
X181206389Y-73059335D01*
X181206374Y-73059321D01*
X178099503Y-69952450D01*
X178099501Y-69952448D01*
X177952994Y-69846004D01*
X177791639Y-69763788D01*
X177791636Y-69763787D01*
X177619410Y-69707829D01*
X177529977Y-69693664D01*
X177440546Y-69679499D01*
X177259454Y-69679499D01*
X177199833Y-69688942D01*
X177080589Y-69707829D01*
X176908363Y-69763787D01*
X176908360Y-69763788D01*
X176747005Y-69846004D01*
X176663417Y-69906734D01*
X176600499Y-69952448D01*
X176600497Y-69952450D01*
X176600496Y-69952450D01*
X176482181Y-70070766D01*
X176420858Y-70104251D01*
X176351166Y-70099267D01*
X176295233Y-70057395D01*
X176270816Y-69991931D01*
X176270500Y-69983085D01*
X176270500Y-63774362D01*
X176290185Y-63707323D01*
X176306819Y-63686681D01*
X177039464Y-62954036D01*
X177039465Y-62954035D01*
X177091240Y-62876547D01*
X177138013Y-62806547D01*
X177171953Y-62724606D01*
X177205895Y-62642666D01*
X177240500Y-62468692D01*
X177240500Y-62291308D01*
X177240500Y-61161309D01*
X177240500Y-61161306D01*
X177240499Y-61161304D01*
X177205896Y-60987341D01*
X177205893Y-60987332D01*
X177205813Y-60987140D01*
X177180459Y-60925928D01*
X177138016Y-60823459D01*
X177138009Y-60823446D01*
X177039464Y-60675965D01*
X177039461Y-60675961D01*
X176914038Y-60550538D01*
X176914034Y-60550535D01*
X176766553Y-60451990D01*
X176766540Y-60451983D01*
X176602667Y-60384106D01*
X176602658Y-60384103D01*
X176428694Y-60349500D01*
X176428691Y-60349500D01*
X176251309Y-60349500D01*
X176251306Y-60349500D01*
X176077341Y-60384103D01*
X176077332Y-60384106D01*
X175913459Y-60451983D01*
X175913446Y-60451990D01*
X175765965Y-60550535D01*
X175765961Y-60550538D01*
X175640538Y-60675961D01*
X175640535Y-60675965D01*
X175541990Y-60823446D01*
X175541983Y-60823459D01*
X175474106Y-60987332D01*
X175474103Y-60987341D01*
X175439500Y-61161304D01*
X175439500Y-61955637D01*
X175419815Y-62022676D01*
X175403181Y-62043318D01*
X174670540Y-62775958D01*
X174670537Y-62775961D01*
X174637803Y-62824952D01*
X174637799Y-62824957D01*
X174634849Y-62829374D01*
X174571987Y-62923453D01*
X174539385Y-63002162D01*
X174536765Y-63008485D01*
X174536761Y-63008494D01*
X174504105Y-63087333D01*
X174504103Y-63087341D01*
X174469500Y-63261303D01*
X174469500Y-71005637D01*
X174449815Y-71072676D01*
X174433181Y-71093318D01*
X171140536Y-74385963D01*
X171124217Y-74410388D01*
X171110440Y-74431007D01*
X171041987Y-74533453D01*
X171019751Y-74587137D01*
X171016680Y-74594549D01*
X171016678Y-74594554D01*
X170974105Y-74697333D01*
X170974105Y-74697334D01*
X170942566Y-74855895D01*
X170939500Y-74871309D01*
X170939500Y-74871310D01*
X170939500Y-84035637D01*
X170919815Y-84102676D01*
X170903181Y-84123318D01*
X168863317Y-86163181D01*
X168801994Y-86196666D01*
X168775636Y-86199500D01*
X168452130Y-86199500D01*
X168452123Y-86199501D01*
X168392516Y-86205908D01*
X168257671Y-86256202D01*
X168257664Y-86256206D01*
X168142455Y-86342452D01*
X168142452Y-86342455D01*
X168056206Y-86457664D01*
X168056202Y-86457671D01*
X168005908Y-86592516D01*
X168000176Y-86645834D01*
X167973438Y-86710385D01*
X167916045Y-86750233D01*
X167846220Y-86752726D01*
X167786131Y-86717073D01*
X167776569Y-86705463D01*
X167701971Y-86602786D01*
X167557213Y-86458028D01*
X167391613Y-86337715D01*
X167391612Y-86337714D01*
X167391610Y-86337713D01*
X167308600Y-86295417D01*
X167209223Y-86244781D01*
X167014534Y-86181522D01*
X166839995Y-86153878D01*
X166812352Y-86149500D01*
X166607648Y-86149500D01*
X166583329Y-86153351D01*
X166405465Y-86181522D01*
X166210776Y-86244781D01*
X166028386Y-86337715D01*
X165862786Y-86458028D01*
X165718028Y-86602786D01*
X165597715Y-86768386D01*
X165504781Y-86950776D01*
X165441522Y-87145465D01*
X165409500Y-87347648D01*
X149192999Y-87347648D01*
X149192999Y-86577128D01*
X149186591Y-86517517D01*
X149185310Y-86514083D01*
X149136297Y-86382671D01*
X149136293Y-86382664D01*
X149050047Y-86267455D01*
X149050044Y-86267452D01*
X148934835Y-86181206D01*
X148934828Y-86181202D01*
X148799982Y-86130908D01*
X148799983Y-86130908D01*
X148740383Y-86124501D01*
X148740381Y-86124500D01*
X148740373Y-86124500D01*
X148740365Y-86124500D01*
X148594000Y-86124500D01*
X148526961Y-86104815D01*
X148481206Y-86052011D01*
X148470000Y-86000500D01*
X148470000Y-85800694D01*
X148445886Y-85679470D01*
X148445885Y-85679469D01*
X148445885Y-85679465D01*
X148442431Y-85671127D01*
X148398586Y-85565273D01*
X148398579Y-85565260D01*
X148329912Y-85462493D01*
X148312269Y-85444850D01*
X148242508Y-85375089D01*
X141336147Y-78468728D01*
X166804500Y-78468728D01*
X166804500Y-78636271D01*
X166837182Y-78800574D01*
X166837184Y-78800582D01*
X166901295Y-78955360D01*
X166994372Y-79094660D01*
X166994373Y-79094661D01*
X166994374Y-79094662D01*
X167018181Y-79118469D01*
X167051666Y-79179790D01*
X167054500Y-79206150D01*
X167054500Y-80173849D01*
X167034815Y-80240888D01*
X167018181Y-80261530D01*
X166994376Y-80285334D01*
X166994373Y-80285337D01*
X166901295Y-80424639D01*
X166837184Y-80579417D01*
X166837182Y-80579425D01*
X166804500Y-80743728D01*
X166804500Y-80911271D01*
X166837182Y-81075574D01*
X166837184Y-81075582D01*
X166901295Y-81230360D01*
X166994373Y-81369662D01*
X167112837Y-81488126D01*
X167185393Y-81536606D01*
X167252137Y-81581203D01*
X167406918Y-81645316D01*
X167571228Y-81677999D01*
X167571232Y-81678000D01*
X167571233Y-81678000D01*
X167738768Y-81678000D01*
X167738769Y-81677999D01*
X167903082Y-81645316D01*
X168057863Y-81581203D01*
X168197162Y-81488126D01*
X168315626Y-81369662D01*
X168408703Y-81230363D01*
X168472816Y-81075582D01*
X168505500Y-80911267D01*
X168505500Y-80743733D01*
X168472816Y-80579418D01*
X168408703Y-80424637D01*
X168377537Y-80377994D01*
X168315626Y-80285337D01*
X168291819Y-80261530D01*
X168258334Y-80200207D01*
X168255500Y-80173849D01*
X168255500Y-79206150D01*
X168275185Y-79139111D01*
X168291815Y-79118472D01*
X168315626Y-79094662D01*
X168408703Y-78955363D01*
X168472816Y-78800582D01*
X168505500Y-78636267D01*
X168505500Y-78468733D01*
X168472816Y-78304418D01*
X168408703Y-78149637D01*
X168331732Y-78034442D01*
X168315626Y-78010337D01*
X168197162Y-77891873D01*
X168057860Y-77798795D01*
X167903082Y-77734684D01*
X167903074Y-77734682D01*
X167738771Y-77702000D01*
X167738767Y-77702000D01*
X167571233Y-77702000D01*
X167571228Y-77702000D01*
X167406925Y-77734682D01*
X167406917Y-77734684D01*
X167252139Y-77798795D01*
X167112837Y-77891873D01*
X166994373Y-78010337D01*
X166901295Y-78149639D01*
X166837184Y-78304417D01*
X166837182Y-78304425D01*
X166804500Y-78468728D01*
X141336147Y-78468728D01*
X134896819Y-72029400D01*
X134863334Y-71968077D01*
X134861631Y-71952241D01*
X134861097Y-71952294D01*
X134860500Y-71946238D01*
X134860500Y-71946233D01*
X134827816Y-71781918D01*
X134763703Y-71627137D01*
X134721747Y-71564346D01*
X134670626Y-71487837D01*
X134552162Y-71369373D01*
X134412860Y-71276295D01*
X134258082Y-71212184D01*
X134258074Y-71212182D01*
X134093771Y-71179500D01*
X134093767Y-71179500D01*
X133926233Y-71179500D01*
X133926228Y-71179500D01*
X133767518Y-71211069D01*
X133697926Y-71204842D01*
X133642749Y-71161978D01*
X133619505Y-71096088D01*
X133635573Y-71028091D01*
X133655642Y-71001775D01*
X136737819Y-67919599D01*
X136799142Y-67886114D01*
X136868834Y-67891098D01*
X136924767Y-67932970D01*
X136949184Y-67998434D01*
X136949500Y-68007280D01*
X136949500Y-68033771D01*
X136982182Y-68198074D01*
X136982184Y-68198082D01*
X137046295Y-68352860D01*
X137139373Y-68492162D01*
X137257837Y-68610626D01*
X137350494Y-68672537D01*
X137397137Y-68703703D01*
X137551918Y-68767816D01*
X137716228Y-68800499D01*
X137716232Y-68800500D01*
X137716233Y-68800500D01*
X137883768Y-68800500D01*
X137883769Y-68800499D01*
X138048082Y-68767816D01*
X138202863Y-68703703D01*
X138342162Y-68610626D01*
X138460626Y-68492162D01*
X138553703Y-68352863D01*
X138617816Y-68198082D01*
X138646718Y-68052781D01*
X138679102Y-67990870D01*
X138680596Y-67989349D01*
X142319157Y-64350787D01*
X142380478Y-64317304D01*
X142382562Y-64316869D01*
X142428082Y-64307816D01*
X142582863Y-64243703D01*
X142709707Y-64158947D01*
X142754406Y-64140433D01*
X142858202Y-64119786D01*
X142879744Y-64115501D01*
X142998127Y-64066465D01*
X143046544Y-64034114D01*
X143046544Y-64034113D01*
X143046546Y-64034113D01*
X143093143Y-64002978D01*
X143104669Y-63995277D01*
X144829293Y-62270652D01*
X144890614Y-62237169D01*
X144892781Y-62236718D01*
X144911360Y-62233022D01*
X145038082Y-62207816D01*
X145192863Y-62143703D01*
X145332162Y-62050626D01*
X145450626Y-61932162D01*
X145543703Y-61792863D01*
X145607816Y-61638082D01*
X145640500Y-61473767D01*
X145640500Y-61306233D01*
X145607816Y-61141918D01*
X145543703Y-60987137D01*
X145497559Y-60918078D01*
X145450626Y-60847837D01*
X145332162Y-60729373D01*
X145192860Y-60636295D01*
X145038082Y-60572184D01*
X145038074Y-60572182D01*
X144873771Y-60539500D01*
X144873767Y-60539500D01*
X144706233Y-60539500D01*
X144706228Y-60539500D01*
X144541925Y-60572182D01*
X144541917Y-60572184D01*
X144387140Y-60636295D01*
X144330900Y-60673873D01*
X144312321Y-60679690D01*
X144295845Y-60690065D01*
X144279663Y-60689915D01*
X144264222Y-60694750D01*
X144245446Y-60689599D01*
X144225978Y-60689419D01*
X144212447Y-60680546D01*
X144196842Y-60676265D01*
X144183831Y-60661780D01*
X144167551Y-60651104D01*
X144160965Y-60636323D01*
X144150152Y-60624285D01*
X144147038Y-60605067D01*
X144139114Y-60587283D01*
X144141564Y-60571287D01*
X144138977Y-60555315D01*
X144146747Y-60537465D01*
X144149696Y-60518219D01*
X144164013Y-60497801D01*
X144166864Y-60491252D01*
X144169051Y-60488705D01*
X144171589Y-60485829D01*
X144217411Y-60440008D01*
X144229498Y-60421918D01*
X144286083Y-60337233D01*
X144313935Y-60269992D01*
X144333386Y-60223034D01*
X144357500Y-60101803D01*
X144357500Y-59978196D01*
X144357500Y-58246650D01*
X144377185Y-58179611D01*
X144387178Y-58167214D01*
X144386761Y-58166872D01*
X144390626Y-58162162D01*
X144397471Y-58151918D01*
X144483703Y-58022863D01*
X144547816Y-57868082D01*
X144580500Y-57703767D01*
X144580500Y-57536233D01*
X144547816Y-57371918D01*
X144483703Y-57217137D01*
X144432409Y-57140370D01*
X144390626Y-57077837D01*
X144272162Y-56959373D01*
X144132860Y-56866295D01*
X143978082Y-56802184D01*
X143978074Y-56802182D01*
X143813771Y-56769500D01*
X143813767Y-56769500D01*
X143646233Y-56769500D01*
X143646228Y-56769500D01*
X143481925Y-56802182D01*
X143481917Y-56802184D01*
X143327139Y-56866295D01*
X143187837Y-56959373D01*
X143069376Y-57077834D01*
X143069372Y-57077839D01*
X143057527Y-57095566D01*
X143003913Y-57140370D01*
X142934588Y-57149075D01*
X142871561Y-57118918D01*
X142865010Y-57112068D01*
X142864934Y-57112145D01*
X142742162Y-56989373D01*
X142602860Y-56896295D01*
X142448082Y-56832184D01*
X142448074Y-56832182D01*
X142283771Y-56799500D01*
X142283767Y-56799500D01*
X142116233Y-56799500D01*
X142116228Y-56799500D01*
X141951925Y-56832182D01*
X141951917Y-56832184D01*
X141797139Y-56896295D01*
X141657838Y-56989373D01*
X141537100Y-57110111D01*
X141475777Y-57143595D01*
X141406085Y-57138611D01*
X141350152Y-57096739D01*
X141346318Y-57091321D01*
X141330628Y-57067840D01*
X141330623Y-57067834D01*
X141212162Y-56949373D01*
X141072860Y-56856295D01*
X140918082Y-56792184D01*
X140918074Y-56792182D01*
X140753771Y-56759500D01*
X140753767Y-56759500D01*
X140586233Y-56759500D01*
X140586228Y-56759500D01*
X140421925Y-56792182D01*
X140421917Y-56792184D01*
X140267139Y-56856295D01*
X140127837Y-56949373D01*
X140009373Y-57067837D01*
X139916295Y-57207139D01*
X139852184Y-57361917D01*
X139852182Y-57361925D01*
X139819500Y-57526228D01*
X139819500Y-57693771D01*
X139852182Y-57858074D01*
X139852184Y-57858082D01*
X139916295Y-58012860D01*
X140009373Y-58152162D01*
X140013239Y-58156872D01*
X140011336Y-58158432D01*
X140039654Y-58210238D01*
X140042500Y-58236650D01*
X140042500Y-60968719D01*
X140022815Y-61035758D01*
X140006181Y-61056400D01*
X136879181Y-64183400D01*
X136817858Y-64216885D01*
X136748166Y-64211901D01*
X136692233Y-64170029D01*
X136667816Y-64104565D01*
X136667500Y-64095719D01*
X136667500Y-56918196D01*
X136667499Y-56918195D01*
X136665618Y-56908740D01*
X136663756Y-56899371D01*
X136663756Y-56899370D01*
X136644424Y-56802184D01*
X136643386Y-56796965D01*
X136606217Y-56707232D01*
X136605556Y-56705637D01*
X136602186Y-56697500D01*
X136596083Y-56682767D01*
X136527411Y-56579992D01*
X136527409Y-56579989D01*
X136486819Y-56539399D01*
X136453334Y-56478076D01*
X136451631Y-56462241D01*
X136451097Y-56462294D01*
X136450500Y-56456238D01*
X136450500Y-56456233D01*
X136417816Y-56291918D01*
X136353703Y-56137137D01*
X136316657Y-56081694D01*
X136260626Y-55997837D01*
X136142162Y-55879373D01*
X136015292Y-55794602D01*
X135970487Y-55740990D01*
X135961780Y-55671665D01*
X135991934Y-55608638D01*
X136051377Y-55571918D01*
X136084183Y-55567500D01*
X148218562Y-55567500D01*
X148285601Y-55587185D01*
X148306243Y-55603819D01*
X151636703Y-58934279D01*
X151670188Y-58995602D01*
X151671890Y-59011437D01*
X151672425Y-59011385D01*
X151673022Y-59017450D01*
X151705704Y-59181753D01*
X151705706Y-59181761D01*
X151769817Y-59336539D01*
X151862895Y-59475841D01*
X151981359Y-59594305D01*
X152006992Y-59611432D01*
X152120659Y-59687382D01*
X152120660Y-59687382D01*
X152120661Y-59687383D01*
X152151737Y-59700255D01*
X152275440Y-59751495D01*
X152419153Y-59780081D01*
X152439750Y-59784178D01*
X152439754Y-59784179D01*
X152439755Y-59784179D01*
X152607290Y-59784179D01*
X152607291Y-59784178D01*
X152771604Y-59751495D01*
X152926385Y-59687382D01*
X153065684Y-59594305D01*
X153175733Y-59484255D01*
X153237054Y-59450772D01*
X153306746Y-59455756D01*
X153362680Y-59497627D01*
X153377974Y-59524486D01*
X153406294Y-59592858D01*
X153406295Y-59592860D01*
X153499373Y-59732162D01*
X153617837Y-59850626D01*
X153656010Y-59876132D01*
X153757137Y-59943703D01*
X153911918Y-60007816D01*
X154076228Y-60040499D01*
X154076232Y-60040500D01*
X154076233Y-60040500D01*
X154243768Y-60040500D01*
X154243769Y-60040499D01*
X154408082Y-60007816D01*
X154562863Y-59943703D01*
X154702162Y-59850626D01*
X154820626Y-59732162D01*
X154913703Y-59592863D01*
X154977816Y-59438082D01*
X155010500Y-59273767D01*
X155010500Y-59106233D01*
X154997198Y-59039358D01*
X154976628Y-58935943D01*
X154978005Y-58935668D01*
X154977436Y-58872891D01*
X155014675Y-58813772D01*
X155077964Y-58784171D01*
X155144176Y-58792182D01*
X155181918Y-58807816D01*
X155346228Y-58840499D01*
X155346232Y-58840500D01*
X155346233Y-58840500D01*
X155513768Y-58840500D01*
X155513769Y-58840499D01*
X155678082Y-58807816D01*
X155832863Y-58743703D01*
X155972162Y-58650626D01*
X156090626Y-58532162D01*
X156183703Y-58392863D01*
X156247816Y-58238082D01*
X156280500Y-58073767D01*
X156280500Y-57906233D01*
X156247816Y-57741918D01*
X156186183Y-57593123D01*
X156183704Y-57587139D01*
X156178937Y-57580005D01*
X156122609Y-57495703D01*
X156090626Y-57447837D01*
X156023530Y-57380741D01*
X155990045Y-57319418D01*
X155989594Y-57268868D01*
X156010500Y-57163767D01*
X156010500Y-56996233D01*
X155977816Y-56831918D01*
X155916035Y-56682767D01*
X155913704Y-56677139D01*
X155903685Y-56662145D01*
X155848474Y-56579515D01*
X155820626Y-56537837D01*
X155702162Y-56419373D01*
X155562860Y-56326295D01*
X155408082Y-56262184D01*
X155408074Y-56262182D01*
X155243771Y-56229500D01*
X155243767Y-56229500D01*
X155076233Y-56229500D01*
X155076228Y-56229500D01*
X154911925Y-56262182D01*
X154911917Y-56262184D01*
X154757139Y-56326295D01*
X154617837Y-56419373D01*
X154613128Y-56423239D01*
X154611573Y-56421344D01*
X154594102Y-56430884D01*
X154568284Y-56447477D01*
X154562083Y-56448368D01*
X154559707Y-56449666D01*
X154533349Y-56452500D01*
X154372234Y-56452500D01*
X154305195Y-56432815D01*
X154284553Y-56416181D01*
X150731821Y-52863448D01*
X150649012Y-52780639D01*
X163155500Y-52780639D01*
X163155500Y-52979360D01*
X163186587Y-53175637D01*
X163247993Y-53364629D01*
X163247994Y-53364632D01*
X163296170Y-53459181D01*
X163338213Y-53541694D01*
X163455019Y-53702464D01*
X163595536Y-53842981D01*
X163756306Y-53959787D01*
X163874832Y-54020179D01*
X163912780Y-54039515D01*
X163963576Y-54087490D01*
X163980371Y-54155311D01*
X163957833Y-54221446D01*
X163912780Y-54260485D01*
X163756305Y-54340213D01*
X163595533Y-54457021D01*
X163455021Y-54597533D01*
X163338213Y-54758305D01*
X163247994Y-54935367D01*
X163247993Y-54935370D01*
X163186587Y-55124362D01*
X163177999Y-55178587D01*
X163155500Y-55320639D01*
X163155500Y-55519361D01*
X163163175Y-55567816D01*
X163186587Y-55715637D01*
X163247993Y-55904629D01*
X163247994Y-55904632D01*
X163295486Y-55997838D01*
X163338213Y-56081694D01*
X163455019Y-56242464D01*
X163595536Y-56382981D01*
X163756306Y-56499787D01*
X163913332Y-56579796D01*
X163964127Y-56627769D01*
X163980922Y-56695590D01*
X163958385Y-56761725D01*
X163913332Y-56800764D01*
X163756569Y-56880639D01*
X163595860Y-56997403D01*
X163595859Y-56997403D01*
X163455403Y-57137859D01*
X163455403Y-57137860D01*
X163338641Y-57298567D01*
X163248456Y-57475564D01*
X163187074Y-57664482D01*
X163179865Y-57709999D01*
X163179865Y-57710000D01*
X164737749Y-57710000D01*
X164706619Y-57763919D01*
X164672000Y-57893120D01*
X164672000Y-58026880D01*
X164706619Y-58156081D01*
X164737749Y-58210000D01*
X163179865Y-58210000D01*
X163187074Y-58255517D01*
X163248456Y-58444435D01*
X163338641Y-58621432D01*
X163455403Y-58782139D01*
X163455403Y-58782140D01*
X163595859Y-58922596D01*
X163756567Y-59039358D01*
X163913331Y-59119234D01*
X163964127Y-59167209D01*
X163980922Y-59235030D01*
X163958384Y-59301165D01*
X163913331Y-59340204D01*
X163756305Y-59420213D01*
X163595533Y-59537021D01*
X163455021Y-59677533D01*
X163338213Y-59838305D01*
X163247994Y-60015367D01*
X163247993Y-60015370D01*
X163186587Y-60204362D01*
X163163896Y-60347627D01*
X163155500Y-60400639D01*
X163155500Y-60599361D01*
X163168568Y-60681866D01*
X163186587Y-60795637D01*
X163247993Y-60984629D01*
X163247994Y-60984632D01*
X163328139Y-61141923D01*
X163338213Y-61161694D01*
X163455019Y-61322464D01*
X163595536Y-61462981D01*
X163756306Y-61579787D01*
X163870700Y-61638074D01*
X163912780Y-61659515D01*
X163963576Y-61707490D01*
X163980371Y-61775311D01*
X163957833Y-61841446D01*
X163912780Y-61880485D01*
X163756305Y-61960213D01*
X163595533Y-62077021D01*
X163455021Y-62217533D01*
X163338213Y-62378305D01*
X163247994Y-62555367D01*
X163247993Y-62555370D01*
X163186587Y-62744362D01*
X163155500Y-62940639D01*
X163155500Y-63139360D01*
X163186587Y-63335637D01*
X163247993Y-63524629D01*
X163247994Y-63524632D01*
X163330563Y-63686681D01*
X163338213Y-63701694D01*
X163455019Y-63862464D01*
X163595536Y-64002981D01*
X163756306Y-64119787D01*
X163854911Y-64170029D01*
X163912780Y-64199515D01*
X163963576Y-64247490D01*
X163980371Y-64315311D01*
X163957833Y-64381446D01*
X163912780Y-64420485D01*
X163756305Y-64500213D01*
X163595533Y-64617021D01*
X163455021Y-64757533D01*
X163338213Y-64918305D01*
X163247994Y-65095367D01*
X163247993Y-65095370D01*
X163186587Y-65284362D01*
X163155500Y-65480639D01*
X163155500Y-65679360D01*
X163186587Y-65875637D01*
X163247993Y-66064629D01*
X163247994Y-66064632D01*
X163338213Y-66241694D01*
X163455019Y-66402464D01*
X163595536Y-66542981D01*
X163756306Y-66659787D01*
X163843149Y-66704035D01*
X163933367Y-66750005D01*
X163933370Y-66750006D01*
X164027866Y-66780709D01*
X164122364Y-66811413D01*
X164318639Y-66842500D01*
X164318640Y-66842500D01*
X166041360Y-66842500D01*
X166041361Y-66842500D01*
X166237636Y-66811413D01*
X166426632Y-66750005D01*
X166603694Y-66659787D01*
X166764464Y-66542981D01*
X166904981Y-66402464D01*
X167021787Y-66241694D01*
X167112005Y-66064632D01*
X167173413Y-65875636D01*
X167204500Y-65679361D01*
X167204500Y-65480639D01*
X167173413Y-65284364D01*
X167112005Y-65095368D01*
X167112005Y-65095367D01*
X167021786Y-64918305D01*
X166996696Y-64883771D01*
X166904981Y-64757536D01*
X166764464Y-64617019D01*
X166603694Y-64500213D01*
X166447218Y-64420484D01*
X166396423Y-64372510D01*
X166379628Y-64304689D01*
X166402165Y-64238554D01*
X166447218Y-64199515D01*
X166603694Y-64119787D01*
X166764464Y-64002981D01*
X166904981Y-63862464D01*
X167021787Y-63701694D01*
X167112005Y-63524632D01*
X167173413Y-63335636D01*
X167204500Y-63139361D01*
X167204500Y-62940639D01*
X167173413Y-62744364D01*
X167112005Y-62555368D01*
X167112005Y-62555367D01*
X167066035Y-62465149D01*
X167021787Y-62378306D01*
X166904981Y-62217536D01*
X166764464Y-62077019D01*
X166603694Y-61960213D01*
X166447218Y-61880484D01*
X166396423Y-61832510D01*
X166379628Y-61764689D01*
X166402165Y-61698554D01*
X166447218Y-61659515D01*
X166603694Y-61579787D01*
X166764464Y-61462981D01*
X166904981Y-61322464D01*
X167021787Y-61161694D01*
X167112005Y-60984632D01*
X167173413Y-60795636D01*
X167204500Y-60599361D01*
X167204500Y-60400639D01*
X167173413Y-60204364D01*
X167142709Y-60109866D01*
X167112006Y-60015370D01*
X167112005Y-60015367D01*
X167080773Y-59954071D01*
X171559499Y-59954071D01*
X171584497Y-60079738D01*
X171584499Y-60079744D01*
X171633533Y-60198124D01*
X171633538Y-60198133D01*
X171704723Y-60304668D01*
X171704726Y-60304672D01*
X171795327Y-60395273D01*
X171795331Y-60395276D01*
X171901866Y-60466461D01*
X171901872Y-60466464D01*
X171901873Y-60466465D01*
X172020256Y-60515501D01*
X172020260Y-60515501D01*
X172020261Y-60515502D01*
X172145928Y-60540500D01*
X172145931Y-60540500D01*
X172274071Y-60540500D01*
X172358615Y-60523682D01*
X172399744Y-60515501D01*
X172518127Y-60466465D01*
X172624669Y-60395276D01*
X172639372Y-60380573D01*
X172672319Y-60347627D01*
X172680264Y-60343288D01*
X172685690Y-60336041D01*
X172710449Y-60326806D01*
X172733642Y-60314142D01*
X172742671Y-60314787D01*
X172751154Y-60311624D01*
X172776974Y-60317240D01*
X172803334Y-60319126D01*
X172812387Y-60324944D01*
X172819427Y-60326476D01*
X172847681Y-60347627D01*
X172852373Y-60352319D01*
X172885858Y-60413642D01*
X172880874Y-60483334D01*
X172852373Y-60527681D01*
X172804726Y-60575327D01*
X172804723Y-60575331D01*
X172733538Y-60681866D01*
X172733533Y-60681875D01*
X172684499Y-60800255D01*
X172684497Y-60800261D01*
X172659500Y-60925928D01*
X172659500Y-60925931D01*
X172659500Y-61054069D01*
X172659500Y-61054071D01*
X172659499Y-61054071D01*
X172684497Y-61179738D01*
X172684499Y-61179744D01*
X172733533Y-61298124D01*
X172733538Y-61298133D01*
X172804723Y-61404668D01*
X172804726Y-61404672D01*
X172895327Y-61495273D01*
X172895331Y-61495276D01*
X173001866Y-61566461D01*
X173001872Y-61566464D01*
X173001873Y-61566465D01*
X173120256Y-61615501D01*
X173120260Y-61615501D01*
X173120261Y-61615502D01*
X173245928Y-61640500D01*
X173245931Y-61640500D01*
X173374071Y-61640500D01*
X173458615Y-61623682D01*
X173499744Y-61615501D01*
X173618127Y-61566465D01*
X173724669Y-61495276D01*
X173815276Y-61404669D01*
X173886465Y-61298127D01*
X173935501Y-61179744D01*
X173945965Y-61127140D01*
X173960500Y-61054071D01*
X173960500Y-60925928D01*
X173935502Y-60800261D01*
X173935501Y-60800260D01*
X173935501Y-60800256D01*
X173886465Y-60681873D01*
X173886464Y-60681872D01*
X173886461Y-60681866D01*
X173815276Y-60575331D01*
X173815273Y-60575327D01*
X173767627Y-60527681D01*
X173763288Y-60519735D01*
X173756041Y-60514310D01*
X173746806Y-60489550D01*
X173734142Y-60466358D01*
X173734787Y-60457328D01*
X173731624Y-60448846D01*
X173737240Y-60423025D01*
X173739126Y-60396666D01*
X173744944Y-60387612D01*
X173746476Y-60380573D01*
X173767627Y-60352319D01*
X173772319Y-60347627D01*
X173833642Y-60314142D01*
X173903334Y-60319126D01*
X173947681Y-60347627D01*
X173995327Y-60395273D01*
X173995331Y-60395276D01*
X174101866Y-60466461D01*
X174101872Y-60466464D01*
X174101873Y-60466465D01*
X174220256Y-60515501D01*
X174220260Y-60515501D01*
X174220261Y-60515502D01*
X174345928Y-60540500D01*
X174345931Y-60540500D01*
X174474071Y-60540500D01*
X174558615Y-60523682D01*
X174599744Y-60515501D01*
X174718127Y-60466465D01*
X174824669Y-60395276D01*
X174915276Y-60304669D01*
X174986465Y-60198127D01*
X175035501Y-60079744D01*
X175060500Y-59954069D01*
X175060500Y-59825931D01*
X175060500Y-59825928D01*
X175035502Y-59700261D01*
X175035501Y-59700260D01*
X175035501Y-59700256D01*
X174986465Y-59581873D01*
X174986464Y-59581872D01*
X174986461Y-59581866D01*
X174915276Y-59475331D01*
X174915273Y-59475327D01*
X174824672Y-59384726D01*
X174824668Y-59384723D01*
X174718133Y-59313538D01*
X174718124Y-59313533D01*
X174599744Y-59264499D01*
X174599738Y-59264497D01*
X174474071Y-59239500D01*
X174474069Y-59239500D01*
X174345931Y-59239500D01*
X174345929Y-59239500D01*
X174220261Y-59264497D01*
X174220255Y-59264499D01*
X174101875Y-59313533D01*
X174101866Y-59313538D01*
X173995331Y-59384723D01*
X173995327Y-59384726D01*
X173947681Y-59432373D01*
X173939735Y-59436711D01*
X173934310Y-59443959D01*
X173909550Y-59453193D01*
X173886358Y-59465858D01*
X173877328Y-59465212D01*
X173868846Y-59468376D01*
X173843025Y-59462759D01*
X173816666Y-59460874D01*
X173807612Y-59455055D01*
X173800573Y-59453524D01*
X173772319Y-59432373D01*
X173767627Y-59427681D01*
X173734142Y-59366358D01*
X173739126Y-59296666D01*
X173767627Y-59252319D01*
X173815273Y-59204672D01*
X173815276Y-59204669D01*
X173886465Y-59098127D01*
X173935501Y-58979744D01*
X173949609Y-58908820D01*
X173960500Y-58854071D01*
X173960500Y-58725928D01*
X173935502Y-58600261D01*
X173935501Y-58600260D01*
X173935501Y-58600256D01*
X173886465Y-58481873D01*
X173886464Y-58481872D01*
X173886461Y-58481866D01*
X173815276Y-58375331D01*
X173815273Y-58375327D01*
X173724672Y-58284726D01*
X173724668Y-58284723D01*
X173618133Y-58213538D01*
X173618124Y-58213533D01*
X173499744Y-58164499D01*
X173499738Y-58164497D01*
X173374071Y-58139500D01*
X173374069Y-58139500D01*
X173245931Y-58139500D01*
X173245929Y-58139500D01*
X173120261Y-58164497D01*
X173120255Y-58164499D01*
X173001875Y-58213533D01*
X173001866Y-58213538D01*
X172895331Y-58284723D01*
X172895327Y-58284726D01*
X172804726Y-58375327D01*
X172804723Y-58375331D01*
X172733538Y-58481866D01*
X172733533Y-58481875D01*
X172684499Y-58600255D01*
X172684497Y-58600261D01*
X172659500Y-58725928D01*
X172659500Y-58725931D01*
X172659500Y-58854069D01*
X172659500Y-58854071D01*
X172659499Y-58854071D01*
X172684497Y-58979738D01*
X172684499Y-58979744D01*
X172733533Y-59098124D01*
X172733538Y-59098133D01*
X172804723Y-59204668D01*
X172804726Y-59204672D01*
X172852373Y-59252319D01*
X172856711Y-59260264D01*
X172863959Y-59265690D01*
X172873193Y-59290449D01*
X172885858Y-59313642D01*
X172885212Y-59322671D01*
X172888376Y-59331154D01*
X172882759Y-59356974D01*
X172880874Y-59383334D01*
X172875055Y-59392387D01*
X172873524Y-59399427D01*
X172852373Y-59427681D01*
X172847681Y-59432373D01*
X172786358Y-59465858D01*
X172716666Y-59460874D01*
X172672319Y-59432373D01*
X172624672Y-59384726D01*
X172624668Y-59384723D01*
X172518133Y-59313538D01*
X172518124Y-59313533D01*
X172399744Y-59264499D01*
X172399738Y-59264497D01*
X172274071Y-59239500D01*
X172274069Y-59239500D01*
X172145931Y-59239500D01*
X172145929Y-59239500D01*
X172020261Y-59264497D01*
X172020255Y-59264499D01*
X171901875Y-59313533D01*
X171901866Y-59313538D01*
X171795331Y-59384723D01*
X171795327Y-59384726D01*
X171704726Y-59475327D01*
X171704723Y-59475331D01*
X171633538Y-59581866D01*
X171633533Y-59581875D01*
X171584499Y-59700255D01*
X171584497Y-59700261D01*
X171559500Y-59825928D01*
X171559500Y-59825931D01*
X171559500Y-59954069D01*
X171559500Y-59954071D01*
X171559499Y-59954071D01*
X167080773Y-59954071D01*
X167041061Y-59876134D01*
X167041060Y-59876132D01*
X167038904Y-59871901D01*
X167032449Y-59859231D01*
X167021788Y-59838307D01*
X166985344Y-59788146D01*
X166904981Y-59677536D01*
X166764464Y-59537019D01*
X166603694Y-59420213D01*
X166446667Y-59340203D01*
X166395872Y-59292229D01*
X166379077Y-59224408D01*
X166401614Y-59158273D01*
X166446668Y-59119234D01*
X166603432Y-59039358D01*
X166764139Y-58922596D01*
X166764140Y-58922596D01*
X166904596Y-58782140D01*
X166904596Y-58782139D01*
X167021358Y-58621432D01*
X167111543Y-58444435D01*
X167172925Y-58255517D01*
X167180134Y-58210000D01*
X165622251Y-58210000D01*
X165653381Y-58156081D01*
X165688000Y-58026880D01*
X165688000Y-57893120D01*
X165653381Y-57763919D01*
X165622251Y-57710000D01*
X167180135Y-57710000D01*
X167180134Y-57709999D01*
X167172925Y-57664482D01*
X167111543Y-57475564D01*
X167021358Y-57298567D01*
X166904596Y-57137860D01*
X166904596Y-57137859D01*
X166764140Y-56997403D01*
X166603432Y-56880641D01*
X166446668Y-56800765D01*
X166395872Y-56752790D01*
X166379077Y-56684969D01*
X166401615Y-56618834D01*
X166446667Y-56579796D01*
X166603694Y-56499787D01*
X166764464Y-56382981D01*
X166904981Y-56242464D01*
X167021787Y-56081694D01*
X167112005Y-55904632D01*
X167173413Y-55715636D01*
X167204500Y-55519361D01*
X167204500Y-55320639D01*
X180935500Y-55320639D01*
X180935500Y-55519361D01*
X180943175Y-55567816D01*
X180966587Y-55715637D01*
X181027993Y-55904629D01*
X181027994Y-55904632D01*
X181075486Y-55997838D01*
X181118213Y-56081694D01*
X181235019Y-56242464D01*
X181375536Y-56382981D01*
X181536306Y-56499787D01*
X181610983Y-56537837D01*
X181692780Y-56579515D01*
X181743576Y-56627490D01*
X181760371Y-56695311D01*
X181737833Y-56761446D01*
X181692780Y-56800485D01*
X181536305Y-56880213D01*
X181375533Y-56997021D01*
X181235021Y-57137533D01*
X181118213Y-57298305D01*
X181027994Y-57475367D01*
X181027993Y-57475370D01*
X180966587Y-57664362D01*
X180945899Y-57794981D01*
X180935500Y-57860639D01*
X180935500Y-58059361D01*
X180946630Y-58129632D01*
X180966587Y-58255637D01*
X181027993Y-58444629D01*
X181027994Y-58444632D01*
X181102137Y-58590143D01*
X181118213Y-58621694D01*
X181235019Y-58782464D01*
X181375536Y-58922981D01*
X181536306Y-59039787D01*
X181650798Y-59098124D01*
X181692780Y-59119515D01*
X181743576Y-59167490D01*
X181760371Y-59235311D01*
X181737833Y-59301446D01*
X181692780Y-59340485D01*
X181536305Y-59420213D01*
X181375533Y-59537021D01*
X181235021Y-59677533D01*
X181118213Y-59838305D01*
X181027994Y-60015367D01*
X181027993Y-60015370D01*
X180966587Y-60204362D01*
X180943896Y-60347627D01*
X180935500Y-60400639D01*
X180935500Y-60599361D01*
X180948568Y-60681866D01*
X180966587Y-60795637D01*
X181027993Y-60984629D01*
X181027994Y-60984632D01*
X181108139Y-61141923D01*
X181118213Y-61161694D01*
X181235019Y-61322464D01*
X181375536Y-61462981D01*
X181536306Y-61579787D01*
X181650700Y-61638074D01*
X181692780Y-61659515D01*
X181743576Y-61707490D01*
X181760371Y-61775311D01*
X181737833Y-61841446D01*
X181692780Y-61880485D01*
X181536305Y-61960213D01*
X181375533Y-62077021D01*
X181235021Y-62217533D01*
X181118213Y-62378305D01*
X181027994Y-62555367D01*
X181027993Y-62555370D01*
X180966587Y-62744362D01*
X180935500Y-62940639D01*
X180935500Y-63139360D01*
X180966587Y-63335637D01*
X181027993Y-63524629D01*
X181027994Y-63524632D01*
X181110563Y-63686681D01*
X181118213Y-63701694D01*
X181235019Y-63862464D01*
X181375536Y-64002981D01*
X181536306Y-64119787D01*
X181623149Y-64164035D01*
X181713367Y-64210005D01*
X181713370Y-64210006D01*
X181807866Y-64240709D01*
X181902364Y-64271413D01*
X182098639Y-64302500D01*
X182098640Y-64302500D01*
X183821360Y-64302500D01*
X183821361Y-64302500D01*
X184017636Y-64271413D01*
X184206632Y-64210005D01*
X184383694Y-64119787D01*
X184544464Y-64002981D01*
X184684981Y-63862464D01*
X184801787Y-63701694D01*
X184892005Y-63524632D01*
X184953413Y-63335636D01*
X184984500Y-63139361D01*
X184984500Y-62940639D01*
X184953413Y-62744364D01*
X184892005Y-62555368D01*
X184892005Y-62555367D01*
X184846035Y-62465149D01*
X184801787Y-62378306D01*
X184684981Y-62217536D01*
X184544464Y-62077019D01*
X184383694Y-61960213D01*
X184227218Y-61880484D01*
X184176423Y-61832510D01*
X184159628Y-61764689D01*
X184182165Y-61698554D01*
X184227218Y-61659515D01*
X184383694Y-61579787D01*
X184544464Y-61462981D01*
X184684981Y-61322464D01*
X184801787Y-61161694D01*
X184892005Y-60984632D01*
X184953413Y-60795636D01*
X184984500Y-60599361D01*
X184984500Y-60400639D01*
X184953413Y-60204364D01*
X184922709Y-60109866D01*
X184892006Y-60015370D01*
X184892005Y-60015367D01*
X184821060Y-59876132D01*
X184801787Y-59838306D01*
X184684981Y-59677536D01*
X184544464Y-59537019D01*
X184383694Y-59420213D01*
X184227218Y-59340484D01*
X184176423Y-59292510D01*
X184159628Y-59224689D01*
X184182165Y-59158554D01*
X184227218Y-59119515D01*
X184383694Y-59039787D01*
X184544464Y-58922981D01*
X184684981Y-58782464D01*
X184801787Y-58621694D01*
X184892005Y-58444632D01*
X184953413Y-58255636D01*
X184984500Y-58059361D01*
X184984500Y-57860639D01*
X184953413Y-57664364D01*
X184911781Y-57536232D01*
X184892006Y-57475370D01*
X184892005Y-57475367D01*
X184834199Y-57361918D01*
X184801787Y-57298306D01*
X184684981Y-57137536D01*
X184544464Y-56997019D01*
X184383694Y-56880213D01*
X184227218Y-56800484D01*
X184176423Y-56752510D01*
X184159628Y-56684689D01*
X184182165Y-56618554D01*
X184227218Y-56579515D01*
X184383694Y-56499787D01*
X184544464Y-56382981D01*
X184684981Y-56242464D01*
X184801787Y-56081694D01*
X184892005Y-55904632D01*
X184953413Y-55715636D01*
X184984500Y-55519361D01*
X184984500Y-55320639D01*
X184953413Y-55124364D01*
X184892005Y-54935368D01*
X184892005Y-54935367D01*
X184801786Y-54758305D01*
X184684981Y-54597536D01*
X184544464Y-54457019D01*
X184383694Y-54340213D01*
X184206632Y-54249994D01*
X184206629Y-54249993D01*
X184017637Y-54188587D01*
X183919498Y-54173043D01*
X183821361Y-54157500D01*
X182098639Y-54157500D01*
X182033214Y-54167862D01*
X181902362Y-54188587D01*
X181713370Y-54249993D01*
X181713367Y-54249994D01*
X181536305Y-54340213D01*
X181375533Y-54457021D01*
X181235021Y-54597533D01*
X181118213Y-54758305D01*
X181027994Y-54935367D01*
X181027993Y-54935370D01*
X180966587Y-55124362D01*
X180957999Y-55178587D01*
X180935500Y-55320639D01*
X167204500Y-55320639D01*
X167173413Y-55124364D01*
X167112005Y-54935368D01*
X167112005Y-54935367D01*
X167021786Y-54758305D01*
X166904981Y-54597536D01*
X166764464Y-54457019D01*
X166603694Y-54340213D01*
X166447218Y-54260484D01*
X166396423Y-54212510D01*
X166379628Y-54144689D01*
X166402165Y-54078554D01*
X166447218Y-54039515D01*
X166603694Y-53959787D01*
X166764464Y-53842981D01*
X166904981Y-53702464D01*
X167021787Y-53541694D01*
X167112005Y-53364632D01*
X167173413Y-53175636D01*
X167204500Y-52979361D01*
X167204500Y-52780639D01*
X167173413Y-52584364D01*
X167112005Y-52395368D01*
X167112005Y-52395367D01*
X167021786Y-52218305D01*
X166904981Y-52057536D01*
X166764464Y-51917019D01*
X166603694Y-51800213D01*
X166426632Y-51709994D01*
X166426629Y-51709993D01*
X166237637Y-51648587D01*
X166139498Y-51633043D01*
X166041361Y-51617500D01*
X164318639Y-51617500D01*
X164253214Y-51627862D01*
X164122362Y-51648587D01*
X163933370Y-51709993D01*
X163933367Y-51709994D01*
X163756305Y-51800213D01*
X163595533Y-51917021D01*
X163455021Y-52057533D01*
X163338213Y-52218305D01*
X163247994Y-52395367D01*
X163247993Y-52395370D01*
X163186587Y-52584362D01*
X163155500Y-52780639D01*
X150649012Y-52780639D01*
X150580963Y-52712590D01*
X150534886Y-52681803D01*
X150478186Y-52643917D01*
X150478182Y-52643915D01*
X150478180Y-52643914D01*
X150478181Y-52643914D01*
X150444738Y-52630062D01*
X150363988Y-52596614D01*
X150363980Y-52596612D01*
X150242760Y-52572500D01*
X150242756Y-52572500D01*
X133934281Y-52572500D01*
X133867242Y-52552815D01*
X133821487Y-52500011D01*
X133811543Y-52430853D01*
X133840568Y-52367297D01*
X133846600Y-52360819D01*
X134589919Y-51617500D01*
X137313347Y-48894070D01*
X137374668Y-48860587D01*
X137439342Y-48863821D01*
X137474625Y-48875286D01*
X137582634Y-48892393D01*
X137690639Y-48909500D01*
X137690644Y-48909500D01*
X137909361Y-48909500D01*
X138014082Y-48892912D01*
X138125375Y-48875286D01*
X138333383Y-48807701D01*
X138528257Y-48708407D01*
X138627601Y-48636229D01*
X138705193Y-48579857D01*
X138705195Y-48579854D01*
X138705199Y-48579852D01*
X138859852Y-48425199D01*
X138969683Y-48274028D01*
X139025011Y-48231364D01*
X139094624Y-48225385D01*
X139156420Y-48257990D01*
X139170313Y-48274023D01*
X139279906Y-48424866D01*
X139280148Y-48425199D01*
X139434806Y-48579857D01*
X139600374Y-48700147D01*
X139611743Y-48708407D01*
X139739132Y-48773315D01*
X139806616Y-48807701D01*
X139806619Y-48807702D01*
X139907074Y-48840341D01*
X140014625Y-48875286D01*
X140114672Y-48891132D01*
X140230639Y-48909500D01*
X140230644Y-48909500D01*
X140449361Y-48909500D01*
X140554082Y-48892912D01*
X140665375Y-48875286D01*
X140873383Y-48807701D01*
X141068257Y-48708407D01*
X141167601Y-48636229D01*
X141245193Y-48579857D01*
X141245195Y-48579854D01*
X141245199Y-48579852D01*
X141399852Y-48425199D01*
X141509683Y-48274028D01*
X141565011Y-48231364D01*
X141634624Y-48225385D01*
X141696420Y-48257990D01*
X141710313Y-48274023D01*
X141819906Y-48424866D01*
X141820148Y-48425199D01*
X141974806Y-48579857D01*
X142140374Y-48700147D01*
X142151743Y-48708407D01*
X142279132Y-48773315D01*
X142346616Y-48807701D01*
X142346619Y-48807702D01*
X142447074Y-48840341D01*
X142554625Y-48875286D01*
X142654672Y-48891132D01*
X142770639Y-48909500D01*
X142770644Y-48909500D01*
X142989361Y-48909500D01*
X143094082Y-48892912D01*
X143205375Y-48875286D01*
X143413383Y-48807701D01*
X143608257Y-48708407D01*
X143707601Y-48636229D01*
X143785193Y-48579857D01*
X143785195Y-48579854D01*
X143785199Y-48579852D01*
X143939852Y-48425199D01*
X144049683Y-48274028D01*
X144105011Y-48231364D01*
X144174624Y-48225385D01*
X144236420Y-48257990D01*
X144250313Y-48274023D01*
X144359906Y-48424866D01*
X144360148Y-48425199D01*
X144514806Y-48579857D01*
X144680374Y-48700147D01*
X144691743Y-48708407D01*
X144819132Y-48773315D01*
X144886616Y-48807701D01*
X144886619Y-48807702D01*
X144987074Y-48840341D01*
X145094625Y-48875286D01*
X145194672Y-48891132D01*
X145310639Y-48909500D01*
X145310644Y-48909500D01*
X145529361Y-48909500D01*
X145634082Y-48892912D01*
X145745375Y-48875286D01*
X145953383Y-48807701D01*
X146148257Y-48708407D01*
X146247601Y-48636229D01*
X146325193Y-48579857D01*
X146325195Y-48579854D01*
X146325199Y-48579852D01*
X146479852Y-48425199D01*
X146589683Y-48274028D01*
X146645011Y-48231364D01*
X146714624Y-48225385D01*
X146776420Y-48257990D01*
X146790313Y-48274023D01*
X146899906Y-48424866D01*
X146900148Y-48425199D01*
X147054806Y-48579857D01*
X147220374Y-48700147D01*
X147231743Y-48708407D01*
X147359132Y-48773315D01*
X147426616Y-48807701D01*
X147426619Y-48807702D01*
X147527074Y-48840341D01*
X147634625Y-48875286D01*
X147734672Y-48891132D01*
X147850639Y-48909500D01*
X147850644Y-48909500D01*
X148069361Y-48909500D01*
X148174082Y-48892912D01*
X148285375Y-48875286D01*
X148493383Y-48807701D01*
X148688257Y-48708407D01*
X148787601Y-48636229D01*
X148865193Y-48579857D01*
X148865195Y-48579854D01*
X148865199Y-48579852D01*
X149019852Y-48425199D01*
X149129991Y-48273603D01*
X149185320Y-48230939D01*
X149254933Y-48224960D01*
X149316729Y-48257565D01*
X149330627Y-48273605D01*
X149440524Y-48424866D01*
X149440528Y-48424871D01*
X149595128Y-48579471D01*
X149595133Y-48579475D01*
X149772001Y-48707976D01*
X149966808Y-48807237D01*
X149966811Y-48807238D01*
X150174739Y-48874797D01*
X150249999Y-48886717D01*
X150250000Y-48886717D01*
X150250000Y-47953012D01*
X150307007Y-47985925D01*
X150434174Y-48020000D01*
X150565826Y-48020000D01*
X150692993Y-47985925D01*
X150750000Y-47953012D01*
X150750000Y-48886717D01*
X150825258Y-48874797D01*
X150825261Y-48874797D01*
X151033188Y-48807238D01*
X151033191Y-48807237D01*
X151227998Y-48707976D01*
X151404866Y-48579475D01*
X151404871Y-48579471D01*
X151559471Y-48424871D01*
X151559475Y-48424866D01*
X151687976Y-48247998D01*
X151787237Y-48053191D01*
X151787238Y-48053188D01*
X151854798Y-47845258D01*
X151866718Y-47770000D01*
X150933012Y-47770000D01*
X150965925Y-47712993D01*
X151000000Y-47585826D01*
X151000000Y-47454174D01*
X150965925Y-47327007D01*
X150933012Y-47270000D01*
X151866718Y-47270000D01*
X151854798Y-47194741D01*
X151787238Y-46986811D01*
X151787237Y-46986808D01*
X151687976Y-46792001D01*
X151559475Y-46615133D01*
X151559471Y-46615128D01*
X151404871Y-46460528D01*
X151404866Y-46460524D01*
X151253605Y-46350627D01*
X151210939Y-46295297D01*
X151204960Y-46225684D01*
X151212730Y-46210958D01*
X162800000Y-46210958D01*
X162839387Y-46408974D01*
X162839390Y-46408983D01*
X162916652Y-46595513D01*
X162916659Y-46595526D01*
X163028829Y-46763399D01*
X163028832Y-46763403D01*
X163171596Y-46906167D01*
X163171600Y-46906170D01*
X163339473Y-47018340D01*
X163339486Y-47018347D01*
X163526016Y-47095609D01*
X163526025Y-47095612D01*
X163575000Y-47105353D01*
X163575000Y-47105352D01*
X164075000Y-47105352D01*
X164123974Y-47095612D01*
X164123983Y-47095609D01*
X164310513Y-47018347D01*
X164310526Y-47018340D01*
X164478399Y-46906170D01*
X164478403Y-46906167D01*
X164621167Y-46763403D01*
X164621170Y-46763399D01*
X164733340Y-46595526D01*
X164733347Y-46595513D01*
X164810609Y-46408983D01*
X164810612Y-46408974D01*
X164849999Y-46210958D01*
X169950000Y-46210958D01*
X169989387Y-46408974D01*
X169989390Y-46408983D01*
X170066652Y-46595513D01*
X170066659Y-46595526D01*
X170178829Y-46763399D01*
X170178832Y-46763403D01*
X170321596Y-46906167D01*
X170321600Y-46906170D01*
X170489473Y-47018340D01*
X170489486Y-47018347D01*
X170676016Y-47095609D01*
X170676025Y-47095612D01*
X170725000Y-47105353D01*
X170725000Y-47105352D01*
X171225000Y-47105352D01*
X171273974Y-47095612D01*
X171273983Y-47095609D01*
X171460513Y-47018347D01*
X171460526Y-47018340D01*
X171628399Y-46906170D01*
X171628403Y-46906167D01*
X171771167Y-46763403D01*
X171771170Y-46763399D01*
X171883340Y-46595526D01*
X171883347Y-46595513D01*
X171960609Y-46408983D01*
X171960612Y-46408974D01*
X171999999Y-46210958D01*
X172000000Y-46210955D01*
X172000000Y-45960000D01*
X171225000Y-45960000D01*
X171225000Y-47105352D01*
X170725000Y-47105352D01*
X170725000Y-45960000D01*
X169950000Y-45960000D01*
X169950000Y-46210958D01*
X164849999Y-46210958D01*
X164850000Y-46210955D01*
X164850000Y-45960000D01*
X164075000Y-45960000D01*
X164075000Y-47105352D01*
X163575000Y-47105352D01*
X163575000Y-45960000D01*
X162800000Y-45960000D01*
X162800000Y-46210958D01*
X151212730Y-46210958D01*
X151237565Y-46163889D01*
X151253599Y-46149994D01*
X151405199Y-46039852D01*
X151559852Y-45885199D01*
X151688407Y-45708257D01*
X151787701Y-45513383D01*
X151855286Y-45305375D01*
X151861642Y-45265245D01*
X151870544Y-45209041D01*
X162800000Y-45209041D01*
X162800000Y-45460000D01*
X163575000Y-45460000D01*
X163575000Y-45265245D01*
X163600000Y-45265245D01*
X163600000Y-46154755D01*
X163634254Y-46237452D01*
X163697548Y-46300746D01*
X163780245Y-46335000D01*
X163869755Y-46335000D01*
X163952452Y-46300746D01*
X164015746Y-46237452D01*
X164050000Y-46154755D01*
X164050000Y-45460000D01*
X164075000Y-45460000D01*
X164850000Y-45460000D01*
X164850000Y-45209045D01*
X164849999Y-45209041D01*
X169950000Y-45209041D01*
X169950000Y-45460000D01*
X170725000Y-45460000D01*
X170725000Y-45265245D01*
X170750000Y-45265245D01*
X170750000Y-46154755D01*
X170784254Y-46237452D01*
X170847548Y-46300746D01*
X170930245Y-46335000D01*
X171019755Y-46335000D01*
X171102452Y-46300746D01*
X171165746Y-46237452D01*
X171200000Y-46154755D01*
X171200000Y-45460000D01*
X171225000Y-45460000D01*
X172000000Y-45460000D01*
X172000000Y-45209045D01*
X171999999Y-45209041D01*
X171960612Y-45011025D01*
X171960609Y-45011016D01*
X171883347Y-44824486D01*
X171883340Y-44824473D01*
X171771170Y-44656600D01*
X171771167Y-44656596D01*
X171628403Y-44513832D01*
X171628399Y-44513829D01*
X171460526Y-44401659D01*
X171460513Y-44401652D01*
X171273984Y-44324390D01*
X171273977Y-44324388D01*
X171225000Y-44314645D01*
X171225000Y-45460000D01*
X171200000Y-45460000D01*
X171200000Y-45265245D01*
X171165746Y-45182548D01*
X171102452Y-45119254D01*
X171019755Y-45085000D01*
X170930245Y-45085000D01*
X170847548Y-45119254D01*
X170784254Y-45182548D01*
X170750000Y-45265245D01*
X170725000Y-45265245D01*
X170725000Y-44314646D01*
X170724999Y-44314645D01*
X170676022Y-44324388D01*
X170676015Y-44324390D01*
X170489486Y-44401652D01*
X170489473Y-44401659D01*
X170321600Y-44513829D01*
X170321596Y-44513832D01*
X170178832Y-44656596D01*
X170178829Y-44656600D01*
X170066659Y-44824473D01*
X170066652Y-44824486D01*
X169989390Y-45011016D01*
X169989387Y-45011025D01*
X169950000Y-45209041D01*
X164849999Y-45209041D01*
X164810612Y-45011025D01*
X164810609Y-45011016D01*
X164733347Y-44824486D01*
X164733340Y-44824473D01*
X164621170Y-44656600D01*
X164621167Y-44656596D01*
X164478403Y-44513832D01*
X164478399Y-44513829D01*
X164310526Y-44401659D01*
X164310513Y-44401652D01*
X164123984Y-44324390D01*
X164123977Y-44324388D01*
X164075000Y-44314645D01*
X164075000Y-45460000D01*
X164050000Y-45460000D01*
X164050000Y-45265245D01*
X164015746Y-45182548D01*
X163952452Y-45119254D01*
X163869755Y-45085000D01*
X163780245Y-45085000D01*
X163697548Y-45119254D01*
X163634254Y-45182548D01*
X163600000Y-45265245D01*
X163575000Y-45265245D01*
X163575000Y-44314646D01*
X163574999Y-44314645D01*
X163526022Y-44324388D01*
X163526015Y-44324390D01*
X163339486Y-44401652D01*
X163339473Y-44401659D01*
X163171600Y-44513829D01*
X163171596Y-44513832D01*
X163028832Y-44656596D01*
X163028829Y-44656600D01*
X162916659Y-44824473D01*
X162916652Y-44824486D01*
X162839390Y-45011016D01*
X162839387Y-45011025D01*
X162800000Y-45209041D01*
X151870544Y-45209041D01*
X151874581Y-45183556D01*
X151889500Y-45089361D01*
X151889500Y-44870638D01*
X151858195Y-44672993D01*
X151855286Y-44654625D01*
X151787701Y-44446617D01*
X151787701Y-44446616D01*
X151753315Y-44379132D01*
X151688407Y-44251743D01*
X151669681Y-44225969D01*
X151559857Y-44074806D01*
X151405193Y-43920142D01*
X151228260Y-43791595D01*
X151228259Y-43791594D01*
X151228257Y-43791593D01*
X151165825Y-43759782D01*
X151033383Y-43692298D01*
X151033380Y-43692297D01*
X150825376Y-43624714D01*
X150609361Y-43590500D01*
X150609356Y-43590500D01*
X150390644Y-43590500D01*
X150390639Y-43590500D01*
X150174623Y-43624714D01*
X149966619Y-43692297D01*
X149966616Y-43692298D01*
X149771739Y-43791595D01*
X149594806Y-43920142D01*
X149440142Y-44074806D01*
X149330318Y-44225969D01*
X149274989Y-44268635D01*
X149205375Y-44274614D01*
X149143580Y-44242009D01*
X149129682Y-44225969D01*
X149019857Y-44074806D01*
X148865193Y-43920142D01*
X148688260Y-43791595D01*
X148688259Y-43791594D01*
X148688257Y-43791593D01*
X148625825Y-43759782D01*
X148493383Y-43692298D01*
X148493380Y-43692297D01*
X148285376Y-43624714D01*
X148069361Y-43590500D01*
X148069356Y-43590500D01*
X147850644Y-43590500D01*
X147850639Y-43590500D01*
X147634623Y-43624714D01*
X147426619Y-43692297D01*
X147426616Y-43692298D01*
X147231739Y-43791595D01*
X147054806Y-43920142D01*
X146900142Y-44074806D01*
X146790318Y-44225969D01*
X146734989Y-44268635D01*
X146665375Y-44274614D01*
X146603580Y-44242009D01*
X146589682Y-44225969D01*
X146479857Y-44074806D01*
X146325193Y-43920142D01*
X146148260Y-43791595D01*
X146148259Y-43791594D01*
X146148257Y-43791593D01*
X146085825Y-43759782D01*
X145953383Y-43692298D01*
X145953380Y-43692297D01*
X145745376Y-43624714D01*
X145529361Y-43590500D01*
X145529356Y-43590500D01*
X145310644Y-43590500D01*
X145310639Y-43590500D01*
X145094623Y-43624714D01*
X144886619Y-43692297D01*
X144886616Y-43692298D01*
X144691739Y-43791595D01*
X144514806Y-43920142D01*
X144360146Y-44074802D01*
X144360142Y-44074807D01*
X144250008Y-44226394D01*
X144194678Y-44269060D01*
X144125065Y-44275039D01*
X144063270Y-44242433D01*
X144049372Y-44226394D01*
X143939475Y-44075133D01*
X143939471Y-44075128D01*
X143784871Y-43920528D01*
X143784866Y-43920524D01*
X143607998Y-43792023D01*
X143413191Y-43692762D01*
X143413188Y-43692761D01*
X143205258Y-43625201D01*
X143130000Y-43613281D01*
X143130000Y-44546988D01*
X143072993Y-44514075D01*
X142945826Y-44480000D01*
X142814174Y-44480000D01*
X142687007Y-44514075D01*
X142630000Y-44546988D01*
X142630000Y-43613281D01*
X142554741Y-43625201D01*
X142346811Y-43692761D01*
X142346808Y-43692762D01*
X142152001Y-43792023D01*
X141975133Y-43920524D01*
X141975128Y-43920528D01*
X141820528Y-44075128D01*
X141820524Y-44075133D01*
X141710627Y-44226394D01*
X141655297Y-44269060D01*
X141585684Y-44275039D01*
X141523889Y-44242433D01*
X141509991Y-44226394D01*
X141399857Y-44074807D01*
X141399853Y-44074802D01*
X141245193Y-43920142D01*
X141068260Y-43791595D01*
X141068259Y-43791594D01*
X141068257Y-43791593D01*
X141005825Y-43759782D01*
X140873383Y-43692298D01*
X140873380Y-43692297D01*
X140665376Y-43624714D01*
X140449361Y-43590500D01*
X140449356Y-43590500D01*
X140230644Y-43590500D01*
X140230639Y-43590500D01*
X140014623Y-43624714D01*
X139806619Y-43692297D01*
X139806616Y-43692298D01*
X139611739Y-43791595D01*
X139434806Y-43920142D01*
X139280146Y-44074802D01*
X139280142Y-44074807D01*
X139170008Y-44226394D01*
X139114678Y-44269060D01*
X139045065Y-44275039D01*
X138983270Y-44242433D01*
X138969372Y-44226394D01*
X138859475Y-44075133D01*
X138859471Y-44075128D01*
X138704871Y-43920528D01*
X138704866Y-43920524D01*
X138527998Y-43792023D01*
X138333191Y-43692762D01*
X138333188Y-43692761D01*
X138125258Y-43625201D01*
X138050000Y-43613281D01*
X138050000Y-44546988D01*
X137992993Y-44514075D01*
X137865826Y-44480000D01*
X137734174Y-44480000D01*
X137607007Y-44514075D01*
X137550000Y-44546988D01*
X137550000Y-43613281D01*
X137474741Y-43625201D01*
X137266811Y-43692761D01*
X137266808Y-43692762D01*
X137072001Y-43792023D01*
X136895133Y-43920524D01*
X136895128Y-43920528D01*
X136740528Y-44075128D01*
X136740524Y-44075133D01*
X136630627Y-44226394D01*
X136575297Y-44269060D01*
X136505684Y-44275039D01*
X136443889Y-44242433D01*
X136429991Y-44226394D01*
X136319857Y-44074807D01*
X136319853Y-44074802D01*
X136165193Y-43920142D01*
X135988260Y-43791595D01*
X135988259Y-43791594D01*
X135988257Y-43791593D01*
X135925825Y-43759782D01*
X135793383Y-43692298D01*
X135793380Y-43692297D01*
X135585376Y-43624714D01*
X135369361Y-43590500D01*
X135369356Y-43590500D01*
X135150644Y-43590500D01*
X135150639Y-43590500D01*
X134934623Y-43624714D01*
X134726619Y-43692297D01*
X134726616Y-43692298D01*
X134531739Y-43791595D01*
X134354806Y-43920142D01*
X134200142Y-44074806D01*
X134090318Y-44225969D01*
X134034989Y-44268635D01*
X133965375Y-44274614D01*
X133903580Y-44242009D01*
X133889682Y-44225969D01*
X133779857Y-44074806D01*
X133625193Y-43920142D01*
X133448260Y-43791595D01*
X133448259Y-43791594D01*
X133448257Y-43791593D01*
X133385825Y-43759782D01*
X133253383Y-43692298D01*
X133253380Y-43692297D01*
X133045376Y-43624714D01*
X132829361Y-43590500D01*
X132829356Y-43590500D01*
X132610644Y-43590500D01*
X132610639Y-43590500D01*
X132394623Y-43624714D01*
X132186619Y-43692297D01*
X132186616Y-43692298D01*
X131991739Y-43791595D01*
X131814806Y-43920142D01*
X131660142Y-44074806D01*
X131550318Y-44225969D01*
X131494989Y-44268635D01*
X131425375Y-44274614D01*
X131363580Y-44242009D01*
X131349682Y-44225969D01*
X131239857Y-44074806D01*
X131085193Y-43920142D01*
X130908260Y-43791595D01*
X130908259Y-43791594D01*
X130908257Y-43791593D01*
X130845825Y-43759782D01*
X130713383Y-43692298D01*
X130713380Y-43692297D01*
X130505376Y-43624714D01*
X130289361Y-43590500D01*
X130289356Y-43590500D01*
X130070644Y-43590500D01*
X130070639Y-43590500D01*
X129854623Y-43624714D01*
X129646619Y-43692297D01*
X129646616Y-43692298D01*
X129451739Y-43791595D01*
X129274806Y-43920142D01*
X129120142Y-44074806D01*
X129010318Y-44225969D01*
X128954989Y-44268635D01*
X128885375Y-44274614D01*
X128823580Y-44242009D01*
X128809682Y-44225969D01*
X128699857Y-44074806D01*
X128545193Y-43920142D01*
X128368260Y-43791595D01*
X128368259Y-43791594D01*
X128368257Y-43791593D01*
X128305825Y-43759782D01*
X128173383Y-43692298D01*
X128173380Y-43692297D01*
X127965376Y-43624714D01*
X127749361Y-43590500D01*
X127749356Y-43590500D01*
X127530644Y-43590500D01*
X127530639Y-43590500D01*
X127314623Y-43624714D01*
X127106619Y-43692297D01*
X127106616Y-43692298D01*
X126911739Y-43791595D01*
X126734806Y-43920142D01*
X126580146Y-44074802D01*
X126580142Y-44074807D01*
X126470008Y-44226394D01*
X126414678Y-44269060D01*
X126345065Y-44275039D01*
X126283270Y-44242433D01*
X126269372Y-44226394D01*
X126159475Y-44075133D01*
X126159471Y-44075128D01*
X126004871Y-43920528D01*
X126004866Y-43920524D01*
X125827998Y-43792023D01*
X125633191Y-43692762D01*
X125633188Y-43692761D01*
X125425258Y-43625201D01*
X125350000Y-43613281D01*
X125350000Y-44546988D01*
X125292993Y-44514075D01*
X125165826Y-44480000D01*
X125034174Y-44480000D01*
X124907007Y-44514075D01*
X124850000Y-44546988D01*
X124850000Y-43613281D01*
X124774741Y-43625201D01*
X124566811Y-43692761D01*
X124566808Y-43692762D01*
X124372001Y-43792023D01*
X124195133Y-43920524D01*
X124195128Y-43920528D01*
X124040528Y-44075128D01*
X124040524Y-44075133D01*
X123930627Y-44226394D01*
X123875297Y-44269060D01*
X123805684Y-44275039D01*
X123743889Y-44242433D01*
X123729991Y-44226394D01*
X123619857Y-44074807D01*
X123619853Y-44074802D01*
X123465193Y-43920142D01*
X123288260Y-43791595D01*
X123288259Y-43791594D01*
X123288257Y-43791593D01*
X123225825Y-43759782D01*
X123093383Y-43692298D01*
X123093380Y-43692297D01*
X122885376Y-43624714D01*
X122669361Y-43590500D01*
X122669356Y-43590500D01*
X122450644Y-43590500D01*
X122450639Y-43590500D01*
X122234623Y-43624714D01*
X122026619Y-43692297D01*
X122026616Y-43692298D01*
X121831739Y-43791595D01*
X121654806Y-43920142D01*
X121500142Y-44074806D01*
X121390318Y-44225969D01*
X121334989Y-44268635D01*
X121265375Y-44274614D01*
X121203580Y-44242009D01*
X121189682Y-44225969D01*
X121079857Y-44074806D01*
X120925193Y-43920142D01*
X120748260Y-43791595D01*
X120748259Y-43791594D01*
X120748257Y-43791593D01*
X120685825Y-43759782D01*
X120553383Y-43692298D01*
X120553380Y-43692297D01*
X120345376Y-43624714D01*
X120129361Y-43590500D01*
X120129356Y-43590500D01*
X119910644Y-43590500D01*
X119910639Y-43590500D01*
X119694623Y-43624714D01*
X119486619Y-43692297D01*
X119486616Y-43692298D01*
X119291739Y-43791595D01*
X119114806Y-43920142D01*
X118960146Y-44074802D01*
X118960142Y-44074807D01*
X118850008Y-44226394D01*
X118794678Y-44269060D01*
X118725065Y-44275039D01*
X118663270Y-44242433D01*
X118649372Y-44226394D01*
X118539475Y-44075133D01*
X118539471Y-44075128D01*
X118384871Y-43920528D01*
X118384866Y-43920524D01*
X118207998Y-43792023D01*
X118013191Y-43692762D01*
X118013188Y-43692761D01*
X117805258Y-43625201D01*
X117730000Y-43613281D01*
X117730000Y-44546988D01*
X117672993Y-44514075D01*
X117545826Y-44480000D01*
X117414174Y-44480000D01*
X117287007Y-44514075D01*
X117230000Y-44546988D01*
X117230000Y-43613281D01*
X117154741Y-43625201D01*
X116946811Y-43692761D01*
X116946808Y-43692762D01*
X116752001Y-43792023D01*
X116575133Y-43920524D01*
X116575128Y-43920528D01*
X116420528Y-44075128D01*
X116420524Y-44075133D01*
X116310627Y-44226394D01*
X116255297Y-44269060D01*
X116185684Y-44275039D01*
X116123889Y-44242433D01*
X116109991Y-44226394D01*
X115999857Y-44074807D01*
X115999853Y-44074802D01*
X115845193Y-43920142D01*
X115668260Y-43791595D01*
X115668259Y-43791594D01*
X115668257Y-43791593D01*
X115605825Y-43759782D01*
X115473383Y-43692298D01*
X115473380Y-43692297D01*
X115265376Y-43624714D01*
X115049361Y-43590500D01*
X115049356Y-43590500D01*
X114830644Y-43590500D01*
X114830639Y-43590500D01*
X114614623Y-43624714D01*
X114406619Y-43692297D01*
X114406616Y-43692298D01*
X114211739Y-43791595D01*
X114034806Y-43920142D01*
X113880142Y-44074806D01*
X113770318Y-44225969D01*
X113714989Y-44268635D01*
X113645375Y-44274614D01*
X113583580Y-44242009D01*
X113569682Y-44225969D01*
X113459857Y-44074806D01*
X113305193Y-43920142D01*
X113128260Y-43791595D01*
X113128259Y-43791594D01*
X113128257Y-43791593D01*
X113065825Y-43759782D01*
X112933383Y-43692298D01*
X112933380Y-43692297D01*
X112725376Y-43624714D01*
X112509361Y-43590500D01*
X112509356Y-43590500D01*
X112290644Y-43590500D01*
X112290639Y-43590500D01*
X112074623Y-43624714D01*
X111866619Y-43692297D01*
X111866616Y-43692298D01*
X111671739Y-43791595D01*
X111494806Y-43920142D01*
X111340142Y-44074806D01*
X111230318Y-44225969D01*
X111174989Y-44268635D01*
X111105375Y-44274614D01*
X111043580Y-44242009D01*
X111029682Y-44225969D01*
X110919857Y-44074806D01*
X110765193Y-43920142D01*
X110588260Y-43791595D01*
X110588259Y-43791594D01*
X110588257Y-43791593D01*
X110525825Y-43759782D01*
X110393383Y-43692298D01*
X110393380Y-43692297D01*
X110185376Y-43624714D01*
X109969361Y-43590500D01*
X109969356Y-43590500D01*
X109750644Y-43590500D01*
X109750639Y-43590500D01*
X109534623Y-43624714D01*
X109326619Y-43692297D01*
X109326616Y-43692298D01*
X109131739Y-43791595D01*
X108954806Y-43920142D01*
X108800146Y-44074802D01*
X108800142Y-44074807D01*
X108690008Y-44226394D01*
X108634678Y-44269060D01*
X108565065Y-44275039D01*
X108503270Y-44242433D01*
X108489372Y-44226394D01*
X108379475Y-44075133D01*
X108379471Y-44075128D01*
X108224871Y-43920528D01*
X108224866Y-43920524D01*
X108047998Y-43792023D01*
X107853191Y-43692762D01*
X107853188Y-43692761D01*
X107645258Y-43625201D01*
X107570000Y-43613281D01*
X107570000Y-44546988D01*
X107512993Y-44514075D01*
X107385826Y-44480000D01*
X107254174Y-44480000D01*
X107127007Y-44514075D01*
X107070000Y-44546988D01*
X107070000Y-43613281D01*
X106994741Y-43625201D01*
X106786811Y-43692761D01*
X106786808Y-43692762D01*
X106592001Y-43792023D01*
X106415133Y-43920524D01*
X106415128Y-43920528D01*
X106260528Y-44075128D01*
X106260524Y-44075133D01*
X106150627Y-44226394D01*
X106095297Y-44269060D01*
X106025684Y-44275039D01*
X105963889Y-44242433D01*
X105949991Y-44226394D01*
X105839857Y-44074807D01*
X105839853Y-44074802D01*
X105685193Y-43920142D01*
X105508260Y-43791595D01*
X105508259Y-43791594D01*
X105508257Y-43791593D01*
X105445825Y-43759782D01*
X105313383Y-43692298D01*
X105313380Y-43692297D01*
X105105376Y-43624714D01*
X104889361Y-43590500D01*
X104889356Y-43590500D01*
X104670644Y-43590500D01*
X104670639Y-43590500D01*
X104454623Y-43624714D01*
X104246619Y-43692297D01*
X104246616Y-43692298D01*
X104051739Y-43791595D01*
X103874806Y-43920142D01*
X103720142Y-44074806D01*
X103610318Y-44225969D01*
X103554989Y-44268635D01*
X103485375Y-44274614D01*
X103423580Y-44242009D01*
X103409682Y-44225969D01*
X103299857Y-44074806D01*
X103145193Y-43920142D01*
X102968260Y-43791595D01*
X102968259Y-43791594D01*
X102968257Y-43791593D01*
X102905825Y-43759782D01*
X102773383Y-43692298D01*
X102773380Y-43692297D01*
X102565376Y-43624714D01*
X102349361Y-43590500D01*
X102349356Y-43590500D01*
X102130644Y-43590500D01*
X102130639Y-43590500D01*
X101914623Y-43624714D01*
X101706619Y-43692297D01*
X101706616Y-43692298D01*
X101511739Y-43791595D01*
X101334806Y-43920142D01*
X101180142Y-44074806D01*
X101051595Y-44251739D01*
X100952298Y-44446616D01*
X100952297Y-44446619D01*
X100884714Y-44654623D01*
X100850500Y-44870638D01*
X100850500Y-45089361D01*
X100884714Y-45305376D01*
X100952297Y-45513380D01*
X100952298Y-45513383D01*
X101019782Y-45645825D01*
X101046628Y-45698513D01*
X101051595Y-45708260D01*
X101180142Y-45885193D01*
X101244258Y-45949309D01*
X101277743Y-46010632D01*
X101272759Y-46080324D01*
X101230887Y-46136257D01*
X101199911Y-46153172D01*
X101108670Y-46187203D01*
X101108664Y-46187206D01*
X100993455Y-46273452D01*
X100993452Y-46273455D01*
X100907206Y-46388664D01*
X100907202Y-46388671D01*
X100856908Y-46523517D01*
X100850501Y-46583116D01*
X100850500Y-46583135D01*
X100850500Y-48456870D01*
X100850501Y-48456876D01*
X100856908Y-48516483D01*
X100907202Y-48651328D01*
X100907206Y-48651335D01*
X100993452Y-48766544D01*
X100993455Y-48766547D01*
X101108664Y-48852793D01*
X101108671Y-48852797D01*
X101243517Y-48903091D01*
X101243516Y-48903091D01*
X101250444Y-48903835D01*
X101303127Y-48909500D01*
X103176872Y-48909499D01*
X103236483Y-48903091D01*
X103371331Y-48852796D01*
X103486546Y-48766546D01*
X103572796Y-48651331D01*
X103606827Y-48560088D01*
X103648698Y-48504156D01*
X103714162Y-48479738D01*
X103782435Y-48494589D01*
X103810690Y-48515741D01*
X103874806Y-48579857D01*
X104040374Y-48700147D01*
X104051743Y-48708407D01*
X104179132Y-48773315D01*
X104246616Y-48807701D01*
X104246619Y-48807702D01*
X104347074Y-48840341D01*
X104454625Y-48875286D01*
X104554672Y-48891132D01*
X104670639Y-48909500D01*
X104670644Y-48909500D01*
X104889361Y-48909500D01*
X104994082Y-48892912D01*
X105105375Y-48875286D01*
X105313383Y-48807701D01*
X105508257Y-48708407D01*
X105607601Y-48636229D01*
X105685193Y-48579857D01*
X105685195Y-48579854D01*
X105685199Y-48579852D01*
X105839852Y-48425199D01*
X105949683Y-48274028D01*
X106005011Y-48231364D01*
X106074624Y-48225385D01*
X106136420Y-48257990D01*
X106150313Y-48274023D01*
X106259906Y-48424866D01*
X106260148Y-48425199D01*
X106414806Y-48579857D01*
X106580374Y-48700147D01*
X106591743Y-48708407D01*
X106719132Y-48773315D01*
X106786616Y-48807701D01*
X106786619Y-48807702D01*
X106887074Y-48840341D01*
X106994625Y-48875286D01*
X107094672Y-48891132D01*
X107210639Y-48909500D01*
X107210644Y-48909500D01*
X107429361Y-48909500D01*
X107534082Y-48892912D01*
X107645375Y-48875286D01*
X107853383Y-48807701D01*
X108048257Y-48708407D01*
X108147601Y-48636229D01*
X108225193Y-48579857D01*
X108225195Y-48579854D01*
X108225199Y-48579852D01*
X108379852Y-48425199D01*
X108489683Y-48274028D01*
X108545011Y-48231364D01*
X108614624Y-48225385D01*
X108676420Y-48257990D01*
X108690313Y-48274023D01*
X108799906Y-48424866D01*
X108800148Y-48425199D01*
X108954806Y-48579857D01*
X109120374Y-48700147D01*
X109131743Y-48708407D01*
X109259132Y-48773315D01*
X109326616Y-48807701D01*
X109326619Y-48807702D01*
X109427074Y-48840341D01*
X109534625Y-48875286D01*
X109634672Y-48891132D01*
X109750639Y-48909500D01*
X109750644Y-48909500D01*
X109969361Y-48909500D01*
X110074082Y-48892912D01*
X110185375Y-48875286D01*
X110393383Y-48807701D01*
X110588257Y-48708407D01*
X110687601Y-48636229D01*
X110765193Y-48579857D01*
X110765195Y-48579854D01*
X110765199Y-48579852D01*
X110919852Y-48425199D01*
X111029991Y-48273603D01*
X111085320Y-48230939D01*
X111154933Y-48224960D01*
X111216729Y-48257565D01*
X111230627Y-48273605D01*
X111340524Y-48424866D01*
X111340528Y-48424871D01*
X111495128Y-48579471D01*
X111495133Y-48579475D01*
X111672001Y-48707976D01*
X111866808Y-48807237D01*
X111866811Y-48807238D01*
X112074739Y-48874797D01*
X112149999Y-48886717D01*
X112150000Y-48886717D01*
X112150000Y-47953012D01*
X112207007Y-47985925D01*
X112334174Y-48020000D01*
X112465826Y-48020000D01*
X112592993Y-47985925D01*
X112650000Y-47953012D01*
X112650000Y-48886717D01*
X112725258Y-48874797D01*
X112725261Y-48874797D01*
X112933188Y-48807238D01*
X112933191Y-48807237D01*
X113127998Y-48707976D01*
X113304866Y-48579475D01*
X113304871Y-48579471D01*
X113459469Y-48424873D01*
X113569371Y-48273605D01*
X113624701Y-48230939D01*
X113694314Y-48224960D01*
X113756110Y-48257565D01*
X113770008Y-48273605D01*
X113880142Y-48425192D01*
X113880146Y-48425197D01*
X114034806Y-48579857D01*
X114200374Y-48700147D01*
X114211743Y-48708407D01*
X114339132Y-48773315D01*
X114406616Y-48807701D01*
X114406619Y-48807702D01*
X114507074Y-48840341D01*
X114614625Y-48875286D01*
X114714672Y-48891132D01*
X114830639Y-48909500D01*
X114830644Y-48909500D01*
X115049361Y-48909500D01*
X115154082Y-48892912D01*
X115265375Y-48875286D01*
X115473383Y-48807701D01*
X115668257Y-48708407D01*
X115767601Y-48636229D01*
X115845193Y-48579857D01*
X115845195Y-48579854D01*
X115845199Y-48579852D01*
X115999852Y-48425199D01*
X116109683Y-48274028D01*
X116165011Y-48231364D01*
X116234624Y-48225385D01*
X116296420Y-48257990D01*
X116310313Y-48274023D01*
X116419906Y-48424866D01*
X116420148Y-48425199D01*
X116574806Y-48579857D01*
X116740374Y-48700147D01*
X116751743Y-48708407D01*
X116879132Y-48773315D01*
X116946616Y-48807701D01*
X116946619Y-48807702D01*
X117047074Y-48840341D01*
X117154625Y-48875286D01*
X117254672Y-48891132D01*
X117370639Y-48909500D01*
X117370644Y-48909500D01*
X117589361Y-48909500D01*
X117694082Y-48892912D01*
X117805375Y-48875286D01*
X118013383Y-48807701D01*
X118208257Y-48708407D01*
X118307601Y-48636229D01*
X118385193Y-48579857D01*
X118385195Y-48579854D01*
X118385199Y-48579852D01*
X118539852Y-48425199D01*
X118649683Y-48274028D01*
X118705011Y-48231364D01*
X118774624Y-48225385D01*
X118836420Y-48257990D01*
X118850313Y-48274023D01*
X118959906Y-48424866D01*
X118960148Y-48425199D01*
X119114806Y-48579857D01*
X119280374Y-48700147D01*
X119291743Y-48708407D01*
X119419132Y-48773315D01*
X119486616Y-48807701D01*
X119486619Y-48807702D01*
X119587074Y-48840341D01*
X119694625Y-48875286D01*
X119794672Y-48891132D01*
X119910639Y-48909500D01*
X119910644Y-48909500D01*
X120129361Y-48909500D01*
X120234082Y-48892912D01*
X120345375Y-48875286D01*
X120553383Y-48807701D01*
X120748257Y-48708407D01*
X120847601Y-48636229D01*
X120925193Y-48579857D01*
X120925195Y-48579854D01*
X120925199Y-48579852D01*
X121079852Y-48425199D01*
X121189683Y-48274028D01*
X121245011Y-48231364D01*
X121314624Y-48225385D01*
X121376420Y-48257990D01*
X121390313Y-48274023D01*
X121499906Y-48424866D01*
X121500148Y-48425199D01*
X121654806Y-48579857D01*
X121820374Y-48700147D01*
X121831743Y-48708407D01*
X121959132Y-48773315D01*
X122026616Y-48807701D01*
X122026619Y-48807702D01*
X122127074Y-48840341D01*
X122234625Y-48875286D01*
X122334672Y-48891132D01*
X122450639Y-48909500D01*
X122450644Y-48909500D01*
X122669361Y-48909500D01*
X122774082Y-48892912D01*
X122885375Y-48875286D01*
X123093383Y-48807701D01*
X123288257Y-48708407D01*
X123387601Y-48636229D01*
X123465193Y-48579857D01*
X123465195Y-48579854D01*
X123465199Y-48579852D01*
X123619852Y-48425199D01*
X123729683Y-48274028D01*
X123785011Y-48231364D01*
X123854624Y-48225385D01*
X123916420Y-48257990D01*
X123930313Y-48274023D01*
X124039906Y-48424866D01*
X124040148Y-48425199D01*
X124194806Y-48579857D01*
X124360374Y-48700147D01*
X124371743Y-48708407D01*
X124499132Y-48773315D01*
X124566616Y-48807701D01*
X124566619Y-48807702D01*
X124667074Y-48840341D01*
X124774625Y-48875286D01*
X124874672Y-48891132D01*
X124990639Y-48909500D01*
X124990644Y-48909500D01*
X125209361Y-48909500D01*
X125314082Y-48892912D01*
X125425375Y-48875286D01*
X125633383Y-48807701D01*
X125828257Y-48708407D01*
X125927601Y-48636229D01*
X126005193Y-48579857D01*
X126005195Y-48579854D01*
X126005199Y-48579852D01*
X126159852Y-48425199D01*
X126269683Y-48274028D01*
X126325011Y-48231364D01*
X126394624Y-48225385D01*
X126456420Y-48257990D01*
X126470313Y-48274023D01*
X126579906Y-48424866D01*
X126580148Y-48425199D01*
X126734806Y-48579857D01*
X126900374Y-48700147D01*
X126911743Y-48708407D01*
X127039132Y-48773315D01*
X127106616Y-48807701D01*
X127106619Y-48807702D01*
X127207074Y-48840341D01*
X127314625Y-48875286D01*
X127414672Y-48891132D01*
X127530639Y-48909500D01*
X127530644Y-48909500D01*
X127749361Y-48909500D01*
X127854082Y-48892912D01*
X127965375Y-48875286D01*
X128173383Y-48807701D01*
X128368257Y-48708407D01*
X128467601Y-48636229D01*
X128545193Y-48579857D01*
X128545195Y-48579854D01*
X128545199Y-48579852D01*
X128699852Y-48425199D01*
X128809683Y-48274028D01*
X128865011Y-48231364D01*
X128934624Y-48225385D01*
X128996420Y-48257990D01*
X129010313Y-48274023D01*
X129119906Y-48424866D01*
X129120148Y-48425199D01*
X129274806Y-48579857D01*
X129440374Y-48700147D01*
X129451743Y-48708407D01*
X129579132Y-48773315D01*
X129646616Y-48807701D01*
X129646619Y-48807702D01*
X129747074Y-48840341D01*
X129854625Y-48875286D01*
X129954672Y-48891132D01*
X130070639Y-48909500D01*
X130070644Y-48909500D01*
X130289361Y-48909500D01*
X130394082Y-48892912D01*
X130505375Y-48875286D01*
X130713383Y-48807701D01*
X130908257Y-48708407D01*
X131007601Y-48636229D01*
X131085193Y-48579857D01*
X131085195Y-48579854D01*
X131085199Y-48579852D01*
X131239852Y-48425199D01*
X131349991Y-48273603D01*
X131405320Y-48230939D01*
X131474933Y-48224960D01*
X131536729Y-48257565D01*
X131550627Y-48273605D01*
X131660524Y-48424866D01*
X131660528Y-48424871D01*
X131815128Y-48579471D01*
X131815133Y-48579475D01*
X131992001Y-48707976D01*
X132186808Y-48807237D01*
X132186811Y-48807238D01*
X132394739Y-48874797D01*
X132469999Y-48886717D01*
X132470000Y-48886717D01*
X132470000Y-47953012D01*
X132527007Y-47985925D01*
X132654174Y-48020000D01*
X132785826Y-48020000D01*
X132912993Y-47985925D01*
X132970000Y-47953012D01*
X132970000Y-48886717D01*
X133045258Y-48874797D01*
X133045261Y-48874797D01*
X133253188Y-48807238D01*
X133253191Y-48807237D01*
X133447998Y-48707976D01*
X133624866Y-48579475D01*
X133624871Y-48579471D01*
X133779469Y-48424873D01*
X133889371Y-48273605D01*
X133944701Y-48230939D01*
X134014314Y-48224960D01*
X134076110Y-48257565D01*
X134090008Y-48273605D01*
X134200142Y-48425192D01*
X134200146Y-48425197D01*
X134354806Y-48579857D01*
X134520374Y-48700147D01*
X134531743Y-48708407D01*
X134659132Y-48773315D01*
X134726616Y-48807701D01*
X134726619Y-48807702D01*
X134827074Y-48840341D01*
X134934625Y-48875286D01*
X135034672Y-48891132D01*
X135150639Y-48909500D01*
X135223718Y-48909500D01*
X135290757Y-48929185D01*
X135336512Y-48981989D01*
X135346456Y-49051147D01*
X135317431Y-49114703D01*
X135311399Y-49121181D01*
X132476400Y-51956181D01*
X132415077Y-51989666D01*
X132388719Y-51992500D01*
X101678194Y-51992500D01*
X101556970Y-52016613D01*
X101556960Y-52016616D01*
X101442773Y-52063913D01*
X101442760Y-52063920D01*
X101339992Y-52132588D01*
X101339988Y-52132591D01*
X98361400Y-55111181D01*
X98300077Y-55144666D01*
X98273719Y-55147500D01*
X97088639Y-55147500D01*
X97023214Y-55157862D01*
X96892362Y-55178587D01*
X96703370Y-55239993D01*
X96703367Y-55239994D01*
X96526305Y-55330213D01*
X96365533Y-55447021D01*
X96225021Y-55587533D01*
X96108213Y-55748305D01*
X96017994Y-55925367D01*
X96017993Y-55925370D01*
X95956587Y-56114362D01*
X95925500Y-56310639D01*
X95925500Y-56509360D01*
X95956587Y-56705637D01*
X96017993Y-56894629D01*
X96017994Y-56894632D01*
X96085510Y-57027137D01*
X96108213Y-57071694D01*
X96225019Y-57232464D01*
X96365536Y-57372981D01*
X96526306Y-57489787D01*
X96683332Y-57569796D01*
X96734127Y-57617769D01*
X96750922Y-57685590D01*
X96728385Y-57751725D01*
X96683332Y-57790764D01*
X96526569Y-57870639D01*
X96365860Y-57987403D01*
X96365859Y-57987403D01*
X96225403Y-58127859D01*
X96225403Y-58127860D01*
X96108641Y-58288567D01*
X96018456Y-58465564D01*
X95957074Y-58654482D01*
X95949865Y-58699999D01*
X95949865Y-58700000D01*
X97507749Y-58700000D01*
X97476619Y-58753919D01*
X97442000Y-58883120D01*
X97442000Y-59016880D01*
X97476619Y-59146081D01*
X97507749Y-59200000D01*
X95949865Y-59200000D01*
X95957074Y-59245517D01*
X96018456Y-59434435D01*
X96108641Y-59611432D01*
X96225403Y-59772139D01*
X96225403Y-59772140D01*
X96365859Y-59912596D01*
X96526567Y-60029358D01*
X96703562Y-60119542D01*
X96892477Y-60180924D01*
X97088679Y-60212000D01*
X97700000Y-60212000D01*
X97700000Y-59392251D01*
X97753919Y-59423381D01*
X97883120Y-59458000D01*
X98016880Y-59458000D01*
X98146081Y-59423381D01*
X98200000Y-59392251D01*
X98200000Y-60212000D01*
X98541218Y-60212000D01*
X98608257Y-60231685D01*
X98654012Y-60284489D01*
X98663956Y-60353647D01*
X98634931Y-60417203D01*
X98628899Y-60423681D01*
X92512181Y-66540399D01*
X92450858Y-66573884D01*
X92381166Y-66568900D01*
X92325233Y-66527028D01*
X92300816Y-66461564D01*
X92300500Y-66452718D01*
X92300500Y-42424500D01*
X92320185Y-42357461D01*
X92372989Y-42311706D01*
X92424500Y-42300500D01*
X186575500Y-42300500D01*
X186642539Y-42320185D01*
G37*
%TD.AperFunction*%
%TA.AperFunction,Conductor*%
G36*
X117783945Y-87214372D02*
G01*
X117822984Y-87259425D01*
X117832551Y-87278201D01*
X117868077Y-87347925D01*
X117988621Y-87513840D01*
X117988625Y-87513845D01*
X118133654Y-87658874D01*
X118133659Y-87658878D01*
X118208766Y-87713446D01*
X118299579Y-87779425D01*
X118388073Y-87824515D01*
X118388623Y-87824795D01*
X118439419Y-87872770D01*
X118456214Y-87940590D01*
X118433677Y-88006725D01*
X118388624Y-88045764D01*
X118299841Y-88091002D01*
X118254787Y-88123733D01*
X118254787Y-88123734D01*
X118824513Y-88693460D01*
X118775998Y-88706460D01*
X118654003Y-88776894D01*
X118554394Y-88876503D01*
X118483960Y-88998498D01*
X118470960Y-89047013D01*
X117901234Y-88477287D01*
X117901233Y-88477287D01*
X117868502Y-88522341D01*
X117823264Y-88611124D01*
X117775290Y-88661919D01*
X117707468Y-88678714D01*
X117641334Y-88656176D01*
X117602295Y-88611123D01*
X117599819Y-88606264D01*
X117556925Y-88522079D01*
X117498983Y-88442328D01*
X117436378Y-88356159D01*
X117436374Y-88356154D01*
X117291345Y-88211125D01*
X117291340Y-88211121D01*
X117125425Y-88090577D01*
X117105795Y-88080575D01*
X117036925Y-88045484D01*
X116986130Y-87997511D01*
X116969335Y-87929690D01*
X116991872Y-87863555D01*
X117036925Y-87824515D01*
X117125421Y-87779425D01*
X117291347Y-87658873D01*
X117436373Y-87513847D01*
X117556925Y-87347921D01*
X117602015Y-87259425D01*
X117649989Y-87208630D01*
X117717810Y-87191835D01*
X117783945Y-87214372D01*
G37*
%TD.AperFunction*%
%TA.AperFunction,Conductor*%
G36*
X107153960Y-86861502D02*
G01*
X107224394Y-86983497D01*
X107324003Y-87083106D01*
X107445998Y-87153540D01*
X107494512Y-87166539D01*
X106924787Y-87736264D01*
X106969847Y-87769001D01*
X106969846Y-87769001D01*
X107058622Y-87814234D01*
X107109419Y-87862208D01*
X107126214Y-87930029D01*
X107103677Y-87996164D01*
X107058624Y-88035203D01*
X106969577Y-88080575D01*
X106803659Y-88201121D01*
X106803654Y-88201125D01*
X106658625Y-88346154D01*
X106658621Y-88346159D01*
X106538077Y-88512075D01*
X106492985Y-88600573D01*
X106445010Y-88651369D01*
X106377189Y-88668164D01*
X106311054Y-88645627D01*
X106272015Y-88600573D01*
X106255077Y-88567331D01*
X106226925Y-88512079D01*
X106171590Y-88435917D01*
X106106378Y-88346159D01*
X106106374Y-88346154D01*
X105961345Y-88201125D01*
X105961340Y-88201121D01*
X105795425Y-88080577D01*
X105786811Y-88076188D01*
X105706925Y-88035484D01*
X105656130Y-87987511D01*
X105639335Y-87919690D01*
X105661872Y-87853555D01*
X105706925Y-87814515D01*
X105795421Y-87769425D01*
X105961347Y-87648873D01*
X106106373Y-87503847D01*
X106226925Y-87337921D01*
X106272295Y-87248876D01*
X106320269Y-87198080D01*
X106388090Y-87181285D01*
X106454225Y-87203822D01*
X106493265Y-87248876D01*
X106538503Y-87337660D01*
X106571234Y-87382711D01*
X107140959Y-86812985D01*
X107153960Y-86861502D01*
G37*
%TD.AperFunction*%
%TA.AperFunction,Conductor*%
G36*
X142296575Y-87282007D02*
G01*
X142262500Y-87409174D01*
X142262500Y-87540826D01*
X142296575Y-87667993D01*
X142329488Y-87725000D01*
X140655512Y-87725000D01*
X140688425Y-87667993D01*
X140722500Y-87540826D01*
X140722500Y-87409174D01*
X140688425Y-87282007D01*
X140655512Y-87225000D01*
X142329488Y-87225000D01*
X142296575Y-87282007D01*
G37*
%TD.AperFunction*%
%TA.AperFunction,Conductor*%
G36*
X134046783Y-72984523D02*
G01*
X134052845Y-72984339D01*
X134077940Y-72999409D01*
X134104355Y-73012030D01*
X134109223Y-73016642D01*
X147007367Y-85914786D01*
X147040852Y-85976109D01*
X147035868Y-86045801D01*
X146993996Y-86101734D01*
X146932940Y-86125757D01*
X146885016Y-86130908D01*
X146750171Y-86181202D01*
X146750164Y-86181206D01*
X146634955Y-86267452D01*
X146634952Y-86267455D01*
X146548706Y-86382664D01*
X146548703Y-86382669D01*
X146499689Y-86514083D01*
X146457817Y-86570016D01*
X146392353Y-86594433D01*
X146324080Y-86579581D01*
X146295826Y-86558430D01*
X146182286Y-86444890D01*
X146010320Y-86319951D01*
X145820914Y-86223444D01*
X145820913Y-86223443D01*
X145820912Y-86223443D01*
X145618743Y-86157754D01*
X145618741Y-86157753D01*
X145618740Y-86157753D01*
X145455363Y-86131877D01*
X145408787Y-86124500D01*
X145196213Y-86124500D01*
X145149637Y-86131877D01*
X144986260Y-86157753D01*
X144784085Y-86223444D01*
X144594679Y-86319951D01*
X144422713Y-86444890D01*
X144272390Y-86595213D01*
X144147449Y-86767182D01*
X144142702Y-86776499D01*
X144094727Y-86827293D01*
X144026905Y-86844087D01*
X143960771Y-86821548D01*
X143921734Y-86776495D01*
X143917122Y-86767444D01*
X143792227Y-86595540D01*
X143792223Y-86595535D01*
X143641964Y-86445276D01*
X143641959Y-86445272D01*
X143470057Y-86320379D01*
X143280715Y-86223903D01*
X143078624Y-86158241D01*
X143012500Y-86147768D01*
X143012500Y-87041988D01*
X142955493Y-87009075D01*
X142828326Y-86975000D01*
X142696674Y-86975000D01*
X142569507Y-87009075D01*
X142512500Y-87041988D01*
X142512500Y-86147768D01*
X142512499Y-86147768D01*
X142446375Y-86158241D01*
X142244284Y-86223903D01*
X142054942Y-86320379D01*
X141883040Y-86445272D01*
X141883035Y-86445276D01*
X141732776Y-86595535D01*
X141732772Y-86595540D01*
X141607877Y-86767444D01*
X141602984Y-86777048D01*
X141555009Y-86827844D01*
X141487188Y-86844638D01*
X141421053Y-86822100D01*
X141382016Y-86777048D01*
X141377122Y-86767444D01*
X141252227Y-86595540D01*
X141252223Y-86595535D01*
X141101964Y-86445276D01*
X141101959Y-86445272D01*
X140930057Y-86320379D01*
X140740715Y-86223903D01*
X140538624Y-86158241D01*
X140472500Y-86147768D01*
X140472500Y-87041988D01*
X140415493Y-87009075D01*
X140288326Y-86975000D01*
X140156674Y-86975000D01*
X140029507Y-87009075D01*
X139972500Y-87041988D01*
X139972500Y-86147768D01*
X139972499Y-86147768D01*
X139906375Y-86158241D01*
X139704284Y-86223903D01*
X139514942Y-86320379D01*
X139343040Y-86445272D01*
X139343035Y-86445276D01*
X139192776Y-86595535D01*
X139192772Y-86595540D01*
X139067878Y-86767443D01*
X139063262Y-86776502D01*
X139015284Y-86827295D01*
X138947463Y-86844087D01*
X138881329Y-86821546D01*
X138842294Y-86776493D01*
X138837551Y-86767184D01*
X138837549Y-86767181D01*
X138837548Y-86767179D01*
X138712609Y-86595213D01*
X138562286Y-86444890D01*
X138390320Y-86319951D01*
X138200914Y-86223444D01*
X138200913Y-86223443D01*
X138200912Y-86223443D01*
X137998743Y-86157754D01*
X137998741Y-86157753D01*
X137998740Y-86157753D01*
X137835363Y-86131877D01*
X137788787Y-86124500D01*
X137576213Y-86124500D01*
X137529637Y-86131877D01*
X137366255Y-86157754D01*
X137352793Y-86162128D01*
X137282951Y-86164122D01*
X137226796Y-86131877D01*
X133923819Y-82828900D01*
X133890334Y-82767577D01*
X133887500Y-82741219D01*
X133887500Y-73116650D01*
X133894431Y-73093043D01*
X133897192Y-73068590D01*
X133905039Y-73056918D01*
X133907185Y-73049611D01*
X133915362Y-73038333D01*
X133919348Y-73033439D01*
X133920626Y-73032162D01*
X133921706Y-73030544D01*
X133925404Y-73026006D01*
X133949541Y-73009435D01*
X133971992Y-72990654D01*
X133978007Y-72989895D01*
X133983007Y-72986463D01*
X134012267Y-72985573D01*
X134041312Y-72981909D01*
X134046783Y-72984523D01*
G37*
%TD.AperFunction*%
%TA.AperFunction,Conductor*%
G36*
X135148317Y-55577043D02*
G01*
X135180984Y-55586005D01*
X135181753Y-55586861D01*
X135182856Y-55587185D01*
X135205024Y-55612769D01*
X135227674Y-55637984D01*
X135227858Y-55639120D01*
X135228611Y-55639989D01*
X135233432Y-55673520D01*
X135238850Y-55706954D01*
X135238391Y-55708007D01*
X135238555Y-55709147D01*
X135224474Y-55739978D01*
X135210964Y-55771017D01*
X135209838Y-55772028D01*
X135209530Y-55772703D01*
X135184708Y-55794602D01*
X135057837Y-55879373D01*
X134939373Y-55997837D01*
X134846295Y-56137139D01*
X134782184Y-56291917D01*
X134782182Y-56291925D01*
X134749500Y-56456228D01*
X134749500Y-56623767D01*
X134757133Y-56662145D01*
X134750904Y-56731737D01*
X134723196Y-56774015D01*
X134609376Y-56887834D01*
X134609373Y-56887837D01*
X134516295Y-57027139D01*
X134452184Y-57181917D01*
X134452182Y-57181925D01*
X134419500Y-57346228D01*
X134419500Y-57513771D01*
X134452182Y-57678074D01*
X134452184Y-57678082D01*
X134516295Y-57832860D01*
X134609373Y-57972162D01*
X134613239Y-57976872D01*
X134611336Y-57978432D01*
X134639654Y-58030238D01*
X134642500Y-58056650D01*
X134642500Y-64088719D01*
X134622815Y-64155758D01*
X134606181Y-64176400D01*
X125936400Y-72846181D01*
X125909472Y-72860884D01*
X125883654Y-72877477D01*
X125877453Y-72878368D01*
X125875077Y-72879666D01*
X125848719Y-72882500D01*
X125666651Y-72882500D01*
X125599612Y-72862815D01*
X125587213Y-72852823D01*
X125586872Y-72853239D01*
X125582162Y-72849373D01*
X125442860Y-72756295D01*
X125288082Y-72692184D01*
X125288074Y-72692182D01*
X125123771Y-72659500D01*
X125123767Y-72659500D01*
X124956233Y-72659500D01*
X124956228Y-72659500D01*
X124791925Y-72692182D01*
X124791917Y-72692184D01*
X124637139Y-72756295D01*
X124497837Y-72849373D01*
X124379373Y-72967837D01*
X124286295Y-73107139D01*
X124222184Y-73261917D01*
X124222182Y-73261925D01*
X124189500Y-73426228D01*
X124189500Y-73593771D01*
X124222182Y-73758074D01*
X124222184Y-73758082D01*
X124286295Y-73912860D01*
X124379373Y-74052162D01*
X124497837Y-74170626D01*
X124553992Y-74208147D01*
X124637137Y-74263703D01*
X124791918Y-74327816D01*
X124956228Y-74360499D01*
X124956232Y-74360500D01*
X124956233Y-74360500D01*
X125123768Y-74360500D01*
X125123769Y-74360499D01*
X125288082Y-74327816D01*
X125442863Y-74263703D01*
X125582162Y-74170626D01*
X125586872Y-74166761D01*
X125588426Y-74168655D01*
X125640293Y-74140334D01*
X125666651Y-74137500D01*
X126221804Y-74137500D01*
X126221805Y-74137499D01*
X126343035Y-74113386D01*
X126438682Y-74073767D01*
X126457233Y-74066083D01*
X126467462Y-74059247D01*
X126474706Y-74055670D01*
X126501469Y-74050988D01*
X126527397Y-74042867D01*
X126535379Y-74045056D01*
X126543531Y-74043630D01*
X126568575Y-74054160D01*
X126594779Y-74061346D01*
X126606798Y-74069932D01*
X126712468Y-74140538D01*
X126757273Y-74194150D01*
X126765980Y-74263475D01*
X126735826Y-74326503D01*
X126731258Y-74331321D01*
X119408400Y-81654181D01*
X119347077Y-81687666D01*
X119320719Y-81690500D01*
X115840194Y-81690500D01*
X115718970Y-81714613D01*
X115718960Y-81714616D01*
X115604774Y-81761913D01*
X115604756Y-81761923D01*
X115501992Y-81830587D01*
X115501985Y-81830593D01*
X114939400Y-82393181D01*
X114878077Y-82426666D01*
X114877052Y-82426885D01*
X114864522Y-82429500D01*
X114856233Y-82429500D01*
X114691918Y-82462184D01*
X114675671Y-82468913D01*
X114664290Y-82471289D01*
X114640583Y-82469391D01*
X114616934Y-82471933D01*
X114606391Y-82466655D01*
X114594643Y-82465715D01*
X114575727Y-82451304D01*
X114554456Y-82440655D01*
X114548440Y-82430515D01*
X114539066Y-82423373D01*
X114530944Y-82401022D01*
X114518807Y-82380564D01*
X114519228Y-82368782D01*
X114515203Y-82357705D01*
X114520454Y-82334508D01*
X114521305Y-82310739D01*
X114528457Y-82299160D01*
X114530631Y-82289560D01*
X114540200Y-82280150D01*
X114551274Y-82262224D01*
X114609464Y-82204035D01*
X114708013Y-82056546D01*
X114775895Y-81892666D01*
X114810500Y-81718691D01*
X114810500Y-81541308D01*
X114775895Y-81367334D01*
X114708013Y-81203453D01*
X114708012Y-81203452D01*
X114708009Y-81203446D01*
X114609464Y-81055964D01*
X114609461Y-81055960D01*
X114484039Y-80930538D01*
X114484035Y-80930535D01*
X114336553Y-80831990D01*
X114336544Y-80831985D01*
X114172666Y-80764105D01*
X114172658Y-80764103D01*
X113998696Y-80729500D01*
X113998692Y-80729500D01*
X113821309Y-80729500D01*
X113821304Y-80729500D01*
X113647341Y-80764103D01*
X113647333Y-80764105D01*
X113483457Y-80831985D01*
X113483447Y-80831990D01*
X113335965Y-80930535D01*
X113335961Y-80930538D01*
X111620538Y-82645960D01*
X111620537Y-82645961D01*
X111597469Y-82680486D01*
X111594971Y-82684225D01*
X111521987Y-82793453D01*
X111494426Y-82859992D01*
X111491484Y-82867092D01*
X111491484Y-82867094D01*
X111454105Y-82957333D01*
X111454103Y-82957341D01*
X111419500Y-83131303D01*
X111419500Y-83985500D01*
X111399815Y-84052539D01*
X111347011Y-84098294D01*
X111295500Y-84109500D01*
X100798803Y-84109500D01*
X100624841Y-84144103D01*
X100624829Y-84144106D01*
X100542892Y-84178045D01*
X100542893Y-84178046D01*
X100460955Y-84211985D01*
X100372540Y-84271063D01*
X100372539Y-84271064D01*
X100313461Y-84310537D01*
X100313460Y-84310538D01*
X99300819Y-85323181D01*
X99239496Y-85356666D01*
X99213138Y-85359500D01*
X98196308Y-85359500D01*
X98129269Y-85339815D01*
X98108627Y-85323181D01*
X97900563Y-85115117D01*
X97900553Y-85115108D01*
X97865559Y-85087925D01*
X97824692Y-85031254D01*
X97820951Y-84961484D01*
X97855524Y-84900768D01*
X97865558Y-84892074D01*
X97872673Y-84886547D01*
X97900566Y-84864879D01*
X98404884Y-84360562D01*
X98456864Y-84293647D01*
X98511940Y-84160681D01*
X98522500Y-84076608D01*
X98522499Y-83396280D01*
X98542183Y-83329242D01*
X98558818Y-83308600D01*
X99183194Y-82684225D01*
X99841411Y-82026008D01*
X99863188Y-81993416D01*
X99910083Y-81923233D01*
X99957385Y-81809035D01*
X99975356Y-81718691D01*
X99981500Y-81687805D01*
X99981500Y-77177281D01*
X100001185Y-77110242D01*
X100017819Y-77089600D01*
X103250819Y-73856600D01*
X103312142Y-73823115D01*
X103381834Y-73828099D01*
X103437767Y-73869971D01*
X103462184Y-73935435D01*
X103462500Y-73944281D01*
X103462500Y-74933349D01*
X103442815Y-75000388D01*
X103432823Y-75012786D01*
X103433239Y-75013128D01*
X103429373Y-75017837D01*
X103336295Y-75157139D01*
X103272184Y-75311917D01*
X103272182Y-75311925D01*
X103239500Y-75476228D01*
X103239500Y-75643771D01*
X103272182Y-75808074D01*
X103272184Y-75808082D01*
X103336295Y-75962860D01*
X103429373Y-76102162D01*
X103547837Y-76220626D01*
X103640494Y-76282537D01*
X103687137Y-76313703D01*
X103841918Y-76377816D01*
X104006228Y-76410499D01*
X104006232Y-76410500D01*
X104006233Y-76410500D01*
X104173768Y-76410500D01*
X104173769Y-76410499D01*
X104338082Y-76377816D01*
X104492863Y-76313703D01*
X104632162Y-76220626D01*
X104750626Y-76102162D01*
X104843703Y-75962863D01*
X104907816Y-75808082D01*
X104940500Y-75643767D01*
X104940500Y-75476233D01*
X104907816Y-75311918D01*
X104843703Y-75157137D01*
X104812537Y-75110494D01*
X104750626Y-75017837D01*
X104746761Y-75013128D01*
X104748655Y-75011573D01*
X104720334Y-74959707D01*
X104717500Y-74933349D01*
X104717500Y-73511281D01*
X104737185Y-73444242D01*
X104753819Y-73423600D01*
X107310819Y-70866600D01*
X107372142Y-70833115D01*
X107441834Y-70838099D01*
X107497767Y-70879971D01*
X107522184Y-70945435D01*
X107522500Y-70954281D01*
X107522500Y-74343349D01*
X107502815Y-74410388D01*
X107486181Y-74431030D01*
X107469376Y-74447834D01*
X107469373Y-74447837D01*
X107376295Y-74587139D01*
X107312184Y-74741917D01*
X107312182Y-74741925D01*
X107279500Y-74906228D01*
X107279500Y-75073771D01*
X107312182Y-75238074D01*
X107312184Y-75238082D01*
X107376295Y-75392860D01*
X107469373Y-75532162D01*
X107587837Y-75650626D01*
X107680494Y-75712537D01*
X107727137Y-75743703D01*
X107881918Y-75807816D01*
X108046228Y-75840499D01*
X108046232Y-75840500D01*
X108046233Y-75840500D01*
X108213768Y-75840500D01*
X108213769Y-75840499D01*
X108378082Y-75807816D01*
X108532863Y-75743703D01*
X108672162Y-75650626D01*
X108790626Y-75532162D01*
X108883703Y-75392863D01*
X108947816Y-75238082D01*
X108980500Y-75073767D01*
X108980500Y-74906233D01*
X108947816Y-74741918D01*
X108883703Y-74587137D01*
X108798398Y-74459469D01*
X108777520Y-74392791D01*
X108777500Y-74390578D01*
X108777500Y-70541281D01*
X108797185Y-70474242D01*
X108813819Y-70453600D01*
X111220819Y-68046600D01*
X111282142Y-68013115D01*
X111351834Y-68018099D01*
X111407767Y-68059971D01*
X111432184Y-68125435D01*
X111432500Y-68134281D01*
X111432500Y-73873349D01*
X111412815Y-73940388D01*
X111402823Y-73952786D01*
X111403239Y-73953128D01*
X111399373Y-73957837D01*
X111306295Y-74097139D01*
X111242184Y-74251917D01*
X111242182Y-74251925D01*
X111209500Y-74416228D01*
X111209500Y-74583771D01*
X111242182Y-74748074D01*
X111242184Y-74748082D01*
X111306295Y-74902860D01*
X111399373Y-75042162D01*
X111517837Y-75160626D01*
X111610494Y-75222537D01*
X111657137Y-75253703D01*
X111811918Y-75317816D01*
X111976228Y-75350499D01*
X111976232Y-75350500D01*
X111976233Y-75350500D01*
X112143768Y-75350500D01*
X112143769Y-75350499D01*
X112308082Y-75317816D01*
X112462863Y-75253703D01*
X112602162Y-75160626D01*
X112720626Y-75042162D01*
X112813703Y-74902863D01*
X112877816Y-74748082D01*
X112910500Y-74583767D01*
X112910500Y-74416233D01*
X112877816Y-74251918D01*
X112813703Y-74097137D01*
X112769208Y-74030546D01*
X112720626Y-73957837D01*
X112716761Y-73953128D01*
X112718655Y-73951573D01*
X112690334Y-73899707D01*
X112687500Y-73873349D01*
X112687500Y-70476228D01*
X116559500Y-70476228D01*
X116559500Y-70643771D01*
X116592182Y-70808074D01*
X116592184Y-70808082D01*
X116656295Y-70962860D01*
X116749373Y-71102162D01*
X116867837Y-71220626D01*
X116944184Y-71271639D01*
X117007137Y-71313703D01*
X117161918Y-71377816D01*
X117326228Y-71410499D01*
X117326232Y-71410500D01*
X117326233Y-71410500D01*
X117493768Y-71410500D01*
X117493769Y-71410499D01*
X117658082Y-71377816D01*
X117812863Y-71313703D01*
X117952162Y-71220626D01*
X118070626Y-71102162D01*
X118163703Y-70962863D01*
X118227816Y-70808082D01*
X118260500Y-70643767D01*
X118260500Y-70476233D01*
X118227816Y-70311918D01*
X118163703Y-70157137D01*
X118163701Y-70157134D01*
X118163699Y-70157130D01*
X118131398Y-70108788D01*
X118110520Y-70042110D01*
X118110500Y-70039897D01*
X118110500Y-66586518D01*
X118130185Y-66519479D01*
X118146815Y-66498841D01*
X118982561Y-65663094D01*
X119043882Y-65629611D01*
X119045947Y-65629180D01*
X119103082Y-65617816D01*
X119257863Y-65553703D01*
X119397162Y-65460626D01*
X119515626Y-65342162D01*
X119608703Y-65202863D01*
X119672816Y-65048082D01*
X119705500Y-64883767D01*
X119705500Y-64716233D01*
X119672816Y-64551918D01*
X119608703Y-64397137D01*
X119555058Y-64316852D01*
X119515626Y-64257837D01*
X119397162Y-64139373D01*
X119257860Y-64046295D01*
X119103082Y-63982184D01*
X119103074Y-63982182D01*
X118938771Y-63949500D01*
X118938767Y-63949500D01*
X118771233Y-63949500D01*
X118771228Y-63949500D01*
X118606925Y-63982182D01*
X118606917Y-63982184D01*
X118452139Y-64046295D01*
X118312837Y-64139373D01*
X118194373Y-64257837D01*
X118101295Y-64397139D01*
X118037184Y-64551917D01*
X118037182Y-64551923D01*
X118025839Y-64608949D01*
X117993454Y-64670860D01*
X117991903Y-64672438D01*
X116865887Y-65798454D01*
X116840535Y-65836397D01*
X116815297Y-65874169D01*
X116798034Y-65900004D01*
X116789228Y-65913184D01*
X116789223Y-65913192D01*
X116736420Y-66040671D01*
X116736418Y-66040677D01*
X116709500Y-66176004D01*
X116709500Y-70039897D01*
X116689815Y-70106936D01*
X116688602Y-70108788D01*
X116656300Y-70157130D01*
X116656295Y-70157140D01*
X116592184Y-70311917D01*
X116592182Y-70311925D01*
X116559500Y-70476228D01*
X112687500Y-70476228D01*
X112687500Y-67891281D01*
X112707185Y-67824242D01*
X112723819Y-67803600D01*
X117403600Y-63123819D01*
X117464923Y-63090334D01*
X117491281Y-63087500D01*
X125403349Y-63087500D01*
X125470388Y-63107185D01*
X125482786Y-63117176D01*
X125483128Y-63116761D01*
X125487837Y-63120626D01*
X125580494Y-63182537D01*
X125627137Y-63213703D01*
X125781918Y-63277816D01*
X125946228Y-63310499D01*
X125946232Y-63310500D01*
X125946233Y-63310500D01*
X126113768Y-63310500D01*
X126113769Y-63310499D01*
X126278082Y-63277816D01*
X126432863Y-63213703D01*
X126572162Y-63120626D01*
X126690626Y-63002162D01*
X126783703Y-62862863D01*
X126847816Y-62708082D01*
X126880500Y-62543767D01*
X126880500Y-62376233D01*
X126847816Y-62211918D01*
X126783703Y-62057137D01*
X126783701Y-62057134D01*
X126714671Y-61953822D01*
X126693793Y-61887145D01*
X126703211Y-61837481D01*
X126727816Y-61778082D01*
X126760500Y-61613767D01*
X126760500Y-61446233D01*
X126727816Y-61281918D01*
X126663703Y-61127137D01*
X126663698Y-61127129D01*
X126655783Y-61115283D01*
X126634904Y-61048606D01*
X126644321Y-60998942D01*
X126677816Y-60918082D01*
X126710500Y-60753767D01*
X126710500Y-60751500D01*
X126710836Y-60750355D01*
X126711097Y-60747706D01*
X126711599Y-60747755D01*
X126730185Y-60684461D01*
X126782989Y-60638706D01*
X126834500Y-60627500D01*
X130391831Y-60627500D01*
X130458870Y-60647185D01*
X130504625Y-60699989D01*
X130514569Y-60769147D01*
X130513077Y-60775884D01*
X130513372Y-60775943D01*
X130479500Y-60946228D01*
X130479500Y-61113771D01*
X130512182Y-61278074D01*
X130512184Y-61278082D01*
X130576295Y-61432860D01*
X130669373Y-61572162D01*
X130787837Y-61690626D01*
X130880494Y-61752537D01*
X130927137Y-61783703D01*
X131081918Y-61847816D01*
X131246158Y-61880485D01*
X131246228Y-61880499D01*
X131246232Y-61880500D01*
X131385500Y-61880500D01*
X131394185Y-61883050D01*
X131403147Y-61881762D01*
X131427187Y-61892740D01*
X131452539Y-61900185D01*
X131458466Y-61907025D01*
X131466703Y-61910787D01*
X131480992Y-61933021D01*
X131498294Y-61952989D01*
X131500581Y-61963503D01*
X131504477Y-61969565D01*
X131509500Y-62004500D01*
X131509500Y-62025638D01*
X131489815Y-62092677D01*
X131473181Y-62113319D01*
X126460535Y-67125964D01*
X126460533Y-67125966D01*
X126448576Y-67143863D01*
X126448571Y-67143870D01*
X126446504Y-67146965D01*
X126361987Y-67273453D01*
X126338886Y-67329225D01*
X126335648Y-67337040D01*
X126335646Y-67337045D01*
X126294105Y-67437333D01*
X126294103Y-67437341D01*
X126259500Y-67611303D01*
X126259500Y-67788696D01*
X126294103Y-67962658D01*
X126294105Y-67962666D01*
X126305133Y-67989291D01*
X126317437Y-68018993D01*
X126361987Y-68126547D01*
X126421063Y-68214959D01*
X126424580Y-68220224D01*
X126424583Y-68220228D01*
X126460533Y-68274032D01*
X126460536Y-68274036D01*
X126585964Y-68399464D01*
X126619180Y-68421658D01*
X126619181Y-68421659D01*
X126733448Y-68498010D01*
X126733449Y-68498010D01*
X126733453Y-68498013D01*
X126802143Y-68526465D01*
X126897334Y-68565895D01*
X127071303Y-68600499D01*
X127071307Y-68600500D01*
X127071308Y-68600500D01*
X127248693Y-68600500D01*
X127248694Y-68600499D01*
X127422666Y-68565895D01*
X127517857Y-68526465D01*
X127586547Y-68498013D01*
X127700820Y-68421658D01*
X127734036Y-68399464D01*
X133109464Y-63024036D01*
X133156237Y-62954035D01*
X133208013Y-62876547D01*
X133249675Y-62775965D01*
X133275895Y-62712666D01*
X133310500Y-62538692D01*
X133310500Y-62361308D01*
X133310500Y-57794984D01*
X133310500Y-57794981D01*
X133310499Y-57794979D01*
X133275896Y-57621016D01*
X133275893Y-57621007D01*
X133273245Y-57614615D01*
X133231475Y-57513771D01*
X133208016Y-57457134D01*
X133208009Y-57457121D01*
X133109465Y-57309641D01*
X133046961Y-57247137D01*
X132984035Y-57184211D01*
X132656119Y-56856295D01*
X131579007Y-55779181D01*
X131545522Y-55717858D01*
X131550506Y-55648166D01*
X131592378Y-55592233D01*
X131657842Y-55567816D01*
X131666688Y-55567500D01*
X135115817Y-55567500D01*
X135148317Y-55577043D01*
G37*
%TD.AperFunction*%
%TA.AperFunction,Conductor*%
G36*
X114949757Y-57310185D02*
G01*
X114995512Y-57362989D01*
X115005456Y-57432147D01*
X114976431Y-57495703D01*
X114970399Y-57502181D01*
X97671398Y-74801181D01*
X97610075Y-74834666D01*
X97583717Y-74837500D01*
X96903398Y-74837500D01*
X96819319Y-74848060D01*
X96686353Y-74903136D01*
X96619434Y-74955121D01*
X96619427Y-74955127D01*
X96115117Y-75459436D01*
X96115106Y-75459449D01*
X96087924Y-75494441D01*
X96031252Y-75535308D01*
X95961483Y-75539048D01*
X95900767Y-75504474D01*
X95892075Y-75494442D01*
X95864887Y-75459444D01*
X95864882Y-75459438D01*
X95864879Y-75459434D01*
X95659148Y-75253703D01*
X95433819Y-75028373D01*
X95400334Y-74967050D01*
X95397500Y-74940692D01*
X95397500Y-68051280D01*
X95417185Y-67984241D01*
X95433814Y-67963604D01*
X102712819Y-60684598D01*
X102774142Y-60651114D01*
X102843834Y-60656098D01*
X102899767Y-60697970D01*
X102924184Y-60763434D01*
X102924500Y-60772280D01*
X102924500Y-60863696D01*
X102959103Y-61037658D01*
X102959105Y-61037666D01*
X103026988Y-61201548D01*
X103125534Y-61349034D01*
X103125540Y-61349041D01*
X103250958Y-61474459D01*
X103250965Y-61474465D01*
X103398451Y-61573011D01*
X103398452Y-61573011D01*
X103398453Y-61573012D01*
X103562334Y-61640895D01*
X103736303Y-61675499D01*
X103736307Y-61675500D01*
X103736308Y-61675500D01*
X103913693Y-61675500D01*
X103913694Y-61675499D01*
X104087666Y-61640895D01*
X104251547Y-61573012D01*
X104399036Y-61474464D01*
X108546680Y-57326818D01*
X108608003Y-57293334D01*
X108634361Y-57290500D01*
X114882718Y-57290500D01*
X114949757Y-57310185D01*
G37*
%TD.AperFunction*%
%TD*%
M02*
