M48
; DRILL file {KiCad 9.0.3} date 2025-12-03T20:13:31+0530
; FORMAT={-:-/ absolute / metric / decimal}
; #@! TF.CreationDate,2025-12-03T20:13:31+05:30
; #@! TF.GenerationSoftware,Kicad,Pcbnew,9.0.3
; #@! TF.FileFunction,Plated,1,2,PTH
FMAT,2
METRIC
; #@! TA.AperFunction,Plated,PTH,ComponentDrill
T1C0.200
; #@! TA.AperFunction,Plated,PTH,ViaDrill
T2C0.400
; #@! TA.AperFunction,Plated,PTH,ComponentDrill
T3C0.450
; #@! TA.AperFunction,Plated,PTH,ViaDrill
T4C0.500
; #@! TA.AperFunction,Plated,PTH,ViaDrill
T5C0.600
; #@! TA.AperFunction,Plated,PTH,ViaDrill
T6C0.700
; #@! TA.AperFunction,Plated,PTH,ComponentDrill
T7C0.800
; #@! TA.AperFunction,Plated,PTH,ViaDrill
T8C1.000
; #@! TA.AperFunction,Plated,PTH,ComponentDrill
T9C1.000
; #@! TA.AperFunction,Plated,PTH,ComponentDrill
T10C1.016
; #@! TA.AperFunction,Plated,PTH,ComponentDrill
T11C1.070
; #@! TA.AperFunction,Plated,PTH,ViaDrill
T12C1.500
%
G90
G05
T1
X172.21Y-59.89
X173.31Y-58.79
X173.31Y-59.89
X173.31Y-60.99
X174.41Y-59.89
T2
X103.825Y-60.775
X104.09Y-75.56
X108.13Y-74.99
X112.06Y-74.5
X113.91Y-81.63
X114.94Y-83.28
X115.73Y-66.4
X117.41Y-70.56
X117.56Y-83.26
X118.855Y-64.8
X120.465Y-83.305
X125.04Y-73.51
X125.86Y-60.67
X125.91Y-61.53
X126.03Y-62.46
X127.15Y-73.41
X129.39Y-57.56
X129.97Y-58.4
X130.73Y-59.2
X131.33Y-61.03
X133.26Y-72.49
X134.01Y-72.03
X135.27Y-57.43
X135.6Y-56.54
X137.8Y-67.95
X140.67Y-57.61
X142.18Y-63.49
X142.2Y-57.65
X143.73Y-57.62
X144.79Y-61.39
X152.524Y-58.934
X154.16Y-59.19
X155.16Y-57.08
X155.43Y-57.99
X167.655Y-78.552
X167.655Y-80.828
X172.81Y-73.99
X174.73Y-83.18
X176.34Y-61.25
X179.18Y-79.54
T4
X123.915Y-81.515
X127.16Y-67.7
X129.29Y-89.26
T5
X170.3Y-78.18
T6
X177.35Y-70.83
T7
X166.71Y-87.45
X169.25Y-87.45
X171.79Y-87.45
T8
X140.25Y-85.01
X141.54Y-72.81
X145.45Y-65.77
X163.76Y-49.3
T9
X102.24Y-44.98
X102.24Y-47.52
X104.78Y-44.98
X104.78Y-47.52
X107.32Y-44.98
X107.32Y-47.52
X109.86Y-44.98
X109.86Y-47.52
X112.4Y-44.98
X112.4Y-47.52
X114.94Y-44.98
X114.94Y-47.52
X117.48Y-44.98
X117.48Y-47.52
X120.02Y-44.98
X120.02Y-47.52
X122.56Y-44.98
X122.56Y-47.52
X125.1Y-44.98
X125.1Y-47.52
X127.64Y-44.98
X127.64Y-47.52
X130.18Y-44.98
X130.18Y-47.52
X132.72Y-44.98
X132.72Y-47.52
X135.26Y-44.98
X135.26Y-47.52
X137.683Y-87.475
X137.8Y-44.98
X137.8Y-47.52
X140.222Y-87.475
X140.34Y-44.98
X140.34Y-47.52
X142.762Y-87.475
X142.88Y-44.98
X142.88Y-47.52
X145.302Y-87.475
X145.42Y-44.98
X145.42Y-47.52
X147.843Y-87.475
X147.96Y-44.98
X147.96Y-47.52
X150.5Y-44.98
X150.5Y-47.52
X177.92Y-85.4
X180.46Y-85.4
X183.0Y-85.4
T10
X94.72Y-76.1
X94.72Y-78.64
X94.72Y-81.18
X94.72Y-83.72
X94.72Y-86.26
X97.26Y-76.1
X97.26Y-78.64
X97.26Y-81.18
X97.26Y-83.72
X97.26Y-86.26
X97.95Y-56.41
X97.95Y-58.95
X165.18Y-52.88
X165.18Y-55.42
X165.18Y-57.96
X165.18Y-60.5
X165.18Y-63.04
X165.18Y-65.58
X182.96Y-55.42
X182.96Y-57.96
X182.96Y-60.5
X182.96Y-63.04
T11
X102.572Y-86.655
X102.572Y-89.195
X105.112Y-86.655
X105.112Y-89.195
X107.652Y-86.655
X107.652Y-89.195
X113.902Y-86.665
X113.902Y-89.205
X116.442Y-86.665
X116.442Y-89.205
X118.983Y-86.665
X118.983Y-89.205
T12
X97.71Y-68.38
X110.26Y-71.69
X113.43Y-50.62
X121.42Y-90.52
X121.5Y-76.01
X151.51Y-85.6
X167.39Y-83.69
T3
G00X163.825Y-46.11
M15
G01X163.825Y-45.31
M16
G05
G00X170.975Y-46.11
M15
G01X170.975Y-45.31
M16
G05
M30
