%TF.GenerationSoftware,KiCad,Pcbnew,9.0.3*%
%TF.CreationDate,2025-12-03T20:13:16+05:30*%
%TF.ProjectId,cpm_vehicle_pcb,63706d5f-7665-4686-9963-6c655f706362,rev?*%
%TF.SameCoordinates,Original*%
%TF.FileFunction,Legend,Top*%
%TF.FilePolarity,Positive*%
%FSLAX46Y46*%
G04 Gerber Fmt 4.6, Leading zero omitted, Abs format (unit mm)*
G04 Created by KiCad (PCBNEW 9.0.3) date 2025-12-03 20:13:16*
%MOMM*%
%LPD*%
G01*
G04 APERTURE LIST*
%ADD10C,0.100000*%
%ADD11C,0.150000*%
%ADD12C,0.091440*%
%ADD13C,0.060960*%
%ADD14C,0.101600*%
%ADD15C,0.093472*%
%ADD16C,0.059822*%
%ADD17C,0.120000*%
%ADD18C,0.127000*%
%ADD19C,0.152400*%
%ADD20C,0.076200*%
%ADD21C,0.762000*%
%ADD22C,0.000000*%
%ADD23C,0.254000*%
%ADD24C,0.200000*%
%ADD25C,0.203200*%
G04 APERTURE END LIST*
D10*
X101684836Y-90953133D02*
X102065789Y-90953133D01*
X101875312Y-91143609D02*
X101875312Y-90762657D01*
X102541979Y-90643609D02*
X102303884Y-90643609D01*
X102303884Y-90643609D02*
X102280075Y-90881704D01*
X102280075Y-90881704D02*
X102303884Y-90857895D01*
X102303884Y-90857895D02*
X102351503Y-90834085D01*
X102351503Y-90834085D02*
X102470551Y-90834085D01*
X102470551Y-90834085D02*
X102518170Y-90857895D01*
X102518170Y-90857895D02*
X102541979Y-90881704D01*
X102541979Y-90881704D02*
X102565789Y-90929323D01*
X102565789Y-90929323D02*
X102565789Y-91048371D01*
X102565789Y-91048371D02*
X102541979Y-91095990D01*
X102541979Y-91095990D02*
X102518170Y-91119800D01*
X102518170Y-91119800D02*
X102470551Y-91143609D01*
X102470551Y-91143609D02*
X102351503Y-91143609D01*
X102351503Y-91143609D02*
X102303884Y-91119800D01*
X102303884Y-91119800D02*
X102280075Y-91095990D01*
X102708646Y-90643609D02*
X102875312Y-91143609D01*
X102875312Y-91143609D02*
X103041979Y-90643609D01*
X96564836Y-88113133D02*
X96945789Y-88113133D01*
X96755312Y-88303609D02*
X96755312Y-87922657D01*
X97421979Y-87803609D02*
X97183884Y-87803609D01*
X97183884Y-87803609D02*
X97160075Y-88041704D01*
X97160075Y-88041704D02*
X97183884Y-88017895D01*
X97183884Y-88017895D02*
X97231503Y-87994085D01*
X97231503Y-87994085D02*
X97350551Y-87994085D01*
X97350551Y-87994085D02*
X97398170Y-88017895D01*
X97398170Y-88017895D02*
X97421979Y-88041704D01*
X97421979Y-88041704D02*
X97445789Y-88089323D01*
X97445789Y-88089323D02*
X97445789Y-88208371D01*
X97445789Y-88208371D02*
X97421979Y-88255990D01*
X97421979Y-88255990D02*
X97398170Y-88279800D01*
X97398170Y-88279800D02*
X97350551Y-88303609D01*
X97350551Y-88303609D02*
X97231503Y-88303609D01*
X97231503Y-88303609D02*
X97183884Y-88279800D01*
X97183884Y-88279800D02*
X97160075Y-88255990D01*
X97588646Y-87803609D02*
X97755312Y-88303609D01*
X97755312Y-88303609D02*
X97921979Y-87803609D01*
X94396741Y-87887419D02*
X94349122Y-87863609D01*
X94349122Y-87863609D02*
X94277693Y-87863609D01*
X94277693Y-87863609D02*
X94206265Y-87887419D01*
X94206265Y-87887419D02*
X94158646Y-87935038D01*
X94158646Y-87935038D02*
X94134836Y-87982657D01*
X94134836Y-87982657D02*
X94111027Y-88077895D01*
X94111027Y-88077895D02*
X94111027Y-88149323D01*
X94111027Y-88149323D02*
X94134836Y-88244561D01*
X94134836Y-88244561D02*
X94158646Y-88292180D01*
X94158646Y-88292180D02*
X94206265Y-88339800D01*
X94206265Y-88339800D02*
X94277693Y-88363609D01*
X94277693Y-88363609D02*
X94325312Y-88363609D01*
X94325312Y-88363609D02*
X94396741Y-88339800D01*
X94396741Y-88339800D02*
X94420550Y-88315990D01*
X94420550Y-88315990D02*
X94420550Y-88149323D01*
X94420550Y-88149323D02*
X94325312Y-88149323D01*
X94634836Y-88363609D02*
X94634836Y-87863609D01*
X94634836Y-87863609D02*
X94920550Y-88363609D01*
X94920550Y-88363609D02*
X94920550Y-87863609D01*
X95158646Y-88363609D02*
X95158646Y-87863609D01*
X95158646Y-87863609D02*
X95277694Y-87863609D01*
X95277694Y-87863609D02*
X95349122Y-87887419D01*
X95349122Y-87887419D02*
X95396741Y-87935038D01*
X95396741Y-87935038D02*
X95420551Y-87982657D01*
X95420551Y-87982657D02*
X95444360Y-88077895D01*
X95444360Y-88077895D02*
X95444360Y-88149323D01*
X95444360Y-88149323D02*
X95420551Y-88244561D01*
X95420551Y-88244561D02*
X95396741Y-88292180D01*
X95396741Y-88292180D02*
X95349122Y-88339800D01*
X95349122Y-88339800D02*
X95277694Y-88363609D01*
X95277694Y-88363609D02*
X95158646Y-88363609D01*
D11*
X118334819Y-82601666D02*
X117858628Y-82934999D01*
X118334819Y-83173094D02*
X117334819Y-83173094D01*
X117334819Y-83173094D02*
X117334819Y-82792142D01*
X117334819Y-82792142D02*
X117382438Y-82696904D01*
X117382438Y-82696904D02*
X117430057Y-82649285D01*
X117430057Y-82649285D02*
X117525295Y-82601666D01*
X117525295Y-82601666D02*
X117668152Y-82601666D01*
X117668152Y-82601666D02*
X117763390Y-82649285D01*
X117763390Y-82649285D02*
X117811009Y-82696904D01*
X117811009Y-82696904D02*
X117858628Y-82792142D01*
X117858628Y-82792142D02*
X117858628Y-83173094D01*
X117430057Y-82220713D02*
X117382438Y-82173094D01*
X117382438Y-82173094D02*
X117334819Y-82077856D01*
X117334819Y-82077856D02*
X117334819Y-81839761D01*
X117334819Y-81839761D02*
X117382438Y-81744523D01*
X117382438Y-81744523D02*
X117430057Y-81696904D01*
X117430057Y-81696904D02*
X117525295Y-81649285D01*
X117525295Y-81649285D02*
X117620533Y-81649285D01*
X117620533Y-81649285D02*
X117763390Y-81696904D01*
X117763390Y-81696904D02*
X118334819Y-82268332D01*
X118334819Y-82268332D02*
X118334819Y-81649285D01*
X170037142Y-66824819D02*
X169703809Y-66348628D01*
X169465714Y-66824819D02*
X169465714Y-65824819D01*
X169465714Y-65824819D02*
X169846666Y-65824819D01*
X169846666Y-65824819D02*
X169941904Y-65872438D01*
X169941904Y-65872438D02*
X169989523Y-65920057D01*
X169989523Y-65920057D02*
X170037142Y-66015295D01*
X170037142Y-66015295D02*
X170037142Y-66158152D01*
X170037142Y-66158152D02*
X169989523Y-66253390D01*
X169989523Y-66253390D02*
X169941904Y-66301009D01*
X169941904Y-66301009D02*
X169846666Y-66348628D01*
X169846666Y-66348628D02*
X169465714Y-66348628D01*
X170418095Y-65920057D02*
X170465714Y-65872438D01*
X170465714Y-65872438D02*
X170560952Y-65824819D01*
X170560952Y-65824819D02*
X170799047Y-65824819D01*
X170799047Y-65824819D02*
X170894285Y-65872438D01*
X170894285Y-65872438D02*
X170941904Y-65920057D01*
X170941904Y-65920057D02*
X170989523Y-66015295D01*
X170989523Y-66015295D02*
X170989523Y-66110533D01*
X170989523Y-66110533D02*
X170941904Y-66253390D01*
X170941904Y-66253390D02*
X170370476Y-66824819D01*
X170370476Y-66824819D02*
X170989523Y-66824819D01*
X171465714Y-66824819D02*
X171656190Y-66824819D01*
X171656190Y-66824819D02*
X171751428Y-66777200D01*
X171751428Y-66777200D02*
X171799047Y-66729580D01*
X171799047Y-66729580D02*
X171894285Y-66586723D01*
X171894285Y-66586723D02*
X171941904Y-66396247D01*
X171941904Y-66396247D02*
X171941904Y-66015295D01*
X171941904Y-66015295D02*
X171894285Y-65920057D01*
X171894285Y-65920057D02*
X171846666Y-65872438D01*
X171846666Y-65872438D02*
X171751428Y-65824819D01*
X171751428Y-65824819D02*
X171560952Y-65824819D01*
X171560952Y-65824819D02*
X171465714Y-65872438D01*
X171465714Y-65872438D02*
X171418095Y-65920057D01*
X171418095Y-65920057D02*
X171370476Y-66015295D01*
X171370476Y-66015295D02*
X171370476Y-66253390D01*
X171370476Y-66253390D02*
X171418095Y-66348628D01*
X171418095Y-66348628D02*
X171465714Y-66396247D01*
X171465714Y-66396247D02*
X171560952Y-66443866D01*
X171560952Y-66443866D02*
X171751428Y-66443866D01*
X171751428Y-66443866D02*
X171846666Y-66396247D01*
X171846666Y-66396247D02*
X171894285Y-66348628D01*
X171894285Y-66348628D02*
X171941904Y-66253390D01*
D12*
X167293444Y-70885480D02*
X167854663Y-70885480D01*
X167181200Y-71222211D02*
X167574054Y-70043651D01*
X167574054Y-70043651D02*
X167966907Y-71222211D01*
X168977101Y-71222211D02*
X168303638Y-71222211D01*
X168640370Y-71222211D02*
X168640370Y-70043651D01*
X168640370Y-70043651D02*
X168528126Y-70212017D01*
X168528126Y-70212017D02*
X168415882Y-70324261D01*
X168415882Y-70324261D02*
X168303638Y-70380383D01*
D13*
X180246363Y-63329260D02*
X179912535Y-63329260D01*
X180313129Y-63128963D02*
X180079449Y-63830003D01*
X180079449Y-63830003D02*
X179845769Y-63128963D01*
X179612089Y-63128963D02*
X179612089Y-63830003D01*
X179612089Y-63830003D02*
X179445175Y-63830003D01*
X179445175Y-63830003D02*
X179345026Y-63796620D01*
X179345026Y-63796620D02*
X179278261Y-63729854D01*
X179278261Y-63729854D02*
X179244878Y-63663088D01*
X179244878Y-63663088D02*
X179211495Y-63529557D01*
X179211495Y-63529557D02*
X179211495Y-63429408D01*
X179211495Y-63429408D02*
X179244878Y-63295877D01*
X179244878Y-63295877D02*
X179278261Y-63229111D01*
X179278261Y-63229111D02*
X179345026Y-63162346D01*
X179345026Y-63162346D02*
X179445175Y-63128963D01*
X179445175Y-63128963D02*
X179612089Y-63128963D01*
X178510455Y-63128963D02*
X178744135Y-63462791D01*
X178911049Y-63128963D02*
X178911049Y-63830003D01*
X178911049Y-63830003D02*
X178643986Y-63830003D01*
X178643986Y-63830003D02*
X178577221Y-63796620D01*
X178577221Y-63796620D02*
X178543838Y-63763237D01*
X178543838Y-63763237D02*
X178510455Y-63696471D01*
X178510455Y-63696471D02*
X178510455Y-63596323D01*
X178510455Y-63596323D02*
X178543838Y-63529557D01*
X178543838Y-63529557D02*
X178577221Y-63496174D01*
X178577221Y-63496174D02*
X178643986Y-63462791D01*
X178643986Y-63462791D02*
X178911049Y-63462791D01*
X167860253Y-54629996D02*
X168294230Y-54629996D01*
X168294230Y-54629996D02*
X168060550Y-54897059D01*
X168060550Y-54897059D02*
X168160699Y-54897059D01*
X168160699Y-54897059D02*
X168227465Y-54930442D01*
X168227465Y-54930442D02*
X168260847Y-54963825D01*
X168260847Y-54963825D02*
X168294230Y-55030591D01*
X168294230Y-55030591D02*
X168294230Y-55197505D01*
X168294230Y-55197505D02*
X168260847Y-55264271D01*
X168260847Y-55264271D02*
X168227465Y-55297654D01*
X168227465Y-55297654D02*
X168160699Y-55331036D01*
X168160699Y-55331036D02*
X167960402Y-55331036D01*
X167960402Y-55331036D02*
X167893636Y-55297654D01*
X167893636Y-55297654D02*
X167860253Y-55264271D01*
X168494527Y-54629996D02*
X168728207Y-55331036D01*
X168728207Y-55331036D02*
X168961887Y-54629996D01*
X169329098Y-54629996D02*
X169462630Y-54629996D01*
X169462630Y-54629996D02*
X169529395Y-54663379D01*
X169529395Y-54663379D02*
X169596161Y-54730145D01*
X169596161Y-54730145D02*
X169629544Y-54863676D01*
X169629544Y-54863676D02*
X169629544Y-55097356D01*
X169629544Y-55097356D02*
X169596161Y-55230888D01*
X169596161Y-55230888D02*
X169529395Y-55297654D01*
X169529395Y-55297654D02*
X169462630Y-55331036D01*
X169462630Y-55331036D02*
X169329098Y-55331036D01*
X169329098Y-55331036D02*
X169262333Y-55297654D01*
X169262333Y-55297654D02*
X169195567Y-55230888D01*
X169195567Y-55230888D02*
X169162184Y-55097356D01*
X169162184Y-55097356D02*
X169162184Y-54863676D01*
X169162184Y-54863676D02*
X169195567Y-54730145D01*
X169195567Y-54730145D02*
X169262333Y-54663379D01*
X169262333Y-54663379D02*
X169329098Y-54629996D01*
X180212980Y-60588963D02*
X180212980Y-61290003D01*
X179879151Y-60588963D02*
X179879151Y-61290003D01*
X179879151Y-61290003D02*
X179478557Y-60588963D01*
X179478557Y-60588963D02*
X179478557Y-61290003D01*
X179244877Y-61290003D02*
X178844283Y-61290003D01*
X179044580Y-60588963D02*
X179044580Y-61290003D01*
D14*
X173145032Y-47651726D02*
X173145032Y-46483326D01*
X173701413Y-47651726D02*
X173701413Y-46483326D01*
X173701413Y-46483326D02*
X174090880Y-47317897D01*
X174090880Y-47317897D02*
X174480346Y-46483326D01*
X174480346Y-46483326D02*
X174480346Y-47651726D01*
X175036727Y-46483326D02*
X175036727Y-47429173D01*
X175036727Y-47429173D02*
X175092365Y-47540449D01*
X175092365Y-47540449D02*
X175148003Y-47596088D01*
X175148003Y-47596088D02*
X175259279Y-47651726D01*
X175259279Y-47651726D02*
X175481832Y-47651726D01*
X175481832Y-47651726D02*
X175593108Y-47596088D01*
X175593108Y-47596088D02*
X175648746Y-47540449D01*
X175648746Y-47540449D02*
X175704384Y-47429173D01*
X175704384Y-47429173D02*
X175704384Y-46483326D01*
D13*
X168144230Y-57193379D02*
X168077465Y-57159996D01*
X168077465Y-57159996D02*
X167977316Y-57159996D01*
X167977316Y-57159996D02*
X167877167Y-57193379D01*
X167877167Y-57193379D02*
X167810402Y-57260145D01*
X167810402Y-57260145D02*
X167777019Y-57326911D01*
X167777019Y-57326911D02*
X167743636Y-57460442D01*
X167743636Y-57460442D02*
X167743636Y-57560591D01*
X167743636Y-57560591D02*
X167777019Y-57694122D01*
X167777019Y-57694122D02*
X167810402Y-57760888D01*
X167810402Y-57760888D02*
X167877167Y-57827654D01*
X167877167Y-57827654D02*
X167977316Y-57861036D01*
X167977316Y-57861036D02*
X168044082Y-57861036D01*
X168044082Y-57861036D02*
X168144230Y-57827654D01*
X168144230Y-57827654D02*
X168177613Y-57794271D01*
X168177613Y-57794271D02*
X168177613Y-57560591D01*
X168177613Y-57560591D02*
X168044082Y-57560591D01*
X168478059Y-57861036D02*
X168478059Y-57159996D01*
X168478059Y-57159996D02*
X168878653Y-57861036D01*
X168878653Y-57861036D02*
X168878653Y-57159996D01*
X169212482Y-57861036D02*
X169212482Y-57159996D01*
X169212482Y-57159996D02*
X169379396Y-57159996D01*
X169379396Y-57159996D02*
X169479545Y-57193379D01*
X169479545Y-57193379D02*
X169546310Y-57260145D01*
X169546310Y-57260145D02*
X169579693Y-57326911D01*
X169579693Y-57326911D02*
X169613076Y-57460442D01*
X169613076Y-57460442D02*
X169613076Y-57560591D01*
X169613076Y-57560591D02*
X169579693Y-57694122D01*
X169579693Y-57694122D02*
X169546310Y-57760888D01*
X169546310Y-57760888D02*
X169479545Y-57827654D01*
X169479545Y-57827654D02*
X169379396Y-57861036D01*
X169379396Y-57861036D02*
X169212482Y-57861036D01*
X168327613Y-65491036D02*
X168093933Y-65157208D01*
X167927019Y-65491036D02*
X167927019Y-64789996D01*
X167927019Y-64789996D02*
X168194082Y-64789996D01*
X168194082Y-64789996D02*
X168260847Y-64823379D01*
X168260847Y-64823379D02*
X168294230Y-64856762D01*
X168294230Y-64856762D02*
X168327613Y-64923528D01*
X168327613Y-64923528D02*
X168327613Y-65023676D01*
X168327613Y-65023676D02*
X168294230Y-65090442D01*
X168294230Y-65090442D02*
X168260847Y-65123825D01*
X168260847Y-65123825D02*
X168194082Y-65157208D01*
X168194082Y-65157208D02*
X167927019Y-65157208D01*
X168594676Y-65457654D02*
X168694825Y-65491036D01*
X168694825Y-65491036D02*
X168861739Y-65491036D01*
X168861739Y-65491036D02*
X168928505Y-65457654D01*
X168928505Y-65457654D02*
X168961887Y-65424271D01*
X168961887Y-65424271D02*
X168995270Y-65357505D01*
X168995270Y-65357505D02*
X168995270Y-65290739D01*
X168995270Y-65290739D02*
X168961887Y-65223974D01*
X168961887Y-65223974D02*
X168928505Y-65190591D01*
X168928505Y-65190591D02*
X168861739Y-65157208D01*
X168861739Y-65157208D02*
X168728207Y-65123825D01*
X168728207Y-65123825D02*
X168661442Y-65090442D01*
X168661442Y-65090442D02*
X168628059Y-65057059D01*
X168628059Y-65057059D02*
X168594676Y-64990294D01*
X168594676Y-64990294D02*
X168594676Y-64923528D01*
X168594676Y-64923528D02*
X168628059Y-64856762D01*
X168628059Y-64856762D02*
X168661442Y-64823379D01*
X168661442Y-64823379D02*
X168728207Y-64789996D01*
X168728207Y-64789996D02*
X168895122Y-64789996D01*
X168895122Y-64789996D02*
X168995270Y-64823379D01*
X169195567Y-64789996D02*
X169596162Y-64789996D01*
X169395864Y-65491036D02*
X169395864Y-64789996D01*
X167826870Y-52089996D02*
X168060550Y-52791036D01*
X168060550Y-52791036D02*
X168294230Y-52089996D01*
X168527910Y-52791036D02*
X168527910Y-52089996D01*
X168861739Y-52791036D02*
X168861739Y-52089996D01*
X168861739Y-52089996D02*
X169262333Y-52791036D01*
X169262333Y-52791036D02*
X169262333Y-52089996D01*
X180212980Y-58048963D02*
X180212980Y-58750003D01*
X180212980Y-58750003D02*
X179945917Y-58750003D01*
X179945917Y-58750003D02*
X179879152Y-58716620D01*
X179879152Y-58716620D02*
X179845769Y-58683237D01*
X179845769Y-58683237D02*
X179812386Y-58616471D01*
X179812386Y-58616471D02*
X179812386Y-58516323D01*
X179812386Y-58516323D02*
X179845769Y-58449557D01*
X179845769Y-58449557D02*
X179879152Y-58416174D01*
X179879152Y-58416174D02*
X179945917Y-58382791D01*
X179945917Y-58382791D02*
X180212980Y-58382791D01*
X179545323Y-58082346D02*
X179445175Y-58048963D01*
X179445175Y-58048963D02*
X179278260Y-58048963D01*
X179278260Y-58048963D02*
X179211495Y-58082346D01*
X179211495Y-58082346D02*
X179178112Y-58115728D01*
X179178112Y-58115728D02*
X179144729Y-58182494D01*
X179144729Y-58182494D02*
X179144729Y-58249260D01*
X179144729Y-58249260D02*
X179178112Y-58316026D01*
X179178112Y-58316026D02*
X179211495Y-58349408D01*
X179211495Y-58349408D02*
X179278260Y-58382791D01*
X179278260Y-58382791D02*
X179411792Y-58416174D01*
X179411792Y-58416174D02*
X179478557Y-58449557D01*
X179478557Y-58449557D02*
X179511940Y-58482940D01*
X179511940Y-58482940D02*
X179545323Y-58549706D01*
X179545323Y-58549706D02*
X179545323Y-58616471D01*
X179545323Y-58616471D02*
X179511940Y-58683237D01*
X179511940Y-58683237D02*
X179478557Y-58716620D01*
X179478557Y-58716620D02*
X179411792Y-58750003D01*
X179411792Y-58750003D02*
X179244877Y-58750003D01*
X179244877Y-58750003D02*
X179144729Y-58716620D01*
X178477072Y-58048963D02*
X178877666Y-58048963D01*
X178677369Y-58048963D02*
X178677369Y-58750003D01*
X178677369Y-58750003D02*
X178744135Y-58649854D01*
X178744135Y-58649854D02*
X178810900Y-58583088D01*
X178810900Y-58583088D02*
X178877666Y-58549706D01*
X167893636Y-60377654D02*
X167993785Y-60411036D01*
X167993785Y-60411036D02*
X168160699Y-60411036D01*
X168160699Y-60411036D02*
X168227465Y-60377654D01*
X168227465Y-60377654D02*
X168260847Y-60344271D01*
X168260847Y-60344271D02*
X168294230Y-60277505D01*
X168294230Y-60277505D02*
X168294230Y-60210739D01*
X168294230Y-60210739D02*
X168260847Y-60143974D01*
X168260847Y-60143974D02*
X168227465Y-60110591D01*
X168227465Y-60110591D02*
X168160699Y-60077208D01*
X168160699Y-60077208D02*
X168027167Y-60043825D01*
X168027167Y-60043825D02*
X167960402Y-60010442D01*
X167960402Y-60010442D02*
X167927019Y-59977059D01*
X167927019Y-59977059D02*
X167893636Y-59910294D01*
X167893636Y-59910294D02*
X167893636Y-59843528D01*
X167893636Y-59843528D02*
X167927019Y-59776762D01*
X167927019Y-59776762D02*
X167960402Y-59743379D01*
X167960402Y-59743379D02*
X168027167Y-59709996D01*
X168027167Y-59709996D02*
X168194082Y-59709996D01*
X168194082Y-59709996D02*
X168294230Y-59743379D01*
X168594676Y-60411036D02*
X168594676Y-59709996D01*
X168594676Y-59709996D02*
X168761590Y-59709996D01*
X168761590Y-59709996D02*
X168861739Y-59743379D01*
X168861739Y-59743379D02*
X168928504Y-59810145D01*
X168928504Y-59810145D02*
X168961887Y-59876911D01*
X168961887Y-59876911D02*
X168995270Y-60010442D01*
X168995270Y-60010442D02*
X168995270Y-60110591D01*
X168995270Y-60110591D02*
X168961887Y-60244122D01*
X168961887Y-60244122D02*
X168928504Y-60310888D01*
X168928504Y-60310888D02*
X168861739Y-60377654D01*
X168861739Y-60377654D02*
X168761590Y-60411036D01*
X168761590Y-60411036D02*
X168594676Y-60411036D01*
X169262333Y-60210739D02*
X169596162Y-60210739D01*
X169195567Y-60411036D02*
X169429247Y-59709996D01*
X169429247Y-59709996D02*
X169662927Y-60411036D01*
X167893636Y-62917654D02*
X167993785Y-62951036D01*
X167993785Y-62951036D02*
X168160699Y-62951036D01*
X168160699Y-62951036D02*
X168227465Y-62917654D01*
X168227465Y-62917654D02*
X168260847Y-62884271D01*
X168260847Y-62884271D02*
X168294230Y-62817505D01*
X168294230Y-62817505D02*
X168294230Y-62750739D01*
X168294230Y-62750739D02*
X168260847Y-62683974D01*
X168260847Y-62683974D02*
X168227465Y-62650591D01*
X168227465Y-62650591D02*
X168160699Y-62617208D01*
X168160699Y-62617208D02*
X168027167Y-62583825D01*
X168027167Y-62583825D02*
X167960402Y-62550442D01*
X167960402Y-62550442D02*
X167927019Y-62517059D01*
X167927019Y-62517059D02*
X167893636Y-62450294D01*
X167893636Y-62450294D02*
X167893636Y-62383528D01*
X167893636Y-62383528D02*
X167927019Y-62316762D01*
X167927019Y-62316762D02*
X167960402Y-62283379D01*
X167960402Y-62283379D02*
X168027167Y-62249996D01*
X168027167Y-62249996D02*
X168194082Y-62249996D01*
X168194082Y-62249996D02*
X168294230Y-62283379D01*
X168995270Y-62884271D02*
X168961887Y-62917654D01*
X168961887Y-62917654D02*
X168861739Y-62951036D01*
X168861739Y-62951036D02*
X168794973Y-62951036D01*
X168794973Y-62951036D02*
X168694824Y-62917654D01*
X168694824Y-62917654D02*
X168628059Y-62850888D01*
X168628059Y-62850888D02*
X168594676Y-62784122D01*
X168594676Y-62784122D02*
X168561293Y-62650591D01*
X168561293Y-62650591D02*
X168561293Y-62550442D01*
X168561293Y-62550442D02*
X168594676Y-62416911D01*
X168594676Y-62416911D02*
X168628059Y-62350145D01*
X168628059Y-62350145D02*
X168694824Y-62283379D01*
X168694824Y-62283379D02*
X168794973Y-62249996D01*
X168794973Y-62249996D02*
X168861739Y-62249996D01*
X168861739Y-62249996D02*
X168961887Y-62283379D01*
X168961887Y-62283379D02*
X168995270Y-62316762D01*
X169629544Y-62951036D02*
X169295716Y-62951036D01*
X169295716Y-62951036D02*
X169295716Y-62249996D01*
X180212980Y-55508963D02*
X180212980Y-56210003D01*
X180212980Y-56210003D02*
X179945917Y-56210003D01*
X179945917Y-56210003D02*
X179879152Y-56176620D01*
X179879152Y-56176620D02*
X179845769Y-56143237D01*
X179845769Y-56143237D02*
X179812386Y-56076471D01*
X179812386Y-56076471D02*
X179812386Y-55976323D01*
X179812386Y-55976323D02*
X179845769Y-55909557D01*
X179845769Y-55909557D02*
X179879152Y-55876174D01*
X179879152Y-55876174D02*
X179945917Y-55842791D01*
X179945917Y-55842791D02*
X180212980Y-55842791D01*
X179545323Y-55542346D02*
X179445175Y-55508963D01*
X179445175Y-55508963D02*
X179278260Y-55508963D01*
X179278260Y-55508963D02*
X179211495Y-55542346D01*
X179211495Y-55542346D02*
X179178112Y-55575728D01*
X179178112Y-55575728D02*
X179144729Y-55642494D01*
X179144729Y-55642494D02*
X179144729Y-55709260D01*
X179144729Y-55709260D02*
X179178112Y-55776026D01*
X179178112Y-55776026D02*
X179211495Y-55809408D01*
X179211495Y-55809408D02*
X179278260Y-55842791D01*
X179278260Y-55842791D02*
X179411792Y-55876174D01*
X179411792Y-55876174D02*
X179478557Y-55909557D01*
X179478557Y-55909557D02*
X179511940Y-55942940D01*
X179511940Y-55942940D02*
X179545323Y-56009706D01*
X179545323Y-56009706D02*
X179545323Y-56076471D01*
X179545323Y-56076471D02*
X179511940Y-56143237D01*
X179511940Y-56143237D02*
X179478557Y-56176620D01*
X179478557Y-56176620D02*
X179411792Y-56210003D01*
X179411792Y-56210003D02*
X179244877Y-56210003D01*
X179244877Y-56210003D02*
X179144729Y-56176620D01*
X178710752Y-56210003D02*
X178643986Y-56210003D01*
X178643986Y-56210003D02*
X178577220Y-56176620D01*
X178577220Y-56176620D02*
X178543838Y-56143237D01*
X178543838Y-56143237D02*
X178510455Y-56076471D01*
X178510455Y-56076471D02*
X178477072Y-55942940D01*
X178477072Y-55942940D02*
X178477072Y-55776026D01*
X178477072Y-55776026D02*
X178510455Y-55642494D01*
X178510455Y-55642494D02*
X178543838Y-55575728D01*
X178543838Y-55575728D02*
X178577220Y-55542346D01*
X178577220Y-55542346D02*
X178643986Y-55508963D01*
X178643986Y-55508963D02*
X178710752Y-55508963D01*
X178710752Y-55508963D02*
X178777518Y-55542346D01*
X178777518Y-55542346D02*
X178810900Y-55575728D01*
X178810900Y-55575728D02*
X178844283Y-55642494D01*
X178844283Y-55642494D02*
X178877666Y-55776026D01*
X178877666Y-55776026D02*
X178877666Y-55942940D01*
X178877666Y-55942940D02*
X178844283Y-56076471D01*
X178844283Y-56076471D02*
X178810900Y-56143237D01*
X178810900Y-56143237D02*
X178777518Y-56176620D01*
X178777518Y-56176620D02*
X178710752Y-56210003D01*
D11*
X109916667Y-58487200D02*
X110059524Y-58534819D01*
X110059524Y-58534819D02*
X110297619Y-58534819D01*
X110297619Y-58534819D02*
X110392857Y-58487200D01*
X110392857Y-58487200D02*
X110440476Y-58439580D01*
X110440476Y-58439580D02*
X110488095Y-58344342D01*
X110488095Y-58344342D02*
X110488095Y-58249104D01*
X110488095Y-58249104D02*
X110440476Y-58153866D01*
X110440476Y-58153866D02*
X110392857Y-58106247D01*
X110392857Y-58106247D02*
X110297619Y-58058628D01*
X110297619Y-58058628D02*
X110107143Y-58011009D01*
X110107143Y-58011009D02*
X110011905Y-57963390D01*
X110011905Y-57963390D02*
X109964286Y-57915771D01*
X109964286Y-57915771D02*
X109916667Y-57820533D01*
X109916667Y-57820533D02*
X109916667Y-57725295D01*
X109916667Y-57725295D02*
X109964286Y-57630057D01*
X109964286Y-57630057D02*
X110011905Y-57582438D01*
X110011905Y-57582438D02*
X110107143Y-57534819D01*
X110107143Y-57534819D02*
X110345238Y-57534819D01*
X110345238Y-57534819D02*
X110488095Y-57582438D01*
X110821429Y-57534819D02*
X111059524Y-58534819D01*
X111059524Y-58534819D02*
X111250000Y-57820533D01*
X111250000Y-57820533D02*
X111440476Y-58534819D01*
X111440476Y-58534819D02*
X111678572Y-57534819D01*
X112583333Y-58534819D02*
X112011905Y-58534819D01*
X112297619Y-58534819D02*
X112297619Y-57534819D01*
X112297619Y-57534819D02*
X112202381Y-57677676D01*
X112202381Y-57677676D02*
X112107143Y-57772914D01*
X112107143Y-57772914D02*
X112011905Y-57820533D01*
X115794819Y-83550238D02*
X115318628Y-83883571D01*
X115794819Y-84121666D02*
X114794819Y-84121666D01*
X114794819Y-84121666D02*
X114794819Y-83740714D01*
X114794819Y-83740714D02*
X114842438Y-83645476D01*
X114842438Y-83645476D02*
X114890057Y-83597857D01*
X114890057Y-83597857D02*
X114985295Y-83550238D01*
X114985295Y-83550238D02*
X115128152Y-83550238D01*
X115128152Y-83550238D02*
X115223390Y-83597857D01*
X115223390Y-83597857D02*
X115271009Y-83645476D01*
X115271009Y-83645476D02*
X115318628Y-83740714D01*
X115318628Y-83740714D02*
X115318628Y-84121666D01*
X114794819Y-83216904D02*
X114794819Y-82597857D01*
X114794819Y-82597857D02*
X115175771Y-82931190D01*
X115175771Y-82931190D02*
X115175771Y-82788333D01*
X115175771Y-82788333D02*
X115223390Y-82693095D01*
X115223390Y-82693095D02*
X115271009Y-82645476D01*
X115271009Y-82645476D02*
X115366247Y-82597857D01*
X115366247Y-82597857D02*
X115604342Y-82597857D01*
X115604342Y-82597857D02*
X115699580Y-82645476D01*
X115699580Y-82645476D02*
X115747200Y-82693095D01*
X115747200Y-82693095D02*
X115794819Y-82788333D01*
X115794819Y-82788333D02*
X115794819Y-83074047D01*
X115794819Y-83074047D02*
X115747200Y-83169285D01*
X115747200Y-83169285D02*
X115699580Y-83216904D01*
X115794819Y-82026428D02*
X115747200Y-82121666D01*
X115747200Y-82121666D02*
X115699580Y-82169285D01*
X115699580Y-82169285D02*
X115604342Y-82216904D01*
X115604342Y-82216904D02*
X115318628Y-82216904D01*
X115318628Y-82216904D02*
X115223390Y-82169285D01*
X115223390Y-82169285D02*
X115175771Y-82121666D01*
X115175771Y-82121666D02*
X115128152Y-82026428D01*
X115128152Y-82026428D02*
X115128152Y-81883571D01*
X115128152Y-81883571D02*
X115175771Y-81788333D01*
X115175771Y-81788333D02*
X115223390Y-81740714D01*
X115223390Y-81740714D02*
X115318628Y-81693095D01*
X115318628Y-81693095D02*
X115604342Y-81693095D01*
X115604342Y-81693095D02*
X115699580Y-81740714D01*
X115699580Y-81740714D02*
X115747200Y-81788333D01*
X115747200Y-81788333D02*
X115794819Y-81883571D01*
X115794819Y-81883571D02*
X115794819Y-82026428D01*
X115794819Y-80740714D02*
X115794819Y-81312142D01*
X115794819Y-81026428D02*
X114794819Y-81026428D01*
X114794819Y-81026428D02*
X114937676Y-81121666D01*
X114937676Y-81121666D02*
X115032914Y-81216904D01*
X115032914Y-81216904D02*
X115080533Y-81312142D01*
X176334819Y-67752857D02*
X175858628Y-68086190D01*
X176334819Y-68324285D02*
X175334819Y-68324285D01*
X175334819Y-68324285D02*
X175334819Y-67943333D01*
X175334819Y-67943333D02*
X175382438Y-67848095D01*
X175382438Y-67848095D02*
X175430057Y-67800476D01*
X175430057Y-67800476D02*
X175525295Y-67752857D01*
X175525295Y-67752857D02*
X175668152Y-67752857D01*
X175668152Y-67752857D02*
X175763390Y-67800476D01*
X175763390Y-67800476D02*
X175811009Y-67848095D01*
X175811009Y-67848095D02*
X175858628Y-67943333D01*
X175858628Y-67943333D02*
X175858628Y-68324285D01*
X175430057Y-67371904D02*
X175382438Y-67324285D01*
X175382438Y-67324285D02*
X175334819Y-67229047D01*
X175334819Y-67229047D02*
X175334819Y-66990952D01*
X175334819Y-66990952D02*
X175382438Y-66895714D01*
X175382438Y-66895714D02*
X175430057Y-66848095D01*
X175430057Y-66848095D02*
X175525295Y-66800476D01*
X175525295Y-66800476D02*
X175620533Y-66800476D01*
X175620533Y-66800476D02*
X175763390Y-66848095D01*
X175763390Y-66848095D02*
X176334819Y-67419523D01*
X176334819Y-67419523D02*
X176334819Y-66800476D01*
X175430057Y-66419523D02*
X175382438Y-66371904D01*
X175382438Y-66371904D02*
X175334819Y-66276666D01*
X175334819Y-66276666D02*
X175334819Y-66038571D01*
X175334819Y-66038571D02*
X175382438Y-65943333D01*
X175382438Y-65943333D02*
X175430057Y-65895714D01*
X175430057Y-65895714D02*
X175525295Y-65848095D01*
X175525295Y-65848095D02*
X175620533Y-65848095D01*
X175620533Y-65848095D02*
X175763390Y-65895714D01*
X175763390Y-65895714D02*
X176334819Y-66467142D01*
X176334819Y-66467142D02*
X176334819Y-65848095D01*
D10*
X180282782Y-75250990D02*
X180258973Y-75274800D01*
X180258973Y-75274800D02*
X180187544Y-75298609D01*
X180187544Y-75298609D02*
X180139925Y-75298609D01*
X180139925Y-75298609D02*
X180068497Y-75274800D01*
X180068497Y-75274800D02*
X180020878Y-75227180D01*
X180020878Y-75227180D02*
X179997068Y-75179561D01*
X179997068Y-75179561D02*
X179973259Y-75084323D01*
X179973259Y-75084323D02*
X179973259Y-75012895D01*
X179973259Y-75012895D02*
X179997068Y-74917657D01*
X179997068Y-74917657D02*
X180020878Y-74870038D01*
X180020878Y-74870038D02*
X180068497Y-74822419D01*
X180068497Y-74822419D02*
X180139925Y-74798609D01*
X180139925Y-74798609D02*
X180187544Y-74798609D01*
X180187544Y-74798609D02*
X180258973Y-74822419D01*
X180258973Y-74822419D02*
X180282782Y-74846228D01*
X180520878Y-75298609D02*
X180616116Y-75298609D01*
X180616116Y-75298609D02*
X180663735Y-75274800D01*
X180663735Y-75274800D02*
X180687544Y-75250990D01*
X180687544Y-75250990D02*
X180735163Y-75179561D01*
X180735163Y-75179561D02*
X180758973Y-75084323D01*
X180758973Y-75084323D02*
X180758973Y-74893847D01*
X180758973Y-74893847D02*
X180735163Y-74846228D01*
X180735163Y-74846228D02*
X180711354Y-74822419D01*
X180711354Y-74822419D02*
X180663735Y-74798609D01*
X180663735Y-74798609D02*
X180568497Y-74798609D01*
X180568497Y-74798609D02*
X180520878Y-74822419D01*
X180520878Y-74822419D02*
X180497068Y-74846228D01*
X180497068Y-74846228D02*
X180473259Y-74893847D01*
X180473259Y-74893847D02*
X180473259Y-75012895D01*
X180473259Y-75012895D02*
X180497068Y-75060514D01*
X180497068Y-75060514D02*
X180520878Y-75084323D01*
X180520878Y-75084323D02*
X180568497Y-75108133D01*
X180568497Y-75108133D02*
X180663735Y-75108133D01*
X180663735Y-75108133D02*
X180711354Y-75084323D01*
X180711354Y-75084323D02*
X180735163Y-75060514D01*
X180735163Y-75060514D02*
X180758973Y-75012895D01*
D15*
X135847641Y-63146850D02*
X135903667Y-63202875D01*
X135903667Y-63202875D02*
X135959692Y-63370951D01*
X135959692Y-63370951D02*
X135959692Y-63483001D01*
X135959692Y-63483001D02*
X135903667Y-63651076D01*
X135903667Y-63651076D02*
X135791616Y-63763127D01*
X135791616Y-63763127D02*
X135679566Y-63819152D01*
X135679566Y-63819152D02*
X135455465Y-63875177D01*
X135455465Y-63875177D02*
X135287390Y-63875177D01*
X135287390Y-63875177D02*
X135063289Y-63819152D01*
X135063289Y-63819152D02*
X134951239Y-63763127D01*
X134951239Y-63763127D02*
X134839189Y-63651076D01*
X134839189Y-63651076D02*
X134783164Y-63483001D01*
X134783164Y-63483001D02*
X134783164Y-63370951D01*
X134783164Y-63370951D02*
X134839189Y-63202875D01*
X134839189Y-63202875D02*
X134895214Y-63146850D01*
X134783164Y-62082372D02*
X134783164Y-62642624D01*
X134783164Y-62642624D02*
X135343415Y-62698649D01*
X135343415Y-62698649D02*
X135287390Y-62642624D01*
X135287390Y-62642624D02*
X135231365Y-62530574D01*
X135231365Y-62530574D02*
X135231365Y-62250448D01*
X135231365Y-62250448D02*
X135287390Y-62138398D01*
X135287390Y-62138398D02*
X135343415Y-62082372D01*
X135343415Y-62082372D02*
X135455465Y-62026347D01*
X135455465Y-62026347D02*
X135735591Y-62026347D01*
X135735591Y-62026347D02*
X135847641Y-62082372D01*
X135847641Y-62082372D02*
X135903667Y-62138398D01*
X135903667Y-62138398D02*
X135959692Y-62250448D01*
X135959692Y-62250448D02*
X135959692Y-62530574D01*
X135959692Y-62530574D02*
X135903667Y-62642624D01*
X135903667Y-62642624D02*
X135847641Y-62698649D01*
X134783164Y-61017895D02*
X134783164Y-61241995D01*
X134783164Y-61241995D02*
X134839189Y-61354045D01*
X134839189Y-61354045D02*
X134895214Y-61410071D01*
X134895214Y-61410071D02*
X135063289Y-61522121D01*
X135063289Y-61522121D02*
X135287390Y-61578146D01*
X135287390Y-61578146D02*
X135735591Y-61578146D01*
X135735591Y-61578146D02*
X135847641Y-61522121D01*
X135847641Y-61522121D02*
X135903667Y-61466096D01*
X135903667Y-61466096D02*
X135959692Y-61354045D01*
X135959692Y-61354045D02*
X135959692Y-61129945D01*
X135959692Y-61129945D02*
X135903667Y-61017895D01*
X135903667Y-61017895D02*
X135847641Y-60961869D01*
X135847641Y-60961869D02*
X135735591Y-60905844D01*
X135735591Y-60905844D02*
X135455465Y-60905844D01*
X135455465Y-60905844D02*
X135343415Y-60961869D01*
X135343415Y-60961869D02*
X135287390Y-61017895D01*
X135287390Y-61017895D02*
X135231365Y-61129945D01*
X135231365Y-61129945D02*
X135231365Y-61354045D01*
X135231365Y-61354045D02*
X135287390Y-61466096D01*
X135287390Y-61466096D02*
X135343415Y-61522121D01*
X135343415Y-61522121D02*
X135455465Y-61578146D01*
D10*
X175443333Y-89286109D02*
X175443333Y-89643252D01*
X175443333Y-89643252D02*
X175419524Y-89714680D01*
X175419524Y-89714680D02*
X175371905Y-89762300D01*
X175371905Y-89762300D02*
X175300476Y-89786109D01*
X175300476Y-89786109D02*
X175252857Y-89786109D01*
X175895714Y-89286109D02*
X175800476Y-89286109D01*
X175800476Y-89286109D02*
X175752857Y-89309919D01*
X175752857Y-89309919D02*
X175729047Y-89333728D01*
X175729047Y-89333728D02*
X175681428Y-89405157D01*
X175681428Y-89405157D02*
X175657619Y-89500395D01*
X175657619Y-89500395D02*
X175657619Y-89690871D01*
X175657619Y-89690871D02*
X175681428Y-89738490D01*
X175681428Y-89738490D02*
X175705238Y-89762300D01*
X175705238Y-89762300D02*
X175752857Y-89786109D01*
X175752857Y-89786109D02*
X175848095Y-89786109D01*
X175848095Y-89786109D02*
X175895714Y-89762300D01*
X175895714Y-89762300D02*
X175919523Y-89738490D01*
X175919523Y-89738490D02*
X175943333Y-89690871D01*
X175943333Y-89690871D02*
X175943333Y-89571823D01*
X175943333Y-89571823D02*
X175919523Y-89524204D01*
X175919523Y-89524204D02*
X175895714Y-89500395D01*
X175895714Y-89500395D02*
X175848095Y-89476585D01*
X175848095Y-89476585D02*
X175752857Y-89476585D01*
X175752857Y-89476585D02*
X175705238Y-89500395D01*
X175705238Y-89500395D02*
X175681428Y-89524204D01*
X175681428Y-89524204D02*
X175657619Y-89571823D01*
D15*
X102415971Y-76363205D02*
X102303921Y-76307180D01*
X102303921Y-76307180D02*
X102191871Y-76195130D01*
X102191871Y-76195130D02*
X102023795Y-76027054D01*
X102023795Y-76027054D02*
X101911745Y-75971029D01*
X101911745Y-75971029D02*
X101799695Y-75971029D01*
X101855720Y-76251155D02*
X101743670Y-76195130D01*
X101743670Y-76195130D02*
X101631619Y-76083079D01*
X101631619Y-76083079D02*
X101575594Y-75858979D01*
X101575594Y-75858979D02*
X101575594Y-75466803D01*
X101575594Y-75466803D02*
X101631619Y-75242702D01*
X101631619Y-75242702D02*
X101743670Y-75130652D01*
X101743670Y-75130652D02*
X101855720Y-75074627D01*
X101855720Y-75074627D02*
X102079820Y-75074627D01*
X102079820Y-75074627D02*
X102191871Y-75130652D01*
X102191871Y-75130652D02*
X102303921Y-75242702D01*
X102303921Y-75242702D02*
X102359946Y-75466803D01*
X102359946Y-75466803D02*
X102359946Y-75858979D01*
X102359946Y-75858979D02*
X102303921Y-76083079D01*
X102303921Y-76083079D02*
X102191871Y-76195130D01*
X102191871Y-76195130D02*
X102079820Y-76251155D01*
X102079820Y-76251155D02*
X101855720Y-76251155D01*
X103480449Y-76251155D02*
X102808147Y-76251155D01*
X103144298Y-76251155D02*
X103144298Y-75074627D01*
X103144298Y-75074627D02*
X103032248Y-75242702D01*
X103032248Y-75242702D02*
X102920197Y-75354752D01*
X102920197Y-75354752D02*
X102808147Y-75410778D01*
X103928650Y-75186677D02*
X103984675Y-75130652D01*
X103984675Y-75130652D02*
X104096726Y-75074627D01*
X104096726Y-75074627D02*
X104376851Y-75074627D01*
X104376851Y-75074627D02*
X104488902Y-75130652D01*
X104488902Y-75130652D02*
X104544927Y-75186677D01*
X104544927Y-75186677D02*
X104600952Y-75298727D01*
X104600952Y-75298727D02*
X104600952Y-75410778D01*
X104600952Y-75410778D02*
X104544927Y-75578853D01*
X104544927Y-75578853D02*
X103872625Y-76251155D01*
X103872625Y-76251155D02*
X104600952Y-76251155D01*
D11*
X145604819Y-73436666D02*
X145128628Y-73769999D01*
X145604819Y-74008094D02*
X144604819Y-74008094D01*
X144604819Y-74008094D02*
X144604819Y-73627142D01*
X144604819Y-73627142D02*
X144652438Y-73531904D01*
X144652438Y-73531904D02*
X144700057Y-73484285D01*
X144700057Y-73484285D02*
X144795295Y-73436666D01*
X144795295Y-73436666D02*
X144938152Y-73436666D01*
X144938152Y-73436666D02*
X145033390Y-73484285D01*
X145033390Y-73484285D02*
X145081009Y-73531904D01*
X145081009Y-73531904D02*
X145128628Y-73627142D01*
X145128628Y-73627142D02*
X145128628Y-74008094D01*
X144938152Y-72579523D02*
X145604819Y-72579523D01*
X144557200Y-72817618D02*
X145271485Y-73055713D01*
X145271485Y-73055713D02*
X145271485Y-72436666D01*
X164933333Y-89084819D02*
X164600000Y-88608628D01*
X164361905Y-89084819D02*
X164361905Y-88084819D01*
X164361905Y-88084819D02*
X164742857Y-88084819D01*
X164742857Y-88084819D02*
X164838095Y-88132438D01*
X164838095Y-88132438D02*
X164885714Y-88180057D01*
X164885714Y-88180057D02*
X164933333Y-88275295D01*
X164933333Y-88275295D02*
X164933333Y-88418152D01*
X164933333Y-88418152D02*
X164885714Y-88513390D01*
X164885714Y-88513390D02*
X164838095Y-88561009D01*
X164838095Y-88561009D02*
X164742857Y-88608628D01*
X164742857Y-88608628D02*
X164361905Y-88608628D01*
X165504762Y-88513390D02*
X165409524Y-88465771D01*
X165409524Y-88465771D02*
X165361905Y-88418152D01*
X165361905Y-88418152D02*
X165314286Y-88322914D01*
X165314286Y-88322914D02*
X165314286Y-88275295D01*
X165314286Y-88275295D02*
X165361905Y-88180057D01*
X165361905Y-88180057D02*
X165409524Y-88132438D01*
X165409524Y-88132438D02*
X165504762Y-88084819D01*
X165504762Y-88084819D02*
X165695238Y-88084819D01*
X165695238Y-88084819D02*
X165790476Y-88132438D01*
X165790476Y-88132438D02*
X165838095Y-88180057D01*
X165838095Y-88180057D02*
X165885714Y-88275295D01*
X165885714Y-88275295D02*
X165885714Y-88322914D01*
X165885714Y-88322914D02*
X165838095Y-88418152D01*
X165838095Y-88418152D02*
X165790476Y-88465771D01*
X165790476Y-88465771D02*
X165695238Y-88513390D01*
X165695238Y-88513390D02*
X165504762Y-88513390D01*
X165504762Y-88513390D02*
X165409524Y-88561009D01*
X165409524Y-88561009D02*
X165361905Y-88608628D01*
X165361905Y-88608628D02*
X165314286Y-88703866D01*
X165314286Y-88703866D02*
X165314286Y-88894342D01*
X165314286Y-88894342D02*
X165361905Y-88989580D01*
X165361905Y-88989580D02*
X165409524Y-89037200D01*
X165409524Y-89037200D02*
X165504762Y-89084819D01*
X165504762Y-89084819D02*
X165695238Y-89084819D01*
X165695238Y-89084819D02*
X165790476Y-89037200D01*
X165790476Y-89037200D02*
X165838095Y-88989580D01*
X165838095Y-88989580D02*
X165885714Y-88894342D01*
X165885714Y-88894342D02*
X165885714Y-88703866D01*
X165885714Y-88703866D02*
X165838095Y-88608628D01*
X165838095Y-88608628D02*
X165790476Y-88561009D01*
X165790476Y-88561009D02*
X165695238Y-88513390D01*
X126194819Y-76412857D02*
X125718628Y-76746190D01*
X126194819Y-76984285D02*
X125194819Y-76984285D01*
X125194819Y-76984285D02*
X125194819Y-76603333D01*
X125194819Y-76603333D02*
X125242438Y-76508095D01*
X125242438Y-76508095D02*
X125290057Y-76460476D01*
X125290057Y-76460476D02*
X125385295Y-76412857D01*
X125385295Y-76412857D02*
X125528152Y-76412857D01*
X125528152Y-76412857D02*
X125623390Y-76460476D01*
X125623390Y-76460476D02*
X125671009Y-76508095D01*
X125671009Y-76508095D02*
X125718628Y-76603333D01*
X125718628Y-76603333D02*
X125718628Y-76984285D01*
X125290057Y-76031904D02*
X125242438Y-75984285D01*
X125242438Y-75984285D02*
X125194819Y-75889047D01*
X125194819Y-75889047D02*
X125194819Y-75650952D01*
X125194819Y-75650952D02*
X125242438Y-75555714D01*
X125242438Y-75555714D02*
X125290057Y-75508095D01*
X125290057Y-75508095D02*
X125385295Y-75460476D01*
X125385295Y-75460476D02*
X125480533Y-75460476D01*
X125480533Y-75460476D02*
X125623390Y-75508095D01*
X125623390Y-75508095D02*
X126194819Y-76079523D01*
X126194819Y-76079523D02*
X126194819Y-75460476D01*
X125194819Y-74603333D02*
X125194819Y-74793809D01*
X125194819Y-74793809D02*
X125242438Y-74889047D01*
X125242438Y-74889047D02*
X125290057Y-74936666D01*
X125290057Y-74936666D02*
X125432914Y-75031904D01*
X125432914Y-75031904D02*
X125623390Y-75079523D01*
X125623390Y-75079523D02*
X126004342Y-75079523D01*
X126004342Y-75079523D02*
X126099580Y-75031904D01*
X126099580Y-75031904D02*
X126147200Y-74984285D01*
X126147200Y-74984285D02*
X126194819Y-74889047D01*
X126194819Y-74889047D02*
X126194819Y-74698571D01*
X126194819Y-74698571D02*
X126147200Y-74603333D01*
X126147200Y-74603333D02*
X126099580Y-74555714D01*
X126099580Y-74555714D02*
X126004342Y-74508095D01*
X126004342Y-74508095D02*
X125766247Y-74508095D01*
X125766247Y-74508095D02*
X125671009Y-74555714D01*
X125671009Y-74555714D02*
X125623390Y-74603333D01*
X125623390Y-74603333D02*
X125575771Y-74698571D01*
X125575771Y-74698571D02*
X125575771Y-74889047D01*
X125575771Y-74889047D02*
X125623390Y-74984285D01*
X125623390Y-74984285D02*
X125671009Y-75031904D01*
X125671009Y-75031904D02*
X125766247Y-75079523D01*
X166944819Y-62406666D02*
X166468628Y-62739999D01*
X166944819Y-62978094D02*
X165944819Y-62978094D01*
X165944819Y-62978094D02*
X165944819Y-62597142D01*
X165944819Y-62597142D02*
X165992438Y-62501904D01*
X165992438Y-62501904D02*
X166040057Y-62454285D01*
X166040057Y-62454285D02*
X166135295Y-62406666D01*
X166135295Y-62406666D02*
X166278152Y-62406666D01*
X166278152Y-62406666D02*
X166373390Y-62454285D01*
X166373390Y-62454285D02*
X166421009Y-62501904D01*
X166421009Y-62501904D02*
X166468628Y-62597142D01*
X166468628Y-62597142D02*
X166468628Y-62978094D01*
X165944819Y-61501904D02*
X165944819Y-61978094D01*
X165944819Y-61978094D02*
X166421009Y-62025713D01*
X166421009Y-62025713D02*
X166373390Y-61978094D01*
X166373390Y-61978094D02*
X166325771Y-61882856D01*
X166325771Y-61882856D02*
X166325771Y-61644761D01*
X166325771Y-61644761D02*
X166373390Y-61549523D01*
X166373390Y-61549523D02*
X166421009Y-61501904D01*
X166421009Y-61501904D02*
X166516247Y-61454285D01*
X166516247Y-61454285D02*
X166754342Y-61454285D01*
X166754342Y-61454285D02*
X166849580Y-61501904D01*
X166849580Y-61501904D02*
X166897200Y-61549523D01*
X166897200Y-61549523D02*
X166944819Y-61644761D01*
X166944819Y-61644761D02*
X166944819Y-61882856D01*
X166944819Y-61882856D02*
X166897200Y-61978094D01*
X166897200Y-61978094D02*
X166849580Y-62025713D01*
D15*
X150007641Y-66806850D02*
X150063667Y-66862875D01*
X150063667Y-66862875D02*
X150119692Y-67030951D01*
X150119692Y-67030951D02*
X150119692Y-67143001D01*
X150119692Y-67143001D02*
X150063667Y-67311076D01*
X150063667Y-67311076D02*
X149951616Y-67423127D01*
X149951616Y-67423127D02*
X149839566Y-67479152D01*
X149839566Y-67479152D02*
X149615465Y-67535177D01*
X149615465Y-67535177D02*
X149447390Y-67535177D01*
X149447390Y-67535177D02*
X149223289Y-67479152D01*
X149223289Y-67479152D02*
X149111239Y-67423127D01*
X149111239Y-67423127D02*
X148999189Y-67311076D01*
X148999189Y-67311076D02*
X148943164Y-67143001D01*
X148943164Y-67143001D02*
X148943164Y-67030951D01*
X148943164Y-67030951D02*
X148999189Y-66862875D01*
X148999189Y-66862875D02*
X149055214Y-66806850D01*
X148943164Y-65742372D02*
X148943164Y-66302624D01*
X148943164Y-66302624D02*
X149503415Y-66358649D01*
X149503415Y-66358649D02*
X149447390Y-66302624D01*
X149447390Y-66302624D02*
X149391365Y-66190574D01*
X149391365Y-66190574D02*
X149391365Y-65910448D01*
X149391365Y-65910448D02*
X149447390Y-65798398D01*
X149447390Y-65798398D02*
X149503415Y-65742372D01*
X149503415Y-65742372D02*
X149615465Y-65686347D01*
X149615465Y-65686347D02*
X149895591Y-65686347D01*
X149895591Y-65686347D02*
X150007641Y-65742372D01*
X150007641Y-65742372D02*
X150063667Y-65798398D01*
X150063667Y-65798398D02*
X150119692Y-65910448D01*
X150119692Y-65910448D02*
X150119692Y-66190574D01*
X150119692Y-66190574D02*
X150063667Y-66302624D01*
X150063667Y-66302624D02*
X150007641Y-66358649D01*
X148943164Y-64621869D02*
X148943164Y-65182121D01*
X148943164Y-65182121D02*
X149503415Y-65238146D01*
X149503415Y-65238146D02*
X149447390Y-65182121D01*
X149447390Y-65182121D02*
X149391365Y-65070071D01*
X149391365Y-65070071D02*
X149391365Y-64789945D01*
X149391365Y-64789945D02*
X149447390Y-64677895D01*
X149447390Y-64677895D02*
X149503415Y-64621869D01*
X149503415Y-64621869D02*
X149615465Y-64565844D01*
X149615465Y-64565844D02*
X149895591Y-64565844D01*
X149895591Y-64565844D02*
X150007641Y-64621869D01*
X150007641Y-64621869D02*
X150063667Y-64677895D01*
X150063667Y-64677895D02*
X150119692Y-64789945D01*
X150119692Y-64789945D02*
X150119692Y-65070071D01*
X150119692Y-65070071D02*
X150063667Y-65182121D01*
X150063667Y-65182121D02*
X150007641Y-65238146D01*
D11*
X112884819Y-89012857D02*
X112408628Y-89346190D01*
X112884819Y-89584285D02*
X111884819Y-89584285D01*
X111884819Y-89584285D02*
X111884819Y-89203333D01*
X111884819Y-89203333D02*
X111932438Y-89108095D01*
X111932438Y-89108095D02*
X111980057Y-89060476D01*
X111980057Y-89060476D02*
X112075295Y-89012857D01*
X112075295Y-89012857D02*
X112218152Y-89012857D01*
X112218152Y-89012857D02*
X112313390Y-89060476D01*
X112313390Y-89060476D02*
X112361009Y-89108095D01*
X112361009Y-89108095D02*
X112408628Y-89203333D01*
X112408628Y-89203333D02*
X112408628Y-89584285D01*
X112884819Y-88060476D02*
X112884819Y-88631904D01*
X112884819Y-88346190D02*
X111884819Y-88346190D01*
X111884819Y-88346190D02*
X112027676Y-88441428D01*
X112027676Y-88441428D02*
X112122914Y-88536666D01*
X112122914Y-88536666D02*
X112170533Y-88631904D01*
X111884819Y-87155714D02*
X111884819Y-87631904D01*
X111884819Y-87631904D02*
X112361009Y-87679523D01*
X112361009Y-87679523D02*
X112313390Y-87631904D01*
X112313390Y-87631904D02*
X112265771Y-87536666D01*
X112265771Y-87536666D02*
X112265771Y-87298571D01*
X112265771Y-87298571D02*
X112313390Y-87203333D01*
X112313390Y-87203333D02*
X112361009Y-87155714D01*
X112361009Y-87155714D02*
X112456247Y-87108095D01*
X112456247Y-87108095D02*
X112694342Y-87108095D01*
X112694342Y-87108095D02*
X112789580Y-87155714D01*
X112789580Y-87155714D02*
X112837200Y-87203333D01*
X112837200Y-87203333D02*
X112884819Y-87298571D01*
X112884819Y-87298571D02*
X112884819Y-87536666D01*
X112884819Y-87536666D02*
X112837200Y-87631904D01*
X112837200Y-87631904D02*
X112789580Y-87679523D01*
D12*
X97280770Y-61140988D02*
X97673623Y-61702207D01*
X97954233Y-61140988D02*
X97954233Y-62319548D01*
X97954233Y-62319548D02*
X97505258Y-62319548D01*
X97505258Y-62319548D02*
X97393014Y-62263426D01*
X97393014Y-62263426D02*
X97336892Y-62207304D01*
X97336892Y-62207304D02*
X97280770Y-62095060D01*
X97280770Y-62095060D02*
X97280770Y-61926694D01*
X97280770Y-61926694D02*
X97336892Y-61814450D01*
X97336892Y-61814450D02*
X97393014Y-61758329D01*
X97393014Y-61758329D02*
X97505258Y-61702207D01*
X97505258Y-61702207D02*
X97954233Y-61702207D01*
X95933844Y-62375670D02*
X96944039Y-60860378D01*
X95653235Y-62319548D02*
X95372625Y-61140988D01*
X95372625Y-61140988D02*
X95148138Y-61982816D01*
X95148138Y-61982816D02*
X94923650Y-61140988D01*
X94923650Y-61140988D02*
X94643041Y-62319548D01*
X93969577Y-62319548D02*
X93857334Y-62319548D01*
X93857334Y-62319548D02*
X93745090Y-62263426D01*
X93745090Y-62263426D02*
X93688968Y-62207304D01*
X93688968Y-62207304D02*
X93632846Y-62095060D01*
X93632846Y-62095060D02*
X93576724Y-61870572D01*
X93576724Y-61870572D02*
X93576724Y-61589963D01*
X93576724Y-61589963D02*
X93632846Y-61365475D01*
X93632846Y-61365475D02*
X93688968Y-61253231D01*
X93688968Y-61253231D02*
X93745090Y-61197110D01*
X93745090Y-61197110D02*
X93857334Y-61140988D01*
X93857334Y-61140988D02*
X93969577Y-61140988D01*
X93969577Y-61140988D02*
X94081821Y-61197110D01*
X94081821Y-61197110D02*
X94137943Y-61253231D01*
X94137943Y-61253231D02*
X94194065Y-61365475D01*
X94194065Y-61365475D02*
X94250187Y-61589963D01*
X94250187Y-61589963D02*
X94250187Y-61870572D01*
X94250187Y-61870572D02*
X94194065Y-62095060D01*
X94194065Y-62095060D02*
X94137943Y-62207304D01*
X94137943Y-62207304D02*
X94081821Y-62263426D01*
X94081821Y-62263426D02*
X93969577Y-62319548D01*
D15*
X133544155Y-70972630D02*
X132367627Y-70972630D01*
X133432104Y-69740077D02*
X133488130Y-69796102D01*
X133488130Y-69796102D02*
X133544155Y-69964178D01*
X133544155Y-69964178D02*
X133544155Y-70076228D01*
X133544155Y-70076228D02*
X133488130Y-70244303D01*
X133488130Y-70244303D02*
X133376079Y-70356354D01*
X133376079Y-70356354D02*
X133264029Y-70412379D01*
X133264029Y-70412379D02*
X133039928Y-70468404D01*
X133039928Y-70468404D02*
X132871853Y-70468404D01*
X132871853Y-70468404D02*
X132647752Y-70412379D01*
X132647752Y-70412379D02*
X132535702Y-70356354D01*
X132535702Y-70356354D02*
X132423652Y-70244303D01*
X132423652Y-70244303D02*
X132367627Y-70076228D01*
X132367627Y-70076228D02*
X132367627Y-69964178D01*
X132367627Y-69964178D02*
X132423652Y-69796102D01*
X132423652Y-69796102D02*
X132479677Y-69740077D01*
X133544155Y-68619574D02*
X133544155Y-69291876D01*
X133544155Y-68955725D02*
X132367627Y-68955725D01*
X132367627Y-68955725D02*
X132535702Y-69067775D01*
X132535702Y-69067775D02*
X132647752Y-69179826D01*
X132647752Y-69179826D02*
X132703778Y-69291876D01*
X166042358Y-82953149D02*
X165986333Y-82897124D01*
X165986333Y-82897124D02*
X165930307Y-82729048D01*
X165930307Y-82729048D02*
X165930307Y-82616998D01*
X165930307Y-82616998D02*
X165986333Y-82448923D01*
X165986333Y-82448923D02*
X166098383Y-82336872D01*
X166098383Y-82336872D02*
X166210433Y-82280847D01*
X166210433Y-82280847D02*
X166434534Y-82224822D01*
X166434534Y-82224822D02*
X166602609Y-82224822D01*
X166602609Y-82224822D02*
X166826710Y-82280847D01*
X166826710Y-82280847D02*
X166938760Y-82336872D01*
X166938760Y-82336872D02*
X167050810Y-82448923D01*
X167050810Y-82448923D02*
X167106835Y-82616998D01*
X167106835Y-82616998D02*
X167106835Y-82729048D01*
X167106835Y-82729048D02*
X167050810Y-82897124D01*
X167050810Y-82897124D02*
X166994785Y-82953149D01*
X167106835Y-83961602D02*
X167106835Y-83737501D01*
X167106835Y-83737501D02*
X167050810Y-83625451D01*
X167050810Y-83625451D02*
X166994785Y-83569426D01*
X166994785Y-83569426D02*
X166826710Y-83457375D01*
X166826710Y-83457375D02*
X166602609Y-83401350D01*
X166602609Y-83401350D02*
X166154408Y-83401350D01*
X166154408Y-83401350D02*
X166042358Y-83457375D01*
X166042358Y-83457375D02*
X165986333Y-83513400D01*
X165986333Y-83513400D02*
X165930307Y-83625451D01*
X165930307Y-83625451D02*
X165930307Y-83849551D01*
X165930307Y-83849551D02*
X165986333Y-83961602D01*
X165986333Y-83961602D02*
X166042358Y-84017627D01*
X166042358Y-84017627D02*
X166154408Y-84073652D01*
X166154408Y-84073652D02*
X166434534Y-84073652D01*
X166434534Y-84073652D02*
X166546584Y-84017627D01*
X166546584Y-84017627D02*
X166602609Y-83961602D01*
X166602609Y-83961602D02*
X166658634Y-83849551D01*
X166658634Y-83849551D02*
X166658634Y-83625451D01*
X166658634Y-83625451D02*
X166602609Y-83513400D01*
X166602609Y-83513400D02*
X166546584Y-83457375D01*
X166546584Y-83457375D02*
X166434534Y-83401350D01*
X165930307Y-85194155D02*
X165930307Y-84521853D01*
X165930307Y-84858004D02*
X167106835Y-84858004D01*
X167106835Y-84858004D02*
X166938760Y-84745954D01*
X166938760Y-84745954D02*
X166826710Y-84633903D01*
X166826710Y-84633903D02*
X166770685Y-84521853D01*
D10*
X182698571Y-79906109D02*
X182531905Y-79668014D01*
X182412857Y-79906109D02*
X182412857Y-79406109D01*
X182412857Y-79406109D02*
X182603333Y-79406109D01*
X182603333Y-79406109D02*
X182650952Y-79429919D01*
X182650952Y-79429919D02*
X182674762Y-79453728D01*
X182674762Y-79453728D02*
X182698571Y-79501347D01*
X182698571Y-79501347D02*
X182698571Y-79572776D01*
X182698571Y-79572776D02*
X182674762Y-79620395D01*
X182674762Y-79620395D02*
X182650952Y-79644204D01*
X182650952Y-79644204D02*
X182603333Y-79668014D01*
X182603333Y-79668014D02*
X182412857Y-79668014D01*
X182889048Y-79453728D02*
X182912857Y-79429919D01*
X182912857Y-79429919D02*
X182960476Y-79406109D01*
X182960476Y-79406109D02*
X183079524Y-79406109D01*
X183079524Y-79406109D02*
X183127143Y-79429919D01*
X183127143Y-79429919D02*
X183150952Y-79453728D01*
X183150952Y-79453728D02*
X183174762Y-79501347D01*
X183174762Y-79501347D02*
X183174762Y-79548966D01*
X183174762Y-79548966D02*
X183150952Y-79620395D01*
X183150952Y-79620395D02*
X182865238Y-79906109D01*
X182865238Y-79906109D02*
X183174762Y-79906109D01*
X183627142Y-79406109D02*
X183389047Y-79406109D01*
X183389047Y-79406109D02*
X183365238Y-79644204D01*
X183365238Y-79644204D02*
X183389047Y-79620395D01*
X183389047Y-79620395D02*
X183436666Y-79596585D01*
X183436666Y-79596585D02*
X183555714Y-79596585D01*
X183555714Y-79596585D02*
X183603333Y-79620395D01*
X183603333Y-79620395D02*
X183627142Y-79644204D01*
X183627142Y-79644204D02*
X183650952Y-79691823D01*
X183650952Y-79691823D02*
X183650952Y-79810871D01*
X183650952Y-79810871D02*
X183627142Y-79858490D01*
X183627142Y-79858490D02*
X183603333Y-79882300D01*
X183603333Y-79882300D02*
X183555714Y-79906109D01*
X183555714Y-79906109D02*
X183436666Y-79906109D01*
X183436666Y-79906109D02*
X183389047Y-79882300D01*
X183389047Y-79882300D02*
X183365238Y-79858490D01*
D15*
X110591971Y-82211205D02*
X110479921Y-82155180D01*
X110479921Y-82155180D02*
X110367871Y-82043130D01*
X110367871Y-82043130D02*
X110199795Y-81875054D01*
X110199795Y-81875054D02*
X110087745Y-81819029D01*
X110087745Y-81819029D02*
X109975695Y-81819029D01*
X110031720Y-82099155D02*
X109919670Y-82043130D01*
X109919670Y-82043130D02*
X109807619Y-81931079D01*
X109807619Y-81931079D02*
X109751594Y-81706979D01*
X109751594Y-81706979D02*
X109751594Y-81314803D01*
X109751594Y-81314803D02*
X109807619Y-81090702D01*
X109807619Y-81090702D02*
X109919670Y-80978652D01*
X109919670Y-80978652D02*
X110031720Y-80922627D01*
X110031720Y-80922627D02*
X110255820Y-80922627D01*
X110255820Y-80922627D02*
X110367871Y-80978652D01*
X110367871Y-80978652D02*
X110479921Y-81090702D01*
X110479921Y-81090702D02*
X110535946Y-81314803D01*
X110535946Y-81314803D02*
X110535946Y-81706979D01*
X110535946Y-81706979D02*
X110479921Y-81931079D01*
X110479921Y-81931079D02*
X110367871Y-82043130D01*
X110367871Y-82043130D02*
X110255820Y-82099155D01*
X110255820Y-82099155D02*
X110031720Y-82099155D01*
X111656449Y-82099155D02*
X110984147Y-82099155D01*
X111320298Y-82099155D02*
X111320298Y-80922627D01*
X111320298Y-80922627D02*
X111208248Y-81090702D01*
X111208248Y-81090702D02*
X111096197Y-81202752D01*
X111096197Y-81202752D02*
X110984147Y-81258778D01*
X112776952Y-82099155D02*
X112104650Y-82099155D01*
X112440801Y-82099155D02*
X112440801Y-80922627D01*
X112440801Y-80922627D02*
X112328751Y-81090702D01*
X112328751Y-81090702D02*
X112216700Y-81202752D01*
X112216700Y-81202752D02*
X112104650Y-81258778D01*
D11*
X172404819Y-55636666D02*
X171928628Y-55969999D01*
X172404819Y-56208094D02*
X171404819Y-56208094D01*
X171404819Y-56208094D02*
X171404819Y-55827142D01*
X171404819Y-55827142D02*
X171452438Y-55731904D01*
X171452438Y-55731904D02*
X171500057Y-55684285D01*
X171500057Y-55684285D02*
X171595295Y-55636666D01*
X171595295Y-55636666D02*
X171738152Y-55636666D01*
X171738152Y-55636666D02*
X171833390Y-55684285D01*
X171833390Y-55684285D02*
X171881009Y-55731904D01*
X171881009Y-55731904D02*
X171928628Y-55827142D01*
X171928628Y-55827142D02*
X171928628Y-56208094D01*
X171404819Y-55303332D02*
X171404819Y-54636666D01*
X171404819Y-54636666D02*
X172404819Y-55065237D01*
D10*
X171208571Y-84136109D02*
X171041905Y-83898014D01*
X170922857Y-84136109D02*
X170922857Y-83636109D01*
X170922857Y-83636109D02*
X171113333Y-83636109D01*
X171113333Y-83636109D02*
X171160952Y-83659919D01*
X171160952Y-83659919D02*
X171184762Y-83683728D01*
X171184762Y-83683728D02*
X171208571Y-83731347D01*
X171208571Y-83731347D02*
X171208571Y-83802776D01*
X171208571Y-83802776D02*
X171184762Y-83850395D01*
X171184762Y-83850395D02*
X171160952Y-83874204D01*
X171160952Y-83874204D02*
X171113333Y-83898014D01*
X171113333Y-83898014D02*
X170922857Y-83898014D01*
X171399048Y-83683728D02*
X171422857Y-83659919D01*
X171422857Y-83659919D02*
X171470476Y-83636109D01*
X171470476Y-83636109D02*
X171589524Y-83636109D01*
X171589524Y-83636109D02*
X171637143Y-83659919D01*
X171637143Y-83659919D02*
X171660952Y-83683728D01*
X171660952Y-83683728D02*
X171684762Y-83731347D01*
X171684762Y-83731347D02*
X171684762Y-83778966D01*
X171684762Y-83778966D02*
X171660952Y-83850395D01*
X171660952Y-83850395D02*
X171375238Y-84136109D01*
X171375238Y-84136109D02*
X171684762Y-84136109D01*
X172113333Y-83802776D02*
X172113333Y-84136109D01*
X171994285Y-83612300D02*
X171875238Y-83969442D01*
X171875238Y-83969442D02*
X172184761Y-83969442D01*
D11*
X153434819Y-82135594D02*
X152434819Y-82135594D01*
X152434819Y-82135594D02*
X152434819Y-81897499D01*
X152434819Y-81897499D02*
X152482438Y-81754642D01*
X152482438Y-81754642D02*
X152577676Y-81659404D01*
X152577676Y-81659404D02*
X152672914Y-81611785D01*
X152672914Y-81611785D02*
X152863390Y-81564166D01*
X152863390Y-81564166D02*
X153006247Y-81564166D01*
X153006247Y-81564166D02*
X153196723Y-81611785D01*
X153196723Y-81611785D02*
X153291961Y-81659404D01*
X153291961Y-81659404D02*
X153387200Y-81754642D01*
X153387200Y-81754642D02*
X153434819Y-81897499D01*
X153434819Y-81897499D02*
X153434819Y-82135594D01*
X152530057Y-81183213D02*
X152482438Y-81135594D01*
X152482438Y-81135594D02*
X152434819Y-81040356D01*
X152434819Y-81040356D02*
X152434819Y-80802261D01*
X152434819Y-80802261D02*
X152482438Y-80707023D01*
X152482438Y-80707023D02*
X152530057Y-80659404D01*
X152530057Y-80659404D02*
X152625295Y-80611785D01*
X152625295Y-80611785D02*
X152720533Y-80611785D01*
X152720533Y-80611785D02*
X152863390Y-80659404D01*
X152863390Y-80659404D02*
X153434819Y-81230832D01*
X153434819Y-81230832D02*
X153434819Y-80611785D01*
D15*
X149387641Y-81996850D02*
X149443667Y-82052875D01*
X149443667Y-82052875D02*
X149499692Y-82220951D01*
X149499692Y-82220951D02*
X149499692Y-82333001D01*
X149499692Y-82333001D02*
X149443667Y-82501076D01*
X149443667Y-82501076D02*
X149331616Y-82613127D01*
X149331616Y-82613127D02*
X149219566Y-82669152D01*
X149219566Y-82669152D02*
X148995465Y-82725177D01*
X148995465Y-82725177D02*
X148827390Y-82725177D01*
X148827390Y-82725177D02*
X148603289Y-82669152D01*
X148603289Y-82669152D02*
X148491239Y-82613127D01*
X148491239Y-82613127D02*
X148379189Y-82501076D01*
X148379189Y-82501076D02*
X148323164Y-82333001D01*
X148323164Y-82333001D02*
X148323164Y-82220951D01*
X148323164Y-82220951D02*
X148379189Y-82052875D01*
X148379189Y-82052875D02*
X148435214Y-81996850D01*
X148323164Y-81604674D02*
X148323164Y-80820322D01*
X148323164Y-80820322D02*
X149499692Y-81324548D01*
X149499692Y-79755844D02*
X149499692Y-80428146D01*
X149499692Y-80091995D02*
X148323164Y-80091995D01*
X148323164Y-80091995D02*
X148491239Y-80204045D01*
X148491239Y-80204045D02*
X148603289Y-80316096D01*
X148603289Y-80316096D02*
X148659315Y-80428146D01*
D11*
X156514819Y-85086666D02*
X156038628Y-85419999D01*
X156514819Y-85658094D02*
X155514819Y-85658094D01*
X155514819Y-85658094D02*
X155514819Y-85277142D01*
X155514819Y-85277142D02*
X155562438Y-85181904D01*
X155562438Y-85181904D02*
X155610057Y-85134285D01*
X155610057Y-85134285D02*
X155705295Y-85086666D01*
X155705295Y-85086666D02*
X155848152Y-85086666D01*
X155848152Y-85086666D02*
X155943390Y-85134285D01*
X155943390Y-85134285D02*
X155991009Y-85181904D01*
X155991009Y-85181904D02*
X156038628Y-85277142D01*
X156038628Y-85277142D02*
X156038628Y-85658094D01*
X156514819Y-84610475D02*
X156514819Y-84419999D01*
X156514819Y-84419999D02*
X156467200Y-84324761D01*
X156467200Y-84324761D02*
X156419580Y-84277142D01*
X156419580Y-84277142D02*
X156276723Y-84181904D01*
X156276723Y-84181904D02*
X156086247Y-84134285D01*
X156086247Y-84134285D02*
X155705295Y-84134285D01*
X155705295Y-84134285D02*
X155610057Y-84181904D01*
X155610057Y-84181904D02*
X155562438Y-84229523D01*
X155562438Y-84229523D02*
X155514819Y-84324761D01*
X155514819Y-84324761D02*
X155514819Y-84515237D01*
X155514819Y-84515237D02*
X155562438Y-84610475D01*
X155562438Y-84610475D02*
X155610057Y-84658094D01*
X155610057Y-84658094D02*
X155705295Y-84705713D01*
X155705295Y-84705713D02*
X155943390Y-84705713D01*
X155943390Y-84705713D02*
X156038628Y-84658094D01*
X156038628Y-84658094D02*
X156086247Y-84610475D01*
X156086247Y-84610475D02*
X156133866Y-84515237D01*
X156133866Y-84515237D02*
X156133866Y-84324761D01*
X156133866Y-84324761D02*
X156086247Y-84229523D01*
X156086247Y-84229523D02*
X156038628Y-84181904D01*
X156038628Y-84181904D02*
X155943390Y-84134285D01*
D15*
X163686850Y-79292358D02*
X163742875Y-79236333D01*
X163742875Y-79236333D02*
X163910951Y-79180307D01*
X163910951Y-79180307D02*
X164023001Y-79180307D01*
X164023001Y-79180307D02*
X164191076Y-79236333D01*
X164191076Y-79236333D02*
X164303127Y-79348383D01*
X164303127Y-79348383D02*
X164359152Y-79460433D01*
X164359152Y-79460433D02*
X164415177Y-79684534D01*
X164415177Y-79684534D02*
X164415177Y-79852609D01*
X164415177Y-79852609D02*
X164359152Y-80076710D01*
X164359152Y-80076710D02*
X164303127Y-80188760D01*
X164303127Y-80188760D02*
X164191076Y-80300810D01*
X164191076Y-80300810D02*
X164023001Y-80356835D01*
X164023001Y-80356835D02*
X163910951Y-80356835D01*
X163910951Y-80356835D02*
X163742875Y-80300810D01*
X163742875Y-80300810D02*
X163686850Y-80244785D01*
X162678398Y-80356835D02*
X162902498Y-80356835D01*
X162902498Y-80356835D02*
X163014548Y-80300810D01*
X163014548Y-80300810D02*
X163070574Y-80244785D01*
X163070574Y-80244785D02*
X163182624Y-80076710D01*
X163182624Y-80076710D02*
X163238649Y-79852609D01*
X163238649Y-79852609D02*
X163238649Y-79404408D01*
X163238649Y-79404408D02*
X163182624Y-79292358D01*
X163182624Y-79292358D02*
X163126599Y-79236333D01*
X163126599Y-79236333D02*
X163014548Y-79180307D01*
X163014548Y-79180307D02*
X162790448Y-79180307D01*
X162790448Y-79180307D02*
X162678398Y-79236333D01*
X162678398Y-79236333D02*
X162622372Y-79292358D01*
X162622372Y-79292358D02*
X162566347Y-79404408D01*
X162566347Y-79404408D02*
X162566347Y-79684534D01*
X162566347Y-79684534D02*
X162622372Y-79796584D01*
X162622372Y-79796584D02*
X162678398Y-79852609D01*
X162678398Y-79852609D02*
X162790448Y-79908634D01*
X162790448Y-79908634D02*
X163014548Y-79908634D01*
X163014548Y-79908634D02*
X163126599Y-79852609D01*
X163126599Y-79852609D02*
X163182624Y-79796584D01*
X163182624Y-79796584D02*
X163238649Y-79684534D01*
X162174171Y-80356835D02*
X161445844Y-80356835D01*
X161445844Y-80356835D02*
X161838020Y-79908634D01*
X161838020Y-79908634D02*
X161669945Y-79908634D01*
X161669945Y-79908634D02*
X161557895Y-79852609D01*
X161557895Y-79852609D02*
X161501869Y-79796584D01*
X161501869Y-79796584D02*
X161445844Y-79684534D01*
X161445844Y-79684534D02*
X161445844Y-79404408D01*
X161445844Y-79404408D02*
X161501869Y-79292358D01*
X161501869Y-79292358D02*
X161557895Y-79236333D01*
X161557895Y-79236333D02*
X161669945Y-79180307D01*
X161669945Y-79180307D02*
X162006096Y-79180307D01*
X162006096Y-79180307D02*
X162118146Y-79236333D01*
X162118146Y-79236333D02*
X162174171Y-79292358D01*
D11*
X150396666Y-90124819D02*
X150396666Y-90839104D01*
X150396666Y-90839104D02*
X150349047Y-90981961D01*
X150349047Y-90981961D02*
X150253809Y-91077200D01*
X150253809Y-91077200D02*
X150110952Y-91124819D01*
X150110952Y-91124819D02*
X150015714Y-91124819D01*
X150777619Y-90124819D02*
X151396666Y-90124819D01*
X151396666Y-90124819D02*
X151063333Y-90505771D01*
X151063333Y-90505771D02*
X151206190Y-90505771D01*
X151206190Y-90505771D02*
X151301428Y-90553390D01*
X151301428Y-90553390D02*
X151349047Y-90601009D01*
X151349047Y-90601009D02*
X151396666Y-90696247D01*
X151396666Y-90696247D02*
X151396666Y-90934342D01*
X151396666Y-90934342D02*
X151349047Y-91029580D01*
X151349047Y-91029580D02*
X151301428Y-91077200D01*
X151301428Y-91077200D02*
X151206190Y-91124819D01*
X151206190Y-91124819D02*
X150920476Y-91124819D01*
X150920476Y-91124819D02*
X150825238Y-91077200D01*
X150825238Y-91077200D02*
X150777619Y-91029580D01*
X177954819Y-67762857D02*
X177478628Y-68096190D01*
X177954819Y-68334285D02*
X176954819Y-68334285D01*
X176954819Y-68334285D02*
X176954819Y-67953333D01*
X176954819Y-67953333D02*
X177002438Y-67858095D01*
X177002438Y-67858095D02*
X177050057Y-67810476D01*
X177050057Y-67810476D02*
X177145295Y-67762857D01*
X177145295Y-67762857D02*
X177288152Y-67762857D01*
X177288152Y-67762857D02*
X177383390Y-67810476D01*
X177383390Y-67810476D02*
X177431009Y-67858095D01*
X177431009Y-67858095D02*
X177478628Y-67953333D01*
X177478628Y-67953333D02*
X177478628Y-68334285D01*
X177050057Y-67381904D02*
X177002438Y-67334285D01*
X177002438Y-67334285D02*
X176954819Y-67239047D01*
X176954819Y-67239047D02*
X176954819Y-67000952D01*
X176954819Y-67000952D02*
X177002438Y-66905714D01*
X177002438Y-66905714D02*
X177050057Y-66858095D01*
X177050057Y-66858095D02*
X177145295Y-66810476D01*
X177145295Y-66810476D02*
X177240533Y-66810476D01*
X177240533Y-66810476D02*
X177383390Y-66858095D01*
X177383390Y-66858095D02*
X177954819Y-67429523D01*
X177954819Y-67429523D02*
X177954819Y-66810476D01*
X176954819Y-66477142D02*
X176954819Y-65858095D01*
X176954819Y-65858095D02*
X177335771Y-66191428D01*
X177335771Y-66191428D02*
X177335771Y-66048571D01*
X177335771Y-66048571D02*
X177383390Y-65953333D01*
X177383390Y-65953333D02*
X177431009Y-65905714D01*
X177431009Y-65905714D02*
X177526247Y-65858095D01*
X177526247Y-65858095D02*
X177764342Y-65858095D01*
X177764342Y-65858095D02*
X177859580Y-65905714D01*
X177859580Y-65905714D02*
X177907200Y-65953333D01*
X177907200Y-65953333D02*
X177954819Y-66048571D01*
X177954819Y-66048571D02*
X177954819Y-66334285D01*
X177954819Y-66334285D02*
X177907200Y-66429523D01*
X177907200Y-66429523D02*
X177859580Y-66477142D01*
X171802142Y-70184819D02*
X171468809Y-69708628D01*
X171230714Y-70184819D02*
X171230714Y-69184819D01*
X171230714Y-69184819D02*
X171611666Y-69184819D01*
X171611666Y-69184819D02*
X171706904Y-69232438D01*
X171706904Y-69232438D02*
X171754523Y-69280057D01*
X171754523Y-69280057D02*
X171802142Y-69375295D01*
X171802142Y-69375295D02*
X171802142Y-69518152D01*
X171802142Y-69518152D02*
X171754523Y-69613390D01*
X171754523Y-69613390D02*
X171706904Y-69661009D01*
X171706904Y-69661009D02*
X171611666Y-69708628D01*
X171611666Y-69708628D02*
X171230714Y-69708628D01*
X172135476Y-69184819D02*
X172754523Y-69184819D01*
X172754523Y-69184819D02*
X172421190Y-69565771D01*
X172421190Y-69565771D02*
X172564047Y-69565771D01*
X172564047Y-69565771D02*
X172659285Y-69613390D01*
X172659285Y-69613390D02*
X172706904Y-69661009D01*
X172706904Y-69661009D02*
X172754523Y-69756247D01*
X172754523Y-69756247D02*
X172754523Y-69994342D01*
X172754523Y-69994342D02*
X172706904Y-70089580D01*
X172706904Y-70089580D02*
X172659285Y-70137200D01*
X172659285Y-70137200D02*
X172564047Y-70184819D01*
X172564047Y-70184819D02*
X172278333Y-70184819D01*
X172278333Y-70184819D02*
X172183095Y-70137200D01*
X172183095Y-70137200D02*
X172135476Y-70089580D01*
X173373571Y-69184819D02*
X173468809Y-69184819D01*
X173468809Y-69184819D02*
X173564047Y-69232438D01*
X173564047Y-69232438D02*
X173611666Y-69280057D01*
X173611666Y-69280057D02*
X173659285Y-69375295D01*
X173659285Y-69375295D02*
X173706904Y-69565771D01*
X173706904Y-69565771D02*
X173706904Y-69803866D01*
X173706904Y-69803866D02*
X173659285Y-69994342D01*
X173659285Y-69994342D02*
X173611666Y-70089580D01*
X173611666Y-70089580D02*
X173564047Y-70137200D01*
X173564047Y-70137200D02*
X173468809Y-70184819D01*
X173468809Y-70184819D02*
X173373571Y-70184819D01*
X173373571Y-70184819D02*
X173278333Y-70137200D01*
X173278333Y-70137200D02*
X173230714Y-70089580D01*
X173230714Y-70089580D02*
X173183095Y-69994342D01*
X173183095Y-69994342D02*
X173135476Y-69803866D01*
X173135476Y-69803866D02*
X173135476Y-69565771D01*
X173135476Y-69565771D02*
X173183095Y-69375295D01*
X173183095Y-69375295D02*
X173230714Y-69280057D01*
X173230714Y-69280057D02*
X173278333Y-69232438D01*
X173278333Y-69232438D02*
X173373571Y-69184819D01*
D10*
X130768571Y-61996109D02*
X130601905Y-61758014D01*
X130482857Y-61996109D02*
X130482857Y-61496109D01*
X130482857Y-61496109D02*
X130673333Y-61496109D01*
X130673333Y-61496109D02*
X130720952Y-61519919D01*
X130720952Y-61519919D02*
X130744762Y-61543728D01*
X130744762Y-61543728D02*
X130768571Y-61591347D01*
X130768571Y-61591347D02*
X130768571Y-61662776D01*
X130768571Y-61662776D02*
X130744762Y-61710395D01*
X130744762Y-61710395D02*
X130720952Y-61734204D01*
X130720952Y-61734204D02*
X130673333Y-61758014D01*
X130673333Y-61758014D02*
X130482857Y-61758014D01*
X131244762Y-61996109D02*
X130959048Y-61996109D01*
X131101905Y-61996109D02*
X131101905Y-61496109D01*
X131101905Y-61496109D02*
X131054286Y-61567538D01*
X131054286Y-61567538D02*
X131006667Y-61615157D01*
X131006667Y-61615157D02*
X130959048Y-61638966D01*
X131411428Y-61496109D02*
X131720952Y-61496109D01*
X131720952Y-61496109D02*
X131554285Y-61686585D01*
X131554285Y-61686585D02*
X131625714Y-61686585D01*
X131625714Y-61686585D02*
X131673333Y-61710395D01*
X131673333Y-61710395D02*
X131697142Y-61734204D01*
X131697142Y-61734204D02*
X131720952Y-61781823D01*
X131720952Y-61781823D02*
X131720952Y-61900871D01*
X131720952Y-61900871D02*
X131697142Y-61948490D01*
X131697142Y-61948490D02*
X131673333Y-61972300D01*
X131673333Y-61972300D02*
X131625714Y-61996109D01*
X131625714Y-61996109D02*
X131482857Y-61996109D01*
X131482857Y-61996109D02*
X131435238Y-61972300D01*
X131435238Y-61972300D02*
X131411428Y-61948490D01*
D15*
X138006850Y-76952358D02*
X138062875Y-76896333D01*
X138062875Y-76896333D02*
X138230951Y-76840307D01*
X138230951Y-76840307D02*
X138343001Y-76840307D01*
X138343001Y-76840307D02*
X138511076Y-76896333D01*
X138511076Y-76896333D02*
X138623127Y-77008383D01*
X138623127Y-77008383D02*
X138679152Y-77120433D01*
X138679152Y-77120433D02*
X138735177Y-77344534D01*
X138735177Y-77344534D02*
X138735177Y-77512609D01*
X138735177Y-77512609D02*
X138679152Y-77736710D01*
X138679152Y-77736710D02*
X138623127Y-77848760D01*
X138623127Y-77848760D02*
X138511076Y-77960810D01*
X138511076Y-77960810D02*
X138343001Y-78016835D01*
X138343001Y-78016835D02*
X138230951Y-78016835D01*
X138230951Y-78016835D02*
X138062875Y-77960810D01*
X138062875Y-77960810D02*
X138006850Y-77904785D01*
X136886347Y-76840307D02*
X137558649Y-76840307D01*
X137222498Y-76840307D02*
X137222498Y-78016835D01*
X137222498Y-78016835D02*
X137334548Y-77848760D01*
X137334548Y-77848760D02*
X137446599Y-77736710D01*
X137446599Y-77736710D02*
X137558649Y-77680685D01*
X136158020Y-78016835D02*
X136045970Y-78016835D01*
X136045970Y-78016835D02*
X135933920Y-77960810D01*
X135933920Y-77960810D02*
X135877895Y-77904785D01*
X135877895Y-77904785D02*
X135821869Y-77792735D01*
X135821869Y-77792735D02*
X135765844Y-77568634D01*
X135765844Y-77568634D02*
X135765844Y-77288509D01*
X135765844Y-77288509D02*
X135821869Y-77064408D01*
X135821869Y-77064408D02*
X135877895Y-76952358D01*
X135877895Y-76952358D02*
X135933920Y-76896333D01*
X135933920Y-76896333D02*
X136045970Y-76840307D01*
X136045970Y-76840307D02*
X136158020Y-76840307D01*
X136158020Y-76840307D02*
X136270071Y-76896333D01*
X136270071Y-76896333D02*
X136326096Y-76952358D01*
X136326096Y-76952358D02*
X136382121Y-77064408D01*
X136382121Y-77064408D02*
X136438146Y-77288509D01*
X136438146Y-77288509D02*
X136438146Y-77568634D01*
X136438146Y-77568634D02*
X136382121Y-77792735D01*
X136382121Y-77792735D02*
X136326096Y-77904785D01*
X136326096Y-77904785D02*
X136270071Y-77960810D01*
X136270071Y-77960810D02*
X136158020Y-78016835D01*
X97643149Y-49147641D02*
X97587124Y-49203667D01*
X97587124Y-49203667D02*
X97419048Y-49259692D01*
X97419048Y-49259692D02*
X97306998Y-49259692D01*
X97306998Y-49259692D02*
X97138923Y-49203667D01*
X97138923Y-49203667D02*
X97026872Y-49091616D01*
X97026872Y-49091616D02*
X96970847Y-48979566D01*
X96970847Y-48979566D02*
X96914822Y-48755465D01*
X96914822Y-48755465D02*
X96914822Y-48587390D01*
X96914822Y-48587390D02*
X96970847Y-48363289D01*
X96970847Y-48363289D02*
X97026872Y-48251239D01*
X97026872Y-48251239D02*
X97138923Y-48139189D01*
X97138923Y-48139189D02*
X97306998Y-48083164D01*
X97306998Y-48083164D02*
X97419048Y-48083164D01*
X97419048Y-48083164D02*
X97587124Y-48139189D01*
X97587124Y-48139189D02*
X97643149Y-48195214D01*
X98035325Y-48083164D02*
X98763652Y-48083164D01*
X98763652Y-48083164D02*
X98371476Y-48531365D01*
X98371476Y-48531365D02*
X98539551Y-48531365D01*
X98539551Y-48531365D02*
X98651602Y-48587390D01*
X98651602Y-48587390D02*
X98707627Y-48643415D01*
X98707627Y-48643415D02*
X98763652Y-48755465D01*
X98763652Y-48755465D02*
X98763652Y-49035591D01*
X98763652Y-49035591D02*
X98707627Y-49147641D01*
X98707627Y-49147641D02*
X98651602Y-49203667D01*
X98651602Y-49203667D02*
X98539551Y-49259692D01*
X98539551Y-49259692D02*
X98203400Y-49259692D01*
X98203400Y-49259692D02*
X98091350Y-49203667D01*
X98091350Y-49203667D02*
X98035325Y-49147641D01*
X99884155Y-49259692D02*
X99211853Y-49259692D01*
X99548004Y-49259692D02*
X99548004Y-48083164D01*
X99548004Y-48083164D02*
X99435954Y-48251239D01*
X99435954Y-48251239D02*
X99323903Y-48363289D01*
X99323903Y-48363289D02*
X99211853Y-48419315D01*
D11*
X171344819Y-61586666D02*
X170868628Y-61919999D01*
X171344819Y-62158094D02*
X170344819Y-62158094D01*
X170344819Y-62158094D02*
X170344819Y-61777142D01*
X170344819Y-61777142D02*
X170392438Y-61681904D01*
X170392438Y-61681904D02*
X170440057Y-61634285D01*
X170440057Y-61634285D02*
X170535295Y-61586666D01*
X170535295Y-61586666D02*
X170678152Y-61586666D01*
X170678152Y-61586666D02*
X170773390Y-61634285D01*
X170773390Y-61634285D02*
X170821009Y-61681904D01*
X170821009Y-61681904D02*
X170868628Y-61777142D01*
X170868628Y-61777142D02*
X170868628Y-62158094D01*
X170344819Y-60729523D02*
X170344819Y-60919999D01*
X170344819Y-60919999D02*
X170392438Y-61015237D01*
X170392438Y-61015237D02*
X170440057Y-61062856D01*
X170440057Y-61062856D02*
X170582914Y-61158094D01*
X170582914Y-61158094D02*
X170773390Y-61205713D01*
X170773390Y-61205713D02*
X171154342Y-61205713D01*
X171154342Y-61205713D02*
X171249580Y-61158094D01*
X171249580Y-61158094D02*
X171297200Y-61110475D01*
X171297200Y-61110475D02*
X171344819Y-61015237D01*
X171344819Y-61015237D02*
X171344819Y-60824761D01*
X171344819Y-60824761D02*
X171297200Y-60729523D01*
X171297200Y-60729523D02*
X171249580Y-60681904D01*
X171249580Y-60681904D02*
X171154342Y-60634285D01*
X171154342Y-60634285D02*
X170916247Y-60634285D01*
X170916247Y-60634285D02*
X170821009Y-60681904D01*
X170821009Y-60681904D02*
X170773390Y-60729523D01*
X170773390Y-60729523D02*
X170725771Y-60824761D01*
X170725771Y-60824761D02*
X170725771Y-61015237D01*
X170725771Y-61015237D02*
X170773390Y-61110475D01*
X170773390Y-61110475D02*
X170821009Y-61158094D01*
X170821009Y-61158094D02*
X170916247Y-61205713D01*
D15*
X139986850Y-51982358D02*
X140042875Y-51926333D01*
X140042875Y-51926333D02*
X140210951Y-51870307D01*
X140210951Y-51870307D02*
X140323001Y-51870307D01*
X140323001Y-51870307D02*
X140491076Y-51926333D01*
X140491076Y-51926333D02*
X140603127Y-52038383D01*
X140603127Y-52038383D02*
X140659152Y-52150433D01*
X140659152Y-52150433D02*
X140715177Y-52374534D01*
X140715177Y-52374534D02*
X140715177Y-52542609D01*
X140715177Y-52542609D02*
X140659152Y-52766710D01*
X140659152Y-52766710D02*
X140603127Y-52878760D01*
X140603127Y-52878760D02*
X140491076Y-52990810D01*
X140491076Y-52990810D02*
X140323001Y-53046835D01*
X140323001Y-53046835D02*
X140210951Y-53046835D01*
X140210951Y-53046835D02*
X140042875Y-52990810D01*
X140042875Y-52990810D02*
X139986850Y-52934785D01*
X138922372Y-53046835D02*
X139482624Y-53046835D01*
X139482624Y-53046835D02*
X139538649Y-52486584D01*
X139538649Y-52486584D02*
X139482624Y-52542609D01*
X139482624Y-52542609D02*
X139370574Y-52598634D01*
X139370574Y-52598634D02*
X139090448Y-52598634D01*
X139090448Y-52598634D02*
X138978398Y-52542609D01*
X138978398Y-52542609D02*
X138922372Y-52486584D01*
X138922372Y-52486584D02*
X138866347Y-52374534D01*
X138866347Y-52374534D02*
X138866347Y-52094408D01*
X138866347Y-52094408D02*
X138922372Y-51982358D01*
X138922372Y-51982358D02*
X138978398Y-51926333D01*
X138978398Y-51926333D02*
X139090448Y-51870307D01*
X139090448Y-51870307D02*
X139370574Y-51870307D01*
X139370574Y-51870307D02*
X139482624Y-51926333D01*
X139482624Y-51926333D02*
X139538649Y-51982358D01*
X137745844Y-51870307D02*
X138418146Y-51870307D01*
X138081995Y-51870307D02*
X138081995Y-53046835D01*
X138081995Y-53046835D02*
X138194045Y-52878760D01*
X138194045Y-52878760D02*
X138306096Y-52766710D01*
X138306096Y-52766710D02*
X138418146Y-52710685D01*
D11*
X132104819Y-75618094D02*
X131104819Y-75618094D01*
X131104819Y-75618094D02*
X131104819Y-75379999D01*
X131104819Y-75379999D02*
X131152438Y-75237142D01*
X131152438Y-75237142D02*
X131247676Y-75141904D01*
X131247676Y-75141904D02*
X131342914Y-75094285D01*
X131342914Y-75094285D02*
X131533390Y-75046666D01*
X131533390Y-75046666D02*
X131676247Y-75046666D01*
X131676247Y-75046666D02*
X131866723Y-75094285D01*
X131866723Y-75094285D02*
X131961961Y-75141904D01*
X131961961Y-75141904D02*
X132057200Y-75237142D01*
X132057200Y-75237142D02*
X132104819Y-75379999D01*
X132104819Y-75379999D02*
X132104819Y-75618094D01*
X131104819Y-74713332D02*
X131104819Y-74094285D01*
X131104819Y-74094285D02*
X131485771Y-74427618D01*
X131485771Y-74427618D02*
X131485771Y-74284761D01*
X131485771Y-74284761D02*
X131533390Y-74189523D01*
X131533390Y-74189523D02*
X131581009Y-74141904D01*
X131581009Y-74141904D02*
X131676247Y-74094285D01*
X131676247Y-74094285D02*
X131914342Y-74094285D01*
X131914342Y-74094285D02*
X132009580Y-74141904D01*
X132009580Y-74141904D02*
X132057200Y-74189523D01*
X132057200Y-74189523D02*
X132104819Y-74284761D01*
X132104819Y-74284761D02*
X132104819Y-74570475D01*
X132104819Y-74570475D02*
X132057200Y-74665713D01*
X132057200Y-74665713D02*
X132009580Y-74713332D01*
D15*
X170957641Y-68146347D02*
X171013667Y-68202372D01*
X171013667Y-68202372D02*
X171069692Y-68370448D01*
X171069692Y-68370448D02*
X171069692Y-68482498D01*
X171069692Y-68482498D02*
X171013667Y-68650573D01*
X171013667Y-68650573D02*
X170901616Y-68762624D01*
X170901616Y-68762624D02*
X170789566Y-68818649D01*
X170789566Y-68818649D02*
X170565465Y-68874674D01*
X170565465Y-68874674D02*
X170397390Y-68874674D01*
X170397390Y-68874674D02*
X170173289Y-68818649D01*
X170173289Y-68818649D02*
X170061239Y-68762624D01*
X170061239Y-68762624D02*
X169949189Y-68650573D01*
X169949189Y-68650573D02*
X169893164Y-68482498D01*
X169893164Y-68482498D02*
X169893164Y-68370448D01*
X169893164Y-68370448D02*
X169949189Y-68202372D01*
X169949189Y-68202372D02*
X170005214Y-68146347D01*
X169893164Y-67081869D02*
X169893164Y-67642121D01*
X169893164Y-67642121D02*
X170453415Y-67698146D01*
X170453415Y-67698146D02*
X170397390Y-67642121D01*
X170397390Y-67642121D02*
X170341365Y-67530071D01*
X170341365Y-67530071D02*
X170341365Y-67249945D01*
X170341365Y-67249945D02*
X170397390Y-67137895D01*
X170397390Y-67137895D02*
X170453415Y-67081869D01*
X170453415Y-67081869D02*
X170565465Y-67025844D01*
X170565465Y-67025844D02*
X170845591Y-67025844D01*
X170845591Y-67025844D02*
X170957641Y-67081869D01*
X170957641Y-67081869D02*
X171013667Y-67137895D01*
X171013667Y-67137895D02*
X171069692Y-67249945D01*
X171069692Y-67249945D02*
X171069692Y-67530071D01*
X171069692Y-67530071D02*
X171013667Y-67642121D01*
X171013667Y-67642121D02*
X170957641Y-67698146D01*
D11*
X159484819Y-51158094D02*
X158484819Y-51158094D01*
X158484819Y-51158094D02*
X158484819Y-50919999D01*
X158484819Y-50919999D02*
X158532438Y-50777142D01*
X158532438Y-50777142D02*
X158627676Y-50681904D01*
X158627676Y-50681904D02*
X158722914Y-50634285D01*
X158722914Y-50634285D02*
X158913390Y-50586666D01*
X158913390Y-50586666D02*
X159056247Y-50586666D01*
X159056247Y-50586666D02*
X159246723Y-50634285D01*
X159246723Y-50634285D02*
X159341961Y-50681904D01*
X159341961Y-50681904D02*
X159437200Y-50777142D01*
X159437200Y-50777142D02*
X159484819Y-50919999D01*
X159484819Y-50919999D02*
X159484819Y-51158094D01*
X158818152Y-49729523D02*
X159484819Y-49729523D01*
X158437200Y-49967618D02*
X159151485Y-50205713D01*
X159151485Y-50205713D02*
X159151485Y-49586666D01*
X168241666Y-52299819D02*
X168241666Y-53014104D01*
X168241666Y-53014104D02*
X168194047Y-53156961D01*
X168194047Y-53156961D02*
X168098809Y-53252200D01*
X168098809Y-53252200D02*
X167955952Y-53299819D01*
X167955952Y-53299819D02*
X167860714Y-53299819D01*
X169146428Y-52633152D02*
X169146428Y-53299819D01*
X168908333Y-52252200D02*
X168670238Y-52966485D01*
X168670238Y-52966485D02*
X169289285Y-52966485D01*
D15*
X142089705Y-82943528D02*
X142033680Y-83055578D01*
X142033680Y-83055578D02*
X141921630Y-83167628D01*
X141921630Y-83167628D02*
X141753554Y-83335704D01*
X141753554Y-83335704D02*
X141697529Y-83447754D01*
X141697529Y-83447754D02*
X141697529Y-83559804D01*
X141977655Y-83503779D02*
X141921630Y-83615830D01*
X141921630Y-83615830D02*
X141809579Y-83727880D01*
X141809579Y-83727880D02*
X141585479Y-83783905D01*
X141585479Y-83783905D02*
X141193303Y-83783905D01*
X141193303Y-83783905D02*
X140969202Y-83727880D01*
X140969202Y-83727880D02*
X140857152Y-83615830D01*
X140857152Y-83615830D02*
X140801127Y-83503779D01*
X140801127Y-83503779D02*
X140801127Y-83279679D01*
X140801127Y-83279679D02*
X140857152Y-83167628D01*
X140857152Y-83167628D02*
X140969202Y-83055578D01*
X140969202Y-83055578D02*
X141193303Y-82999553D01*
X141193303Y-82999553D02*
X141585479Y-82999553D01*
X141585479Y-82999553D02*
X141809579Y-83055578D01*
X141809579Y-83055578D02*
X141921630Y-83167628D01*
X141921630Y-83167628D02*
X141977655Y-83279679D01*
X141977655Y-83279679D02*
X141977655Y-83503779D01*
X140857152Y-81879050D02*
X140801127Y-81991101D01*
X140801127Y-81991101D02*
X140801127Y-82159176D01*
X140801127Y-82159176D02*
X140857152Y-82327251D01*
X140857152Y-82327251D02*
X140969202Y-82439302D01*
X140969202Y-82439302D02*
X141081252Y-82495327D01*
X141081252Y-82495327D02*
X141305353Y-82551352D01*
X141305353Y-82551352D02*
X141473428Y-82551352D01*
X141473428Y-82551352D02*
X141697529Y-82495327D01*
X141697529Y-82495327D02*
X141809579Y-82439302D01*
X141809579Y-82439302D02*
X141921630Y-82327251D01*
X141921630Y-82327251D02*
X141977655Y-82159176D01*
X141977655Y-82159176D02*
X141977655Y-82047126D01*
X141977655Y-82047126D02*
X141921630Y-81879050D01*
X141921630Y-81879050D02*
X141865604Y-81823025D01*
X141865604Y-81823025D02*
X141473428Y-81823025D01*
X141473428Y-81823025D02*
X141473428Y-82047126D01*
X141977655Y-80702522D02*
X141977655Y-81374824D01*
X141977655Y-81038673D02*
X140801127Y-81038673D01*
X140801127Y-81038673D02*
X140969202Y-81150723D01*
X140969202Y-81150723D02*
X141081252Y-81262774D01*
X141081252Y-81262774D02*
X141137278Y-81374824D01*
D10*
X180118571Y-79876109D02*
X179951905Y-79638014D01*
X179832857Y-79876109D02*
X179832857Y-79376109D01*
X179832857Y-79376109D02*
X180023333Y-79376109D01*
X180023333Y-79376109D02*
X180070952Y-79399919D01*
X180070952Y-79399919D02*
X180094762Y-79423728D01*
X180094762Y-79423728D02*
X180118571Y-79471347D01*
X180118571Y-79471347D02*
X180118571Y-79542776D01*
X180118571Y-79542776D02*
X180094762Y-79590395D01*
X180094762Y-79590395D02*
X180070952Y-79614204D01*
X180070952Y-79614204D02*
X180023333Y-79638014D01*
X180023333Y-79638014D02*
X179832857Y-79638014D01*
X180309048Y-79423728D02*
X180332857Y-79399919D01*
X180332857Y-79399919D02*
X180380476Y-79376109D01*
X180380476Y-79376109D02*
X180499524Y-79376109D01*
X180499524Y-79376109D02*
X180547143Y-79399919D01*
X180547143Y-79399919D02*
X180570952Y-79423728D01*
X180570952Y-79423728D02*
X180594762Y-79471347D01*
X180594762Y-79471347D02*
X180594762Y-79518966D01*
X180594762Y-79518966D02*
X180570952Y-79590395D01*
X180570952Y-79590395D02*
X180285238Y-79876109D01*
X180285238Y-79876109D02*
X180594762Y-79876109D01*
X180880476Y-79590395D02*
X180832857Y-79566585D01*
X180832857Y-79566585D02*
X180809047Y-79542776D01*
X180809047Y-79542776D02*
X180785238Y-79495157D01*
X180785238Y-79495157D02*
X180785238Y-79471347D01*
X180785238Y-79471347D02*
X180809047Y-79423728D01*
X180809047Y-79423728D02*
X180832857Y-79399919D01*
X180832857Y-79399919D02*
X180880476Y-79376109D01*
X180880476Y-79376109D02*
X180975714Y-79376109D01*
X180975714Y-79376109D02*
X181023333Y-79399919D01*
X181023333Y-79399919D02*
X181047142Y-79423728D01*
X181047142Y-79423728D02*
X181070952Y-79471347D01*
X181070952Y-79471347D02*
X181070952Y-79495157D01*
X181070952Y-79495157D02*
X181047142Y-79542776D01*
X181047142Y-79542776D02*
X181023333Y-79566585D01*
X181023333Y-79566585D02*
X180975714Y-79590395D01*
X180975714Y-79590395D02*
X180880476Y-79590395D01*
X180880476Y-79590395D02*
X180832857Y-79614204D01*
X180832857Y-79614204D02*
X180809047Y-79638014D01*
X180809047Y-79638014D02*
X180785238Y-79685633D01*
X180785238Y-79685633D02*
X180785238Y-79780871D01*
X180785238Y-79780871D02*
X180809047Y-79828490D01*
X180809047Y-79828490D02*
X180832857Y-79852300D01*
X180832857Y-79852300D02*
X180880476Y-79876109D01*
X180880476Y-79876109D02*
X180975714Y-79876109D01*
X180975714Y-79876109D02*
X181023333Y-79852300D01*
X181023333Y-79852300D02*
X181047142Y-79828490D01*
X181047142Y-79828490D02*
X181070952Y-79780871D01*
X181070952Y-79780871D02*
X181070952Y-79685633D01*
X181070952Y-79685633D02*
X181047142Y-79638014D01*
X181047142Y-79638014D02*
X181023333Y-79614204D01*
X181023333Y-79614204D02*
X180975714Y-79590395D01*
X128428571Y-59106109D02*
X128261905Y-58868014D01*
X128142857Y-59106109D02*
X128142857Y-58606109D01*
X128142857Y-58606109D02*
X128333333Y-58606109D01*
X128333333Y-58606109D02*
X128380952Y-58629919D01*
X128380952Y-58629919D02*
X128404762Y-58653728D01*
X128404762Y-58653728D02*
X128428571Y-58701347D01*
X128428571Y-58701347D02*
X128428571Y-58772776D01*
X128428571Y-58772776D02*
X128404762Y-58820395D01*
X128404762Y-58820395D02*
X128380952Y-58844204D01*
X128380952Y-58844204D02*
X128333333Y-58868014D01*
X128333333Y-58868014D02*
X128142857Y-58868014D01*
X128904762Y-59106109D02*
X128619048Y-59106109D01*
X128761905Y-59106109D02*
X128761905Y-58606109D01*
X128761905Y-58606109D02*
X128714286Y-58677538D01*
X128714286Y-58677538D02*
X128666667Y-58725157D01*
X128666667Y-58725157D02*
X128619048Y-58748966D01*
X129095238Y-58653728D02*
X129119047Y-58629919D01*
X129119047Y-58629919D02*
X129166666Y-58606109D01*
X129166666Y-58606109D02*
X129285714Y-58606109D01*
X129285714Y-58606109D02*
X129333333Y-58629919D01*
X129333333Y-58629919D02*
X129357142Y-58653728D01*
X129357142Y-58653728D02*
X129380952Y-58701347D01*
X129380952Y-58701347D02*
X129380952Y-58748966D01*
X129380952Y-58748966D02*
X129357142Y-58820395D01*
X129357142Y-58820395D02*
X129071428Y-59106109D01*
X129071428Y-59106109D02*
X129380952Y-59106109D01*
D15*
X155253149Y-48577641D02*
X155197124Y-48633667D01*
X155197124Y-48633667D02*
X155029048Y-48689692D01*
X155029048Y-48689692D02*
X154916998Y-48689692D01*
X154916998Y-48689692D02*
X154748923Y-48633667D01*
X154748923Y-48633667D02*
X154636872Y-48521616D01*
X154636872Y-48521616D02*
X154580847Y-48409566D01*
X154580847Y-48409566D02*
X154524822Y-48185465D01*
X154524822Y-48185465D02*
X154524822Y-48017390D01*
X154524822Y-48017390D02*
X154580847Y-47793289D01*
X154580847Y-47793289D02*
X154636872Y-47681239D01*
X154636872Y-47681239D02*
X154748923Y-47569189D01*
X154748923Y-47569189D02*
X154916998Y-47513164D01*
X154916998Y-47513164D02*
X155029048Y-47513164D01*
X155029048Y-47513164D02*
X155197124Y-47569189D01*
X155197124Y-47569189D02*
X155253149Y-47625214D01*
X156317627Y-47513164D02*
X155757375Y-47513164D01*
X155757375Y-47513164D02*
X155701350Y-48073415D01*
X155701350Y-48073415D02*
X155757375Y-48017390D01*
X155757375Y-48017390D02*
X155869426Y-47961365D01*
X155869426Y-47961365D02*
X156149551Y-47961365D01*
X156149551Y-47961365D02*
X156261602Y-48017390D01*
X156261602Y-48017390D02*
X156317627Y-48073415D01*
X156317627Y-48073415D02*
X156373652Y-48185465D01*
X156373652Y-48185465D02*
X156373652Y-48465591D01*
X156373652Y-48465591D02*
X156317627Y-48577641D01*
X156317627Y-48577641D02*
X156261602Y-48633667D01*
X156261602Y-48633667D02*
X156149551Y-48689692D01*
X156149551Y-48689692D02*
X155869426Y-48689692D01*
X155869426Y-48689692D02*
X155757375Y-48633667D01*
X155757375Y-48633667D02*
X155701350Y-48577641D01*
X156765828Y-47513164D02*
X157494155Y-47513164D01*
X157494155Y-47513164D02*
X157101979Y-47961365D01*
X157101979Y-47961365D02*
X157270054Y-47961365D01*
X157270054Y-47961365D02*
X157382105Y-48017390D01*
X157382105Y-48017390D02*
X157438130Y-48073415D01*
X157438130Y-48073415D02*
X157494155Y-48185465D01*
X157494155Y-48185465D02*
X157494155Y-48465591D01*
X157494155Y-48465591D02*
X157438130Y-48577641D01*
X157438130Y-48577641D02*
X157382105Y-48633667D01*
X157382105Y-48633667D02*
X157270054Y-48689692D01*
X157270054Y-48689692D02*
X156933903Y-48689692D01*
X156933903Y-48689692D02*
X156821853Y-48633667D01*
X156821853Y-48633667D02*
X156765828Y-48577641D01*
X110725971Y-75733205D02*
X110613921Y-75677180D01*
X110613921Y-75677180D02*
X110501871Y-75565130D01*
X110501871Y-75565130D02*
X110333795Y-75397054D01*
X110333795Y-75397054D02*
X110221745Y-75341029D01*
X110221745Y-75341029D02*
X110109695Y-75341029D01*
X110165720Y-75621155D02*
X110053670Y-75565130D01*
X110053670Y-75565130D02*
X109941619Y-75453079D01*
X109941619Y-75453079D02*
X109885594Y-75228979D01*
X109885594Y-75228979D02*
X109885594Y-74836803D01*
X109885594Y-74836803D02*
X109941619Y-74612702D01*
X109941619Y-74612702D02*
X110053670Y-74500652D01*
X110053670Y-74500652D02*
X110165720Y-74444627D01*
X110165720Y-74444627D02*
X110389820Y-74444627D01*
X110389820Y-74444627D02*
X110501871Y-74500652D01*
X110501871Y-74500652D02*
X110613921Y-74612702D01*
X110613921Y-74612702D02*
X110669946Y-74836803D01*
X110669946Y-74836803D02*
X110669946Y-75228979D01*
X110669946Y-75228979D02*
X110613921Y-75453079D01*
X110613921Y-75453079D02*
X110501871Y-75565130D01*
X110501871Y-75565130D02*
X110389820Y-75621155D01*
X110389820Y-75621155D02*
X110165720Y-75621155D01*
X111790449Y-75621155D02*
X111118147Y-75621155D01*
X111454298Y-75621155D02*
X111454298Y-74444627D01*
X111454298Y-74444627D02*
X111342248Y-74612702D01*
X111342248Y-74612702D02*
X111230197Y-74724752D01*
X111230197Y-74724752D02*
X111118147Y-74780778D01*
X112798902Y-74836803D02*
X112798902Y-75621155D01*
X112518776Y-74388602D02*
X112238650Y-75228979D01*
X112238650Y-75228979D02*
X112966977Y-75228979D01*
X171987641Y-51986347D02*
X172043667Y-52042372D01*
X172043667Y-52042372D02*
X172099692Y-52210448D01*
X172099692Y-52210448D02*
X172099692Y-52322498D01*
X172099692Y-52322498D02*
X172043667Y-52490573D01*
X172043667Y-52490573D02*
X171931616Y-52602624D01*
X171931616Y-52602624D02*
X171819566Y-52658649D01*
X171819566Y-52658649D02*
X171595465Y-52714674D01*
X171595465Y-52714674D02*
X171427390Y-52714674D01*
X171427390Y-52714674D02*
X171203289Y-52658649D01*
X171203289Y-52658649D02*
X171091239Y-52602624D01*
X171091239Y-52602624D02*
X170979189Y-52490573D01*
X170979189Y-52490573D02*
X170923164Y-52322498D01*
X170923164Y-52322498D02*
X170923164Y-52210448D01*
X170923164Y-52210448D02*
X170979189Y-52042372D01*
X170979189Y-52042372D02*
X171035214Y-51986347D01*
X172099692Y-50865844D02*
X172099692Y-51538146D01*
X172099692Y-51201995D02*
X170923164Y-51201995D01*
X170923164Y-51201995D02*
X171091239Y-51314045D01*
X171091239Y-51314045D02*
X171203289Y-51426096D01*
X171203289Y-51426096D02*
X171259315Y-51538146D01*
D10*
X121880990Y-65023407D02*
X121904800Y-65047216D01*
X121904800Y-65047216D02*
X121928609Y-65118645D01*
X121928609Y-65118645D02*
X121928609Y-65166264D01*
X121928609Y-65166264D02*
X121904800Y-65237692D01*
X121904800Y-65237692D02*
X121857180Y-65285311D01*
X121857180Y-65285311D02*
X121809561Y-65309121D01*
X121809561Y-65309121D02*
X121714323Y-65332930D01*
X121714323Y-65332930D02*
X121642895Y-65332930D01*
X121642895Y-65332930D02*
X121547657Y-65309121D01*
X121547657Y-65309121D02*
X121500038Y-65285311D01*
X121500038Y-65285311D02*
X121452419Y-65237692D01*
X121452419Y-65237692D02*
X121428609Y-65166264D01*
X121428609Y-65166264D02*
X121428609Y-65118645D01*
X121428609Y-65118645D02*
X121452419Y-65047216D01*
X121452419Y-65047216D02*
X121476228Y-65023407D01*
X121595276Y-64594835D02*
X121928609Y-64594835D01*
X121404800Y-64713883D02*
X121761942Y-64832930D01*
X121761942Y-64832930D02*
X121761942Y-64523407D01*
X121928609Y-64071026D02*
X121928609Y-64356740D01*
X121928609Y-64213883D02*
X121428609Y-64213883D01*
X121428609Y-64213883D02*
X121500038Y-64261502D01*
X121500038Y-64261502D02*
X121547657Y-64309121D01*
X121547657Y-64309121D02*
X121571466Y-64356740D01*
X122518009Y-69257563D02*
X122922771Y-69257563D01*
X122922771Y-69257563D02*
X122970390Y-69233753D01*
X122970390Y-69233753D02*
X122994200Y-69209944D01*
X122994200Y-69209944D02*
X123018009Y-69162325D01*
X123018009Y-69162325D02*
X123018009Y-69067087D01*
X123018009Y-69067087D02*
X122994200Y-69019468D01*
X122994200Y-69019468D02*
X122970390Y-68995658D01*
X122970390Y-68995658D02*
X122922771Y-68971849D01*
X122922771Y-68971849D02*
X122518009Y-68971849D01*
X122518009Y-68781372D02*
X122518009Y-68471848D01*
X122518009Y-68471848D02*
X122708485Y-68638515D01*
X122708485Y-68638515D02*
X122708485Y-68567086D01*
X122708485Y-68567086D02*
X122732295Y-68519467D01*
X122732295Y-68519467D02*
X122756104Y-68495658D01*
X122756104Y-68495658D02*
X122803723Y-68471848D01*
X122803723Y-68471848D02*
X122922771Y-68471848D01*
X122922771Y-68471848D02*
X122970390Y-68495658D01*
X122970390Y-68495658D02*
X122994200Y-68519467D01*
X122994200Y-68519467D02*
X123018009Y-68567086D01*
X123018009Y-68567086D02*
X123018009Y-68709943D01*
X123018009Y-68709943D02*
X122994200Y-68757562D01*
X122994200Y-68757562D02*
X122970390Y-68781372D01*
D15*
X178802358Y-59133652D02*
X178746333Y-59077627D01*
X178746333Y-59077627D02*
X178690307Y-58909551D01*
X178690307Y-58909551D02*
X178690307Y-58797501D01*
X178690307Y-58797501D02*
X178746333Y-58629426D01*
X178746333Y-58629426D02*
X178858383Y-58517375D01*
X178858383Y-58517375D02*
X178970433Y-58461350D01*
X178970433Y-58461350D02*
X179194534Y-58405325D01*
X179194534Y-58405325D02*
X179362609Y-58405325D01*
X179362609Y-58405325D02*
X179586710Y-58461350D01*
X179586710Y-58461350D02*
X179698760Y-58517375D01*
X179698760Y-58517375D02*
X179810810Y-58629426D01*
X179810810Y-58629426D02*
X179866835Y-58797501D01*
X179866835Y-58797501D02*
X179866835Y-58909551D01*
X179866835Y-58909551D02*
X179810810Y-59077627D01*
X179810810Y-59077627D02*
X179754785Y-59133652D01*
X179754785Y-59581853D02*
X179810810Y-59637878D01*
X179810810Y-59637878D02*
X179866835Y-59749929D01*
X179866835Y-59749929D02*
X179866835Y-60030054D01*
X179866835Y-60030054D02*
X179810810Y-60142105D01*
X179810810Y-60142105D02*
X179754785Y-60198130D01*
X179754785Y-60198130D02*
X179642735Y-60254155D01*
X179642735Y-60254155D02*
X179530685Y-60254155D01*
X179530685Y-60254155D02*
X179362609Y-60198130D01*
X179362609Y-60198130D02*
X178690307Y-59525828D01*
X178690307Y-59525828D02*
X178690307Y-60254155D01*
D11*
X131034819Y-75632857D02*
X130558628Y-75966190D01*
X131034819Y-76204285D02*
X130034819Y-76204285D01*
X130034819Y-76204285D02*
X130034819Y-75823333D01*
X130034819Y-75823333D02*
X130082438Y-75728095D01*
X130082438Y-75728095D02*
X130130057Y-75680476D01*
X130130057Y-75680476D02*
X130225295Y-75632857D01*
X130225295Y-75632857D02*
X130368152Y-75632857D01*
X130368152Y-75632857D02*
X130463390Y-75680476D01*
X130463390Y-75680476D02*
X130511009Y-75728095D01*
X130511009Y-75728095D02*
X130558628Y-75823333D01*
X130558628Y-75823333D02*
X130558628Y-76204285D01*
X131034819Y-74680476D02*
X131034819Y-75251904D01*
X131034819Y-74966190D02*
X130034819Y-74966190D01*
X130034819Y-74966190D02*
X130177676Y-75061428D01*
X130177676Y-75061428D02*
X130272914Y-75156666D01*
X130272914Y-75156666D02*
X130320533Y-75251904D01*
X130034819Y-74061428D02*
X130034819Y-73966190D01*
X130034819Y-73966190D02*
X130082438Y-73870952D01*
X130082438Y-73870952D02*
X130130057Y-73823333D01*
X130130057Y-73823333D02*
X130225295Y-73775714D01*
X130225295Y-73775714D02*
X130415771Y-73728095D01*
X130415771Y-73728095D02*
X130653866Y-73728095D01*
X130653866Y-73728095D02*
X130844342Y-73775714D01*
X130844342Y-73775714D02*
X130939580Y-73823333D01*
X130939580Y-73823333D02*
X130987200Y-73870952D01*
X130987200Y-73870952D02*
X131034819Y-73966190D01*
X131034819Y-73966190D02*
X131034819Y-74061428D01*
X131034819Y-74061428D02*
X130987200Y-74156666D01*
X130987200Y-74156666D02*
X130939580Y-74204285D01*
X130939580Y-74204285D02*
X130844342Y-74251904D01*
X130844342Y-74251904D02*
X130653866Y-74299523D01*
X130653866Y-74299523D02*
X130415771Y-74299523D01*
X130415771Y-74299523D02*
X130225295Y-74251904D01*
X130225295Y-74251904D02*
X130130057Y-74204285D01*
X130130057Y-74204285D02*
X130082438Y-74156666D01*
X130082438Y-74156666D02*
X130034819Y-74061428D01*
X167916667Y-90397200D02*
X168059524Y-90444819D01*
X168059524Y-90444819D02*
X168297619Y-90444819D01*
X168297619Y-90444819D02*
X168392857Y-90397200D01*
X168392857Y-90397200D02*
X168440476Y-90349580D01*
X168440476Y-90349580D02*
X168488095Y-90254342D01*
X168488095Y-90254342D02*
X168488095Y-90159104D01*
X168488095Y-90159104D02*
X168440476Y-90063866D01*
X168440476Y-90063866D02*
X168392857Y-90016247D01*
X168392857Y-90016247D02*
X168297619Y-89968628D01*
X168297619Y-89968628D02*
X168107143Y-89921009D01*
X168107143Y-89921009D02*
X168011905Y-89873390D01*
X168011905Y-89873390D02*
X167964286Y-89825771D01*
X167964286Y-89825771D02*
X167916667Y-89730533D01*
X167916667Y-89730533D02*
X167916667Y-89635295D01*
X167916667Y-89635295D02*
X167964286Y-89540057D01*
X167964286Y-89540057D02*
X168011905Y-89492438D01*
X168011905Y-89492438D02*
X168107143Y-89444819D01*
X168107143Y-89444819D02*
X168345238Y-89444819D01*
X168345238Y-89444819D02*
X168488095Y-89492438D01*
X168821429Y-89444819D02*
X169059524Y-90444819D01*
X169059524Y-90444819D02*
X169250000Y-89730533D01*
X169250000Y-89730533D02*
X169440476Y-90444819D01*
X169440476Y-90444819D02*
X169678572Y-89444819D01*
X170011905Y-89540057D02*
X170059524Y-89492438D01*
X170059524Y-89492438D02*
X170154762Y-89444819D01*
X170154762Y-89444819D02*
X170392857Y-89444819D01*
X170392857Y-89444819D02*
X170488095Y-89492438D01*
X170488095Y-89492438D02*
X170535714Y-89540057D01*
X170535714Y-89540057D02*
X170583333Y-89635295D01*
X170583333Y-89635295D02*
X170583333Y-89730533D01*
X170583333Y-89730533D02*
X170535714Y-89873390D01*
X170535714Y-89873390D02*
X169964286Y-90444819D01*
X169964286Y-90444819D02*
X170583333Y-90444819D01*
D10*
X182606592Y-75300990D02*
X182582783Y-75324800D01*
X182582783Y-75324800D02*
X182511354Y-75348609D01*
X182511354Y-75348609D02*
X182463735Y-75348609D01*
X182463735Y-75348609D02*
X182392307Y-75324800D01*
X182392307Y-75324800D02*
X182344688Y-75277180D01*
X182344688Y-75277180D02*
X182320878Y-75229561D01*
X182320878Y-75229561D02*
X182297069Y-75134323D01*
X182297069Y-75134323D02*
X182297069Y-75062895D01*
X182297069Y-75062895D02*
X182320878Y-74967657D01*
X182320878Y-74967657D02*
X182344688Y-74920038D01*
X182344688Y-74920038D02*
X182392307Y-74872419D01*
X182392307Y-74872419D02*
X182463735Y-74848609D01*
X182463735Y-74848609D02*
X182511354Y-74848609D01*
X182511354Y-74848609D02*
X182582783Y-74872419D01*
X182582783Y-74872419D02*
X182606592Y-74896228D01*
X183082783Y-75348609D02*
X182797069Y-75348609D01*
X182939926Y-75348609D02*
X182939926Y-74848609D01*
X182939926Y-74848609D02*
X182892307Y-74920038D01*
X182892307Y-74920038D02*
X182844688Y-74967657D01*
X182844688Y-74967657D02*
X182797069Y-74991466D01*
X183558973Y-75348609D02*
X183273259Y-75348609D01*
X183416116Y-75348609D02*
X183416116Y-74848609D01*
X183416116Y-74848609D02*
X183368497Y-74920038D01*
X183368497Y-74920038D02*
X183320878Y-74967657D01*
X183320878Y-74967657D02*
X183273259Y-74991466D01*
D15*
X131583149Y-49747641D02*
X131527124Y-49803667D01*
X131527124Y-49803667D02*
X131359048Y-49859692D01*
X131359048Y-49859692D02*
X131246998Y-49859692D01*
X131246998Y-49859692D02*
X131078923Y-49803667D01*
X131078923Y-49803667D02*
X130966872Y-49691616D01*
X130966872Y-49691616D02*
X130910847Y-49579566D01*
X130910847Y-49579566D02*
X130854822Y-49355465D01*
X130854822Y-49355465D02*
X130854822Y-49187390D01*
X130854822Y-49187390D02*
X130910847Y-48963289D01*
X130910847Y-48963289D02*
X130966872Y-48851239D01*
X130966872Y-48851239D02*
X131078923Y-48739189D01*
X131078923Y-48739189D02*
X131246998Y-48683164D01*
X131246998Y-48683164D02*
X131359048Y-48683164D01*
X131359048Y-48683164D02*
X131527124Y-48739189D01*
X131527124Y-48739189D02*
X131583149Y-48795214D01*
X132647627Y-48683164D02*
X132087375Y-48683164D01*
X132087375Y-48683164D02*
X132031350Y-49243415D01*
X132031350Y-49243415D02*
X132087375Y-49187390D01*
X132087375Y-49187390D02*
X132199426Y-49131365D01*
X132199426Y-49131365D02*
X132479551Y-49131365D01*
X132479551Y-49131365D02*
X132591602Y-49187390D01*
X132591602Y-49187390D02*
X132647627Y-49243415D01*
X132647627Y-49243415D02*
X132703652Y-49355465D01*
X132703652Y-49355465D02*
X132703652Y-49635591D01*
X132703652Y-49635591D02*
X132647627Y-49747641D01*
X132647627Y-49747641D02*
X132591602Y-49803667D01*
X132591602Y-49803667D02*
X132479551Y-49859692D01*
X132479551Y-49859692D02*
X132199426Y-49859692D01*
X132199426Y-49859692D02*
X132087375Y-49803667D01*
X132087375Y-49803667D02*
X132031350Y-49747641D01*
X133712105Y-49075340D02*
X133712105Y-49859692D01*
X133431979Y-48627139D02*
X133151853Y-49467516D01*
X133151853Y-49467516D02*
X133880180Y-49467516D01*
D11*
X101574819Y-84012857D02*
X101098628Y-84346190D01*
X101574819Y-84584285D02*
X100574819Y-84584285D01*
X100574819Y-84584285D02*
X100574819Y-84203333D01*
X100574819Y-84203333D02*
X100622438Y-84108095D01*
X100622438Y-84108095D02*
X100670057Y-84060476D01*
X100670057Y-84060476D02*
X100765295Y-84012857D01*
X100765295Y-84012857D02*
X100908152Y-84012857D01*
X100908152Y-84012857D02*
X101003390Y-84060476D01*
X101003390Y-84060476D02*
X101051009Y-84108095D01*
X101051009Y-84108095D02*
X101098628Y-84203333D01*
X101098628Y-84203333D02*
X101098628Y-84584285D01*
X101574819Y-83060476D02*
X101574819Y-83631904D01*
X101574819Y-83346190D02*
X100574819Y-83346190D01*
X100574819Y-83346190D02*
X100717676Y-83441428D01*
X100717676Y-83441428D02*
X100812914Y-83536666D01*
X100812914Y-83536666D02*
X100860533Y-83631904D01*
X100574819Y-82727142D02*
X100574819Y-82060476D01*
X100574819Y-82060476D02*
X101574819Y-82489047D01*
D16*
X164580946Y-80538305D02*
X164580946Y-81748483D01*
X164580946Y-81748483D02*
X164119926Y-81748483D01*
X164119926Y-81748483D02*
X164004671Y-81690855D01*
X164004671Y-81690855D02*
X163947043Y-81633228D01*
X163947043Y-81633228D02*
X163889416Y-81517973D01*
X163889416Y-81517973D02*
X163889416Y-81345090D01*
X163889416Y-81345090D02*
X163947043Y-81229835D01*
X163947043Y-81229835D02*
X164004671Y-81172208D01*
X164004671Y-81172208D02*
X164119926Y-81114580D01*
X164119926Y-81114580D02*
X164580946Y-81114580D01*
X162736865Y-80538305D02*
X163428395Y-80538305D01*
X163082630Y-80538305D02*
X163082630Y-81748483D01*
X163082630Y-81748483D02*
X163197885Y-81575600D01*
X163197885Y-81575600D02*
X163313140Y-81460345D01*
X163313140Y-81460345D02*
X163428395Y-81402718D01*
D11*
X107324819Y-84042857D02*
X106848628Y-84376190D01*
X107324819Y-84614285D02*
X106324819Y-84614285D01*
X106324819Y-84614285D02*
X106324819Y-84233333D01*
X106324819Y-84233333D02*
X106372438Y-84138095D01*
X106372438Y-84138095D02*
X106420057Y-84090476D01*
X106420057Y-84090476D02*
X106515295Y-84042857D01*
X106515295Y-84042857D02*
X106658152Y-84042857D01*
X106658152Y-84042857D02*
X106753390Y-84090476D01*
X106753390Y-84090476D02*
X106801009Y-84138095D01*
X106801009Y-84138095D02*
X106848628Y-84233333D01*
X106848628Y-84233333D02*
X106848628Y-84614285D01*
X107324819Y-83090476D02*
X107324819Y-83661904D01*
X107324819Y-83376190D02*
X106324819Y-83376190D01*
X106324819Y-83376190D02*
X106467676Y-83471428D01*
X106467676Y-83471428D02*
X106562914Y-83566666D01*
X106562914Y-83566666D02*
X106610533Y-83661904D01*
X106753390Y-82519047D02*
X106705771Y-82614285D01*
X106705771Y-82614285D02*
X106658152Y-82661904D01*
X106658152Y-82661904D02*
X106562914Y-82709523D01*
X106562914Y-82709523D02*
X106515295Y-82709523D01*
X106515295Y-82709523D02*
X106420057Y-82661904D01*
X106420057Y-82661904D02*
X106372438Y-82614285D01*
X106372438Y-82614285D02*
X106324819Y-82519047D01*
X106324819Y-82519047D02*
X106324819Y-82328571D01*
X106324819Y-82328571D02*
X106372438Y-82233333D01*
X106372438Y-82233333D02*
X106420057Y-82185714D01*
X106420057Y-82185714D02*
X106515295Y-82138095D01*
X106515295Y-82138095D02*
X106562914Y-82138095D01*
X106562914Y-82138095D02*
X106658152Y-82185714D01*
X106658152Y-82185714D02*
X106705771Y-82233333D01*
X106705771Y-82233333D02*
X106753390Y-82328571D01*
X106753390Y-82328571D02*
X106753390Y-82519047D01*
X106753390Y-82519047D02*
X106801009Y-82614285D01*
X106801009Y-82614285D02*
X106848628Y-82661904D01*
X106848628Y-82661904D02*
X106943866Y-82709523D01*
X106943866Y-82709523D02*
X107134342Y-82709523D01*
X107134342Y-82709523D02*
X107229580Y-82661904D01*
X107229580Y-82661904D02*
X107277200Y-82614285D01*
X107277200Y-82614285D02*
X107324819Y-82519047D01*
X107324819Y-82519047D02*
X107324819Y-82328571D01*
X107324819Y-82328571D02*
X107277200Y-82233333D01*
X107277200Y-82233333D02*
X107229580Y-82185714D01*
X107229580Y-82185714D02*
X107134342Y-82138095D01*
X107134342Y-82138095D02*
X106943866Y-82138095D01*
X106943866Y-82138095D02*
X106848628Y-82185714D01*
X106848628Y-82185714D02*
X106801009Y-82233333D01*
X106801009Y-82233333D02*
X106753390Y-82328571D01*
D15*
X139253528Y-83550294D02*
X139365578Y-83606319D01*
X139365578Y-83606319D02*
X139477628Y-83718370D01*
X139477628Y-83718370D02*
X139645704Y-83886445D01*
X139645704Y-83886445D02*
X139757754Y-83942470D01*
X139757754Y-83942470D02*
X139869804Y-83942470D01*
X139813779Y-83662344D02*
X139925830Y-83718370D01*
X139925830Y-83718370D02*
X140037880Y-83830420D01*
X140037880Y-83830420D02*
X140093905Y-84054520D01*
X140093905Y-84054520D02*
X140093905Y-84446696D01*
X140093905Y-84446696D02*
X140037880Y-84670797D01*
X140037880Y-84670797D02*
X139925830Y-84782847D01*
X139925830Y-84782847D02*
X139813779Y-84838872D01*
X139813779Y-84838872D02*
X139589679Y-84838872D01*
X139589679Y-84838872D02*
X139477628Y-84782847D01*
X139477628Y-84782847D02*
X139365578Y-84670797D01*
X139365578Y-84670797D02*
X139309553Y-84446696D01*
X139309553Y-84446696D02*
X139309553Y-84054520D01*
X139309553Y-84054520D02*
X139365578Y-83830420D01*
X139365578Y-83830420D02*
X139477628Y-83718370D01*
X139477628Y-83718370D02*
X139589679Y-83662344D01*
X139589679Y-83662344D02*
X139813779Y-83662344D01*
X138189050Y-84782847D02*
X138301101Y-84838872D01*
X138301101Y-84838872D02*
X138469176Y-84838872D01*
X138469176Y-84838872D02*
X138637251Y-84782847D01*
X138637251Y-84782847D02*
X138749302Y-84670797D01*
X138749302Y-84670797D02*
X138805327Y-84558747D01*
X138805327Y-84558747D02*
X138861352Y-84334646D01*
X138861352Y-84334646D02*
X138861352Y-84166571D01*
X138861352Y-84166571D02*
X138805327Y-83942470D01*
X138805327Y-83942470D02*
X138749302Y-83830420D01*
X138749302Y-83830420D02*
X138637251Y-83718370D01*
X138637251Y-83718370D02*
X138469176Y-83662344D01*
X138469176Y-83662344D02*
X138357126Y-83662344D01*
X138357126Y-83662344D02*
X138189050Y-83718370D01*
X138189050Y-83718370D02*
X138133025Y-83774395D01*
X138133025Y-83774395D02*
X138133025Y-84166571D01*
X138133025Y-84166571D02*
X138357126Y-84166571D01*
X137684824Y-84726822D02*
X137628799Y-84782847D01*
X137628799Y-84782847D02*
X137516749Y-84838872D01*
X137516749Y-84838872D02*
X137236623Y-84838872D01*
X137236623Y-84838872D02*
X137124573Y-84782847D01*
X137124573Y-84782847D02*
X137068547Y-84726822D01*
X137068547Y-84726822D02*
X137012522Y-84614772D01*
X137012522Y-84614772D02*
X137012522Y-84502722D01*
X137012522Y-84502722D02*
X137068547Y-84334646D01*
X137068547Y-84334646D02*
X137740849Y-83662344D01*
X137740849Y-83662344D02*
X137012522Y-83662344D01*
D11*
X177104819Y-67787857D02*
X176628628Y-68121190D01*
X177104819Y-68359285D02*
X176104819Y-68359285D01*
X176104819Y-68359285D02*
X176104819Y-67978333D01*
X176104819Y-67978333D02*
X176152438Y-67883095D01*
X176152438Y-67883095D02*
X176200057Y-67835476D01*
X176200057Y-67835476D02*
X176295295Y-67787857D01*
X176295295Y-67787857D02*
X176438152Y-67787857D01*
X176438152Y-67787857D02*
X176533390Y-67835476D01*
X176533390Y-67835476D02*
X176581009Y-67883095D01*
X176581009Y-67883095D02*
X176628628Y-67978333D01*
X176628628Y-67978333D02*
X176628628Y-68359285D01*
X177104819Y-66835476D02*
X177104819Y-67406904D01*
X177104819Y-67121190D02*
X176104819Y-67121190D01*
X176104819Y-67121190D02*
X176247676Y-67216428D01*
X176247676Y-67216428D02*
X176342914Y-67311666D01*
X176342914Y-67311666D02*
X176390533Y-67406904D01*
X177104819Y-66359285D02*
X177104819Y-66168809D01*
X177104819Y-66168809D02*
X177057200Y-66073571D01*
X177057200Y-66073571D02*
X177009580Y-66025952D01*
X177009580Y-66025952D02*
X176866723Y-65930714D01*
X176866723Y-65930714D02*
X176676247Y-65883095D01*
X176676247Y-65883095D02*
X176295295Y-65883095D01*
X176295295Y-65883095D02*
X176200057Y-65930714D01*
X176200057Y-65930714D02*
X176152438Y-65978333D01*
X176152438Y-65978333D02*
X176104819Y-66073571D01*
X176104819Y-66073571D02*
X176104819Y-66264047D01*
X176104819Y-66264047D02*
X176152438Y-66359285D01*
X176152438Y-66359285D02*
X176200057Y-66406904D01*
X176200057Y-66406904D02*
X176295295Y-66454523D01*
X176295295Y-66454523D02*
X176533390Y-66454523D01*
X176533390Y-66454523D02*
X176628628Y-66406904D01*
X176628628Y-66406904D02*
X176676247Y-66359285D01*
X176676247Y-66359285D02*
X176723866Y-66264047D01*
X176723866Y-66264047D02*
X176723866Y-66073571D01*
X176723866Y-66073571D02*
X176676247Y-65978333D01*
X176676247Y-65978333D02*
X176628628Y-65930714D01*
X176628628Y-65930714D02*
X176533390Y-65883095D01*
X170605057Y-79785238D02*
X170557438Y-79880476D01*
X170557438Y-79880476D02*
X170462200Y-79975714D01*
X170462200Y-79975714D02*
X170319342Y-80118571D01*
X170319342Y-80118571D02*
X170271723Y-80213809D01*
X170271723Y-80213809D02*
X170271723Y-80309047D01*
X170509819Y-80261428D02*
X170462200Y-80356666D01*
X170462200Y-80356666D02*
X170366961Y-80451904D01*
X170366961Y-80451904D02*
X170176485Y-80499523D01*
X170176485Y-80499523D02*
X169843152Y-80499523D01*
X169843152Y-80499523D02*
X169652676Y-80451904D01*
X169652676Y-80451904D02*
X169557438Y-80356666D01*
X169557438Y-80356666D02*
X169509819Y-80261428D01*
X169509819Y-80261428D02*
X169509819Y-80070952D01*
X169509819Y-80070952D02*
X169557438Y-79975714D01*
X169557438Y-79975714D02*
X169652676Y-79880476D01*
X169652676Y-79880476D02*
X169843152Y-79832857D01*
X169843152Y-79832857D02*
X170176485Y-79832857D01*
X170176485Y-79832857D02*
X170366961Y-79880476D01*
X170366961Y-79880476D02*
X170462200Y-79975714D01*
X170462200Y-79975714D02*
X170509819Y-80070952D01*
X170509819Y-80070952D02*
X170509819Y-80261428D01*
X169509819Y-79499523D02*
X169509819Y-78880476D01*
X169509819Y-78880476D02*
X169890771Y-79213809D01*
X169890771Y-79213809D02*
X169890771Y-79070952D01*
X169890771Y-79070952D02*
X169938390Y-78975714D01*
X169938390Y-78975714D02*
X169986009Y-78928095D01*
X169986009Y-78928095D02*
X170081247Y-78880476D01*
X170081247Y-78880476D02*
X170319342Y-78880476D01*
X170319342Y-78880476D02*
X170414580Y-78928095D01*
X170414580Y-78928095D02*
X170462200Y-78975714D01*
X170462200Y-78975714D02*
X170509819Y-79070952D01*
X170509819Y-79070952D02*
X170509819Y-79356666D01*
X170509819Y-79356666D02*
X170462200Y-79451904D01*
X170462200Y-79451904D02*
X170414580Y-79499523D01*
X124074819Y-76412857D02*
X123598628Y-76746190D01*
X124074819Y-76984285D02*
X123074819Y-76984285D01*
X123074819Y-76984285D02*
X123074819Y-76603333D01*
X123074819Y-76603333D02*
X123122438Y-76508095D01*
X123122438Y-76508095D02*
X123170057Y-76460476D01*
X123170057Y-76460476D02*
X123265295Y-76412857D01*
X123265295Y-76412857D02*
X123408152Y-76412857D01*
X123408152Y-76412857D02*
X123503390Y-76460476D01*
X123503390Y-76460476D02*
X123551009Y-76508095D01*
X123551009Y-76508095D02*
X123598628Y-76603333D01*
X123598628Y-76603333D02*
X123598628Y-76984285D01*
X123170057Y-76031904D02*
X123122438Y-75984285D01*
X123122438Y-75984285D02*
X123074819Y-75889047D01*
X123074819Y-75889047D02*
X123074819Y-75650952D01*
X123074819Y-75650952D02*
X123122438Y-75555714D01*
X123122438Y-75555714D02*
X123170057Y-75508095D01*
X123170057Y-75508095D02*
X123265295Y-75460476D01*
X123265295Y-75460476D02*
X123360533Y-75460476D01*
X123360533Y-75460476D02*
X123503390Y-75508095D01*
X123503390Y-75508095D02*
X124074819Y-76079523D01*
X124074819Y-76079523D02*
X124074819Y-75460476D01*
X123074819Y-75127142D02*
X123074819Y-74460476D01*
X123074819Y-74460476D02*
X124074819Y-74889047D01*
D10*
X128518571Y-72096109D02*
X128351905Y-71858014D01*
X128232857Y-72096109D02*
X128232857Y-71596109D01*
X128232857Y-71596109D02*
X128423333Y-71596109D01*
X128423333Y-71596109D02*
X128470952Y-71619919D01*
X128470952Y-71619919D02*
X128494762Y-71643728D01*
X128494762Y-71643728D02*
X128518571Y-71691347D01*
X128518571Y-71691347D02*
X128518571Y-71762776D01*
X128518571Y-71762776D02*
X128494762Y-71810395D01*
X128494762Y-71810395D02*
X128470952Y-71834204D01*
X128470952Y-71834204D02*
X128423333Y-71858014D01*
X128423333Y-71858014D02*
X128232857Y-71858014D01*
X128994762Y-72096109D02*
X128709048Y-72096109D01*
X128851905Y-72096109D02*
X128851905Y-71596109D01*
X128851905Y-71596109D02*
X128804286Y-71667538D01*
X128804286Y-71667538D02*
X128756667Y-71715157D01*
X128756667Y-71715157D02*
X128709048Y-71738966D01*
X129470952Y-72096109D02*
X129185238Y-72096109D01*
X129328095Y-72096109D02*
X129328095Y-71596109D01*
X129328095Y-71596109D02*
X129280476Y-71667538D01*
X129280476Y-71667538D02*
X129232857Y-71715157D01*
X129232857Y-71715157D02*
X129185238Y-71738966D01*
D15*
X124422358Y-59293149D02*
X124366333Y-59237124D01*
X124366333Y-59237124D02*
X124310307Y-59069048D01*
X124310307Y-59069048D02*
X124310307Y-58956998D01*
X124310307Y-58956998D02*
X124366333Y-58788923D01*
X124366333Y-58788923D02*
X124478383Y-58676872D01*
X124478383Y-58676872D02*
X124590433Y-58620847D01*
X124590433Y-58620847D02*
X124814534Y-58564822D01*
X124814534Y-58564822D02*
X124982609Y-58564822D01*
X124982609Y-58564822D02*
X125206710Y-58620847D01*
X125206710Y-58620847D02*
X125318760Y-58676872D01*
X125318760Y-58676872D02*
X125430810Y-58788923D01*
X125430810Y-58788923D02*
X125486835Y-58956998D01*
X125486835Y-58956998D02*
X125486835Y-59069048D01*
X125486835Y-59069048D02*
X125430810Y-59237124D01*
X125430810Y-59237124D02*
X125374785Y-59293149D01*
X125094659Y-60301602D02*
X124310307Y-60301602D01*
X125542861Y-60021476D02*
X124702483Y-59741350D01*
X124702483Y-59741350D02*
X124702483Y-60469677D01*
X125374785Y-60861853D02*
X125430810Y-60917878D01*
X125430810Y-60917878D02*
X125486835Y-61029929D01*
X125486835Y-61029929D02*
X125486835Y-61310054D01*
X125486835Y-61310054D02*
X125430810Y-61422105D01*
X125430810Y-61422105D02*
X125374785Y-61478130D01*
X125374785Y-61478130D02*
X125262735Y-61534155D01*
X125262735Y-61534155D02*
X125150685Y-61534155D01*
X125150685Y-61534155D02*
X124982609Y-61478130D01*
X124982609Y-61478130D02*
X124310307Y-60805828D01*
X124310307Y-60805828D02*
X124310307Y-61534155D01*
X106775971Y-76203205D02*
X106663921Y-76147180D01*
X106663921Y-76147180D02*
X106551871Y-76035130D01*
X106551871Y-76035130D02*
X106383795Y-75867054D01*
X106383795Y-75867054D02*
X106271745Y-75811029D01*
X106271745Y-75811029D02*
X106159695Y-75811029D01*
X106215720Y-76091155D02*
X106103670Y-76035130D01*
X106103670Y-76035130D02*
X105991619Y-75923079D01*
X105991619Y-75923079D02*
X105935594Y-75698979D01*
X105935594Y-75698979D02*
X105935594Y-75306803D01*
X105935594Y-75306803D02*
X105991619Y-75082702D01*
X105991619Y-75082702D02*
X106103670Y-74970652D01*
X106103670Y-74970652D02*
X106215720Y-74914627D01*
X106215720Y-74914627D02*
X106439820Y-74914627D01*
X106439820Y-74914627D02*
X106551871Y-74970652D01*
X106551871Y-74970652D02*
X106663921Y-75082702D01*
X106663921Y-75082702D02*
X106719946Y-75306803D01*
X106719946Y-75306803D02*
X106719946Y-75698979D01*
X106719946Y-75698979D02*
X106663921Y-75923079D01*
X106663921Y-75923079D02*
X106551871Y-76035130D01*
X106551871Y-76035130D02*
X106439820Y-76091155D01*
X106439820Y-76091155D02*
X106215720Y-76091155D01*
X107840449Y-76091155D02*
X107168147Y-76091155D01*
X107504298Y-76091155D02*
X107504298Y-74914627D01*
X107504298Y-74914627D02*
X107392248Y-75082702D01*
X107392248Y-75082702D02*
X107280197Y-75194752D01*
X107280197Y-75194752D02*
X107168147Y-75250778D01*
X108232625Y-74914627D02*
X108960952Y-74914627D01*
X108960952Y-74914627D02*
X108568776Y-75362828D01*
X108568776Y-75362828D02*
X108736851Y-75362828D01*
X108736851Y-75362828D02*
X108848902Y-75418853D01*
X108848902Y-75418853D02*
X108904927Y-75474878D01*
X108904927Y-75474878D02*
X108960952Y-75586928D01*
X108960952Y-75586928D02*
X108960952Y-75867054D01*
X108960952Y-75867054D02*
X108904927Y-75979104D01*
X108904927Y-75979104D02*
X108848902Y-76035130D01*
X108848902Y-76035130D02*
X108736851Y-76091155D01*
X108736851Y-76091155D02*
X108400700Y-76091155D01*
X108400700Y-76091155D02*
X108288650Y-76035130D01*
X108288650Y-76035130D02*
X108232625Y-75979104D01*
D11*
X120874819Y-82646666D02*
X120398628Y-82979999D01*
X120874819Y-83218094D02*
X119874819Y-83218094D01*
X119874819Y-83218094D02*
X119874819Y-82837142D01*
X119874819Y-82837142D02*
X119922438Y-82741904D01*
X119922438Y-82741904D02*
X119970057Y-82694285D01*
X119970057Y-82694285D02*
X120065295Y-82646666D01*
X120065295Y-82646666D02*
X120208152Y-82646666D01*
X120208152Y-82646666D02*
X120303390Y-82694285D01*
X120303390Y-82694285D02*
X120351009Y-82741904D01*
X120351009Y-82741904D02*
X120398628Y-82837142D01*
X120398628Y-82837142D02*
X120398628Y-83218094D01*
X120874819Y-81694285D02*
X120874819Y-82265713D01*
X120874819Y-81979999D02*
X119874819Y-81979999D01*
X119874819Y-81979999D02*
X120017676Y-82075237D01*
X120017676Y-82075237D02*
X120112914Y-82170475D01*
X120112914Y-82170475D02*
X120160533Y-82265713D01*
D15*
X176262358Y-71483149D02*
X176206333Y-71427124D01*
X176206333Y-71427124D02*
X176150307Y-71259048D01*
X176150307Y-71259048D02*
X176150307Y-71146998D01*
X176150307Y-71146998D02*
X176206333Y-70978923D01*
X176206333Y-70978923D02*
X176318383Y-70866872D01*
X176318383Y-70866872D02*
X176430433Y-70810847D01*
X176430433Y-70810847D02*
X176654534Y-70754822D01*
X176654534Y-70754822D02*
X176822609Y-70754822D01*
X176822609Y-70754822D02*
X177046710Y-70810847D01*
X177046710Y-70810847D02*
X177158760Y-70866872D01*
X177158760Y-70866872D02*
X177270810Y-70978923D01*
X177270810Y-70978923D02*
X177326835Y-71146998D01*
X177326835Y-71146998D02*
X177326835Y-71259048D01*
X177326835Y-71259048D02*
X177270810Y-71427124D01*
X177270810Y-71427124D02*
X177214785Y-71483149D01*
X176150307Y-72603652D02*
X176150307Y-71931350D01*
X176150307Y-72267501D02*
X177326835Y-72267501D01*
X177326835Y-72267501D02*
X177158760Y-72155451D01*
X177158760Y-72155451D02*
X177046710Y-72043400D01*
X177046710Y-72043400D02*
X176990685Y-71931350D01*
X177214785Y-73051853D02*
X177270810Y-73107878D01*
X177270810Y-73107878D02*
X177326835Y-73219929D01*
X177326835Y-73219929D02*
X177326835Y-73500054D01*
X177326835Y-73500054D02*
X177270810Y-73612105D01*
X177270810Y-73612105D02*
X177214785Y-73668130D01*
X177214785Y-73668130D02*
X177102735Y-73724155D01*
X177102735Y-73724155D02*
X176990685Y-73724155D01*
X176990685Y-73724155D02*
X176822609Y-73668130D01*
X176822609Y-73668130D02*
X176150307Y-72995828D01*
X176150307Y-72995828D02*
X176150307Y-73724155D01*
D11*
X147814819Y-73476666D02*
X147338628Y-73809999D01*
X147814819Y-74048094D02*
X146814819Y-74048094D01*
X146814819Y-74048094D02*
X146814819Y-73667142D01*
X146814819Y-73667142D02*
X146862438Y-73571904D01*
X146862438Y-73571904D02*
X146910057Y-73524285D01*
X146910057Y-73524285D02*
X147005295Y-73476666D01*
X147005295Y-73476666D02*
X147148152Y-73476666D01*
X147148152Y-73476666D02*
X147243390Y-73524285D01*
X147243390Y-73524285D02*
X147291009Y-73571904D01*
X147291009Y-73571904D02*
X147338628Y-73667142D01*
X147338628Y-73667142D02*
X147338628Y-74048094D01*
X146814819Y-73143332D02*
X146814819Y-72524285D01*
X146814819Y-72524285D02*
X147195771Y-72857618D01*
X147195771Y-72857618D02*
X147195771Y-72714761D01*
X147195771Y-72714761D02*
X147243390Y-72619523D01*
X147243390Y-72619523D02*
X147291009Y-72571904D01*
X147291009Y-72571904D02*
X147386247Y-72524285D01*
X147386247Y-72524285D02*
X147624342Y-72524285D01*
X147624342Y-72524285D02*
X147719580Y-72571904D01*
X147719580Y-72571904D02*
X147767200Y-72619523D01*
X147767200Y-72619523D02*
X147814819Y-72714761D01*
X147814819Y-72714761D02*
X147814819Y-73000475D01*
X147814819Y-73000475D02*
X147767200Y-73095713D01*
X147767200Y-73095713D02*
X147719580Y-73143332D01*
X123739166Y-85799819D02*
X123739166Y-86514104D01*
X123739166Y-86514104D02*
X123691547Y-86656961D01*
X123691547Y-86656961D02*
X123596309Y-86752200D01*
X123596309Y-86752200D02*
X123453452Y-86799819D01*
X123453452Y-86799819D02*
X123358214Y-86799819D01*
X124691547Y-85799819D02*
X124215357Y-85799819D01*
X124215357Y-85799819D02*
X124167738Y-86276009D01*
X124167738Y-86276009D02*
X124215357Y-86228390D01*
X124215357Y-86228390D02*
X124310595Y-86180771D01*
X124310595Y-86180771D02*
X124548690Y-86180771D01*
X124548690Y-86180771D02*
X124643928Y-86228390D01*
X124643928Y-86228390D02*
X124691547Y-86276009D01*
X124691547Y-86276009D02*
X124739166Y-86371247D01*
X124739166Y-86371247D02*
X124739166Y-86609342D01*
X124739166Y-86609342D02*
X124691547Y-86704580D01*
X124691547Y-86704580D02*
X124643928Y-86752200D01*
X124643928Y-86752200D02*
X124548690Y-86799819D01*
X124548690Y-86799819D02*
X124310595Y-86799819D01*
X124310595Y-86799819D02*
X124215357Y-86752200D01*
X124215357Y-86752200D02*
X124167738Y-86704580D01*
X164314819Y-46452857D02*
X163838628Y-46786190D01*
X164314819Y-47024285D02*
X163314819Y-47024285D01*
X163314819Y-47024285D02*
X163314819Y-46643333D01*
X163314819Y-46643333D02*
X163362438Y-46548095D01*
X163362438Y-46548095D02*
X163410057Y-46500476D01*
X163410057Y-46500476D02*
X163505295Y-46452857D01*
X163505295Y-46452857D02*
X163648152Y-46452857D01*
X163648152Y-46452857D02*
X163743390Y-46500476D01*
X163743390Y-46500476D02*
X163791009Y-46548095D01*
X163791009Y-46548095D02*
X163838628Y-46643333D01*
X163838628Y-46643333D02*
X163838628Y-47024285D01*
X163410057Y-46071904D02*
X163362438Y-46024285D01*
X163362438Y-46024285D02*
X163314819Y-45929047D01*
X163314819Y-45929047D02*
X163314819Y-45690952D01*
X163314819Y-45690952D02*
X163362438Y-45595714D01*
X163362438Y-45595714D02*
X163410057Y-45548095D01*
X163410057Y-45548095D02*
X163505295Y-45500476D01*
X163505295Y-45500476D02*
X163600533Y-45500476D01*
X163600533Y-45500476D02*
X163743390Y-45548095D01*
X163743390Y-45548095D02*
X164314819Y-46119523D01*
X164314819Y-46119523D02*
X164314819Y-45500476D01*
X163314819Y-44881428D02*
X163314819Y-44786190D01*
X163314819Y-44786190D02*
X163362438Y-44690952D01*
X163362438Y-44690952D02*
X163410057Y-44643333D01*
X163410057Y-44643333D02*
X163505295Y-44595714D01*
X163505295Y-44595714D02*
X163695771Y-44548095D01*
X163695771Y-44548095D02*
X163933866Y-44548095D01*
X163933866Y-44548095D02*
X164124342Y-44595714D01*
X164124342Y-44595714D02*
X164219580Y-44643333D01*
X164219580Y-44643333D02*
X164267200Y-44690952D01*
X164267200Y-44690952D02*
X164314819Y-44786190D01*
X164314819Y-44786190D02*
X164314819Y-44881428D01*
X164314819Y-44881428D02*
X164267200Y-44976666D01*
X164267200Y-44976666D02*
X164219580Y-45024285D01*
X164219580Y-45024285D02*
X164124342Y-45071904D01*
X164124342Y-45071904D02*
X163933866Y-45119523D01*
X163933866Y-45119523D02*
X163695771Y-45119523D01*
X163695771Y-45119523D02*
X163505295Y-45071904D01*
X163505295Y-45071904D02*
X163410057Y-45024285D01*
X163410057Y-45024285D02*
X163362438Y-44976666D01*
X163362438Y-44976666D02*
X163314819Y-44881428D01*
X172903095Y-55104819D02*
X172903095Y-55914342D01*
X172903095Y-55914342D02*
X172950714Y-56009580D01*
X172950714Y-56009580D02*
X172998333Y-56057200D01*
X172998333Y-56057200D02*
X173093571Y-56104819D01*
X173093571Y-56104819D02*
X173284047Y-56104819D01*
X173284047Y-56104819D02*
X173379285Y-56057200D01*
X173379285Y-56057200D02*
X173426904Y-56009580D01*
X173426904Y-56009580D02*
X173474523Y-55914342D01*
X173474523Y-55914342D02*
X173474523Y-55104819D01*
X173903095Y-55200057D02*
X173950714Y-55152438D01*
X173950714Y-55152438D02*
X174045952Y-55104819D01*
X174045952Y-55104819D02*
X174284047Y-55104819D01*
X174284047Y-55104819D02*
X174379285Y-55152438D01*
X174379285Y-55152438D02*
X174426904Y-55200057D01*
X174426904Y-55200057D02*
X174474523Y-55295295D01*
X174474523Y-55295295D02*
X174474523Y-55390533D01*
X174474523Y-55390533D02*
X174426904Y-55533390D01*
X174426904Y-55533390D02*
X173855476Y-56104819D01*
X173855476Y-56104819D02*
X174474523Y-56104819D01*
X168047142Y-68784819D02*
X167713809Y-68308628D01*
X167475714Y-68784819D02*
X167475714Y-67784819D01*
X167475714Y-67784819D02*
X167856666Y-67784819D01*
X167856666Y-67784819D02*
X167951904Y-67832438D01*
X167951904Y-67832438D02*
X167999523Y-67880057D01*
X167999523Y-67880057D02*
X168047142Y-67975295D01*
X168047142Y-67975295D02*
X168047142Y-68118152D01*
X168047142Y-68118152D02*
X167999523Y-68213390D01*
X167999523Y-68213390D02*
X167951904Y-68261009D01*
X167951904Y-68261009D02*
X167856666Y-68308628D01*
X167856666Y-68308628D02*
X167475714Y-68308628D01*
X168380476Y-67784819D02*
X168999523Y-67784819D01*
X168999523Y-67784819D02*
X168666190Y-68165771D01*
X168666190Y-68165771D02*
X168809047Y-68165771D01*
X168809047Y-68165771D02*
X168904285Y-68213390D01*
X168904285Y-68213390D02*
X168951904Y-68261009D01*
X168951904Y-68261009D02*
X168999523Y-68356247D01*
X168999523Y-68356247D02*
X168999523Y-68594342D01*
X168999523Y-68594342D02*
X168951904Y-68689580D01*
X168951904Y-68689580D02*
X168904285Y-68737200D01*
X168904285Y-68737200D02*
X168809047Y-68784819D01*
X168809047Y-68784819D02*
X168523333Y-68784819D01*
X168523333Y-68784819D02*
X168428095Y-68737200D01*
X168428095Y-68737200D02*
X168380476Y-68689580D01*
X169951904Y-68784819D02*
X169380476Y-68784819D01*
X169666190Y-68784819D02*
X169666190Y-67784819D01*
X169666190Y-67784819D02*
X169570952Y-67927676D01*
X169570952Y-67927676D02*
X169475714Y-68022914D01*
X169475714Y-68022914D02*
X169380476Y-68070533D01*
X99214819Y-90312857D02*
X98738628Y-90646190D01*
X99214819Y-90884285D02*
X98214819Y-90884285D01*
X98214819Y-90884285D02*
X98214819Y-90503333D01*
X98214819Y-90503333D02*
X98262438Y-90408095D01*
X98262438Y-90408095D02*
X98310057Y-90360476D01*
X98310057Y-90360476D02*
X98405295Y-90312857D01*
X98405295Y-90312857D02*
X98548152Y-90312857D01*
X98548152Y-90312857D02*
X98643390Y-90360476D01*
X98643390Y-90360476D02*
X98691009Y-90408095D01*
X98691009Y-90408095D02*
X98738628Y-90503333D01*
X98738628Y-90503333D02*
X98738628Y-90884285D01*
X99214819Y-89360476D02*
X99214819Y-89931904D01*
X99214819Y-89646190D02*
X98214819Y-89646190D01*
X98214819Y-89646190D02*
X98357676Y-89741428D01*
X98357676Y-89741428D02*
X98452914Y-89836666D01*
X98452914Y-89836666D02*
X98500533Y-89931904D01*
X98214819Y-88503333D02*
X98214819Y-88693809D01*
X98214819Y-88693809D02*
X98262438Y-88789047D01*
X98262438Y-88789047D02*
X98310057Y-88836666D01*
X98310057Y-88836666D02*
X98452914Y-88931904D01*
X98452914Y-88931904D02*
X98643390Y-88979523D01*
X98643390Y-88979523D02*
X99024342Y-88979523D01*
X99024342Y-88979523D02*
X99119580Y-88931904D01*
X99119580Y-88931904D02*
X99167200Y-88884285D01*
X99167200Y-88884285D02*
X99214819Y-88789047D01*
X99214819Y-88789047D02*
X99214819Y-88598571D01*
X99214819Y-88598571D02*
X99167200Y-88503333D01*
X99167200Y-88503333D02*
X99119580Y-88455714D01*
X99119580Y-88455714D02*
X99024342Y-88408095D01*
X99024342Y-88408095D02*
X98786247Y-88408095D01*
X98786247Y-88408095D02*
X98691009Y-88455714D01*
X98691009Y-88455714D02*
X98643390Y-88503333D01*
X98643390Y-88503333D02*
X98595771Y-88598571D01*
X98595771Y-88598571D02*
X98595771Y-88789047D01*
X98595771Y-88789047D02*
X98643390Y-88884285D01*
X98643390Y-88884285D02*
X98691009Y-88931904D01*
X98691009Y-88931904D02*
X98786247Y-88979523D01*
D15*
X156753149Y-76607641D02*
X156697124Y-76663667D01*
X156697124Y-76663667D02*
X156529048Y-76719692D01*
X156529048Y-76719692D02*
X156416998Y-76719692D01*
X156416998Y-76719692D02*
X156248923Y-76663667D01*
X156248923Y-76663667D02*
X156136872Y-76551616D01*
X156136872Y-76551616D02*
X156080847Y-76439566D01*
X156080847Y-76439566D02*
X156024822Y-76215465D01*
X156024822Y-76215465D02*
X156024822Y-76047390D01*
X156024822Y-76047390D02*
X156080847Y-75823289D01*
X156080847Y-75823289D02*
X156136872Y-75711239D01*
X156136872Y-75711239D02*
X156248923Y-75599189D01*
X156248923Y-75599189D02*
X156416998Y-75543164D01*
X156416998Y-75543164D02*
X156529048Y-75543164D01*
X156529048Y-75543164D02*
X156697124Y-75599189D01*
X156697124Y-75599189D02*
X156753149Y-75655214D01*
X157761602Y-75543164D02*
X157537501Y-75543164D01*
X157537501Y-75543164D02*
X157425451Y-75599189D01*
X157425451Y-75599189D02*
X157369426Y-75655214D01*
X157369426Y-75655214D02*
X157257375Y-75823289D01*
X157257375Y-75823289D02*
X157201350Y-76047390D01*
X157201350Y-76047390D02*
X157201350Y-76495591D01*
X157201350Y-76495591D02*
X157257375Y-76607641D01*
X157257375Y-76607641D02*
X157313400Y-76663667D01*
X157313400Y-76663667D02*
X157425451Y-76719692D01*
X157425451Y-76719692D02*
X157649551Y-76719692D01*
X157649551Y-76719692D02*
X157761602Y-76663667D01*
X157761602Y-76663667D02*
X157817627Y-76607641D01*
X157817627Y-76607641D02*
X157873652Y-76495591D01*
X157873652Y-76495591D02*
X157873652Y-76215465D01*
X157873652Y-76215465D02*
X157817627Y-76103415D01*
X157817627Y-76103415D02*
X157761602Y-76047390D01*
X157761602Y-76047390D02*
X157649551Y-75991365D01*
X157649551Y-75991365D02*
X157425451Y-75991365D01*
X157425451Y-75991365D02*
X157313400Y-76047390D01*
X157313400Y-76047390D02*
X157257375Y-76103415D01*
X157257375Y-76103415D02*
X157201350Y-76215465D01*
X158321853Y-75655214D02*
X158377878Y-75599189D01*
X158377878Y-75599189D02*
X158489929Y-75543164D01*
X158489929Y-75543164D02*
X158770054Y-75543164D01*
X158770054Y-75543164D02*
X158882105Y-75599189D01*
X158882105Y-75599189D02*
X158938130Y-75655214D01*
X158938130Y-75655214D02*
X158994155Y-75767264D01*
X158994155Y-75767264D02*
X158994155Y-75879315D01*
X158994155Y-75879315D02*
X158938130Y-76047390D01*
X158938130Y-76047390D02*
X158265828Y-76719692D01*
X158265828Y-76719692D02*
X158994155Y-76719692D01*
D14*
X102686027Y-50260310D02*
X102163513Y-50260310D01*
X102424770Y-50260310D02*
X102424770Y-49345910D01*
X102424770Y-49345910D02*
X102337684Y-49476539D01*
X102337684Y-49476539D02*
X102250599Y-49563625D01*
X102250599Y-49563625D02*
X102163513Y-49607168D01*
D10*
X130778571Y-63426109D02*
X130611905Y-63188014D01*
X130492857Y-63426109D02*
X130492857Y-62926109D01*
X130492857Y-62926109D02*
X130683333Y-62926109D01*
X130683333Y-62926109D02*
X130730952Y-62949919D01*
X130730952Y-62949919D02*
X130754762Y-62973728D01*
X130754762Y-62973728D02*
X130778571Y-63021347D01*
X130778571Y-63021347D02*
X130778571Y-63092776D01*
X130778571Y-63092776D02*
X130754762Y-63140395D01*
X130754762Y-63140395D02*
X130730952Y-63164204D01*
X130730952Y-63164204D02*
X130683333Y-63188014D01*
X130683333Y-63188014D02*
X130492857Y-63188014D01*
X131254762Y-63426109D02*
X130969048Y-63426109D01*
X131111905Y-63426109D02*
X131111905Y-62926109D01*
X131111905Y-62926109D02*
X131064286Y-62997538D01*
X131064286Y-62997538D02*
X131016667Y-63045157D01*
X131016667Y-63045157D02*
X130969048Y-63068966D01*
X131683333Y-63092776D02*
X131683333Y-63426109D01*
X131564285Y-62902300D02*
X131445238Y-63259442D01*
X131445238Y-63259442D02*
X131754761Y-63259442D01*
D11*
X119514166Y-82164819D02*
X119514166Y-82879104D01*
X119514166Y-82879104D02*
X119466547Y-83021961D01*
X119466547Y-83021961D02*
X119371309Y-83117200D01*
X119371309Y-83117200D02*
X119228452Y-83164819D01*
X119228452Y-83164819D02*
X119133214Y-83164819D01*
X119942738Y-82260057D02*
X119990357Y-82212438D01*
X119990357Y-82212438D02*
X120085595Y-82164819D01*
X120085595Y-82164819D02*
X120323690Y-82164819D01*
X120323690Y-82164819D02*
X120418928Y-82212438D01*
X120418928Y-82212438D02*
X120466547Y-82260057D01*
X120466547Y-82260057D02*
X120514166Y-82355295D01*
X120514166Y-82355295D02*
X120514166Y-82450533D01*
X120514166Y-82450533D02*
X120466547Y-82593390D01*
X120466547Y-82593390D02*
X119895119Y-83164819D01*
X119895119Y-83164819D02*
X120514166Y-83164819D01*
D15*
X169487641Y-51196347D02*
X169543667Y-51252372D01*
X169543667Y-51252372D02*
X169599692Y-51420448D01*
X169599692Y-51420448D02*
X169599692Y-51532498D01*
X169599692Y-51532498D02*
X169543667Y-51700573D01*
X169543667Y-51700573D02*
X169431616Y-51812624D01*
X169431616Y-51812624D02*
X169319566Y-51868649D01*
X169319566Y-51868649D02*
X169095465Y-51924674D01*
X169095465Y-51924674D02*
X168927390Y-51924674D01*
X168927390Y-51924674D02*
X168703289Y-51868649D01*
X168703289Y-51868649D02*
X168591239Y-51812624D01*
X168591239Y-51812624D02*
X168479189Y-51700573D01*
X168479189Y-51700573D02*
X168423164Y-51532498D01*
X168423164Y-51532498D02*
X168423164Y-51420448D01*
X168423164Y-51420448D02*
X168479189Y-51252372D01*
X168479189Y-51252372D02*
X168535214Y-51196347D01*
X168423164Y-50187895D02*
X168423164Y-50411995D01*
X168423164Y-50411995D02*
X168479189Y-50524045D01*
X168479189Y-50524045D02*
X168535214Y-50580071D01*
X168535214Y-50580071D02*
X168703289Y-50692121D01*
X168703289Y-50692121D02*
X168927390Y-50748146D01*
X168927390Y-50748146D02*
X169375591Y-50748146D01*
X169375591Y-50748146D02*
X169487641Y-50692121D01*
X169487641Y-50692121D02*
X169543667Y-50636096D01*
X169543667Y-50636096D02*
X169599692Y-50524045D01*
X169599692Y-50524045D02*
X169599692Y-50299945D01*
X169599692Y-50299945D02*
X169543667Y-50187895D01*
X169543667Y-50187895D02*
X169487641Y-50131869D01*
X169487641Y-50131869D02*
X169375591Y-50075844D01*
X169375591Y-50075844D02*
X169095465Y-50075844D01*
X169095465Y-50075844D02*
X168983415Y-50131869D01*
X168983415Y-50131869D02*
X168927390Y-50187895D01*
X168927390Y-50187895D02*
X168871365Y-50299945D01*
X168871365Y-50299945D02*
X168871365Y-50524045D01*
X168871365Y-50524045D02*
X168927390Y-50636096D01*
X168927390Y-50636096D02*
X168983415Y-50692121D01*
X168983415Y-50692121D02*
X169095465Y-50748146D01*
D11*
X121402319Y-82161904D02*
X122211842Y-82161904D01*
X122211842Y-82161904D02*
X122307080Y-82114285D01*
X122307080Y-82114285D02*
X122354700Y-82066666D01*
X122354700Y-82066666D02*
X122402319Y-81971428D01*
X122402319Y-81971428D02*
X122402319Y-81780952D01*
X122402319Y-81780952D02*
X122354700Y-81685714D01*
X122354700Y-81685714D02*
X122307080Y-81638095D01*
X122307080Y-81638095D02*
X122211842Y-81590476D01*
X122211842Y-81590476D02*
X121402319Y-81590476D01*
X121402319Y-81209523D02*
X121402319Y-80542857D01*
X121402319Y-80542857D02*
X122402319Y-80971428D01*
X180123333Y-42104819D02*
X179647143Y-42104819D01*
X179647143Y-42104819D02*
X179647143Y-41104819D01*
X180409048Y-41200057D02*
X180456667Y-41152438D01*
X180456667Y-41152438D02*
X180551905Y-41104819D01*
X180551905Y-41104819D02*
X180790000Y-41104819D01*
X180790000Y-41104819D02*
X180885238Y-41152438D01*
X180885238Y-41152438D02*
X180932857Y-41200057D01*
X180932857Y-41200057D02*
X180980476Y-41295295D01*
X180980476Y-41295295D02*
X180980476Y-41390533D01*
X180980476Y-41390533D02*
X180932857Y-41533390D01*
X180932857Y-41533390D02*
X180361429Y-42104819D01*
X180361429Y-42104819D02*
X180980476Y-42104819D01*
D15*
X180952358Y-60033652D02*
X180896333Y-59977627D01*
X180896333Y-59977627D02*
X180840307Y-59809551D01*
X180840307Y-59809551D02*
X180840307Y-59697501D01*
X180840307Y-59697501D02*
X180896333Y-59529426D01*
X180896333Y-59529426D02*
X181008383Y-59417375D01*
X181008383Y-59417375D02*
X181120433Y-59361350D01*
X181120433Y-59361350D02*
X181344534Y-59305325D01*
X181344534Y-59305325D02*
X181512609Y-59305325D01*
X181512609Y-59305325D02*
X181736710Y-59361350D01*
X181736710Y-59361350D02*
X181848760Y-59417375D01*
X181848760Y-59417375D02*
X181960810Y-59529426D01*
X181960810Y-59529426D02*
X182016835Y-59697501D01*
X182016835Y-59697501D02*
X182016835Y-59809551D01*
X182016835Y-59809551D02*
X181960810Y-59977627D01*
X181960810Y-59977627D02*
X181904785Y-60033652D01*
X181512609Y-60705954D02*
X181568634Y-60593903D01*
X181568634Y-60593903D02*
X181624659Y-60537878D01*
X181624659Y-60537878D02*
X181736710Y-60481853D01*
X181736710Y-60481853D02*
X181792735Y-60481853D01*
X181792735Y-60481853D02*
X181904785Y-60537878D01*
X181904785Y-60537878D02*
X181960810Y-60593903D01*
X181960810Y-60593903D02*
X182016835Y-60705954D01*
X182016835Y-60705954D02*
X182016835Y-60930054D01*
X182016835Y-60930054D02*
X181960810Y-61042105D01*
X181960810Y-61042105D02*
X181904785Y-61098130D01*
X181904785Y-61098130D02*
X181792735Y-61154155D01*
X181792735Y-61154155D02*
X181736710Y-61154155D01*
X181736710Y-61154155D02*
X181624659Y-61098130D01*
X181624659Y-61098130D02*
X181568634Y-61042105D01*
X181568634Y-61042105D02*
X181512609Y-60930054D01*
X181512609Y-60930054D02*
X181512609Y-60705954D01*
X181512609Y-60705954D02*
X181456584Y-60593903D01*
X181456584Y-60593903D02*
X181400559Y-60537878D01*
X181400559Y-60537878D02*
X181288509Y-60481853D01*
X181288509Y-60481853D02*
X181064408Y-60481853D01*
X181064408Y-60481853D02*
X180952358Y-60537878D01*
X180952358Y-60537878D02*
X180896333Y-60593903D01*
X180896333Y-60593903D02*
X180840307Y-60705954D01*
X180840307Y-60705954D02*
X180840307Y-60930054D01*
X180840307Y-60930054D02*
X180896333Y-61042105D01*
X180896333Y-61042105D02*
X180952358Y-61098130D01*
X180952358Y-61098130D02*
X181064408Y-61154155D01*
X181064408Y-61154155D02*
X181288509Y-61154155D01*
X181288509Y-61154155D02*
X181400559Y-61098130D01*
X181400559Y-61098130D02*
X181456584Y-61042105D01*
X181456584Y-61042105D02*
X181512609Y-60930054D01*
D11*
X106454819Y-64157857D02*
X105978628Y-64491190D01*
X106454819Y-64729285D02*
X105454819Y-64729285D01*
X105454819Y-64729285D02*
X105454819Y-64348333D01*
X105454819Y-64348333D02*
X105502438Y-64253095D01*
X105502438Y-64253095D02*
X105550057Y-64205476D01*
X105550057Y-64205476D02*
X105645295Y-64157857D01*
X105645295Y-64157857D02*
X105788152Y-64157857D01*
X105788152Y-64157857D02*
X105883390Y-64205476D01*
X105883390Y-64205476D02*
X105931009Y-64253095D01*
X105931009Y-64253095D02*
X105978628Y-64348333D01*
X105978628Y-64348333D02*
X105978628Y-64729285D01*
X105550057Y-63776904D02*
X105502438Y-63729285D01*
X105502438Y-63729285D02*
X105454819Y-63634047D01*
X105454819Y-63634047D02*
X105454819Y-63395952D01*
X105454819Y-63395952D02*
X105502438Y-63300714D01*
X105502438Y-63300714D02*
X105550057Y-63253095D01*
X105550057Y-63253095D02*
X105645295Y-63205476D01*
X105645295Y-63205476D02*
X105740533Y-63205476D01*
X105740533Y-63205476D02*
X105883390Y-63253095D01*
X105883390Y-63253095D02*
X106454819Y-63824523D01*
X106454819Y-63824523D02*
X106454819Y-63205476D01*
X106454819Y-62253095D02*
X106454819Y-62824523D01*
X106454819Y-62538809D02*
X105454819Y-62538809D01*
X105454819Y-62538809D02*
X105597676Y-62634047D01*
X105597676Y-62634047D02*
X105692914Y-62729285D01*
X105692914Y-62729285D02*
X105740533Y-62824523D01*
D17*
%TO.C,R2*%
X115927500Y-82197742D02*
X115927500Y-82672258D01*
X116972500Y-82197742D02*
X116972500Y-82672258D01*
%TO.C,R29*%
X170917258Y-64417500D02*
X170442742Y-64417500D01*
X170917258Y-65462500D02*
X170442742Y-65462500D01*
D18*
%TO.C,A1*%
X163275000Y-48435000D02*
X163275000Y-70025000D01*
D19*
X163910000Y-53515000D02*
X163910000Y-52245000D01*
X163910000Y-54785000D02*
X164545000Y-54150000D01*
X163910000Y-56055000D02*
X163910000Y-54785000D01*
X163910000Y-57325000D02*
X164545000Y-56690000D01*
X163910000Y-58595000D02*
X163910000Y-57325000D01*
X163910000Y-61135000D02*
X163910000Y-59865000D01*
X163910000Y-62405000D02*
X164545000Y-61770000D01*
X163910000Y-63675000D02*
X163910000Y-62405000D01*
X163910000Y-66215000D02*
X163910000Y-64945000D01*
X164545000Y-51610000D02*
X163910000Y-52245000D01*
X164545000Y-54150000D02*
X163910000Y-53515000D01*
X164545000Y-56690000D02*
X163910000Y-56055000D01*
X164545000Y-59230000D02*
X163910000Y-58595000D01*
X164545000Y-59230000D02*
X163910000Y-59865000D01*
X164545000Y-61770000D02*
X163910000Y-61135000D01*
X164545000Y-64310000D02*
X163910000Y-63675000D01*
X164545000Y-64310000D02*
X163910000Y-64945000D01*
X164545000Y-66850000D02*
X163910000Y-66215000D01*
X165815000Y-51610000D02*
X164545000Y-51610000D01*
X165815000Y-54150000D02*
X164545000Y-54150000D01*
X165815000Y-54150000D02*
X166450000Y-54785000D01*
X165815000Y-56690000D02*
X164545000Y-56690000D01*
X165815000Y-56690000D02*
X166450000Y-57325000D01*
X165815000Y-59230000D02*
X164545000Y-59230000D01*
X165815000Y-61770000D02*
X164545000Y-61770000D01*
X165815000Y-61770000D02*
X166450000Y-62405000D01*
X165815000Y-64310000D02*
X164545000Y-64310000D01*
X165815000Y-66850000D02*
X164545000Y-66850000D01*
D18*
X165815000Y-72565000D02*
X182325000Y-72565000D01*
D19*
X166450000Y-52245000D02*
X165815000Y-51610000D01*
X166450000Y-52245000D02*
X166450000Y-53515000D01*
X166450000Y-53515000D02*
X165815000Y-54150000D01*
X166450000Y-54785000D02*
X166450000Y-56055000D01*
X166450000Y-56055000D02*
X165815000Y-56690000D01*
X166450000Y-57325000D02*
X166450000Y-58595000D01*
X166450000Y-58595000D02*
X165815000Y-59230000D01*
X166450000Y-59865000D02*
X165815000Y-59230000D01*
X166450000Y-59865000D02*
X166450000Y-61135000D01*
X166450000Y-61135000D02*
X165815000Y-61770000D01*
X166450000Y-62405000D02*
X166450000Y-63675000D01*
X166450000Y-63675000D02*
X165815000Y-64310000D01*
X166450000Y-64945000D02*
X165815000Y-64310000D01*
X166450000Y-64945000D02*
X166450000Y-66215000D01*
X166450000Y-66215000D02*
X165815000Y-66850000D01*
X181690000Y-54785000D02*
X182325000Y-54150000D01*
X181690000Y-56055000D02*
X181690000Y-54785000D01*
X181690000Y-56055000D02*
X182325000Y-56690000D01*
X181690000Y-57325000D02*
X182325000Y-56690000D01*
X181690000Y-58595000D02*
X181690000Y-57325000D01*
X181690000Y-59865000D02*
X182325000Y-59230000D01*
X181690000Y-61135000D02*
X181690000Y-59865000D01*
X181690000Y-62405000D02*
X182325000Y-61770000D01*
X181690000Y-63675000D02*
X181690000Y-62405000D01*
X181690000Y-63675000D02*
X182325000Y-64310000D01*
D18*
X182325000Y-45895000D02*
X165815000Y-45895000D01*
D19*
X182325000Y-54150000D02*
X183595000Y-54150000D01*
X182325000Y-56690000D02*
X183595000Y-56690000D01*
X182325000Y-59230000D02*
X181690000Y-58595000D01*
X182325000Y-59230000D02*
X183595000Y-59230000D01*
X182325000Y-61770000D02*
X181690000Y-61135000D01*
X182325000Y-61770000D02*
X183595000Y-61770000D01*
X182325000Y-64310000D02*
X183595000Y-64310000D01*
X183595000Y-54150000D02*
X184230000Y-54785000D01*
X183595000Y-56690000D02*
X184230000Y-56055000D01*
X183595000Y-56690000D02*
X184230000Y-57325000D01*
X183595000Y-59230000D02*
X184230000Y-59865000D01*
X183595000Y-61770000D02*
X184230000Y-62405000D01*
X183595000Y-64310000D02*
X184230000Y-63675000D01*
X184230000Y-54785000D02*
X184230000Y-56055000D01*
X184230000Y-57325000D02*
X184230000Y-58595000D01*
X184230000Y-58595000D02*
X183595000Y-59230000D01*
X184230000Y-59865000D02*
X184230000Y-61135000D01*
X184230000Y-61135000D02*
X183595000Y-61770000D01*
X184230000Y-62405000D02*
X184230000Y-63675000D01*
D18*
X184865000Y-70025000D02*
X184865000Y-48435000D01*
X163275000Y-48435000D02*
G75*
G02*
X165815000Y-45895000I2540001J-1D01*
G01*
X165815000Y-72565000D02*
G75*
G02*
X163275000Y-70025000I1J2540001D01*
G01*
X182325000Y-45895000D02*
G75*
G02*
X184865000Y-48435000I0J-2540000D01*
G01*
X184865000Y-70025000D02*
G75*
G02*
X182325000Y-72565000I-2540000J0D01*
G01*
D17*
%TO.C,SW1*%
X106060000Y-58840000D02*
X106060000Y-60223000D01*
X106060000Y-58840000D02*
X107443000Y-58840000D01*
X106300000Y-59080000D02*
X106300000Y-60700000D01*
X106300000Y-59080000D02*
X116200000Y-59080000D01*
X106300000Y-62300000D02*
X106300000Y-63920000D01*
X106300000Y-63920000D02*
X116200000Y-63920000D01*
X110573333Y-60865000D02*
X110573333Y-62135000D01*
X116200000Y-59080000D02*
X116200000Y-60700000D01*
X116200000Y-62300000D02*
X116200000Y-63920000D01*
X109220000Y-60865000D02*
X110573333Y-60865000D01*
X110573333Y-62135000D01*
X109220000Y-62135000D01*
X109220000Y-60865000D01*
G36*
X109220000Y-60865000D02*
G01*
X110573333Y-60865000D01*
X110573333Y-62135000D01*
X109220000Y-62135000D01*
X109220000Y-60865000D01*
G37*
X109220000Y-60865000D02*
X113280000Y-60865000D01*
X113280000Y-62135000D01*
X109220000Y-62135000D01*
X109220000Y-60865000D01*
%TO.C,R3o1*%
X113387500Y-82217742D02*
X113387500Y-82692258D01*
X114432500Y-82217742D02*
X114432500Y-82692258D01*
%TO.C,R22*%
X176787500Y-67347258D02*
X176787500Y-66872742D01*
X177832500Y-67347258D02*
X177832500Y-66872742D01*
D20*
%TO.C,C9*%
X179627200Y-78022000D02*
X179627200Y-76421800D01*
X181252800Y-76421800D02*
X181252800Y-78022000D01*
%TO.C,C56*%
X136357200Y-62808200D02*
X136357200Y-61208000D01*
X137982800Y-61208000D02*
X137982800Y-62808200D01*
D17*
%TO.C,J6*%
X176590000Y-84290000D02*
X177920000Y-84290000D01*
X176590000Y-85400000D02*
X176590000Y-84290000D01*
X176590000Y-86860000D02*
X184330000Y-86860000D01*
X176590000Y-95490000D02*
X176590000Y-86860000D01*
X176590000Y-95490000D02*
X184330000Y-95490000D01*
X176710000Y-95490000D02*
X176710000Y-86860000D01*
X176828095Y-95490000D02*
X176828095Y-86860000D01*
X176946190Y-95490000D02*
X176946190Y-86860000D01*
X177064285Y-95490000D02*
X177064285Y-86860000D01*
X177182380Y-95490000D02*
X177182380Y-86860000D01*
X177300475Y-95490000D02*
X177300475Y-86860000D01*
X177418570Y-95490000D02*
X177418570Y-86860000D01*
X177536665Y-95490000D02*
X177536665Y-86860000D01*
X177560000Y-86860000D02*
X177560000Y-86510000D01*
X177654760Y-95490000D02*
X177654760Y-86860000D01*
X177772855Y-95490000D02*
X177772855Y-86860000D01*
X177890950Y-95490000D02*
X177890950Y-86860000D01*
X178009045Y-95490000D02*
X178009045Y-86860000D01*
X178127140Y-95490000D02*
X178127140Y-86860000D01*
X178245235Y-95490000D02*
X178245235Y-86860000D01*
X178280000Y-86860000D02*
X178280000Y-86510000D01*
X178363330Y-95490000D02*
X178363330Y-86860000D01*
X178481425Y-95490000D02*
X178481425Y-86860000D01*
X178599520Y-95490000D02*
X178599520Y-86860000D01*
X178717615Y-95490000D02*
X178717615Y-86860000D01*
X178835710Y-95490000D02*
X178835710Y-86860000D01*
X178953805Y-95490000D02*
X178953805Y-86860000D01*
X179071900Y-95490000D02*
X179071900Y-86860000D01*
X179190000Y-95490000D02*
X179190000Y-86860000D01*
X180100000Y-86860000D02*
X180100000Y-86450000D01*
X180820000Y-86860000D02*
X180820000Y-86450000D01*
X181730000Y-95490000D02*
X181730000Y-86860000D01*
X182640000Y-86860000D02*
X182640000Y-86450000D01*
X183360000Y-86860000D02*
X183360000Y-86450000D01*
X184330000Y-95490000D02*
X184330000Y-86860000D01*
%TO.C,R4*%
X143197500Y-73032742D02*
X143197500Y-73507258D01*
X144242500Y-73032742D02*
X144242500Y-73507258D01*
%TO.C,R8*%
X164862742Y-89537500D02*
X165337258Y-89537500D01*
X164862742Y-90582500D02*
X165337258Y-90582500D01*
%TO.C,R26*%
X126647500Y-76007258D02*
X126647500Y-75532742D01*
X127692500Y-76007258D02*
X127692500Y-75532742D01*
%TO.C,R5*%
X167397500Y-62477258D02*
X167397500Y-62002742D01*
X168442500Y-62477258D02*
X168442500Y-62002742D01*
D20*
%TO.C,C55*%
X150517200Y-66468200D02*
X150517200Y-64868000D01*
X152142800Y-64868000D02*
X152142800Y-66468200D01*
D17*
%TO.C,R15*%
X110477500Y-88132742D02*
X110477500Y-88607258D01*
X111522500Y-88132742D02*
X111522500Y-88607258D01*
D21*
%TO.C,R/W0*%
X87155000Y-56410000D02*
X92870000Y-56410000D01*
X87155000Y-58950000D02*
X92870000Y-58950000D01*
D19*
X93505000Y-55140000D02*
X93505000Y-57680000D01*
X93505000Y-57680000D02*
X93505000Y-60220000D01*
X93505000Y-60220000D02*
X96045000Y-60220000D01*
X96045000Y-55140000D02*
X93505000Y-55140000D01*
X96045000Y-57680000D02*
X93505000Y-57680000D01*
X96045000Y-57680000D02*
X96045000Y-55140000D01*
X96045000Y-60220000D02*
X96045000Y-57680000D01*
D22*
G36*
X93505000Y-56791000D02*
G01*
X92997000Y-56791000D01*
X92997000Y-56029000D01*
X93505000Y-56029000D01*
X93505000Y-56791000D01*
G37*
G36*
X93505000Y-59331000D02*
G01*
X92997000Y-59331000D01*
X92997000Y-58569000D01*
X93505000Y-58569000D01*
X93505000Y-59331000D01*
G37*
G36*
X97061000Y-56791000D02*
G01*
X96045000Y-56791000D01*
X96045000Y-56029000D01*
X97061000Y-56029000D01*
X97061000Y-56791000D01*
G37*
G36*
X97061000Y-59331000D02*
G01*
X96045000Y-59331000D01*
X96045000Y-58569000D01*
X97061000Y-58569000D01*
X97061000Y-59331000D01*
G37*
D23*
%TO.C,IC1*%
X134200000Y-55950000D02*
X134950000Y-55200000D01*
X134200000Y-68950000D02*
X134200000Y-55950000D01*
X134450000Y-69200000D02*
X134200000Y-68950000D01*
X134950000Y-55200000D02*
X147950000Y-55200000D01*
X147950000Y-55200000D02*
X148200000Y-55450000D01*
X147950000Y-69200000D02*
X134450000Y-69200000D01*
X148200000Y-55450000D02*
X148200000Y-68950000D01*
X148200000Y-68950000D02*
X147950000Y-69200000D01*
X135449900Y-56200000D02*
G75*
G02*
X134950100Y-56200000I-249900J0D01*
G01*
X134950100Y-56200000D02*
G75*
G02*
X135449900Y-56200000I249900J0D01*
G01*
D20*
%TO.C,C61*%
X163907200Y-84892000D02*
X163907200Y-83291800D01*
X165532800Y-83291800D02*
X165532800Y-84892000D01*
D17*
%TO.C,R25*%
X182467500Y-81862258D02*
X182467500Y-81387742D01*
X183512500Y-81862258D02*
X183512500Y-81387742D01*
%TO.C,R7*%
X169997500Y-55232742D02*
X169997500Y-55707258D01*
X171042500Y-55232742D02*
X171042500Y-55707258D01*
%TO.C,R24*%
X171824758Y-82087500D02*
X171350242Y-82087500D01*
X171824758Y-83132500D02*
X171350242Y-83132500D01*
%TO.C,D2*%
X153670000Y-80397500D02*
X153670000Y-83082500D01*
X153670000Y-83082500D02*
X155590000Y-83082500D01*
X155590000Y-83082500D02*
X155590000Y-80397500D01*
D20*
%TO.C,C71*%
X149897200Y-81658200D02*
X149897200Y-80058000D01*
X151522800Y-80058000D02*
X151522800Y-81658200D01*
D17*
%TO.C,R9*%
X154107500Y-84682742D02*
X154107500Y-85157258D01*
X155152500Y-84682742D02*
X155152500Y-85157258D01*
D20*
%TO.C,C63*%
X161748000Y-77157200D02*
X163348200Y-77157200D01*
X163348200Y-78782800D02*
X161748000Y-78782800D01*
D17*
%TO.C,J3*%
X136352500Y-88915000D02*
X136352500Y-91575000D01*
X136352500Y-91575000D02*
X149172500Y-91575000D01*
X137302500Y-88517929D02*
X137302500Y-88915000D01*
X137302500Y-97575000D02*
X137302500Y-91575000D01*
X138062500Y-88517929D02*
X138062500Y-88915000D01*
X138062500Y-91575000D02*
X138062500Y-97575000D01*
X138062500Y-97575000D02*
X137302500Y-97575000D01*
X138952500Y-88915000D02*
X138952500Y-91575000D01*
X139842500Y-88517929D02*
X139842500Y-88915000D01*
X139842500Y-97575000D02*
X139842500Y-91575000D01*
X140602500Y-88517929D02*
X140602500Y-88915000D01*
X140602500Y-91575000D02*
X140602500Y-97575000D01*
X140602500Y-97575000D02*
X139842500Y-97575000D01*
X141492500Y-88915000D02*
X141492500Y-91575000D01*
X142382500Y-88517929D02*
X142382500Y-88915000D01*
X142382500Y-97575000D02*
X142382500Y-91575000D01*
X143142500Y-88517929D02*
X143142500Y-88915000D01*
X143142500Y-91575000D02*
X143142500Y-97575000D01*
X143142500Y-97575000D02*
X142382500Y-97575000D01*
X144032500Y-88915000D02*
X144032500Y-91575000D01*
X144922500Y-88517929D02*
X144922500Y-88915000D01*
X144922500Y-97575000D02*
X144922500Y-91575000D01*
X145682500Y-88517929D02*
X145682500Y-88915000D01*
X145682500Y-91575000D02*
X145682500Y-97575000D01*
X145682500Y-97575000D02*
X144922500Y-97575000D01*
X146572500Y-88915000D02*
X146572500Y-91575000D01*
X147462500Y-88585000D02*
X147462500Y-88915000D01*
X147462500Y-97575000D02*
X147462500Y-91575000D01*
X147562500Y-91575000D02*
X147562500Y-97575000D01*
X147682500Y-91575000D02*
X147682500Y-97575000D01*
X147802500Y-91575000D02*
X147802500Y-97575000D01*
X147842500Y-86205000D02*
X149112500Y-86205000D01*
X147922500Y-91575000D02*
X147922500Y-97575000D01*
X148042500Y-91575000D02*
X148042500Y-97575000D01*
X148162500Y-91575000D02*
X148162500Y-97575000D01*
X148222500Y-88585000D02*
X148222500Y-88915000D01*
X148222500Y-91575000D02*
X148222500Y-97575000D01*
X148222500Y-97575000D02*
X147462500Y-97575000D01*
X149112500Y-86205000D02*
X149112500Y-87475000D01*
X149172500Y-88915000D02*
X136352500Y-88915000D01*
X149172500Y-91575000D02*
X149172500Y-88915000D01*
%TO.C,R23*%
X178407500Y-67357258D02*
X178407500Y-66882742D01*
X179452500Y-67357258D02*
X179452500Y-66882742D01*
%TO.C,R30*%
X168792742Y-69147500D02*
X169267258Y-69147500D01*
X168792742Y-70192500D02*
X169267258Y-70192500D01*
%TO.C,R13*%
X129047258Y-61007500D02*
X128572742Y-61007500D01*
X129047258Y-62052500D02*
X128572742Y-62052500D01*
D20*
%TO.C,C10*%
X136068000Y-74817200D02*
X137668200Y-74817200D01*
X137668200Y-76442800D02*
X136068000Y-76442800D01*
%TO.C,C31*%
X97981800Y-49657200D02*
X99582000Y-49657200D01*
X99582000Y-51282800D02*
X97981800Y-51282800D01*
D17*
%TO.C,R6*%
X168937500Y-61182742D02*
X168937500Y-61657258D01*
X169982500Y-61182742D02*
X169982500Y-61657258D01*
D20*
%TO.C,C51*%
X138048000Y-49847200D02*
X139648200Y-49847200D01*
X139648200Y-51472800D02*
X138048000Y-51472800D01*
D17*
%TO.C,D3*%
X129040000Y-73195000D02*
X129040000Y-75880000D01*
X130960000Y-73195000D02*
X129040000Y-73195000D01*
X130960000Y-75880000D02*
X130960000Y-73195000D01*
D20*
%TO.C,C5*%
X171467200Y-68928200D02*
X171467200Y-67328000D01*
X173092800Y-67328000D02*
X173092800Y-68928200D01*
D17*
%TO.C,D4*%
X159720000Y-49420000D02*
X159720000Y-52105000D01*
X159720000Y-52105000D02*
X161640000Y-52105000D01*
X161640000Y-52105000D02*
X161640000Y-49420000D01*
D24*
%TO.C,J4*%
X163700000Y-46955000D02*
X163700000Y-48570000D01*
X165550000Y-48570000D02*
X163700000Y-48570000D01*
X171100000Y-46955000D02*
X171100000Y-48570000D01*
X171100000Y-48570000D02*
X169250000Y-48570000D01*
X168800000Y-49960000D02*
G75*
G02*
X168600000Y-49960000I-100000J0D01*
G01*
X168600000Y-49960000D02*
G75*
G02*
X168800000Y-49960000I100000J0D01*
G01*
D25*
%TO.C,QG1*%
X142870000Y-79382000D02*
X142870000Y-82118000D01*
X144394000Y-84150000D02*
X146146000Y-84150000D01*
X146146000Y-77350000D02*
X144394000Y-77350000D01*
X147670000Y-82118000D02*
X147670000Y-79382000D01*
D23*
X146159000Y-83544000D02*
G75*
G02*
X145905000Y-83544000I-127000J0D01*
G01*
X145905000Y-83544000D02*
G75*
G02*
X146159000Y-83544000I127000J0D01*
G01*
D17*
%TO.C,R28*%
X179907500Y-81862258D02*
X179907500Y-81387742D01*
X180952500Y-81862258D02*
X180952500Y-81387742D01*
%TO.C,R12*%
X129047258Y-59407500D02*
X128572742Y-59407500D01*
X129047258Y-60452500D02*
X128572742Y-60452500D01*
D20*
%TO.C,C53*%
X155591800Y-49087200D02*
X157192000Y-49087200D01*
X157192000Y-50712800D02*
X155591800Y-50712800D01*
%TO.C,C1*%
X172497200Y-52768200D02*
X172497200Y-51168000D01*
X174122800Y-51168000D02*
X174122800Y-52768200D01*
%TO.C,C41*%
X119437200Y-64602000D02*
X119437200Y-63001800D01*
X121062800Y-63001800D02*
X121062800Y-64602000D01*
D19*
%TO.C,U3*%
X124862400Y-64057600D02*
X124862400Y-64286200D01*
X124862400Y-69213800D02*
X124862400Y-69442400D01*
X124862400Y-69442400D02*
X129637600Y-69442400D01*
X129637600Y-64057600D02*
X124862400Y-64057600D01*
X129637600Y-64286200D02*
X129637600Y-64057600D01*
X129637600Y-69442400D02*
X129637600Y-69213800D01*
D20*
%TO.C,C2*%
X176667200Y-59952000D02*
X176667200Y-58351800D01*
X178292800Y-58351800D02*
X178292800Y-59952000D01*
D17*
%TO.C,R10*%
X131487500Y-75227258D02*
X131487500Y-74752742D01*
X132532500Y-75227258D02*
X132532500Y-74752742D01*
%TO.C,SW2*%
X174360000Y-88810000D02*
X164140000Y-88810000D01*
X164140000Y-86090000D01*
X174360000Y-86090000D01*
X174360000Y-88810000D01*
D20*
%TO.C,C11*%
X182167200Y-78012000D02*
X182167200Y-76411800D01*
X183792800Y-76411800D02*
X183792800Y-78012000D01*
%TO.C,C54*%
X131921800Y-50257200D02*
X133522000Y-50257200D01*
X133522000Y-51882800D02*
X131921800Y-51882800D01*
D17*
%TO.C,R17*%
X102070000Y-83087742D02*
X102070000Y-83562258D01*
X103115000Y-83087742D02*
X103115000Y-83562258D01*
D25*
%TO.C,P1*%
X156523400Y-82819000D02*
X163076600Y-82819000D01*
X156523400Y-86121000D02*
X156523400Y-82819000D01*
X163076600Y-82819000D02*
X163076600Y-86121000D01*
X163076600Y-86121000D02*
X156523400Y-86121000D01*
D17*
%TO.C,R18*%
X104617500Y-83032742D02*
X104617500Y-83507258D01*
X105662500Y-83032742D02*
X105662500Y-83507258D01*
D25*
%TO.C,QG2*%
X133660000Y-79494000D02*
X133660000Y-81246000D01*
X135692000Y-82770000D02*
X138428000Y-82770000D01*
X138428000Y-77970000D02*
X135692000Y-77970000D01*
X140460000Y-81246000D02*
X140460000Y-79494000D01*
D23*
X139981000Y-79608000D02*
G75*
G02*
X139727000Y-79608000I-127000J0D01*
G01*
X139727000Y-79608000D02*
G75*
G02*
X139981000Y-79608000I127000J0D01*
G01*
D17*
%TO.C,R19*%
X175127500Y-66867742D02*
X175127500Y-67342258D01*
X176172500Y-66867742D02*
X176172500Y-67342258D01*
%TO.C,Q3*%
X166095000Y-79690000D02*
X166095000Y-78890000D01*
X166095000Y-79690000D02*
X166095000Y-80490000D01*
X169215000Y-79690000D02*
X169215000Y-78890000D01*
X169215000Y-79690000D02*
X169215000Y-80490000D01*
X169495000Y-78630000D02*
X169165000Y-78390000D01*
X169495000Y-78150000D01*
X169495000Y-78630000D01*
G36*
X169495000Y-78630000D02*
G01*
X169165000Y-78390000D01*
X169495000Y-78150000D01*
X169495000Y-78630000D01*
G37*
%TO.C,R27*%
X124527500Y-76007258D02*
X124527500Y-75532742D01*
X125572500Y-76007258D02*
X125572500Y-75532742D01*
%TO.C,R11*%
X129047258Y-70157500D02*
X128572742Y-70157500D01*
X129047258Y-71202500D02*
X128572742Y-71202500D01*
D20*
%TO.C,C42*%
X122287200Y-61232000D02*
X122287200Y-59631800D01*
X123912800Y-59631800D02*
X123912800Y-61232000D01*
D18*
%TO.C,J1*%
X101302500Y-85385000D02*
X108922500Y-85385000D01*
X101302500Y-90465000D02*
X101302500Y-85385000D01*
X108922500Y-85385000D02*
X108922500Y-90465000D01*
X108922500Y-90465000D02*
X101302500Y-90465000D01*
D24*
X100842500Y-89195000D02*
G75*
G02*
X100642500Y-89195000I-100000J0D01*
G01*
X100642500Y-89195000D02*
G75*
G02*
X100842500Y-89195000I100000J0D01*
G01*
D17*
%TO.C,R1*%
X118467500Y-82242742D02*
X118467500Y-82717258D01*
X119512500Y-82242742D02*
X119512500Y-82717258D01*
D20*
%TO.C,C12*%
X174127200Y-73422000D02*
X174127200Y-71821800D01*
X175752800Y-71821800D02*
X175752800Y-73422000D01*
D17*
%TO.C,R3*%
X145407500Y-73072742D02*
X145407500Y-73547258D01*
X146452500Y-73072742D02*
X146452500Y-73547258D01*
D10*
%TO.C,J5*%
X124512500Y-89175000D02*
X124512500Y-91475000D01*
X124512500Y-91475000D02*
X132412500Y-91475000D01*
X126398024Y-87386461D02*
X125398024Y-87386461D01*
X130512500Y-86325000D02*
X130512500Y-87375000D01*
X130512500Y-87375000D02*
X131512500Y-87375000D01*
X132412500Y-91475000D02*
X132412500Y-89175000D01*
D17*
%TO.C,R20*%
X160157500Y-45292742D02*
X160157500Y-45767258D01*
X161202500Y-45292742D02*
X161202500Y-45767258D01*
D18*
%TO.C,U2*%
X171310000Y-57890000D02*
X171310000Y-58190000D01*
X171310000Y-57890000D02*
X171610000Y-57890000D01*
X171310000Y-61890000D02*
X171310000Y-61590000D01*
X171310000Y-61890000D02*
X171610000Y-61890000D01*
X175310000Y-57890000D02*
X175010000Y-57890000D01*
X175310000Y-57890000D02*
X175310000Y-58190000D01*
X175310000Y-61890000D02*
X175010000Y-61890000D01*
X175310000Y-61890000D02*
X175310000Y-61590000D01*
D24*
X170445000Y-58640000D02*
G75*
G02*
X170245000Y-58640000I-100000J0D01*
G01*
X170245000Y-58640000D02*
G75*
G02*
X170445000Y-58640000I100000J0D01*
G01*
D19*
%TO.C,EXT_PINS0*%
X93450000Y-75465000D02*
X94085000Y-74830000D01*
X93450000Y-76735000D02*
X93450000Y-75465000D01*
X93450000Y-78005000D02*
X94085000Y-77370000D01*
X93450000Y-79275000D02*
X93450000Y-78005000D01*
X93450000Y-80545000D02*
X94085000Y-79910000D01*
X93450000Y-81815000D02*
X93450000Y-80545000D01*
X93450000Y-83085000D02*
X94085000Y-82450000D01*
X93450000Y-84355000D02*
X93450000Y-83085000D01*
X93450000Y-85625000D02*
X94085000Y-84990000D01*
X93450000Y-86895000D02*
X93450000Y-85625000D01*
X94085000Y-74830000D02*
X97895000Y-74830000D01*
X94085000Y-77370000D02*
X93450000Y-76735000D01*
X94085000Y-77370000D02*
X97895000Y-77370000D01*
X94085000Y-79910000D02*
X93450000Y-79275000D01*
X94085000Y-79910000D02*
X97895000Y-79910000D01*
X94085000Y-82450000D02*
X93450000Y-81815000D01*
X94085000Y-82450000D02*
X97895000Y-82450000D01*
X94085000Y-84990000D02*
X93450000Y-84355000D01*
X94085000Y-84990000D02*
X97895000Y-84990000D01*
X94085000Y-87530000D02*
X93450000Y-86895000D01*
X97895000Y-77370000D02*
X98530000Y-76735000D01*
X97895000Y-79910000D02*
X98530000Y-79275000D01*
X97895000Y-82450000D02*
X98530000Y-81815000D01*
X97895000Y-84990000D02*
X98530000Y-84355000D01*
X97895000Y-87530000D02*
X94085000Y-87530000D01*
X97895000Y-87530000D02*
X98530000Y-86895000D01*
X98530000Y-75465000D02*
X97895000Y-74830000D01*
X98530000Y-76735000D02*
X98530000Y-75465000D01*
X98530000Y-78005000D02*
X97895000Y-77370000D01*
X98530000Y-79275000D02*
X98530000Y-78005000D01*
X98530000Y-80545000D02*
X97895000Y-79910000D01*
X98530000Y-81815000D02*
X98530000Y-80545000D01*
X98530000Y-83085000D02*
X97895000Y-82450000D01*
X98530000Y-84355000D02*
X98530000Y-83085000D01*
X98530000Y-85625000D02*
X97895000Y-84990000D01*
X98530000Y-86895000D02*
X98530000Y-85625000D01*
D17*
%TO.C,R31*%
X169277258Y-66627500D02*
X168802742Y-66627500D01*
X169277258Y-67672500D02*
X168802742Y-67672500D01*
%TO.C,R16*%
X99587500Y-88152742D02*
X99587500Y-88627258D01*
X100632500Y-88152742D02*
X100632500Y-88627258D01*
D20*
%TO.C,C62*%
X157091800Y-77117200D02*
X158692000Y-77117200D01*
X158692000Y-78742800D02*
X157091800Y-78742800D01*
D23*
%TO.C,IC2*%
X93870000Y-45750000D02*
X93870000Y-69750000D01*
X96870000Y-72750000D02*
X100720000Y-72750000D01*
X100720000Y-72750000D02*
X108220000Y-72750000D01*
D18*
X100970000Y-43710000D02*
X100970000Y-46250000D01*
X100970000Y-46250000D02*
X100970000Y-48790000D01*
X100970000Y-46250000D02*
X103510000Y-46250000D01*
X100970000Y-48790000D02*
X101922500Y-48790000D01*
X101922500Y-48790000D02*
X101922500Y-49107500D01*
X101922500Y-48790000D02*
X102557500Y-48790000D01*
X101922500Y-49107500D02*
X102557500Y-49107500D01*
X102557500Y-48790000D02*
X103510000Y-48790000D01*
X102557500Y-49107500D02*
X102557500Y-48790000D01*
X103510000Y-46250000D02*
X103510000Y-48790000D01*
X103510000Y-48790000D02*
X151770000Y-48790000D01*
D23*
X108220000Y-72750000D02*
X155870000Y-72750000D01*
D18*
X151770000Y-43710000D02*
X100970000Y-43710000D01*
X151770000Y-48790000D02*
X151770000Y-43710000D01*
D23*
X155870000Y-42750000D02*
X96870000Y-42750000D01*
X158870000Y-69750000D02*
X158870000Y-45750000D01*
X93870000Y-45750000D02*
G75*
G02*
X96870000Y-42750000I3000000J0D01*
G01*
X96870000Y-72750000D02*
G75*
G02*
X93870000Y-69750000I0J3000000D01*
G01*
X155870000Y-42750000D02*
G75*
G02*
X158870000Y-45750000I0J-3000000D01*
G01*
X158870000Y-69750000D02*
G75*
G02*
X155870000Y-72750000I-3000000J0D01*
G01*
D17*
%TO.C,R14*%
X129067258Y-62587500D02*
X128592742Y-62587500D01*
X129067258Y-63632500D02*
X128592742Y-63632500D01*
D18*
%TO.C,J2*%
X112632500Y-85395000D02*
X120252500Y-85395000D01*
X112632500Y-90475000D02*
X112632500Y-85395000D01*
X120252500Y-85395000D02*
X120252500Y-90475000D01*
X120252500Y-90475000D02*
X112632500Y-90475000D01*
D24*
X112172500Y-89205000D02*
G75*
G02*
X111972500Y-89205000I-100000J0D01*
G01*
X111972500Y-89205000D02*
G75*
G02*
X112172500Y-89205000I100000J0D01*
G01*
D20*
%TO.C,C6*%
X169997200Y-51978200D02*
X169997200Y-50378000D01*
X171622800Y-50378000D02*
X171622800Y-51978200D01*
D17*
%TO.C,U7*%
X122787500Y-81400000D02*
X122787500Y-79450000D01*
X122787500Y-81400000D02*
X122787500Y-83350000D01*
X132907500Y-81400000D02*
X132907500Y-79450000D01*
X132907500Y-81400000D02*
X132907500Y-83350000D01*
X122842500Y-84100000D02*
X122512500Y-84340000D01*
X122512500Y-83860000D01*
X122842500Y-84100000D01*
G36*
X122842500Y-84100000D02*
G01*
X122512500Y-84340000D01*
X122512500Y-83860000D01*
X122842500Y-84100000D01*
G37*
%TO.C,L2*%
X174990000Y-42700000D02*
X185590000Y-42700000D01*
X174990000Y-45900000D02*
X174990000Y-42700000D01*
X174990000Y-53300000D02*
X174990000Y-50100000D01*
X185590000Y-42700000D02*
X185590000Y-45900000D01*
X185590000Y-50100000D02*
X185590000Y-53300000D01*
X185590000Y-53300000D02*
X174990000Y-53300000D01*
D20*
%TO.C,C8*%
X178817200Y-60852000D02*
X178817200Y-59251800D01*
X180442800Y-59251800D02*
X180442800Y-60852000D01*
D17*
%TO.C,R21*%
X103797500Y-63417742D02*
X103797500Y-63892258D01*
X104842500Y-63417742D02*
X104842500Y-63892258D01*
D11*
%TO.C,U8*%
X172670000Y-78260000D02*
X174450000Y-78260000D01*
X172670000Y-81340000D02*
X174450000Y-81340000D01*
X172340000Y-78300000D02*
G75*
G02*
X172280000Y-78300000I-30000J0D01*
G01*
X172280000Y-78300000D02*
G75*
G02*
X172340000Y-78300000I30000J0D01*
G01*
%TD*%
M02*
