%TF.GenerationSoftware,KiCad,Pcbnew,9.0.5*%
%TF.CreationDate,2025-10-27T17:08:41+05:30*%
%TF.ProjectId,cpm_vehicle_pcb,63706d5f-7665-4686-9963-6c655f706362,rev?*%
%TF.SameCoordinates,Original*%
%TF.FileFunction,Soldermask,Bot*%
%TF.FilePolarity,Negative*%
%FSLAX46Y46*%
G04 Gerber Fmt 4.6, Leading zero omitted, Abs format (unit mm)*
G04 Created by KiCad (PCBNEW 9.0.5) date 2025-10-27 17:08:41*
%MOMM*%
%LPD*%
G01*
G04 APERTURE LIST*
G04 Aperture macros list*
%AMRoundRect*
0 Rectangle with rounded corners*
0 $1 Rounding radius*
0 $2 $3 $4 $5 $6 $7 $8 $9 X,Y pos of 4 corners*
0 Add a 4 corners polygon primitive as box body*
4,1,4,$2,$3,$4,$5,$6,$7,$8,$9,$2,$3,0*
0 Add four circle primitives for the rounded corners*
1,1,$1+$1,$2,$3*
1,1,$1+$1,$4,$5*
1,1,$1+$1,$6,$7*
1,1,$1+$1,$8,$9*
0 Add four rect primitives between the rounded corners*
20,1,$1+$1,$2,$3,$4,$5,0*
20,1,$1+$1,$4,$5,$6,$7,0*
20,1,$1+$1,$6,$7,$8,$9,0*
20,1,$1+$1,$8,$9,$2,$3,0*%
%AMOutline5P*
0 Free polygon, 5 corners , with rotation*
0 The origin of the aperture is its center*
0 number of corners: always 5*
0 $1 to $10 corner X, Y*
0 $11 Rotation angle, in degrees counterclockwise*
0 create outline with 5 corners*
4,1,5,$1,$2,$3,$4,$5,$6,$7,$8,$9,$10,$1,$2,$11*%
%AMOutline6P*
0 Free polygon, 6 corners , with rotation*
0 The origin of the aperture is its center*
0 number of corners: always 6*
0 $1 to $12 corner X, Y*
0 $13 Rotation angle, in degrees counterclockwise*
0 create outline with 6 corners*
4,1,6,$1,$2,$3,$4,$5,$6,$7,$8,$9,$10,$11,$12,$1,$2,$13*%
%AMOutline7P*
0 Free polygon, 7 corners , with rotation*
0 The origin of the aperture is its center*
0 number of corners: always 7*
0 $1 to $14 corner X, Y*
0 $15 Rotation angle, in degrees counterclockwise*
0 create outline with 7 corners*
4,1,7,$1,$2,$3,$4,$5,$6,$7,$8,$9,$10,$11,$12,$13,$14,$1,$2,$15*%
%AMOutline8P*
0 Free polygon, 8 corners , with rotation*
0 The origin of the aperture is its center*
0 number of corners: always 8*
0 $1 to $16 corner X, Y*
0 $17 Rotation angle, in degrees counterclockwise*
0 create outline with 8 corners*
4,1,8,$1,$2,$3,$4,$5,$6,$7,$8,$9,$10,$11,$12,$13,$14,$15,$16,$1,$2,$17*%
G04 Aperture macros list end*
%ADD10O,1.204000X2.004000*%
%ADD11O,1.204000X2.304000*%
%ADD12C,0.650000*%
%ADD13C,1.000000*%
%ADD14R,1.700000X1.700000*%
%ADD15C,1.700000*%
%ADD16O,3.048000X1.524000*%
%ADD17O,1.700000X1.700000*%
%ADD18R,1.500000X1.500000*%
%ADD19C,1.600000*%
%ADD20RoundRect,0.102000X-0.802500X-0.802500X0.802500X-0.802500X0.802500X0.802500X-0.802500X0.802500X0*%
%ADD21C,1.809000*%
%ADD22Outline8P,-0.762000X0.315631X-0.315631X0.762000X0.315631X0.762000X0.762000X0.315631X0.762000X-0.315631X0.315631X-0.762000X-0.315631X-0.762000X-0.762000X-0.315631X90.000000*%
%ADD23R,1.778000X1.778000*%
%ADD24C,1.778000*%
G04 APERTURE END LIST*
D10*
%TO.C,J4*%
X168750000Y-43000000D03*
X177390000Y-43000000D03*
D11*
X168750000Y-47180000D03*
X177390000Y-47180000D03*
D12*
X170180000Y-46680000D03*
X175960000Y-46680000D03*
%TD*%
D13*
%TO.C,J5*%
X125462500Y-90375000D03*
X131462500Y-90375000D03*
%TD*%
D14*
%TO.C,J6*%
X177920000Y-85400000D03*
D15*
X180460000Y-85400000D03*
X183000000Y-85400000D03*
%TD*%
D16*
%TO.C,R/W0*%
X97950000Y-58950000D03*
X97950000Y-56410000D03*
%TD*%
D14*
%TO.C,J3*%
X147842500Y-87475000D03*
D17*
X145302500Y-87475000D03*
X142762500Y-87475000D03*
X140222500Y-87475000D03*
X137682500Y-87475000D03*
%TD*%
D18*
%TO.C,SW2*%
X169300000Y-87570000D03*
D19*
X166760000Y-87570000D03*
X171840000Y-87570000D03*
%TD*%
D20*
%TO.C,J1*%
X102572500Y-89195000D03*
D21*
X102572500Y-86655000D03*
X105112500Y-89195000D03*
X105112500Y-86655000D03*
X107652500Y-89195000D03*
X107652500Y-86655000D03*
%TD*%
D16*
%TO.C,A1*%
X164090000Y-49850000D03*
X164090000Y-52390000D03*
X164090000Y-54930000D03*
X164090000Y-57470000D03*
X164090000Y-60010000D03*
X164090000Y-62550000D03*
X181870000Y-60010000D03*
X181870000Y-57470000D03*
X181870000Y-54930000D03*
X181870000Y-52390000D03*
%TD*%
D22*
%TO.C,EXT_PINS0*%
X97260000Y-86260000D03*
X94720000Y-86260000D03*
X97260000Y-83720000D03*
X94720000Y-83720000D03*
X97260000Y-81180000D03*
X94720000Y-81180000D03*
X97260000Y-78640000D03*
X94720000Y-78640000D03*
X97260000Y-76100000D03*
X94720000Y-76100000D03*
%TD*%
D23*
%TO.C,IC2*%
X102240000Y-47520000D03*
D24*
X102240000Y-44980000D03*
X104780000Y-47520000D03*
X104780000Y-44980000D03*
X107320000Y-47520000D03*
X107320000Y-44980000D03*
X109860000Y-47520000D03*
X109860000Y-44980000D03*
X112400000Y-47520000D03*
X112400000Y-44980000D03*
X114940000Y-47520000D03*
X114940000Y-44980000D03*
X117480000Y-47520000D03*
X117480000Y-44980000D03*
X120020000Y-47520000D03*
X120020000Y-44980000D03*
X122560000Y-47520000D03*
X122560000Y-44980000D03*
X125100000Y-47520000D03*
X125100000Y-44980000D03*
X127640000Y-47520000D03*
X127640000Y-44980000D03*
X130180000Y-47520000D03*
X130180000Y-44980000D03*
X132720000Y-47520000D03*
X132720000Y-44980000D03*
X135260000Y-47520000D03*
X135260000Y-44980000D03*
X137800000Y-47520000D03*
X137800000Y-44980000D03*
X140340000Y-47520000D03*
X140340000Y-44980000D03*
X142880000Y-47520000D03*
X142880000Y-44980000D03*
X145420000Y-47520000D03*
X145420000Y-44980000D03*
X147960000Y-47520000D03*
X147960000Y-44980000D03*
X150500000Y-47520000D03*
X150500000Y-44980000D03*
%TD*%
D20*
%TO.C,J2*%
X113902500Y-89205000D03*
D21*
X113902500Y-86665000D03*
X116442500Y-89205000D03*
X116442500Y-86665000D03*
X118982500Y-89205000D03*
X118982500Y-86665000D03*
%TD*%
M02*
