%TF.GenerationSoftware,KiCad,Pcbnew,9.0.5*%
%TF.CreationDate,2025-10-27T17:08:41+05:30*%
%TF.ProjectId,cpm_vehicle_pcb,63706d5f-7665-4686-9963-6c655f706362,rev?*%
%TF.SameCoordinates,Original*%
%TF.FileFunction,Soldermask,Top*%
%TF.FilePolarity,Negative*%
%FSLAX46Y46*%
G04 Gerber Fmt 4.6, Leading zero omitted, Abs format (unit mm)*
G04 Created by KiCad (PCBNEW 9.0.5) date 2025-10-27 17:08:41*
%MOMM*%
%LPD*%
G01*
G04 APERTURE LIST*
G04 Aperture macros list*
%AMRoundRect*
0 Rectangle with rounded corners*
0 $1 Rounding radius*
0 $2 $3 $4 $5 $6 $7 $8 $9 X,Y pos of 4 corners*
0 Add a 4 corners polygon primitive as box body*
4,1,4,$2,$3,$4,$5,$6,$7,$8,$9,$2,$3,0*
0 Add four circle primitives for the rounded corners*
1,1,$1+$1,$2,$3*
1,1,$1+$1,$4,$5*
1,1,$1+$1,$6,$7*
1,1,$1+$1,$8,$9*
0 Add four rect primitives between the rounded corners*
20,1,$1+$1,$2,$3,$4,$5,0*
20,1,$1+$1,$4,$5,$6,$7,0*
20,1,$1+$1,$6,$7,$8,$9,0*
20,1,$1+$1,$8,$9,$2,$3,0*%
%AMOutline5P*
0 Free polygon, 5 corners , with rotation*
0 The origin of the aperture is its center*
0 number of corners: always 5*
0 $1 to $10 corner X, Y*
0 $11 Rotation angle, in degrees counterclockwise*
0 create outline with 5 corners*
4,1,5,$1,$2,$3,$4,$5,$6,$7,$8,$9,$10,$1,$2,$11*%
%AMOutline6P*
0 Free polygon, 6 corners , with rotation*
0 The origin of the aperture is its center*
0 number of corners: always 6*
0 $1 to $12 corner X, Y*
0 $13 Rotation angle, in degrees counterclockwise*
0 create outline with 6 corners*
4,1,6,$1,$2,$3,$4,$5,$6,$7,$8,$9,$10,$11,$12,$1,$2,$13*%
%AMOutline7P*
0 Free polygon, 7 corners , with rotation*
0 The origin of the aperture is its center*
0 number of corners: always 7*
0 $1 to $14 corner X, Y*
0 $15 Rotation angle, in degrees counterclockwise*
0 create outline with 7 corners*
4,1,7,$1,$2,$3,$4,$5,$6,$7,$8,$9,$10,$11,$12,$13,$14,$1,$2,$15*%
%AMOutline8P*
0 Free polygon, 8 corners , with rotation*
0 The origin of the aperture is its center*
0 number of corners: always 8*
0 $1 to $16 corner X, Y*
0 $17 Rotation angle, in degrees counterclockwise*
0 create outline with 8 corners*
4,1,8,$1,$2,$3,$4,$5,$6,$7,$8,$9,$10,$11,$12,$13,$14,$15,$16,$1,$2,$17*%
G04 Aperture macros list end*
%ADD10C,0.010000*%
%ADD11O,1.204000X2.004000*%
%ADD12O,1.204000X2.304000*%
%ADD13C,0.650000*%
%ADD14R,3.000000X1.800000*%
%ADD15R,0.500000X1.500000*%
%ADD16C,1.000000*%
%ADD17RoundRect,0.200000X-0.275000X0.200000X-0.275000X-0.200000X0.275000X-0.200000X0.275000X0.200000X0*%
%ADD18RoundRect,0.250000X0.970000X0.310000X-0.970000X0.310000X-0.970000X-0.310000X0.970000X-0.310000X0*%
%ADD19R,1.500000X1.300000*%
%ADD20RoundRect,0.225000X-0.225000X-0.250000X0.225000X-0.250000X0.225000X0.250000X-0.225000X0.250000X0*%
%ADD21R,1.300000X1.500000*%
%ADD22R,1.700000X1.700000*%
%ADD23C,1.700000*%
%ADD24RoundRect,0.225000X-0.250000X0.225000X-0.250000X-0.225000X0.250000X-0.225000X0.250000X0.225000X0*%
%ADD25R,1.000000X1.400000*%
%ADD26RoundRect,0.200000X0.275000X-0.200000X0.275000X0.200000X-0.275000X0.200000X-0.275000X-0.200000X0*%
%ADD27O,3.048000X1.524000*%
%ADD28R,1.500000X0.350000*%
%ADD29R,0.350000X1.500000*%
%ADD30RoundRect,0.200000X0.200000X0.275000X-0.200000X0.275000X-0.200000X-0.275000X0.200000X-0.275000X0*%
%ADD31RoundRect,0.243750X0.456250X-0.243750X0.456250X0.243750X-0.456250X0.243750X-0.456250X-0.243750X0*%
%ADD32O,1.700000X1.700000*%
%ADD33RoundRect,0.260556X-1.027444X-0.677444X1.027444X-0.677444X1.027444X0.677444X-1.027444X0.677444X0*%
%ADD34RoundRect,0.243750X-0.456250X0.243750X-0.456250X-0.243750X0.456250X-0.243750X0.456250X0.243750X0*%
%ADD35R,2.000000X2.000000*%
%ADD36R,2.700000X3.600000*%
%ADD37R,1.500000X1.500000*%
%ADD38C,1.600000*%
%ADD39R,1.676400X0.355600*%
%ADD40RoundRect,0.250000X0.400000X0.550000X-0.400000X0.550000X-0.400000X-0.550000X0.400000X-0.550000X0*%
%ADD41RoundRect,0.250000X0.750000X0.550000X-0.750000X0.550000X-0.750000X-0.550000X0.750000X-0.550000X0*%
%ADD42R,1.219200X2.235200*%
%ADD43R,3.600000X2.200000*%
%ADD44RoundRect,0.150000X-0.150000X0.512500X-0.150000X-0.512500X0.150000X-0.512500X0.150000X0.512500X0*%
%ADD45RoundRect,0.102000X-0.802500X-0.802500X0.802500X-0.802500X0.802500X0.802500X-0.802500X0.802500X0*%
%ADD46C,1.809000*%
%ADD47Outline8P,-0.762000X0.315631X-0.315631X0.762000X0.315631X0.762000X0.762000X0.315631X0.762000X-0.315631X0.315631X-0.762000X-0.315631X-0.762000X-0.762000X-0.315631X90.000000*%
%ADD48R,1.778000X1.778000*%
%ADD49C,1.778000*%
%ADD50RoundRect,0.150000X0.150000X-0.825000X0.150000X0.825000X-0.150000X0.825000X-0.150000X-0.825000X0*%
%ADD51RoundRect,0.150000X0.150000X-0.512500X0.150000X0.512500X-0.150000X0.512500X-0.150000X-0.512500X0*%
%ADD52RoundRect,0.132500X-0.402500X0.132500X-0.402500X-0.132500X0.402500X-0.132500X0.402500X0.132500X0*%
G04 APERTURE END LIST*
D10*
%TO.C,J4*%
X176620000Y-48380000D02*
X175920000Y-48380000D01*
X175920000Y-47130000D01*
X176620000Y-47130000D01*
X176620000Y-48380000D01*
G36*
X176620000Y-48380000D02*
G01*
X175920000Y-48380000D01*
X175920000Y-47130000D01*
X176620000Y-47130000D01*
X176620000Y-48380000D01*
G37*
X175820000Y-48380000D02*
X175120000Y-48380000D01*
X175120000Y-47130000D01*
X175820000Y-47130000D01*
X175820000Y-48380000D01*
G36*
X175820000Y-48380000D02*
G01*
X175120000Y-48380000D01*
X175120000Y-47130000D01*
X175820000Y-47130000D01*
X175820000Y-48380000D01*
G37*
X175020000Y-48380000D02*
X174620000Y-48380000D01*
X174620000Y-47130000D01*
X175020000Y-47130000D01*
X175020000Y-48380000D01*
G36*
X175020000Y-48380000D02*
G01*
X174620000Y-48380000D01*
X174620000Y-47130000D01*
X175020000Y-47130000D01*
X175020000Y-48380000D01*
G37*
X174520000Y-48380000D02*
X174120000Y-48380000D01*
X174120000Y-47130000D01*
X174520000Y-47130000D01*
X174520000Y-48380000D01*
G36*
X174520000Y-48380000D02*
G01*
X174120000Y-48380000D01*
X174120000Y-47130000D01*
X174520000Y-47130000D01*
X174520000Y-48380000D01*
G37*
X174020000Y-48380000D02*
X173620000Y-48380000D01*
X173620000Y-47130000D01*
X174020000Y-47130000D01*
X174020000Y-48380000D01*
G36*
X174020000Y-48380000D02*
G01*
X173620000Y-48380000D01*
X173620000Y-47130000D01*
X174020000Y-47130000D01*
X174020000Y-48380000D01*
G37*
X173520000Y-48380000D02*
X173120000Y-48380000D01*
X173120000Y-47130000D01*
X173520000Y-47130000D01*
X173520000Y-48380000D01*
G36*
X173520000Y-48380000D02*
G01*
X173120000Y-48380000D01*
X173120000Y-47130000D01*
X173520000Y-47130000D01*
X173520000Y-48380000D01*
G37*
X173020000Y-48380000D02*
X172620000Y-48380000D01*
X172620000Y-47130000D01*
X173020000Y-47130000D01*
X173020000Y-48380000D01*
G36*
X173020000Y-48380000D02*
G01*
X172620000Y-48380000D01*
X172620000Y-47130000D01*
X173020000Y-47130000D01*
X173020000Y-48380000D01*
G37*
X172520000Y-48380000D02*
X172120000Y-48380000D01*
X172120000Y-47130000D01*
X172520000Y-47130000D01*
X172520000Y-48380000D01*
G36*
X172520000Y-48380000D02*
G01*
X172120000Y-48380000D01*
X172120000Y-47130000D01*
X172520000Y-47130000D01*
X172520000Y-48380000D01*
G37*
X172020000Y-48380000D02*
X171620000Y-48380000D01*
X171620000Y-47130000D01*
X172020000Y-47130000D01*
X172020000Y-48380000D01*
G36*
X172020000Y-48380000D02*
G01*
X171620000Y-48380000D01*
X171620000Y-47130000D01*
X172020000Y-47130000D01*
X172020000Y-48380000D01*
G37*
X171520000Y-48380000D02*
X171120000Y-48380000D01*
X171120000Y-47130000D01*
X171520000Y-47130000D01*
X171520000Y-48380000D01*
G36*
X171520000Y-48380000D02*
G01*
X171120000Y-48380000D01*
X171120000Y-47130000D01*
X171520000Y-47130000D01*
X171520000Y-48380000D01*
G37*
X171020000Y-48380000D02*
X170320000Y-48380000D01*
X170320000Y-47130000D01*
X171020000Y-47130000D01*
X171020000Y-48380000D01*
G36*
X171020000Y-48380000D02*
G01*
X170320000Y-48380000D01*
X170320000Y-47130000D01*
X171020000Y-47130000D01*
X171020000Y-48380000D01*
G37*
X170220000Y-48380000D02*
X169520000Y-48380000D01*
X169520000Y-47130000D01*
X170220000Y-47130000D01*
X170220000Y-48380000D01*
G36*
X170220000Y-48380000D02*
G01*
X169520000Y-48380000D01*
X169520000Y-47130000D01*
X170220000Y-47130000D01*
X170220000Y-48380000D01*
G37*
%TD*%
D11*
%TO.C,J4*%
X168750000Y-43000000D03*
X177390000Y-43000000D03*
D12*
X168750000Y-47180000D03*
X177390000Y-47180000D03*
D13*
X170180000Y-46680000D03*
X175960000Y-46680000D03*
%TD*%
D14*
%TO.C,J5*%
X123712500Y-88075000D03*
X133212500Y-88075000D03*
D15*
X126862500Y-86925000D03*
X127662500Y-86925000D03*
X128462500Y-86925000D03*
X129262500Y-86925000D03*
X130062500Y-86925000D03*
D16*
X125462500Y-90375000D03*
X131462500Y-90375000D03*
%TD*%
D17*
%TO.C,R2*%
X116450000Y-81610000D03*
X116450000Y-83260000D03*
%TD*%
D18*
%TO.C,SW1*%
X115555000Y-62770000D03*
X115555000Y-60230000D03*
X106945000Y-60230000D03*
X106945000Y-62770000D03*
%TD*%
D17*
%TO.C,R3o1*%
X113910000Y-81630000D03*
X113910000Y-83280000D03*
%TD*%
D19*
%TO.C,C9*%
X180440000Y-78160000D03*
X180440000Y-76260000D03*
%TD*%
D20*
%TO.C,C7*%
X177325000Y-61480000D03*
X178875000Y-61480000D03*
%TD*%
D21*
%TO.C,C3*%
X171850000Y-72500000D03*
X173750000Y-72500000D03*
%TD*%
D22*
%TO.C,J6*%
X177920000Y-85400000D03*
D23*
X180460000Y-85400000D03*
X183000000Y-85400000D03*
%TD*%
D24*
%TO.C,C4*%
X175870000Y-72115000D03*
X175870000Y-73665000D03*
%TD*%
D25*
%TO.C,Q12*%
X104110000Y-77815000D03*
X102210000Y-77815000D03*
X103160000Y-80015000D03*
%TD*%
D17*
%TO.C,R4*%
X143720000Y-72445000D03*
X143720000Y-74095000D03*
%TD*%
D26*
%TO.C,R26*%
X127170000Y-76595000D03*
X127170000Y-74945000D03*
%TD*%
D21*
%TO.C,C55*%
X160420000Y-71890000D03*
X162320000Y-71890000D03*
%TD*%
D17*
%TO.C,R15*%
X111000000Y-87545000D03*
X111000000Y-89195000D03*
%TD*%
D27*
%TO.C,R/W0*%
X97950000Y-58950000D03*
X97950000Y-56410000D03*
%TD*%
D28*
%TO.C,IC1*%
X133200000Y-56200000D03*
X133200000Y-56700000D03*
X133200000Y-57200000D03*
X133200000Y-57700000D03*
X133200000Y-58200000D03*
X133200000Y-58700000D03*
X133200000Y-59200000D03*
X133200000Y-59700000D03*
X133200000Y-60200000D03*
X133200000Y-60700000D03*
X133200000Y-61200000D03*
X133200000Y-61700000D03*
X133200000Y-62200000D03*
X133200000Y-62700000D03*
X133200000Y-63200000D03*
X133200000Y-63700000D03*
X133200000Y-64200000D03*
X133200000Y-64700000D03*
X133200000Y-65200000D03*
X133200000Y-65700000D03*
X133200000Y-66200000D03*
X133200000Y-66700000D03*
X133200000Y-67200000D03*
X133200000Y-67700000D03*
X133200000Y-68200000D03*
D29*
X135200000Y-70200000D03*
X135700000Y-70200000D03*
X136200000Y-70200000D03*
X136700000Y-70200000D03*
X137200000Y-70200000D03*
X137700000Y-70200000D03*
X138200000Y-70200000D03*
X138700000Y-70200000D03*
X139200000Y-70200000D03*
X139700000Y-70200000D03*
X140200000Y-70200000D03*
X140700000Y-70200000D03*
X141200000Y-70200000D03*
X141700000Y-70200000D03*
X142200000Y-70200000D03*
X142700000Y-70200000D03*
X143200000Y-70200000D03*
X143700000Y-70200000D03*
X144200000Y-70200000D03*
X144700000Y-70200000D03*
X145200000Y-70200000D03*
X145700000Y-70200000D03*
X146200000Y-70200000D03*
X146700000Y-70200000D03*
X147200000Y-70200000D03*
D28*
X149200000Y-68200000D03*
X149200000Y-67700000D03*
X149200000Y-67200000D03*
X149200000Y-66700000D03*
X149200000Y-66200000D03*
X149200000Y-65700000D03*
X149200000Y-65200000D03*
X149200000Y-64700000D03*
X149200000Y-64200000D03*
X149200000Y-63700000D03*
X149200000Y-63200000D03*
X149200000Y-62700000D03*
X149200000Y-62200000D03*
X149200000Y-61700000D03*
X149200000Y-61200000D03*
X149200000Y-60700000D03*
X149200000Y-60200000D03*
X149200000Y-59700000D03*
X149200000Y-59200000D03*
X149200000Y-58700000D03*
X149200000Y-58200000D03*
X149200000Y-57700000D03*
X149200000Y-57200000D03*
X149200000Y-56700000D03*
X149200000Y-56200000D03*
D29*
X147200000Y-54200000D03*
X146700000Y-54200000D03*
X146200000Y-54200000D03*
X145700000Y-54200000D03*
X145200000Y-54200000D03*
X144700000Y-54200000D03*
X144200000Y-54200000D03*
X143700000Y-54200000D03*
X143200000Y-54200000D03*
X142700000Y-54200000D03*
X142200000Y-54200000D03*
X141700000Y-54200000D03*
X141200000Y-54200000D03*
X140700000Y-54200000D03*
X140200000Y-54200000D03*
X139700000Y-54200000D03*
X139200000Y-54200000D03*
X138700000Y-54200000D03*
X138200000Y-54200000D03*
X137700000Y-54200000D03*
X137200000Y-54200000D03*
X136700000Y-54200000D03*
X136200000Y-54200000D03*
X135700000Y-54200000D03*
X135200000Y-54200000D03*
%TD*%
D19*
%TO.C,C61*%
X164720000Y-85080000D03*
X164720000Y-83180000D03*
%TD*%
D26*
%TO.C,R25*%
X182990000Y-82450000D03*
X182990000Y-80800000D03*
%TD*%
D25*
%TO.C,Q11*%
X111940000Y-83180000D03*
X110040000Y-83180000D03*
X110990000Y-85380000D03*
%TD*%
D30*
%TO.C,R24*%
X172412500Y-82610000D03*
X170762500Y-82610000D03*
%TD*%
D31*
%TO.C,D2*%
X154630000Y-82335000D03*
X154630000Y-80460000D03*
%TD*%
D19*
%TO.C,C71*%
X150710000Y-79870000D03*
X150710000Y-81770000D03*
%TD*%
D17*
%TO.C,R9*%
X154630000Y-84095000D03*
X154630000Y-85745000D03*
%TD*%
D21*
%TO.C,C63*%
X161560000Y-77970000D03*
X163460000Y-77970000D03*
%TD*%
D22*
%TO.C,J3*%
X147842500Y-87475000D03*
D32*
X145302500Y-87475000D03*
X142762500Y-87475000D03*
X140222500Y-87475000D03*
X137682500Y-87475000D03*
%TD*%
D26*
%TO.C,R21*%
X173860000Y-64030000D03*
X173860000Y-62380000D03*
%TD*%
D30*
%TO.C,R13*%
X129635000Y-61530000D03*
X127985000Y-61530000D03*
%TD*%
D21*
%TO.C,C10*%
X135880000Y-75630000D03*
X137780000Y-75630000D03*
%TD*%
%TO.C,C31*%
X104940000Y-50200000D03*
X106840000Y-50200000D03*
%TD*%
%TO.C,C56*%
X165160000Y-70520000D03*
X167060000Y-70520000D03*
%TD*%
%TO.C,C51*%
X136550000Y-50840000D03*
X138450000Y-50840000D03*
%TD*%
D33*
%TO.C,D6*%
X171860000Y-68830000D03*
X175860000Y-68830000D03*
%TD*%
D34*
%TO.C,D3*%
X130000000Y-73942500D03*
X130000000Y-75817500D03*
%TD*%
D35*
%TO.C,QG1*%
X147370000Y-83250000D03*
X147370000Y-78250000D03*
X143170000Y-78250000D03*
X143170000Y-83250000D03*
%TD*%
D26*
%TO.C,R28*%
X180430000Y-82450000D03*
X180430000Y-80800000D03*
%TD*%
D30*
%TO.C,R12*%
X129635000Y-59930000D03*
X127985000Y-59930000D03*
%TD*%
D36*
%TO.C,L1*%
X168830000Y-54500000D03*
X177130000Y-54500000D03*
%TD*%
D21*
%TO.C,C53*%
X157380000Y-49900000D03*
X155480000Y-49900000D03*
%TD*%
D25*
%TO.C,Q14*%
X112060000Y-76950000D03*
X110160000Y-76950000D03*
X111110000Y-79150000D03*
%TD*%
D37*
%TO.C,SW2*%
X169300000Y-87570000D03*
D38*
X166760000Y-87570000D03*
X171840000Y-87570000D03*
%TD*%
D21*
%TO.C,C41*%
X115550000Y-67000000D03*
X117450000Y-67000000D03*
%TD*%
D39*
%TO.C,U3*%
X124430600Y-64800000D03*
X124430600Y-65450000D03*
X124430600Y-66100000D03*
X124430600Y-66750000D03*
X124430600Y-67400000D03*
X124430600Y-68050000D03*
X124430600Y-68700000D03*
X130069400Y-68700000D03*
X130069400Y-68050000D03*
X130069400Y-67400000D03*
X130069400Y-66750000D03*
X130069400Y-66100000D03*
X130069400Y-65450000D03*
X130069400Y-64800000D03*
%TD*%
D40*
%TO.C,RV1*%
X168560000Y-64030000D03*
D41*
X169810000Y-61130000D03*
D40*
X171060000Y-64030000D03*
%TD*%
D26*
%TO.C,R10*%
X132010000Y-75815000D03*
X132010000Y-74165000D03*
%TD*%
D19*
%TO.C,C11*%
X182990000Y-78160000D03*
X182990000Y-76260000D03*
%TD*%
D21*
%TO.C,C54*%
X133950000Y-50830000D03*
X132050000Y-50830000D03*
%TD*%
D17*
%TO.C,R17*%
X102592500Y-82500000D03*
X102592500Y-84150000D03*
%TD*%
D42*
%TO.C,P1*%
X157488600Y-87568800D03*
X159800000Y-87568800D03*
X162111400Y-87568800D03*
D43*
X159800000Y-81371000D03*
%TD*%
D17*
%TO.C,R18*%
X105140000Y-82445000D03*
X105140000Y-84095000D03*
%TD*%
D35*
%TO.C,QG2*%
X139560000Y-78270000D03*
X134560000Y-78270000D03*
X134560000Y-82470000D03*
X139560000Y-82470000D03*
%TD*%
D44*
%TO.C,Q3*%
X168605000Y-78552500D03*
X167655000Y-78552500D03*
X166705000Y-78552500D03*
X166705000Y-80827500D03*
X167655000Y-80827500D03*
X168605000Y-80827500D03*
%TD*%
D26*
%TO.C,R27*%
X125050000Y-76595000D03*
X125050000Y-74945000D03*
%TD*%
D30*
%TO.C,R11*%
X129635000Y-70680000D03*
X127985000Y-70680000D03*
%TD*%
D19*
%TO.C,C42*%
X118770000Y-62690000D03*
X118770000Y-60790000D03*
%TD*%
D45*
%TO.C,J1*%
X102572500Y-89195000D03*
D46*
X102572500Y-86655000D03*
X105112500Y-89195000D03*
X105112500Y-86655000D03*
X107652500Y-89195000D03*
X107652500Y-86655000D03*
%TD*%
D25*
%TO.C,Q13*%
X108120000Y-77840000D03*
X106220000Y-77840000D03*
X107170000Y-80040000D03*
%TD*%
D27*
%TO.C,A1*%
X164090000Y-49850000D03*
X164090000Y-52390000D03*
X164090000Y-54930000D03*
X164090000Y-57470000D03*
X164090000Y-60010000D03*
X164090000Y-62550000D03*
X181870000Y-60010000D03*
X181870000Y-57470000D03*
X181870000Y-54930000D03*
X181870000Y-52390000D03*
%TD*%
D17*
%TO.C,R1*%
X118990000Y-81655000D03*
X118990000Y-83305000D03*
%TD*%
D33*
%TO.C,D1*%
X179890000Y-68830000D03*
X183890000Y-68830000D03*
%TD*%
D17*
%TO.C,R3*%
X145930000Y-72485000D03*
X145930000Y-74135000D03*
%TD*%
D47*
%TO.C,EXT_PINS0*%
X97260000Y-86260000D03*
X94720000Y-86260000D03*
X97260000Y-83720000D03*
X94720000Y-83720000D03*
X97260000Y-81180000D03*
X94720000Y-81180000D03*
X97260000Y-78640000D03*
X94720000Y-78640000D03*
X97260000Y-76100000D03*
X94720000Y-76100000D03*
%TD*%
D17*
%TO.C,R16*%
X100110000Y-87565000D03*
X100110000Y-89215000D03*
%TD*%
D21*
%TO.C,C62*%
X158880000Y-77930000D03*
X156980000Y-77930000D03*
%TD*%
D48*
%TO.C,IC2*%
X102240000Y-47520000D03*
D49*
X102240000Y-44980000D03*
X104780000Y-47520000D03*
X104780000Y-44980000D03*
X107320000Y-47520000D03*
X107320000Y-44980000D03*
X109860000Y-47520000D03*
X109860000Y-44980000D03*
X112400000Y-47520000D03*
X112400000Y-44980000D03*
X114940000Y-47520000D03*
X114940000Y-44980000D03*
X117480000Y-47520000D03*
X117480000Y-44980000D03*
X120020000Y-47520000D03*
X120020000Y-44980000D03*
X122560000Y-47520000D03*
X122560000Y-44980000D03*
X125100000Y-47520000D03*
X125100000Y-44980000D03*
X127640000Y-47520000D03*
X127640000Y-44980000D03*
X130180000Y-47520000D03*
X130180000Y-44980000D03*
X132720000Y-47520000D03*
X132720000Y-44980000D03*
X135260000Y-47520000D03*
X135260000Y-44980000D03*
X137800000Y-47520000D03*
X137800000Y-44980000D03*
X140340000Y-47520000D03*
X140340000Y-44980000D03*
X142880000Y-47520000D03*
X142880000Y-44980000D03*
X145420000Y-47520000D03*
X145420000Y-44980000D03*
X147960000Y-47520000D03*
X147960000Y-44980000D03*
X150500000Y-47520000D03*
X150500000Y-44980000D03*
%TD*%
D30*
%TO.C,R14*%
X129655000Y-63110000D03*
X128005000Y-63110000D03*
%TD*%
D45*
%TO.C,J2*%
X113902500Y-89205000D03*
D46*
X113902500Y-86665000D03*
X116442500Y-89205000D03*
X116442500Y-86665000D03*
X118982500Y-89205000D03*
X118982500Y-86665000D03*
%TD*%
D50*
%TO.C,U7*%
X123402500Y-83875000D03*
X124672500Y-83875000D03*
X125942500Y-83875000D03*
X127212500Y-83875000D03*
X128482500Y-83875000D03*
X129752500Y-83875000D03*
X131022500Y-83875000D03*
X132292500Y-83875000D03*
X132292500Y-78925000D03*
X131022500Y-78925000D03*
X129752500Y-78925000D03*
X128482500Y-78925000D03*
X127212500Y-78925000D03*
X125942500Y-78925000D03*
X124672500Y-78925000D03*
X123402500Y-78925000D03*
%TD*%
D51*
%TO.C,U4*%
X179110000Y-65947500D03*
X180060000Y-65947500D03*
X181010000Y-65947500D03*
X181010000Y-63672500D03*
X180060000Y-63672500D03*
X179110000Y-63672500D03*
%TD*%
D52*
%TO.C,U8*%
X172410000Y-78850000D03*
X172410000Y-79800000D03*
X172410000Y-80750000D03*
X174710000Y-80750000D03*
X174710000Y-79800000D03*
X174710000Y-78850000D03*
%TD*%
M02*
