%TF.GenerationSoftware,KiCad,Pcbnew,9.0.5*%
%TF.CreationDate,2025-10-27T17:08:41+05:30*%
%TF.ProjectId,cpm_vehicle_pcb,63706d5f-7665-4686-9963-6c655f706362,rev?*%
%TF.SameCoordinates,Original*%
%TF.FileFunction,Legend,Top*%
%TF.FilePolarity,Positive*%
%FSLAX46Y46*%
G04 Gerber Fmt 4.6, Leading zero omitted, Abs format (unit mm)*
G04 Created by KiCad (PCBNEW 9.0.5) date 2025-10-27 17:08:41*
%MOMM*%
%LPD*%
G01*
G04 APERTURE LIST*
%ADD10C,0.150000*%
%ADD11C,0.093472*%
%ADD12C,0.091440*%
%ADD13C,0.071628*%
%ADD14C,0.059822*%
%ADD15C,0.060960*%
%ADD16C,0.101600*%
%ADD17C,0.200000*%
%ADD18C,0.100000*%
%ADD19C,0.120000*%
%ADD20C,0.076200*%
%ADD21C,0.762000*%
%ADD22C,0.152400*%
%ADD23C,0.000000*%
%ADD24C,0.254000*%
%ADD25C,0.203200*%
%ADD26C,0.127000*%
G04 APERTURE END LIST*
D10*
X174561666Y-51089819D02*
X174561666Y-51804104D01*
X174561666Y-51804104D02*
X174514047Y-51946961D01*
X174514047Y-51946961D02*
X174418809Y-52042200D01*
X174418809Y-52042200D02*
X174275952Y-52089819D01*
X174275952Y-52089819D02*
X174180714Y-52089819D01*
X175466428Y-51423152D02*
X175466428Y-52089819D01*
X175228333Y-51042200D02*
X174990238Y-51756485D01*
X174990238Y-51756485D02*
X175609285Y-51756485D01*
X123739166Y-85799819D02*
X123739166Y-86514104D01*
X123739166Y-86514104D02*
X123691547Y-86656961D01*
X123691547Y-86656961D02*
X123596309Y-86752200D01*
X123596309Y-86752200D02*
X123453452Y-86799819D01*
X123453452Y-86799819D02*
X123358214Y-86799819D01*
X124691547Y-85799819D02*
X124215357Y-85799819D01*
X124215357Y-85799819D02*
X124167738Y-86276009D01*
X124167738Y-86276009D02*
X124215357Y-86228390D01*
X124215357Y-86228390D02*
X124310595Y-86180771D01*
X124310595Y-86180771D02*
X124548690Y-86180771D01*
X124548690Y-86180771D02*
X124643928Y-86228390D01*
X124643928Y-86228390D02*
X124691547Y-86276009D01*
X124691547Y-86276009D02*
X124739166Y-86371247D01*
X124739166Y-86371247D02*
X124739166Y-86609342D01*
X124739166Y-86609342D02*
X124691547Y-86704580D01*
X124691547Y-86704580D02*
X124643928Y-86752200D01*
X124643928Y-86752200D02*
X124548690Y-86799819D01*
X124548690Y-86799819D02*
X124310595Y-86799819D01*
X124310595Y-86799819D02*
X124215357Y-86752200D01*
X124215357Y-86752200D02*
X124167738Y-86704580D01*
X118334819Y-82601666D02*
X117858628Y-82934999D01*
X118334819Y-83173094D02*
X117334819Y-83173094D01*
X117334819Y-83173094D02*
X117334819Y-82792142D01*
X117334819Y-82792142D02*
X117382438Y-82696904D01*
X117382438Y-82696904D02*
X117430057Y-82649285D01*
X117430057Y-82649285D02*
X117525295Y-82601666D01*
X117525295Y-82601666D02*
X117668152Y-82601666D01*
X117668152Y-82601666D02*
X117763390Y-82649285D01*
X117763390Y-82649285D02*
X117811009Y-82696904D01*
X117811009Y-82696904D02*
X117858628Y-82792142D01*
X117858628Y-82792142D02*
X117858628Y-83173094D01*
X117430057Y-82220713D02*
X117382438Y-82173094D01*
X117382438Y-82173094D02*
X117334819Y-82077856D01*
X117334819Y-82077856D02*
X117334819Y-81839761D01*
X117334819Y-81839761D02*
X117382438Y-81744523D01*
X117382438Y-81744523D02*
X117430057Y-81696904D01*
X117430057Y-81696904D02*
X117525295Y-81649285D01*
X117525295Y-81649285D02*
X117620533Y-81649285D01*
X117620533Y-81649285D02*
X117763390Y-81696904D01*
X117763390Y-81696904D02*
X118334819Y-82268332D01*
X118334819Y-82268332D02*
X118334819Y-81649285D01*
X109916667Y-66597200D02*
X110059524Y-66644819D01*
X110059524Y-66644819D02*
X110297619Y-66644819D01*
X110297619Y-66644819D02*
X110392857Y-66597200D01*
X110392857Y-66597200D02*
X110440476Y-66549580D01*
X110440476Y-66549580D02*
X110488095Y-66454342D01*
X110488095Y-66454342D02*
X110488095Y-66359104D01*
X110488095Y-66359104D02*
X110440476Y-66263866D01*
X110440476Y-66263866D02*
X110392857Y-66216247D01*
X110392857Y-66216247D02*
X110297619Y-66168628D01*
X110297619Y-66168628D02*
X110107143Y-66121009D01*
X110107143Y-66121009D02*
X110011905Y-66073390D01*
X110011905Y-66073390D02*
X109964286Y-66025771D01*
X109964286Y-66025771D02*
X109916667Y-65930533D01*
X109916667Y-65930533D02*
X109916667Y-65835295D01*
X109916667Y-65835295D02*
X109964286Y-65740057D01*
X109964286Y-65740057D02*
X110011905Y-65692438D01*
X110011905Y-65692438D02*
X110107143Y-65644819D01*
X110107143Y-65644819D02*
X110345238Y-65644819D01*
X110345238Y-65644819D02*
X110488095Y-65692438D01*
X110821429Y-65644819D02*
X111059524Y-66644819D01*
X111059524Y-66644819D02*
X111250000Y-65930533D01*
X111250000Y-65930533D02*
X111440476Y-66644819D01*
X111440476Y-66644819D02*
X111678572Y-65644819D01*
X112583333Y-66644819D02*
X112011905Y-66644819D01*
X112297619Y-66644819D02*
X112297619Y-65644819D01*
X112297619Y-65644819D02*
X112202381Y-65787676D01*
X112202381Y-65787676D02*
X112107143Y-65882914D01*
X112107143Y-65882914D02*
X112011905Y-65930533D01*
X115794819Y-83550238D02*
X115318628Y-83883571D01*
X115794819Y-84121666D02*
X114794819Y-84121666D01*
X114794819Y-84121666D02*
X114794819Y-83740714D01*
X114794819Y-83740714D02*
X114842438Y-83645476D01*
X114842438Y-83645476D02*
X114890057Y-83597857D01*
X114890057Y-83597857D02*
X114985295Y-83550238D01*
X114985295Y-83550238D02*
X115128152Y-83550238D01*
X115128152Y-83550238D02*
X115223390Y-83597857D01*
X115223390Y-83597857D02*
X115271009Y-83645476D01*
X115271009Y-83645476D02*
X115318628Y-83740714D01*
X115318628Y-83740714D02*
X115318628Y-84121666D01*
X114794819Y-83216904D02*
X114794819Y-82597857D01*
X114794819Y-82597857D02*
X115175771Y-82931190D01*
X115175771Y-82931190D02*
X115175771Y-82788333D01*
X115175771Y-82788333D02*
X115223390Y-82693095D01*
X115223390Y-82693095D02*
X115271009Y-82645476D01*
X115271009Y-82645476D02*
X115366247Y-82597857D01*
X115366247Y-82597857D02*
X115604342Y-82597857D01*
X115604342Y-82597857D02*
X115699580Y-82645476D01*
X115699580Y-82645476D02*
X115747200Y-82693095D01*
X115747200Y-82693095D02*
X115794819Y-82788333D01*
X115794819Y-82788333D02*
X115794819Y-83074047D01*
X115794819Y-83074047D02*
X115747200Y-83169285D01*
X115747200Y-83169285D02*
X115699580Y-83216904D01*
X115794819Y-82026428D02*
X115747200Y-82121666D01*
X115747200Y-82121666D02*
X115699580Y-82169285D01*
X115699580Y-82169285D02*
X115604342Y-82216904D01*
X115604342Y-82216904D02*
X115318628Y-82216904D01*
X115318628Y-82216904D02*
X115223390Y-82169285D01*
X115223390Y-82169285D02*
X115175771Y-82121666D01*
X115175771Y-82121666D02*
X115128152Y-82026428D01*
X115128152Y-82026428D02*
X115128152Y-81883571D01*
X115128152Y-81883571D02*
X115175771Y-81788333D01*
X115175771Y-81788333D02*
X115223390Y-81740714D01*
X115223390Y-81740714D02*
X115318628Y-81693095D01*
X115318628Y-81693095D02*
X115604342Y-81693095D01*
X115604342Y-81693095D02*
X115699580Y-81740714D01*
X115699580Y-81740714D02*
X115747200Y-81788333D01*
X115747200Y-81788333D02*
X115794819Y-81883571D01*
X115794819Y-81883571D02*
X115794819Y-82026428D01*
X115794819Y-80740714D02*
X115794819Y-81312142D01*
X115794819Y-81026428D02*
X114794819Y-81026428D01*
X114794819Y-81026428D02*
X114937676Y-81121666D01*
X114937676Y-81121666D02*
X115032914Y-81216904D01*
X115032914Y-81216904D02*
X115080533Y-81312142D01*
D11*
X181762358Y-77153652D02*
X181706333Y-77097627D01*
X181706333Y-77097627D02*
X181650307Y-76929551D01*
X181650307Y-76929551D02*
X181650307Y-76817501D01*
X181650307Y-76817501D02*
X181706333Y-76649426D01*
X181706333Y-76649426D02*
X181818383Y-76537375D01*
X181818383Y-76537375D02*
X181930433Y-76481350D01*
X181930433Y-76481350D02*
X182154534Y-76425325D01*
X182154534Y-76425325D02*
X182322609Y-76425325D01*
X182322609Y-76425325D02*
X182546710Y-76481350D01*
X182546710Y-76481350D02*
X182658760Y-76537375D01*
X182658760Y-76537375D02*
X182770810Y-76649426D01*
X182770810Y-76649426D02*
X182826835Y-76817501D01*
X182826835Y-76817501D02*
X182826835Y-76929551D01*
X182826835Y-76929551D02*
X182770810Y-77097627D01*
X182770810Y-77097627D02*
X182714785Y-77153652D01*
X181650307Y-77713903D02*
X181650307Y-77938004D01*
X181650307Y-77938004D02*
X181706333Y-78050054D01*
X181706333Y-78050054D02*
X181762358Y-78106079D01*
X181762358Y-78106079D02*
X181930433Y-78218130D01*
X181930433Y-78218130D02*
X182154534Y-78274155D01*
X182154534Y-78274155D02*
X182602735Y-78274155D01*
X182602735Y-78274155D02*
X182714785Y-78218130D01*
X182714785Y-78218130D02*
X182770810Y-78162105D01*
X182770810Y-78162105D02*
X182826835Y-78050054D01*
X182826835Y-78050054D02*
X182826835Y-77825954D01*
X182826835Y-77825954D02*
X182770810Y-77713903D01*
X182770810Y-77713903D02*
X182714785Y-77657878D01*
X182714785Y-77657878D02*
X182602735Y-77601853D01*
X182602735Y-77601853D02*
X182322609Y-77601853D01*
X182322609Y-77601853D02*
X182210559Y-77657878D01*
X182210559Y-77657878D02*
X182154534Y-77713903D01*
X182154534Y-77713903D02*
X182098509Y-77825954D01*
X182098509Y-77825954D02*
X182098509Y-78050054D01*
X182098509Y-78050054D02*
X182154534Y-78162105D01*
X182154534Y-78162105D02*
X182210559Y-78218130D01*
X182210559Y-78218130D02*
X182322609Y-78274155D01*
D10*
X177933333Y-60409580D02*
X177885714Y-60457200D01*
X177885714Y-60457200D02*
X177742857Y-60504819D01*
X177742857Y-60504819D02*
X177647619Y-60504819D01*
X177647619Y-60504819D02*
X177504762Y-60457200D01*
X177504762Y-60457200D02*
X177409524Y-60361961D01*
X177409524Y-60361961D02*
X177361905Y-60266723D01*
X177361905Y-60266723D02*
X177314286Y-60076247D01*
X177314286Y-60076247D02*
X177314286Y-59933390D01*
X177314286Y-59933390D02*
X177361905Y-59742914D01*
X177361905Y-59742914D02*
X177409524Y-59647676D01*
X177409524Y-59647676D02*
X177504762Y-59552438D01*
X177504762Y-59552438D02*
X177647619Y-59504819D01*
X177647619Y-59504819D02*
X177742857Y-59504819D01*
X177742857Y-59504819D02*
X177885714Y-59552438D01*
X177885714Y-59552438D02*
X177933333Y-59600057D01*
X178266667Y-59504819D02*
X178933333Y-59504819D01*
X178933333Y-59504819D02*
X178504762Y-60504819D01*
D11*
X172856347Y-73822358D02*
X172912372Y-73766333D01*
X172912372Y-73766333D02*
X173080448Y-73710307D01*
X173080448Y-73710307D02*
X173192498Y-73710307D01*
X173192498Y-73710307D02*
X173360573Y-73766333D01*
X173360573Y-73766333D02*
X173472624Y-73878383D01*
X173472624Y-73878383D02*
X173528649Y-73990433D01*
X173528649Y-73990433D02*
X173584674Y-74214534D01*
X173584674Y-74214534D02*
X173584674Y-74382609D01*
X173584674Y-74382609D02*
X173528649Y-74606710D01*
X173528649Y-74606710D02*
X173472624Y-74718760D01*
X173472624Y-74718760D02*
X173360573Y-74830810D01*
X173360573Y-74830810D02*
X173192498Y-74886835D01*
X173192498Y-74886835D02*
X173080448Y-74886835D01*
X173080448Y-74886835D02*
X172912372Y-74830810D01*
X172912372Y-74830810D02*
X172856347Y-74774785D01*
X172464171Y-74886835D02*
X171735844Y-74886835D01*
X171735844Y-74886835D02*
X172128020Y-74438634D01*
X172128020Y-74438634D02*
X171959945Y-74438634D01*
X171959945Y-74438634D02*
X171847895Y-74382609D01*
X171847895Y-74382609D02*
X171791869Y-74326584D01*
X171791869Y-74326584D02*
X171735844Y-74214534D01*
X171735844Y-74214534D02*
X171735844Y-73934408D01*
X171735844Y-73934408D02*
X171791869Y-73822358D01*
X171791869Y-73822358D02*
X171847895Y-73766333D01*
X171847895Y-73766333D02*
X171959945Y-73710307D01*
X171959945Y-73710307D02*
X172296096Y-73710307D01*
X172296096Y-73710307D02*
X172408146Y-73766333D01*
X172408146Y-73766333D02*
X172464171Y-73822358D01*
D10*
X174604819Y-90113333D02*
X175319104Y-90113333D01*
X175319104Y-90113333D02*
X175461961Y-90160952D01*
X175461961Y-90160952D02*
X175557200Y-90256190D01*
X175557200Y-90256190D02*
X175604819Y-90399047D01*
X175604819Y-90399047D02*
X175604819Y-90494285D01*
X174604819Y-89208571D02*
X174604819Y-89399047D01*
X174604819Y-89399047D02*
X174652438Y-89494285D01*
X174652438Y-89494285D02*
X174700057Y-89541904D01*
X174700057Y-89541904D02*
X174842914Y-89637142D01*
X174842914Y-89637142D02*
X175033390Y-89684761D01*
X175033390Y-89684761D02*
X175414342Y-89684761D01*
X175414342Y-89684761D02*
X175509580Y-89637142D01*
X175509580Y-89637142D02*
X175557200Y-89589523D01*
X175557200Y-89589523D02*
X175604819Y-89494285D01*
X175604819Y-89494285D02*
X175604819Y-89303809D01*
X175604819Y-89303809D02*
X175557200Y-89208571D01*
X175557200Y-89208571D02*
X175509580Y-89160952D01*
X175509580Y-89160952D02*
X175414342Y-89113333D01*
X175414342Y-89113333D02*
X175176247Y-89113333D01*
X175176247Y-89113333D02*
X175081009Y-89160952D01*
X175081009Y-89160952D02*
X175033390Y-89208571D01*
X175033390Y-89208571D02*
X174985771Y-89303809D01*
X174985771Y-89303809D02*
X174985771Y-89494285D01*
X174985771Y-89494285D02*
X175033390Y-89589523D01*
X175033390Y-89589523D02*
X175081009Y-89637142D01*
X175081009Y-89637142D02*
X175176247Y-89684761D01*
X177659580Y-73056666D02*
X177707200Y-73104285D01*
X177707200Y-73104285D02*
X177754819Y-73247142D01*
X177754819Y-73247142D02*
X177754819Y-73342380D01*
X177754819Y-73342380D02*
X177707200Y-73485237D01*
X177707200Y-73485237D02*
X177611961Y-73580475D01*
X177611961Y-73580475D02*
X177516723Y-73628094D01*
X177516723Y-73628094D02*
X177326247Y-73675713D01*
X177326247Y-73675713D02*
X177183390Y-73675713D01*
X177183390Y-73675713D02*
X176992914Y-73628094D01*
X176992914Y-73628094D02*
X176897676Y-73580475D01*
X176897676Y-73580475D02*
X176802438Y-73485237D01*
X176802438Y-73485237D02*
X176754819Y-73342380D01*
X176754819Y-73342380D02*
X176754819Y-73247142D01*
X176754819Y-73247142D02*
X176802438Y-73104285D01*
X176802438Y-73104285D02*
X176850057Y-73056666D01*
X177088152Y-72199523D02*
X177754819Y-72199523D01*
X176707200Y-72437618D02*
X177421485Y-72675713D01*
X177421485Y-72675713D02*
X177421485Y-72056666D01*
D11*
X102761971Y-76846205D02*
X102649921Y-76790180D01*
X102649921Y-76790180D02*
X102537871Y-76678130D01*
X102537871Y-76678130D02*
X102369795Y-76510054D01*
X102369795Y-76510054D02*
X102257745Y-76454029D01*
X102257745Y-76454029D02*
X102145695Y-76454029D01*
X102201720Y-76734155D02*
X102089670Y-76678130D01*
X102089670Y-76678130D02*
X101977619Y-76566079D01*
X101977619Y-76566079D02*
X101921594Y-76341979D01*
X101921594Y-76341979D02*
X101921594Y-75949803D01*
X101921594Y-75949803D02*
X101977619Y-75725702D01*
X101977619Y-75725702D02*
X102089670Y-75613652D01*
X102089670Y-75613652D02*
X102201720Y-75557627D01*
X102201720Y-75557627D02*
X102425820Y-75557627D01*
X102425820Y-75557627D02*
X102537871Y-75613652D01*
X102537871Y-75613652D02*
X102649921Y-75725702D01*
X102649921Y-75725702D02*
X102705946Y-75949803D01*
X102705946Y-75949803D02*
X102705946Y-76341979D01*
X102705946Y-76341979D02*
X102649921Y-76566079D01*
X102649921Y-76566079D02*
X102537871Y-76678130D01*
X102537871Y-76678130D02*
X102425820Y-76734155D01*
X102425820Y-76734155D02*
X102201720Y-76734155D01*
X103826449Y-76734155D02*
X103154147Y-76734155D01*
X103490298Y-76734155D02*
X103490298Y-75557627D01*
X103490298Y-75557627D02*
X103378248Y-75725702D01*
X103378248Y-75725702D02*
X103266197Y-75837752D01*
X103266197Y-75837752D02*
X103154147Y-75893778D01*
X104274650Y-75669677D02*
X104330675Y-75613652D01*
X104330675Y-75613652D02*
X104442726Y-75557627D01*
X104442726Y-75557627D02*
X104722851Y-75557627D01*
X104722851Y-75557627D02*
X104834902Y-75613652D01*
X104834902Y-75613652D02*
X104890927Y-75669677D01*
X104890927Y-75669677D02*
X104946952Y-75781727D01*
X104946952Y-75781727D02*
X104946952Y-75893778D01*
X104946952Y-75893778D02*
X104890927Y-76061853D01*
X104890927Y-76061853D02*
X104218625Y-76734155D01*
X104218625Y-76734155D02*
X104946952Y-76734155D01*
D10*
X145604819Y-73436666D02*
X145128628Y-73769999D01*
X145604819Y-74008094D02*
X144604819Y-74008094D01*
X144604819Y-74008094D02*
X144604819Y-73627142D01*
X144604819Y-73627142D02*
X144652438Y-73531904D01*
X144652438Y-73531904D02*
X144700057Y-73484285D01*
X144700057Y-73484285D02*
X144795295Y-73436666D01*
X144795295Y-73436666D02*
X144938152Y-73436666D01*
X144938152Y-73436666D02*
X145033390Y-73484285D01*
X145033390Y-73484285D02*
X145081009Y-73531904D01*
X145081009Y-73531904D02*
X145128628Y-73627142D01*
X145128628Y-73627142D02*
X145128628Y-74008094D01*
X144938152Y-72579523D02*
X145604819Y-72579523D01*
X144557200Y-72817618D02*
X145271485Y-73055713D01*
X145271485Y-73055713D02*
X145271485Y-72436666D01*
X126194819Y-76412857D02*
X125718628Y-76746190D01*
X126194819Y-76984285D02*
X125194819Y-76984285D01*
X125194819Y-76984285D02*
X125194819Y-76603333D01*
X125194819Y-76603333D02*
X125242438Y-76508095D01*
X125242438Y-76508095D02*
X125290057Y-76460476D01*
X125290057Y-76460476D02*
X125385295Y-76412857D01*
X125385295Y-76412857D02*
X125528152Y-76412857D01*
X125528152Y-76412857D02*
X125623390Y-76460476D01*
X125623390Y-76460476D02*
X125671009Y-76508095D01*
X125671009Y-76508095D02*
X125718628Y-76603333D01*
X125718628Y-76603333D02*
X125718628Y-76984285D01*
X125290057Y-76031904D02*
X125242438Y-75984285D01*
X125242438Y-75984285D02*
X125194819Y-75889047D01*
X125194819Y-75889047D02*
X125194819Y-75650952D01*
X125194819Y-75650952D02*
X125242438Y-75555714D01*
X125242438Y-75555714D02*
X125290057Y-75508095D01*
X125290057Y-75508095D02*
X125385295Y-75460476D01*
X125385295Y-75460476D02*
X125480533Y-75460476D01*
X125480533Y-75460476D02*
X125623390Y-75508095D01*
X125623390Y-75508095D02*
X126194819Y-76079523D01*
X126194819Y-76079523D02*
X126194819Y-75460476D01*
X125194819Y-74603333D02*
X125194819Y-74793809D01*
X125194819Y-74793809D02*
X125242438Y-74889047D01*
X125242438Y-74889047D02*
X125290057Y-74936666D01*
X125290057Y-74936666D02*
X125432914Y-75031904D01*
X125432914Y-75031904D02*
X125623390Y-75079523D01*
X125623390Y-75079523D02*
X126004342Y-75079523D01*
X126004342Y-75079523D02*
X126099580Y-75031904D01*
X126099580Y-75031904D02*
X126147200Y-74984285D01*
X126147200Y-74984285D02*
X126194819Y-74889047D01*
X126194819Y-74889047D02*
X126194819Y-74698571D01*
X126194819Y-74698571D02*
X126147200Y-74603333D01*
X126147200Y-74603333D02*
X126099580Y-74555714D01*
X126099580Y-74555714D02*
X126004342Y-74508095D01*
X126004342Y-74508095D02*
X125766247Y-74508095D01*
X125766247Y-74508095D02*
X125671009Y-74555714D01*
X125671009Y-74555714D02*
X125623390Y-74603333D01*
X125623390Y-74603333D02*
X125575771Y-74698571D01*
X125575771Y-74698571D02*
X125575771Y-74889047D01*
X125575771Y-74889047D02*
X125623390Y-74984285D01*
X125623390Y-74984285D02*
X125671009Y-75031904D01*
X125671009Y-75031904D02*
X125766247Y-75079523D01*
D11*
X162546850Y-73212358D02*
X162602875Y-73156333D01*
X162602875Y-73156333D02*
X162770951Y-73100307D01*
X162770951Y-73100307D02*
X162883001Y-73100307D01*
X162883001Y-73100307D02*
X163051076Y-73156333D01*
X163051076Y-73156333D02*
X163163127Y-73268383D01*
X163163127Y-73268383D02*
X163219152Y-73380433D01*
X163219152Y-73380433D02*
X163275177Y-73604534D01*
X163275177Y-73604534D02*
X163275177Y-73772609D01*
X163275177Y-73772609D02*
X163219152Y-73996710D01*
X163219152Y-73996710D02*
X163163127Y-74108760D01*
X163163127Y-74108760D02*
X163051076Y-74220810D01*
X163051076Y-74220810D02*
X162883001Y-74276835D01*
X162883001Y-74276835D02*
X162770951Y-74276835D01*
X162770951Y-74276835D02*
X162602875Y-74220810D01*
X162602875Y-74220810D02*
X162546850Y-74164785D01*
X161482372Y-74276835D02*
X162042624Y-74276835D01*
X162042624Y-74276835D02*
X162098649Y-73716584D01*
X162098649Y-73716584D02*
X162042624Y-73772609D01*
X162042624Y-73772609D02*
X161930574Y-73828634D01*
X161930574Y-73828634D02*
X161650448Y-73828634D01*
X161650448Y-73828634D02*
X161538398Y-73772609D01*
X161538398Y-73772609D02*
X161482372Y-73716584D01*
X161482372Y-73716584D02*
X161426347Y-73604534D01*
X161426347Y-73604534D02*
X161426347Y-73324408D01*
X161426347Y-73324408D02*
X161482372Y-73212358D01*
X161482372Y-73212358D02*
X161538398Y-73156333D01*
X161538398Y-73156333D02*
X161650448Y-73100307D01*
X161650448Y-73100307D02*
X161930574Y-73100307D01*
X161930574Y-73100307D02*
X162042624Y-73156333D01*
X162042624Y-73156333D02*
X162098649Y-73212358D01*
X160361869Y-74276835D02*
X160922121Y-74276835D01*
X160922121Y-74276835D02*
X160978146Y-73716584D01*
X160978146Y-73716584D02*
X160922121Y-73772609D01*
X160922121Y-73772609D02*
X160810071Y-73828634D01*
X160810071Y-73828634D02*
X160529945Y-73828634D01*
X160529945Y-73828634D02*
X160417895Y-73772609D01*
X160417895Y-73772609D02*
X160361869Y-73716584D01*
X160361869Y-73716584D02*
X160305844Y-73604534D01*
X160305844Y-73604534D02*
X160305844Y-73324408D01*
X160305844Y-73324408D02*
X160361869Y-73212358D01*
X160361869Y-73212358D02*
X160417895Y-73156333D01*
X160417895Y-73156333D02*
X160529945Y-73100307D01*
X160529945Y-73100307D02*
X160810071Y-73100307D01*
X160810071Y-73100307D02*
X160922121Y-73156333D01*
X160922121Y-73156333D02*
X160978146Y-73212358D01*
D10*
X112884819Y-89012857D02*
X112408628Y-89346190D01*
X112884819Y-89584285D02*
X111884819Y-89584285D01*
X111884819Y-89584285D02*
X111884819Y-89203333D01*
X111884819Y-89203333D02*
X111932438Y-89108095D01*
X111932438Y-89108095D02*
X111980057Y-89060476D01*
X111980057Y-89060476D02*
X112075295Y-89012857D01*
X112075295Y-89012857D02*
X112218152Y-89012857D01*
X112218152Y-89012857D02*
X112313390Y-89060476D01*
X112313390Y-89060476D02*
X112361009Y-89108095D01*
X112361009Y-89108095D02*
X112408628Y-89203333D01*
X112408628Y-89203333D02*
X112408628Y-89584285D01*
X112884819Y-88060476D02*
X112884819Y-88631904D01*
X112884819Y-88346190D02*
X111884819Y-88346190D01*
X111884819Y-88346190D02*
X112027676Y-88441428D01*
X112027676Y-88441428D02*
X112122914Y-88536666D01*
X112122914Y-88536666D02*
X112170533Y-88631904D01*
X111884819Y-87155714D02*
X111884819Y-87631904D01*
X111884819Y-87631904D02*
X112361009Y-87679523D01*
X112361009Y-87679523D02*
X112313390Y-87631904D01*
X112313390Y-87631904D02*
X112265771Y-87536666D01*
X112265771Y-87536666D02*
X112265771Y-87298571D01*
X112265771Y-87298571D02*
X112313390Y-87203333D01*
X112313390Y-87203333D02*
X112361009Y-87155714D01*
X112361009Y-87155714D02*
X112456247Y-87108095D01*
X112456247Y-87108095D02*
X112694342Y-87108095D01*
X112694342Y-87108095D02*
X112789580Y-87155714D01*
X112789580Y-87155714D02*
X112837200Y-87203333D01*
X112837200Y-87203333D02*
X112884819Y-87298571D01*
X112884819Y-87298571D02*
X112884819Y-87536666D01*
X112884819Y-87536666D02*
X112837200Y-87631904D01*
X112837200Y-87631904D02*
X112789580Y-87679523D01*
D12*
X97280770Y-61140988D02*
X97673623Y-61702207D01*
X97954233Y-61140988D02*
X97954233Y-62319548D01*
X97954233Y-62319548D02*
X97505258Y-62319548D01*
X97505258Y-62319548D02*
X97393014Y-62263426D01*
X97393014Y-62263426D02*
X97336892Y-62207304D01*
X97336892Y-62207304D02*
X97280770Y-62095060D01*
X97280770Y-62095060D02*
X97280770Y-61926694D01*
X97280770Y-61926694D02*
X97336892Y-61814450D01*
X97336892Y-61814450D02*
X97393014Y-61758329D01*
X97393014Y-61758329D02*
X97505258Y-61702207D01*
X97505258Y-61702207D02*
X97954233Y-61702207D01*
X95933844Y-62375670D02*
X96944039Y-60860378D01*
X95653235Y-62319548D02*
X95372625Y-61140988D01*
X95372625Y-61140988D02*
X95148138Y-61982816D01*
X95148138Y-61982816D02*
X94923650Y-61140988D01*
X94923650Y-61140988D02*
X94643041Y-62319548D01*
X93969577Y-62319548D02*
X93857334Y-62319548D01*
X93857334Y-62319548D02*
X93745090Y-62263426D01*
X93745090Y-62263426D02*
X93688968Y-62207304D01*
X93688968Y-62207304D02*
X93632846Y-62095060D01*
X93632846Y-62095060D02*
X93576724Y-61870572D01*
X93576724Y-61870572D02*
X93576724Y-61589963D01*
X93576724Y-61589963D02*
X93632846Y-61365475D01*
X93632846Y-61365475D02*
X93688968Y-61253231D01*
X93688968Y-61253231D02*
X93745090Y-61197110D01*
X93745090Y-61197110D02*
X93857334Y-61140988D01*
X93857334Y-61140988D02*
X93969577Y-61140988D01*
X93969577Y-61140988D02*
X94081821Y-61197110D01*
X94081821Y-61197110D02*
X94137943Y-61253231D01*
X94137943Y-61253231D02*
X94194065Y-61365475D01*
X94194065Y-61365475D02*
X94250187Y-61589963D01*
X94250187Y-61589963D02*
X94250187Y-61870572D01*
X94250187Y-61870572D02*
X94194065Y-62095060D01*
X94194065Y-62095060D02*
X94137943Y-62207304D01*
X94137943Y-62207304D02*
X94081821Y-62263426D01*
X94081821Y-62263426D02*
X93969577Y-62319548D01*
D11*
X133544155Y-70972630D02*
X132367627Y-70972630D01*
X133432104Y-69740077D02*
X133488130Y-69796102D01*
X133488130Y-69796102D02*
X133544155Y-69964178D01*
X133544155Y-69964178D02*
X133544155Y-70076228D01*
X133544155Y-70076228D02*
X133488130Y-70244303D01*
X133488130Y-70244303D02*
X133376079Y-70356354D01*
X133376079Y-70356354D02*
X133264029Y-70412379D01*
X133264029Y-70412379D02*
X133039928Y-70468404D01*
X133039928Y-70468404D02*
X132871853Y-70468404D01*
X132871853Y-70468404D02*
X132647752Y-70412379D01*
X132647752Y-70412379D02*
X132535702Y-70356354D01*
X132535702Y-70356354D02*
X132423652Y-70244303D01*
X132423652Y-70244303D02*
X132367627Y-70076228D01*
X132367627Y-70076228D02*
X132367627Y-69964178D01*
X132367627Y-69964178D02*
X132423652Y-69796102D01*
X132423652Y-69796102D02*
X132479677Y-69740077D01*
X133544155Y-68619574D02*
X133544155Y-69291876D01*
X133544155Y-68955725D02*
X132367627Y-68955725D01*
X132367627Y-68955725D02*
X132535702Y-69067775D01*
X132535702Y-69067775D02*
X132647752Y-69179826D01*
X132647752Y-69179826D02*
X132703778Y-69291876D01*
X166042358Y-82953149D02*
X165986333Y-82897124D01*
X165986333Y-82897124D02*
X165930307Y-82729048D01*
X165930307Y-82729048D02*
X165930307Y-82616998D01*
X165930307Y-82616998D02*
X165986333Y-82448923D01*
X165986333Y-82448923D02*
X166098383Y-82336872D01*
X166098383Y-82336872D02*
X166210433Y-82280847D01*
X166210433Y-82280847D02*
X166434534Y-82224822D01*
X166434534Y-82224822D02*
X166602609Y-82224822D01*
X166602609Y-82224822D02*
X166826710Y-82280847D01*
X166826710Y-82280847D02*
X166938760Y-82336872D01*
X166938760Y-82336872D02*
X167050810Y-82448923D01*
X167050810Y-82448923D02*
X167106835Y-82616998D01*
X167106835Y-82616998D02*
X167106835Y-82729048D01*
X167106835Y-82729048D02*
X167050810Y-82897124D01*
X167050810Y-82897124D02*
X166994785Y-82953149D01*
X167106835Y-83961602D02*
X167106835Y-83737501D01*
X167106835Y-83737501D02*
X167050810Y-83625451D01*
X167050810Y-83625451D02*
X166994785Y-83569426D01*
X166994785Y-83569426D02*
X166826710Y-83457375D01*
X166826710Y-83457375D02*
X166602609Y-83401350D01*
X166602609Y-83401350D02*
X166154408Y-83401350D01*
X166154408Y-83401350D02*
X166042358Y-83457375D01*
X166042358Y-83457375D02*
X165986333Y-83513400D01*
X165986333Y-83513400D02*
X165930307Y-83625451D01*
X165930307Y-83625451D02*
X165930307Y-83849551D01*
X165930307Y-83849551D02*
X165986333Y-83961602D01*
X165986333Y-83961602D02*
X166042358Y-84017627D01*
X166042358Y-84017627D02*
X166154408Y-84073652D01*
X166154408Y-84073652D02*
X166434534Y-84073652D01*
X166434534Y-84073652D02*
X166546584Y-84017627D01*
X166546584Y-84017627D02*
X166602609Y-83961602D01*
X166602609Y-83961602D02*
X166658634Y-83849551D01*
X166658634Y-83849551D02*
X166658634Y-83625451D01*
X166658634Y-83625451D02*
X166602609Y-83513400D01*
X166602609Y-83513400D02*
X166546584Y-83457375D01*
X166546584Y-83457375D02*
X166434534Y-83401350D01*
X165930307Y-85194155D02*
X165930307Y-84521853D01*
X165930307Y-84858004D02*
X167106835Y-84858004D01*
X167106835Y-84858004D02*
X166938760Y-84745954D01*
X166938760Y-84745954D02*
X166826710Y-84633903D01*
X166826710Y-84633903D02*
X166770685Y-84521853D01*
D10*
X182014819Y-82267857D02*
X181538628Y-82601190D01*
X182014819Y-82839285D02*
X181014819Y-82839285D01*
X181014819Y-82839285D02*
X181014819Y-82458333D01*
X181014819Y-82458333D02*
X181062438Y-82363095D01*
X181062438Y-82363095D02*
X181110057Y-82315476D01*
X181110057Y-82315476D02*
X181205295Y-82267857D01*
X181205295Y-82267857D02*
X181348152Y-82267857D01*
X181348152Y-82267857D02*
X181443390Y-82315476D01*
X181443390Y-82315476D02*
X181491009Y-82363095D01*
X181491009Y-82363095D02*
X181538628Y-82458333D01*
X181538628Y-82458333D02*
X181538628Y-82839285D01*
X181110057Y-81886904D02*
X181062438Y-81839285D01*
X181062438Y-81839285D02*
X181014819Y-81744047D01*
X181014819Y-81744047D02*
X181014819Y-81505952D01*
X181014819Y-81505952D02*
X181062438Y-81410714D01*
X181062438Y-81410714D02*
X181110057Y-81363095D01*
X181110057Y-81363095D02*
X181205295Y-81315476D01*
X181205295Y-81315476D02*
X181300533Y-81315476D01*
X181300533Y-81315476D02*
X181443390Y-81363095D01*
X181443390Y-81363095D02*
X182014819Y-81934523D01*
X182014819Y-81934523D02*
X182014819Y-81315476D01*
X181014819Y-80410714D02*
X181014819Y-80886904D01*
X181014819Y-80886904D02*
X181491009Y-80934523D01*
X181491009Y-80934523D02*
X181443390Y-80886904D01*
X181443390Y-80886904D02*
X181395771Y-80791666D01*
X181395771Y-80791666D02*
X181395771Y-80553571D01*
X181395771Y-80553571D02*
X181443390Y-80458333D01*
X181443390Y-80458333D02*
X181491009Y-80410714D01*
X181491009Y-80410714D02*
X181586247Y-80363095D01*
X181586247Y-80363095D02*
X181824342Y-80363095D01*
X181824342Y-80363095D02*
X181919580Y-80410714D01*
X181919580Y-80410714D02*
X181967200Y-80458333D01*
X181967200Y-80458333D02*
X182014819Y-80553571D01*
X182014819Y-80553571D02*
X182014819Y-80791666D01*
X182014819Y-80791666D02*
X181967200Y-80886904D01*
X181967200Y-80886904D02*
X181919580Y-80934523D01*
D11*
X110591971Y-82211205D02*
X110479921Y-82155180D01*
X110479921Y-82155180D02*
X110367871Y-82043130D01*
X110367871Y-82043130D02*
X110199795Y-81875054D01*
X110199795Y-81875054D02*
X110087745Y-81819029D01*
X110087745Y-81819029D02*
X109975695Y-81819029D01*
X110031720Y-82099155D02*
X109919670Y-82043130D01*
X109919670Y-82043130D02*
X109807619Y-81931079D01*
X109807619Y-81931079D02*
X109751594Y-81706979D01*
X109751594Y-81706979D02*
X109751594Y-81314803D01*
X109751594Y-81314803D02*
X109807619Y-81090702D01*
X109807619Y-81090702D02*
X109919670Y-80978652D01*
X109919670Y-80978652D02*
X110031720Y-80922627D01*
X110031720Y-80922627D02*
X110255820Y-80922627D01*
X110255820Y-80922627D02*
X110367871Y-80978652D01*
X110367871Y-80978652D02*
X110479921Y-81090702D01*
X110479921Y-81090702D02*
X110535946Y-81314803D01*
X110535946Y-81314803D02*
X110535946Y-81706979D01*
X110535946Y-81706979D02*
X110479921Y-81931079D01*
X110479921Y-81931079D02*
X110367871Y-82043130D01*
X110367871Y-82043130D02*
X110255820Y-82099155D01*
X110255820Y-82099155D02*
X110031720Y-82099155D01*
X111656449Y-82099155D02*
X110984147Y-82099155D01*
X111320298Y-82099155D02*
X111320298Y-80922627D01*
X111320298Y-80922627D02*
X111208248Y-81090702D01*
X111208248Y-81090702D02*
X111096197Y-81202752D01*
X111096197Y-81202752D02*
X110984147Y-81258778D01*
X112776952Y-82099155D02*
X112104650Y-82099155D01*
X112440801Y-82099155D02*
X112440801Y-80922627D01*
X112440801Y-80922627D02*
X112328751Y-81090702D01*
X112328751Y-81090702D02*
X112216700Y-81202752D01*
X112216700Y-81202752D02*
X112104650Y-81258778D01*
D10*
X170929642Y-84794819D02*
X170596309Y-84318628D01*
X170358214Y-84794819D02*
X170358214Y-83794819D01*
X170358214Y-83794819D02*
X170739166Y-83794819D01*
X170739166Y-83794819D02*
X170834404Y-83842438D01*
X170834404Y-83842438D02*
X170882023Y-83890057D01*
X170882023Y-83890057D02*
X170929642Y-83985295D01*
X170929642Y-83985295D02*
X170929642Y-84128152D01*
X170929642Y-84128152D02*
X170882023Y-84223390D01*
X170882023Y-84223390D02*
X170834404Y-84271009D01*
X170834404Y-84271009D02*
X170739166Y-84318628D01*
X170739166Y-84318628D02*
X170358214Y-84318628D01*
X171310595Y-83890057D02*
X171358214Y-83842438D01*
X171358214Y-83842438D02*
X171453452Y-83794819D01*
X171453452Y-83794819D02*
X171691547Y-83794819D01*
X171691547Y-83794819D02*
X171786785Y-83842438D01*
X171786785Y-83842438D02*
X171834404Y-83890057D01*
X171834404Y-83890057D02*
X171882023Y-83985295D01*
X171882023Y-83985295D02*
X171882023Y-84080533D01*
X171882023Y-84080533D02*
X171834404Y-84223390D01*
X171834404Y-84223390D02*
X171262976Y-84794819D01*
X171262976Y-84794819D02*
X171882023Y-84794819D01*
X172739166Y-84128152D02*
X172739166Y-84794819D01*
X172501071Y-83747200D02*
X172262976Y-84461485D01*
X172262976Y-84461485D02*
X172882023Y-84461485D01*
X153434819Y-82135594D02*
X152434819Y-82135594D01*
X152434819Y-82135594D02*
X152434819Y-81897499D01*
X152434819Y-81897499D02*
X152482438Y-81754642D01*
X152482438Y-81754642D02*
X152577676Y-81659404D01*
X152577676Y-81659404D02*
X152672914Y-81611785D01*
X152672914Y-81611785D02*
X152863390Y-81564166D01*
X152863390Y-81564166D02*
X153006247Y-81564166D01*
X153006247Y-81564166D02*
X153196723Y-81611785D01*
X153196723Y-81611785D02*
X153291961Y-81659404D01*
X153291961Y-81659404D02*
X153387200Y-81754642D01*
X153387200Y-81754642D02*
X153434819Y-81897499D01*
X153434819Y-81897499D02*
X153434819Y-82135594D01*
X152530057Y-81183213D02*
X152482438Y-81135594D01*
X152482438Y-81135594D02*
X152434819Y-81040356D01*
X152434819Y-81040356D02*
X152434819Y-80802261D01*
X152434819Y-80802261D02*
X152482438Y-80707023D01*
X152482438Y-80707023D02*
X152530057Y-80659404D01*
X152530057Y-80659404D02*
X152625295Y-80611785D01*
X152625295Y-80611785D02*
X152720533Y-80611785D01*
X152720533Y-80611785D02*
X152863390Y-80659404D01*
X152863390Y-80659404D02*
X153434819Y-81230832D01*
X153434819Y-81230832D02*
X153434819Y-80611785D01*
D11*
X149387641Y-81996850D02*
X149443667Y-82052875D01*
X149443667Y-82052875D02*
X149499692Y-82220951D01*
X149499692Y-82220951D02*
X149499692Y-82333001D01*
X149499692Y-82333001D02*
X149443667Y-82501076D01*
X149443667Y-82501076D02*
X149331616Y-82613127D01*
X149331616Y-82613127D02*
X149219566Y-82669152D01*
X149219566Y-82669152D02*
X148995465Y-82725177D01*
X148995465Y-82725177D02*
X148827390Y-82725177D01*
X148827390Y-82725177D02*
X148603289Y-82669152D01*
X148603289Y-82669152D02*
X148491239Y-82613127D01*
X148491239Y-82613127D02*
X148379189Y-82501076D01*
X148379189Y-82501076D02*
X148323164Y-82333001D01*
X148323164Y-82333001D02*
X148323164Y-82220951D01*
X148323164Y-82220951D02*
X148379189Y-82052875D01*
X148379189Y-82052875D02*
X148435214Y-81996850D01*
X148323164Y-81604674D02*
X148323164Y-80820322D01*
X148323164Y-80820322D02*
X149499692Y-81324548D01*
X149499692Y-79755844D02*
X149499692Y-80428146D01*
X149499692Y-80091995D02*
X148323164Y-80091995D01*
X148323164Y-80091995D02*
X148491239Y-80204045D01*
X148491239Y-80204045D02*
X148603289Y-80316096D01*
X148603289Y-80316096D02*
X148659315Y-80428146D01*
D10*
X156514819Y-85086666D02*
X156038628Y-85419999D01*
X156514819Y-85658094D02*
X155514819Y-85658094D01*
X155514819Y-85658094D02*
X155514819Y-85277142D01*
X155514819Y-85277142D02*
X155562438Y-85181904D01*
X155562438Y-85181904D02*
X155610057Y-85134285D01*
X155610057Y-85134285D02*
X155705295Y-85086666D01*
X155705295Y-85086666D02*
X155848152Y-85086666D01*
X155848152Y-85086666D02*
X155943390Y-85134285D01*
X155943390Y-85134285D02*
X155991009Y-85181904D01*
X155991009Y-85181904D02*
X156038628Y-85277142D01*
X156038628Y-85277142D02*
X156038628Y-85658094D01*
X156514819Y-84610475D02*
X156514819Y-84419999D01*
X156514819Y-84419999D02*
X156467200Y-84324761D01*
X156467200Y-84324761D02*
X156419580Y-84277142D01*
X156419580Y-84277142D02*
X156276723Y-84181904D01*
X156276723Y-84181904D02*
X156086247Y-84134285D01*
X156086247Y-84134285D02*
X155705295Y-84134285D01*
X155705295Y-84134285D02*
X155610057Y-84181904D01*
X155610057Y-84181904D02*
X155562438Y-84229523D01*
X155562438Y-84229523D02*
X155514819Y-84324761D01*
X155514819Y-84324761D02*
X155514819Y-84515237D01*
X155514819Y-84515237D02*
X155562438Y-84610475D01*
X155562438Y-84610475D02*
X155610057Y-84658094D01*
X155610057Y-84658094D02*
X155705295Y-84705713D01*
X155705295Y-84705713D02*
X155943390Y-84705713D01*
X155943390Y-84705713D02*
X156038628Y-84658094D01*
X156038628Y-84658094D02*
X156086247Y-84610475D01*
X156086247Y-84610475D02*
X156133866Y-84515237D01*
X156133866Y-84515237D02*
X156133866Y-84324761D01*
X156133866Y-84324761D02*
X156086247Y-84229523D01*
X156086247Y-84229523D02*
X156038628Y-84181904D01*
X156038628Y-84181904D02*
X155943390Y-84134285D01*
D11*
X163686850Y-79292358D02*
X163742875Y-79236333D01*
X163742875Y-79236333D02*
X163910951Y-79180307D01*
X163910951Y-79180307D02*
X164023001Y-79180307D01*
X164023001Y-79180307D02*
X164191076Y-79236333D01*
X164191076Y-79236333D02*
X164303127Y-79348383D01*
X164303127Y-79348383D02*
X164359152Y-79460433D01*
X164359152Y-79460433D02*
X164415177Y-79684534D01*
X164415177Y-79684534D02*
X164415177Y-79852609D01*
X164415177Y-79852609D02*
X164359152Y-80076710D01*
X164359152Y-80076710D02*
X164303127Y-80188760D01*
X164303127Y-80188760D02*
X164191076Y-80300810D01*
X164191076Y-80300810D02*
X164023001Y-80356835D01*
X164023001Y-80356835D02*
X163910951Y-80356835D01*
X163910951Y-80356835D02*
X163742875Y-80300810D01*
X163742875Y-80300810D02*
X163686850Y-80244785D01*
X162678398Y-80356835D02*
X162902498Y-80356835D01*
X162902498Y-80356835D02*
X163014548Y-80300810D01*
X163014548Y-80300810D02*
X163070574Y-80244785D01*
X163070574Y-80244785D02*
X163182624Y-80076710D01*
X163182624Y-80076710D02*
X163238649Y-79852609D01*
X163238649Y-79852609D02*
X163238649Y-79404408D01*
X163238649Y-79404408D02*
X163182624Y-79292358D01*
X163182624Y-79292358D02*
X163126599Y-79236333D01*
X163126599Y-79236333D02*
X163014548Y-79180307D01*
X163014548Y-79180307D02*
X162790448Y-79180307D01*
X162790448Y-79180307D02*
X162678398Y-79236333D01*
X162678398Y-79236333D02*
X162622372Y-79292358D01*
X162622372Y-79292358D02*
X162566347Y-79404408D01*
X162566347Y-79404408D02*
X162566347Y-79684534D01*
X162566347Y-79684534D02*
X162622372Y-79796584D01*
X162622372Y-79796584D02*
X162678398Y-79852609D01*
X162678398Y-79852609D02*
X162790448Y-79908634D01*
X162790448Y-79908634D02*
X163014548Y-79908634D01*
X163014548Y-79908634D02*
X163126599Y-79852609D01*
X163126599Y-79852609D02*
X163182624Y-79796584D01*
X163182624Y-79796584D02*
X163238649Y-79684534D01*
X162174171Y-80356835D02*
X161445844Y-80356835D01*
X161445844Y-80356835D02*
X161838020Y-79908634D01*
X161838020Y-79908634D02*
X161669945Y-79908634D01*
X161669945Y-79908634D02*
X161557895Y-79852609D01*
X161557895Y-79852609D02*
X161501869Y-79796584D01*
X161501869Y-79796584D02*
X161445844Y-79684534D01*
X161445844Y-79684534D02*
X161445844Y-79404408D01*
X161445844Y-79404408D02*
X161501869Y-79292358D01*
X161501869Y-79292358D02*
X161557895Y-79236333D01*
X161557895Y-79236333D02*
X161669945Y-79180307D01*
X161669945Y-79180307D02*
X162006096Y-79180307D01*
X162006096Y-79180307D02*
X162118146Y-79236333D01*
X162118146Y-79236333D02*
X162174171Y-79292358D01*
D10*
X149567319Y-92193333D02*
X150281604Y-92193333D01*
X150281604Y-92193333D02*
X150424461Y-92240952D01*
X150424461Y-92240952D02*
X150519700Y-92336190D01*
X150519700Y-92336190D02*
X150567319Y-92479047D01*
X150567319Y-92479047D02*
X150567319Y-92574285D01*
X149567319Y-91812380D02*
X149567319Y-91193333D01*
X149567319Y-91193333D02*
X149948271Y-91526666D01*
X149948271Y-91526666D02*
X149948271Y-91383809D01*
X149948271Y-91383809D02*
X149995890Y-91288571D01*
X149995890Y-91288571D02*
X150043509Y-91240952D01*
X150043509Y-91240952D02*
X150138747Y-91193333D01*
X150138747Y-91193333D02*
X150376842Y-91193333D01*
X150376842Y-91193333D02*
X150472080Y-91240952D01*
X150472080Y-91240952D02*
X150519700Y-91288571D01*
X150519700Y-91288571D02*
X150567319Y-91383809D01*
X150567319Y-91383809D02*
X150567319Y-91669523D01*
X150567319Y-91669523D02*
X150519700Y-91764761D01*
X150519700Y-91764761D02*
X150472080Y-91812380D01*
X172884819Y-63847857D02*
X172408628Y-64181190D01*
X172884819Y-64419285D02*
X171884819Y-64419285D01*
X171884819Y-64419285D02*
X171884819Y-64038333D01*
X171884819Y-64038333D02*
X171932438Y-63943095D01*
X171932438Y-63943095D02*
X171980057Y-63895476D01*
X171980057Y-63895476D02*
X172075295Y-63847857D01*
X172075295Y-63847857D02*
X172218152Y-63847857D01*
X172218152Y-63847857D02*
X172313390Y-63895476D01*
X172313390Y-63895476D02*
X172361009Y-63943095D01*
X172361009Y-63943095D02*
X172408628Y-64038333D01*
X172408628Y-64038333D02*
X172408628Y-64419285D01*
X171980057Y-63466904D02*
X171932438Y-63419285D01*
X171932438Y-63419285D02*
X171884819Y-63324047D01*
X171884819Y-63324047D02*
X171884819Y-63085952D01*
X171884819Y-63085952D02*
X171932438Y-62990714D01*
X171932438Y-62990714D02*
X171980057Y-62943095D01*
X171980057Y-62943095D02*
X172075295Y-62895476D01*
X172075295Y-62895476D02*
X172170533Y-62895476D01*
X172170533Y-62895476D02*
X172313390Y-62943095D01*
X172313390Y-62943095D02*
X172884819Y-63514523D01*
X172884819Y-63514523D02*
X172884819Y-62895476D01*
X172884819Y-61943095D02*
X172884819Y-62514523D01*
X172884819Y-62228809D02*
X171884819Y-62228809D01*
X171884819Y-62228809D02*
X172027676Y-62324047D01*
X172027676Y-62324047D02*
X172122914Y-62419285D01*
X172122914Y-62419285D02*
X172170533Y-62514523D01*
X128167142Y-63414819D02*
X127833809Y-62938628D01*
X127595714Y-63414819D02*
X127595714Y-62414819D01*
X127595714Y-62414819D02*
X127976666Y-62414819D01*
X127976666Y-62414819D02*
X128071904Y-62462438D01*
X128071904Y-62462438D02*
X128119523Y-62510057D01*
X128119523Y-62510057D02*
X128167142Y-62605295D01*
X128167142Y-62605295D02*
X128167142Y-62748152D01*
X128167142Y-62748152D02*
X128119523Y-62843390D01*
X128119523Y-62843390D02*
X128071904Y-62891009D01*
X128071904Y-62891009D02*
X127976666Y-62938628D01*
X127976666Y-62938628D02*
X127595714Y-62938628D01*
X129119523Y-63414819D02*
X128548095Y-63414819D01*
X128833809Y-63414819D02*
X128833809Y-62414819D01*
X128833809Y-62414819D02*
X128738571Y-62557676D01*
X128738571Y-62557676D02*
X128643333Y-62652914D01*
X128643333Y-62652914D02*
X128548095Y-62700533D01*
X129452857Y-62414819D02*
X130071904Y-62414819D01*
X130071904Y-62414819D02*
X129738571Y-62795771D01*
X129738571Y-62795771D02*
X129881428Y-62795771D01*
X129881428Y-62795771D02*
X129976666Y-62843390D01*
X129976666Y-62843390D02*
X130024285Y-62891009D01*
X130024285Y-62891009D02*
X130071904Y-62986247D01*
X130071904Y-62986247D02*
X130071904Y-63224342D01*
X130071904Y-63224342D02*
X130024285Y-63319580D01*
X130024285Y-63319580D02*
X129976666Y-63367200D01*
X129976666Y-63367200D02*
X129881428Y-63414819D01*
X129881428Y-63414819D02*
X129595714Y-63414819D01*
X129595714Y-63414819D02*
X129500476Y-63367200D01*
X129500476Y-63367200D02*
X129452857Y-63319580D01*
D11*
X138006850Y-76952358D02*
X138062875Y-76896333D01*
X138062875Y-76896333D02*
X138230951Y-76840307D01*
X138230951Y-76840307D02*
X138343001Y-76840307D01*
X138343001Y-76840307D02*
X138511076Y-76896333D01*
X138511076Y-76896333D02*
X138623127Y-77008383D01*
X138623127Y-77008383D02*
X138679152Y-77120433D01*
X138679152Y-77120433D02*
X138735177Y-77344534D01*
X138735177Y-77344534D02*
X138735177Y-77512609D01*
X138735177Y-77512609D02*
X138679152Y-77736710D01*
X138679152Y-77736710D02*
X138623127Y-77848760D01*
X138623127Y-77848760D02*
X138511076Y-77960810D01*
X138511076Y-77960810D02*
X138343001Y-78016835D01*
X138343001Y-78016835D02*
X138230951Y-78016835D01*
X138230951Y-78016835D02*
X138062875Y-77960810D01*
X138062875Y-77960810D02*
X138006850Y-77904785D01*
X136886347Y-76840307D02*
X137558649Y-76840307D01*
X137222498Y-76840307D02*
X137222498Y-78016835D01*
X137222498Y-78016835D02*
X137334548Y-77848760D01*
X137334548Y-77848760D02*
X137446599Y-77736710D01*
X137446599Y-77736710D02*
X137558649Y-77680685D01*
X136158020Y-78016835D02*
X136045970Y-78016835D01*
X136045970Y-78016835D02*
X135933920Y-77960810D01*
X135933920Y-77960810D02*
X135877895Y-77904785D01*
X135877895Y-77904785D02*
X135821869Y-77792735D01*
X135821869Y-77792735D02*
X135765844Y-77568634D01*
X135765844Y-77568634D02*
X135765844Y-77288509D01*
X135765844Y-77288509D02*
X135821869Y-77064408D01*
X135821869Y-77064408D02*
X135877895Y-76952358D01*
X135877895Y-76952358D02*
X135933920Y-76896333D01*
X135933920Y-76896333D02*
X136045970Y-76840307D01*
X136045970Y-76840307D02*
X136158020Y-76840307D01*
X136158020Y-76840307D02*
X136270071Y-76896333D01*
X136270071Y-76896333D02*
X136326096Y-76952358D01*
X136326096Y-76952358D02*
X136382121Y-77064408D01*
X136382121Y-77064408D02*
X136438146Y-77288509D01*
X136438146Y-77288509D02*
X136438146Y-77568634D01*
X136438146Y-77568634D02*
X136382121Y-77792735D01*
X136382121Y-77792735D02*
X136326096Y-77904785D01*
X136326096Y-77904785D02*
X136270071Y-77960810D01*
X136270071Y-77960810D02*
X136158020Y-78016835D01*
X107066850Y-51522358D02*
X107122875Y-51466333D01*
X107122875Y-51466333D02*
X107290951Y-51410307D01*
X107290951Y-51410307D02*
X107403001Y-51410307D01*
X107403001Y-51410307D02*
X107571076Y-51466333D01*
X107571076Y-51466333D02*
X107683127Y-51578383D01*
X107683127Y-51578383D02*
X107739152Y-51690433D01*
X107739152Y-51690433D02*
X107795177Y-51914534D01*
X107795177Y-51914534D02*
X107795177Y-52082609D01*
X107795177Y-52082609D02*
X107739152Y-52306710D01*
X107739152Y-52306710D02*
X107683127Y-52418760D01*
X107683127Y-52418760D02*
X107571076Y-52530810D01*
X107571076Y-52530810D02*
X107403001Y-52586835D01*
X107403001Y-52586835D02*
X107290951Y-52586835D01*
X107290951Y-52586835D02*
X107122875Y-52530810D01*
X107122875Y-52530810D02*
X107066850Y-52474785D01*
X106674674Y-52586835D02*
X105946347Y-52586835D01*
X105946347Y-52586835D02*
X106338523Y-52138634D01*
X106338523Y-52138634D02*
X106170448Y-52138634D01*
X106170448Y-52138634D02*
X106058398Y-52082609D01*
X106058398Y-52082609D02*
X106002372Y-52026584D01*
X106002372Y-52026584D02*
X105946347Y-51914534D01*
X105946347Y-51914534D02*
X105946347Y-51634408D01*
X105946347Y-51634408D02*
X106002372Y-51522358D01*
X106002372Y-51522358D02*
X106058398Y-51466333D01*
X106058398Y-51466333D02*
X106170448Y-51410307D01*
X106170448Y-51410307D02*
X106506599Y-51410307D01*
X106506599Y-51410307D02*
X106618649Y-51466333D01*
X106618649Y-51466333D02*
X106674674Y-51522358D01*
X104825844Y-51410307D02*
X105498146Y-51410307D01*
X105161995Y-51410307D02*
X105161995Y-52586835D01*
X105161995Y-52586835D02*
X105274045Y-52418760D01*
X105274045Y-52418760D02*
X105386096Y-52306710D01*
X105386096Y-52306710D02*
X105498146Y-52250685D01*
X167286850Y-71842358D02*
X167342875Y-71786333D01*
X167342875Y-71786333D02*
X167510951Y-71730307D01*
X167510951Y-71730307D02*
X167623001Y-71730307D01*
X167623001Y-71730307D02*
X167791076Y-71786333D01*
X167791076Y-71786333D02*
X167903127Y-71898383D01*
X167903127Y-71898383D02*
X167959152Y-72010433D01*
X167959152Y-72010433D02*
X168015177Y-72234534D01*
X168015177Y-72234534D02*
X168015177Y-72402609D01*
X168015177Y-72402609D02*
X167959152Y-72626710D01*
X167959152Y-72626710D02*
X167903127Y-72738760D01*
X167903127Y-72738760D02*
X167791076Y-72850810D01*
X167791076Y-72850810D02*
X167623001Y-72906835D01*
X167623001Y-72906835D02*
X167510951Y-72906835D01*
X167510951Y-72906835D02*
X167342875Y-72850810D01*
X167342875Y-72850810D02*
X167286850Y-72794785D01*
X166222372Y-72906835D02*
X166782624Y-72906835D01*
X166782624Y-72906835D02*
X166838649Y-72346584D01*
X166838649Y-72346584D02*
X166782624Y-72402609D01*
X166782624Y-72402609D02*
X166670574Y-72458634D01*
X166670574Y-72458634D02*
X166390448Y-72458634D01*
X166390448Y-72458634D02*
X166278398Y-72402609D01*
X166278398Y-72402609D02*
X166222372Y-72346584D01*
X166222372Y-72346584D02*
X166166347Y-72234534D01*
X166166347Y-72234534D02*
X166166347Y-71954408D01*
X166166347Y-71954408D02*
X166222372Y-71842358D01*
X166222372Y-71842358D02*
X166278398Y-71786333D01*
X166278398Y-71786333D02*
X166390448Y-71730307D01*
X166390448Y-71730307D02*
X166670574Y-71730307D01*
X166670574Y-71730307D02*
X166782624Y-71786333D01*
X166782624Y-71786333D02*
X166838649Y-71842358D01*
X165157895Y-72906835D02*
X165381995Y-72906835D01*
X165381995Y-72906835D02*
X165494045Y-72850810D01*
X165494045Y-72850810D02*
X165550071Y-72794785D01*
X165550071Y-72794785D02*
X165662121Y-72626710D01*
X165662121Y-72626710D02*
X165718146Y-72402609D01*
X165718146Y-72402609D02*
X165718146Y-71954408D01*
X165718146Y-71954408D02*
X165662121Y-71842358D01*
X165662121Y-71842358D02*
X165606096Y-71786333D01*
X165606096Y-71786333D02*
X165494045Y-71730307D01*
X165494045Y-71730307D02*
X165269945Y-71730307D01*
X165269945Y-71730307D02*
X165157895Y-71786333D01*
X165157895Y-71786333D02*
X165101869Y-71842358D01*
X165101869Y-71842358D02*
X165045844Y-71954408D01*
X165045844Y-71954408D02*
X165045844Y-72234534D01*
X165045844Y-72234534D02*
X165101869Y-72346584D01*
X165101869Y-72346584D02*
X165157895Y-72402609D01*
X165157895Y-72402609D02*
X165269945Y-72458634D01*
X165269945Y-72458634D02*
X165494045Y-72458634D01*
X165494045Y-72458634D02*
X165606096Y-72402609D01*
X165606096Y-72402609D02*
X165662121Y-72346584D01*
X165662121Y-72346584D02*
X165718146Y-72234534D01*
X138676850Y-52162358D02*
X138732875Y-52106333D01*
X138732875Y-52106333D02*
X138900951Y-52050307D01*
X138900951Y-52050307D02*
X139013001Y-52050307D01*
X139013001Y-52050307D02*
X139181076Y-52106333D01*
X139181076Y-52106333D02*
X139293127Y-52218383D01*
X139293127Y-52218383D02*
X139349152Y-52330433D01*
X139349152Y-52330433D02*
X139405177Y-52554534D01*
X139405177Y-52554534D02*
X139405177Y-52722609D01*
X139405177Y-52722609D02*
X139349152Y-52946710D01*
X139349152Y-52946710D02*
X139293127Y-53058760D01*
X139293127Y-53058760D02*
X139181076Y-53170810D01*
X139181076Y-53170810D02*
X139013001Y-53226835D01*
X139013001Y-53226835D02*
X138900951Y-53226835D01*
X138900951Y-53226835D02*
X138732875Y-53170810D01*
X138732875Y-53170810D02*
X138676850Y-53114785D01*
X137612372Y-53226835D02*
X138172624Y-53226835D01*
X138172624Y-53226835D02*
X138228649Y-52666584D01*
X138228649Y-52666584D02*
X138172624Y-52722609D01*
X138172624Y-52722609D02*
X138060574Y-52778634D01*
X138060574Y-52778634D02*
X137780448Y-52778634D01*
X137780448Y-52778634D02*
X137668398Y-52722609D01*
X137668398Y-52722609D02*
X137612372Y-52666584D01*
X137612372Y-52666584D02*
X137556347Y-52554534D01*
X137556347Y-52554534D02*
X137556347Y-52274408D01*
X137556347Y-52274408D02*
X137612372Y-52162358D01*
X137612372Y-52162358D02*
X137668398Y-52106333D01*
X137668398Y-52106333D02*
X137780448Y-52050307D01*
X137780448Y-52050307D02*
X138060574Y-52050307D01*
X138060574Y-52050307D02*
X138172624Y-52106333D01*
X138172624Y-52106333D02*
X138228649Y-52162358D01*
X136435844Y-52050307D02*
X137108146Y-52050307D01*
X136771995Y-52050307D02*
X136771995Y-53226835D01*
X136771995Y-53226835D02*
X136884045Y-53058760D01*
X136884045Y-53058760D02*
X136996096Y-52946710D01*
X136996096Y-52946710D02*
X137108146Y-52890685D01*
D10*
X132104819Y-75618094D02*
X131104819Y-75618094D01*
X131104819Y-75618094D02*
X131104819Y-75379999D01*
X131104819Y-75379999D02*
X131152438Y-75237142D01*
X131152438Y-75237142D02*
X131247676Y-75141904D01*
X131247676Y-75141904D02*
X131342914Y-75094285D01*
X131342914Y-75094285D02*
X131533390Y-75046666D01*
X131533390Y-75046666D02*
X131676247Y-75046666D01*
X131676247Y-75046666D02*
X131866723Y-75094285D01*
X131866723Y-75094285D02*
X131961961Y-75141904D01*
X131961961Y-75141904D02*
X132057200Y-75237142D01*
X132057200Y-75237142D02*
X132104819Y-75379999D01*
X132104819Y-75379999D02*
X132104819Y-75618094D01*
X131104819Y-74713332D02*
X131104819Y-74094285D01*
X131104819Y-74094285D02*
X131485771Y-74427618D01*
X131485771Y-74427618D02*
X131485771Y-74284761D01*
X131485771Y-74284761D02*
X131533390Y-74189523D01*
X131533390Y-74189523D02*
X131581009Y-74141904D01*
X131581009Y-74141904D02*
X131676247Y-74094285D01*
X131676247Y-74094285D02*
X131914342Y-74094285D01*
X131914342Y-74094285D02*
X132009580Y-74141904D01*
X132009580Y-74141904D02*
X132057200Y-74189523D01*
X132057200Y-74189523D02*
X132104819Y-74284761D01*
X132104819Y-74284761D02*
X132104819Y-74570475D01*
X132104819Y-74570475D02*
X132057200Y-74665713D01*
X132057200Y-74665713D02*
X132009580Y-74713332D01*
D11*
X142089705Y-82943528D02*
X142033680Y-83055578D01*
X142033680Y-83055578D02*
X141921630Y-83167628D01*
X141921630Y-83167628D02*
X141753554Y-83335704D01*
X141753554Y-83335704D02*
X141697529Y-83447754D01*
X141697529Y-83447754D02*
X141697529Y-83559804D01*
X141977655Y-83503779D02*
X141921630Y-83615830D01*
X141921630Y-83615830D02*
X141809579Y-83727880D01*
X141809579Y-83727880D02*
X141585479Y-83783905D01*
X141585479Y-83783905D02*
X141193303Y-83783905D01*
X141193303Y-83783905D02*
X140969202Y-83727880D01*
X140969202Y-83727880D02*
X140857152Y-83615830D01*
X140857152Y-83615830D02*
X140801127Y-83503779D01*
X140801127Y-83503779D02*
X140801127Y-83279679D01*
X140801127Y-83279679D02*
X140857152Y-83167628D01*
X140857152Y-83167628D02*
X140969202Y-83055578D01*
X140969202Y-83055578D02*
X141193303Y-82999553D01*
X141193303Y-82999553D02*
X141585479Y-82999553D01*
X141585479Y-82999553D02*
X141809579Y-83055578D01*
X141809579Y-83055578D02*
X141921630Y-83167628D01*
X141921630Y-83167628D02*
X141977655Y-83279679D01*
X141977655Y-83279679D02*
X141977655Y-83503779D01*
X140857152Y-81879050D02*
X140801127Y-81991101D01*
X140801127Y-81991101D02*
X140801127Y-82159176D01*
X140801127Y-82159176D02*
X140857152Y-82327251D01*
X140857152Y-82327251D02*
X140969202Y-82439302D01*
X140969202Y-82439302D02*
X141081252Y-82495327D01*
X141081252Y-82495327D02*
X141305353Y-82551352D01*
X141305353Y-82551352D02*
X141473428Y-82551352D01*
X141473428Y-82551352D02*
X141697529Y-82495327D01*
X141697529Y-82495327D02*
X141809579Y-82439302D01*
X141809579Y-82439302D02*
X141921630Y-82327251D01*
X141921630Y-82327251D02*
X141977655Y-82159176D01*
X141977655Y-82159176D02*
X141977655Y-82047126D01*
X141977655Y-82047126D02*
X141921630Y-81879050D01*
X141921630Y-81879050D02*
X141865604Y-81823025D01*
X141865604Y-81823025D02*
X141473428Y-81823025D01*
X141473428Y-81823025D02*
X141473428Y-82047126D01*
X141977655Y-80702522D02*
X141977655Y-81374824D01*
X141977655Y-81038673D02*
X140801127Y-81038673D01*
X140801127Y-81038673D02*
X140969202Y-81150723D01*
X140969202Y-81150723D02*
X141081252Y-81262774D01*
X141081252Y-81262774D02*
X141137278Y-81374824D01*
D10*
X179454819Y-82267857D02*
X178978628Y-82601190D01*
X179454819Y-82839285D02*
X178454819Y-82839285D01*
X178454819Y-82839285D02*
X178454819Y-82458333D01*
X178454819Y-82458333D02*
X178502438Y-82363095D01*
X178502438Y-82363095D02*
X178550057Y-82315476D01*
X178550057Y-82315476D02*
X178645295Y-82267857D01*
X178645295Y-82267857D02*
X178788152Y-82267857D01*
X178788152Y-82267857D02*
X178883390Y-82315476D01*
X178883390Y-82315476D02*
X178931009Y-82363095D01*
X178931009Y-82363095D02*
X178978628Y-82458333D01*
X178978628Y-82458333D02*
X178978628Y-82839285D01*
X178550057Y-81886904D02*
X178502438Y-81839285D01*
X178502438Y-81839285D02*
X178454819Y-81744047D01*
X178454819Y-81744047D02*
X178454819Y-81505952D01*
X178454819Y-81505952D02*
X178502438Y-81410714D01*
X178502438Y-81410714D02*
X178550057Y-81363095D01*
X178550057Y-81363095D02*
X178645295Y-81315476D01*
X178645295Y-81315476D02*
X178740533Y-81315476D01*
X178740533Y-81315476D02*
X178883390Y-81363095D01*
X178883390Y-81363095D02*
X179454819Y-81934523D01*
X179454819Y-81934523D02*
X179454819Y-81315476D01*
X178883390Y-80744047D02*
X178835771Y-80839285D01*
X178835771Y-80839285D02*
X178788152Y-80886904D01*
X178788152Y-80886904D02*
X178692914Y-80934523D01*
X178692914Y-80934523D02*
X178645295Y-80934523D01*
X178645295Y-80934523D02*
X178550057Y-80886904D01*
X178550057Y-80886904D02*
X178502438Y-80839285D01*
X178502438Y-80839285D02*
X178454819Y-80744047D01*
X178454819Y-80744047D02*
X178454819Y-80553571D01*
X178454819Y-80553571D02*
X178502438Y-80458333D01*
X178502438Y-80458333D02*
X178550057Y-80410714D01*
X178550057Y-80410714D02*
X178645295Y-80363095D01*
X178645295Y-80363095D02*
X178692914Y-80363095D01*
X178692914Y-80363095D02*
X178788152Y-80410714D01*
X178788152Y-80410714D02*
X178835771Y-80458333D01*
X178835771Y-80458333D02*
X178883390Y-80553571D01*
X178883390Y-80553571D02*
X178883390Y-80744047D01*
X178883390Y-80744047D02*
X178931009Y-80839285D01*
X178931009Y-80839285D02*
X178978628Y-80886904D01*
X178978628Y-80886904D02*
X179073866Y-80934523D01*
X179073866Y-80934523D02*
X179264342Y-80934523D01*
X179264342Y-80934523D02*
X179359580Y-80886904D01*
X179359580Y-80886904D02*
X179407200Y-80839285D01*
X179407200Y-80839285D02*
X179454819Y-80744047D01*
X179454819Y-80744047D02*
X179454819Y-80553571D01*
X179454819Y-80553571D02*
X179407200Y-80458333D01*
X179407200Y-80458333D02*
X179359580Y-80410714D01*
X179359580Y-80410714D02*
X179264342Y-80363095D01*
X179264342Y-80363095D02*
X179073866Y-80363095D01*
X179073866Y-80363095D02*
X178978628Y-80410714D01*
X178978628Y-80410714D02*
X178931009Y-80458333D01*
X178931009Y-80458333D02*
X178883390Y-80553571D01*
X128167142Y-61814819D02*
X127833809Y-61338628D01*
X127595714Y-61814819D02*
X127595714Y-60814819D01*
X127595714Y-60814819D02*
X127976666Y-60814819D01*
X127976666Y-60814819D02*
X128071904Y-60862438D01*
X128071904Y-60862438D02*
X128119523Y-60910057D01*
X128119523Y-60910057D02*
X128167142Y-61005295D01*
X128167142Y-61005295D02*
X128167142Y-61148152D01*
X128167142Y-61148152D02*
X128119523Y-61243390D01*
X128119523Y-61243390D02*
X128071904Y-61291009D01*
X128071904Y-61291009D02*
X127976666Y-61338628D01*
X127976666Y-61338628D02*
X127595714Y-61338628D01*
X129119523Y-61814819D02*
X128548095Y-61814819D01*
X128833809Y-61814819D02*
X128833809Y-60814819D01*
X128833809Y-60814819D02*
X128738571Y-60957676D01*
X128738571Y-60957676D02*
X128643333Y-61052914D01*
X128643333Y-61052914D02*
X128548095Y-61100533D01*
X129500476Y-60910057D02*
X129548095Y-60862438D01*
X129548095Y-60862438D02*
X129643333Y-60814819D01*
X129643333Y-60814819D02*
X129881428Y-60814819D01*
X129881428Y-60814819D02*
X129976666Y-60862438D01*
X129976666Y-60862438D02*
X130024285Y-60910057D01*
X130024285Y-60910057D02*
X130071904Y-61005295D01*
X130071904Y-61005295D02*
X130071904Y-61100533D01*
X130071904Y-61100533D02*
X130024285Y-61243390D01*
X130024285Y-61243390D02*
X129452857Y-61814819D01*
X129452857Y-61814819D02*
X130071904Y-61814819D01*
X172813333Y-48604819D02*
X172337143Y-48604819D01*
X172337143Y-48604819D02*
X172337143Y-47604819D01*
X173670476Y-48604819D02*
X173099048Y-48604819D01*
X173384762Y-48604819D02*
X173384762Y-47604819D01*
X173384762Y-47604819D02*
X173289524Y-47747676D01*
X173289524Y-47747676D02*
X173194286Y-47842914D01*
X173194286Y-47842914D02*
X173099048Y-47890533D01*
D11*
X155253149Y-48577641D02*
X155197124Y-48633667D01*
X155197124Y-48633667D02*
X155029048Y-48689692D01*
X155029048Y-48689692D02*
X154916998Y-48689692D01*
X154916998Y-48689692D02*
X154748923Y-48633667D01*
X154748923Y-48633667D02*
X154636872Y-48521616D01*
X154636872Y-48521616D02*
X154580847Y-48409566D01*
X154580847Y-48409566D02*
X154524822Y-48185465D01*
X154524822Y-48185465D02*
X154524822Y-48017390D01*
X154524822Y-48017390D02*
X154580847Y-47793289D01*
X154580847Y-47793289D02*
X154636872Y-47681239D01*
X154636872Y-47681239D02*
X154748923Y-47569189D01*
X154748923Y-47569189D02*
X154916998Y-47513164D01*
X154916998Y-47513164D02*
X155029048Y-47513164D01*
X155029048Y-47513164D02*
X155197124Y-47569189D01*
X155197124Y-47569189D02*
X155253149Y-47625214D01*
X156317627Y-47513164D02*
X155757375Y-47513164D01*
X155757375Y-47513164D02*
X155701350Y-48073415D01*
X155701350Y-48073415D02*
X155757375Y-48017390D01*
X155757375Y-48017390D02*
X155869426Y-47961365D01*
X155869426Y-47961365D02*
X156149551Y-47961365D01*
X156149551Y-47961365D02*
X156261602Y-48017390D01*
X156261602Y-48017390D02*
X156317627Y-48073415D01*
X156317627Y-48073415D02*
X156373652Y-48185465D01*
X156373652Y-48185465D02*
X156373652Y-48465591D01*
X156373652Y-48465591D02*
X156317627Y-48577641D01*
X156317627Y-48577641D02*
X156261602Y-48633667D01*
X156261602Y-48633667D02*
X156149551Y-48689692D01*
X156149551Y-48689692D02*
X155869426Y-48689692D01*
X155869426Y-48689692D02*
X155757375Y-48633667D01*
X155757375Y-48633667D02*
X155701350Y-48577641D01*
X156765828Y-47513164D02*
X157494155Y-47513164D01*
X157494155Y-47513164D02*
X157101979Y-47961365D01*
X157101979Y-47961365D02*
X157270054Y-47961365D01*
X157270054Y-47961365D02*
X157382105Y-48017390D01*
X157382105Y-48017390D02*
X157438130Y-48073415D01*
X157438130Y-48073415D02*
X157494155Y-48185465D01*
X157494155Y-48185465D02*
X157494155Y-48465591D01*
X157494155Y-48465591D02*
X157438130Y-48577641D01*
X157438130Y-48577641D02*
X157382105Y-48633667D01*
X157382105Y-48633667D02*
X157270054Y-48689692D01*
X157270054Y-48689692D02*
X156933903Y-48689692D01*
X156933903Y-48689692D02*
X156821853Y-48633667D01*
X156821853Y-48633667D02*
X156765828Y-48577641D01*
X110711971Y-75981205D02*
X110599921Y-75925180D01*
X110599921Y-75925180D02*
X110487871Y-75813130D01*
X110487871Y-75813130D02*
X110319795Y-75645054D01*
X110319795Y-75645054D02*
X110207745Y-75589029D01*
X110207745Y-75589029D02*
X110095695Y-75589029D01*
X110151720Y-75869155D02*
X110039670Y-75813130D01*
X110039670Y-75813130D02*
X109927619Y-75701079D01*
X109927619Y-75701079D02*
X109871594Y-75476979D01*
X109871594Y-75476979D02*
X109871594Y-75084803D01*
X109871594Y-75084803D02*
X109927619Y-74860702D01*
X109927619Y-74860702D02*
X110039670Y-74748652D01*
X110039670Y-74748652D02*
X110151720Y-74692627D01*
X110151720Y-74692627D02*
X110375820Y-74692627D01*
X110375820Y-74692627D02*
X110487871Y-74748652D01*
X110487871Y-74748652D02*
X110599921Y-74860702D01*
X110599921Y-74860702D02*
X110655946Y-75084803D01*
X110655946Y-75084803D02*
X110655946Y-75476979D01*
X110655946Y-75476979D02*
X110599921Y-75701079D01*
X110599921Y-75701079D02*
X110487871Y-75813130D01*
X110487871Y-75813130D02*
X110375820Y-75869155D01*
X110375820Y-75869155D02*
X110151720Y-75869155D01*
X111776449Y-75869155D02*
X111104147Y-75869155D01*
X111440298Y-75869155D02*
X111440298Y-74692627D01*
X111440298Y-74692627D02*
X111328248Y-74860702D01*
X111328248Y-74860702D02*
X111216197Y-74972752D01*
X111216197Y-74972752D02*
X111104147Y-75028778D01*
X112784902Y-75084803D02*
X112784902Y-75869155D01*
X112504776Y-74636602D02*
X112224650Y-75476979D01*
X112224650Y-75476979D02*
X112952977Y-75476979D01*
D10*
X167966667Y-85437200D02*
X168109524Y-85484819D01*
X168109524Y-85484819D02*
X168347619Y-85484819D01*
X168347619Y-85484819D02*
X168442857Y-85437200D01*
X168442857Y-85437200D02*
X168490476Y-85389580D01*
X168490476Y-85389580D02*
X168538095Y-85294342D01*
X168538095Y-85294342D02*
X168538095Y-85199104D01*
X168538095Y-85199104D02*
X168490476Y-85103866D01*
X168490476Y-85103866D02*
X168442857Y-85056247D01*
X168442857Y-85056247D02*
X168347619Y-85008628D01*
X168347619Y-85008628D02*
X168157143Y-84961009D01*
X168157143Y-84961009D02*
X168061905Y-84913390D01*
X168061905Y-84913390D02*
X168014286Y-84865771D01*
X168014286Y-84865771D02*
X167966667Y-84770533D01*
X167966667Y-84770533D02*
X167966667Y-84675295D01*
X167966667Y-84675295D02*
X168014286Y-84580057D01*
X168014286Y-84580057D02*
X168061905Y-84532438D01*
X168061905Y-84532438D02*
X168157143Y-84484819D01*
X168157143Y-84484819D02*
X168395238Y-84484819D01*
X168395238Y-84484819D02*
X168538095Y-84532438D01*
X168871429Y-84484819D02*
X169109524Y-85484819D01*
X169109524Y-85484819D02*
X169300000Y-84770533D01*
X169300000Y-84770533D02*
X169490476Y-85484819D01*
X169490476Y-85484819D02*
X169728572Y-84484819D01*
X170061905Y-84580057D02*
X170109524Y-84532438D01*
X170109524Y-84532438D02*
X170204762Y-84484819D01*
X170204762Y-84484819D02*
X170442857Y-84484819D01*
X170442857Y-84484819D02*
X170538095Y-84532438D01*
X170538095Y-84532438D02*
X170585714Y-84580057D01*
X170585714Y-84580057D02*
X170633333Y-84675295D01*
X170633333Y-84675295D02*
X170633333Y-84770533D01*
X170633333Y-84770533D02*
X170585714Y-84913390D01*
X170585714Y-84913390D02*
X170014286Y-85484819D01*
X170014286Y-85484819D02*
X170633333Y-85484819D01*
D11*
X117676850Y-68322358D02*
X117732875Y-68266333D01*
X117732875Y-68266333D02*
X117900951Y-68210307D01*
X117900951Y-68210307D02*
X118013001Y-68210307D01*
X118013001Y-68210307D02*
X118181076Y-68266333D01*
X118181076Y-68266333D02*
X118293127Y-68378383D01*
X118293127Y-68378383D02*
X118349152Y-68490433D01*
X118349152Y-68490433D02*
X118405177Y-68714534D01*
X118405177Y-68714534D02*
X118405177Y-68882609D01*
X118405177Y-68882609D02*
X118349152Y-69106710D01*
X118349152Y-69106710D02*
X118293127Y-69218760D01*
X118293127Y-69218760D02*
X118181076Y-69330810D01*
X118181076Y-69330810D02*
X118013001Y-69386835D01*
X118013001Y-69386835D02*
X117900951Y-69386835D01*
X117900951Y-69386835D02*
X117732875Y-69330810D01*
X117732875Y-69330810D02*
X117676850Y-69274785D01*
X116668398Y-68994659D02*
X116668398Y-68210307D01*
X116948523Y-69442861D02*
X117228649Y-68602483D01*
X117228649Y-68602483D02*
X116500322Y-68602483D01*
X115435844Y-68210307D02*
X116108146Y-68210307D01*
X115771995Y-68210307D02*
X115771995Y-69386835D01*
X115771995Y-69386835D02*
X115884045Y-69218760D01*
X115884045Y-69218760D02*
X115996096Y-69106710D01*
X115996096Y-69106710D02*
X116108146Y-69050685D01*
D13*
X121735645Y-69109950D02*
X122705756Y-69109950D01*
X122705756Y-69109950D02*
X122819886Y-69052885D01*
X122819886Y-69052885D02*
X122876952Y-68995819D01*
X122876952Y-68995819D02*
X122934017Y-68881689D01*
X122934017Y-68881689D02*
X122934017Y-68653427D01*
X122934017Y-68653427D02*
X122876952Y-68539297D01*
X122876952Y-68539297D02*
X122819886Y-68482231D01*
X122819886Y-68482231D02*
X122705756Y-68425166D01*
X122705756Y-68425166D02*
X121735645Y-68425166D01*
X121735645Y-67968644D02*
X121735645Y-67226794D01*
X121735645Y-67226794D02*
X122192168Y-67626252D01*
X122192168Y-67626252D02*
X122192168Y-67455056D01*
X122192168Y-67455056D02*
X122249233Y-67340925D01*
X122249233Y-67340925D02*
X122306298Y-67283860D01*
X122306298Y-67283860D02*
X122420429Y-67226794D01*
X122420429Y-67226794D02*
X122705756Y-67226794D01*
X122705756Y-67226794D02*
X122819886Y-67283860D01*
X122819886Y-67283860D02*
X122876952Y-67340925D01*
X122876952Y-67340925D02*
X122934017Y-67455056D01*
X122934017Y-67455056D02*
X122934017Y-67797448D01*
X122934017Y-67797448D02*
X122876952Y-67911578D01*
X122876952Y-67911578D02*
X122819886Y-67968644D01*
D10*
X169214761Y-66534819D02*
X168881428Y-66058628D01*
X168643333Y-66534819D02*
X168643333Y-65534819D01*
X168643333Y-65534819D02*
X169024285Y-65534819D01*
X169024285Y-65534819D02*
X169119523Y-65582438D01*
X169119523Y-65582438D02*
X169167142Y-65630057D01*
X169167142Y-65630057D02*
X169214761Y-65725295D01*
X169214761Y-65725295D02*
X169214761Y-65868152D01*
X169214761Y-65868152D02*
X169167142Y-65963390D01*
X169167142Y-65963390D02*
X169119523Y-66011009D01*
X169119523Y-66011009D02*
X169024285Y-66058628D01*
X169024285Y-66058628D02*
X168643333Y-66058628D01*
X169500476Y-65534819D02*
X169833809Y-66534819D01*
X169833809Y-66534819D02*
X170167142Y-65534819D01*
X171024285Y-66534819D02*
X170452857Y-66534819D01*
X170738571Y-66534819D02*
X170738571Y-65534819D01*
X170738571Y-65534819D02*
X170643333Y-65677676D01*
X170643333Y-65677676D02*
X170548095Y-65772914D01*
X170548095Y-65772914D02*
X170452857Y-65820533D01*
X131034819Y-75632857D02*
X130558628Y-75966190D01*
X131034819Y-76204285D02*
X130034819Y-76204285D01*
X130034819Y-76204285D02*
X130034819Y-75823333D01*
X130034819Y-75823333D02*
X130082438Y-75728095D01*
X130082438Y-75728095D02*
X130130057Y-75680476D01*
X130130057Y-75680476D02*
X130225295Y-75632857D01*
X130225295Y-75632857D02*
X130368152Y-75632857D01*
X130368152Y-75632857D02*
X130463390Y-75680476D01*
X130463390Y-75680476D02*
X130511009Y-75728095D01*
X130511009Y-75728095D02*
X130558628Y-75823333D01*
X130558628Y-75823333D02*
X130558628Y-76204285D01*
X131034819Y-74680476D02*
X131034819Y-75251904D01*
X131034819Y-74966190D02*
X130034819Y-74966190D01*
X130034819Y-74966190D02*
X130177676Y-75061428D01*
X130177676Y-75061428D02*
X130272914Y-75156666D01*
X130272914Y-75156666D02*
X130320533Y-75251904D01*
X130034819Y-74061428D02*
X130034819Y-73966190D01*
X130034819Y-73966190D02*
X130082438Y-73870952D01*
X130082438Y-73870952D02*
X130130057Y-73823333D01*
X130130057Y-73823333D02*
X130225295Y-73775714D01*
X130225295Y-73775714D02*
X130415771Y-73728095D01*
X130415771Y-73728095D02*
X130653866Y-73728095D01*
X130653866Y-73728095D02*
X130844342Y-73775714D01*
X130844342Y-73775714D02*
X130939580Y-73823333D01*
X130939580Y-73823333D02*
X130987200Y-73870952D01*
X130987200Y-73870952D02*
X131034819Y-73966190D01*
X131034819Y-73966190D02*
X131034819Y-74061428D01*
X131034819Y-74061428D02*
X130987200Y-74156666D01*
X130987200Y-74156666D02*
X130939580Y-74204285D01*
X130939580Y-74204285D02*
X130844342Y-74251904D01*
X130844342Y-74251904D02*
X130653866Y-74299523D01*
X130653866Y-74299523D02*
X130415771Y-74299523D01*
X130415771Y-74299523D02*
X130225295Y-74251904D01*
X130225295Y-74251904D02*
X130130057Y-74204285D01*
X130130057Y-74204285D02*
X130082438Y-74156666D01*
X130082438Y-74156666D02*
X130034819Y-74061428D01*
D11*
X184312358Y-76033149D02*
X184256333Y-75977124D01*
X184256333Y-75977124D02*
X184200307Y-75809048D01*
X184200307Y-75809048D02*
X184200307Y-75696998D01*
X184200307Y-75696998D02*
X184256333Y-75528923D01*
X184256333Y-75528923D02*
X184368383Y-75416872D01*
X184368383Y-75416872D02*
X184480433Y-75360847D01*
X184480433Y-75360847D02*
X184704534Y-75304822D01*
X184704534Y-75304822D02*
X184872609Y-75304822D01*
X184872609Y-75304822D02*
X185096710Y-75360847D01*
X185096710Y-75360847D02*
X185208760Y-75416872D01*
X185208760Y-75416872D02*
X185320810Y-75528923D01*
X185320810Y-75528923D02*
X185376835Y-75696998D01*
X185376835Y-75696998D02*
X185376835Y-75809048D01*
X185376835Y-75809048D02*
X185320810Y-75977124D01*
X185320810Y-75977124D02*
X185264785Y-76033149D01*
X184200307Y-77153652D02*
X184200307Y-76481350D01*
X184200307Y-76817501D02*
X185376835Y-76817501D01*
X185376835Y-76817501D02*
X185208760Y-76705451D01*
X185208760Y-76705451D02*
X185096710Y-76593400D01*
X185096710Y-76593400D02*
X185040685Y-76481350D01*
X184200307Y-78274155D02*
X184200307Y-77601853D01*
X184200307Y-77938004D02*
X185376835Y-77938004D01*
X185376835Y-77938004D02*
X185208760Y-77825954D01*
X185208760Y-77825954D02*
X185096710Y-77713903D01*
X185096710Y-77713903D02*
X185040685Y-77601853D01*
X131823149Y-49507641D02*
X131767124Y-49563667D01*
X131767124Y-49563667D02*
X131599048Y-49619692D01*
X131599048Y-49619692D02*
X131486998Y-49619692D01*
X131486998Y-49619692D02*
X131318923Y-49563667D01*
X131318923Y-49563667D02*
X131206872Y-49451616D01*
X131206872Y-49451616D02*
X131150847Y-49339566D01*
X131150847Y-49339566D02*
X131094822Y-49115465D01*
X131094822Y-49115465D02*
X131094822Y-48947390D01*
X131094822Y-48947390D02*
X131150847Y-48723289D01*
X131150847Y-48723289D02*
X131206872Y-48611239D01*
X131206872Y-48611239D02*
X131318923Y-48499189D01*
X131318923Y-48499189D02*
X131486998Y-48443164D01*
X131486998Y-48443164D02*
X131599048Y-48443164D01*
X131599048Y-48443164D02*
X131767124Y-48499189D01*
X131767124Y-48499189D02*
X131823149Y-48555214D01*
X132887627Y-48443164D02*
X132327375Y-48443164D01*
X132327375Y-48443164D02*
X132271350Y-49003415D01*
X132271350Y-49003415D02*
X132327375Y-48947390D01*
X132327375Y-48947390D02*
X132439426Y-48891365D01*
X132439426Y-48891365D02*
X132719551Y-48891365D01*
X132719551Y-48891365D02*
X132831602Y-48947390D01*
X132831602Y-48947390D02*
X132887627Y-49003415D01*
X132887627Y-49003415D02*
X132943652Y-49115465D01*
X132943652Y-49115465D02*
X132943652Y-49395591D01*
X132943652Y-49395591D02*
X132887627Y-49507641D01*
X132887627Y-49507641D02*
X132831602Y-49563667D01*
X132831602Y-49563667D02*
X132719551Y-49619692D01*
X132719551Y-49619692D02*
X132439426Y-49619692D01*
X132439426Y-49619692D02*
X132327375Y-49563667D01*
X132327375Y-49563667D02*
X132271350Y-49507641D01*
X133952105Y-48835340D02*
X133952105Y-49619692D01*
X133671979Y-48387139D02*
X133391853Y-49227516D01*
X133391853Y-49227516D02*
X134120180Y-49227516D01*
D10*
X104477319Y-83967857D02*
X104001128Y-84301190D01*
X104477319Y-84539285D02*
X103477319Y-84539285D01*
X103477319Y-84539285D02*
X103477319Y-84158333D01*
X103477319Y-84158333D02*
X103524938Y-84063095D01*
X103524938Y-84063095D02*
X103572557Y-84015476D01*
X103572557Y-84015476D02*
X103667795Y-83967857D01*
X103667795Y-83967857D02*
X103810652Y-83967857D01*
X103810652Y-83967857D02*
X103905890Y-84015476D01*
X103905890Y-84015476D02*
X103953509Y-84063095D01*
X103953509Y-84063095D02*
X104001128Y-84158333D01*
X104001128Y-84158333D02*
X104001128Y-84539285D01*
X104477319Y-83015476D02*
X104477319Y-83586904D01*
X104477319Y-83301190D02*
X103477319Y-83301190D01*
X103477319Y-83301190D02*
X103620176Y-83396428D01*
X103620176Y-83396428D02*
X103715414Y-83491666D01*
X103715414Y-83491666D02*
X103763033Y-83586904D01*
X103477319Y-82682142D02*
X103477319Y-82015476D01*
X103477319Y-82015476D02*
X104477319Y-82444047D01*
D14*
X164580946Y-80538305D02*
X164580946Y-81748483D01*
X164580946Y-81748483D02*
X164119926Y-81748483D01*
X164119926Y-81748483D02*
X164004671Y-81690855D01*
X164004671Y-81690855D02*
X163947043Y-81633228D01*
X163947043Y-81633228D02*
X163889416Y-81517973D01*
X163889416Y-81517973D02*
X163889416Y-81345090D01*
X163889416Y-81345090D02*
X163947043Y-81229835D01*
X163947043Y-81229835D02*
X164004671Y-81172208D01*
X164004671Y-81172208D02*
X164119926Y-81114580D01*
X164119926Y-81114580D02*
X164580946Y-81114580D01*
X162736865Y-80538305D02*
X163428395Y-80538305D01*
X163082630Y-80538305D02*
X163082630Y-81748483D01*
X163082630Y-81748483D02*
X163197885Y-81575600D01*
X163197885Y-81575600D02*
X163313140Y-81460345D01*
X163313140Y-81460345D02*
X163428395Y-81402718D01*
D10*
X107024819Y-83912857D02*
X106548628Y-84246190D01*
X107024819Y-84484285D02*
X106024819Y-84484285D01*
X106024819Y-84484285D02*
X106024819Y-84103333D01*
X106024819Y-84103333D02*
X106072438Y-84008095D01*
X106072438Y-84008095D02*
X106120057Y-83960476D01*
X106120057Y-83960476D02*
X106215295Y-83912857D01*
X106215295Y-83912857D02*
X106358152Y-83912857D01*
X106358152Y-83912857D02*
X106453390Y-83960476D01*
X106453390Y-83960476D02*
X106501009Y-84008095D01*
X106501009Y-84008095D02*
X106548628Y-84103333D01*
X106548628Y-84103333D02*
X106548628Y-84484285D01*
X107024819Y-82960476D02*
X107024819Y-83531904D01*
X107024819Y-83246190D02*
X106024819Y-83246190D01*
X106024819Y-83246190D02*
X106167676Y-83341428D01*
X106167676Y-83341428D02*
X106262914Y-83436666D01*
X106262914Y-83436666D02*
X106310533Y-83531904D01*
X106453390Y-82389047D02*
X106405771Y-82484285D01*
X106405771Y-82484285D02*
X106358152Y-82531904D01*
X106358152Y-82531904D02*
X106262914Y-82579523D01*
X106262914Y-82579523D02*
X106215295Y-82579523D01*
X106215295Y-82579523D02*
X106120057Y-82531904D01*
X106120057Y-82531904D02*
X106072438Y-82484285D01*
X106072438Y-82484285D02*
X106024819Y-82389047D01*
X106024819Y-82389047D02*
X106024819Y-82198571D01*
X106024819Y-82198571D02*
X106072438Y-82103333D01*
X106072438Y-82103333D02*
X106120057Y-82055714D01*
X106120057Y-82055714D02*
X106215295Y-82008095D01*
X106215295Y-82008095D02*
X106262914Y-82008095D01*
X106262914Y-82008095D02*
X106358152Y-82055714D01*
X106358152Y-82055714D02*
X106405771Y-82103333D01*
X106405771Y-82103333D02*
X106453390Y-82198571D01*
X106453390Y-82198571D02*
X106453390Y-82389047D01*
X106453390Y-82389047D02*
X106501009Y-82484285D01*
X106501009Y-82484285D02*
X106548628Y-82531904D01*
X106548628Y-82531904D02*
X106643866Y-82579523D01*
X106643866Y-82579523D02*
X106834342Y-82579523D01*
X106834342Y-82579523D02*
X106929580Y-82531904D01*
X106929580Y-82531904D02*
X106977200Y-82484285D01*
X106977200Y-82484285D02*
X107024819Y-82389047D01*
X107024819Y-82389047D02*
X107024819Y-82198571D01*
X107024819Y-82198571D02*
X106977200Y-82103333D01*
X106977200Y-82103333D02*
X106929580Y-82055714D01*
X106929580Y-82055714D02*
X106834342Y-82008095D01*
X106834342Y-82008095D02*
X106643866Y-82008095D01*
X106643866Y-82008095D02*
X106548628Y-82055714D01*
X106548628Y-82055714D02*
X106501009Y-82103333D01*
X106501009Y-82103333D02*
X106453390Y-82198571D01*
D11*
X139253528Y-83550294D02*
X139365578Y-83606319D01*
X139365578Y-83606319D02*
X139477628Y-83718370D01*
X139477628Y-83718370D02*
X139645704Y-83886445D01*
X139645704Y-83886445D02*
X139757754Y-83942470D01*
X139757754Y-83942470D02*
X139869804Y-83942470D01*
X139813779Y-83662344D02*
X139925830Y-83718370D01*
X139925830Y-83718370D02*
X140037880Y-83830420D01*
X140037880Y-83830420D02*
X140093905Y-84054520D01*
X140093905Y-84054520D02*
X140093905Y-84446696D01*
X140093905Y-84446696D02*
X140037880Y-84670797D01*
X140037880Y-84670797D02*
X139925830Y-84782847D01*
X139925830Y-84782847D02*
X139813779Y-84838872D01*
X139813779Y-84838872D02*
X139589679Y-84838872D01*
X139589679Y-84838872D02*
X139477628Y-84782847D01*
X139477628Y-84782847D02*
X139365578Y-84670797D01*
X139365578Y-84670797D02*
X139309553Y-84446696D01*
X139309553Y-84446696D02*
X139309553Y-84054520D01*
X139309553Y-84054520D02*
X139365578Y-83830420D01*
X139365578Y-83830420D02*
X139477628Y-83718370D01*
X139477628Y-83718370D02*
X139589679Y-83662344D01*
X139589679Y-83662344D02*
X139813779Y-83662344D01*
X138189050Y-84782847D02*
X138301101Y-84838872D01*
X138301101Y-84838872D02*
X138469176Y-84838872D01*
X138469176Y-84838872D02*
X138637251Y-84782847D01*
X138637251Y-84782847D02*
X138749302Y-84670797D01*
X138749302Y-84670797D02*
X138805327Y-84558747D01*
X138805327Y-84558747D02*
X138861352Y-84334646D01*
X138861352Y-84334646D02*
X138861352Y-84166571D01*
X138861352Y-84166571D02*
X138805327Y-83942470D01*
X138805327Y-83942470D02*
X138749302Y-83830420D01*
X138749302Y-83830420D02*
X138637251Y-83718370D01*
X138637251Y-83718370D02*
X138469176Y-83662344D01*
X138469176Y-83662344D02*
X138357126Y-83662344D01*
X138357126Y-83662344D02*
X138189050Y-83718370D01*
X138189050Y-83718370D02*
X138133025Y-83774395D01*
X138133025Y-83774395D02*
X138133025Y-84166571D01*
X138133025Y-84166571D02*
X138357126Y-84166571D01*
X137684824Y-84726822D02*
X137628799Y-84782847D01*
X137628799Y-84782847D02*
X137516749Y-84838872D01*
X137516749Y-84838872D02*
X137236623Y-84838872D01*
X137236623Y-84838872D02*
X137124573Y-84782847D01*
X137124573Y-84782847D02*
X137068547Y-84726822D01*
X137068547Y-84726822D02*
X137012522Y-84614772D01*
X137012522Y-84614772D02*
X137012522Y-84502722D01*
X137012522Y-84502722D02*
X137068547Y-84334646D01*
X137068547Y-84334646D02*
X137740849Y-83662344D01*
X137740849Y-83662344D02*
X137012522Y-83662344D01*
D10*
X170605057Y-79785238D02*
X170557438Y-79880476D01*
X170557438Y-79880476D02*
X170462200Y-79975714D01*
X170462200Y-79975714D02*
X170319342Y-80118571D01*
X170319342Y-80118571D02*
X170271723Y-80213809D01*
X170271723Y-80213809D02*
X170271723Y-80309047D01*
X170509819Y-80261428D02*
X170462200Y-80356666D01*
X170462200Y-80356666D02*
X170366961Y-80451904D01*
X170366961Y-80451904D02*
X170176485Y-80499523D01*
X170176485Y-80499523D02*
X169843152Y-80499523D01*
X169843152Y-80499523D02*
X169652676Y-80451904D01*
X169652676Y-80451904D02*
X169557438Y-80356666D01*
X169557438Y-80356666D02*
X169509819Y-80261428D01*
X169509819Y-80261428D02*
X169509819Y-80070952D01*
X169509819Y-80070952D02*
X169557438Y-79975714D01*
X169557438Y-79975714D02*
X169652676Y-79880476D01*
X169652676Y-79880476D02*
X169843152Y-79832857D01*
X169843152Y-79832857D02*
X170176485Y-79832857D01*
X170176485Y-79832857D02*
X170366961Y-79880476D01*
X170366961Y-79880476D02*
X170462200Y-79975714D01*
X170462200Y-79975714D02*
X170509819Y-80070952D01*
X170509819Y-80070952D02*
X170509819Y-80261428D01*
X169509819Y-79499523D02*
X169509819Y-78880476D01*
X169509819Y-78880476D02*
X169890771Y-79213809D01*
X169890771Y-79213809D02*
X169890771Y-79070952D01*
X169890771Y-79070952D02*
X169938390Y-78975714D01*
X169938390Y-78975714D02*
X169986009Y-78928095D01*
X169986009Y-78928095D02*
X170081247Y-78880476D01*
X170081247Y-78880476D02*
X170319342Y-78880476D01*
X170319342Y-78880476D02*
X170414580Y-78928095D01*
X170414580Y-78928095D02*
X170462200Y-78975714D01*
X170462200Y-78975714D02*
X170509819Y-79070952D01*
X170509819Y-79070952D02*
X170509819Y-79356666D01*
X170509819Y-79356666D02*
X170462200Y-79451904D01*
X170462200Y-79451904D02*
X170414580Y-79499523D01*
X124074819Y-76412857D02*
X123598628Y-76746190D01*
X124074819Y-76984285D02*
X123074819Y-76984285D01*
X123074819Y-76984285D02*
X123074819Y-76603333D01*
X123074819Y-76603333D02*
X123122438Y-76508095D01*
X123122438Y-76508095D02*
X123170057Y-76460476D01*
X123170057Y-76460476D02*
X123265295Y-76412857D01*
X123265295Y-76412857D02*
X123408152Y-76412857D01*
X123408152Y-76412857D02*
X123503390Y-76460476D01*
X123503390Y-76460476D02*
X123551009Y-76508095D01*
X123551009Y-76508095D02*
X123598628Y-76603333D01*
X123598628Y-76603333D02*
X123598628Y-76984285D01*
X123170057Y-76031904D02*
X123122438Y-75984285D01*
X123122438Y-75984285D02*
X123074819Y-75889047D01*
X123074819Y-75889047D02*
X123074819Y-75650952D01*
X123074819Y-75650952D02*
X123122438Y-75555714D01*
X123122438Y-75555714D02*
X123170057Y-75508095D01*
X123170057Y-75508095D02*
X123265295Y-75460476D01*
X123265295Y-75460476D02*
X123360533Y-75460476D01*
X123360533Y-75460476D02*
X123503390Y-75508095D01*
X123503390Y-75508095D02*
X124074819Y-76079523D01*
X124074819Y-76079523D02*
X124074819Y-75460476D01*
X123074819Y-75127142D02*
X123074819Y-74460476D01*
X123074819Y-74460476D02*
X124074819Y-74889047D01*
X128167142Y-72564819D02*
X127833809Y-72088628D01*
X127595714Y-72564819D02*
X127595714Y-71564819D01*
X127595714Y-71564819D02*
X127976666Y-71564819D01*
X127976666Y-71564819D02*
X128071904Y-71612438D01*
X128071904Y-71612438D02*
X128119523Y-71660057D01*
X128119523Y-71660057D02*
X128167142Y-71755295D01*
X128167142Y-71755295D02*
X128167142Y-71898152D01*
X128167142Y-71898152D02*
X128119523Y-71993390D01*
X128119523Y-71993390D02*
X128071904Y-72041009D01*
X128071904Y-72041009D02*
X127976666Y-72088628D01*
X127976666Y-72088628D02*
X127595714Y-72088628D01*
X129119523Y-72564819D02*
X128548095Y-72564819D01*
X128833809Y-72564819D02*
X128833809Y-71564819D01*
X128833809Y-71564819D02*
X128738571Y-71707676D01*
X128738571Y-71707676D02*
X128643333Y-71802914D01*
X128643333Y-71802914D02*
X128548095Y-71850533D01*
X130071904Y-72564819D02*
X129500476Y-72564819D01*
X129786190Y-72564819D02*
X129786190Y-71564819D01*
X129786190Y-71564819D02*
X129690952Y-71707676D01*
X129690952Y-71707676D02*
X129595714Y-71802914D01*
X129595714Y-71802914D02*
X129500476Y-71850533D01*
D11*
X120092358Y-60563149D02*
X120036333Y-60507124D01*
X120036333Y-60507124D02*
X119980307Y-60339048D01*
X119980307Y-60339048D02*
X119980307Y-60226998D01*
X119980307Y-60226998D02*
X120036333Y-60058923D01*
X120036333Y-60058923D02*
X120148383Y-59946872D01*
X120148383Y-59946872D02*
X120260433Y-59890847D01*
X120260433Y-59890847D02*
X120484534Y-59834822D01*
X120484534Y-59834822D02*
X120652609Y-59834822D01*
X120652609Y-59834822D02*
X120876710Y-59890847D01*
X120876710Y-59890847D02*
X120988760Y-59946872D01*
X120988760Y-59946872D02*
X121100810Y-60058923D01*
X121100810Y-60058923D02*
X121156835Y-60226998D01*
X121156835Y-60226998D02*
X121156835Y-60339048D01*
X121156835Y-60339048D02*
X121100810Y-60507124D01*
X121100810Y-60507124D02*
X121044785Y-60563149D01*
X120764659Y-61571602D02*
X119980307Y-61571602D01*
X121212861Y-61291476D02*
X120372483Y-61011350D01*
X120372483Y-61011350D02*
X120372483Y-61739677D01*
X121044785Y-62131853D02*
X121100810Y-62187878D01*
X121100810Y-62187878D02*
X121156835Y-62299929D01*
X121156835Y-62299929D02*
X121156835Y-62580054D01*
X121156835Y-62580054D02*
X121100810Y-62692105D01*
X121100810Y-62692105D02*
X121044785Y-62748130D01*
X121044785Y-62748130D02*
X120932735Y-62804155D01*
X120932735Y-62804155D02*
X120820685Y-62804155D01*
X120820685Y-62804155D02*
X120652609Y-62748130D01*
X120652609Y-62748130D02*
X119980307Y-62075828D01*
X119980307Y-62075828D02*
X119980307Y-62804155D01*
D10*
X104184166Y-83744819D02*
X104184166Y-84459104D01*
X104184166Y-84459104D02*
X104136547Y-84601961D01*
X104136547Y-84601961D02*
X104041309Y-84697200D01*
X104041309Y-84697200D02*
X103898452Y-84744819D01*
X103898452Y-84744819D02*
X103803214Y-84744819D01*
X105184166Y-84744819D02*
X104612738Y-84744819D01*
X104898452Y-84744819D02*
X104898452Y-83744819D01*
X104898452Y-83744819D02*
X104803214Y-83887676D01*
X104803214Y-83887676D02*
X104707976Y-83982914D01*
X104707976Y-83982914D02*
X104612738Y-84030533D01*
D11*
X106771971Y-76871205D02*
X106659921Y-76815180D01*
X106659921Y-76815180D02*
X106547871Y-76703130D01*
X106547871Y-76703130D02*
X106379795Y-76535054D01*
X106379795Y-76535054D02*
X106267745Y-76479029D01*
X106267745Y-76479029D02*
X106155695Y-76479029D01*
X106211720Y-76759155D02*
X106099670Y-76703130D01*
X106099670Y-76703130D02*
X105987619Y-76591079D01*
X105987619Y-76591079D02*
X105931594Y-76366979D01*
X105931594Y-76366979D02*
X105931594Y-75974803D01*
X105931594Y-75974803D02*
X105987619Y-75750702D01*
X105987619Y-75750702D02*
X106099670Y-75638652D01*
X106099670Y-75638652D02*
X106211720Y-75582627D01*
X106211720Y-75582627D02*
X106435820Y-75582627D01*
X106435820Y-75582627D02*
X106547871Y-75638652D01*
X106547871Y-75638652D02*
X106659921Y-75750702D01*
X106659921Y-75750702D02*
X106715946Y-75974803D01*
X106715946Y-75974803D02*
X106715946Y-76366979D01*
X106715946Y-76366979D02*
X106659921Y-76591079D01*
X106659921Y-76591079D02*
X106547871Y-76703130D01*
X106547871Y-76703130D02*
X106435820Y-76759155D01*
X106435820Y-76759155D02*
X106211720Y-76759155D01*
X107836449Y-76759155D02*
X107164147Y-76759155D01*
X107500298Y-76759155D02*
X107500298Y-75582627D01*
X107500298Y-75582627D02*
X107388248Y-75750702D01*
X107388248Y-75750702D02*
X107276197Y-75862752D01*
X107276197Y-75862752D02*
X107164147Y-75918778D01*
X108228625Y-75582627D02*
X108956952Y-75582627D01*
X108956952Y-75582627D02*
X108564776Y-76030828D01*
X108564776Y-76030828D02*
X108732851Y-76030828D01*
X108732851Y-76030828D02*
X108844902Y-76086853D01*
X108844902Y-76086853D02*
X108900927Y-76142878D01*
X108900927Y-76142878D02*
X108956952Y-76254928D01*
X108956952Y-76254928D02*
X108956952Y-76535054D01*
X108956952Y-76535054D02*
X108900927Y-76647104D01*
X108900927Y-76647104D02*
X108844902Y-76703130D01*
X108844902Y-76703130D02*
X108732851Y-76759155D01*
X108732851Y-76759155D02*
X108396700Y-76759155D01*
X108396700Y-76759155D02*
X108284650Y-76703130D01*
X108284650Y-76703130D02*
X108228625Y-76647104D01*
D12*
X166203444Y-67855480D02*
X166764663Y-67855480D01*
X166091200Y-68192211D02*
X166484054Y-67013651D01*
X166484054Y-67013651D02*
X166876907Y-68192211D01*
X167887101Y-68192211D02*
X167213638Y-68192211D01*
X167550370Y-68192211D02*
X167550370Y-67013651D01*
X167550370Y-67013651D02*
X167438126Y-67182017D01*
X167438126Y-67182017D02*
X167325882Y-67294261D01*
X167325882Y-67294261D02*
X167213638Y-67350383D01*
D15*
X179122980Y-57558963D02*
X179122980Y-58260003D01*
X178789151Y-57558963D02*
X178789151Y-58260003D01*
X178789151Y-58260003D02*
X178388557Y-57558963D01*
X178388557Y-57558963D02*
X178388557Y-58260003D01*
X178154877Y-58260003D02*
X177754283Y-58260003D01*
X177954580Y-57558963D02*
X177954580Y-58260003D01*
X179156363Y-60299260D02*
X178822535Y-60299260D01*
X179223129Y-60098963D02*
X178989449Y-60800003D01*
X178989449Y-60800003D02*
X178755769Y-60098963D01*
X178522089Y-60098963D02*
X178522089Y-60800003D01*
X178522089Y-60800003D02*
X178355175Y-60800003D01*
X178355175Y-60800003D02*
X178255026Y-60766620D01*
X178255026Y-60766620D02*
X178188261Y-60699854D01*
X178188261Y-60699854D02*
X178154878Y-60633088D01*
X178154878Y-60633088D02*
X178121495Y-60499557D01*
X178121495Y-60499557D02*
X178121495Y-60399408D01*
X178121495Y-60399408D02*
X178154878Y-60265877D01*
X178154878Y-60265877D02*
X178188261Y-60199111D01*
X178188261Y-60199111D02*
X178255026Y-60132346D01*
X178255026Y-60132346D02*
X178355175Y-60098963D01*
X178355175Y-60098963D02*
X178522089Y-60098963D01*
X177420455Y-60098963D02*
X177654135Y-60432791D01*
X177821049Y-60098963D02*
X177821049Y-60800003D01*
X177821049Y-60800003D02*
X177553986Y-60800003D01*
X177553986Y-60800003D02*
X177487221Y-60766620D01*
X177487221Y-60766620D02*
X177453838Y-60733237D01*
X177453838Y-60733237D02*
X177420455Y-60666471D01*
X177420455Y-60666471D02*
X177420455Y-60566323D01*
X177420455Y-60566323D02*
X177453838Y-60499557D01*
X177453838Y-60499557D02*
X177487221Y-60466174D01*
X177487221Y-60466174D02*
X177553986Y-60432791D01*
X177553986Y-60432791D02*
X177821049Y-60432791D01*
X166803636Y-59887654D02*
X166903785Y-59921036D01*
X166903785Y-59921036D02*
X167070699Y-59921036D01*
X167070699Y-59921036D02*
X167137465Y-59887654D01*
X167137465Y-59887654D02*
X167170847Y-59854271D01*
X167170847Y-59854271D02*
X167204230Y-59787505D01*
X167204230Y-59787505D02*
X167204230Y-59720739D01*
X167204230Y-59720739D02*
X167170847Y-59653974D01*
X167170847Y-59653974D02*
X167137465Y-59620591D01*
X167137465Y-59620591D02*
X167070699Y-59587208D01*
X167070699Y-59587208D02*
X166937167Y-59553825D01*
X166937167Y-59553825D02*
X166870402Y-59520442D01*
X166870402Y-59520442D02*
X166837019Y-59487059D01*
X166837019Y-59487059D02*
X166803636Y-59420294D01*
X166803636Y-59420294D02*
X166803636Y-59353528D01*
X166803636Y-59353528D02*
X166837019Y-59286762D01*
X166837019Y-59286762D02*
X166870402Y-59253379D01*
X166870402Y-59253379D02*
X166937167Y-59219996D01*
X166937167Y-59219996D02*
X167104082Y-59219996D01*
X167104082Y-59219996D02*
X167204230Y-59253379D01*
X167905270Y-59854271D02*
X167871887Y-59887654D01*
X167871887Y-59887654D02*
X167771739Y-59921036D01*
X167771739Y-59921036D02*
X167704973Y-59921036D01*
X167704973Y-59921036D02*
X167604824Y-59887654D01*
X167604824Y-59887654D02*
X167538059Y-59820888D01*
X167538059Y-59820888D02*
X167504676Y-59754122D01*
X167504676Y-59754122D02*
X167471293Y-59620591D01*
X167471293Y-59620591D02*
X167471293Y-59520442D01*
X167471293Y-59520442D02*
X167504676Y-59386911D01*
X167504676Y-59386911D02*
X167538059Y-59320145D01*
X167538059Y-59320145D02*
X167604824Y-59253379D01*
X167604824Y-59253379D02*
X167704973Y-59219996D01*
X167704973Y-59219996D02*
X167771739Y-59219996D01*
X167771739Y-59219996D02*
X167871887Y-59253379D01*
X167871887Y-59253379D02*
X167905270Y-59286762D01*
X168539544Y-59921036D02*
X168205716Y-59921036D01*
X168205716Y-59921036D02*
X168205716Y-59219996D01*
X166736870Y-49059996D02*
X166970550Y-49761036D01*
X166970550Y-49761036D02*
X167204230Y-49059996D01*
X167437910Y-49761036D02*
X167437910Y-49059996D01*
X167771739Y-49761036D02*
X167771739Y-49059996D01*
X167771739Y-49059996D02*
X168172333Y-49761036D01*
X168172333Y-49761036D02*
X168172333Y-49059996D01*
D16*
X172055032Y-44621726D02*
X172055032Y-43453326D01*
X172611413Y-44621726D02*
X172611413Y-43453326D01*
X172611413Y-43453326D02*
X173000880Y-44287897D01*
X173000880Y-44287897D02*
X173390346Y-43453326D01*
X173390346Y-43453326D02*
X173390346Y-44621726D01*
X173946727Y-43453326D02*
X173946727Y-44399173D01*
X173946727Y-44399173D02*
X174002365Y-44510449D01*
X174002365Y-44510449D02*
X174058003Y-44566088D01*
X174058003Y-44566088D02*
X174169279Y-44621726D01*
X174169279Y-44621726D02*
X174391832Y-44621726D01*
X174391832Y-44621726D02*
X174503108Y-44566088D01*
X174503108Y-44566088D02*
X174558746Y-44510449D01*
X174558746Y-44510449D02*
X174614384Y-44399173D01*
X174614384Y-44399173D02*
X174614384Y-43453326D01*
D15*
X179122980Y-52478963D02*
X179122980Y-53180003D01*
X179122980Y-53180003D02*
X178855917Y-53180003D01*
X178855917Y-53180003D02*
X178789152Y-53146620D01*
X178789152Y-53146620D02*
X178755769Y-53113237D01*
X178755769Y-53113237D02*
X178722386Y-53046471D01*
X178722386Y-53046471D02*
X178722386Y-52946323D01*
X178722386Y-52946323D02*
X178755769Y-52879557D01*
X178755769Y-52879557D02*
X178789152Y-52846174D01*
X178789152Y-52846174D02*
X178855917Y-52812791D01*
X178855917Y-52812791D02*
X179122980Y-52812791D01*
X178455323Y-52512346D02*
X178355175Y-52478963D01*
X178355175Y-52478963D02*
X178188260Y-52478963D01*
X178188260Y-52478963D02*
X178121495Y-52512346D01*
X178121495Y-52512346D02*
X178088112Y-52545728D01*
X178088112Y-52545728D02*
X178054729Y-52612494D01*
X178054729Y-52612494D02*
X178054729Y-52679260D01*
X178054729Y-52679260D02*
X178088112Y-52746026D01*
X178088112Y-52746026D02*
X178121495Y-52779408D01*
X178121495Y-52779408D02*
X178188260Y-52812791D01*
X178188260Y-52812791D02*
X178321792Y-52846174D01*
X178321792Y-52846174D02*
X178388557Y-52879557D01*
X178388557Y-52879557D02*
X178421940Y-52912940D01*
X178421940Y-52912940D02*
X178455323Y-52979706D01*
X178455323Y-52979706D02*
X178455323Y-53046471D01*
X178455323Y-53046471D02*
X178421940Y-53113237D01*
X178421940Y-53113237D02*
X178388557Y-53146620D01*
X178388557Y-53146620D02*
X178321792Y-53180003D01*
X178321792Y-53180003D02*
X178154877Y-53180003D01*
X178154877Y-53180003D02*
X178054729Y-53146620D01*
X177620752Y-53180003D02*
X177553986Y-53180003D01*
X177553986Y-53180003D02*
X177487220Y-53146620D01*
X177487220Y-53146620D02*
X177453838Y-53113237D01*
X177453838Y-53113237D02*
X177420455Y-53046471D01*
X177420455Y-53046471D02*
X177387072Y-52912940D01*
X177387072Y-52912940D02*
X177387072Y-52746026D01*
X177387072Y-52746026D02*
X177420455Y-52612494D01*
X177420455Y-52612494D02*
X177453838Y-52545728D01*
X177453838Y-52545728D02*
X177487220Y-52512346D01*
X177487220Y-52512346D02*
X177553986Y-52478963D01*
X177553986Y-52478963D02*
X177620752Y-52478963D01*
X177620752Y-52478963D02*
X177687518Y-52512346D01*
X177687518Y-52512346D02*
X177720900Y-52545728D01*
X177720900Y-52545728D02*
X177754283Y-52612494D01*
X177754283Y-52612494D02*
X177787666Y-52746026D01*
X177787666Y-52746026D02*
X177787666Y-52912940D01*
X177787666Y-52912940D02*
X177754283Y-53046471D01*
X177754283Y-53046471D02*
X177720900Y-53113237D01*
X177720900Y-53113237D02*
X177687518Y-53146620D01*
X177687518Y-53146620D02*
X177620752Y-53180003D01*
X166803636Y-57347654D02*
X166903785Y-57381036D01*
X166903785Y-57381036D02*
X167070699Y-57381036D01*
X167070699Y-57381036D02*
X167137465Y-57347654D01*
X167137465Y-57347654D02*
X167170847Y-57314271D01*
X167170847Y-57314271D02*
X167204230Y-57247505D01*
X167204230Y-57247505D02*
X167204230Y-57180739D01*
X167204230Y-57180739D02*
X167170847Y-57113974D01*
X167170847Y-57113974D02*
X167137465Y-57080591D01*
X167137465Y-57080591D02*
X167070699Y-57047208D01*
X167070699Y-57047208D02*
X166937167Y-57013825D01*
X166937167Y-57013825D02*
X166870402Y-56980442D01*
X166870402Y-56980442D02*
X166837019Y-56947059D01*
X166837019Y-56947059D02*
X166803636Y-56880294D01*
X166803636Y-56880294D02*
X166803636Y-56813528D01*
X166803636Y-56813528D02*
X166837019Y-56746762D01*
X166837019Y-56746762D02*
X166870402Y-56713379D01*
X166870402Y-56713379D02*
X166937167Y-56679996D01*
X166937167Y-56679996D02*
X167104082Y-56679996D01*
X167104082Y-56679996D02*
X167204230Y-56713379D01*
X167504676Y-57381036D02*
X167504676Y-56679996D01*
X167504676Y-56679996D02*
X167671590Y-56679996D01*
X167671590Y-56679996D02*
X167771739Y-56713379D01*
X167771739Y-56713379D02*
X167838504Y-56780145D01*
X167838504Y-56780145D02*
X167871887Y-56846911D01*
X167871887Y-56846911D02*
X167905270Y-56980442D01*
X167905270Y-56980442D02*
X167905270Y-57080591D01*
X167905270Y-57080591D02*
X167871887Y-57214122D01*
X167871887Y-57214122D02*
X167838504Y-57280888D01*
X167838504Y-57280888D02*
X167771739Y-57347654D01*
X167771739Y-57347654D02*
X167671590Y-57381036D01*
X167671590Y-57381036D02*
X167504676Y-57381036D01*
X168172333Y-57180739D02*
X168506162Y-57180739D01*
X168105567Y-57381036D02*
X168339247Y-56679996D01*
X168339247Y-56679996D02*
X168572927Y-57381036D01*
X179122980Y-55018963D02*
X179122980Y-55720003D01*
X179122980Y-55720003D02*
X178855917Y-55720003D01*
X178855917Y-55720003D02*
X178789152Y-55686620D01*
X178789152Y-55686620D02*
X178755769Y-55653237D01*
X178755769Y-55653237D02*
X178722386Y-55586471D01*
X178722386Y-55586471D02*
X178722386Y-55486323D01*
X178722386Y-55486323D02*
X178755769Y-55419557D01*
X178755769Y-55419557D02*
X178789152Y-55386174D01*
X178789152Y-55386174D02*
X178855917Y-55352791D01*
X178855917Y-55352791D02*
X179122980Y-55352791D01*
X178455323Y-55052346D02*
X178355175Y-55018963D01*
X178355175Y-55018963D02*
X178188260Y-55018963D01*
X178188260Y-55018963D02*
X178121495Y-55052346D01*
X178121495Y-55052346D02*
X178088112Y-55085728D01*
X178088112Y-55085728D02*
X178054729Y-55152494D01*
X178054729Y-55152494D02*
X178054729Y-55219260D01*
X178054729Y-55219260D02*
X178088112Y-55286026D01*
X178088112Y-55286026D02*
X178121495Y-55319408D01*
X178121495Y-55319408D02*
X178188260Y-55352791D01*
X178188260Y-55352791D02*
X178321792Y-55386174D01*
X178321792Y-55386174D02*
X178388557Y-55419557D01*
X178388557Y-55419557D02*
X178421940Y-55452940D01*
X178421940Y-55452940D02*
X178455323Y-55519706D01*
X178455323Y-55519706D02*
X178455323Y-55586471D01*
X178455323Y-55586471D02*
X178421940Y-55653237D01*
X178421940Y-55653237D02*
X178388557Y-55686620D01*
X178388557Y-55686620D02*
X178321792Y-55720003D01*
X178321792Y-55720003D02*
X178154877Y-55720003D01*
X178154877Y-55720003D02*
X178054729Y-55686620D01*
X177387072Y-55018963D02*
X177787666Y-55018963D01*
X177587369Y-55018963D02*
X177587369Y-55720003D01*
X177587369Y-55720003D02*
X177654135Y-55619854D01*
X177654135Y-55619854D02*
X177720900Y-55553088D01*
X177720900Y-55553088D02*
X177787666Y-55519706D01*
X166770253Y-51599996D02*
X167204230Y-51599996D01*
X167204230Y-51599996D02*
X166970550Y-51867059D01*
X166970550Y-51867059D02*
X167070699Y-51867059D01*
X167070699Y-51867059D02*
X167137465Y-51900442D01*
X167137465Y-51900442D02*
X167170847Y-51933825D01*
X167170847Y-51933825D02*
X167204230Y-52000591D01*
X167204230Y-52000591D02*
X167204230Y-52167505D01*
X167204230Y-52167505D02*
X167170847Y-52234271D01*
X167170847Y-52234271D02*
X167137465Y-52267654D01*
X167137465Y-52267654D02*
X167070699Y-52301036D01*
X167070699Y-52301036D02*
X166870402Y-52301036D01*
X166870402Y-52301036D02*
X166803636Y-52267654D01*
X166803636Y-52267654D02*
X166770253Y-52234271D01*
X167404527Y-51599996D02*
X167638207Y-52301036D01*
X167638207Y-52301036D02*
X167871887Y-51599996D01*
X168239098Y-51599996D02*
X168372630Y-51599996D01*
X168372630Y-51599996D02*
X168439395Y-51633379D01*
X168439395Y-51633379D02*
X168506161Y-51700145D01*
X168506161Y-51700145D02*
X168539544Y-51833676D01*
X168539544Y-51833676D02*
X168539544Y-52067356D01*
X168539544Y-52067356D02*
X168506161Y-52200888D01*
X168506161Y-52200888D02*
X168439395Y-52267654D01*
X168439395Y-52267654D02*
X168372630Y-52301036D01*
X168372630Y-52301036D02*
X168239098Y-52301036D01*
X168239098Y-52301036D02*
X168172333Y-52267654D01*
X168172333Y-52267654D02*
X168105567Y-52200888D01*
X168105567Y-52200888D02*
X168072184Y-52067356D01*
X168072184Y-52067356D02*
X168072184Y-51833676D01*
X168072184Y-51833676D02*
X168105567Y-51700145D01*
X168105567Y-51700145D02*
X168172333Y-51633379D01*
X168172333Y-51633379D02*
X168239098Y-51599996D01*
X167237613Y-62461036D02*
X167003933Y-62127208D01*
X166837019Y-62461036D02*
X166837019Y-61759996D01*
X166837019Y-61759996D02*
X167104082Y-61759996D01*
X167104082Y-61759996D02*
X167170847Y-61793379D01*
X167170847Y-61793379D02*
X167204230Y-61826762D01*
X167204230Y-61826762D02*
X167237613Y-61893528D01*
X167237613Y-61893528D02*
X167237613Y-61993676D01*
X167237613Y-61993676D02*
X167204230Y-62060442D01*
X167204230Y-62060442D02*
X167170847Y-62093825D01*
X167170847Y-62093825D02*
X167104082Y-62127208D01*
X167104082Y-62127208D02*
X166837019Y-62127208D01*
X167504676Y-62427654D02*
X167604825Y-62461036D01*
X167604825Y-62461036D02*
X167771739Y-62461036D01*
X167771739Y-62461036D02*
X167838505Y-62427654D01*
X167838505Y-62427654D02*
X167871887Y-62394271D01*
X167871887Y-62394271D02*
X167905270Y-62327505D01*
X167905270Y-62327505D02*
X167905270Y-62260739D01*
X167905270Y-62260739D02*
X167871887Y-62193974D01*
X167871887Y-62193974D02*
X167838505Y-62160591D01*
X167838505Y-62160591D02*
X167771739Y-62127208D01*
X167771739Y-62127208D02*
X167638207Y-62093825D01*
X167638207Y-62093825D02*
X167571442Y-62060442D01*
X167571442Y-62060442D02*
X167538059Y-62027059D01*
X167538059Y-62027059D02*
X167504676Y-61960294D01*
X167504676Y-61960294D02*
X167504676Y-61893528D01*
X167504676Y-61893528D02*
X167538059Y-61826762D01*
X167538059Y-61826762D02*
X167571442Y-61793379D01*
X167571442Y-61793379D02*
X167638207Y-61759996D01*
X167638207Y-61759996D02*
X167805122Y-61759996D01*
X167805122Y-61759996D02*
X167905270Y-61793379D01*
X168105567Y-61759996D02*
X168506162Y-61759996D01*
X168305864Y-62461036D02*
X168305864Y-61759996D01*
X167204230Y-54173379D02*
X167137465Y-54139996D01*
X167137465Y-54139996D02*
X167037316Y-54139996D01*
X167037316Y-54139996D02*
X166937167Y-54173379D01*
X166937167Y-54173379D02*
X166870402Y-54240145D01*
X166870402Y-54240145D02*
X166837019Y-54306911D01*
X166837019Y-54306911D02*
X166803636Y-54440442D01*
X166803636Y-54440442D02*
X166803636Y-54540591D01*
X166803636Y-54540591D02*
X166837019Y-54674122D01*
X166837019Y-54674122D02*
X166870402Y-54740888D01*
X166870402Y-54740888D02*
X166937167Y-54807654D01*
X166937167Y-54807654D02*
X167037316Y-54841036D01*
X167037316Y-54841036D02*
X167104082Y-54841036D01*
X167104082Y-54841036D02*
X167204230Y-54807654D01*
X167204230Y-54807654D02*
X167237613Y-54774271D01*
X167237613Y-54774271D02*
X167237613Y-54540591D01*
X167237613Y-54540591D02*
X167104082Y-54540591D01*
X167538059Y-54841036D02*
X167538059Y-54139996D01*
X167538059Y-54139996D02*
X167938653Y-54841036D01*
X167938653Y-54841036D02*
X167938653Y-54139996D01*
X168272482Y-54841036D02*
X168272482Y-54139996D01*
X168272482Y-54139996D02*
X168439396Y-54139996D01*
X168439396Y-54139996D02*
X168539545Y-54173379D01*
X168539545Y-54173379D02*
X168606310Y-54240145D01*
X168606310Y-54240145D02*
X168639693Y-54306911D01*
X168639693Y-54306911D02*
X168673076Y-54440442D01*
X168673076Y-54440442D02*
X168673076Y-54540591D01*
X168673076Y-54540591D02*
X168639693Y-54674122D01*
X168639693Y-54674122D02*
X168606310Y-54740888D01*
X168606310Y-54740888D02*
X168539545Y-54807654D01*
X168539545Y-54807654D02*
X168439396Y-54841036D01*
X168439396Y-54841036D02*
X168272482Y-54841036D01*
D10*
X120874819Y-82646666D02*
X120398628Y-82979999D01*
X120874819Y-83218094D02*
X119874819Y-83218094D01*
X119874819Y-83218094D02*
X119874819Y-82837142D01*
X119874819Y-82837142D02*
X119922438Y-82741904D01*
X119922438Y-82741904D02*
X119970057Y-82694285D01*
X119970057Y-82694285D02*
X120065295Y-82646666D01*
X120065295Y-82646666D02*
X120208152Y-82646666D01*
X120208152Y-82646666D02*
X120303390Y-82694285D01*
X120303390Y-82694285D02*
X120351009Y-82741904D01*
X120351009Y-82741904D02*
X120398628Y-82837142D01*
X120398628Y-82837142D02*
X120398628Y-83218094D01*
X120874819Y-81694285D02*
X120874819Y-82265713D01*
X120874819Y-81979999D02*
X119874819Y-81979999D01*
X119874819Y-81979999D02*
X120017676Y-82075237D01*
X120017676Y-82075237D02*
X120112914Y-82170475D01*
X120112914Y-82170475D02*
X120160533Y-82265713D01*
X147814819Y-73476666D02*
X147338628Y-73809999D01*
X147814819Y-74048094D02*
X146814819Y-74048094D01*
X146814819Y-74048094D02*
X146814819Y-73667142D01*
X146814819Y-73667142D02*
X146862438Y-73571904D01*
X146862438Y-73571904D02*
X146910057Y-73524285D01*
X146910057Y-73524285D02*
X147005295Y-73476666D01*
X147005295Y-73476666D02*
X147148152Y-73476666D01*
X147148152Y-73476666D02*
X147243390Y-73524285D01*
X147243390Y-73524285D02*
X147291009Y-73571904D01*
X147291009Y-73571904D02*
X147338628Y-73667142D01*
X147338628Y-73667142D02*
X147338628Y-74048094D01*
X146814819Y-73143332D02*
X146814819Y-72524285D01*
X146814819Y-72524285D02*
X147195771Y-72857618D01*
X147195771Y-72857618D02*
X147195771Y-72714761D01*
X147195771Y-72714761D02*
X147243390Y-72619523D01*
X147243390Y-72619523D02*
X147291009Y-72571904D01*
X147291009Y-72571904D02*
X147386247Y-72524285D01*
X147386247Y-72524285D02*
X147624342Y-72524285D01*
X147624342Y-72524285D02*
X147719580Y-72571904D01*
X147719580Y-72571904D02*
X147767200Y-72619523D01*
X147767200Y-72619523D02*
X147814819Y-72714761D01*
X147814819Y-72714761D02*
X147814819Y-73000475D01*
X147814819Y-73000475D02*
X147767200Y-73095713D01*
X147767200Y-73095713D02*
X147719580Y-73143332D01*
D12*
X94759670Y-95321483D02*
X94759670Y-94928630D01*
X95377011Y-94760264D02*
X95377011Y-95321483D01*
X95377011Y-95321483D02*
X94198451Y-95321483D01*
X94198451Y-95321483D02*
X94198451Y-94760264D01*
X94198451Y-94367411D02*
X95377011Y-93581704D01*
X94198451Y-93581704D02*
X95377011Y-94367411D01*
X94198451Y-93301095D02*
X94198451Y-92627632D01*
X95377011Y-92964363D02*
X94198451Y-92964363D01*
X95489255Y-92515389D02*
X95489255Y-91617438D01*
X95377011Y-91336829D02*
X94198451Y-91336829D01*
X94198451Y-91336829D02*
X94198451Y-90887854D01*
X94198451Y-90887854D02*
X94254573Y-90775610D01*
X94254573Y-90775610D02*
X94310695Y-90719488D01*
X94310695Y-90719488D02*
X94422939Y-90663366D01*
X94422939Y-90663366D02*
X94591305Y-90663366D01*
X94591305Y-90663366D02*
X94703549Y-90719488D01*
X94703549Y-90719488D02*
X94759670Y-90775610D01*
X94759670Y-90775610D02*
X94815792Y-90887854D01*
X94815792Y-90887854D02*
X94815792Y-91336829D01*
X95377011Y-90158269D02*
X94198451Y-90158269D01*
X95377011Y-89597050D02*
X94198451Y-89597050D01*
X94198451Y-89597050D02*
X95377011Y-88923587D01*
X95377011Y-88923587D02*
X94198451Y-88923587D01*
X95320890Y-88418490D02*
X95377011Y-88250124D01*
X95377011Y-88250124D02*
X95377011Y-87969515D01*
X95377011Y-87969515D02*
X95320890Y-87857271D01*
X95320890Y-87857271D02*
X95264768Y-87801149D01*
X95264768Y-87801149D02*
X95152524Y-87745027D01*
X95152524Y-87745027D02*
X95040280Y-87745027D01*
X95040280Y-87745027D02*
X94928036Y-87801149D01*
X94928036Y-87801149D02*
X94871914Y-87857271D01*
X94871914Y-87857271D02*
X94815792Y-87969515D01*
X94815792Y-87969515D02*
X94759670Y-88194002D01*
X94759670Y-88194002D02*
X94703549Y-88306246D01*
X94703549Y-88306246D02*
X94647427Y-88362368D01*
X94647427Y-88362368D02*
X94535183Y-88418490D01*
X94535183Y-88418490D02*
X94422939Y-88418490D01*
X94422939Y-88418490D02*
X94310695Y-88362368D01*
X94310695Y-88362368D02*
X94254573Y-88306246D01*
X94254573Y-88306246D02*
X94198451Y-88194002D01*
X94198451Y-88194002D02*
X94198451Y-87913393D01*
X94198451Y-87913393D02*
X94254573Y-87745027D01*
X94198451Y-87015442D02*
X94198451Y-86903199D01*
X94198451Y-86903199D02*
X94254573Y-86790955D01*
X94254573Y-86790955D02*
X94310695Y-86734833D01*
X94310695Y-86734833D02*
X94422939Y-86678711D01*
X94422939Y-86678711D02*
X94647427Y-86622589D01*
X94647427Y-86622589D02*
X94928036Y-86622589D01*
X94928036Y-86622589D02*
X95152524Y-86678711D01*
X95152524Y-86678711D02*
X95264768Y-86734833D01*
X95264768Y-86734833D02*
X95320890Y-86790955D01*
X95320890Y-86790955D02*
X95377011Y-86903199D01*
X95377011Y-86903199D02*
X95377011Y-87015442D01*
X95377011Y-87015442D02*
X95320890Y-87127686D01*
X95320890Y-87127686D02*
X95264768Y-87183808D01*
X95264768Y-87183808D02*
X95152524Y-87239930D01*
X95152524Y-87239930D02*
X94928036Y-87296052D01*
X94928036Y-87296052D02*
X94647427Y-87296052D01*
X94647427Y-87296052D02*
X94422939Y-87239930D01*
X94422939Y-87239930D02*
X94310695Y-87183808D01*
X94310695Y-87183808D02*
X94254573Y-87127686D01*
X94254573Y-87127686D02*
X94198451Y-87015442D01*
D10*
X101994819Y-89032857D02*
X101518628Y-89366190D01*
X101994819Y-89604285D02*
X100994819Y-89604285D01*
X100994819Y-89604285D02*
X100994819Y-89223333D01*
X100994819Y-89223333D02*
X101042438Y-89128095D01*
X101042438Y-89128095D02*
X101090057Y-89080476D01*
X101090057Y-89080476D02*
X101185295Y-89032857D01*
X101185295Y-89032857D02*
X101328152Y-89032857D01*
X101328152Y-89032857D02*
X101423390Y-89080476D01*
X101423390Y-89080476D02*
X101471009Y-89128095D01*
X101471009Y-89128095D02*
X101518628Y-89223333D01*
X101518628Y-89223333D02*
X101518628Y-89604285D01*
X101994819Y-88080476D02*
X101994819Y-88651904D01*
X101994819Y-88366190D02*
X100994819Y-88366190D01*
X100994819Y-88366190D02*
X101137676Y-88461428D01*
X101137676Y-88461428D02*
X101232914Y-88556666D01*
X101232914Y-88556666D02*
X101280533Y-88651904D01*
X100994819Y-87223333D02*
X100994819Y-87413809D01*
X100994819Y-87413809D02*
X101042438Y-87509047D01*
X101042438Y-87509047D02*
X101090057Y-87556666D01*
X101090057Y-87556666D02*
X101232914Y-87651904D01*
X101232914Y-87651904D02*
X101423390Y-87699523D01*
X101423390Y-87699523D02*
X101804342Y-87699523D01*
X101804342Y-87699523D02*
X101899580Y-87651904D01*
X101899580Y-87651904D02*
X101947200Y-87604285D01*
X101947200Y-87604285D02*
X101994819Y-87509047D01*
X101994819Y-87509047D02*
X101994819Y-87318571D01*
X101994819Y-87318571D02*
X101947200Y-87223333D01*
X101947200Y-87223333D02*
X101899580Y-87175714D01*
X101899580Y-87175714D02*
X101804342Y-87128095D01*
X101804342Y-87128095D02*
X101566247Y-87128095D01*
X101566247Y-87128095D02*
X101471009Y-87175714D01*
X101471009Y-87175714D02*
X101423390Y-87223333D01*
X101423390Y-87223333D02*
X101375771Y-87318571D01*
X101375771Y-87318571D02*
X101375771Y-87509047D01*
X101375771Y-87509047D02*
X101423390Y-87604285D01*
X101423390Y-87604285D02*
X101471009Y-87651904D01*
X101471009Y-87651904D02*
X101566247Y-87699523D01*
D11*
X156753149Y-76607641D02*
X156697124Y-76663667D01*
X156697124Y-76663667D02*
X156529048Y-76719692D01*
X156529048Y-76719692D02*
X156416998Y-76719692D01*
X156416998Y-76719692D02*
X156248923Y-76663667D01*
X156248923Y-76663667D02*
X156136872Y-76551616D01*
X156136872Y-76551616D02*
X156080847Y-76439566D01*
X156080847Y-76439566D02*
X156024822Y-76215465D01*
X156024822Y-76215465D02*
X156024822Y-76047390D01*
X156024822Y-76047390D02*
X156080847Y-75823289D01*
X156080847Y-75823289D02*
X156136872Y-75711239D01*
X156136872Y-75711239D02*
X156248923Y-75599189D01*
X156248923Y-75599189D02*
X156416998Y-75543164D01*
X156416998Y-75543164D02*
X156529048Y-75543164D01*
X156529048Y-75543164D02*
X156697124Y-75599189D01*
X156697124Y-75599189D02*
X156753149Y-75655214D01*
X157761602Y-75543164D02*
X157537501Y-75543164D01*
X157537501Y-75543164D02*
X157425451Y-75599189D01*
X157425451Y-75599189D02*
X157369426Y-75655214D01*
X157369426Y-75655214D02*
X157257375Y-75823289D01*
X157257375Y-75823289D02*
X157201350Y-76047390D01*
X157201350Y-76047390D02*
X157201350Y-76495591D01*
X157201350Y-76495591D02*
X157257375Y-76607641D01*
X157257375Y-76607641D02*
X157313400Y-76663667D01*
X157313400Y-76663667D02*
X157425451Y-76719692D01*
X157425451Y-76719692D02*
X157649551Y-76719692D01*
X157649551Y-76719692D02*
X157761602Y-76663667D01*
X157761602Y-76663667D02*
X157817627Y-76607641D01*
X157817627Y-76607641D02*
X157873652Y-76495591D01*
X157873652Y-76495591D02*
X157873652Y-76215465D01*
X157873652Y-76215465D02*
X157817627Y-76103415D01*
X157817627Y-76103415D02*
X157761602Y-76047390D01*
X157761602Y-76047390D02*
X157649551Y-75991365D01*
X157649551Y-75991365D02*
X157425451Y-75991365D01*
X157425451Y-75991365D02*
X157313400Y-76047390D01*
X157313400Y-76047390D02*
X157257375Y-76103415D01*
X157257375Y-76103415D02*
X157201350Y-76215465D01*
X158321853Y-75655214D02*
X158377878Y-75599189D01*
X158377878Y-75599189D02*
X158489929Y-75543164D01*
X158489929Y-75543164D02*
X158770054Y-75543164D01*
X158770054Y-75543164D02*
X158882105Y-75599189D01*
X158882105Y-75599189D02*
X158938130Y-75655214D01*
X158938130Y-75655214D02*
X158994155Y-75767264D01*
X158994155Y-75767264D02*
X158994155Y-75879315D01*
X158994155Y-75879315D02*
X158938130Y-76047390D01*
X158938130Y-76047390D02*
X158265828Y-76719692D01*
X158265828Y-76719692D02*
X158994155Y-76719692D01*
D16*
X102686027Y-50260310D02*
X102163513Y-50260310D01*
X102424770Y-50260310D02*
X102424770Y-49345910D01*
X102424770Y-49345910D02*
X102337684Y-49476539D01*
X102337684Y-49476539D02*
X102250599Y-49563625D01*
X102250599Y-49563625D02*
X102163513Y-49607168D01*
D10*
X128187142Y-64994819D02*
X127853809Y-64518628D01*
X127615714Y-64994819D02*
X127615714Y-63994819D01*
X127615714Y-63994819D02*
X127996666Y-63994819D01*
X127996666Y-63994819D02*
X128091904Y-64042438D01*
X128091904Y-64042438D02*
X128139523Y-64090057D01*
X128139523Y-64090057D02*
X128187142Y-64185295D01*
X128187142Y-64185295D02*
X128187142Y-64328152D01*
X128187142Y-64328152D02*
X128139523Y-64423390D01*
X128139523Y-64423390D02*
X128091904Y-64471009D01*
X128091904Y-64471009D02*
X127996666Y-64518628D01*
X127996666Y-64518628D02*
X127615714Y-64518628D01*
X129139523Y-64994819D02*
X128568095Y-64994819D01*
X128853809Y-64994819D02*
X128853809Y-63994819D01*
X128853809Y-63994819D02*
X128758571Y-64137676D01*
X128758571Y-64137676D02*
X128663333Y-64232914D01*
X128663333Y-64232914D02*
X128568095Y-64280533D01*
X129996666Y-64328152D02*
X129996666Y-64994819D01*
X129758571Y-63947200D02*
X129520476Y-64661485D01*
X129520476Y-64661485D02*
X130139523Y-64661485D01*
X119514166Y-82164819D02*
X119514166Y-82879104D01*
X119514166Y-82879104D02*
X119466547Y-83021961D01*
X119466547Y-83021961D02*
X119371309Y-83117200D01*
X119371309Y-83117200D02*
X119228452Y-83164819D01*
X119228452Y-83164819D02*
X119133214Y-83164819D01*
X119942738Y-82260057D02*
X119990357Y-82212438D01*
X119990357Y-82212438D02*
X120085595Y-82164819D01*
X120085595Y-82164819D02*
X120323690Y-82164819D01*
X120323690Y-82164819D02*
X120418928Y-82212438D01*
X120418928Y-82212438D02*
X120466547Y-82260057D01*
X120466547Y-82260057D02*
X120514166Y-82355295D01*
X120514166Y-82355295D02*
X120514166Y-82450533D01*
X120514166Y-82450533D02*
X120466547Y-82593390D01*
X120466547Y-82593390D02*
X119895119Y-83164819D01*
X119895119Y-83164819D02*
X120514166Y-83164819D01*
X121402319Y-82161904D02*
X122211842Y-82161904D01*
X122211842Y-82161904D02*
X122307080Y-82114285D01*
X122307080Y-82114285D02*
X122354700Y-82066666D01*
X122354700Y-82066666D02*
X122402319Y-81971428D01*
X122402319Y-81971428D02*
X122402319Y-81780952D01*
X122402319Y-81780952D02*
X122354700Y-81685714D01*
X122354700Y-81685714D02*
X122307080Y-81638095D01*
X122307080Y-81638095D02*
X122211842Y-81590476D01*
X122211842Y-81590476D02*
X121402319Y-81590476D01*
X121402319Y-81209523D02*
X121402319Y-80542857D01*
X121402319Y-80542857D02*
X122402319Y-80971428D01*
X177114819Y-65571904D02*
X177924342Y-65571904D01*
X177924342Y-65571904D02*
X178019580Y-65524285D01*
X178019580Y-65524285D02*
X178067200Y-65476666D01*
X178067200Y-65476666D02*
X178114819Y-65381428D01*
X178114819Y-65381428D02*
X178114819Y-65190952D01*
X178114819Y-65190952D02*
X178067200Y-65095714D01*
X178067200Y-65095714D02*
X178019580Y-65048095D01*
X178019580Y-65048095D02*
X177924342Y-65000476D01*
X177924342Y-65000476D02*
X177114819Y-65000476D01*
X177448152Y-64095714D02*
X178114819Y-64095714D01*
X177067200Y-64333809D02*
X177781485Y-64571904D01*
X177781485Y-64571904D02*
X177781485Y-63952857D01*
D17*
%TO.C,J4*%
X176420000Y-49000000D02*
G75*
G02*
X176220000Y-49000000I-100000J0D01*
G01*
X176220000Y-49000000D02*
G75*
G02*
X176420000Y-49000000I100000J0D01*
G01*
X177540000Y-45650000D02*
X177540000Y-44400000D01*
X177540000Y-41680000D02*
X177540000Y-40400000D01*
X168600000Y-45650000D02*
X168600000Y-44400000D01*
X168600000Y-40400000D02*
X168600000Y-41680000D01*
D18*
%TO.C,J5*%
X132412500Y-91475000D02*
X132412500Y-89175000D01*
X130512500Y-87375000D02*
X131512500Y-87375000D01*
X130512500Y-86325000D02*
X130512500Y-87375000D01*
X126398024Y-87386461D02*
X125398024Y-87386461D01*
X124512500Y-91475000D02*
X132412500Y-91475000D01*
X124512500Y-89175000D02*
X124512500Y-91475000D01*
D19*
%TO.C,R2*%
X115927500Y-82197742D02*
X115927500Y-82672258D01*
X116972500Y-82197742D02*
X116972500Y-82672258D01*
%TO.C,SW1*%
X106300000Y-59430000D02*
X106300000Y-57810000D01*
X106300000Y-61970000D02*
X106300000Y-61030000D01*
X106300000Y-65190000D02*
X106300000Y-63570000D01*
X111926667Y-60865000D02*
X111926667Y-59595000D01*
X111926667Y-63405000D02*
X111926667Y-62135000D01*
X116200000Y-57810000D02*
X106300000Y-57810000D01*
X116200000Y-59430000D02*
X116200000Y-57810000D01*
X116200000Y-61970000D02*
X116200000Y-61030000D01*
X116200000Y-65190000D02*
X106300000Y-65190000D01*
X116200000Y-65190000D02*
X116200000Y-63570000D01*
X116440000Y-65430000D02*
X115057000Y-65430000D01*
X116440000Y-65430000D02*
X116440000Y-64047000D01*
X113280000Y-60865000D02*
X109220000Y-60865000D01*
X109220000Y-59595000D01*
X113280000Y-59595000D01*
X113280000Y-60865000D01*
X113280000Y-60865000D02*
X111926667Y-60865000D01*
X111926667Y-59595000D01*
X113280000Y-59595000D01*
X113280000Y-60865000D01*
G36*
X113280000Y-60865000D02*
G01*
X111926667Y-60865000D01*
X111926667Y-59595000D01*
X113280000Y-59595000D01*
X113280000Y-60865000D01*
G37*
X113280000Y-63405000D02*
X109220000Y-63405000D01*
X109220000Y-62135000D01*
X113280000Y-62135000D01*
X113280000Y-63405000D01*
X113280000Y-63405000D02*
X111926667Y-63405000D01*
X111926667Y-62135000D01*
X113280000Y-62135000D01*
X113280000Y-63405000D01*
G36*
X113280000Y-63405000D02*
G01*
X111926667Y-63405000D01*
X111926667Y-62135000D01*
X113280000Y-62135000D01*
X113280000Y-63405000D01*
G37*
%TO.C,R3o1*%
X113387500Y-82217742D02*
X113387500Y-82692258D01*
X114432500Y-82217742D02*
X114432500Y-82692258D01*
D20*
%TO.C,C9*%
X179627200Y-77972000D02*
X179627200Y-76371800D01*
X181252800Y-76371800D02*
X181252800Y-77972000D01*
D19*
%TO.C,C7*%
X177959420Y-60970000D02*
X178240580Y-60970000D01*
X177959420Y-61990000D02*
X178240580Y-61990000D01*
D20*
%TO.C,C3*%
X172038000Y-71687200D02*
X173638200Y-71687200D01*
X173638200Y-73312800D02*
X172038000Y-73312800D01*
D19*
%TO.C,J6*%
X176590000Y-84290000D02*
X177920000Y-84290000D01*
X176590000Y-85400000D02*
X176590000Y-84290000D01*
X176590000Y-86860000D02*
X184330000Y-86860000D01*
X176590000Y-95490000D02*
X176590000Y-86860000D01*
X176590000Y-95490000D02*
X184330000Y-95490000D01*
X176710000Y-95490000D02*
X176710000Y-86860000D01*
X176828095Y-95490000D02*
X176828095Y-86860000D01*
X176946190Y-95490000D02*
X176946190Y-86860000D01*
X177064285Y-95490000D02*
X177064285Y-86860000D01*
X177182380Y-95490000D02*
X177182380Y-86860000D01*
X177300475Y-95490000D02*
X177300475Y-86860000D01*
X177418570Y-95490000D02*
X177418570Y-86860000D01*
X177536665Y-95490000D02*
X177536665Y-86860000D01*
X177560000Y-86860000D02*
X177560000Y-86510000D01*
X177654760Y-95490000D02*
X177654760Y-86860000D01*
X177772855Y-95490000D02*
X177772855Y-86860000D01*
X177890950Y-95490000D02*
X177890950Y-86860000D01*
X178009045Y-95490000D02*
X178009045Y-86860000D01*
X178127140Y-95490000D02*
X178127140Y-86860000D01*
X178245235Y-95490000D02*
X178245235Y-86860000D01*
X178280000Y-86860000D02*
X178280000Y-86510000D01*
X178363330Y-95490000D02*
X178363330Y-86860000D01*
X178481425Y-95490000D02*
X178481425Y-86860000D01*
X178599520Y-95490000D02*
X178599520Y-86860000D01*
X178717615Y-95490000D02*
X178717615Y-86860000D01*
X178835710Y-95490000D02*
X178835710Y-86860000D01*
X178953805Y-95490000D02*
X178953805Y-86860000D01*
X179071900Y-95490000D02*
X179071900Y-86860000D01*
X179190000Y-95490000D02*
X179190000Y-86860000D01*
X180100000Y-86860000D02*
X180100000Y-86450000D01*
X180820000Y-86860000D02*
X180820000Y-86450000D01*
X181730000Y-95490000D02*
X181730000Y-86860000D01*
X182640000Y-86860000D02*
X182640000Y-86450000D01*
X183360000Y-86860000D02*
X183360000Y-86450000D01*
X184330000Y-95490000D02*
X184330000Y-86860000D01*
%TO.C,C4*%
X175360000Y-72749420D02*
X175360000Y-73030580D01*
X176380000Y-72749420D02*
X176380000Y-73030580D01*
%TO.C,R4*%
X143197500Y-73032742D02*
X143197500Y-73507258D01*
X144242500Y-73032742D02*
X144242500Y-73507258D01*
%TO.C,R26*%
X126647500Y-76007258D02*
X126647500Y-75532742D01*
X127692500Y-76007258D02*
X127692500Y-75532742D01*
D20*
%TO.C,C55*%
X160608000Y-71077200D02*
X162208200Y-71077200D01*
X162208200Y-72702800D02*
X160608000Y-72702800D01*
D19*
%TO.C,R15*%
X110477500Y-88132742D02*
X110477500Y-88607258D01*
X111522500Y-88132742D02*
X111522500Y-88607258D01*
D21*
%TO.C,R/W0*%
X87155000Y-56410000D02*
X92870000Y-56410000D01*
X87155000Y-58950000D02*
X92870000Y-58950000D01*
D22*
X93505000Y-55140000D02*
X93505000Y-57680000D01*
X93505000Y-57680000D02*
X93505000Y-60220000D01*
X93505000Y-60220000D02*
X96045000Y-60220000D01*
X96045000Y-55140000D02*
X93505000Y-55140000D01*
X96045000Y-57680000D02*
X93505000Y-57680000D01*
X96045000Y-57680000D02*
X96045000Y-55140000D01*
X96045000Y-60220000D02*
X96045000Y-57680000D01*
D23*
G36*
X93505000Y-56791000D02*
G01*
X92997000Y-56791000D01*
X92997000Y-56029000D01*
X93505000Y-56029000D01*
X93505000Y-56791000D01*
G37*
G36*
X93505000Y-59331000D02*
G01*
X92997000Y-59331000D01*
X92997000Y-58569000D01*
X93505000Y-58569000D01*
X93505000Y-59331000D01*
G37*
G36*
X97061000Y-56791000D02*
G01*
X96045000Y-56791000D01*
X96045000Y-56029000D01*
X97061000Y-56029000D01*
X97061000Y-56791000D01*
G37*
G36*
X97061000Y-59331000D02*
G01*
X96045000Y-59331000D01*
X96045000Y-58569000D01*
X97061000Y-58569000D01*
X97061000Y-59331000D01*
G37*
D24*
%TO.C,IC1*%
X134200000Y-55950000D02*
X134950000Y-55200000D01*
X134200000Y-68950000D02*
X134200000Y-55950000D01*
X134450000Y-69200000D02*
X134200000Y-68950000D01*
X134950000Y-55200000D02*
X147950000Y-55200000D01*
X147950000Y-55200000D02*
X148200000Y-55450000D01*
X147950000Y-69200000D02*
X134450000Y-69200000D01*
X148200000Y-55450000D02*
X148200000Y-68950000D01*
X148200000Y-68950000D02*
X147950000Y-69200000D01*
X135449900Y-56200000D02*
G75*
G02*
X134950100Y-56200000I-249900J0D01*
G01*
X134950100Y-56200000D02*
G75*
G02*
X135449900Y-56200000I249900J0D01*
G01*
D20*
%TO.C,C61*%
X163907200Y-84892000D02*
X163907200Y-83291800D01*
X165532800Y-83291800D02*
X165532800Y-84892000D01*
D19*
%TO.C,R25*%
X182467500Y-81862258D02*
X182467500Y-81387742D01*
X183512500Y-81862258D02*
X183512500Y-81387742D01*
%TO.C,R24*%
X171824758Y-82087500D02*
X171350242Y-82087500D01*
X171824758Y-83132500D02*
X171350242Y-83132500D01*
%TO.C,D2*%
X153670000Y-80397500D02*
X153670000Y-83082500D01*
X153670000Y-83082500D02*
X155590000Y-83082500D01*
X155590000Y-83082500D02*
X155590000Y-80397500D01*
D20*
%TO.C,C71*%
X149897200Y-81658200D02*
X149897200Y-80058000D01*
X151522800Y-80058000D02*
X151522800Y-81658200D01*
D19*
%TO.C,R9*%
X154107500Y-84682742D02*
X154107500Y-85157258D01*
X155152500Y-84682742D02*
X155152500Y-85157258D01*
D20*
%TO.C,C63*%
X161748000Y-77157200D02*
X163348200Y-77157200D01*
X163348200Y-78782800D02*
X161748000Y-78782800D01*
D19*
%TO.C,J3*%
X136352500Y-88915000D02*
X136352500Y-91575000D01*
X136352500Y-91575000D02*
X149172500Y-91575000D01*
X137302500Y-88517929D02*
X137302500Y-88915000D01*
X137302500Y-97575000D02*
X137302500Y-91575000D01*
X138062500Y-88517929D02*
X138062500Y-88915000D01*
X138062500Y-91575000D02*
X138062500Y-97575000D01*
X138062500Y-97575000D02*
X137302500Y-97575000D01*
X138952500Y-88915000D02*
X138952500Y-91575000D01*
X139842500Y-88517929D02*
X139842500Y-88915000D01*
X139842500Y-97575000D02*
X139842500Y-91575000D01*
X140602500Y-88517929D02*
X140602500Y-88915000D01*
X140602500Y-91575000D02*
X140602500Y-97575000D01*
X140602500Y-97575000D02*
X139842500Y-97575000D01*
X141492500Y-88915000D02*
X141492500Y-91575000D01*
X142382500Y-88517929D02*
X142382500Y-88915000D01*
X142382500Y-97575000D02*
X142382500Y-91575000D01*
X143142500Y-88517929D02*
X143142500Y-88915000D01*
X143142500Y-91575000D02*
X143142500Y-97575000D01*
X143142500Y-97575000D02*
X142382500Y-97575000D01*
X144032500Y-88915000D02*
X144032500Y-91575000D01*
X144922500Y-88517929D02*
X144922500Y-88915000D01*
X144922500Y-97575000D02*
X144922500Y-91575000D01*
X145682500Y-88517929D02*
X145682500Y-88915000D01*
X145682500Y-91575000D02*
X145682500Y-97575000D01*
X145682500Y-97575000D02*
X144922500Y-97575000D01*
X146572500Y-88915000D02*
X146572500Y-91575000D01*
X147462500Y-88585000D02*
X147462500Y-88915000D01*
X147462500Y-97575000D02*
X147462500Y-91575000D01*
X147562500Y-91575000D02*
X147562500Y-97575000D01*
X147682500Y-91575000D02*
X147682500Y-97575000D01*
X147802500Y-91575000D02*
X147802500Y-97575000D01*
X147842500Y-86205000D02*
X149112500Y-86205000D01*
X147922500Y-91575000D02*
X147922500Y-97575000D01*
X148042500Y-91575000D02*
X148042500Y-97575000D01*
X148162500Y-91575000D02*
X148162500Y-97575000D01*
X148222500Y-88585000D02*
X148222500Y-88915000D01*
X148222500Y-91575000D02*
X148222500Y-97575000D01*
X148222500Y-97575000D02*
X147462500Y-97575000D01*
X149112500Y-86205000D02*
X149112500Y-87475000D01*
X149172500Y-88915000D02*
X136352500Y-88915000D01*
X149172500Y-91575000D02*
X149172500Y-88915000D01*
%TO.C,R21*%
X173337500Y-63442258D02*
X173337500Y-62967742D01*
X174382500Y-63442258D02*
X174382500Y-62967742D01*
%TO.C,R13*%
X129047258Y-61007500D02*
X128572742Y-61007500D01*
X129047258Y-62052500D02*
X128572742Y-62052500D01*
D20*
%TO.C,C10*%
X136068000Y-74817200D02*
X137668200Y-74817200D01*
X137668200Y-76442800D02*
X136068000Y-76442800D01*
%TO.C,C31*%
X105128000Y-49387200D02*
X106728200Y-49387200D01*
X106728200Y-51012800D02*
X105128000Y-51012800D01*
%TO.C,C56*%
X165348000Y-69707200D02*
X166948200Y-69707200D01*
X166948200Y-71332800D02*
X165348000Y-71332800D01*
%TO.C,C51*%
X136738000Y-50027200D02*
X138338200Y-50027200D01*
X138338200Y-51652800D02*
X136738000Y-51652800D01*
D10*
%TO.C,D6*%
X170350000Y-67180000D02*
X170350000Y-70480000D01*
X170350000Y-67180000D02*
X175860000Y-67180000D01*
X170350000Y-70480000D02*
X175860000Y-70480000D01*
D19*
%TO.C,D3*%
X129040000Y-73195000D02*
X129040000Y-75880000D01*
X130960000Y-73195000D02*
X129040000Y-73195000D01*
X130960000Y-75880000D02*
X130960000Y-73195000D01*
D25*
%TO.C,QG1*%
X142870000Y-79382000D02*
X142870000Y-82118000D01*
X144394000Y-84150000D02*
X146146000Y-84150000D01*
X146146000Y-77350000D02*
X144394000Y-77350000D01*
X147670000Y-82118000D02*
X147670000Y-79382000D01*
D24*
X146159000Y-83544000D02*
G75*
G02*
X145905000Y-83544000I-127000J0D01*
G01*
X145905000Y-83544000D02*
G75*
G02*
X146159000Y-83544000I127000J0D01*
G01*
D19*
%TO.C,R28*%
X179907500Y-81862258D02*
X179907500Y-81387742D01*
X180952500Y-81862258D02*
X180952500Y-81387742D01*
%TO.C,R12*%
X129047258Y-59407500D02*
X128572742Y-59407500D01*
X129047258Y-60452500D02*
X128572742Y-60452500D01*
%TO.C,L1*%
X167680000Y-49200000D02*
X178280000Y-49200000D01*
X167680000Y-52400000D02*
X167680000Y-49200000D01*
X167680000Y-59800000D02*
X167680000Y-56600000D01*
X178280000Y-49200000D02*
X178280000Y-52400000D01*
X178280000Y-56600000D02*
X178280000Y-59800000D01*
X178280000Y-59800000D02*
X167680000Y-59800000D01*
D20*
%TO.C,C53*%
X155591800Y-49087200D02*
X157192000Y-49087200D01*
X157192000Y-50712800D02*
X155591800Y-50712800D01*
%TO.C,SW2*%
D19*
X164190000Y-86210000D02*
X174410000Y-86210000D01*
X174410000Y-88930000D01*
X164190000Y-88930000D01*
X164190000Y-86210000D01*
D20*
%TO.C,C41*%
X115738000Y-66187200D02*
X117338200Y-66187200D01*
X117338200Y-67812800D02*
X115738000Y-67812800D01*
D22*
%TO.C,U3*%
X124862400Y-64057600D02*
X124862400Y-64286200D01*
X124862400Y-69213800D02*
X124862400Y-69442400D01*
X124862400Y-69442400D02*
X129637600Y-69442400D01*
X129637600Y-64057600D02*
X124862400Y-64057600D01*
X129637600Y-64286200D02*
X129637600Y-64057600D01*
X129637600Y-69442400D02*
X129637600Y-69213800D01*
D19*
%TO.C,RV1*%
X167300000Y-60720000D02*
X168580000Y-60720000D01*
X167300000Y-64440000D02*
X167300000Y-60720000D01*
X167680000Y-64440000D02*
X167300000Y-64440000D01*
X170180000Y-64440000D02*
X169440000Y-64440000D01*
X171040000Y-60720000D02*
X172320000Y-60720000D01*
X172320000Y-60720000D02*
X172320000Y-64440000D01*
X172320000Y-64440000D02*
X171940000Y-64440000D01*
%TO.C,R10*%
X131487500Y-75227258D02*
X131487500Y-74752742D01*
X132532500Y-75227258D02*
X132532500Y-74752742D01*
D20*
%TO.C,C11*%
X182177200Y-77972000D02*
X182177200Y-76371800D01*
X183802800Y-76371800D02*
X183802800Y-77972000D01*
%TO.C,C54*%
X132161800Y-50017200D02*
X133762000Y-50017200D01*
X133762000Y-51642800D02*
X132161800Y-51642800D01*
D19*
%TO.C,R17*%
X102070000Y-83087742D02*
X102070000Y-83562258D01*
X103115000Y-83087742D02*
X103115000Y-83562258D01*
D25*
%TO.C,P1*%
X156523400Y-82819000D02*
X163076600Y-82819000D01*
X156523400Y-86121000D02*
X156523400Y-82819000D01*
X163076600Y-82819000D02*
X163076600Y-86121000D01*
X163076600Y-86121000D02*
X156523400Y-86121000D01*
D19*
%TO.C,R18*%
X104617500Y-83032742D02*
X104617500Y-83507258D01*
X105662500Y-83032742D02*
X105662500Y-83507258D01*
D25*
%TO.C,QG2*%
X133660000Y-79494000D02*
X133660000Y-81246000D01*
X135692000Y-82770000D02*
X138428000Y-82770000D01*
X138428000Y-77970000D02*
X135692000Y-77970000D01*
X140460000Y-81246000D02*
X140460000Y-79494000D01*
D24*
X139981000Y-79608000D02*
G75*
G02*
X139727000Y-79608000I-127000J0D01*
G01*
X139727000Y-79608000D02*
G75*
G02*
X139981000Y-79608000I127000J0D01*
G01*
D19*
%TO.C,Q3*%
X166095000Y-79690000D02*
X166095000Y-78890000D01*
X166095000Y-79690000D02*
X166095000Y-80490000D01*
X169215000Y-79690000D02*
X169215000Y-78890000D01*
X169215000Y-79690000D02*
X169215000Y-80490000D01*
X169495000Y-78630000D02*
X169165000Y-78390000D01*
X169495000Y-78150000D01*
X169495000Y-78630000D01*
G36*
X169495000Y-78630000D02*
G01*
X169165000Y-78390000D01*
X169495000Y-78150000D01*
X169495000Y-78630000D01*
G37*
%TO.C,R27*%
X124527500Y-76007258D02*
X124527500Y-75532742D01*
X125572500Y-76007258D02*
X125572500Y-75532742D01*
%TO.C,R11*%
X129047258Y-70157500D02*
X128572742Y-70157500D01*
X129047258Y-71202500D02*
X128572742Y-71202500D01*
D20*
%TO.C,C42*%
X117957200Y-62502000D02*
X117957200Y-60901800D01*
X119582800Y-60901800D02*
X119582800Y-62502000D01*
D26*
%TO.C,J1*%
X101302500Y-85385000D02*
X108922500Y-85385000D01*
X101302500Y-90465000D02*
X101302500Y-85385000D01*
X108922500Y-85385000D02*
X108922500Y-90465000D01*
X108922500Y-90465000D02*
X101302500Y-90465000D01*
D17*
X100842500Y-89195000D02*
G75*
G02*
X100642500Y-89195000I-100000J0D01*
G01*
X100642500Y-89195000D02*
G75*
G02*
X100842500Y-89195000I100000J0D01*
G01*
D26*
%TO.C,A1*%
X162185000Y-45405000D02*
X162185000Y-66995000D01*
D22*
X162820000Y-50485000D02*
X162820000Y-49215000D01*
X162820000Y-51755000D02*
X163455000Y-51120000D01*
X162820000Y-53025000D02*
X162820000Y-51755000D01*
X162820000Y-54295000D02*
X163455000Y-53660000D01*
X162820000Y-55565000D02*
X162820000Y-54295000D01*
X162820000Y-58105000D02*
X162820000Y-56835000D01*
X162820000Y-59375000D02*
X163455000Y-58740000D01*
X162820000Y-60645000D02*
X162820000Y-59375000D01*
X162820000Y-63185000D02*
X162820000Y-61915000D01*
X163455000Y-48580000D02*
X162820000Y-49215000D01*
X163455000Y-51120000D02*
X162820000Y-50485000D01*
X163455000Y-53660000D02*
X162820000Y-53025000D01*
X163455000Y-56200000D02*
X162820000Y-55565000D01*
X163455000Y-56200000D02*
X162820000Y-56835000D01*
X163455000Y-58740000D02*
X162820000Y-58105000D01*
X163455000Y-61280000D02*
X162820000Y-60645000D01*
X163455000Y-61280000D02*
X162820000Y-61915000D01*
X163455000Y-63820000D02*
X162820000Y-63185000D01*
X164725000Y-48580000D02*
X163455000Y-48580000D01*
X164725000Y-51120000D02*
X163455000Y-51120000D01*
X164725000Y-51120000D02*
X165360000Y-51755000D01*
X164725000Y-53660000D02*
X163455000Y-53660000D01*
X164725000Y-53660000D02*
X165360000Y-54295000D01*
X164725000Y-56200000D02*
X163455000Y-56200000D01*
X164725000Y-58740000D02*
X163455000Y-58740000D01*
X164725000Y-58740000D02*
X165360000Y-59375000D01*
X164725000Y-61280000D02*
X163455000Y-61280000D01*
X164725000Y-63820000D02*
X163455000Y-63820000D01*
D26*
X164725000Y-69535000D02*
X181235000Y-69535000D01*
D22*
X165360000Y-49215000D02*
X164725000Y-48580000D01*
X165360000Y-49215000D02*
X165360000Y-50485000D01*
X165360000Y-50485000D02*
X164725000Y-51120000D01*
X165360000Y-51755000D02*
X165360000Y-53025000D01*
X165360000Y-53025000D02*
X164725000Y-53660000D01*
X165360000Y-54295000D02*
X165360000Y-55565000D01*
X165360000Y-55565000D02*
X164725000Y-56200000D01*
X165360000Y-56835000D02*
X164725000Y-56200000D01*
X165360000Y-56835000D02*
X165360000Y-58105000D01*
X165360000Y-58105000D02*
X164725000Y-58740000D01*
X165360000Y-59375000D02*
X165360000Y-60645000D01*
X165360000Y-60645000D02*
X164725000Y-61280000D01*
X165360000Y-61915000D02*
X164725000Y-61280000D01*
X165360000Y-61915000D02*
X165360000Y-63185000D01*
X165360000Y-63185000D02*
X164725000Y-63820000D01*
X180600000Y-51755000D02*
X181235000Y-51120000D01*
X180600000Y-53025000D02*
X180600000Y-51755000D01*
X180600000Y-53025000D02*
X181235000Y-53660000D01*
X180600000Y-54295000D02*
X181235000Y-53660000D01*
X180600000Y-55565000D02*
X180600000Y-54295000D01*
X180600000Y-56835000D02*
X181235000Y-56200000D01*
X180600000Y-58105000D02*
X180600000Y-56835000D01*
X180600000Y-59375000D02*
X181235000Y-58740000D01*
X180600000Y-60645000D02*
X180600000Y-59375000D01*
X180600000Y-60645000D02*
X181235000Y-61280000D01*
D26*
X181235000Y-42865000D02*
X164725000Y-42865000D01*
D22*
X181235000Y-51120000D02*
X182505000Y-51120000D01*
X181235000Y-53660000D02*
X182505000Y-53660000D01*
X181235000Y-56200000D02*
X180600000Y-55565000D01*
X181235000Y-56200000D02*
X182505000Y-56200000D01*
X181235000Y-58740000D02*
X180600000Y-58105000D01*
X181235000Y-58740000D02*
X182505000Y-58740000D01*
X181235000Y-61280000D02*
X182505000Y-61280000D01*
X182505000Y-51120000D02*
X183140000Y-51755000D01*
X182505000Y-53660000D02*
X183140000Y-53025000D01*
X182505000Y-53660000D02*
X183140000Y-54295000D01*
X182505000Y-56200000D02*
X183140000Y-56835000D01*
X182505000Y-58740000D02*
X183140000Y-59375000D01*
X182505000Y-61280000D02*
X183140000Y-60645000D01*
X183140000Y-51755000D02*
X183140000Y-53025000D01*
X183140000Y-54295000D02*
X183140000Y-55565000D01*
X183140000Y-55565000D02*
X182505000Y-56200000D01*
X183140000Y-56835000D02*
X183140000Y-58105000D01*
X183140000Y-58105000D02*
X182505000Y-58740000D01*
X183140000Y-59375000D02*
X183140000Y-60645000D01*
D26*
X183775000Y-66995000D02*
X183775000Y-45405000D01*
X162185000Y-45405000D02*
G75*
G02*
X164725000Y-42865000I2540001J-1D01*
G01*
X164725000Y-69535000D02*
G75*
G02*
X162185000Y-66995000I1J2540001D01*
G01*
X181235000Y-42865000D02*
G75*
G02*
X183775000Y-45405000I0J-2540000D01*
G01*
X183775000Y-66995000D02*
G75*
G02*
X181235000Y-69535000I-2540000J0D01*
G01*
D19*
%TO.C,R1*%
X118467500Y-82242742D02*
X118467500Y-82717258D01*
X119512500Y-82242742D02*
X119512500Y-82717258D01*
D10*
%TO.C,D1*%
X178380000Y-67180000D02*
X178380000Y-70480000D01*
X178380000Y-67180000D02*
X183890000Y-67180000D01*
X178380000Y-70480000D02*
X183890000Y-70480000D01*
D19*
%TO.C,R3*%
X145407500Y-73072742D02*
X145407500Y-73547258D01*
X146452500Y-73072742D02*
X146452500Y-73547258D01*
D22*
%TO.C,EXT_PINS0*%
X93450000Y-75465000D02*
X94085000Y-74830000D01*
X93450000Y-76735000D02*
X93450000Y-75465000D01*
X93450000Y-78005000D02*
X94085000Y-77370000D01*
X93450000Y-79275000D02*
X93450000Y-78005000D01*
X93450000Y-80545000D02*
X94085000Y-79910000D01*
X93450000Y-81815000D02*
X93450000Y-80545000D01*
X93450000Y-83085000D02*
X94085000Y-82450000D01*
X93450000Y-84355000D02*
X93450000Y-83085000D01*
X93450000Y-85625000D02*
X94085000Y-84990000D01*
X93450000Y-86895000D02*
X93450000Y-85625000D01*
X94085000Y-74830000D02*
X97895000Y-74830000D01*
X94085000Y-77370000D02*
X93450000Y-76735000D01*
X94085000Y-77370000D02*
X97895000Y-77370000D01*
X94085000Y-79910000D02*
X93450000Y-79275000D01*
X94085000Y-79910000D02*
X97895000Y-79910000D01*
X94085000Y-82450000D02*
X93450000Y-81815000D01*
X94085000Y-82450000D02*
X97895000Y-82450000D01*
X94085000Y-84990000D02*
X93450000Y-84355000D01*
X94085000Y-84990000D02*
X97895000Y-84990000D01*
X94085000Y-87530000D02*
X93450000Y-86895000D01*
X97895000Y-77370000D02*
X98530000Y-76735000D01*
X97895000Y-79910000D02*
X98530000Y-79275000D01*
X97895000Y-82450000D02*
X98530000Y-81815000D01*
X97895000Y-84990000D02*
X98530000Y-84355000D01*
X97895000Y-87530000D02*
X94085000Y-87530000D01*
X97895000Y-87530000D02*
X98530000Y-86895000D01*
X98530000Y-75465000D02*
X97895000Y-74830000D01*
X98530000Y-76735000D02*
X98530000Y-75465000D01*
X98530000Y-78005000D02*
X97895000Y-77370000D01*
X98530000Y-79275000D02*
X98530000Y-78005000D01*
X98530000Y-80545000D02*
X97895000Y-79910000D01*
X98530000Y-81815000D02*
X98530000Y-80545000D01*
X98530000Y-83085000D02*
X97895000Y-82450000D01*
X98530000Y-84355000D02*
X98530000Y-83085000D01*
X98530000Y-85625000D02*
X97895000Y-84990000D01*
X98530000Y-86895000D02*
X98530000Y-85625000D01*
D19*
%TO.C,R16*%
X99587500Y-88152742D02*
X99587500Y-88627258D01*
X100632500Y-88152742D02*
X100632500Y-88627258D01*
D20*
%TO.C,C62*%
X157091800Y-77117200D02*
X158692000Y-77117200D01*
X158692000Y-78742800D02*
X157091800Y-78742800D01*
D24*
%TO.C,IC2*%
X93870000Y-45750000D02*
X93870000Y-69750000D01*
X96870000Y-72750000D02*
X100720000Y-72750000D01*
X100720000Y-72750000D02*
X108220000Y-72750000D01*
D26*
X100970000Y-43710000D02*
X100970000Y-46250000D01*
X100970000Y-46250000D02*
X100970000Y-48790000D01*
X100970000Y-46250000D02*
X103510000Y-46250000D01*
X100970000Y-48790000D02*
X101922500Y-48790000D01*
X101922500Y-48790000D02*
X101922500Y-49107500D01*
X101922500Y-48790000D02*
X102557500Y-48790000D01*
X101922500Y-49107500D02*
X102557500Y-49107500D01*
X102557500Y-48790000D02*
X103510000Y-48790000D01*
X102557500Y-49107500D02*
X102557500Y-48790000D01*
X103510000Y-46250000D02*
X103510000Y-48790000D01*
X103510000Y-48790000D02*
X151770000Y-48790000D01*
D24*
X108220000Y-72750000D02*
X155870000Y-72750000D01*
D26*
X151770000Y-43710000D02*
X100970000Y-43710000D01*
X151770000Y-48790000D02*
X151770000Y-43710000D01*
D24*
X155870000Y-42750000D02*
X96870000Y-42750000D01*
X158870000Y-69750000D02*
X158870000Y-45750000D01*
X93870000Y-45750000D02*
G75*
G02*
X96870000Y-42750000I3000000J0D01*
G01*
X96870000Y-72750000D02*
G75*
G02*
X93870000Y-69750000I0J3000000D01*
G01*
X155870000Y-42750000D02*
G75*
G02*
X158870000Y-45750000I0J-3000000D01*
G01*
X158870000Y-69750000D02*
G75*
G02*
X155870000Y-72750000I-3000000J0D01*
G01*
D19*
%TO.C,R14*%
X129067258Y-62587500D02*
X128592742Y-62587500D01*
X129067258Y-63632500D02*
X128592742Y-63632500D01*
D26*
%TO.C,J2*%
X112632500Y-85395000D02*
X120252500Y-85395000D01*
X112632500Y-90475000D02*
X112632500Y-85395000D01*
X120252500Y-85395000D02*
X120252500Y-90475000D01*
X120252500Y-90475000D02*
X112632500Y-90475000D01*
D17*
X112172500Y-89205000D02*
G75*
G02*
X111972500Y-89205000I-100000J0D01*
G01*
X111972500Y-89205000D02*
G75*
G02*
X112172500Y-89205000I100000J0D01*
G01*
D19*
%TO.C,U7*%
X122787500Y-81400000D02*
X122787500Y-79450000D01*
X122787500Y-81400000D02*
X122787500Y-83350000D01*
X132907500Y-81400000D02*
X132907500Y-79450000D01*
X132907500Y-81400000D02*
X132907500Y-83350000D01*
X122842500Y-84100000D02*
X122512500Y-84340000D01*
X122512500Y-83860000D01*
X122842500Y-84100000D01*
G36*
X122842500Y-84100000D02*
G01*
X122512500Y-84340000D01*
X122512500Y-83860000D01*
X122842500Y-84100000D01*
G37*
%TO.C,U4*%
X178500000Y-64810000D02*
X178500000Y-65610000D01*
X178500000Y-64810000D02*
X178500000Y-64010000D01*
X181620000Y-64810000D02*
X181620000Y-65610000D01*
X181620000Y-64810000D02*
X181620000Y-64010000D01*
X178550000Y-66110000D02*
X178220000Y-66350000D01*
X178220000Y-65870000D01*
X178550000Y-66110000D01*
G36*
X178550000Y-66110000D02*
G01*
X178220000Y-66350000D01*
X178220000Y-65870000D01*
X178550000Y-66110000D01*
G37*
D10*
%TO.C,U8*%
X172670000Y-78260000D02*
X174450000Y-78260000D01*
X172670000Y-81340000D02*
X174450000Y-81340000D01*
X172340000Y-78300000D02*
G75*
G02*
X172280000Y-78300000I-30000J0D01*
G01*
X172280000Y-78300000D02*
G75*
G02*
X172340000Y-78300000I30000J0D01*
G01*
%TD*%
M02*
