%TF.GenerationSoftware,KiCad,Pcbnew,9.0.5*%
%TF.CreationDate,2025-10-27T17:08:41+05:30*%
%TF.ProjectId,cpm_vehicle_pcb,63706d5f-7665-4686-9963-6c655f706362,rev?*%
%TF.SameCoordinates,Original*%
%TF.FileFunction,Copper,L2,Bot*%
%TF.FilePolarity,Positive*%
%FSLAX46Y46*%
G04 Gerber Fmt 4.6, Leading zero omitted, Abs format (unit mm)*
G04 Created by KiCad (PCBNEW 9.0.5) date 2025-10-27 17:08:41*
%MOMM*%
%LPD*%
G01*
G04 APERTURE LIST*
G04 Aperture macros list*
%AMOutline5P*
0 Free polygon, 5 corners , with rotation*
0 The origin of the aperture is its center*
0 number of corners: always 5*
0 $1 to $10 corner X, Y*
0 $11 Rotation angle, in degrees counterclockwise*
0 create outline with 5 corners*
4,1,5,$1,$2,$3,$4,$5,$6,$7,$8,$9,$10,$1,$2,$11*%
%AMOutline6P*
0 Free polygon, 6 corners , with rotation*
0 The origin of the aperture is its center*
0 number of corners: always 6*
0 $1 to $12 corner X, Y*
0 $13 Rotation angle, in degrees counterclockwise*
0 create outline with 6 corners*
4,1,6,$1,$2,$3,$4,$5,$6,$7,$8,$9,$10,$11,$12,$1,$2,$13*%
%AMOutline7P*
0 Free polygon, 7 corners , with rotation*
0 The origin of the aperture is its center*
0 number of corners: always 7*
0 $1 to $14 corner X, Y*
0 $15 Rotation angle, in degrees counterclockwise*
0 create outline with 7 corners*
4,1,7,$1,$2,$3,$4,$5,$6,$7,$8,$9,$10,$11,$12,$13,$14,$1,$2,$15*%
%AMOutline8P*
0 Free polygon, 8 corners , with rotation*
0 The origin of the aperture is its center*
0 number of corners: always 8*
0 $1 to $16 corner X, Y*
0 $17 Rotation angle, in degrees counterclockwise*
0 create outline with 8 corners*
4,1,8,$1,$2,$3,$4,$5,$6,$7,$8,$9,$10,$11,$12,$13,$14,$15,$16,$1,$2,$17*%
G04 Aperture macros list end*
%TA.AperFunction,ComponentPad*%
%ADD10O,1.000000X1.800000*%
%TD*%
%TA.AperFunction,ComponentPad*%
%ADD11O,1.000000X2.100000*%
%TD*%
%TA.AperFunction,ComponentPad*%
%ADD12R,1.700000X1.700000*%
%TD*%
%TA.AperFunction,ComponentPad*%
%ADD13C,1.700000*%
%TD*%
%TA.AperFunction,ComponentPad*%
%ADD14O,3.048000X1.524000*%
%TD*%
%TA.AperFunction,ComponentPad*%
%ADD15O,1.700000X1.700000*%
%TD*%
%TA.AperFunction,ComponentPad*%
%ADD16R,1.500000X1.500000*%
%TD*%
%TA.AperFunction,ComponentPad*%
%ADD17C,1.600000*%
%TD*%
%TA.AperFunction,ComponentPad*%
%ADD18R,1.605000X1.605000*%
%TD*%
%TA.AperFunction,ComponentPad*%
%ADD19C,1.605000*%
%TD*%
%TA.AperFunction,ComponentPad*%
%ADD20Outline8P,-0.762000X0.315631X-0.315631X0.762000X0.315631X0.762000X0.762000X0.315631X0.762000X-0.315631X0.315631X-0.762000X-0.315631X-0.762000X-0.762000X-0.315631X90.000000*%
%TD*%
%TA.AperFunction,ComponentPad*%
%ADD21R,1.778000X1.778000*%
%TD*%
%TA.AperFunction,ComponentPad*%
%ADD22C,1.778000*%
%TD*%
%TA.AperFunction,ViaPad*%
%ADD23C,0.600000*%
%TD*%
%TA.AperFunction,ViaPad*%
%ADD24C,1.300000*%
%TD*%
%TA.AperFunction,ViaPad*%
%ADD25C,2.000000*%
%TD*%
%TA.AperFunction,ViaPad*%
%ADD26C,1.000000*%
%TD*%
%TA.AperFunction,ViaPad*%
%ADD27C,0.700000*%
%TD*%
%TA.AperFunction,ViaPad*%
%ADD28C,0.800000*%
%TD*%
%TA.AperFunction,Conductor*%
%ADD29C,0.800000*%
%TD*%
%TA.AperFunction,Conductor*%
%ADD30C,0.300000*%
%TD*%
%TA.AperFunction,Conductor*%
%ADD31C,0.254000*%
%TD*%
%TA.AperFunction,Conductor*%
%ADD32C,1.300000*%
%TD*%
G04 APERTURE END LIST*
D10*
%TO.P,J4,SH4,SHELL_GND*%
%TO.N,Net-(J4-SHELL_GND-PadSH1)*%
X168750000Y-43000000D03*
%TO.P,J4,SH3,SHELL_GND*%
X177390000Y-43000000D03*
D11*
%TO.P,J4,SH2,SHELL_GND*%
X168750000Y-47180000D03*
%TO.P,J4,SH1,SHELL_GND*%
X177390000Y-47180000D03*
%TD*%
D12*
%TO.P,J6,1,Pin_1*%
%TO.N,B-*%
X177920000Y-85400000D03*
D13*
%TO.P,J6,2,Pin_2*%
%TO.N,BB*%
X180460000Y-85400000D03*
%TO.P,J6,3,Pin_3*%
%TO.N,B+*%
X183000000Y-85400000D03*
%TD*%
D14*
%TO.P,R/W0,1,1*%
%TO.N,GND*%
X97950000Y-58950000D03*
%TO.P,R/W0,2,2*%
%TO.N,/MODE*%
X97950000Y-56410000D03*
%TD*%
D12*
%TO.P,J3,1,Pin_1*%
%TO.N,/PWM*%
X147842500Y-87475000D03*
D15*
%TO.P,J3,2,Pin_2*%
%TO.N,vcc_bat*%
X145302500Y-87475000D03*
%TO.P,J3,3,Pin_3*%
%TO.N,GND*%
X142762500Y-87475000D03*
%TO.P,J3,4,Pin_4*%
X140222500Y-87475000D03*
%TO.P,J3,5,Pin_5*%
%TO.N,/SERVO_PWM*%
X137682500Y-87475000D03*
%TD*%
D16*
%TO.P,SW2,1,B*%
%TO.N,B+*%
X169300000Y-87570000D03*
D17*
%TO.P,SW2,2,C*%
%TO.N,vcc_bat*%
X166760000Y-87570000D03*
%TO.P,SW2,3,A*%
%TO.N,+8.5V*%
X171840000Y-87570000D03*
%TD*%
D18*
%TO.P,J1,1,Pin_1*%
%TO.N,+5V*%
X102572500Y-89195000D03*
D19*
%TO.P,J1,2,Pin_2*%
%TO.N,/LED3_PIN*%
X102572500Y-86655000D03*
%TO.P,J1,3,Pin_3*%
%TO.N,/LED2_PIN*%
X105112500Y-89195000D03*
%TO.P,J1,4,Pin_4*%
%TO.N,/LED4_PIN*%
X105112500Y-86655000D03*
%TO.P,J1,5,Pin_5*%
%TO.N,/LED1_PIN*%
X107652500Y-89195000D03*
%TO.P,J1,6,Pin_6*%
%TO.N,GND*%
X107652500Y-86655000D03*
%TD*%
D14*
%TO.P,A1,1,VIN@1*%
%TO.N,+5V*%
X164090000Y-49850000D03*
%TO.P,A1,2,3VO@2*%
%TO.N,unconnected-(A1-3VO@2-Pad2)*%
X164090000Y-52390000D03*
%TO.P,A1,3,GND@3*%
%TO.N,GND*%
X164090000Y-54930000D03*
%TO.P,A1,4,SDA@4*%
%TO.N,/SDA*%
X164090000Y-57470000D03*
%TO.P,A1,5,SCL@5*%
%TO.N,/SCL*%
X164090000Y-60010000D03*
%TO.P,A1,6,RST@6*%
%TO.N,unconnected-(A1-RST@6-Pad6)*%
X164090000Y-62550000D03*
%TO.P,A1,7,ADR@7*%
%TO.N,unconnected-(A1-ADR@7-Pad7)*%
X181870000Y-60010000D03*
%TO.P,A1,8,INT@8*%
%TO.N,unconnected-(A1-INT@8-Pad8)*%
X181870000Y-57470000D03*
%TO.P,A1,9,PS1@9*%
%TO.N,unconnected-(A1-PS1@9-Pad9)*%
X181870000Y-54930000D03*
%TO.P,A1,10,PS0@10*%
%TO.N,unconnected-(A1-PS0@10-Pad10)*%
X181870000Y-52390000D03*
%TD*%
D20*
%TO.P,EXT_PINS0,1,1*%
%TO.N,+5V*%
X97260000Y-86260000D03*
%TO.P,EXT_PINS0,2,2*%
%TO.N,GND*%
X94720000Y-86260000D03*
%TO.P,EXT_PINS0,3,3*%
%TO.N,/ERW5*%
X97260000Y-83720000D03*
%TO.P,EXT_PINS0,4,4*%
%TO.N,/ERW1*%
X94720000Y-83720000D03*
%TO.P,EXT_PINS0,5,5*%
%TO.N,/ERW6*%
X97260000Y-81180000D03*
%TO.P,EXT_PINS0,6,6*%
%TO.N,/ERW2*%
X94720000Y-81180000D03*
%TO.P,EXT_PINS0,7,7*%
%TO.N,/ERW7*%
X97260000Y-78640000D03*
%TO.P,EXT_PINS0,8,8*%
%TO.N,/ERW3*%
X94720000Y-78640000D03*
%TO.P,EXT_PINS0,9,9*%
%TO.N,/ERW8*%
X97260000Y-76100000D03*
%TO.P,EXT_PINS0,10,10*%
%TO.N,/ERW4*%
X94720000Y-76100000D03*
%TD*%
D21*
%TO.P,IC2,1,3V3@1*%
%TO.N,+3V3*%
X102240000Y-47520000D03*
D22*
%TO.P,IC2,2,5V0@1*%
%TO.N,+5V*%
X102240000Y-44980000D03*
%TO.P,IC2,3,GPIO2/SDA1*%
%TO.N,unconnected-(IC2-GPIO2{slash}SDA1-Pad3)*%
X104780000Y-47520000D03*
%TO.P,IC2,4,5V0@2*%
%TO.N,+5V*%
X104780000Y-44980000D03*
%TO.P,IC2,5,GPIO3/SCL1*%
%TO.N,unconnected-(IC2-GPIO3{slash}SCL1-Pad5)*%
X107320000Y-47520000D03*
%TO.P,IC2,6,GND@8*%
%TO.N,GND*%
X107320000Y-44980000D03*
%TO.P,IC2,7,GPIO4/GCKL*%
%TO.N,unconnected-(IC2-GPIO4{slash}GCKL-Pad7)*%
X109860000Y-47520000D03*
%TO.P,IC2,8,TXD0/GPIO14*%
%TO.N,unconnected-(IC2-TXD0{slash}GPIO14-Pad8)*%
X109860000Y-44980000D03*
%TO.P,IC2,9,GND@1*%
%TO.N,GND*%
X112400000Y-47520000D03*
%TO.P,IC2,10,RXD0/GPIO15*%
%TO.N,unconnected-(IC2-RXD0{slash}GPIO15-Pad10)*%
X112400000Y-44980000D03*
%TO.P,IC2,11,GPIO17/GEN0*%
%TO.N,unconnected-(IC2-GPIO17{slash}GEN0-Pad11)*%
X114940000Y-47520000D03*
%TO.P,IC2,12,GPIO18*%
%TO.N,unconnected-(IC2-GPIO18-Pad12)*%
X114940000Y-44980000D03*
%TO.P,IC2,13,GPIO27/GEN2*%
%TO.N,unconnected-(IC2-GPIO27{slash}GEN2-Pad13)*%
X117480000Y-47520000D03*
%TO.P,IC2,14,GND@4*%
%TO.N,GND*%
X117480000Y-44980000D03*
%TO.P,IC2,15,GPIO22/GEN3*%
%TO.N,unconnected-(IC2-GPIO22{slash}GEN3-Pad15)*%
X120020000Y-47520000D03*
%TO.P,IC2,16,GEN4/GPIO23*%
%TO.N,unconnected-(IC2-GEN4{slash}GPIO23-Pad16)*%
X120020000Y-44980000D03*
%TO.P,IC2,17,3V3@2*%
%TO.N,unconnected-(IC2-3V3@2-Pad17)*%
X122560000Y-47520000D03*
%TO.P,IC2,18,GEN5/GPIO24*%
%TO.N,unconnected-(IC2-GEN5{slash}GPIO24-Pad18)*%
X122560000Y-44980000D03*
%TO.P,IC2,19,GPIO10/MOSI*%
%TO.N,/MOSI_PI*%
X125100000Y-47520000D03*
%TO.P,IC2,20,GND@5*%
%TO.N,GND*%
X125100000Y-44980000D03*
%TO.P,IC2,21,GPIO9/MISO*%
%TO.N,/MISO_PI*%
X127640000Y-47520000D03*
%TO.P,IC2,22,GEN/6GPIO25*%
%TO.N,unconnected-(IC2-GEN{slash}6GPIO25-Pad22)*%
X127640000Y-44980000D03*
%TO.P,IC2,23,GPIO11/SCLK*%
%TO.N,/SCK_PI*%
X130180000Y-47520000D03*
%TO.P,IC2,24,~{CE0}/GPIO8*%
%TO.N,/SS_PI*%
X130180000Y-44980000D03*
%TO.P,IC2,25,GND@2*%
%TO.N,GND*%
X132720000Y-47520000D03*
%TO.P,IC2,26,~{CE}/GPIO7*%
%TO.N,unconnected-(IC2-~{CE}{slash}GPIO7-Pad26)*%
X132720000Y-44980000D03*
%TO.P,IC2,27,ID_SD*%
%TO.N,unconnected-(IC2-ID_SD-Pad27)*%
X135260000Y-47520000D03*
%TO.P,IC2,28,ID_SC*%
%TO.N,unconnected-(IC2-ID_SC-Pad28)*%
X135260000Y-44980000D03*
%TO.P,IC2,29,GPIO5*%
%TO.N,/MODE*%
X137800000Y-47520000D03*
%TO.P,IC2,30,GND@6*%
%TO.N,GND*%
X137800000Y-44980000D03*
%TO.P,IC2,31,GPIO6*%
%TO.N,unconnected-(IC2-GPIO6-Pad31)*%
X140340000Y-47520000D03*
%TO.P,IC2,32,GPIO12*%
%TO.N,unconnected-(IC2-GPIO12-Pad32)*%
X140340000Y-44980000D03*
%TO.P,IC2,33,GPIO13*%
%TO.N,unconnected-(IC2-GPIO13-Pad33)*%
X142880000Y-47520000D03*
%TO.P,IC2,34,GND@7*%
%TO.N,GND*%
X142880000Y-44980000D03*
%TO.P,IC2,35,GPIO19*%
%TO.N,unconnected-(IC2-GPIO19-Pad35)*%
X145420000Y-47520000D03*
%TO.P,IC2,36,GPIO16*%
%TO.N,unconnected-(IC2-GPIO16-Pad36)*%
X145420000Y-44980000D03*
%TO.P,IC2,37,GPIO26*%
%TO.N,unconnected-(IC2-GPIO26-Pad37)*%
X147960000Y-47520000D03*
%TO.P,IC2,38,GPIO20*%
%TO.N,unconnected-(IC2-GPIO20-Pad38)*%
X147960000Y-44980000D03*
%TO.P,IC2,39,GND@3*%
%TO.N,GND*%
X150500000Y-47520000D03*
%TO.P,IC2,40,GPIO21*%
%TO.N,unconnected-(IC2-GPIO21-Pad40)*%
X150500000Y-44980000D03*
%TD*%
D18*
%TO.P,J2,1,Pin_1*%
%TO.N,+5V*%
X113902500Y-89205000D03*
D19*
%TO.P,J2,2,Pin_2*%
%TO.N,/SENSOR3*%
X113902500Y-86665000D03*
%TO.P,J2,3,Pin_3*%
%TO.N,unconnected-(J2-Pin_3-Pad3)*%
X116442500Y-89205000D03*
%TO.P,J2,4,Pin_4*%
%TO.N,/SENSOR2*%
X116442500Y-86665000D03*
%TO.P,J2,5,Pin_5*%
%TO.N,GND*%
X118982500Y-89205000D03*
%TO.P,J2,6,Pin_6*%
%TO.N,/SENSOR1*%
X118982500Y-86665000D03*
%TD*%
D23*
%TO.N,GND*%
X119620000Y-66310000D03*
D24*
X141540000Y-72810000D03*
D25*
X168130000Y-84130000D03*
X118390000Y-78010000D03*
D24*
X145450000Y-65770000D03*
D25*
X152280000Y-84510000D03*
D26*
X170300000Y-78180000D03*
D23*
%TO.N,+5V*%
X137800000Y-67950000D03*
X144790000Y-61390000D03*
X142180000Y-63490000D03*
D27*
X150330000Y-76000000D03*
D28*
X123915000Y-81515000D03*
X129290000Y-89260000D03*
D23*
%TO.N,Net-(U8-VC)*%
X174730000Y-83180000D03*
X179180000Y-79540000D03*
%TO.N,/ERW4*%
X152523522Y-58933679D03*
%TO.N,/ERW8*%
X130880000Y-57560000D03*
%TO.N,/ERW7*%
X130740000Y-58400000D03*
%TO.N,/ERW6*%
X130730000Y-59200000D03*
%TO.N,/ERW1*%
X154650135Y-57669182D03*
%TO.N,/ERW2*%
X153970000Y-57990000D03*
%TO.N,/ERW3*%
X153400000Y-58520000D03*
%TO.N,/ERW5*%
X131330000Y-61030000D03*
%TO.N,/SENSOR3*%
X140670000Y-57610000D03*
X114940000Y-83280000D03*
%TO.N,/TX0*%
X125040000Y-73510000D03*
X135270000Y-57430000D03*
%TO.N,/SENSOR1*%
X120465000Y-83305000D03*
X143730000Y-57620000D03*
%TO.N,/RX0*%
X127150000Y-73410000D03*
X135600000Y-56540000D03*
%TO.N,/SENSOR2*%
X142200000Y-57650000D03*
X117560000Y-83260000D03*
%TO.N,/PWM*%
X134010000Y-72030000D03*
D28*
%TO.N,+3V3*%
X104350000Y-64150000D03*
X127160000Y-67700000D03*
D23*
%TO.N,/SERVO_PWM*%
X133260000Y-72490000D03*
%TO.N,/R12*%
X106070000Y-75850000D03*
X125860000Y-60670000D03*
%TO.N,/R13*%
X126260000Y-61530000D03*
X109070000Y-75350000D03*
%TO.N,/R14*%
X113340000Y-75310000D03*
X126030000Y-62460000D03*
D26*
%TO.N,vcc_bat*%
X162111400Y-90021400D03*
%TO.N,+8.5V*%
X171840000Y-74790000D03*
%TO.N,Net-(U4-SW)*%
X183890000Y-66220000D03*
D24*
X176990000Y-50110000D03*
D28*
X176990000Y-63860000D03*
%TD*%
D29*
%TO.N,+5V*%
X99637500Y-86260000D02*
X102572500Y-89195000D01*
X111922500Y-91185000D02*
X113902500Y-89205000D01*
D30*
X142180000Y-63570000D02*
X142180000Y-63490000D01*
D29*
X102572500Y-89195000D02*
X104562500Y-91185000D01*
D30*
X144790000Y-61390000D02*
X142690000Y-63490000D01*
D29*
X129290000Y-86890000D02*
X129290000Y-89260000D01*
D30*
X137800000Y-67950000D02*
X142180000Y-63570000D01*
D29*
X99637500Y-86260000D02*
X97260000Y-86260000D01*
X104562500Y-91185000D02*
X111922500Y-91185000D01*
X123915000Y-81515000D02*
X129290000Y-86890000D01*
D30*
X142690000Y-63490000D02*
X142180000Y-63490000D01*
D29*
%TO.N,Net-(U8-VC)*%
X175540000Y-83180000D02*
X174730000Y-83180000D01*
X179180000Y-79540000D02*
X175540000Y-83180000D01*
D31*
%TO.N,/ERW4*%
X107570000Y-54940000D02*
X94770000Y-67740000D01*
X152523522Y-58933679D02*
X148529843Y-54940000D01*
X94770000Y-67740000D02*
X94770000Y-76050000D01*
X94770000Y-76050000D02*
X94720000Y-76100000D01*
X148529843Y-54940000D02*
X107570000Y-54940000D01*
%TO.N,/ERW8*%
X115800000Y-57560000D02*
X97260000Y-76100000D01*
X130880000Y-57560000D02*
X115800000Y-57560000D01*
%TO.N,/ERW7*%
X130740000Y-58400000D02*
X116760000Y-58400000D01*
X116760000Y-58400000D02*
X97260000Y-77900000D01*
X97260000Y-77900000D02*
X97260000Y-78640000D01*
%TO.N,/ERW6*%
X97260000Y-80120000D02*
X97260000Y-81180000D01*
X130730000Y-59200000D02*
X118180000Y-59200000D01*
X118180000Y-59200000D02*
X97260000Y-80120000D01*
%TO.N,/ERW1*%
X92610000Y-81610000D02*
X94720000Y-83720000D01*
X150180953Y-53200000D02*
X106740000Y-53200000D01*
X106740000Y-53200000D02*
X92610000Y-67330000D01*
X154650135Y-57669182D02*
X150180953Y-53200000D01*
X92610000Y-67330000D02*
X92610000Y-81610000D01*
%TO.N,/ERW2*%
X149790000Y-53810000D02*
X106990000Y-53810000D01*
X93070000Y-79530000D02*
X94720000Y-81180000D01*
X153970000Y-57990000D02*
X149790000Y-53810000D01*
X106990000Y-53810000D02*
X93070000Y-67730000D01*
X93070000Y-67730000D02*
X93070000Y-79530000D01*
%TO.N,/ERW3*%
X153400000Y-58520000D02*
X149270000Y-54390000D01*
X93527000Y-68223000D02*
X93527000Y-77447000D01*
X107360000Y-54390000D02*
X93527000Y-68223000D01*
X93527000Y-77447000D02*
X94720000Y-78640000D01*
X149270000Y-54390000D02*
X107360000Y-54390000D01*
%TO.N,/ERW5*%
X98302000Y-81611612D02*
X97691612Y-82222000D01*
X119810000Y-60000000D02*
X98302000Y-81508000D01*
X97260000Y-82550000D02*
X97260000Y-83720000D01*
X97691612Y-82222000D02*
X97588000Y-82222000D01*
X131330000Y-60480000D02*
X130850000Y-60000000D01*
X98302000Y-81508000D02*
X98302000Y-81611612D01*
X131330000Y-61030000D02*
X131330000Y-60480000D01*
X97588000Y-82222000D02*
X97260000Y-82550000D01*
X130850000Y-60000000D02*
X119810000Y-60000000D01*
%TO.N,/SENSOR3*%
X117810244Y-82690000D02*
X117800244Y-82680000D01*
X119684171Y-82690000D02*
X117810244Y-82690000D01*
X117309756Y-82690000D02*
X115530000Y-82690000D01*
X115530000Y-82690000D02*
X114940000Y-83280000D01*
X140670000Y-61730000D02*
X120082000Y-82318000D01*
X140670000Y-57610000D02*
X140670000Y-61730000D01*
X117319756Y-82680000D02*
X117309756Y-82690000D01*
X120082000Y-82318000D02*
X120056171Y-82318000D01*
X120056171Y-82318000D02*
X119684171Y-82690000D01*
X117800244Y-82680000D02*
X117319756Y-82680000D01*
%TO.N,/TX0*%
X135270000Y-57430000D02*
X135270000Y-64400000D01*
X126160000Y-73510000D02*
X125040000Y-73510000D01*
X135270000Y-64400000D02*
X126160000Y-73510000D01*
%TO.N,/SENSOR1*%
X143730000Y-57620000D02*
X143730000Y-60040000D01*
X143730000Y-60040000D02*
X120465000Y-83305000D01*
%TO.N,/RX0*%
X135600000Y-56540000D02*
X135850000Y-56790000D01*
X135850000Y-56790000D02*
X135850000Y-64710000D01*
X135850000Y-64710000D02*
X127150000Y-73410000D01*
%TO.N,/SENSOR2*%
X142200000Y-57650000D02*
X142200000Y-60810000D01*
X119885000Y-83064756D02*
X119885000Y-83125000D01*
X119885000Y-83125000D02*
X119750000Y-83260000D01*
X120224756Y-82725000D02*
X119885000Y-83064756D01*
X119750000Y-83260000D02*
X117560000Y-83260000D01*
X142200000Y-60810000D02*
X120285000Y-82725000D01*
X120285000Y-82725000D02*
X120224756Y-82725000D01*
%TO.N,/PWM*%
X147842500Y-85862500D02*
X147842500Y-87475000D01*
X134010000Y-72030000D02*
X147842500Y-85862500D01*
%TO.N,/MODE*%
X137800000Y-47520000D02*
X132700000Y-52620000D01*
X132700000Y-52620000D02*
X101740000Y-52620000D01*
X101740000Y-52620000D02*
X97950000Y-56410000D01*
D29*
%TO.N,+3V3*%
X130520000Y-56420000D02*
X130946325Y-56420000D01*
X106630000Y-64150000D02*
X114390000Y-56390000D01*
X104350000Y-64150000D02*
X106630000Y-64150000D01*
X130490000Y-56390000D02*
X130520000Y-56420000D01*
X132410000Y-62450000D02*
X127160000Y-67700000D01*
X132410000Y-57883675D02*
X132410000Y-62450000D01*
X130946325Y-56420000D02*
X132410000Y-57883675D01*
X114390000Y-56390000D02*
X130490000Y-56390000D01*
D31*
%TO.N,/SERVO_PWM*%
X133260000Y-83052500D02*
X137682500Y-87475000D01*
X133260000Y-72490000D02*
X133260000Y-83052500D01*
%TO.N,/R12*%
X106070000Y-75850000D02*
X121250000Y-60670000D01*
X121250000Y-60670000D02*
X125860000Y-60670000D01*
%TO.N,/R13*%
X122890000Y-61530000D02*
X126260000Y-61530000D01*
X109070000Y-75350000D02*
X122890000Y-61530000D01*
%TO.N,/R14*%
X126030000Y-62620000D02*
X126030000Y-62460000D01*
X113340000Y-75310000D02*
X126030000Y-62620000D01*
D32*
%TO.N,vcc_bat*%
X145302500Y-88677081D02*
X145302500Y-87475000D01*
X162111400Y-90021400D02*
X161472800Y-90660000D01*
X147285419Y-90660000D02*
X145302500Y-88677081D01*
X161472800Y-90660000D02*
X147285419Y-90660000D01*
%TO.N,+8.5V*%
X171840000Y-74790000D02*
X171840000Y-87570000D01*
%TO.N,B+*%
X181570000Y-90270000D02*
X171430000Y-90270000D01*
X183000000Y-88840000D02*
X181570000Y-90270000D01*
X169300000Y-88140000D02*
X169300000Y-87570000D01*
X183000000Y-85400000D02*
X183000000Y-88840000D01*
X171430000Y-90270000D02*
X169300000Y-88140000D01*
%TO.N,Net-(U4-SW)*%
X179350000Y-66220000D02*
X176990000Y-63860000D01*
X176990000Y-63860000D02*
X176990000Y-50110000D01*
X183890000Y-66220000D02*
X179350000Y-66220000D01*
D29*
X176990000Y-63860000D02*
X177170000Y-63680000D01*
%TD*%
%TA.AperFunction,Conductor*%
%TO.N,GND*%
G36*
X92205203Y-82093068D02*
G01*
X92211681Y-82099100D01*
X93421181Y-83308600D01*
X93454666Y-83369923D01*
X93457500Y-83396281D01*
X93457500Y-84076601D01*
X93461130Y-84105500D01*
X93468060Y-84160681D01*
X93490873Y-84215757D01*
X93523136Y-84293646D01*
X93523137Y-84293647D01*
X93575121Y-84360566D01*
X93575127Y-84360572D01*
X94079436Y-84864882D01*
X94079451Y-84864895D01*
X94114847Y-84892390D01*
X94155715Y-84949060D01*
X94159457Y-85018830D01*
X94124885Y-85079547D01*
X94114852Y-85088241D01*
X94079768Y-85115496D01*
X94079759Y-85115503D01*
X93575503Y-85619759D01*
X93575492Y-85619772D01*
X93523570Y-85686610D01*
X93523570Y-85686611D01*
X93468549Y-85819444D01*
X93458000Y-85903427D01*
X93458000Y-86010000D01*
X94277749Y-86010000D01*
X94246619Y-86063919D01*
X94212000Y-86193120D01*
X94212000Y-86326880D01*
X94246619Y-86456081D01*
X94277749Y-86510000D01*
X93458000Y-86510000D01*
X93458000Y-86616574D01*
X93468549Y-86700556D01*
X93523570Y-86833389D01*
X93575492Y-86900227D01*
X93575503Y-86900240D01*
X94079759Y-87404496D01*
X94079772Y-87404507D01*
X94146610Y-87456429D01*
X94279444Y-87511450D01*
X94363427Y-87521999D01*
X94363434Y-87522000D01*
X94470000Y-87522000D01*
X94470000Y-86702251D01*
X94523919Y-86733381D01*
X94653120Y-86768000D01*
X94786880Y-86768000D01*
X94916081Y-86733381D01*
X94970000Y-86702251D01*
X94970000Y-87522000D01*
X95076573Y-87522000D01*
X95076574Y-87521999D01*
X95160556Y-87511450D01*
X95293389Y-87456429D01*
X95360227Y-87404507D01*
X95360240Y-87404496D01*
X95864496Y-86900240D01*
X95864503Y-86900232D01*
X95891755Y-86865150D01*
X95948426Y-86824282D01*
X96018196Y-86820541D01*
X96078912Y-86855114D01*
X96087606Y-86865147D01*
X96114868Y-86900240D01*
X96115121Y-86900566D01*
X96115127Y-86900572D01*
X96619436Y-87404882D01*
X96619446Y-87404891D01*
X96686351Y-87456863D01*
X96686352Y-87456863D01*
X96686353Y-87456864D01*
X96819319Y-87511940D01*
X96903392Y-87522500D01*
X97616606Y-87522499D01*
X97700681Y-87511940D01*
X97833647Y-87456863D01*
X97900566Y-87404879D01*
X98108626Y-87196819D01*
X98169949Y-87163334D01*
X98196307Y-87160500D01*
X99213138Y-87160500D01*
X99280177Y-87180185D01*
X99300819Y-87196819D01*
X101233181Y-89129181D01*
X101266666Y-89190504D01*
X101269500Y-89216862D01*
X101269500Y-90045370D01*
X101269501Y-90045376D01*
X101275908Y-90104983D01*
X101326202Y-90239828D01*
X101326206Y-90239835D01*
X101412452Y-90355044D01*
X101412455Y-90355047D01*
X101527664Y-90441293D01*
X101527671Y-90441297D01*
X101662517Y-90491591D01*
X101662516Y-90491591D01*
X101669444Y-90492335D01*
X101722127Y-90498000D01*
X102550637Y-90497999D01*
X102617676Y-90517683D01*
X102638318Y-90534318D01*
X103896103Y-91792103D01*
X103929588Y-91853426D01*
X103924604Y-91923118D01*
X103882732Y-91979051D01*
X103817268Y-92003468D01*
X103808487Y-92003784D01*
X92124065Y-92009934D01*
X92057015Y-91990285D01*
X92011233Y-91937505D01*
X92000000Y-91885934D01*
X92000000Y-82186781D01*
X92019685Y-82119742D01*
X92072489Y-82073987D01*
X92141647Y-82064043D01*
X92205203Y-82093068D01*
G37*
%TD.AperFunction*%
%TA.AperFunction,Conductor*%
G36*
X135299664Y-55587185D02*
G01*
X135345419Y-55639989D01*
X135355363Y-55709147D01*
X135326338Y-55772703D01*
X135280077Y-55806061D01*
X135220827Y-55830602D01*
X135220814Y-55830609D01*
X135089711Y-55918210D01*
X135089707Y-55918213D01*
X134978213Y-56029707D01*
X134978210Y-56029711D01*
X134890609Y-56160814D01*
X134890602Y-56160827D01*
X134830264Y-56306498D01*
X134830261Y-56306510D01*
X134799500Y-56461153D01*
X134799500Y-56618846D01*
X134811916Y-56681266D01*
X134805689Y-56750858D01*
X134764268Y-56804176D01*
X134764413Y-56804353D01*
X134763636Y-56804989D01*
X134762825Y-56806035D01*
X134759819Y-56808121D01*
X134759704Y-56808217D01*
X134648213Y-56919707D01*
X134648210Y-56919711D01*
X134560609Y-57050814D01*
X134560602Y-57050827D01*
X134500264Y-57196498D01*
X134500261Y-57196510D01*
X134469500Y-57351153D01*
X134469500Y-57508846D01*
X134500261Y-57663489D01*
X134500264Y-57663501D01*
X134560603Y-57809174D01*
X134560604Y-57809175D01*
X134560606Y-57809179D01*
X134601673Y-57870639D01*
X134621602Y-57900465D01*
X134642480Y-57967142D01*
X134642500Y-57969356D01*
X134642500Y-64088719D01*
X134622815Y-64155758D01*
X134606181Y-64176400D01*
X125936400Y-72846181D01*
X125875077Y-72879666D01*
X125848719Y-72882500D01*
X125579357Y-72882500D01*
X125512318Y-72862815D01*
X125510466Y-72861602D01*
X125419185Y-72800609D01*
X125419172Y-72800602D01*
X125273501Y-72740264D01*
X125273489Y-72740261D01*
X125118845Y-72709500D01*
X125118842Y-72709500D01*
X124961158Y-72709500D01*
X124961155Y-72709500D01*
X124806510Y-72740261D01*
X124806498Y-72740264D01*
X124660827Y-72800602D01*
X124660814Y-72800609D01*
X124529711Y-72888210D01*
X124529707Y-72888213D01*
X124418213Y-72999707D01*
X124418210Y-72999711D01*
X124330609Y-73130814D01*
X124330602Y-73130827D01*
X124270264Y-73276498D01*
X124270261Y-73276510D01*
X124239500Y-73431153D01*
X124239500Y-73588846D01*
X124270261Y-73743489D01*
X124270264Y-73743501D01*
X124330602Y-73889172D01*
X124330609Y-73889185D01*
X124418210Y-74020288D01*
X124418213Y-74020292D01*
X124529707Y-74131786D01*
X124529711Y-74131789D01*
X124660814Y-74219390D01*
X124660827Y-74219397D01*
X124700764Y-74235939D01*
X124806503Y-74279737D01*
X124961153Y-74310499D01*
X124961156Y-74310500D01*
X124961158Y-74310500D01*
X125118844Y-74310500D01*
X125118845Y-74310499D01*
X125273497Y-74279737D01*
X125419179Y-74219394D01*
X125510466Y-74158398D01*
X125577143Y-74137520D01*
X125579357Y-74137500D01*
X126221804Y-74137500D01*
X126221805Y-74137499D01*
X126343035Y-74113386D01*
X126423784Y-74079937D01*
X126457233Y-74066083D01*
X126509395Y-74031228D01*
X126513731Y-74028811D01*
X126543141Y-74022135D01*
X126571917Y-74013125D01*
X126576863Y-74014481D01*
X126581867Y-74013346D01*
X126610218Y-74023631D01*
X126639298Y-74031608D01*
X126643024Y-74034003D01*
X126770814Y-74119390D01*
X126770827Y-74119397D01*
X126916498Y-74179735D01*
X126916503Y-74179737D01*
X126987897Y-74193938D01*
X127036237Y-74203554D01*
X127098148Y-74235939D01*
X127132722Y-74296654D01*
X127128983Y-74366424D01*
X127099727Y-74412852D01*
X119742638Y-81769941D01*
X119723849Y-81785362D01*
X119656159Y-81830591D01*
X119460571Y-82026181D01*
X119399248Y-82059666D01*
X119372890Y-82062500D01*
X117924536Y-82062500D01*
X117900346Y-82060118D01*
X117898074Y-82059666D01*
X117862047Y-82052500D01*
X117257953Y-82052500D01*
X117257952Y-82052500D01*
X117219661Y-82060117D01*
X117195468Y-82062500D01*
X115468192Y-82062500D01*
X115346972Y-82086612D01*
X115346964Y-82086614D01*
X115266215Y-82120062D01*
X115232767Y-82133916D01*
X115182215Y-82167695D01*
X115129989Y-82202590D01*
X114877672Y-82454907D01*
X114816349Y-82488392D01*
X114814183Y-82488843D01*
X114706508Y-82510261D01*
X114706498Y-82510264D01*
X114560827Y-82570602D01*
X114560814Y-82570609D01*
X114429711Y-82658210D01*
X114429707Y-82658213D01*
X114318213Y-82769707D01*
X114318210Y-82769711D01*
X114230609Y-82900814D01*
X114230602Y-82900827D01*
X114170264Y-83046498D01*
X114170261Y-83046510D01*
X114139500Y-83201153D01*
X114139500Y-83358846D01*
X114170261Y-83513489D01*
X114170264Y-83513501D01*
X114230602Y-83659172D01*
X114230609Y-83659185D01*
X114318210Y-83790288D01*
X114318213Y-83790292D01*
X114429707Y-83901786D01*
X114429711Y-83901789D01*
X114560814Y-83989390D01*
X114560827Y-83989397D01*
X114697230Y-84045896D01*
X114706503Y-84049737D01*
X114832176Y-84074735D01*
X114861153Y-84080499D01*
X114861156Y-84080500D01*
X114861158Y-84080500D01*
X115018844Y-84080500D01*
X115018845Y-84080499D01*
X115173497Y-84049737D01*
X115319179Y-83989394D01*
X115450289Y-83901789D01*
X115561789Y-83790289D01*
X115649394Y-83659179D01*
X115709737Y-83513497D01*
X115726183Y-83430817D01*
X115728870Y-83417309D01*
X115761254Y-83355398D01*
X115821970Y-83320824D01*
X115850487Y-83317500D01*
X116653491Y-83317500D01*
X116720530Y-83337185D01*
X116766285Y-83389989D01*
X116775108Y-83417309D01*
X116790261Y-83493489D01*
X116790264Y-83493501D01*
X116850602Y-83639172D01*
X116850609Y-83639185D01*
X116938210Y-83770288D01*
X116938213Y-83770292D01*
X117049707Y-83881786D01*
X117049711Y-83881789D01*
X117180814Y-83969390D01*
X117180827Y-83969397D01*
X117326498Y-84029735D01*
X117326503Y-84029737D01*
X117458073Y-84055908D01*
X117481153Y-84060499D01*
X117481156Y-84060500D01*
X117481158Y-84060500D01*
X117638844Y-84060500D01*
X117638845Y-84060499D01*
X117793497Y-84029737D01*
X117906166Y-83983067D01*
X117939172Y-83969397D01*
X117939172Y-83969396D01*
X117939179Y-83969394D01*
X118030466Y-83908398D01*
X118097143Y-83887520D01*
X118099357Y-83887500D01*
X119811802Y-83887500D01*
X119811803Y-83887500D01*
X119833222Y-83883239D01*
X119902812Y-83889465D01*
X119945096Y-83917175D01*
X119954707Y-83926786D01*
X119954711Y-83926789D01*
X120085814Y-84014390D01*
X120085827Y-84014397D01*
X120231498Y-84074735D01*
X120231503Y-84074737D01*
X120386153Y-84105499D01*
X120386156Y-84105500D01*
X120386158Y-84105500D01*
X120543844Y-84105500D01*
X120543845Y-84105499D01*
X120698497Y-84074737D01*
X120844179Y-84014394D01*
X120975289Y-83926789D01*
X121086789Y-83815289D01*
X121174394Y-83684179D01*
X121234737Y-83538497D01*
X121256156Y-83430812D01*
X121288539Y-83368906D01*
X121290035Y-83367382D01*
X122868281Y-81789136D01*
X122892497Y-81775913D01*
X122914912Y-81759810D01*
X122922731Y-81759404D01*
X122929602Y-81755653D01*
X122957129Y-81757621D01*
X122984688Y-81756193D01*
X122991483Y-81760078D01*
X122999294Y-81760637D01*
X123021386Y-81777175D01*
X123045343Y-81790873D01*
X123050772Y-81799174D01*
X123055227Y-81802509D01*
X123065936Y-81819537D01*
X123068442Y-81824348D01*
X123116987Y-81941547D01*
X123169921Y-82020768D01*
X123191124Y-82052500D01*
X123215537Y-82089038D01*
X123215538Y-82089039D01*
X128353181Y-87226681D01*
X128386666Y-87288004D01*
X128389500Y-87314362D01*
X128389500Y-89348695D01*
X128424103Y-89522658D01*
X128424106Y-89522667D01*
X128491983Y-89686540D01*
X128491990Y-89686553D01*
X128590535Y-89834034D01*
X128590538Y-89834038D01*
X128715961Y-89959461D01*
X128715965Y-89959464D01*
X128863446Y-90058009D01*
X128863459Y-90058016D01*
X128976850Y-90104983D01*
X129027334Y-90125894D01*
X129027336Y-90125894D01*
X129027341Y-90125896D01*
X129201304Y-90160499D01*
X129201307Y-90160500D01*
X129201309Y-90160500D01*
X129378693Y-90160500D01*
X129378694Y-90160499D01*
X129467408Y-90142853D01*
X129552658Y-90125896D01*
X129552661Y-90125894D01*
X129552666Y-90125894D01*
X129716547Y-90058013D01*
X129864035Y-89959464D01*
X129989464Y-89834035D01*
X130088013Y-89686547D01*
X130155894Y-89522666D01*
X130190500Y-89348691D01*
X130190500Y-86801309D01*
X130185566Y-86776502D01*
X130184696Y-86772126D01*
X130184696Y-86772125D01*
X130155896Y-86627341D01*
X130155895Y-86627334D01*
X130099975Y-86492331D01*
X130088014Y-86463455D01*
X130088009Y-86463446D01*
X129989464Y-86315964D01*
X129989461Y-86315960D01*
X124489035Y-80815535D01*
X124489030Y-80815531D01*
X124435042Y-80779458D01*
X124435032Y-80779452D01*
X124429959Y-80776063D01*
X124341547Y-80716987D01*
X124242795Y-80676083D01*
X124237178Y-80673756D01*
X124237170Y-80673752D01*
X124229363Y-80670518D01*
X124174961Y-80626676D01*
X124152899Y-80560381D01*
X124170180Y-80492682D01*
X124189135Y-80468282D01*
X132247819Y-72409599D01*
X132309142Y-72376114D01*
X132378834Y-72381098D01*
X132434767Y-72422970D01*
X132459184Y-72488434D01*
X132459500Y-72497280D01*
X132459500Y-72568846D01*
X132490261Y-72723489D01*
X132490264Y-72723501D01*
X132550603Y-72869174D01*
X132550604Y-72869175D01*
X132550606Y-72869179D01*
X132611602Y-72960465D01*
X132632480Y-73027142D01*
X132632500Y-73029356D01*
X132632500Y-83114307D01*
X132656612Y-83235527D01*
X132656615Y-83235539D01*
X132675481Y-83281084D01*
X132703915Y-83349729D01*
X132703920Y-83349738D01*
X132754764Y-83425831D01*
X132754765Y-83425832D01*
X132772590Y-83452510D01*
X132772591Y-83452511D01*
X136339377Y-87019296D01*
X136372862Y-87080619D01*
X136369628Y-87145293D01*
X136365254Y-87158755D01*
X136332000Y-87368713D01*
X136332000Y-87581286D01*
X136363381Y-87779422D01*
X136365254Y-87791243D01*
X136419666Y-87958706D01*
X136430944Y-87993414D01*
X136527451Y-88182820D01*
X136652390Y-88354786D01*
X136802713Y-88505109D01*
X136974679Y-88630048D01*
X136974681Y-88630049D01*
X136974684Y-88630051D01*
X137164088Y-88726557D01*
X137366257Y-88792246D01*
X137576213Y-88825500D01*
X137576214Y-88825500D01*
X137788786Y-88825500D01*
X137788787Y-88825500D01*
X137998743Y-88792246D01*
X138200912Y-88726557D01*
X138390316Y-88630051D01*
X138476638Y-88567335D01*
X138562286Y-88505109D01*
X138562288Y-88505106D01*
X138562292Y-88505104D01*
X138712604Y-88354792D01*
X138712606Y-88354788D01*
X138712609Y-88354786D01*
X138787570Y-88251610D01*
X138837551Y-88182816D01*
X138842293Y-88173508D01*
X138890263Y-88122711D01*
X138958083Y-88105911D01*
X139024219Y-88128445D01*
X139063263Y-88173500D01*
X139067877Y-88182555D01*
X139192772Y-88354459D01*
X139192776Y-88354464D01*
X139343035Y-88504723D01*
X139343040Y-88504727D01*
X139514942Y-88629620D01*
X139704282Y-88726095D01*
X139906371Y-88791757D01*
X139972500Y-88802231D01*
X139972500Y-87908012D01*
X140029507Y-87940925D01*
X140156674Y-87975000D01*
X140288326Y-87975000D01*
X140415493Y-87940925D01*
X140472500Y-87908012D01*
X140472500Y-88802230D01*
X140538626Y-88791757D01*
X140538629Y-88791757D01*
X140740717Y-88726095D01*
X140930057Y-88629620D01*
X141101959Y-88504727D01*
X141101964Y-88504723D01*
X141252223Y-88354464D01*
X141252227Y-88354459D01*
X141377120Y-88182558D01*
X141382014Y-88172954D01*
X141429988Y-88122157D01*
X141497808Y-88105361D01*
X141563944Y-88127897D01*
X141602986Y-88172954D01*
X141607879Y-88182558D01*
X141732772Y-88354459D01*
X141732776Y-88354464D01*
X141883035Y-88504723D01*
X141883040Y-88504727D01*
X142054942Y-88629620D01*
X142244282Y-88726095D01*
X142446371Y-88791757D01*
X142512500Y-88802231D01*
X142512500Y-87908012D01*
X142569507Y-87940925D01*
X142696674Y-87975000D01*
X142828326Y-87975000D01*
X142955493Y-87940925D01*
X143012500Y-87908012D01*
X143012500Y-88802230D01*
X143078626Y-88791757D01*
X143078629Y-88791757D01*
X143280717Y-88726095D01*
X143470057Y-88629620D01*
X143641959Y-88504727D01*
X143641964Y-88504723D01*
X143792223Y-88354464D01*
X143792227Y-88354459D01*
X143917122Y-88182556D01*
X143917514Y-88181787D01*
X143917741Y-88181546D01*
X143919668Y-88178402D01*
X143920328Y-88178806D01*
X143965486Y-88130990D01*
X144033307Y-88114193D01*
X144099443Y-88136728D01*
X144142896Y-88191442D01*
X144152000Y-88238079D01*
X144152000Y-88582119D01*
X144151999Y-88582134D01*
X144151999Y-88586535D01*
X144151999Y-88767627D01*
X144169244Y-88876503D01*
X144173434Y-88902956D01*
X144173434Y-88902957D01*
X144180329Y-88946490D01*
X144180329Y-88946493D01*
X144236287Y-89118717D01*
X144236288Y-89118720D01*
X144286295Y-89216862D01*
X144316139Y-89275434D01*
X144318506Y-89280078D01*
X144424940Y-89426574D01*
X144424944Y-89426578D01*
X144424947Y-89426582D01*
X144498479Y-89500114D01*
X144557329Y-89558964D01*
X144557340Y-89558974D01*
X146404740Y-91406374D01*
X146404754Y-91406389D01*
X146407865Y-91409500D01*
X146407866Y-91409501D01*
X146535918Y-91537553D01*
X146535921Y-91537555D01*
X146535924Y-91537558D01*
X146590866Y-91577474D01*
X146637763Y-91611547D01*
X146682425Y-91643996D01*
X146761564Y-91684319D01*
X146843779Y-91726211D01*
X146843785Y-91726213D01*
X146883762Y-91739202D01*
X146941438Y-91778638D01*
X146968637Y-91842997D01*
X146956723Y-91911843D01*
X146909480Y-91963319D01*
X146845510Y-91981133D01*
X112681312Y-91999114D01*
X112614262Y-91979465D01*
X112568480Y-91926685D01*
X112558500Y-91857532D01*
X112587491Y-91793961D01*
X112593553Y-91787446D01*
X113836681Y-90544317D01*
X113898004Y-90510833D01*
X113924362Y-90507999D01*
X114752871Y-90507999D01*
X114752872Y-90507999D01*
X114812483Y-90501591D01*
X114947331Y-90451296D01*
X115062546Y-90365046D01*
X115148796Y-90249831D01*
X115199091Y-90114983D01*
X115202574Y-90082580D01*
X115229311Y-90018034D01*
X115286702Y-89978185D01*
X115356528Y-89975690D01*
X115416617Y-90011342D01*
X115426181Y-90022954D01*
X115448621Y-90053840D01*
X115448625Y-90053845D01*
X115593654Y-90198874D01*
X115593659Y-90198878D01*
X115707608Y-90281666D01*
X115759579Y-90319425D01*
X115876022Y-90378755D01*
X115942317Y-90412535D01*
X115942319Y-90412535D01*
X115942322Y-90412537D01*
X116137380Y-90475916D01*
X116236349Y-90491591D01*
X116339947Y-90508000D01*
X116339952Y-90508000D01*
X116545053Y-90508000D01*
X116648651Y-90491591D01*
X116747620Y-90475916D01*
X116942678Y-90412537D01*
X117125421Y-90319425D01*
X117291347Y-90198873D01*
X117436373Y-90053847D01*
X117556925Y-89887921D01*
X117602295Y-89798876D01*
X117650269Y-89748080D01*
X117718090Y-89731285D01*
X117784225Y-89753822D01*
X117823265Y-89798876D01*
X117868503Y-89887660D01*
X117901233Y-89932711D01*
X117901234Y-89932711D01*
X118470959Y-89362985D01*
X118483960Y-89411502D01*
X118554394Y-89533497D01*
X118654003Y-89633106D01*
X118775998Y-89703540D01*
X118824512Y-89716539D01*
X118254787Y-90286264D01*
X118299844Y-90318999D01*
X118482508Y-90412072D01*
X118677502Y-90475429D01*
X118879987Y-90507500D01*
X119085013Y-90507500D01*
X119287497Y-90475429D01*
X119482491Y-90412072D01*
X119665159Y-90318997D01*
X119676539Y-90310729D01*
X124810000Y-90310729D01*
X124810000Y-90439270D01*
X124835073Y-90565319D01*
X124835076Y-90565331D01*
X124884259Y-90684070D01*
X124884260Y-90684072D01*
X124955669Y-90790944D01*
X125046555Y-90881830D01*
X125117641Y-90929328D01*
X125153425Y-90953238D01*
X125153426Y-90953238D01*
X125153427Y-90953239D01*
X125153429Y-90953240D01*
X125272168Y-91002423D01*
X125272173Y-91002425D01*
X125398229Y-91027499D01*
X125398233Y-91027500D01*
X125398234Y-91027500D01*
X125526767Y-91027500D01*
X125526768Y-91027499D01*
X125652827Y-91002425D01*
X125771575Y-90953238D01*
X125878444Y-90881830D01*
X125969330Y-90790944D01*
X126040738Y-90684075D01*
X126089925Y-90565327D01*
X126115000Y-90439266D01*
X126115000Y-90310734D01*
X126114999Y-90310729D01*
X130810000Y-90310729D01*
X130810000Y-90439270D01*
X130835073Y-90565319D01*
X130835076Y-90565331D01*
X130884259Y-90684070D01*
X130884260Y-90684072D01*
X130955669Y-90790944D01*
X131046555Y-90881830D01*
X131117641Y-90929328D01*
X131153425Y-90953238D01*
X131153426Y-90953238D01*
X131153427Y-90953239D01*
X131153429Y-90953240D01*
X131272168Y-91002423D01*
X131272173Y-91002425D01*
X131398229Y-91027499D01*
X131398233Y-91027500D01*
X131398234Y-91027500D01*
X131526767Y-91027500D01*
X131526768Y-91027499D01*
X131652827Y-91002425D01*
X131771575Y-90953238D01*
X131878444Y-90881830D01*
X131969330Y-90790944D01*
X132040738Y-90684075D01*
X132089925Y-90565327D01*
X132115000Y-90439266D01*
X132115000Y-90310734D01*
X132089925Y-90184673D01*
X132072603Y-90142853D01*
X132040740Y-90065929D01*
X132040739Y-90065927D01*
X132035448Y-90058009D01*
X131969601Y-89959461D01*
X131969330Y-89959055D01*
X131878444Y-89868169D01*
X131771572Y-89796760D01*
X131771570Y-89796759D01*
X131652831Y-89747576D01*
X131652819Y-89747573D01*
X131526770Y-89722500D01*
X131526766Y-89722500D01*
X131398234Y-89722500D01*
X131398229Y-89722500D01*
X131272180Y-89747573D01*
X131272168Y-89747576D01*
X131153429Y-89796759D01*
X131153427Y-89796760D01*
X131046555Y-89868169D01*
X130955669Y-89959055D01*
X130884260Y-90065927D01*
X130884259Y-90065929D01*
X130835076Y-90184668D01*
X130835073Y-90184680D01*
X130810000Y-90310729D01*
X126114999Y-90310729D01*
X126089925Y-90184673D01*
X126072603Y-90142853D01*
X126040740Y-90065929D01*
X126040739Y-90065927D01*
X126035448Y-90058009D01*
X125969601Y-89959461D01*
X125969330Y-89959055D01*
X125878444Y-89868169D01*
X125771572Y-89796760D01*
X125771570Y-89796759D01*
X125652831Y-89747576D01*
X125652819Y-89747573D01*
X125526770Y-89722500D01*
X125526766Y-89722500D01*
X125398234Y-89722500D01*
X125398229Y-89722500D01*
X125272180Y-89747573D01*
X125272168Y-89747576D01*
X125153429Y-89796759D01*
X125153427Y-89796760D01*
X125046555Y-89868169D01*
X124955669Y-89959055D01*
X124884260Y-90065927D01*
X124884259Y-90065929D01*
X124835076Y-90184668D01*
X124835073Y-90184680D01*
X124810000Y-90310729D01*
X119676539Y-90310729D01*
X119710211Y-90286264D01*
X119710211Y-90286263D01*
X119140487Y-89716539D01*
X119189002Y-89703540D01*
X119310997Y-89633106D01*
X119410606Y-89533497D01*
X119481040Y-89411502D01*
X119494039Y-89362987D01*
X120063764Y-89932712D01*
X120063764Y-89932711D01*
X120096497Y-89887659D01*
X120189572Y-89704991D01*
X120252929Y-89509997D01*
X120285000Y-89307513D01*
X120285000Y-89102486D01*
X120252929Y-88900002D01*
X120189572Y-88705008D01*
X120096499Y-88522344D01*
X120063764Y-88477287D01*
X119494039Y-89047012D01*
X119481040Y-88998498D01*
X119410606Y-88876503D01*
X119310997Y-88776894D01*
X119189002Y-88706460D01*
X119140485Y-88693459D01*
X119710211Y-88123734D01*
X119710211Y-88123733D01*
X119665160Y-88091003D01*
X119576376Y-88045765D01*
X119525580Y-87997790D01*
X119508785Y-87929969D01*
X119531323Y-87863834D01*
X119576377Y-87824795D01*
X119576927Y-87824515D01*
X119665421Y-87779425D01*
X119831347Y-87658873D01*
X119976373Y-87513847D01*
X120096925Y-87347921D01*
X120190037Y-87165178D01*
X120253416Y-86970120D01*
X120273378Y-86844087D01*
X120285500Y-86767553D01*
X120285500Y-86562446D01*
X120257236Y-86384000D01*
X120253416Y-86359880D01*
X120190037Y-86164822D01*
X120190035Y-86164819D01*
X120190035Y-86164817D01*
X120138624Y-86063919D01*
X120096925Y-85982079D01*
X120072223Y-85948080D01*
X119976378Y-85816159D01*
X119976374Y-85816154D01*
X119831345Y-85671125D01*
X119831340Y-85671121D01*
X119665424Y-85550577D01*
X119665423Y-85550576D01*
X119665421Y-85550575D01*
X119608353Y-85521497D01*
X119482682Y-85457464D01*
X119435884Y-85442258D01*
X119287620Y-85394084D01*
X119287614Y-85394083D01*
X119085053Y-85362000D01*
X119085048Y-85362000D01*
X118879952Y-85362000D01*
X118879947Y-85362000D01*
X118677385Y-85394083D01*
X118677383Y-85394083D01*
X118677380Y-85394084D01*
X118579851Y-85425773D01*
X118482317Y-85457464D01*
X118299575Y-85550577D01*
X118133659Y-85671121D01*
X118133654Y-85671125D01*
X117988625Y-85816154D01*
X117988621Y-85816159D01*
X117868077Y-85982075D01*
X117822985Y-86070573D01*
X117775010Y-86121369D01*
X117707189Y-86138164D01*
X117641054Y-86115627D01*
X117602015Y-86070573D01*
X117586587Y-86040295D01*
X117556925Y-85982079D01*
X117532223Y-85948080D01*
X117436378Y-85816159D01*
X117436374Y-85816154D01*
X117291345Y-85671125D01*
X117291340Y-85671121D01*
X117125424Y-85550577D01*
X117125423Y-85550576D01*
X117125421Y-85550575D01*
X117068353Y-85521497D01*
X116942682Y-85457464D01*
X116895884Y-85442258D01*
X116747620Y-85394084D01*
X116747614Y-85394083D01*
X116545053Y-85362000D01*
X116545048Y-85362000D01*
X116339952Y-85362000D01*
X116339947Y-85362000D01*
X116137385Y-85394083D01*
X116137383Y-85394083D01*
X116137380Y-85394084D01*
X116039851Y-85425773D01*
X115942317Y-85457464D01*
X115759575Y-85550577D01*
X115593659Y-85671121D01*
X115593654Y-85671125D01*
X115448625Y-85816154D01*
X115448621Y-85816159D01*
X115328077Y-85982075D01*
X115282985Y-86070573D01*
X115235010Y-86121369D01*
X115167189Y-86138164D01*
X115101054Y-86115627D01*
X115062015Y-86070573D01*
X115046587Y-86040295D01*
X115016925Y-85982079D01*
X114992223Y-85948080D01*
X114896378Y-85816159D01*
X114896374Y-85816154D01*
X114751345Y-85671125D01*
X114751340Y-85671121D01*
X114585424Y-85550577D01*
X114585423Y-85550576D01*
X114585421Y-85550575D01*
X114528353Y-85521497D01*
X114402682Y-85457464D01*
X114355884Y-85442258D01*
X114207620Y-85394084D01*
X114207614Y-85394083D01*
X114005053Y-85362000D01*
X114005048Y-85362000D01*
X113799952Y-85362000D01*
X113799947Y-85362000D01*
X113597385Y-85394083D01*
X113597383Y-85394083D01*
X113597380Y-85394084D01*
X113499851Y-85425773D01*
X113402317Y-85457464D01*
X113219575Y-85550577D01*
X113053659Y-85671121D01*
X113053654Y-85671125D01*
X112908625Y-85816154D01*
X112908621Y-85816159D01*
X112788077Y-85982075D01*
X112694964Y-86164817D01*
X112675915Y-86223444D01*
X112631584Y-86359880D01*
X112631583Y-86359883D01*
X112631583Y-86359885D01*
X112599500Y-86562446D01*
X112599500Y-86767553D01*
X112625802Y-86933616D01*
X112631584Y-86970120D01*
X112665630Y-87074901D01*
X112694964Y-87165182D01*
X112746062Y-87265466D01*
X112782980Y-87337922D01*
X112788077Y-87347924D01*
X112908621Y-87513840D01*
X112908625Y-87513845D01*
X112908627Y-87513847D01*
X113053653Y-87658873D01*
X113084543Y-87681316D01*
X113084545Y-87681317D01*
X113127211Y-87736647D01*
X113133190Y-87806260D01*
X113100585Y-87868056D01*
X113039746Y-87902413D01*
X113024914Y-87904926D01*
X112992516Y-87908408D01*
X112857671Y-87958702D01*
X112857664Y-87958706D01*
X112742455Y-88044952D01*
X112742452Y-88044955D01*
X112656206Y-88160164D01*
X112656202Y-88160171D01*
X112605908Y-88295017D01*
X112599501Y-88354616D01*
X112599500Y-88354635D01*
X112599500Y-89183137D01*
X112579815Y-89250176D01*
X112563181Y-89270818D01*
X111585819Y-90248181D01*
X111524496Y-90281666D01*
X111498138Y-90284500D01*
X108705082Y-90284500D01*
X108638043Y-90264815D01*
X108592288Y-90212011D01*
X108582344Y-90142853D01*
X108611369Y-90079297D01*
X108617401Y-90072819D01*
X108624295Y-90065925D01*
X108646373Y-90043847D01*
X108766925Y-89877921D01*
X108860037Y-89695178D01*
X108923416Y-89500120D01*
X108940916Y-89389626D01*
X108955500Y-89297553D01*
X108955500Y-89092446D01*
X108933760Y-88955189D01*
X108923416Y-88889880D01*
X108860037Y-88694822D01*
X108860035Y-88694819D01*
X108860035Y-88694817D01*
X108804862Y-88586535D01*
X108766925Y-88512079D01*
X108741647Y-88477287D01*
X108646378Y-88346159D01*
X108646374Y-88346154D01*
X108501345Y-88201125D01*
X108501340Y-88201121D01*
X108335424Y-88080577D01*
X108335423Y-88080576D01*
X108335421Y-88080575D01*
X108287704Y-88056262D01*
X108246376Y-88035204D01*
X108195580Y-87987229D01*
X108178785Y-87919408D01*
X108201323Y-87853273D01*
X108246377Y-87814234D01*
X108335157Y-87768999D01*
X108380211Y-87736264D01*
X108380212Y-87736264D01*
X107810487Y-87166539D01*
X107859002Y-87153540D01*
X107980997Y-87083106D01*
X108080606Y-86983497D01*
X108151040Y-86861502D01*
X108164039Y-86812987D01*
X108733764Y-87382712D01*
X108733764Y-87382711D01*
X108766497Y-87337659D01*
X108859572Y-87154991D01*
X108922929Y-86959997D01*
X108955000Y-86757513D01*
X108955000Y-86552486D01*
X108922929Y-86350002D01*
X108859572Y-86155008D01*
X108766499Y-85972344D01*
X108733764Y-85927287D01*
X108164039Y-86497012D01*
X108151040Y-86448498D01*
X108080606Y-86326503D01*
X107980997Y-86226894D01*
X107859002Y-86156460D01*
X107810485Y-86143459D01*
X108380211Y-85573734D01*
X108380211Y-85573733D01*
X108335161Y-85541003D01*
X108152491Y-85447927D01*
X107957497Y-85384570D01*
X107755013Y-85352500D01*
X107549987Y-85352500D01*
X107347502Y-85384570D01*
X107152508Y-85447927D01*
X106969838Y-85541003D01*
X106924787Y-85573733D01*
X106924787Y-85573734D01*
X107494513Y-86143460D01*
X107445998Y-86156460D01*
X107324003Y-86226894D01*
X107224394Y-86326503D01*
X107153960Y-86448498D01*
X107140960Y-86497013D01*
X106571234Y-85927287D01*
X106571233Y-85927287D01*
X106538502Y-85972341D01*
X106493264Y-86061124D01*
X106445290Y-86111919D01*
X106377468Y-86128714D01*
X106311334Y-86106176D01*
X106272295Y-86061123D01*
X106264488Y-86045801D01*
X106226925Y-85972079D01*
X106146694Y-85861650D01*
X106106378Y-85806159D01*
X106106374Y-85806154D01*
X105961345Y-85661125D01*
X105961340Y-85661121D01*
X105795424Y-85540577D01*
X105795423Y-85540576D01*
X105795421Y-85540575D01*
X105728125Y-85506286D01*
X105612682Y-85447464D01*
X105552919Y-85428046D01*
X105417620Y-85384084D01*
X105417614Y-85384083D01*
X105215053Y-85352000D01*
X105215048Y-85352000D01*
X105009952Y-85352000D01*
X105009947Y-85352000D01*
X104807385Y-85384083D01*
X104807383Y-85384083D01*
X104807380Y-85384084D01*
X104709851Y-85415773D01*
X104612317Y-85447464D01*
X104429575Y-85540577D01*
X104263659Y-85661121D01*
X104263654Y-85661125D01*
X104118625Y-85806154D01*
X104118621Y-85806159D01*
X103998077Y-85972075D01*
X103952985Y-86060573D01*
X103905010Y-86111369D01*
X103837189Y-86128164D01*
X103771054Y-86105627D01*
X103732015Y-86060573D01*
X103721637Y-86040205D01*
X103686925Y-85972079D01*
X103606694Y-85861650D01*
X103566378Y-85806159D01*
X103566374Y-85806154D01*
X103421345Y-85661125D01*
X103421340Y-85661121D01*
X103255424Y-85540577D01*
X103255423Y-85540576D01*
X103255421Y-85540575D01*
X103188125Y-85506286D01*
X103072682Y-85447464D01*
X103012919Y-85428046D01*
X102877620Y-85384084D01*
X102877614Y-85384083D01*
X102675053Y-85352000D01*
X102675048Y-85352000D01*
X102469952Y-85352000D01*
X102469947Y-85352000D01*
X102267385Y-85384083D01*
X102267383Y-85384083D01*
X102267380Y-85384084D01*
X102169851Y-85415773D01*
X102072317Y-85447464D01*
X101889575Y-85540577D01*
X101723659Y-85661121D01*
X101723654Y-85661125D01*
X101578625Y-85806154D01*
X101578621Y-85806159D01*
X101458077Y-85972075D01*
X101364964Y-86154817D01*
X101301583Y-86349883D01*
X101298539Y-86369104D01*
X101268609Y-86432238D01*
X101209296Y-86469168D01*
X101139434Y-86468170D01*
X101088385Y-86437385D01*
X100211539Y-85560538D01*
X100211538Y-85560537D01*
X100135644Y-85509827D01*
X100130346Y-85506287D01*
X100064047Y-85461987D01*
X99982106Y-85428046D01*
X99900166Y-85394105D01*
X99900158Y-85394103D01*
X99726196Y-85359500D01*
X99726192Y-85359500D01*
X99726191Y-85359500D01*
X98196308Y-85359500D01*
X98129269Y-85339815D01*
X98108627Y-85323181D01*
X97900563Y-85115117D01*
X97900553Y-85115108D01*
X97865559Y-85087925D01*
X97824692Y-85031254D01*
X97820951Y-84961484D01*
X97855524Y-84900768D01*
X97865558Y-84892074D01*
X97868088Y-84890108D01*
X97900566Y-84864879D01*
X98404884Y-84360562D01*
X98456864Y-84293647D01*
X98511940Y-84160681D01*
X98522500Y-84076608D01*
X98522499Y-83363394D01*
X98511940Y-83279319D01*
X98456863Y-83146353D01*
X98404879Y-83079434D01*
X98150919Y-82825474D01*
X98146580Y-82817528D01*
X98139333Y-82812103D01*
X98130098Y-82787343D01*
X98117434Y-82764151D01*
X98118079Y-82755121D01*
X98114916Y-82746639D01*
X98120532Y-82720818D01*
X98122418Y-82694459D01*
X98128236Y-82685405D01*
X98129768Y-82678366D01*
X98150919Y-82650112D01*
X98789409Y-82011622D01*
X98789411Y-82011620D01*
X98821662Y-81963353D01*
X98858083Y-81908845D01*
X98871937Y-81875396D01*
X98894647Y-81820572D01*
X98897797Y-81812968D01*
X98924673Y-81772744D01*
X105065681Y-75631736D01*
X105127004Y-75598252D01*
X105196696Y-75603236D01*
X105252629Y-75645108D01*
X105277046Y-75710572D01*
X105274979Y-75743609D01*
X105269500Y-75771153D01*
X105269500Y-75928846D01*
X105300261Y-76083489D01*
X105300264Y-76083501D01*
X105360602Y-76229172D01*
X105360609Y-76229185D01*
X105448210Y-76360288D01*
X105448213Y-76360292D01*
X105559707Y-76471786D01*
X105559711Y-76471789D01*
X105690814Y-76559390D01*
X105690827Y-76559397D01*
X105836498Y-76619735D01*
X105836503Y-76619737D01*
X105991153Y-76650499D01*
X105991156Y-76650500D01*
X105991158Y-76650500D01*
X106148844Y-76650500D01*
X106148845Y-76650499D01*
X106303497Y-76619737D01*
X106449179Y-76559394D01*
X106580289Y-76471789D01*
X106691789Y-76360289D01*
X106779394Y-76229179D01*
X106839737Y-76083497D01*
X106861156Y-75975812D01*
X106893539Y-75913906D01*
X106895035Y-75912382D01*
X121473600Y-61333819D01*
X121534923Y-61300334D01*
X121561281Y-61297500D01*
X121935719Y-61297500D01*
X122002758Y-61317185D01*
X122048513Y-61369989D01*
X122058457Y-61439147D01*
X122029432Y-61502703D01*
X122023400Y-61509181D01*
X109007672Y-74524907D01*
X108946349Y-74558392D01*
X108944183Y-74558843D01*
X108836508Y-74580261D01*
X108836498Y-74580264D01*
X108690827Y-74640602D01*
X108690814Y-74640609D01*
X108559711Y-74728210D01*
X108559707Y-74728213D01*
X108448213Y-74839707D01*
X108448210Y-74839711D01*
X108360609Y-74970814D01*
X108360602Y-74970827D01*
X108300264Y-75116498D01*
X108300261Y-75116510D01*
X108269500Y-75271153D01*
X108269500Y-75428846D01*
X108300261Y-75583489D01*
X108300264Y-75583501D01*
X108360602Y-75729172D01*
X108360609Y-75729185D01*
X108448210Y-75860288D01*
X108448213Y-75860292D01*
X108559707Y-75971786D01*
X108559711Y-75971789D01*
X108690814Y-76059390D01*
X108690827Y-76059397D01*
X108836498Y-76119735D01*
X108836503Y-76119737D01*
X108991153Y-76150499D01*
X108991156Y-76150500D01*
X108991158Y-76150500D01*
X109148844Y-76150500D01*
X109148845Y-76150499D01*
X109303497Y-76119737D01*
X109449179Y-76059394D01*
X109580289Y-75971789D01*
X109691789Y-75860289D01*
X109779394Y-75729179D01*
X109780305Y-75726981D01*
X109819755Y-75631737D01*
X109839737Y-75583497D01*
X109861156Y-75475812D01*
X109893539Y-75413906D01*
X109895035Y-75412382D01*
X123113600Y-62193819D01*
X123174923Y-62160334D01*
X123201281Y-62157500D01*
X125122894Y-62157500D01*
X125136715Y-62161558D01*
X125151098Y-62160750D01*
X125169570Y-62171205D01*
X125189933Y-62177185D01*
X125199365Y-62188070D01*
X125211903Y-62195167D01*
X125221790Y-62213950D01*
X125235688Y-62229989D01*
X125238348Y-62245406D01*
X125244448Y-62256994D01*
X125244478Y-62280931D01*
X125246429Y-62292232D01*
X125245840Y-62299011D01*
X125229500Y-62381158D01*
X125229500Y-62487097D01*
X125229035Y-62492450D01*
X125218202Y-62520192D01*
X125209815Y-62548757D01*
X125204449Y-62555415D01*
X125203622Y-62557534D01*
X125201505Y-62559068D01*
X125193181Y-62569399D01*
X113277672Y-74484907D01*
X113216349Y-74518392D01*
X113214183Y-74518843D01*
X113106508Y-74540261D01*
X113106498Y-74540264D01*
X112960827Y-74600602D01*
X112960814Y-74600609D01*
X112829711Y-74688210D01*
X112829707Y-74688213D01*
X112718213Y-74799707D01*
X112718210Y-74799711D01*
X112630609Y-74930814D01*
X112630602Y-74930827D01*
X112570264Y-75076498D01*
X112570261Y-75076510D01*
X112539500Y-75231153D01*
X112539500Y-75388846D01*
X112570261Y-75543489D01*
X112570264Y-75543501D01*
X112630602Y-75689172D01*
X112630609Y-75689185D01*
X112718210Y-75820288D01*
X112718213Y-75820292D01*
X112829707Y-75931786D01*
X112829711Y-75931789D01*
X112960814Y-76019390D01*
X112960827Y-76019397D01*
X113106498Y-76079735D01*
X113106503Y-76079737D01*
X113261153Y-76110499D01*
X113261156Y-76110500D01*
X113261158Y-76110500D01*
X113418844Y-76110500D01*
X113418845Y-76110499D01*
X113573497Y-76079737D01*
X113719179Y-76019394D01*
X113850289Y-75931789D01*
X113961789Y-75820289D01*
X114049394Y-75689179D01*
X114109737Y-75543497D01*
X114131156Y-75435812D01*
X114163539Y-75373906D01*
X114165035Y-75372382D01*
X126321485Y-63215932D01*
X126361709Y-63189055D01*
X126409179Y-63169394D01*
X126540289Y-63081789D01*
X126651789Y-62970289D01*
X126739394Y-62839179D01*
X126799737Y-62693497D01*
X126830500Y-62538842D01*
X126830500Y-62381158D01*
X126830500Y-62381155D01*
X126830499Y-62381153D01*
X126805279Y-62254364D01*
X126799737Y-62226503D01*
X126799732Y-62226492D01*
X126797969Y-62220676D01*
X126799934Y-62220079D01*
X126793465Y-62159931D01*
X126824738Y-62097451D01*
X126827761Y-62094316D01*
X126881789Y-62040289D01*
X126969394Y-61909179D01*
X127029737Y-61763497D01*
X127060500Y-61608842D01*
X127060500Y-61451158D01*
X127060500Y-61451155D01*
X127060499Y-61451153D01*
X127038888Y-61342510D01*
X127029737Y-61296503D01*
X127025101Y-61285311D01*
X126969397Y-61150827D01*
X126969390Y-61150814D01*
X126881789Y-61019711D01*
X126881786Y-61019707D01*
X126770292Y-60908213D01*
X126770288Y-60908210D01*
X126714289Y-60870792D01*
X126705962Y-60860829D01*
X126694631Y-60854494D01*
X126683988Y-60834535D01*
X126669484Y-60817179D01*
X126667108Y-60802877D01*
X126661757Y-60792841D01*
X126661676Y-60770173D01*
X126659590Y-60757613D01*
X126660169Y-60750502D01*
X126660500Y-60748842D01*
X126660500Y-60746451D01*
X126660910Y-60741423D01*
X126671709Y-60713326D01*
X126680185Y-60684461D01*
X126684111Y-60681058D01*
X126685977Y-60676205D01*
X126710253Y-60658406D01*
X126732989Y-60638706D01*
X126738868Y-60637426D01*
X126742325Y-60634893D01*
X126753746Y-60634190D01*
X126784500Y-60627500D01*
X130444687Y-60627500D01*
X130511726Y-60647185D01*
X130557481Y-60699989D01*
X130567425Y-60769147D01*
X130561559Y-60790532D01*
X130562031Y-60790676D01*
X130560261Y-60796510D01*
X130529500Y-60951153D01*
X130529500Y-61108846D01*
X130560261Y-61263489D01*
X130560264Y-61263501D01*
X130620602Y-61409172D01*
X130620609Y-61409185D01*
X130708210Y-61540288D01*
X130708213Y-61540292D01*
X130819707Y-61651786D01*
X130819711Y-61651789D01*
X130950814Y-61739390D01*
X130950827Y-61739397D01*
X131022743Y-61769185D01*
X131096503Y-61799737D01*
X131251153Y-61830499D01*
X131251156Y-61830500D01*
X131385500Y-61830500D01*
X131394185Y-61833050D01*
X131403147Y-61831762D01*
X131427187Y-61842740D01*
X131452539Y-61850185D01*
X131458466Y-61857025D01*
X131466703Y-61860787D01*
X131480992Y-61883021D01*
X131498294Y-61902989D01*
X131500581Y-61913503D01*
X131504477Y-61919565D01*
X131509500Y-61954500D01*
X131509500Y-62025638D01*
X131489815Y-62092677D01*
X131473181Y-62113319D01*
X126460535Y-67125964D01*
X126460533Y-67125966D01*
X126446506Y-67146962D01*
X126446504Y-67146965D01*
X126361985Y-67273455D01*
X126328046Y-67355393D01*
X126294106Y-67437329D01*
X126294103Y-67437341D01*
X126259500Y-67611303D01*
X126259500Y-67788696D01*
X126294103Y-67962659D01*
X126294104Y-67962663D01*
X126294105Y-67962666D01*
X126320850Y-68027232D01*
X126361987Y-68126547D01*
X126385140Y-68161197D01*
X126460536Y-68274036D01*
X126585964Y-68399464D01*
X126645040Y-68438936D01*
X126733453Y-68498013D01*
X126802143Y-68526465D01*
X126897334Y-68565895D01*
X127071303Y-68600499D01*
X127071307Y-68600500D01*
X127071308Y-68600500D01*
X127248693Y-68600500D01*
X127248694Y-68600499D01*
X127422666Y-68565895D01*
X127517857Y-68526465D01*
X127586547Y-68498013D01*
X127674959Y-68438936D01*
X127734036Y-68399464D01*
X133109464Y-63024036D01*
X133152585Y-62959500D01*
X133208013Y-62876547D01*
X133247753Y-62780606D01*
X133275895Y-62712666D01*
X133310500Y-62538692D01*
X133310500Y-62361308D01*
X133310500Y-57794984D01*
X133309647Y-57790699D01*
X133307164Y-57778208D01*
X133307164Y-57778207D01*
X133284345Y-57663489D01*
X133275895Y-57621009D01*
X133225024Y-57498197D01*
X133208013Y-57457128D01*
X133208012Y-57457126D01*
X133208011Y-57457124D01*
X133120732Y-57326503D01*
X133109462Y-57309636D01*
X133109459Y-57309633D01*
X131579006Y-55779181D01*
X131545521Y-55717858D01*
X131550505Y-55648166D01*
X131592377Y-55592233D01*
X131657841Y-55567816D01*
X131666687Y-55567500D01*
X135232625Y-55567500D01*
X135299664Y-55587185D01*
G37*
%TD.AperFunction*%
%TA.AperFunction,Conductor*%
G36*
X186943028Y-42009691D02*
G01*
X186988789Y-42062490D01*
X187000000Y-42114013D01*
X187000000Y-91836065D01*
X186980315Y-91903104D01*
X186927511Y-91948859D01*
X186876065Y-91960065D01*
X161937284Y-91973190D01*
X161870234Y-91953541D01*
X161824452Y-91900761D01*
X161814472Y-91831608D01*
X161843463Y-91768037D01*
X161898903Y-91731258D01*
X161914439Y-91726211D01*
X162075794Y-91643996D01*
X162120456Y-91611547D01*
X162222301Y-91537553D01*
X162350353Y-91409501D01*
X162350354Y-91409499D01*
X162357414Y-91402439D01*
X162357419Y-91402432D01*
X162988952Y-90770901D01*
X163095396Y-90624394D01*
X163177611Y-90463039D01*
X163233572Y-90290809D01*
X163240324Y-90248181D01*
X163261901Y-90111951D01*
X163261901Y-89930853D01*
X163246567Y-89834038D01*
X163233572Y-89751991D01*
X163177611Y-89579761D01*
X163177609Y-89579758D01*
X163177609Y-89579756D01*
X163123305Y-89473181D01*
X163095396Y-89418406D01*
X162988952Y-89271899D01*
X162860901Y-89143848D01*
X162714394Y-89037404D01*
X162713954Y-89037180D01*
X162553043Y-88955190D01*
X162380809Y-88899228D01*
X162351046Y-88894514D01*
X162201947Y-88870899D01*
X162020854Y-88870899D01*
X162020849Y-88870899D01*
X161841990Y-88899227D01*
X161669756Y-88955190D01*
X161508405Y-89037404D01*
X161432647Y-89092446D01*
X161361899Y-89143848D01*
X161361897Y-89143850D01*
X161361896Y-89143850D01*
X161032566Y-89473181D01*
X160971243Y-89506666D01*
X160944885Y-89509500D01*
X147813334Y-89509500D01*
X147746295Y-89489815D01*
X147725653Y-89473181D01*
X147289652Y-89037180D01*
X147256167Y-88975857D01*
X147261151Y-88906165D01*
X147303023Y-88850232D01*
X147368487Y-88825815D01*
X147377333Y-88825499D01*
X148740371Y-88825499D01*
X148740372Y-88825499D01*
X148799983Y-88819091D01*
X148934831Y-88768796D01*
X149050046Y-88682546D01*
X149136296Y-88567331D01*
X149186591Y-88432483D01*
X149193000Y-88372873D01*
X149192999Y-87467648D01*
X165459500Y-87467648D01*
X165459500Y-87672351D01*
X165491522Y-87874534D01*
X165554781Y-88069223D01*
X165647715Y-88251613D01*
X165768028Y-88417213D01*
X165912786Y-88561971D01*
X166058951Y-88668164D01*
X166078390Y-88682287D01*
X166164368Y-88726095D01*
X166260776Y-88775218D01*
X166260778Y-88775218D01*
X166260781Y-88775220D01*
X166351182Y-88804593D01*
X166455465Y-88838477D01*
X166529683Y-88850232D01*
X166657648Y-88870500D01*
X166657649Y-88870500D01*
X166862351Y-88870500D01*
X166862352Y-88870500D01*
X167064534Y-88838477D01*
X167259219Y-88775220D01*
X167441610Y-88682287D01*
X167554081Y-88600573D01*
X167607213Y-88561971D01*
X167607215Y-88561968D01*
X167607219Y-88561966D01*
X167751966Y-88417219D01*
X167826568Y-88314536D01*
X167881898Y-88271870D01*
X167951511Y-88265891D01*
X168013306Y-88298496D01*
X168047664Y-88359334D01*
X168050177Y-88374166D01*
X168055909Y-88427483D01*
X168106202Y-88562328D01*
X168106206Y-88562335D01*
X168192452Y-88677544D01*
X168192455Y-88677547D01*
X168307666Y-88763794D01*
X168307669Y-88763796D01*
X168307671Y-88763796D01*
X168315452Y-88768046D01*
X168314424Y-88769927D01*
X168360742Y-88804593D01*
X168361800Y-88806028D01*
X168422440Y-88889493D01*
X168422444Y-88889497D01*
X168422447Y-88889501D01*
X168508803Y-88975857D01*
X168554829Y-89021883D01*
X168554840Y-89021893D01*
X170549321Y-91016374D01*
X170549335Y-91016389D01*
X170552446Y-91019500D01*
X170552447Y-91019501D01*
X170680499Y-91147553D01*
X170680502Y-91147555D01*
X170680506Y-91147559D01*
X170813364Y-91244084D01*
X170827006Y-91253996D01*
X170932484Y-91307740D01*
X170988360Y-91336211D01*
X170988363Y-91336212D01*
X171074476Y-91364191D01*
X171160591Y-91392171D01*
X171339454Y-91420501D01*
X171339455Y-91420501D01*
X171525658Y-91420501D01*
X171525682Y-91420500D01*
X181474319Y-91420500D01*
X181474343Y-91420501D01*
X181479454Y-91420501D01*
X181660545Y-91420501D01*
X181660546Y-91420501D01*
X181839409Y-91392171D01*
X182011639Y-91336211D01*
X182172994Y-91253996D01*
X182319501Y-91147553D01*
X182447553Y-91019501D01*
X182447554Y-91019499D01*
X182454614Y-91012439D01*
X182454620Y-91012432D01*
X183742432Y-89724620D01*
X183742439Y-89724614D01*
X183749499Y-89717554D01*
X183749501Y-89717553D01*
X183877553Y-89589501D01*
X183983996Y-89442994D01*
X184066211Y-89281639D01*
X184076434Y-89250176D01*
X184122171Y-89109410D01*
X184130100Y-89059350D01*
X184150501Y-88930545D01*
X184150501Y-88745053D01*
X184150500Y-88745038D01*
X184150500Y-86146517D01*
X184164014Y-86090224D01*
X184251557Y-85918412D01*
X184317246Y-85716243D01*
X184350500Y-85506287D01*
X184350500Y-85293713D01*
X184317246Y-85083757D01*
X184251557Y-84881588D01*
X184155051Y-84692184D01*
X184155049Y-84692181D01*
X184155048Y-84692179D01*
X184030109Y-84520213D01*
X183879786Y-84369890D01*
X183707820Y-84244951D01*
X183518414Y-84148444D01*
X183518413Y-84148443D01*
X183518412Y-84148443D01*
X183316243Y-84082754D01*
X183316241Y-84082753D01*
X183316240Y-84082753D01*
X183154957Y-84057208D01*
X183106287Y-84049500D01*
X182893713Y-84049500D01*
X182845042Y-84057208D01*
X182683760Y-84082753D01*
X182481585Y-84148444D01*
X182292179Y-84244951D01*
X182120213Y-84369890D01*
X181969890Y-84520213D01*
X181844949Y-84692182D01*
X181840484Y-84700946D01*
X181792509Y-84751742D01*
X181724688Y-84768536D01*
X181658553Y-84745998D01*
X181619516Y-84700946D01*
X181615050Y-84692182D01*
X181490109Y-84520213D01*
X181339786Y-84369890D01*
X181167820Y-84244951D01*
X180978414Y-84148444D01*
X180978413Y-84148443D01*
X180978412Y-84148443D01*
X180776243Y-84082754D01*
X180776241Y-84082753D01*
X180776240Y-84082753D01*
X180614957Y-84057208D01*
X180566287Y-84049500D01*
X180353713Y-84049500D01*
X180305042Y-84057208D01*
X180143760Y-84082753D01*
X179941585Y-84148444D01*
X179752179Y-84244951D01*
X179580215Y-84369889D01*
X179466673Y-84483431D01*
X179405350Y-84516915D01*
X179335658Y-84511931D01*
X179279725Y-84470059D01*
X179262810Y-84439082D01*
X179213797Y-84307671D01*
X179213793Y-84307664D01*
X179127547Y-84192455D01*
X179127544Y-84192452D01*
X179012335Y-84106206D01*
X179012328Y-84106202D01*
X178877482Y-84055908D01*
X178877483Y-84055908D01*
X178817883Y-84049501D01*
X178817881Y-84049500D01*
X178817873Y-84049500D01*
X178817864Y-84049500D01*
X177022129Y-84049500D01*
X177022123Y-84049501D01*
X176962516Y-84055908D01*
X176827671Y-84106202D01*
X176827664Y-84106206D01*
X176712455Y-84192452D01*
X176712452Y-84192455D01*
X176626206Y-84307664D01*
X176626202Y-84307671D01*
X176575908Y-84442517D01*
X176569501Y-84502116D01*
X176569500Y-84502135D01*
X176569500Y-86297870D01*
X176569501Y-86297876D01*
X176575908Y-86357483D01*
X176626202Y-86492328D01*
X176626206Y-86492335D01*
X176712452Y-86607544D01*
X176712455Y-86607547D01*
X176827664Y-86693793D01*
X176827671Y-86693797D01*
X176962517Y-86744091D01*
X176962516Y-86744091D01*
X176969444Y-86744835D01*
X177022127Y-86750500D01*
X178817872Y-86750499D01*
X178877483Y-86744091D01*
X179012331Y-86693796D01*
X179127546Y-86607546D01*
X179213796Y-86492331D01*
X179262810Y-86360916D01*
X179304681Y-86304984D01*
X179370145Y-86280566D01*
X179438418Y-86295417D01*
X179466673Y-86316569D01*
X179580213Y-86430109D01*
X179752179Y-86555048D01*
X179752181Y-86555049D01*
X179752184Y-86555051D01*
X179941588Y-86651557D01*
X180143757Y-86717246D01*
X180353713Y-86750500D01*
X180353714Y-86750500D01*
X180566286Y-86750500D01*
X180566287Y-86750500D01*
X180776243Y-86717246D01*
X180978412Y-86651557D01*
X181167816Y-86555051D01*
X181197373Y-86533577D01*
X181339786Y-86430109D01*
X181339788Y-86430106D01*
X181339792Y-86430104D01*
X181490104Y-86279792D01*
X181490106Y-86279788D01*
X181490109Y-86279786D01*
X181573634Y-86164822D01*
X181615051Y-86107816D01*
X181615054Y-86107810D01*
X181617596Y-86103664D01*
X181618487Y-86104210D01*
X181662986Y-86057092D01*
X181730806Y-86040295D01*
X181796942Y-86062830D01*
X181840395Y-86117544D01*
X181849500Y-86164181D01*
X181849500Y-88312085D01*
X181829815Y-88379124D01*
X181813181Y-88399766D01*
X181129766Y-89083181D01*
X181068443Y-89116666D01*
X181042085Y-89119500D01*
X171957915Y-89119500D01*
X171928474Y-89110855D01*
X171898488Y-89104332D01*
X171893472Y-89100577D01*
X171890876Y-89099815D01*
X171870234Y-89083181D01*
X171868526Y-89081473D01*
X171835041Y-89020150D01*
X171840025Y-88950458D01*
X171881897Y-88894525D01*
X171881926Y-88894514D01*
X171937884Y-88873437D01*
X171937540Y-88871262D01*
X171942351Y-88870500D01*
X171942352Y-88870500D01*
X172144534Y-88838477D01*
X172339219Y-88775220D01*
X172521610Y-88682287D01*
X172634081Y-88600573D01*
X172687213Y-88561971D01*
X172687215Y-88561968D01*
X172687219Y-88561966D01*
X172831966Y-88417219D01*
X172831968Y-88417215D01*
X172831971Y-88417213D01*
X172906568Y-88314537D01*
X172952287Y-88251610D01*
X173045220Y-88069219D01*
X173108477Y-87874534D01*
X173140500Y-87672352D01*
X173140500Y-87467648D01*
X173138723Y-87456429D01*
X173108477Y-87265465D01*
X173095329Y-87225000D01*
X173045220Y-87070781D01*
X173004015Y-86989911D01*
X172990500Y-86933616D01*
X172990500Y-83091304D01*
X173829500Y-83091304D01*
X173829500Y-83268695D01*
X173864103Y-83442658D01*
X173864106Y-83442667D01*
X173931983Y-83606540D01*
X173931990Y-83606553D01*
X174030535Y-83754034D01*
X174030538Y-83754038D01*
X174155961Y-83879461D01*
X174155965Y-83879464D01*
X174303446Y-83978009D01*
X174303459Y-83978016D01*
X174426363Y-84028923D01*
X174467334Y-84045894D01*
X174467336Y-84045894D01*
X174467341Y-84045896D01*
X174641304Y-84080499D01*
X174641307Y-84080500D01*
X174641309Y-84080500D01*
X175628693Y-84080500D01*
X175628694Y-84080499D01*
X175802666Y-84045895D01*
X175884606Y-84011953D01*
X175966547Y-83978013D01*
X176067587Y-83910500D01*
X176114036Y-83879464D01*
X179879463Y-80114036D01*
X179978012Y-79966547D01*
X180045894Y-79802666D01*
X180080500Y-79628692D01*
X180080500Y-79451309D01*
X180080500Y-79451306D01*
X180080499Y-79451304D01*
X180045895Y-79277341D01*
X180045894Y-79277334D01*
X179978012Y-79113454D01*
X179978010Y-79113451D01*
X179978008Y-79113447D01*
X179879463Y-78965965D01*
X179879460Y-78965961D01*
X179754038Y-78840539D01*
X179754034Y-78840536D01*
X179606552Y-78741991D01*
X179606542Y-78741986D01*
X179442666Y-78674106D01*
X179442658Y-78674104D01*
X179268694Y-78639500D01*
X179268691Y-78639500D01*
X179091308Y-78639500D01*
X179091306Y-78639500D01*
X178917339Y-78674104D01*
X178917333Y-78674106D01*
X178753455Y-78741986D01*
X178753446Y-78741991D01*
X178605964Y-78840536D01*
X178605960Y-78840539D01*
X175203319Y-82243181D01*
X175141996Y-82276666D01*
X175115638Y-82279500D01*
X174641306Y-82279500D01*
X174467341Y-82314103D01*
X174467332Y-82314106D01*
X174303459Y-82381983D01*
X174303446Y-82381990D01*
X174155965Y-82480535D01*
X174155961Y-82480538D01*
X174030538Y-82605961D01*
X174030535Y-82605965D01*
X173931990Y-82753446D01*
X173931983Y-82753459D01*
X173864106Y-82917332D01*
X173864103Y-82917341D01*
X173829500Y-83091304D01*
X172990500Y-83091304D01*
X172990500Y-74699448D01*
X172967067Y-74551505D01*
X172962171Y-74520591D01*
X172906211Y-74348361D01*
X172906211Y-74348360D01*
X172877740Y-74292484D01*
X172823996Y-74187006D01*
X172783877Y-74131786D01*
X172717558Y-74040505D01*
X172717554Y-74040500D01*
X172589499Y-73912445D01*
X172589494Y-73912441D01*
X172442997Y-73806006D01*
X172442996Y-73806005D01*
X172442994Y-73806004D01*
X172391300Y-73779664D01*
X172281639Y-73723788D01*
X172281636Y-73723787D01*
X172109410Y-73667829D01*
X171930551Y-73639500D01*
X171930546Y-73639500D01*
X171749454Y-73639500D01*
X171749449Y-73639500D01*
X171570589Y-73667829D01*
X171398363Y-73723787D01*
X171398360Y-73723788D01*
X171237002Y-73806006D01*
X171090505Y-73912441D01*
X171090500Y-73912445D01*
X170962445Y-74040500D01*
X170962441Y-74040505D01*
X170856006Y-74187002D01*
X170773788Y-74348360D01*
X170773787Y-74348363D01*
X170717829Y-74520589D01*
X170689500Y-74699448D01*
X170689500Y-86466538D01*
X170669815Y-86533577D01*
X170617011Y-86579332D01*
X170547853Y-86589276D01*
X170484297Y-86560251D01*
X170466234Y-86540850D01*
X170408295Y-86463455D01*
X170407546Y-86462454D01*
X170407544Y-86462453D01*
X170407544Y-86462452D01*
X170292335Y-86376206D01*
X170292328Y-86376202D01*
X170157482Y-86325908D01*
X170157483Y-86325908D01*
X170097883Y-86319501D01*
X170097881Y-86319500D01*
X170097873Y-86319500D01*
X170097864Y-86319500D01*
X168502129Y-86319500D01*
X168502123Y-86319501D01*
X168442516Y-86325908D01*
X168307671Y-86376202D01*
X168307664Y-86376206D01*
X168192455Y-86462452D01*
X168192452Y-86462455D01*
X168106206Y-86577664D01*
X168106202Y-86577671D01*
X168055908Y-86712516D01*
X168050176Y-86765834D01*
X168023438Y-86830385D01*
X167966045Y-86870233D01*
X167896220Y-86872726D01*
X167836131Y-86837073D01*
X167826569Y-86825463D01*
X167751971Y-86722786D01*
X167607213Y-86578028D01*
X167441613Y-86457715D01*
X167441612Y-86457714D01*
X167441610Y-86457713D01*
X167384653Y-86428691D01*
X167259223Y-86364781D01*
X167064534Y-86301522D01*
X166889995Y-86273878D01*
X166862352Y-86269500D01*
X166657648Y-86269500D01*
X166633329Y-86273351D01*
X166455465Y-86301522D01*
X166260776Y-86364781D01*
X166078386Y-86457715D01*
X165912786Y-86578028D01*
X165768028Y-86722786D01*
X165647715Y-86888386D01*
X165554781Y-87070776D01*
X165491522Y-87265465D01*
X165459500Y-87467648D01*
X149192999Y-87467648D01*
X149192999Y-86577128D01*
X149186591Y-86517517D01*
X149185310Y-86514083D01*
X149136297Y-86382671D01*
X149136293Y-86382664D01*
X149050047Y-86267455D01*
X149050044Y-86267452D01*
X148934835Y-86181206D01*
X148934828Y-86181202D01*
X148799982Y-86130908D01*
X148799983Y-86130908D01*
X148740383Y-86124501D01*
X148740381Y-86124500D01*
X148740373Y-86124500D01*
X148740365Y-86124500D01*
X148594000Y-86124500D01*
X148526961Y-86104815D01*
X148481206Y-86052011D01*
X148470000Y-86000500D01*
X148470000Y-85800694D01*
X148445886Y-85679470D01*
X148445885Y-85679469D01*
X148445885Y-85679465D01*
X148442431Y-85671127D01*
X148398586Y-85565273D01*
X148398579Y-85565260D01*
X148329912Y-85462493D01*
X148293243Y-85425824D01*
X148242508Y-85375089D01*
X138783647Y-75916228D01*
X149479500Y-75916228D01*
X149479500Y-76083771D01*
X149512182Y-76248074D01*
X149512184Y-76248082D01*
X149576295Y-76402860D01*
X149669373Y-76542162D01*
X149787837Y-76660626D01*
X149880494Y-76722537D01*
X149927137Y-76753703D01*
X150081918Y-76817816D01*
X150246228Y-76850499D01*
X150246232Y-76850500D01*
X150246233Y-76850500D01*
X150413768Y-76850500D01*
X150413769Y-76850499D01*
X150578082Y-76817816D01*
X150732863Y-76753703D01*
X150872162Y-76660626D01*
X150990626Y-76542162D01*
X151083703Y-76402863D01*
X151147816Y-76248082D01*
X151180500Y-76083767D01*
X151180500Y-75916233D01*
X151147816Y-75751918D01*
X151083703Y-75597137D01*
X151042390Y-75535308D01*
X150990626Y-75457837D01*
X150872162Y-75339373D01*
X150732860Y-75246295D01*
X150578082Y-75182184D01*
X150578074Y-75182182D01*
X150413771Y-75149500D01*
X150413767Y-75149500D01*
X150246233Y-75149500D01*
X150246228Y-75149500D01*
X150081925Y-75182182D01*
X150081917Y-75182184D01*
X149927139Y-75246295D01*
X149787837Y-75339373D01*
X149669373Y-75457837D01*
X149576295Y-75597139D01*
X149512184Y-75751917D01*
X149512182Y-75751925D01*
X149479500Y-75916228D01*
X138783647Y-75916228D01*
X134835091Y-71967672D01*
X134801606Y-71906349D01*
X134801183Y-71904323D01*
X134779737Y-71796503D01*
X134748158Y-71720263D01*
X134719397Y-71650827D01*
X134719390Y-71650814D01*
X134631789Y-71519711D01*
X134631786Y-71519707D01*
X134520292Y-71408213D01*
X134520288Y-71408210D01*
X134389185Y-71320609D01*
X134389172Y-71320602D01*
X134243501Y-71260264D01*
X134243489Y-71260261D01*
X134088845Y-71229500D01*
X134088842Y-71229500D01*
X133931158Y-71229500D01*
X133931155Y-71229500D01*
X133776510Y-71260261D01*
X133776503Y-71260263D01*
X133704850Y-71289942D01*
X133635381Y-71297410D01*
X133572902Y-71266134D01*
X133537250Y-71206045D01*
X133539745Y-71136220D01*
X133569716Y-71087701D01*
X136787819Y-67869599D01*
X136849142Y-67836114D01*
X136918834Y-67841098D01*
X136974767Y-67882970D01*
X136999184Y-67948434D01*
X136999500Y-67957280D01*
X136999500Y-68028846D01*
X137030261Y-68183489D01*
X137030264Y-68183501D01*
X137090602Y-68329172D01*
X137090609Y-68329185D01*
X137178210Y-68460288D01*
X137178213Y-68460292D01*
X137289707Y-68571786D01*
X137289711Y-68571789D01*
X137420814Y-68659390D01*
X137420827Y-68659397D01*
X137566498Y-68719735D01*
X137566503Y-68719737D01*
X137721153Y-68750499D01*
X137721156Y-68750500D01*
X137721158Y-68750500D01*
X137878844Y-68750500D01*
X137878845Y-68750499D01*
X138033497Y-68719737D01*
X138179179Y-68659394D01*
X138310289Y-68571789D01*
X138421789Y-68460289D01*
X138509394Y-68329179D01*
X138569737Y-68183497D01*
X138583079Y-68116416D01*
X138615463Y-68054509D01*
X138616959Y-68052985D01*
X142390443Y-64279501D01*
X142393032Y-64277640D01*
X142393920Y-64276156D01*
X142404736Y-64269229D01*
X142422977Y-64256121D01*
X142426752Y-64254246D01*
X142559179Y-64199394D01*
X142622664Y-64156974D01*
X142629791Y-64153436D01*
X142656672Y-64148676D01*
X142682721Y-64140520D01*
X142684935Y-64140500D01*
X142754071Y-64140500D01*
X142838615Y-64123682D01*
X142879744Y-64115501D01*
X142998127Y-64066465D01*
X143005842Y-64061309D01*
X143005845Y-64061309D01*
X143079795Y-64011897D01*
X143104669Y-63995277D01*
X144892931Y-62207013D01*
X144954252Y-62173530D01*
X144956317Y-62173099D01*
X145023497Y-62159737D01*
X145169179Y-62099394D01*
X145300289Y-62011789D01*
X145411789Y-61900289D01*
X145499394Y-61769179D01*
X145559737Y-61623497D01*
X145590500Y-61468842D01*
X145590500Y-61311158D01*
X145590500Y-61311155D01*
X145590499Y-61311153D01*
X145581020Y-61263501D01*
X145559737Y-61156503D01*
X145557386Y-61150827D01*
X145499397Y-61010827D01*
X145499390Y-61010814D01*
X145411789Y-60879711D01*
X145411786Y-60879707D01*
X145300292Y-60768213D01*
X145300288Y-60768210D01*
X145169185Y-60680609D01*
X145169172Y-60680602D01*
X145023501Y-60620264D01*
X145023489Y-60620261D01*
X144868845Y-60589500D01*
X144868842Y-60589500D01*
X144711158Y-60589500D01*
X144711155Y-60589500D01*
X144556510Y-60620261D01*
X144556498Y-60620264D01*
X144410827Y-60680602D01*
X144410814Y-60680609D01*
X144279711Y-60768210D01*
X144279707Y-60768213D01*
X144168213Y-60879707D01*
X144168210Y-60879711D01*
X144080609Y-61010814D01*
X144080602Y-61010827D01*
X144020264Y-61156498D01*
X144020261Y-61156508D01*
X144006920Y-61223579D01*
X143974535Y-61285490D01*
X143972984Y-61287068D01*
X142561386Y-62698666D01*
X142500063Y-62732151D01*
X142447166Y-62732112D01*
X142436418Y-62729757D01*
X142413497Y-62720263D01*
X142258842Y-62689500D01*
X142252684Y-62689500D01*
X142240530Y-62686837D01*
X142216032Y-62673412D01*
X142190127Y-62662952D01*
X142185809Y-62656850D01*
X142179257Y-62653260D01*
X142165906Y-62628723D01*
X142149768Y-62605917D01*
X142149434Y-62598451D01*
X142145863Y-62591887D01*
X142147897Y-62564024D01*
X142146652Y-62536117D01*
X142150424Y-62529422D01*
X142150952Y-62522203D01*
X142165144Y-62503302D01*
X142179386Y-62478031D01*
X144217411Y-60440008D01*
X144219753Y-60436503D01*
X144286083Y-60337233D01*
X144320008Y-60255331D01*
X144333386Y-60223034D01*
X144357500Y-60101803D01*
X144357500Y-59978196D01*
X144357500Y-58159356D01*
X144377185Y-58092317D01*
X144378398Y-58090465D01*
X144381874Y-58085263D01*
X144439394Y-57999179D01*
X144499737Y-57853497D01*
X144530500Y-57698842D01*
X144530500Y-57541158D01*
X144530500Y-57541155D01*
X144530499Y-57541153D01*
X144520282Y-57489788D01*
X144499737Y-57386503D01*
X144485095Y-57351153D01*
X144439397Y-57240827D01*
X144439390Y-57240814D01*
X144351789Y-57109711D01*
X144351786Y-57109707D01*
X144240292Y-56998213D01*
X144240288Y-56998210D01*
X144109185Y-56910609D01*
X144109172Y-56910602D01*
X143963501Y-56850264D01*
X143963489Y-56850261D01*
X143808845Y-56819500D01*
X143808842Y-56819500D01*
X143651158Y-56819500D01*
X143651155Y-56819500D01*
X143496510Y-56850261D01*
X143496498Y-56850264D01*
X143350827Y-56910602D01*
X143350814Y-56910609D01*
X143219711Y-56998210D01*
X143219707Y-56998213D01*
X143108213Y-57109707D01*
X143058079Y-57184738D01*
X143004466Y-57229542D01*
X142935141Y-57238249D01*
X142872114Y-57208094D01*
X142851875Y-57184737D01*
X142821789Y-57139711D01*
X142821786Y-57139707D01*
X142710292Y-57028213D01*
X142710288Y-57028210D01*
X142579185Y-56940609D01*
X142579172Y-56940602D01*
X142433501Y-56880264D01*
X142433489Y-56880261D01*
X142278845Y-56849500D01*
X142278842Y-56849500D01*
X142121158Y-56849500D01*
X142121155Y-56849500D01*
X141966510Y-56880261D01*
X141966498Y-56880264D01*
X141820827Y-56940602D01*
X141820814Y-56940609D01*
X141689711Y-57028210D01*
X141689707Y-57028213D01*
X141578211Y-57139709D01*
X141551464Y-57179739D01*
X141497851Y-57224543D01*
X141428526Y-57233249D01*
X141365499Y-57203093D01*
X141345261Y-57179737D01*
X141291789Y-57099711D01*
X141291786Y-57099707D01*
X141180292Y-56988213D01*
X141180288Y-56988210D01*
X141049185Y-56900609D01*
X141049172Y-56900602D01*
X140903501Y-56840264D01*
X140903489Y-56840261D01*
X140748845Y-56809500D01*
X140748842Y-56809500D01*
X140591158Y-56809500D01*
X140591155Y-56809500D01*
X140436510Y-56840261D01*
X140436498Y-56840264D01*
X140290827Y-56900602D01*
X140290814Y-56900609D01*
X140159711Y-56988210D01*
X140159707Y-56988213D01*
X140048213Y-57099707D01*
X140048210Y-57099711D01*
X139960609Y-57230814D01*
X139960602Y-57230827D01*
X139900264Y-57376498D01*
X139900261Y-57376510D01*
X139869500Y-57531153D01*
X139869500Y-57688846D01*
X139900261Y-57843489D01*
X139900264Y-57843501D01*
X139960603Y-57989174D01*
X139960604Y-57989175D01*
X139960606Y-57989179D01*
X140005801Y-58056817D01*
X140021602Y-58080465D01*
X140042480Y-58147142D01*
X140042500Y-58149356D01*
X140042500Y-61418718D01*
X140022815Y-61485757D01*
X140006181Y-61506399D01*
X136689181Y-64823399D01*
X136627858Y-64856884D01*
X136558166Y-64851900D01*
X136502233Y-64810028D01*
X136477816Y-64744564D01*
X136477500Y-64735718D01*
X136477500Y-56728196D01*
X136473984Y-56710523D01*
X136472720Y-56704169D01*
X136453385Y-56606965D01*
X136407688Y-56496642D01*
X136406001Y-56491199D01*
X136405925Y-56486143D01*
X136401038Y-56466629D01*
X136400500Y-56461167D01*
X136400500Y-56461158D01*
X136369737Y-56306503D01*
X136351398Y-56262229D01*
X136309397Y-56160827D01*
X136309390Y-56160814D01*
X136221789Y-56029711D01*
X136221786Y-56029707D01*
X136110292Y-55918213D01*
X136110288Y-55918210D01*
X135979185Y-55830609D01*
X135979172Y-55830602D01*
X135919923Y-55806061D01*
X135865519Y-55762220D01*
X135843454Y-55695926D01*
X135860733Y-55628227D01*
X135911870Y-55580616D01*
X135967375Y-55567500D01*
X148218562Y-55567500D01*
X148285601Y-55587185D01*
X148306243Y-55603819D01*
X151698429Y-58996005D01*
X151731914Y-59057328D01*
X151732365Y-59059494D01*
X151753783Y-59167170D01*
X151753786Y-59167180D01*
X151814124Y-59312851D01*
X151814131Y-59312864D01*
X151901732Y-59443967D01*
X151901735Y-59443971D01*
X152013229Y-59555465D01*
X152013233Y-59555468D01*
X152144336Y-59643069D01*
X152144349Y-59643076D01*
X152290020Y-59703414D01*
X152290025Y-59703416D01*
X152417231Y-59728719D01*
X152444675Y-59734178D01*
X152444678Y-59734179D01*
X152444680Y-59734179D01*
X152602366Y-59734179D01*
X152602367Y-59734178D01*
X152757019Y-59703416D01*
X152902701Y-59643073D01*
X153033811Y-59555468D01*
X153145311Y-59443968D01*
X153192730Y-59373000D01*
X153246339Y-59328196D01*
X153315664Y-59319487D01*
X153320011Y-59320271D01*
X153321158Y-59320500D01*
X153321160Y-59320500D01*
X153478844Y-59320500D01*
X153478845Y-59320499D01*
X153633497Y-59289737D01*
X153779179Y-59229394D01*
X153910289Y-59141789D01*
X154021789Y-59030289D01*
X154109394Y-58899179D01*
X154139969Y-58825363D01*
X154183809Y-58770959D01*
X154207078Y-58758254D01*
X154349172Y-58699397D01*
X154349172Y-58699396D01*
X154349179Y-58699394D01*
X154480289Y-58611789D01*
X154480292Y-58611786D01*
X154586078Y-58506001D01*
X154647401Y-58472516D01*
X154673759Y-58469682D01*
X154728979Y-58469682D01*
X154728980Y-58469681D01*
X154883632Y-58438919D01*
X155029314Y-58378576D01*
X155160424Y-58290971D01*
X155271924Y-58179471D01*
X155359529Y-58048361D01*
X155360546Y-58045907D01*
X155393171Y-57967142D01*
X155419872Y-57902679D01*
X155450635Y-57748024D01*
X155450635Y-57590340D01*
X155450635Y-57590337D01*
X155450634Y-57590335D01*
X155430634Y-57489788D01*
X155419872Y-57435685D01*
X155367889Y-57310185D01*
X155359532Y-57290009D01*
X155359525Y-57289996D01*
X155271924Y-57158893D01*
X155271921Y-57158889D01*
X155160427Y-57047395D01*
X155160423Y-57047392D01*
X155029320Y-56959791D01*
X155029307Y-56959784D01*
X154883636Y-56899446D01*
X154883626Y-56899443D01*
X154775950Y-56878025D01*
X154714039Y-56845640D01*
X154712461Y-56844089D01*
X150580966Y-52712593D01*
X150580963Y-52712590D01*
X150534886Y-52681803D01*
X150478186Y-52643917D01*
X150478182Y-52643915D01*
X150478180Y-52643914D01*
X150478181Y-52643914D01*
X150444738Y-52630062D01*
X150363988Y-52596614D01*
X150363980Y-52596612D01*
X150242760Y-52572500D01*
X150242756Y-52572500D01*
X133934281Y-52572500D01*
X133867242Y-52552815D01*
X133821487Y-52500011D01*
X133811543Y-52430853D01*
X133840568Y-52367297D01*
X133846600Y-52360819D01*
X134479114Y-51728305D01*
X136456779Y-49750639D01*
X162065500Y-49750639D01*
X162065500Y-49949360D01*
X162096587Y-50145637D01*
X162157993Y-50334629D01*
X162157994Y-50334632D01*
X162248213Y-50511694D01*
X162365019Y-50672464D01*
X162505536Y-50812981D01*
X162666306Y-50929787D01*
X162784832Y-50990179D01*
X162822780Y-51009515D01*
X162873576Y-51057490D01*
X162890371Y-51125311D01*
X162867833Y-51191446D01*
X162822780Y-51230485D01*
X162666305Y-51310213D01*
X162505533Y-51427021D01*
X162365021Y-51567533D01*
X162248213Y-51728305D01*
X162157994Y-51905367D01*
X162157993Y-51905370D01*
X162096587Y-52094362D01*
X162065500Y-52290639D01*
X162065500Y-52489360D01*
X162096587Y-52685637D01*
X162157993Y-52874629D01*
X162157994Y-52874632D01*
X162248213Y-53051694D01*
X162365019Y-53212464D01*
X162505536Y-53352981D01*
X162666306Y-53469787D01*
X162823332Y-53549796D01*
X162874127Y-53597769D01*
X162890922Y-53665590D01*
X162868385Y-53731725D01*
X162823332Y-53770764D01*
X162666569Y-53850639D01*
X162505860Y-53967403D01*
X162505859Y-53967403D01*
X162365403Y-54107859D01*
X162365403Y-54107860D01*
X162248641Y-54268567D01*
X162158456Y-54445564D01*
X162097074Y-54634482D01*
X162089865Y-54679999D01*
X162089865Y-54680000D01*
X163647749Y-54680000D01*
X163616619Y-54733919D01*
X163582000Y-54863120D01*
X163582000Y-54996880D01*
X163616619Y-55126081D01*
X163647749Y-55180000D01*
X162089865Y-55180000D01*
X162097074Y-55225517D01*
X162158456Y-55414435D01*
X162248641Y-55591432D01*
X162365403Y-55752139D01*
X162365403Y-55752140D01*
X162505859Y-55892596D01*
X162666567Y-56009358D01*
X162823331Y-56089234D01*
X162874127Y-56137209D01*
X162890922Y-56205030D01*
X162868384Y-56271165D01*
X162823331Y-56310204D01*
X162666305Y-56390213D01*
X162505533Y-56507021D01*
X162365021Y-56647533D01*
X162248213Y-56808305D01*
X162157994Y-56985367D01*
X162157993Y-56985370D01*
X162096587Y-57174362D01*
X162065500Y-57370639D01*
X162065500Y-57569360D01*
X162096587Y-57765637D01*
X162157993Y-57954629D01*
X162157994Y-57954632D01*
X162228149Y-58092317D01*
X162248213Y-58131694D01*
X162365019Y-58292464D01*
X162505536Y-58432981D01*
X162666306Y-58549787D01*
X162784832Y-58610179D01*
X162822780Y-58629515D01*
X162873576Y-58677490D01*
X162890371Y-58745311D01*
X162867833Y-58811446D01*
X162822780Y-58850485D01*
X162666305Y-58930213D01*
X162505533Y-59047021D01*
X162365021Y-59187533D01*
X162248213Y-59348305D01*
X162157994Y-59525367D01*
X162157993Y-59525370D01*
X162096587Y-59714362D01*
X162070846Y-59876885D01*
X162065500Y-59910639D01*
X162065500Y-60109361D01*
X162081043Y-60207498D01*
X162096587Y-60305637D01*
X162157993Y-60494629D01*
X162157994Y-60494632D01*
X162235572Y-60646885D01*
X162248213Y-60671694D01*
X162365019Y-60832464D01*
X162505536Y-60972981D01*
X162666306Y-61089787D01*
X162784832Y-61150179D01*
X162822780Y-61169515D01*
X162873576Y-61217490D01*
X162890371Y-61285311D01*
X162867833Y-61351446D01*
X162822780Y-61390485D01*
X162666305Y-61470213D01*
X162505533Y-61587021D01*
X162365021Y-61727533D01*
X162248213Y-61888305D01*
X162157994Y-62065367D01*
X162157993Y-62065370D01*
X162096587Y-62254362D01*
X162076505Y-62381155D01*
X162065500Y-62450639D01*
X162065500Y-62649361D01*
X162072491Y-62693501D01*
X162096587Y-62845637D01*
X162157993Y-63034629D01*
X162157994Y-63034632D01*
X162226658Y-63169390D01*
X162248213Y-63211694D01*
X162365019Y-63372464D01*
X162505536Y-63512981D01*
X162666306Y-63629787D01*
X162753149Y-63674035D01*
X162843367Y-63720005D01*
X162843370Y-63720006D01*
X162937866Y-63750709D01*
X163032364Y-63781413D01*
X163228639Y-63812500D01*
X163228640Y-63812500D01*
X164951360Y-63812500D01*
X164951361Y-63812500D01*
X165147636Y-63781413D01*
X165197987Y-63765053D01*
X175839499Y-63765053D01*
X175839499Y-63950544D01*
X175858603Y-64071158D01*
X175858603Y-64071159D01*
X175867829Y-64129410D01*
X175923787Y-64301636D01*
X175923788Y-64301639D01*
X176006006Y-64462997D01*
X176112440Y-64609493D01*
X176112444Y-64609497D01*
X176112447Y-64609501D01*
X176226980Y-64724034D01*
X176244829Y-64741883D01*
X176244840Y-64741893D01*
X178469321Y-66966374D01*
X178469335Y-66966389D01*
X178472445Y-66969499D01*
X178472447Y-66969501D01*
X178600499Y-67097553D01*
X178727344Y-67189711D01*
X178747006Y-67203996D01*
X178818857Y-67240606D01*
X178908360Y-67286211D01*
X178908363Y-67286212D01*
X178994476Y-67314191D01*
X179080591Y-67342171D01*
X179259454Y-67370501D01*
X179259455Y-67370501D01*
X179445657Y-67370501D01*
X179445681Y-67370500D01*
X183980551Y-67370500D01*
X184075928Y-67355393D01*
X184159409Y-67342171D01*
X184331639Y-67286211D01*
X184492994Y-67203996D01*
X184639501Y-67097553D01*
X184767553Y-66969501D01*
X184873996Y-66822994D01*
X184956211Y-66661639D01*
X185012171Y-66489409D01*
X185026765Y-66397259D01*
X185040500Y-66310551D01*
X185040500Y-66129448D01*
X185024019Y-66025397D01*
X185012171Y-65950591D01*
X184956211Y-65778361D01*
X184956211Y-65778360D01*
X184927740Y-65722484D01*
X184873996Y-65617006D01*
X184860396Y-65598287D01*
X184767558Y-65470505D01*
X184767554Y-65470500D01*
X184639499Y-65342445D01*
X184639494Y-65342441D01*
X184492997Y-65236006D01*
X184492996Y-65236005D01*
X184492994Y-65236004D01*
X184441300Y-65209664D01*
X184331639Y-65153788D01*
X184331636Y-65153787D01*
X184159410Y-65097829D01*
X183980551Y-65069500D01*
X183980546Y-65069500D01*
X179877915Y-65069500D01*
X179810876Y-65049815D01*
X179790234Y-65033181D01*
X178176819Y-63419766D01*
X178143334Y-63358443D01*
X178140500Y-63332085D01*
X178140500Y-52290639D01*
X179845500Y-52290639D01*
X179845500Y-52489360D01*
X179876587Y-52685637D01*
X179937993Y-52874629D01*
X179937994Y-52874632D01*
X180028213Y-53051694D01*
X180145019Y-53212464D01*
X180285536Y-53352981D01*
X180446306Y-53469787D01*
X180564832Y-53530179D01*
X180602780Y-53549515D01*
X180653576Y-53597490D01*
X180670371Y-53665311D01*
X180647833Y-53731446D01*
X180602780Y-53770485D01*
X180446305Y-53850213D01*
X180285533Y-53967021D01*
X180145021Y-54107533D01*
X180028213Y-54268305D01*
X179937994Y-54445367D01*
X179937993Y-54445370D01*
X179876587Y-54634362D01*
X179845500Y-54830639D01*
X179845500Y-55029360D01*
X179876587Y-55225637D01*
X179937993Y-55414629D01*
X179937994Y-55414632D01*
X179997089Y-55530610D01*
X180028213Y-55591694D01*
X180145019Y-55752464D01*
X180285536Y-55892981D01*
X180446306Y-56009787D01*
X180564832Y-56070179D01*
X180602780Y-56089515D01*
X180653576Y-56137490D01*
X180670371Y-56205311D01*
X180647833Y-56271446D01*
X180602780Y-56310485D01*
X180446305Y-56390213D01*
X180285533Y-56507021D01*
X180145021Y-56647533D01*
X180028213Y-56808305D01*
X179937994Y-56985367D01*
X179937993Y-56985370D01*
X179876587Y-57174362D01*
X179845500Y-57370639D01*
X179845500Y-57569360D01*
X179876587Y-57765637D01*
X179937993Y-57954629D01*
X179937994Y-57954632D01*
X180008149Y-58092317D01*
X180028213Y-58131694D01*
X180145019Y-58292464D01*
X180285536Y-58432981D01*
X180446306Y-58549787D01*
X180564832Y-58610179D01*
X180602780Y-58629515D01*
X180653576Y-58677490D01*
X180670371Y-58745311D01*
X180647833Y-58811446D01*
X180602780Y-58850485D01*
X180446305Y-58930213D01*
X180285533Y-59047021D01*
X180145021Y-59187533D01*
X180028213Y-59348305D01*
X179937994Y-59525367D01*
X179937993Y-59525370D01*
X179876587Y-59714362D01*
X179850846Y-59876885D01*
X179845500Y-59910639D01*
X179845500Y-60109361D01*
X179861043Y-60207498D01*
X179876587Y-60305637D01*
X179937993Y-60494629D01*
X179937994Y-60494632D01*
X180015572Y-60646885D01*
X180028213Y-60671694D01*
X180145019Y-60832464D01*
X180285536Y-60972981D01*
X180446306Y-61089787D01*
X180533149Y-61134035D01*
X180623367Y-61180005D01*
X180623370Y-61180006D01*
X180717866Y-61210709D01*
X180812364Y-61241413D01*
X181008639Y-61272500D01*
X181008640Y-61272500D01*
X182731360Y-61272500D01*
X182731361Y-61272500D01*
X182927636Y-61241413D01*
X183116632Y-61180005D01*
X183293694Y-61089787D01*
X183454464Y-60972981D01*
X183594981Y-60832464D01*
X183711787Y-60671694D01*
X183802005Y-60494632D01*
X183863413Y-60305636D01*
X183894500Y-60109361D01*
X183894500Y-59910639D01*
X183863413Y-59714364D01*
X183802005Y-59525368D01*
X183802005Y-59525367D01*
X183750040Y-59423381D01*
X183711787Y-59348306D01*
X183594981Y-59187536D01*
X183454464Y-59047019D01*
X183293694Y-58930213D01*
X183137218Y-58850484D01*
X183086423Y-58802510D01*
X183069628Y-58734689D01*
X183092165Y-58668554D01*
X183137218Y-58629515D01*
X183293694Y-58549787D01*
X183454464Y-58432981D01*
X183594981Y-58292464D01*
X183711787Y-58131694D01*
X183802005Y-57954632D01*
X183863413Y-57765636D01*
X183894500Y-57569361D01*
X183894500Y-57370639D01*
X183863413Y-57174364D01*
X183815926Y-57028213D01*
X183802006Y-56985370D01*
X183802005Y-56985367D01*
X183732776Y-56849500D01*
X183711787Y-56808306D01*
X183594981Y-56647536D01*
X183454464Y-56507019D01*
X183293694Y-56390213D01*
X183137218Y-56310484D01*
X183086423Y-56262510D01*
X183069628Y-56194689D01*
X183092165Y-56128554D01*
X183137218Y-56089515D01*
X183293694Y-56009787D01*
X183454464Y-55892981D01*
X183594981Y-55752464D01*
X183711787Y-55591694D01*
X183802005Y-55414632D01*
X183863413Y-55225636D01*
X183894500Y-55029361D01*
X183894500Y-54830639D01*
X183863413Y-54634364D01*
X183802005Y-54445368D01*
X183802005Y-54445367D01*
X183756035Y-54355149D01*
X183711787Y-54268306D01*
X183594981Y-54107536D01*
X183454464Y-53967019D01*
X183293694Y-53850213D01*
X183137218Y-53770484D01*
X183086423Y-53722510D01*
X183069628Y-53654689D01*
X183092165Y-53588554D01*
X183137218Y-53549515D01*
X183293694Y-53469787D01*
X183454464Y-53352981D01*
X183594981Y-53212464D01*
X183711787Y-53051694D01*
X183802005Y-52874632D01*
X183863413Y-52685636D01*
X183894500Y-52489361D01*
X183894500Y-52290639D01*
X183863413Y-52094364D01*
X183802005Y-51905368D01*
X183802005Y-51905367D01*
X183711786Y-51728305D01*
X183594981Y-51567536D01*
X183454464Y-51427019D01*
X183293694Y-51310213D01*
X183116632Y-51219994D01*
X183116629Y-51219993D01*
X182927637Y-51158587D01*
X182829498Y-51143043D01*
X182731361Y-51127500D01*
X181008639Y-51127500D01*
X180943214Y-51137862D01*
X180812362Y-51158587D01*
X180623370Y-51219993D01*
X180623367Y-51219994D01*
X180446305Y-51310213D01*
X180285533Y-51427021D01*
X180145021Y-51567533D01*
X180028213Y-51728305D01*
X179937994Y-51905367D01*
X179937993Y-51905370D01*
X179876587Y-52094362D01*
X179845500Y-52290639D01*
X178140500Y-52290639D01*
X178140500Y-50019448D01*
X178124019Y-49915397D01*
X178112171Y-49840591D01*
X178056211Y-49668361D01*
X178056211Y-49668360D01*
X177998125Y-49554362D01*
X177973996Y-49507006D01*
X177960396Y-49488287D01*
X177867558Y-49360505D01*
X177867554Y-49360500D01*
X177739499Y-49232445D01*
X177739494Y-49232441D01*
X177592997Y-49126006D01*
X177592996Y-49126005D01*
X177592994Y-49126004D01*
X177541300Y-49099664D01*
X177431639Y-49043788D01*
X177431636Y-49043787D01*
X177259410Y-48987829D01*
X177080551Y-48959500D01*
X177080546Y-48959500D01*
X176899454Y-48959500D01*
X176899449Y-48959500D01*
X176720589Y-48987829D01*
X176548363Y-49043787D01*
X176548360Y-49043788D01*
X176387002Y-49126006D01*
X176240505Y-49232441D01*
X176240500Y-49232445D01*
X176112445Y-49360500D01*
X176112441Y-49360505D01*
X176006006Y-49507002D01*
X175923788Y-49668360D01*
X175923787Y-49668363D01*
X175867829Y-49840589D01*
X175839500Y-50019448D01*
X175839500Y-63765038D01*
X175839499Y-63765053D01*
X165197987Y-63765053D01*
X165336632Y-63720005D01*
X165465059Y-63654568D01*
X165465062Y-63654567D01*
X165513689Y-63629790D01*
X165513691Y-63629788D01*
X165513694Y-63629787D01*
X165674464Y-63512981D01*
X165814981Y-63372464D01*
X165931787Y-63211694D01*
X166022005Y-63034632D01*
X166083413Y-62845636D01*
X166114500Y-62649361D01*
X166114500Y-62450639D01*
X166083413Y-62254364D01*
X166033061Y-62099394D01*
X166022006Y-62065370D01*
X166022005Y-62065367D01*
X165947714Y-61919565D01*
X165931787Y-61888306D01*
X165814981Y-61727536D01*
X165674464Y-61587019D01*
X165513694Y-61470213D01*
X165357218Y-61390484D01*
X165306423Y-61342510D01*
X165289628Y-61274689D01*
X165312165Y-61208554D01*
X165357218Y-61169515D01*
X165513694Y-61089787D01*
X165674464Y-60972981D01*
X165814981Y-60832464D01*
X165931787Y-60671694D01*
X166022005Y-60494632D01*
X166083413Y-60305636D01*
X166114500Y-60109361D01*
X166114500Y-59910639D01*
X166083413Y-59714364D01*
X166022005Y-59525368D01*
X166022005Y-59525367D01*
X165970040Y-59423381D01*
X165931787Y-59348306D01*
X165814981Y-59187536D01*
X165674464Y-59047019D01*
X165513694Y-58930213D01*
X165357218Y-58850484D01*
X165306423Y-58802510D01*
X165289628Y-58734689D01*
X165312165Y-58668554D01*
X165357218Y-58629515D01*
X165513694Y-58549787D01*
X165674464Y-58432981D01*
X165814981Y-58292464D01*
X165931787Y-58131694D01*
X166022005Y-57954632D01*
X166083413Y-57765636D01*
X166114500Y-57569361D01*
X166114500Y-57370639D01*
X166083413Y-57174364D01*
X166035926Y-57028213D01*
X166022006Y-56985370D01*
X166022005Y-56985367D01*
X165952776Y-56849500D01*
X165931787Y-56808306D01*
X165814981Y-56647536D01*
X165674464Y-56507019D01*
X165513694Y-56390213D01*
X165356667Y-56310203D01*
X165305872Y-56262229D01*
X165289077Y-56194408D01*
X165311614Y-56128273D01*
X165356668Y-56089234D01*
X165513432Y-56009358D01*
X165674139Y-55892596D01*
X165674140Y-55892596D01*
X165814596Y-55752140D01*
X165814596Y-55752139D01*
X165931358Y-55591432D01*
X166021543Y-55414435D01*
X166082925Y-55225517D01*
X166090134Y-55180000D01*
X164532251Y-55180000D01*
X164563381Y-55126081D01*
X164598000Y-54996880D01*
X164598000Y-54863120D01*
X164563381Y-54733919D01*
X164532251Y-54680000D01*
X166090135Y-54680000D01*
X166090134Y-54679999D01*
X166082925Y-54634482D01*
X166021543Y-54445564D01*
X165931358Y-54268567D01*
X165814596Y-54107860D01*
X165814596Y-54107859D01*
X165674140Y-53967403D01*
X165513432Y-53850641D01*
X165356668Y-53770765D01*
X165305872Y-53722790D01*
X165289077Y-53654969D01*
X165311615Y-53588834D01*
X165356667Y-53549796D01*
X165513694Y-53469787D01*
X165674464Y-53352981D01*
X165814981Y-53212464D01*
X165931787Y-53051694D01*
X166022005Y-52874632D01*
X166083413Y-52685636D01*
X166114500Y-52489361D01*
X166114500Y-52290639D01*
X166083413Y-52094364D01*
X166022005Y-51905368D01*
X166022005Y-51905367D01*
X165931786Y-51728305D01*
X165814981Y-51567536D01*
X165674464Y-51427019D01*
X165513694Y-51310213D01*
X165357218Y-51230484D01*
X165306423Y-51182510D01*
X165289628Y-51114689D01*
X165312165Y-51048554D01*
X165357218Y-51009515D01*
X165513694Y-50929787D01*
X165674464Y-50812981D01*
X165814981Y-50672464D01*
X165931787Y-50511694D01*
X166022005Y-50334632D01*
X166083413Y-50145636D01*
X166114500Y-49949361D01*
X166114500Y-49750639D01*
X166083413Y-49554364D01*
X166022005Y-49365368D01*
X166022005Y-49365367D01*
X165931786Y-49188305D01*
X165886522Y-49126004D01*
X165814981Y-49027536D01*
X165674464Y-48887019D01*
X165513694Y-48770213D01*
X165506493Y-48766544D01*
X165336632Y-48679994D01*
X165336629Y-48679993D01*
X165147637Y-48618587D01*
X165049498Y-48603043D01*
X164951361Y-48587500D01*
X163228639Y-48587500D01*
X163163214Y-48597862D01*
X163032362Y-48618587D01*
X162843370Y-48679993D01*
X162843367Y-48679994D01*
X162666305Y-48770213D01*
X162505533Y-48887021D01*
X162365021Y-49027533D01*
X162248213Y-49188305D01*
X162157994Y-49365367D01*
X162157993Y-49365370D01*
X162096587Y-49554362D01*
X162065500Y-49750639D01*
X136456779Y-49750639D01*
X137313347Y-48894070D01*
X137374668Y-48860587D01*
X137439342Y-48863821D01*
X137474625Y-48875286D01*
X137582634Y-48892393D01*
X137690639Y-48909500D01*
X137690644Y-48909500D01*
X137909361Y-48909500D01*
X138014082Y-48892912D01*
X138125375Y-48875286D01*
X138333383Y-48807701D01*
X138528257Y-48708407D01*
X138627601Y-48636229D01*
X138705193Y-48579857D01*
X138705195Y-48579854D01*
X138705199Y-48579852D01*
X138859852Y-48425199D01*
X138969683Y-48274028D01*
X139025011Y-48231364D01*
X139094624Y-48225385D01*
X139156420Y-48257990D01*
X139170313Y-48274023D01*
X139238435Y-48367785D01*
X139280148Y-48425199D01*
X139434806Y-48579857D01*
X139572637Y-48679995D01*
X139611743Y-48708407D01*
X139733043Y-48770213D01*
X139806616Y-48807701D01*
X139806619Y-48807702D01*
X139907074Y-48840341D01*
X140014625Y-48875286D01*
X140114672Y-48891132D01*
X140230639Y-48909500D01*
X140230644Y-48909500D01*
X140449361Y-48909500D01*
X140554082Y-48892912D01*
X140665375Y-48875286D01*
X140873383Y-48807701D01*
X141068257Y-48708407D01*
X141167601Y-48636229D01*
X141245193Y-48579857D01*
X141245195Y-48579854D01*
X141245199Y-48579852D01*
X141399852Y-48425199D01*
X141509683Y-48274028D01*
X141565011Y-48231364D01*
X141634624Y-48225385D01*
X141696420Y-48257990D01*
X141710313Y-48274023D01*
X141778435Y-48367785D01*
X141820148Y-48425199D01*
X141974806Y-48579857D01*
X142112637Y-48679995D01*
X142151743Y-48708407D01*
X142273043Y-48770213D01*
X142346616Y-48807701D01*
X142346619Y-48807702D01*
X142447074Y-48840341D01*
X142554625Y-48875286D01*
X142654672Y-48891132D01*
X142770639Y-48909500D01*
X142770644Y-48909500D01*
X142989361Y-48909500D01*
X143094082Y-48892912D01*
X143205375Y-48875286D01*
X143413383Y-48807701D01*
X143608257Y-48708407D01*
X143707601Y-48636229D01*
X143785193Y-48579857D01*
X143785195Y-48579854D01*
X143785199Y-48579852D01*
X143939852Y-48425199D01*
X144049683Y-48274028D01*
X144105011Y-48231364D01*
X144174624Y-48225385D01*
X144236420Y-48257990D01*
X144250313Y-48274023D01*
X144318435Y-48367785D01*
X144360148Y-48425199D01*
X144514806Y-48579857D01*
X144652637Y-48679995D01*
X144691743Y-48708407D01*
X144813043Y-48770213D01*
X144886616Y-48807701D01*
X144886619Y-48807702D01*
X144987074Y-48840341D01*
X145094625Y-48875286D01*
X145194672Y-48891132D01*
X145310639Y-48909500D01*
X145310644Y-48909500D01*
X145529361Y-48909500D01*
X145634082Y-48892912D01*
X145745375Y-48875286D01*
X145953383Y-48807701D01*
X146148257Y-48708407D01*
X146247601Y-48636229D01*
X146325193Y-48579857D01*
X146325195Y-48579854D01*
X146325199Y-48579852D01*
X146479852Y-48425199D01*
X146589683Y-48274028D01*
X146645011Y-48231364D01*
X146714624Y-48225385D01*
X146776420Y-48257990D01*
X146790313Y-48274023D01*
X146858435Y-48367785D01*
X146900148Y-48425199D01*
X147054806Y-48579857D01*
X147192637Y-48679995D01*
X147231743Y-48708407D01*
X147353043Y-48770213D01*
X147426616Y-48807701D01*
X147426619Y-48807702D01*
X147527074Y-48840341D01*
X147634625Y-48875286D01*
X147734672Y-48891132D01*
X147850639Y-48909500D01*
X147850644Y-48909500D01*
X148069361Y-48909500D01*
X148174082Y-48892912D01*
X148285375Y-48875286D01*
X148493383Y-48807701D01*
X148688257Y-48708407D01*
X148787601Y-48636229D01*
X148865193Y-48579857D01*
X148865195Y-48579854D01*
X148865199Y-48579852D01*
X149019852Y-48425199D01*
X149129991Y-48273603D01*
X149185320Y-48230939D01*
X149254933Y-48224960D01*
X149316729Y-48257565D01*
X149330627Y-48273605D01*
X149440524Y-48424866D01*
X149440528Y-48424871D01*
X149595128Y-48579471D01*
X149595133Y-48579475D01*
X149772001Y-48707976D01*
X149966808Y-48807237D01*
X149966811Y-48807238D01*
X150174739Y-48874797D01*
X150250000Y-48886717D01*
X150250000Y-47953012D01*
X150307007Y-47985925D01*
X150434174Y-48020000D01*
X150565826Y-48020000D01*
X150692993Y-47985925D01*
X150750000Y-47953012D01*
X150750000Y-48886717D01*
X150825258Y-48874797D01*
X150825261Y-48874797D01*
X151033188Y-48807238D01*
X151033191Y-48807237D01*
X151227998Y-48707976D01*
X151404866Y-48579475D01*
X151404871Y-48579471D01*
X151559471Y-48424871D01*
X151559475Y-48424866D01*
X151687976Y-48247998D01*
X151787237Y-48053191D01*
X151787238Y-48053188D01*
X151854798Y-47845258D01*
X151857445Y-47828543D01*
X167749499Y-47828543D01*
X167787947Y-48021829D01*
X167787950Y-48021839D01*
X167863364Y-48203907D01*
X167863371Y-48203920D01*
X167972860Y-48367781D01*
X167972863Y-48367785D01*
X168112214Y-48507136D01*
X168112218Y-48507139D01*
X168276079Y-48616628D01*
X168276092Y-48616635D01*
X168429059Y-48679995D01*
X168458165Y-48692051D01*
X168458169Y-48692051D01*
X168458170Y-48692052D01*
X168651456Y-48730500D01*
X168651459Y-48730500D01*
X168848543Y-48730500D01*
X168978582Y-48704632D01*
X169041835Y-48692051D01*
X169223914Y-48616632D01*
X169387782Y-48507139D01*
X169527139Y-48367782D01*
X169636632Y-48203914D01*
X169712051Y-48021835D01*
X169732288Y-47920099D01*
X169750500Y-47828543D01*
X169750500Y-47198171D01*
X169770185Y-47131132D01*
X169822989Y-47085377D01*
X169892147Y-47075433D01*
X169936495Y-47090782D01*
X169995692Y-47124959D01*
X170117136Y-47157500D01*
X170117139Y-47157500D01*
X170242861Y-47157500D01*
X170242864Y-47157500D01*
X170364308Y-47124959D01*
X170473192Y-47062095D01*
X170562095Y-46973192D01*
X170624959Y-46864308D01*
X170657500Y-46742864D01*
X170657500Y-46617136D01*
X175482500Y-46617136D01*
X175482500Y-46742864D01*
X175506905Y-46833947D01*
X175515041Y-46864309D01*
X175515042Y-46864310D01*
X175577902Y-46973188D01*
X175577904Y-46973191D01*
X175577905Y-46973192D01*
X175666808Y-47062095D01*
X175775692Y-47124959D01*
X175897136Y-47157500D01*
X175897139Y-47157500D01*
X176022861Y-47157500D01*
X176022864Y-47157500D01*
X176144308Y-47124959D01*
X176203502Y-47090783D01*
X176271399Y-47074311D01*
X176337426Y-47097163D01*
X176380617Y-47152084D01*
X176389500Y-47198171D01*
X176389500Y-47828541D01*
X176389500Y-47828543D01*
X176389499Y-47828543D01*
X176427947Y-48021829D01*
X176427950Y-48021839D01*
X176503364Y-48203907D01*
X176503371Y-48203920D01*
X176612860Y-48367781D01*
X176612863Y-48367785D01*
X176752214Y-48507136D01*
X176752218Y-48507139D01*
X176916079Y-48616628D01*
X176916092Y-48616635D01*
X177069059Y-48679995D01*
X177098165Y-48692051D01*
X177098169Y-48692051D01*
X177098170Y-48692052D01*
X177291456Y-48730500D01*
X177291459Y-48730500D01*
X177488543Y-48730500D01*
X177618582Y-48704632D01*
X177681835Y-48692051D01*
X177863914Y-48616632D01*
X178027782Y-48507139D01*
X178167139Y-48367782D01*
X178276632Y-48203914D01*
X178352051Y-48021835D01*
X178372288Y-47920099D01*
X178390500Y-47828543D01*
X178390500Y-46531456D01*
X178352052Y-46338170D01*
X178352051Y-46338169D01*
X178352051Y-46338165D01*
X178350960Y-46335531D01*
X178276635Y-46156092D01*
X178276628Y-46156079D01*
X178167139Y-45992218D01*
X178167136Y-45992214D01*
X178027785Y-45852863D01*
X178027781Y-45852860D01*
X177863920Y-45743371D01*
X177863907Y-45743364D01*
X177681839Y-45667950D01*
X177681829Y-45667947D01*
X177488543Y-45629500D01*
X177488541Y-45629500D01*
X177291459Y-45629500D01*
X177291457Y-45629500D01*
X177098170Y-45667947D01*
X177098160Y-45667950D01*
X176916092Y-45743364D01*
X176916079Y-45743371D01*
X176752218Y-45852860D01*
X176752214Y-45852863D01*
X176612863Y-45992214D01*
X176612860Y-45992218D01*
X176503371Y-46156079D01*
X176503366Y-46156088D01*
X176459573Y-46261816D01*
X176415732Y-46316219D01*
X176349438Y-46338284D01*
X176281739Y-46321005D01*
X176257331Y-46302044D01*
X176253193Y-46297906D01*
X176253188Y-46297902D01*
X176144310Y-46235042D01*
X176144309Y-46235041D01*
X176107077Y-46225065D01*
X176022864Y-46202500D01*
X175897136Y-46202500D01*
X175824269Y-46222024D01*
X175775690Y-46235041D01*
X175775689Y-46235042D01*
X175666811Y-46297902D01*
X175666806Y-46297906D01*
X175577906Y-46386806D01*
X175577902Y-46386811D01*
X175515042Y-46495689D01*
X175515041Y-46495690D01*
X175510969Y-46510887D01*
X175482500Y-46617136D01*
X170657500Y-46617136D01*
X170624959Y-46495692D01*
X170563171Y-46388671D01*
X170562097Y-46386811D01*
X170562093Y-46386806D01*
X170473193Y-46297906D01*
X170473188Y-46297902D01*
X170364310Y-46235042D01*
X170364309Y-46235041D01*
X170327077Y-46225065D01*
X170242864Y-46202500D01*
X170117136Y-46202500D01*
X170044269Y-46222024D01*
X169995690Y-46235041D01*
X169995689Y-46235042D01*
X169886811Y-46297902D01*
X169886808Y-46297904D01*
X169882664Y-46302049D01*
X169821339Y-46335531D01*
X169751648Y-46330543D01*
X169695716Y-46288668D01*
X169680426Y-46261815D01*
X169636635Y-46156092D01*
X169636628Y-46156079D01*
X169527139Y-45992218D01*
X169527136Y-45992214D01*
X169387785Y-45852863D01*
X169387781Y-45852860D01*
X169223920Y-45743371D01*
X169223907Y-45743364D01*
X169041839Y-45667950D01*
X169041829Y-45667947D01*
X168848543Y-45629500D01*
X168848541Y-45629500D01*
X168651459Y-45629500D01*
X168651457Y-45629500D01*
X168458170Y-45667947D01*
X168458160Y-45667950D01*
X168276092Y-45743364D01*
X168276079Y-45743371D01*
X168112218Y-45852860D01*
X168112214Y-45852863D01*
X167972863Y-45992214D01*
X167972860Y-45992218D01*
X167863371Y-46156079D01*
X167863364Y-46156092D01*
X167787950Y-46338160D01*
X167787947Y-46338170D01*
X167749500Y-46531456D01*
X167749500Y-46531459D01*
X167749500Y-47828541D01*
X167749500Y-47828543D01*
X167749499Y-47828543D01*
X151857445Y-47828543D01*
X151866718Y-47770000D01*
X150933012Y-47770000D01*
X150965925Y-47712993D01*
X151000000Y-47585826D01*
X151000000Y-47454174D01*
X150965925Y-47327007D01*
X150933012Y-47270000D01*
X151866718Y-47270000D01*
X151854798Y-47194741D01*
X151787238Y-46986811D01*
X151787237Y-46986808D01*
X151687976Y-46792001D01*
X151559475Y-46615133D01*
X151559471Y-46615128D01*
X151404871Y-46460528D01*
X151404866Y-46460524D01*
X151253605Y-46350627D01*
X151210939Y-46295297D01*
X151204960Y-46225684D01*
X151237565Y-46163889D01*
X151253599Y-46149994D01*
X151405199Y-46039852D01*
X151559852Y-45885199D01*
X151559854Y-45885195D01*
X151559857Y-45885193D01*
X151662895Y-45743371D01*
X151688407Y-45708257D01*
X151787701Y-45513383D01*
X151855286Y-45305375D01*
X151876253Y-45172993D01*
X151889500Y-45089361D01*
X151889500Y-44870638D01*
X151858195Y-44672993D01*
X151855286Y-44654625D01*
X151787701Y-44446617D01*
X151787701Y-44446616D01*
X151706185Y-44286635D01*
X151688407Y-44251743D01*
X151669681Y-44225969D01*
X151559857Y-44074806D01*
X151405193Y-43920142D01*
X151228260Y-43791595D01*
X151228259Y-43791594D01*
X151228257Y-43791593D01*
X151165825Y-43759782D01*
X151033383Y-43692298D01*
X151033380Y-43692297D01*
X150825376Y-43624714D01*
X150609361Y-43590500D01*
X150609356Y-43590500D01*
X150390644Y-43590500D01*
X150390639Y-43590500D01*
X150174623Y-43624714D01*
X149966619Y-43692297D01*
X149966616Y-43692298D01*
X149771739Y-43791595D01*
X149594806Y-43920142D01*
X149440142Y-44074806D01*
X149330318Y-44225969D01*
X149274989Y-44268635D01*
X149205375Y-44274614D01*
X149143580Y-44242009D01*
X149129682Y-44225969D01*
X149019857Y-44074806D01*
X148865193Y-43920142D01*
X148688260Y-43791595D01*
X148688259Y-43791594D01*
X148688257Y-43791593D01*
X148625825Y-43759782D01*
X148493383Y-43692298D01*
X148493380Y-43692297D01*
X148285376Y-43624714D01*
X148069361Y-43590500D01*
X148069356Y-43590500D01*
X147850644Y-43590500D01*
X147850639Y-43590500D01*
X147634623Y-43624714D01*
X147426619Y-43692297D01*
X147426616Y-43692298D01*
X147231739Y-43791595D01*
X147054806Y-43920142D01*
X146900142Y-44074806D01*
X146790318Y-44225969D01*
X146734989Y-44268635D01*
X146665375Y-44274614D01*
X146603580Y-44242009D01*
X146589682Y-44225969D01*
X146479857Y-44074806D01*
X146325193Y-43920142D01*
X146148260Y-43791595D01*
X146148259Y-43791594D01*
X146148257Y-43791593D01*
X146085825Y-43759782D01*
X145953383Y-43692298D01*
X145953380Y-43692297D01*
X145745376Y-43624714D01*
X145529361Y-43590500D01*
X145529356Y-43590500D01*
X145310644Y-43590500D01*
X145310639Y-43590500D01*
X145094623Y-43624714D01*
X144886619Y-43692297D01*
X144886616Y-43692298D01*
X144691739Y-43791595D01*
X144514806Y-43920142D01*
X144360146Y-44074802D01*
X144360142Y-44074807D01*
X144250008Y-44226394D01*
X144194678Y-44269060D01*
X144125065Y-44275039D01*
X144063270Y-44242433D01*
X144049372Y-44226394D01*
X143939475Y-44075133D01*
X143939471Y-44075128D01*
X143784871Y-43920528D01*
X143784866Y-43920524D01*
X143607998Y-43792023D01*
X143413191Y-43692762D01*
X143413188Y-43692761D01*
X143205258Y-43625201D01*
X143130000Y-43613281D01*
X143130000Y-44546988D01*
X143072993Y-44514075D01*
X142945826Y-44480000D01*
X142814174Y-44480000D01*
X142687007Y-44514075D01*
X142630000Y-44546988D01*
X142630000Y-43613281D01*
X142554741Y-43625201D01*
X142346811Y-43692761D01*
X142346808Y-43692762D01*
X142152001Y-43792023D01*
X141975133Y-43920524D01*
X141975128Y-43920528D01*
X141820528Y-44075128D01*
X141820524Y-44075133D01*
X141710627Y-44226394D01*
X141655297Y-44269060D01*
X141585684Y-44275039D01*
X141523889Y-44242433D01*
X141509991Y-44226394D01*
X141399857Y-44074807D01*
X141399853Y-44074802D01*
X141245193Y-43920142D01*
X141068260Y-43791595D01*
X141068259Y-43791594D01*
X141068257Y-43791593D01*
X141005825Y-43759782D01*
X140873383Y-43692298D01*
X140873380Y-43692297D01*
X140665376Y-43624714D01*
X140449361Y-43590500D01*
X140449356Y-43590500D01*
X140230644Y-43590500D01*
X140230639Y-43590500D01*
X140014623Y-43624714D01*
X139806619Y-43692297D01*
X139806616Y-43692298D01*
X139611739Y-43791595D01*
X139434806Y-43920142D01*
X139280146Y-44074802D01*
X139280142Y-44074807D01*
X139170008Y-44226394D01*
X139114678Y-44269060D01*
X139045065Y-44275039D01*
X138983270Y-44242433D01*
X138969372Y-44226394D01*
X138859475Y-44075133D01*
X138859471Y-44075128D01*
X138704871Y-43920528D01*
X138704866Y-43920524D01*
X138527998Y-43792023D01*
X138333191Y-43692762D01*
X138333188Y-43692761D01*
X138125258Y-43625201D01*
X138050000Y-43613281D01*
X138050000Y-44546988D01*
X137992993Y-44514075D01*
X137865826Y-44480000D01*
X137734174Y-44480000D01*
X137607007Y-44514075D01*
X137550000Y-44546988D01*
X137550000Y-43613281D01*
X137474741Y-43625201D01*
X137266811Y-43692761D01*
X137266808Y-43692762D01*
X137072001Y-43792023D01*
X136895133Y-43920524D01*
X136895128Y-43920528D01*
X136740528Y-44075128D01*
X136740524Y-44075133D01*
X136630627Y-44226394D01*
X136575297Y-44269060D01*
X136505684Y-44275039D01*
X136443889Y-44242433D01*
X136429991Y-44226394D01*
X136319857Y-44074807D01*
X136319853Y-44074802D01*
X136165193Y-43920142D01*
X135988260Y-43791595D01*
X135988259Y-43791594D01*
X135988257Y-43791593D01*
X135925825Y-43759782D01*
X135793383Y-43692298D01*
X135793380Y-43692297D01*
X135585376Y-43624714D01*
X135369361Y-43590500D01*
X135369356Y-43590500D01*
X135150644Y-43590500D01*
X135150639Y-43590500D01*
X134934623Y-43624714D01*
X134726619Y-43692297D01*
X134726616Y-43692298D01*
X134531739Y-43791595D01*
X134354806Y-43920142D01*
X134200142Y-44074806D01*
X134090318Y-44225969D01*
X134034989Y-44268635D01*
X133965375Y-44274614D01*
X133903580Y-44242009D01*
X133889682Y-44225969D01*
X133779857Y-44074806D01*
X133625193Y-43920142D01*
X133448260Y-43791595D01*
X133448259Y-43791594D01*
X133448257Y-43791593D01*
X133385825Y-43759782D01*
X133253383Y-43692298D01*
X133253380Y-43692297D01*
X133045376Y-43624714D01*
X132829361Y-43590500D01*
X132829356Y-43590500D01*
X132610644Y-43590500D01*
X132610639Y-43590500D01*
X132394623Y-43624714D01*
X132186619Y-43692297D01*
X132186616Y-43692298D01*
X131991739Y-43791595D01*
X131814806Y-43920142D01*
X131660142Y-44074806D01*
X131550318Y-44225969D01*
X131494989Y-44268635D01*
X131425375Y-44274614D01*
X131363580Y-44242009D01*
X131349682Y-44225969D01*
X131239857Y-44074806D01*
X131085193Y-43920142D01*
X130908260Y-43791595D01*
X130908259Y-43791594D01*
X130908257Y-43791593D01*
X130845825Y-43759782D01*
X130713383Y-43692298D01*
X130713380Y-43692297D01*
X130505376Y-43624714D01*
X130289361Y-43590500D01*
X130289356Y-43590500D01*
X130070644Y-43590500D01*
X130070639Y-43590500D01*
X129854623Y-43624714D01*
X129646619Y-43692297D01*
X129646616Y-43692298D01*
X129451739Y-43791595D01*
X129274806Y-43920142D01*
X129120142Y-44074806D01*
X129010318Y-44225969D01*
X128954989Y-44268635D01*
X128885375Y-44274614D01*
X128823580Y-44242009D01*
X128809682Y-44225969D01*
X128699857Y-44074806D01*
X128545193Y-43920142D01*
X128368260Y-43791595D01*
X128368259Y-43791594D01*
X128368257Y-43791593D01*
X128305825Y-43759782D01*
X128173383Y-43692298D01*
X128173380Y-43692297D01*
X127965376Y-43624714D01*
X127749361Y-43590500D01*
X127749356Y-43590500D01*
X127530644Y-43590500D01*
X127530639Y-43590500D01*
X127314623Y-43624714D01*
X127106619Y-43692297D01*
X127106616Y-43692298D01*
X126911739Y-43791595D01*
X126734806Y-43920142D01*
X126580146Y-44074802D01*
X126580142Y-44074807D01*
X126470008Y-44226394D01*
X126414678Y-44269060D01*
X126345065Y-44275039D01*
X126283270Y-44242433D01*
X126269372Y-44226394D01*
X126159475Y-44075133D01*
X126159471Y-44075128D01*
X126004871Y-43920528D01*
X126004866Y-43920524D01*
X125827998Y-43792023D01*
X125633191Y-43692762D01*
X125633188Y-43692761D01*
X125425258Y-43625201D01*
X125350000Y-43613281D01*
X125350000Y-44546988D01*
X125292993Y-44514075D01*
X125165826Y-44480000D01*
X125034174Y-44480000D01*
X124907007Y-44514075D01*
X124850000Y-44546988D01*
X124850000Y-43613281D01*
X124774741Y-43625201D01*
X124566811Y-43692761D01*
X124566808Y-43692762D01*
X124372001Y-43792023D01*
X124195133Y-43920524D01*
X124195128Y-43920528D01*
X124040528Y-44075128D01*
X124040524Y-44075133D01*
X123930627Y-44226394D01*
X123875297Y-44269060D01*
X123805684Y-44275039D01*
X123743889Y-44242433D01*
X123729991Y-44226394D01*
X123619857Y-44074807D01*
X123619853Y-44074802D01*
X123465193Y-43920142D01*
X123288260Y-43791595D01*
X123288259Y-43791594D01*
X123288257Y-43791593D01*
X123225825Y-43759782D01*
X123093383Y-43692298D01*
X123093380Y-43692297D01*
X122885376Y-43624714D01*
X122669361Y-43590500D01*
X122669356Y-43590500D01*
X122450644Y-43590500D01*
X122450639Y-43590500D01*
X122234623Y-43624714D01*
X122026619Y-43692297D01*
X122026616Y-43692298D01*
X121831739Y-43791595D01*
X121654806Y-43920142D01*
X121500142Y-44074806D01*
X121390318Y-44225969D01*
X121334989Y-44268635D01*
X121265375Y-44274614D01*
X121203580Y-44242009D01*
X121189682Y-44225969D01*
X121079857Y-44074806D01*
X120925193Y-43920142D01*
X120748260Y-43791595D01*
X120748259Y-43791594D01*
X120748257Y-43791593D01*
X120685825Y-43759782D01*
X120553383Y-43692298D01*
X120553380Y-43692297D01*
X120345376Y-43624714D01*
X120129361Y-43590500D01*
X120129356Y-43590500D01*
X119910644Y-43590500D01*
X119910639Y-43590500D01*
X119694623Y-43624714D01*
X119486619Y-43692297D01*
X119486616Y-43692298D01*
X119291739Y-43791595D01*
X119114806Y-43920142D01*
X118960146Y-44074802D01*
X118960142Y-44074807D01*
X118850008Y-44226394D01*
X118794678Y-44269060D01*
X118725065Y-44275039D01*
X118663270Y-44242433D01*
X118649372Y-44226394D01*
X118539475Y-44075133D01*
X118539471Y-44075128D01*
X118384871Y-43920528D01*
X118384866Y-43920524D01*
X118207998Y-43792023D01*
X118013191Y-43692762D01*
X118013188Y-43692761D01*
X117805258Y-43625201D01*
X117730000Y-43613281D01*
X117730000Y-44546988D01*
X117672993Y-44514075D01*
X117545826Y-44480000D01*
X117414174Y-44480000D01*
X117287007Y-44514075D01*
X117230000Y-44546988D01*
X117230000Y-43613281D01*
X117154741Y-43625201D01*
X116946811Y-43692761D01*
X116946808Y-43692762D01*
X116752001Y-43792023D01*
X116575133Y-43920524D01*
X116575128Y-43920528D01*
X116420528Y-44075128D01*
X116420524Y-44075133D01*
X116310627Y-44226394D01*
X116255297Y-44269060D01*
X116185684Y-44275039D01*
X116123889Y-44242433D01*
X116109991Y-44226394D01*
X115999857Y-44074807D01*
X115999853Y-44074802D01*
X115845193Y-43920142D01*
X115668260Y-43791595D01*
X115668259Y-43791594D01*
X115668257Y-43791593D01*
X115605825Y-43759782D01*
X115473383Y-43692298D01*
X115473380Y-43692297D01*
X115265376Y-43624714D01*
X115049361Y-43590500D01*
X115049356Y-43590500D01*
X114830644Y-43590500D01*
X114830639Y-43590500D01*
X114614623Y-43624714D01*
X114406619Y-43692297D01*
X114406616Y-43692298D01*
X114211739Y-43791595D01*
X114034806Y-43920142D01*
X113880142Y-44074806D01*
X113770318Y-44225969D01*
X113714989Y-44268635D01*
X113645375Y-44274614D01*
X113583580Y-44242009D01*
X113569682Y-44225969D01*
X113459857Y-44074806D01*
X113305193Y-43920142D01*
X113128260Y-43791595D01*
X113128259Y-43791594D01*
X113128257Y-43791593D01*
X113065825Y-43759782D01*
X112933383Y-43692298D01*
X112933380Y-43692297D01*
X112725376Y-43624714D01*
X112509361Y-43590500D01*
X112509356Y-43590500D01*
X112290644Y-43590500D01*
X112290639Y-43590500D01*
X112074623Y-43624714D01*
X111866619Y-43692297D01*
X111866616Y-43692298D01*
X111671739Y-43791595D01*
X111494806Y-43920142D01*
X111340142Y-44074806D01*
X111230318Y-44225969D01*
X111174989Y-44268635D01*
X111105375Y-44274614D01*
X111043580Y-44242009D01*
X111029682Y-44225969D01*
X110919857Y-44074806D01*
X110765193Y-43920142D01*
X110588260Y-43791595D01*
X110588259Y-43791594D01*
X110588257Y-43791593D01*
X110525825Y-43759782D01*
X110393383Y-43692298D01*
X110393380Y-43692297D01*
X110185376Y-43624714D01*
X109969361Y-43590500D01*
X109969356Y-43590500D01*
X109750644Y-43590500D01*
X109750639Y-43590500D01*
X109534623Y-43624714D01*
X109326619Y-43692297D01*
X109326616Y-43692298D01*
X109131739Y-43791595D01*
X108954806Y-43920142D01*
X108800146Y-44074802D01*
X108800142Y-44074807D01*
X108690008Y-44226394D01*
X108634678Y-44269060D01*
X108565065Y-44275039D01*
X108503270Y-44242433D01*
X108489372Y-44226394D01*
X108379475Y-44075133D01*
X108379471Y-44075128D01*
X108224871Y-43920528D01*
X108224866Y-43920524D01*
X108047998Y-43792023D01*
X107853191Y-43692762D01*
X107853188Y-43692761D01*
X107645258Y-43625201D01*
X107570000Y-43613281D01*
X107570000Y-44546988D01*
X107512993Y-44514075D01*
X107385826Y-44480000D01*
X107254174Y-44480000D01*
X107127007Y-44514075D01*
X107070000Y-44546988D01*
X107070000Y-43613281D01*
X106994741Y-43625201D01*
X106786811Y-43692761D01*
X106786808Y-43692762D01*
X106592001Y-43792023D01*
X106415133Y-43920524D01*
X106415128Y-43920528D01*
X106260528Y-44075128D01*
X106260524Y-44075133D01*
X106150627Y-44226394D01*
X106095297Y-44269060D01*
X106025684Y-44275039D01*
X105963889Y-44242433D01*
X105949991Y-44226394D01*
X105839857Y-44074807D01*
X105839853Y-44074802D01*
X105685193Y-43920142D01*
X105508260Y-43791595D01*
X105508259Y-43791594D01*
X105508257Y-43791593D01*
X105445825Y-43759782D01*
X105313383Y-43692298D01*
X105313380Y-43692297D01*
X105105376Y-43624714D01*
X104889361Y-43590500D01*
X104889356Y-43590500D01*
X104670644Y-43590500D01*
X104670639Y-43590500D01*
X104454623Y-43624714D01*
X104246619Y-43692297D01*
X104246616Y-43692298D01*
X104051739Y-43791595D01*
X103874806Y-43920142D01*
X103720142Y-44074806D01*
X103610318Y-44225969D01*
X103554989Y-44268635D01*
X103485375Y-44274614D01*
X103423580Y-44242009D01*
X103409682Y-44225969D01*
X103299857Y-44074806D01*
X103145193Y-43920142D01*
X102968260Y-43791595D01*
X102968259Y-43791594D01*
X102968257Y-43791593D01*
X102905825Y-43759782D01*
X102773383Y-43692298D01*
X102773380Y-43692297D01*
X102565376Y-43624714D01*
X102349361Y-43590500D01*
X102349356Y-43590500D01*
X102130644Y-43590500D01*
X102130639Y-43590500D01*
X101914623Y-43624714D01*
X101706619Y-43692297D01*
X101706616Y-43692298D01*
X101511739Y-43791595D01*
X101334806Y-43920142D01*
X101180142Y-44074806D01*
X101051595Y-44251739D01*
X100952298Y-44446616D01*
X100952297Y-44446619D01*
X100884714Y-44654623D01*
X100850500Y-44870638D01*
X100850500Y-45089361D01*
X100884714Y-45305376D01*
X100952297Y-45513380D01*
X100952298Y-45513383D01*
X101011464Y-45629500D01*
X101046628Y-45698513D01*
X101051595Y-45708260D01*
X101180142Y-45885193D01*
X101244258Y-45949309D01*
X101277743Y-46010632D01*
X101272759Y-46080324D01*
X101230887Y-46136257D01*
X101199911Y-46153172D01*
X101108670Y-46187203D01*
X101108664Y-46187206D01*
X100993455Y-46273452D01*
X100993452Y-46273455D01*
X100907206Y-46388664D01*
X100907202Y-46388671D01*
X100856908Y-46523517D01*
X100850501Y-46583116D01*
X100850500Y-46583135D01*
X100850500Y-48456870D01*
X100850501Y-48456876D01*
X100856908Y-48516483D01*
X100907202Y-48651328D01*
X100907206Y-48651335D01*
X100993452Y-48766544D01*
X100993455Y-48766547D01*
X101108664Y-48852793D01*
X101108671Y-48852797D01*
X101243517Y-48903091D01*
X101243516Y-48903091D01*
X101250444Y-48903835D01*
X101303127Y-48909500D01*
X103176872Y-48909499D01*
X103236483Y-48903091D01*
X103371331Y-48852796D01*
X103486546Y-48766546D01*
X103572796Y-48651331D01*
X103606827Y-48560088D01*
X103648698Y-48504156D01*
X103714162Y-48479738D01*
X103782435Y-48494589D01*
X103810690Y-48515741D01*
X103874806Y-48579857D01*
X104012637Y-48679995D01*
X104051743Y-48708407D01*
X104173043Y-48770213D01*
X104246616Y-48807701D01*
X104246619Y-48807702D01*
X104347074Y-48840341D01*
X104454625Y-48875286D01*
X104554672Y-48891132D01*
X104670639Y-48909500D01*
X104670644Y-48909500D01*
X104889361Y-48909500D01*
X104994082Y-48892912D01*
X105105375Y-48875286D01*
X105313383Y-48807701D01*
X105508257Y-48708407D01*
X105607601Y-48636229D01*
X105685193Y-48579857D01*
X105685195Y-48579854D01*
X105685199Y-48579852D01*
X105839852Y-48425199D01*
X105949683Y-48274028D01*
X106005011Y-48231364D01*
X106074624Y-48225385D01*
X106136420Y-48257990D01*
X106150313Y-48274023D01*
X106218435Y-48367785D01*
X106260148Y-48425199D01*
X106414806Y-48579857D01*
X106552637Y-48679995D01*
X106591743Y-48708407D01*
X106713043Y-48770213D01*
X106786616Y-48807701D01*
X106786619Y-48807702D01*
X106887074Y-48840341D01*
X106994625Y-48875286D01*
X107094672Y-48891132D01*
X107210639Y-48909500D01*
X107210644Y-48909500D01*
X107429361Y-48909500D01*
X107534082Y-48892912D01*
X107645375Y-48875286D01*
X107853383Y-48807701D01*
X108048257Y-48708407D01*
X108147601Y-48636229D01*
X108225193Y-48579857D01*
X108225195Y-48579854D01*
X108225199Y-48579852D01*
X108379852Y-48425199D01*
X108489683Y-48274028D01*
X108545011Y-48231364D01*
X108614624Y-48225385D01*
X108676420Y-48257990D01*
X108690313Y-48274023D01*
X108758435Y-48367785D01*
X108800148Y-48425199D01*
X108954806Y-48579857D01*
X109092637Y-48679995D01*
X109131743Y-48708407D01*
X109253043Y-48770213D01*
X109326616Y-48807701D01*
X109326619Y-48807702D01*
X109427074Y-48840341D01*
X109534625Y-48875286D01*
X109634672Y-48891132D01*
X109750639Y-48909500D01*
X109750644Y-48909500D01*
X109969361Y-48909500D01*
X110074082Y-48892912D01*
X110185375Y-48875286D01*
X110393383Y-48807701D01*
X110588257Y-48708407D01*
X110687601Y-48636229D01*
X110765193Y-48579857D01*
X110765195Y-48579854D01*
X110765199Y-48579852D01*
X110919852Y-48425199D01*
X111029991Y-48273603D01*
X111085320Y-48230939D01*
X111154933Y-48224960D01*
X111216729Y-48257565D01*
X111230627Y-48273605D01*
X111340524Y-48424866D01*
X111340528Y-48424871D01*
X111495128Y-48579471D01*
X111495133Y-48579475D01*
X111672001Y-48707976D01*
X111866808Y-48807237D01*
X111866811Y-48807238D01*
X112074739Y-48874797D01*
X112149999Y-48886717D01*
X112150000Y-48886717D01*
X112150000Y-47953012D01*
X112207007Y-47985925D01*
X112334174Y-48020000D01*
X112465826Y-48020000D01*
X112592993Y-47985925D01*
X112650000Y-47953012D01*
X112650000Y-48886717D01*
X112725258Y-48874797D01*
X112725261Y-48874797D01*
X112933188Y-48807238D01*
X112933191Y-48807237D01*
X113127998Y-48707976D01*
X113304866Y-48579475D01*
X113304871Y-48579471D01*
X113459469Y-48424873D01*
X113569371Y-48273605D01*
X113624701Y-48230939D01*
X113694314Y-48224960D01*
X113756110Y-48257565D01*
X113770008Y-48273605D01*
X113880142Y-48425192D01*
X113880146Y-48425197D01*
X114034806Y-48579857D01*
X114172637Y-48679995D01*
X114211743Y-48708407D01*
X114333043Y-48770213D01*
X114406616Y-48807701D01*
X114406619Y-48807702D01*
X114507074Y-48840341D01*
X114614625Y-48875286D01*
X114714672Y-48891132D01*
X114830639Y-48909500D01*
X114830644Y-48909500D01*
X115049361Y-48909500D01*
X115154082Y-48892912D01*
X115265375Y-48875286D01*
X115473383Y-48807701D01*
X115668257Y-48708407D01*
X115767601Y-48636229D01*
X115845193Y-48579857D01*
X115845195Y-48579854D01*
X115845199Y-48579852D01*
X115999852Y-48425199D01*
X116109683Y-48274028D01*
X116165011Y-48231364D01*
X116234624Y-48225385D01*
X116296420Y-48257990D01*
X116310313Y-48274023D01*
X116378435Y-48367785D01*
X116420148Y-48425199D01*
X116574806Y-48579857D01*
X116712637Y-48679995D01*
X116751743Y-48708407D01*
X116873043Y-48770213D01*
X116946616Y-48807701D01*
X116946619Y-48807702D01*
X117047074Y-48840341D01*
X117154625Y-48875286D01*
X117254672Y-48891132D01*
X117370639Y-48909500D01*
X117370644Y-48909500D01*
X117589361Y-48909500D01*
X117694082Y-48892912D01*
X117805375Y-48875286D01*
X118013383Y-48807701D01*
X118208257Y-48708407D01*
X118307601Y-48636229D01*
X118385193Y-48579857D01*
X118385195Y-48579854D01*
X118385199Y-48579852D01*
X118539852Y-48425199D01*
X118649683Y-48274028D01*
X118705011Y-48231364D01*
X118774624Y-48225385D01*
X118836420Y-48257990D01*
X118850313Y-48274023D01*
X118918435Y-48367785D01*
X118960148Y-48425199D01*
X119114806Y-48579857D01*
X119252637Y-48679995D01*
X119291743Y-48708407D01*
X119413043Y-48770213D01*
X119486616Y-48807701D01*
X119486619Y-48807702D01*
X119587074Y-48840341D01*
X119694625Y-48875286D01*
X119794672Y-48891132D01*
X119910639Y-48909500D01*
X119910644Y-48909500D01*
X120129361Y-48909500D01*
X120234082Y-48892912D01*
X120345375Y-48875286D01*
X120553383Y-48807701D01*
X120748257Y-48708407D01*
X120847601Y-48636229D01*
X120925193Y-48579857D01*
X120925195Y-48579854D01*
X120925199Y-48579852D01*
X121079852Y-48425199D01*
X121189683Y-48274028D01*
X121245011Y-48231364D01*
X121314624Y-48225385D01*
X121376420Y-48257990D01*
X121390313Y-48274023D01*
X121458435Y-48367785D01*
X121500148Y-48425199D01*
X121654806Y-48579857D01*
X121792637Y-48679995D01*
X121831743Y-48708407D01*
X121953043Y-48770213D01*
X122026616Y-48807701D01*
X122026619Y-48807702D01*
X122127074Y-48840341D01*
X122234625Y-48875286D01*
X122334672Y-48891132D01*
X122450639Y-48909500D01*
X122450644Y-48909500D01*
X122669361Y-48909500D01*
X122774082Y-48892912D01*
X122885375Y-48875286D01*
X123093383Y-48807701D01*
X123288257Y-48708407D01*
X123387601Y-48636229D01*
X123465193Y-48579857D01*
X123465195Y-48579854D01*
X123465199Y-48579852D01*
X123619852Y-48425199D01*
X123729683Y-48274028D01*
X123785011Y-48231364D01*
X123854624Y-48225385D01*
X123916420Y-48257990D01*
X123930313Y-48274023D01*
X123998435Y-48367785D01*
X124040148Y-48425199D01*
X124194806Y-48579857D01*
X124332637Y-48679995D01*
X124371743Y-48708407D01*
X124493043Y-48770213D01*
X124566616Y-48807701D01*
X124566619Y-48807702D01*
X124667074Y-48840341D01*
X124774625Y-48875286D01*
X124874672Y-48891132D01*
X124990639Y-48909500D01*
X124990644Y-48909500D01*
X125209361Y-48909500D01*
X125314082Y-48892912D01*
X125425375Y-48875286D01*
X125633383Y-48807701D01*
X125828257Y-48708407D01*
X125927601Y-48636229D01*
X126005193Y-48579857D01*
X126005195Y-48579854D01*
X126005199Y-48579852D01*
X126159852Y-48425199D01*
X126269683Y-48274028D01*
X126325011Y-48231364D01*
X126394624Y-48225385D01*
X126456420Y-48257990D01*
X126470313Y-48274023D01*
X126538435Y-48367785D01*
X126580148Y-48425199D01*
X126734806Y-48579857D01*
X126872637Y-48679995D01*
X126911743Y-48708407D01*
X127033043Y-48770213D01*
X127106616Y-48807701D01*
X127106619Y-48807702D01*
X127207074Y-48840341D01*
X127314625Y-48875286D01*
X127414672Y-48891132D01*
X127530639Y-48909500D01*
X127530644Y-48909500D01*
X127749361Y-48909500D01*
X127854082Y-48892912D01*
X127965375Y-48875286D01*
X128173383Y-48807701D01*
X128368257Y-48708407D01*
X128467601Y-48636229D01*
X128545193Y-48579857D01*
X128545195Y-48579854D01*
X128545199Y-48579852D01*
X128699852Y-48425199D01*
X128809683Y-48274028D01*
X128865011Y-48231364D01*
X128934624Y-48225385D01*
X128996420Y-48257990D01*
X129010313Y-48274023D01*
X129078435Y-48367785D01*
X129120148Y-48425199D01*
X129274806Y-48579857D01*
X129412637Y-48679995D01*
X129451743Y-48708407D01*
X129573043Y-48770213D01*
X129646616Y-48807701D01*
X129646619Y-48807702D01*
X129747074Y-48840341D01*
X129854625Y-48875286D01*
X129954672Y-48891132D01*
X130070639Y-48909500D01*
X130070644Y-48909500D01*
X130289361Y-48909500D01*
X130394082Y-48892912D01*
X130505375Y-48875286D01*
X130713383Y-48807701D01*
X130908257Y-48708407D01*
X131007601Y-48636229D01*
X131085193Y-48579857D01*
X131085195Y-48579854D01*
X131085199Y-48579852D01*
X131239852Y-48425199D01*
X131349991Y-48273603D01*
X131405320Y-48230939D01*
X131474933Y-48224960D01*
X131536729Y-48257565D01*
X131550627Y-48273605D01*
X131660524Y-48424866D01*
X131660528Y-48424871D01*
X131815128Y-48579471D01*
X131815133Y-48579475D01*
X131992001Y-48707976D01*
X132186808Y-48807237D01*
X132186811Y-48807238D01*
X132394739Y-48874797D01*
X132470000Y-48886717D01*
X132470000Y-47953012D01*
X132527007Y-47985925D01*
X132654174Y-48020000D01*
X132785826Y-48020000D01*
X132912993Y-47985925D01*
X132970000Y-47953012D01*
X132970000Y-48886717D01*
X133045258Y-48874797D01*
X133045261Y-48874797D01*
X133253188Y-48807238D01*
X133253191Y-48807237D01*
X133447998Y-48707976D01*
X133624866Y-48579475D01*
X133624871Y-48579471D01*
X133779469Y-48424873D01*
X133889371Y-48273605D01*
X133944701Y-48230939D01*
X134014314Y-48224960D01*
X134076110Y-48257565D01*
X134090008Y-48273605D01*
X134200142Y-48425192D01*
X134200146Y-48425197D01*
X134354806Y-48579857D01*
X134492637Y-48679995D01*
X134531743Y-48708407D01*
X134653043Y-48770213D01*
X134726616Y-48807701D01*
X134726619Y-48807702D01*
X134827074Y-48840341D01*
X134934625Y-48875286D01*
X135034672Y-48891132D01*
X135150639Y-48909500D01*
X135223718Y-48909500D01*
X135290757Y-48929185D01*
X135336512Y-48981989D01*
X135346456Y-49051147D01*
X135317431Y-49114703D01*
X135311399Y-49121181D01*
X132476400Y-51956181D01*
X132415077Y-51989666D01*
X132388719Y-51992500D01*
X101678194Y-51992500D01*
X101556970Y-52016613D01*
X101556960Y-52016616D01*
X101442773Y-52063913D01*
X101442760Y-52063920D01*
X101339992Y-52132588D01*
X101339988Y-52132591D01*
X98361400Y-55111181D01*
X98300077Y-55144666D01*
X98273719Y-55147500D01*
X97088639Y-55147500D01*
X97023214Y-55157862D01*
X96892362Y-55178587D01*
X96703370Y-55239993D01*
X96703367Y-55239994D01*
X96526305Y-55330213D01*
X96365533Y-55447021D01*
X96225021Y-55587533D01*
X96108213Y-55748305D01*
X96017994Y-55925367D01*
X96017993Y-55925370D01*
X95956587Y-56114362D01*
X95925500Y-56310639D01*
X95925500Y-56509360D01*
X95956587Y-56705637D01*
X96017993Y-56894629D01*
X96017994Y-56894632D01*
X96086057Y-57028211D01*
X96108213Y-57071694D01*
X96225019Y-57232464D01*
X96365536Y-57372981D01*
X96526306Y-57489787D01*
X96683332Y-57569796D01*
X96734127Y-57617769D01*
X96750922Y-57685590D01*
X96728385Y-57751725D01*
X96683332Y-57790764D01*
X96526569Y-57870639D01*
X96365860Y-57987403D01*
X96365859Y-57987403D01*
X96225403Y-58127859D01*
X96225403Y-58127860D01*
X96108641Y-58288567D01*
X96018456Y-58465564D01*
X95957074Y-58654482D01*
X95949865Y-58699999D01*
X95949865Y-58700000D01*
X97507749Y-58700000D01*
X97476619Y-58753919D01*
X97442000Y-58883120D01*
X97442000Y-59016880D01*
X97476619Y-59146081D01*
X97507749Y-59200000D01*
X95949865Y-59200000D01*
X95957074Y-59245517D01*
X96018456Y-59434435D01*
X96108641Y-59611432D01*
X96225403Y-59772139D01*
X96225403Y-59772140D01*
X96365859Y-59912596D01*
X96526567Y-60029358D01*
X96703562Y-60119542D01*
X96892477Y-60180924D01*
X97088679Y-60212000D01*
X97700000Y-60212000D01*
X97700000Y-59392251D01*
X97753919Y-59423381D01*
X97883120Y-59458000D01*
X98016880Y-59458000D01*
X98146081Y-59423381D01*
X98200000Y-59392251D01*
X98200000Y-60212000D01*
X98541218Y-60212000D01*
X98608257Y-60231685D01*
X98654012Y-60284489D01*
X98663956Y-60353647D01*
X98634931Y-60417203D01*
X98628899Y-60423681D01*
X92211681Y-66840899D01*
X92150358Y-66874384D01*
X92080666Y-66869400D01*
X92024733Y-66827528D01*
X92000316Y-66762064D01*
X92000000Y-66753218D01*
X92000000Y-42123986D01*
X92019685Y-42056947D01*
X92072489Y-42011192D01*
X92123982Y-41999986D01*
X167733308Y-41992028D01*
X167800346Y-42011705D01*
X167846107Y-42064504D01*
X167856058Y-42133661D01*
X167847879Y-42163479D01*
X167787950Y-42308160D01*
X167787947Y-42308170D01*
X167749500Y-42501456D01*
X167749500Y-42501459D01*
X167749500Y-43498541D01*
X167749500Y-43498543D01*
X167749499Y-43498543D01*
X167787947Y-43691829D01*
X167787950Y-43691839D01*
X167863364Y-43873907D01*
X167863371Y-43873920D01*
X167972860Y-44037781D01*
X167972863Y-44037785D01*
X168112214Y-44177136D01*
X168112218Y-44177139D01*
X168276079Y-44286628D01*
X168276092Y-44286635D01*
X168458160Y-44362049D01*
X168458165Y-44362051D01*
X168458169Y-44362051D01*
X168458170Y-44362052D01*
X168651456Y-44400500D01*
X168651459Y-44400500D01*
X168848543Y-44400500D01*
X168978582Y-44374632D01*
X169041835Y-44362051D01*
X169223914Y-44286632D01*
X169387782Y-44177139D01*
X169527139Y-44037782D01*
X169636632Y-43873914D01*
X169712051Y-43691835D01*
X169750500Y-43498541D01*
X169750500Y-42501459D01*
X169750500Y-42501456D01*
X169712052Y-42308170D01*
X169712051Y-42308169D01*
X169712051Y-42308165D01*
X169652031Y-42163264D01*
X169644563Y-42093796D01*
X169675838Y-42031317D01*
X169735927Y-41995665D01*
X169766571Y-41991814D01*
X176373682Y-41991118D01*
X176440722Y-42010796D01*
X176486483Y-42063595D01*
X176496434Y-42132752D01*
X176488255Y-42162570D01*
X176427950Y-42308160D01*
X176427947Y-42308170D01*
X176389500Y-42501456D01*
X176389500Y-42501459D01*
X176389500Y-43498541D01*
X176389500Y-43498543D01*
X176389499Y-43498543D01*
X176427947Y-43691829D01*
X176427950Y-43691839D01*
X176503364Y-43873907D01*
X176503371Y-43873920D01*
X176612860Y-44037781D01*
X176612863Y-44037785D01*
X176752214Y-44177136D01*
X176752218Y-44177139D01*
X176916079Y-44286628D01*
X176916092Y-44286635D01*
X177098160Y-44362049D01*
X177098165Y-44362051D01*
X177098169Y-44362051D01*
X177098170Y-44362052D01*
X177291456Y-44400500D01*
X177291459Y-44400500D01*
X177488543Y-44400500D01*
X177618582Y-44374632D01*
X177681835Y-44362051D01*
X177863914Y-44286632D01*
X178027782Y-44177139D01*
X178167139Y-44037782D01*
X178276632Y-43873914D01*
X178352051Y-43691835D01*
X178390500Y-43498541D01*
X178390500Y-42501459D01*
X178390500Y-42501456D01*
X178352052Y-42308170D01*
X178352051Y-42308169D01*
X178352051Y-42308165D01*
X178291654Y-42162354D01*
X178284186Y-42092886D01*
X178315461Y-42030407D01*
X178375550Y-41994755D01*
X178406190Y-41990904D01*
X186875987Y-41990013D01*
X186943028Y-42009691D01*
G37*
%TD.AperFunction*%
%TA.AperFunction,Conductor*%
G36*
X117783945Y-87214372D02*
G01*
X117822984Y-87259425D01*
X117834490Y-87282007D01*
X117868077Y-87347925D01*
X117988621Y-87513840D01*
X117988625Y-87513845D01*
X118133654Y-87658874D01*
X118133659Y-87658878D01*
X118224669Y-87725000D01*
X118299579Y-87779425D01*
X118388073Y-87824515D01*
X118388623Y-87824795D01*
X118439419Y-87872770D01*
X118456214Y-87940590D01*
X118433677Y-88006725D01*
X118388624Y-88045764D01*
X118299841Y-88091002D01*
X118254787Y-88123733D01*
X118254787Y-88123734D01*
X118824513Y-88693460D01*
X118775998Y-88706460D01*
X118654003Y-88776894D01*
X118554394Y-88876503D01*
X118483960Y-88998498D01*
X118470960Y-89047013D01*
X117901234Y-88477287D01*
X117901233Y-88477287D01*
X117868502Y-88522341D01*
X117823264Y-88611124D01*
X117775290Y-88661919D01*
X117707468Y-88678714D01*
X117641334Y-88656176D01*
X117602295Y-88611123D01*
X117556925Y-88522079D01*
X117488197Y-88427483D01*
X117436378Y-88356159D01*
X117436374Y-88356154D01*
X117291345Y-88211125D01*
X117291340Y-88211121D01*
X117125425Y-88090577D01*
X117037474Y-88045764D01*
X117036925Y-88045484D01*
X116986130Y-87997511D01*
X116969335Y-87929690D01*
X116991872Y-87863555D01*
X117036925Y-87824515D01*
X117125421Y-87779425D01*
X117291347Y-87658873D01*
X117436373Y-87513847D01*
X117556925Y-87347921D01*
X117602015Y-87259425D01*
X117649989Y-87208630D01*
X117717810Y-87191835D01*
X117783945Y-87214372D01*
G37*
%TD.AperFunction*%
%TA.AperFunction,Conductor*%
G36*
X107153960Y-86861502D02*
G01*
X107224394Y-86983497D01*
X107324003Y-87083106D01*
X107445998Y-87153540D01*
X107494512Y-87166539D01*
X106924787Y-87736264D01*
X106969847Y-87769001D01*
X106969846Y-87769001D01*
X107058622Y-87814234D01*
X107109419Y-87862208D01*
X107126214Y-87930029D01*
X107103677Y-87996164D01*
X107058624Y-88035203D01*
X106969577Y-88080575D01*
X106803659Y-88201121D01*
X106803654Y-88201125D01*
X106658625Y-88346154D01*
X106658621Y-88346159D01*
X106538077Y-88512075D01*
X106492985Y-88600573D01*
X106445010Y-88651369D01*
X106377189Y-88668164D01*
X106311054Y-88645627D01*
X106272015Y-88600573D01*
X106255077Y-88567331D01*
X106226925Y-88512079D01*
X106201647Y-88477287D01*
X106106378Y-88346159D01*
X106106374Y-88346154D01*
X105961345Y-88201125D01*
X105961340Y-88201121D01*
X105795425Y-88080577D01*
X105773141Y-88069223D01*
X105706925Y-88035484D01*
X105656130Y-87987511D01*
X105639335Y-87919690D01*
X105661872Y-87853555D01*
X105706925Y-87814515D01*
X105795421Y-87769425D01*
X105961347Y-87648873D01*
X106106373Y-87503847D01*
X106226925Y-87337921D01*
X106272295Y-87248876D01*
X106320269Y-87198080D01*
X106388090Y-87181285D01*
X106454225Y-87203822D01*
X106493265Y-87248876D01*
X106538503Y-87337660D01*
X106571233Y-87382711D01*
X106571234Y-87382711D01*
X107140959Y-86812985D01*
X107153960Y-86861502D01*
G37*
%TD.AperFunction*%
%TA.AperFunction,Conductor*%
G36*
X142296575Y-87282007D02*
G01*
X142262500Y-87409174D01*
X142262500Y-87540826D01*
X142296575Y-87667993D01*
X142329488Y-87725000D01*
X140655512Y-87725000D01*
X140688425Y-87667993D01*
X140722500Y-87540826D01*
X140722500Y-87409174D01*
X140688425Y-87282007D01*
X140655512Y-87225000D01*
X142329488Y-87225000D01*
X142296575Y-87282007D01*
G37*
%TD.AperFunction*%
%TA.AperFunction,Conductor*%
G36*
X134092703Y-73000568D02*
G01*
X134099181Y-73006600D01*
X147007367Y-85914786D01*
X147040852Y-85976109D01*
X147035868Y-86045801D01*
X146993996Y-86101734D01*
X146932940Y-86125757D01*
X146885016Y-86130908D01*
X146750171Y-86181202D01*
X146750164Y-86181206D01*
X146634955Y-86267452D01*
X146634952Y-86267455D01*
X146548706Y-86382664D01*
X146548703Y-86382669D01*
X146499689Y-86514083D01*
X146457817Y-86570016D01*
X146392353Y-86594433D01*
X146324080Y-86579581D01*
X146295826Y-86558430D01*
X146182286Y-86444890D01*
X146010320Y-86319951D01*
X145820914Y-86223444D01*
X145820913Y-86223443D01*
X145820912Y-86223443D01*
X145618743Y-86157754D01*
X145618741Y-86157753D01*
X145618740Y-86157753D01*
X145455363Y-86131877D01*
X145408787Y-86124500D01*
X145196213Y-86124500D01*
X145149637Y-86131877D01*
X144986260Y-86157753D01*
X144784085Y-86223444D01*
X144594679Y-86319951D01*
X144422713Y-86444890D01*
X144272390Y-86595213D01*
X144147449Y-86767182D01*
X144142702Y-86776499D01*
X144094727Y-86827293D01*
X144026905Y-86844087D01*
X143960771Y-86821548D01*
X143921734Y-86776495D01*
X143917122Y-86767444D01*
X143792227Y-86595540D01*
X143792223Y-86595535D01*
X143641964Y-86445276D01*
X143641959Y-86445272D01*
X143470057Y-86320379D01*
X143280715Y-86223903D01*
X143078624Y-86158241D01*
X143012500Y-86147768D01*
X143012500Y-87041988D01*
X142955493Y-87009075D01*
X142828326Y-86975000D01*
X142696674Y-86975000D01*
X142569507Y-87009075D01*
X142512500Y-87041988D01*
X142512500Y-86147768D01*
X142512499Y-86147768D01*
X142446375Y-86158241D01*
X142244284Y-86223903D01*
X142054942Y-86320379D01*
X141883040Y-86445272D01*
X141883035Y-86445276D01*
X141732776Y-86595535D01*
X141732772Y-86595540D01*
X141607877Y-86767444D01*
X141602984Y-86777048D01*
X141555009Y-86827844D01*
X141487188Y-86844638D01*
X141421053Y-86822100D01*
X141382016Y-86777048D01*
X141377122Y-86767444D01*
X141252227Y-86595540D01*
X141252223Y-86595535D01*
X141101964Y-86445276D01*
X141101959Y-86445272D01*
X140930057Y-86320379D01*
X140740715Y-86223903D01*
X140538624Y-86158241D01*
X140472500Y-86147768D01*
X140472500Y-87041988D01*
X140415493Y-87009075D01*
X140288326Y-86975000D01*
X140156674Y-86975000D01*
X140029507Y-87009075D01*
X139972500Y-87041988D01*
X139972500Y-86147768D01*
X139972499Y-86147768D01*
X139906375Y-86158241D01*
X139704284Y-86223903D01*
X139514942Y-86320379D01*
X139343040Y-86445272D01*
X139343035Y-86445276D01*
X139192776Y-86595535D01*
X139192772Y-86595540D01*
X139067878Y-86767443D01*
X139063262Y-86776502D01*
X139015284Y-86827295D01*
X138947463Y-86844087D01*
X138881329Y-86821546D01*
X138842294Y-86776493D01*
X138837551Y-86767184D01*
X138837549Y-86767181D01*
X138837548Y-86767179D01*
X138712609Y-86595213D01*
X138562286Y-86444890D01*
X138390320Y-86319951D01*
X138200914Y-86223444D01*
X138200913Y-86223443D01*
X138200912Y-86223443D01*
X137998743Y-86157754D01*
X137998741Y-86157753D01*
X137998740Y-86157753D01*
X137835363Y-86131877D01*
X137788787Y-86124500D01*
X137576213Y-86124500D01*
X137529637Y-86131877D01*
X137366255Y-86157754D01*
X137352793Y-86162128D01*
X137282951Y-86164122D01*
X137226796Y-86131877D01*
X133923819Y-82828900D01*
X133890334Y-82767577D01*
X133887500Y-82741219D01*
X133887500Y-73094281D01*
X133907185Y-73027242D01*
X133959989Y-72981487D01*
X134029147Y-72971543D01*
X134092703Y-73000568D01*
G37*
%TD.AperFunction*%
%TD*%
M02*
